<?xml version="1.0" encoding="UTF-8" standalone="no"?>
<!-- Created with Inkscape (http://www.inkscape.org/) -->

<svg
   xmlns:dc="http://purl.org/dc/elements/1.1/"
   xmlns:cc="http://creativecommons.org/ns#"
   xmlns:rdf="http://www.w3.org/1999/02/22-rdf-syntax-ns#"
   xmlns:svg="http://www.w3.org/2000/svg"
   xmlns="http://www.w3.org/2000/svg"
   xmlns:xlink="http://www.w3.org/1999/xlink"
   xmlns:sodipodi="http://sodipodi.sourceforge.net/DTD/sodipodi-0.dtd"
   xmlns:inkscape="http://www.inkscape.org/namespaces/inkscape"
   width="1000"
   height="1000"
   id="svg2"
   sodipodi:version="0.32"
   inkscape:version="0.47 r22583"
   sodipodi:docname="fullscreen_exit.svg"
   inkscape:export-filename="/home/philippe/devel/rawtherapee/icons/NewIcons/fullscreen_exit.png"
   inkscape:export-xdpi="2.1600001"
   inkscape:export-ydpi="2.1600001"
   version="1.1">
  <defs
     id="defs4">
    <inkscape:perspective
       sodipodi:type="inkscape:persp3d"
       inkscape:vp_x="0 : 36 : 1"
       inkscape:vp_y="0 : 1000 : 0"
       inkscape:vp_z="72 : 36 : 1"
       inkscape:persp3d-origin="36 : 24 : 1"
       id="perspective21" />
    <inkscape:perspective
       id="perspective3614"
       inkscape:persp3d-origin="0.5 : 0.33333333 : 1"
       inkscape:vp_z="1 : 0.5 : 1"
       inkscape:vp_y="0 : 1000 : 0"
       inkscape:vp_x="0 : 0.5 : 1"
       sodipodi:type="inkscape:persp3d" />
    <inkscape:perspective
       id="perspective3636"
       inkscape:persp3d-origin="0.5 : 0.33333333 : 1"
       inkscape:vp_z="1 : 0.5 : 1"
       inkscape:vp_y="0 : 1000 : 0"
       inkscape:vp_x="0 : 0.5 : 1"
       sodipodi:type="inkscape:persp3d" />
    <inkscape:perspective
       id="perspective3658"
       inkscape:persp3d-origin="0.5 : 0.33333333 : 1"
       inkscape:vp_z="1 : 0.5 : 1"
       inkscape:vp_y="0 : 1000 : 0"
       inkscape:vp_x="0 : 0.5 : 1"
       sodipodi:type="inkscape:persp3d" />
    <inkscape:perspective
       id="perspective3680"
       inkscape:persp3d-origin="0.5 : 0.33333333 : 1"
       inkscape:vp_z="1 : 0.5 : 1"
       inkscape:vp_y="0 : 1000 : 0"
       inkscape:vp_x="0 : 0.5 : 1"
       sodipodi:type="inkscape:persp3d" />
    <inkscape:perspective
       id="perspective3680-0"
       inkscape:persp3d-origin="0.5 : 0.33333333 : 1"
       inkscape:vp_z="1 : 0.5 : 1"
       inkscape:vp_y="0 : 1000 : 0"
       inkscape:vp_x="0 : 0.5 : 1"
       sodipodi:type="inkscape:persp3d" />
    <inkscape:perspective
       id="perspective3680-8"
       inkscape:persp3d-origin="0.5 : 0.33333333 : 1"
       inkscape:vp_z="1 : 0.5 : 1"
       inkscape:vp_y="0 : 1000 : 0"
       inkscape:vp_x="0 : 0.5 : 1"
       sodipodi:type="inkscape:persp3d" />
    <inkscape:perspective
       id="perspective3720"
       inkscape:persp3d-origin="0.5 : 0.33333333 : 1"
       inkscape:vp_z="1 : 0.5 : 1"
       inkscape:vp_y="0 : 1000 : 0"
       inkscape:vp_x="0 : 0.5 : 1"
       sodipodi:type="inkscape:persp3d" />
    <inkscape:perspective
       id="perspective3742"
       inkscape:persp3d-origin="0.5 : 0.33333333 : 1"
       inkscape:vp_z="1 : 0.5 : 1"
       inkscape:vp_y="0 : 1000 : 0"
       inkscape:vp_x="0 : 0.5 : 1"
       sodipodi:type="inkscape:persp3d" />
    <inkscape:perspective
       id="perspective3742-2"
       inkscape:persp3d-origin="0.5 : 0.33333333 : 1"
       inkscape:vp_z="1 : 0.5 : 1"
       inkscape:vp_y="0 : 1000 : 0"
       inkscape:vp_x="0 : 0.5 : 1"
       sodipodi:type="inkscape:persp3d" />
    <inkscape:perspective
       id="perspective3742-26"
       inkscape:persp3d-origin="0.5 : 0.33333333 : 1"
       inkscape:vp_z="1 : 0.5 : 1"
       inkscape:vp_y="0 : 1000 : 0"
       inkscape:vp_x="0 : 0.5 : 1"
       sodipodi:type="inkscape:persp3d" />
    <inkscape:perspective
       id="perspective3742-0"
       inkscape:persp3d-origin="0.5 : 0.33333333 : 1"
       inkscape:vp_z="1 : 0.5 : 1"
       inkscape:vp_y="0 : 1000 : 0"
       inkscape:vp_x="0 : 0.5 : 1"
       sodipodi:type="inkscape:persp3d" />
    <inkscape:perspective
       id="perspective3742-1"
       inkscape:persp3d-origin="0.5 : 0.33333333 : 1"
       inkscape:vp_z="1 : 0.5 : 1"
       inkscape:vp_y="0 : 1000 : 0"
       inkscape:vp_x="0 : 0.5 : 1"
       sodipodi:type="inkscape:persp3d" />
    <inkscape:perspective
       id="perspective3836"
       inkscape:persp3d-origin="0.5 : 0.33333333 : 1"
       inkscape:vp_z="1 : 0.5 : 1"
       inkscape:vp_y="0 : 1000 : 0"
       inkscape:vp_x="0 : 0.5 : 1"
       sodipodi:type="inkscape:persp3d" />
    <inkscape:perspective
       id="perspective2861"
       inkscape:persp3d-origin="0.5 : 0.33333333 : 1"
       inkscape:vp_z="1 : 0.5 : 1"
       inkscape:vp_y="0 : 1000 : 0"
       inkscape:vp_x="0 : 0.5 : 1"
       sodipodi:type="inkscape:persp3d" />
    <inkscape:perspective
       id="perspective2871"
       inkscape:persp3d-origin="0.5 : 0.33333333 : 1"
       inkscape:vp_z="1 : 0.5 : 1"
       inkscape:vp_y="0 : 1000 : 0"
       inkscape:vp_x="0 : 0.5 : 1"
       sodipodi:type="inkscape:persp3d" />
    <inkscape:perspective
       id="perspective2906"
       inkscape:persp3d-origin="0.5 : 0.33333333 : 1"
       inkscape:vp_z="1 : 0.5 : 1"
       inkscape:vp_y="0 : 1000 : 0"
       inkscape:vp_x="0 : 0.5 : 1"
       sodipodi:type="inkscape:persp3d" />
    <inkscape:perspective
       id="perspective2912"
       inkscape:persp3d-origin="0.5 : 0.33333333 : 1"
       inkscape:vp_z="1 : 0.5 : 1"
       inkscape:vp_y="0 : 1000 : 0"
       inkscape:vp_x="0 : 0.5 : 1"
       sodipodi:type="inkscape:persp3d" />
    <inkscape:perspective
       id="perspective2861-9"
       inkscape:persp3d-origin="0.5 : 0.33333333 : 1"
       inkscape:vp_z="1 : 0.5 : 1"
       inkscape:vp_y="0 : 1000 : 0"
       inkscape:vp_x="0 : 0.5 : 1"
       sodipodi:type="inkscape:persp3d" />
    <inkscape:perspective
       id="perspective4375"
       inkscape:persp3d-origin="0.5 : 0.33333333 : 1"
       inkscape:vp_z="1 : 0.5 : 1"
       inkscape:vp_y="0 : 1000 : 0"
       inkscape:vp_x="0 : 0.5 : 1"
       sodipodi:type="inkscape:persp3d" />
    <inkscape:perspective
       id="perspective5121"
       inkscape:persp3d-origin="0.5 : 0.33333333 : 1"
       inkscape:vp_z="1 : 0.5 : 1"
       inkscape:vp_y="0 : 1000 : 0"
       inkscape:vp_x="0 : 0.5 : 1"
       sodipodi:type="inkscape:persp3d" />
    <inkscape:perspective
       id="perspective5143"
       inkscape:persp3d-origin="0.5 : 0.33333333 : 1"
       inkscape:vp_z="1 : 0.5 : 1"
       inkscape:vp_y="0 : 1000 : 0"
       inkscape:vp_x="0 : 0.5 : 1"
       sodipodi:type="inkscape:persp3d" />
    <linearGradient
       inkscape:collect="always"
       xlink:href="#linearGradient4081"
       id="linearGradient3201"
       gradientUnits="userSpaceOnUse"
       gradientTransform="matrix(1,0,0,-1,-92,48)"
       x1="56"
       y1="-26"
       x2="56"
       y2="30" />
    <linearGradient
       id="linearGradient4081">
      <stop
         style="stop-color:#aaaaaa;stop-opacity:1;"
         offset="0"
         id="stop4083" />
      <stop
         style="stop-color:#f0f0f0;stop-opacity:1;"
         offset="1"
         id="stop4085" />
    </linearGradient>
    <linearGradient
       y2="30"
       x2="56"
       y1="-26"
       x1="56"
       gradientTransform="matrix(10.984289,0,0,-10.984289,-957.07363,-112.68977)"
       gradientUnits="userSpaceOnUse"
       id="linearGradient5152"
       xlink:href="#linearGradient4081"
       inkscape:collect="always" />
    <inkscape:perspective
       id="perspective5181"
       inkscape:persp3d-origin="0.5 : 0.33333333 : 1"
       inkscape:vp_z="1 : 0.5 : 1"
       inkscape:vp_y="0 : 1000 : 0"
       inkscape:vp_x="0 : 0.5 : 1"
       sodipodi:type="inkscape:persp3d" />
    <inkscape:perspective
       id="perspective8156"
       inkscape:persp3d-origin="0.5 : 0.33333333 : 1"
       inkscape:vp_z="1 : 0.5 : 1"
       inkscape:vp_y="0 : 1000 : 0"
       inkscape:vp_x="0 : 0.5 : 1"
       sodipodi:type="inkscape:persp3d" />
    <inkscape:perspective
       id="perspective8192"
       inkscape:persp3d-origin="0.5 : 0.33333333 : 1"
       inkscape:vp_z="1 : 0.5 : 1"
       inkscape:vp_y="0 : 1000 : 0"
       inkscape:vp_x="0 : 0.5 : 1"
       sodipodi:type="inkscape:persp3d" />
    <radialGradient
       inkscape:collect="always"
       xlink:href="#linearGradient3641"
       id="radialGradient7847"
       cx="30.03125"
       cy="34.6875"
       fx="30.03125"
       fy="34.6875"
       r="317.29843"
       gradientUnits="userSpaceOnUse"
       gradientTransform="matrix(1.4452614,0,0,1.4177194,-13.371756,-14.489643)" />
    <linearGradient
       inkscape:collect="always"
       id="linearGradient3641">
      <stop
         style="stop-color:#ffffff;stop-opacity:1;"
         offset="0"
         id="stop3643" />
      <stop
         style="stop-color:#ffffff;stop-opacity:0;"
         offset="1"
         id="stop3645" />
    </linearGradient>
    <radialGradient
       r="317.29843"
       fy="34.6875"
       fx="30.03125"
       cy="34.6875"
       cx="30.03125"
       gradientTransform="matrix(1.4452614,0,0,1.4177194,-38.843582,-39.941093)"
       gradientUnits="userSpaceOnUse"
       id="radialGradient8203"
       xlink:href="#linearGradient3641"
       inkscape:collect="always" />
    <filter
       inkscape:collect="always"
       id="filter8742">
      <feGaussianBlur
         inkscape:collect="always"
         stdDeviation="8.73775"
         id="feGaussianBlur8744" />
    </filter>
    <radialGradient
       inkscape:collect="always"
       xlink:href="#linearGradient3641"
       id="radialGradient8752"
       cx="30.03125"
       cy="34.703125"
       fx="30.03125"
       fy="34.703125"
       r="304.67532"
       gradientTransform="matrix(1.4282682,0,0,1.4116388,-12.86143,-14.285154)"
       gradientUnits="userSpaceOnUse" />
    <radialGradient
       inkscape:collect="always"
       xlink:href="#linearGradient3641"
       id="radialGradient5078"
       gradientUnits="userSpaceOnUse"
       gradientTransform="matrix(1.4282682,0,0,1.4116388,-12.86143,-14.285154)"
       cx="30.03125"
       cy="34.703125"
       fx="30.03125"
       fy="34.703125"
       r="304.67532" />
  </defs>
  <sodipodi:namedview
     id="base"
     pagecolor="#ffffff"
     bordercolor="#666666"
     borderopacity="1.0"
     inkscape:pageopacity="0.0"
     inkscape:pageshadow="2"
     inkscape:zoom="0.394"
     inkscape:cx="34.26396"
     inkscape:cy="601.52285"
     inkscape:document-units="px"
     inkscape:current-layer="g4060"
     showguides="true"
     inkscape:guide-bbox="true"
     inkscape:window-width="1920"
     inkscape:window-height="1032"
     inkscape:window-x="-1"
     inkscape:window-y="0"
     showgrid="true"
     showborder="true"
     inkscape:showpageshadow="true"
     inkscape:window-maximized="1" />
  <metadata
     id="metadata7">
    <rdf:RDF>
      <cc:Work
         rdf:about="">
        <dc:format>image/svg+xml</dc:format>
        <dc:type
           rdf:resource="http://purl.org/dc/dcmitype/StillImage" />
        <dc:title />
      </cc:Work>
    </rdf:RDF>
  </metadata>
  <g
     inkscape:label="Layer 1"
     inkscape:groupmode="layer"
     id="layer1"
     transform="translate(464.16179,464.03236)">
    <g
       id="g4082"
       transform="translate(0,1.552561)">
      <g
         id="g4060"
         transform="matrix(1.5074827,0,0,1.5074827,-9.4212231,-17.89429)">
        <path
           style="fill:#000000;fill-opacity:1;stroke:none;display:inline"
           d="m -655.60206,-298.88212 -92.26806,123.02402 184.53597,0 -92.26791,-123.02402 z m -98.3552,184.53596 c -13.63106,1.5e-4 -24.66882,11.03792 -24.66882,24.668969 l 0,221.379251 246.04805,0 0,-221.379251 c 0,-13.631049 -11.03791,-24.668969 -24.66896,-24.668969 l -196.71027,0 z m 108.60709,20.504078 c 5.67961,0 10.25204,4.572426 10.25204,10.252052 0,5.679594 -4.57243,10.251887 -10.25204,10.251887 -5.67961,0 -10.25189,-4.572293 -10.25189,-10.251887 0,-5.679626 4.57228,-10.252052 10.25189,-10.252052 z m 41.00801,0 c 5.67961,0 10.25204,4.572426 10.25204,10.252052 0,5.679594 -4.57243,10.251887 -10.25204,10.251887 -5.67961,0 -10.25189,-4.572293 -10.25189,-10.251887 0,-5.679626 4.57228,-10.252052 10.25189,-10.252052 z m 41.00801,0 c 5.67961,0 10.25204,4.572426 10.25204,10.252052 0,5.679594 -4.57243,10.251887 -10.25204,10.251887 -5.67961,0 -10.25189,-4.572293 -10.25189,-10.251887 0,-5.679626 4.57228,-10.252052 10.25189,-10.252052 z m -276.80402,10.252052 -123.024,92.2679055 123.024,92.2680645 0,-184.53597 z m 369.07207,0 0,184.53597 L -348.04207,8.6778755 -471.0661,-83.59003 z m -265.59084,30.755966 163.0709,0 0,143.20773 -163.0709,0 0,-143.20773 z m -11.21318,246.048054 92.26806,123.02405 92.26791,-123.02405 -184.53597,0 z"
           id="path2893-3" />
        <g
           id="g5074"
           transform="matrix(1.097677,0,0,1.097677,-2.9325739,-3.389375)">
          <path
             id="path2887"
             d="m -62.244858,-252.35633 92.268057,123.02418 92.268061,-123.02418 -184.536118,0 z m -6.087162,164.032188 c -13.631059,0 -24.668809,11.037747 -24.668809,24.668817 l 0,221.379235 246.048049,0 0,-221.379235 c 0,-13.63107 -11.03776,-24.668817 -24.66882,-24.668817 l -196.71042,0 z M 40.27524,-67.82022 c 5.67961,0 10.251887,4.57243 10.251887,10.25204 0,5.67961 -4.572277,10.252039 -10.251887,10.252039 -5.67961,0 -10.252041,-4.572429 -10.252041,-10.252039 0,-5.67961 4.572431,-10.25204 10.252041,-10.25204 z m 41.008009,0 c 5.67961,0 10.251887,4.57243 10.251887,10.25204 0,5.67961 -4.572277,10.252039 -10.251887,10.252039 -5.67961,0 -10.252041,-4.572429 -10.252041,-10.252039 0,-5.67961 4.572431,-10.25204 10.252041,-10.25204 z m 41.008011,0 c 5.67961,0 10.25204,4.57243 10.25204,10.25204 0,5.67961 -4.57243,10.252039 -10.25204,10.252039 -5.67961,0 -10.25204,-4.572429 -10.25204,-10.252039 0,-5.67961 4.57243,-10.25204 10.25204,-10.25204 z m -379.32414,10.25204 0,184.53596 123.02404,-92.267901 -123.02404,-92.268059 z m 574.11213,0 -123.02402,92.268059 123.02402,92.267901 0,-184.53596 z m -368.11095,30.755969 163.07092,0 0,143.207731 -163.07092,0 0,-143.207731 z m 81.054899,225.544121 -92.268057,123.02405 184.536118,0 -92.268061,-123.02405 z"
             style="opacity:0.7;fill:#2a7fff;fill-opacity:1;stroke:none;display:inline" />
          <path
             id="path3611"
             d="m -11.0625,-74.40625 c -20.89507,0.518935 -42.150032,-0.609957 -62.8125,1.625 -8.842534,6.824254 -4.439197,19.547025 -5.125,29.125 0,62.458333 0,124.916667 0,187.375 72.6875,0 145.375,0 218.0625,0 -0.44071,-60.95 0.8189,-122.461684 -0.40625,-183.0625 -3.53121,3.13287 -7.87258,5.33013 -12.625,5.8125 0,54.645833 0,109.291667 0,163.9375 -63.6875,0 -127.375,0 -191.0625,0 0,-57.072917 0,-114.145833 0,-171.21875 29.019363,-0.104469 59.047084,0.208737 87.4375,-0.15625 -9.028329,-8.838747 -8.585673,-24.835279 0.53125,-33.4375 -11.333327,-0.02972 -22.6666988,-0.05281 -34,0 z"
             style="opacity:0.4;fill:url(#radialGradient5078);fill-opacity:1;stroke:none;display:inline;filter:url(#filter8742)" />
        </g>
      </g>
    </g>
  </g>
</svg>
