<?xml version="1.0" encoding="UTF-8" standalone="no"?>
<!-- Created with Inkscape (http://www.inkscape.org/) -->

<svg
   xmlns:dc="http://purl.org/dc/elements/1.1/"
   xmlns:cc="http://creativecommons.org/ns#"
   xmlns:rdf="http://www.w3.org/1999/02/22-rdf-syntax-ns#"
   xmlns:svg="http://www.w3.org/2000/svg"
   xmlns="http://www.w3.org/2000/svg"
   xmlns:xlink="http://www.w3.org/1999/xlink"
   xmlns:sodipodi="http://sodipodi.sourceforge.net/DTD/sodipodi-0.dtd"
   xmlns:inkscape="http://www.inkscape.org/namespaces/inkscape"
   width="1000"
   height="1000"
   id="svg2"
   sodipodi:version="0.32"
   inkscape:version="0.47 r22583"
   sodipodi:docname="processing.svg"
   inkscape:export-filename="/home/philippe/devel/rawtherapee/icons/NewIcons/processing.png"
   inkscape:export-xdpi="1.8"
   inkscape:export-ydpi="1.8"
   version="1.1">
  <defs
     id="defs4">
    <inkscape:path-effect
       effect="spiro"
       id="path-effect3669"
       is_visible="true" />
    <inkscape:perspective
       sodipodi:type="inkscape:persp3d"
       inkscape:vp_x="0 : 36 : 1"
       inkscape:vp_y="0 : 1000 : 0"
       inkscape:vp_z="72 : 36 : 1"
       inkscape:persp3d-origin="36 : 24 : 1"
       id="perspective21" />
    <inkscape:perspective
       id="perspective3614"
       inkscape:persp3d-origin="0.5 : 0.33333333 : 1"
       inkscape:vp_z="1 : 0.5 : 1"
       inkscape:vp_y="0 : 1000 : 0"
       inkscape:vp_x="0 : 0.5 : 1"
       sodipodi:type="inkscape:persp3d" />
    <inkscape:perspective
       id="perspective3636"
       inkscape:persp3d-origin="0.5 : 0.33333333 : 1"
       inkscape:vp_z="1 : 0.5 : 1"
       inkscape:vp_y="0 : 1000 : 0"
       inkscape:vp_x="0 : 0.5 : 1"
       sodipodi:type="inkscape:persp3d" />
    <inkscape:perspective
       id="perspective3658"
       inkscape:persp3d-origin="0.5 : 0.33333333 : 1"
       inkscape:vp_z="1 : 0.5 : 1"
       inkscape:vp_y="0 : 1000 : 0"
       inkscape:vp_x="0 : 0.5 : 1"
       sodipodi:type="inkscape:persp3d" />
    <inkscape:perspective
       id="perspective3680"
       inkscape:persp3d-origin="0.5 : 0.33333333 : 1"
       inkscape:vp_z="1 : 0.5 : 1"
       inkscape:vp_y="0 : 1000 : 0"
       inkscape:vp_x="0 : 0.5 : 1"
       sodipodi:type="inkscape:persp3d" />
    <inkscape:perspective
       id="perspective3680-0"
       inkscape:persp3d-origin="0.5 : 0.33333333 : 1"
       inkscape:vp_z="1 : 0.5 : 1"
       inkscape:vp_y="0 : 1000 : 0"
       inkscape:vp_x="0 : 0.5 : 1"
       sodipodi:type="inkscape:persp3d" />
    <inkscape:perspective
       id="perspective3680-8"
       inkscape:persp3d-origin="0.5 : 0.33333333 : 1"
       inkscape:vp_z="1 : 0.5 : 1"
       inkscape:vp_y="0 : 1000 : 0"
       inkscape:vp_x="0 : 0.5 : 1"
       sodipodi:type="inkscape:persp3d" />
    <inkscape:perspective
       id="perspective3720"
       inkscape:persp3d-origin="0.5 : 0.33333333 : 1"
       inkscape:vp_z="1 : 0.5 : 1"
       inkscape:vp_y="0 : 1000 : 0"
       inkscape:vp_x="0 : 0.5 : 1"
       sodipodi:type="inkscape:persp3d" />
    <inkscape:perspective
       id="perspective3742"
       inkscape:persp3d-origin="0.5 : 0.33333333 : 1"
       inkscape:vp_z="1 : 0.5 : 1"
       inkscape:vp_y="0 : 1000 : 0"
       inkscape:vp_x="0 : 0.5 : 1"
       sodipodi:type="inkscape:persp3d" />
    <inkscape:perspective
       id="perspective3742-2"
       inkscape:persp3d-origin="0.5 : 0.33333333 : 1"
       inkscape:vp_z="1 : 0.5 : 1"
       inkscape:vp_y="0 : 1000 : 0"
       inkscape:vp_x="0 : 0.5 : 1"
       sodipodi:type="inkscape:persp3d" />
    <inkscape:perspective
       id="perspective3742-26"
       inkscape:persp3d-origin="0.5 : 0.33333333 : 1"
       inkscape:vp_z="1 : 0.5 : 1"
       inkscape:vp_y="0 : 1000 : 0"
       inkscape:vp_x="0 : 0.5 : 1"
       sodipodi:type="inkscape:persp3d" />
    <inkscape:perspective
       id="perspective3742-0"
       inkscape:persp3d-origin="0.5 : 0.33333333 : 1"
       inkscape:vp_z="1 : 0.5 : 1"
       inkscape:vp_y="0 : 1000 : 0"
       inkscape:vp_x="0 : 0.5 : 1"
       sodipodi:type="inkscape:persp3d" />
    <inkscape:perspective
       id="perspective3742-1"
       inkscape:persp3d-origin="0.5 : 0.33333333 : 1"
       inkscape:vp_z="1 : 0.5 : 1"
       inkscape:vp_y="0 : 1000 : 0"
       inkscape:vp_x="0 : 0.5 : 1"
       sodipodi:type="inkscape:persp3d" />
    <inkscape:perspective
       id="perspective3836"
       inkscape:persp3d-origin="0.5 : 0.33333333 : 1"
       inkscape:vp_z="1 : 0.5 : 1"
       inkscape:vp_y="0 : 1000 : 0"
       inkscape:vp_x="0 : 0.5 : 1"
       sodipodi:type="inkscape:persp3d" />
    <inkscape:perspective
       id="perspective2861"
       inkscape:persp3d-origin="0.5 : 0.33333333 : 1"
       inkscape:vp_z="1 : 0.5 : 1"
       inkscape:vp_y="0 : 1000 : 0"
       inkscape:vp_x="0 : 0.5 : 1"
       sodipodi:type="inkscape:persp3d" />
    <inkscape:perspective
       id="perspective2871"
       inkscape:persp3d-origin="0.5 : 0.33333333 : 1"
       inkscape:vp_z="1 : 0.5 : 1"
       inkscape:vp_y="0 : 1000 : 0"
       inkscape:vp_x="0 : 0.5 : 1"
       sodipodi:type="inkscape:persp3d" />
    <inkscape:perspective
       id="perspective2906"
       inkscape:persp3d-origin="0.5 : 0.33333333 : 1"
       inkscape:vp_z="1 : 0.5 : 1"
       inkscape:vp_y="0 : 1000 : 0"
       inkscape:vp_x="0 : 0.5 : 1"
       sodipodi:type="inkscape:persp3d" />
    <inkscape:perspective
       id="perspective2912"
       inkscape:persp3d-origin="0.5 : 0.33333333 : 1"
       inkscape:vp_z="1 : 0.5 : 1"
       inkscape:vp_y="0 : 1000 : 0"
       inkscape:vp_x="0 : 0.5 : 1"
       sodipodi:type="inkscape:persp3d" />
    <inkscape:perspective
       id="perspective2861-9"
       inkscape:persp3d-origin="0.5 : 0.33333333 : 1"
       inkscape:vp_z="1 : 0.5 : 1"
       inkscape:vp_y="0 : 1000 : 0"
       inkscape:vp_x="0 : 0.5 : 1"
       sodipodi:type="inkscape:persp3d" />
    <inkscape:perspective
       id="perspective2911"
       inkscape:persp3d-origin="0.5 : 0.33333333 : 1"
       inkscape:vp_z="1 : 0.5 : 1"
       inkscape:vp_y="0 : 1000 : 0"
       inkscape:vp_x="0 : 0.5 : 1"
       sodipodi:type="inkscape:persp3d" />
    <linearGradient
       y2="45.017357"
       x2="20.758585"
       y1="1"
       x1="20.758585"
       gradientTransform="matrix(1.6744133,0,0,1.6744133,7.8140536,-64.51142)"
       gradientUnits="userSpaceOnUse"
       id="linearGradient4427"
       xlink:href="#linearGradient3904"
       inkscape:collect="always" />
    <linearGradient
       gradientUnits="userSpaceOnUse"
       y2="18.083122"
       x2="11"
       y1="3.9374998"
       x1="11"
       id="linearGradient3904">
      <stop
         id="stop3906"
         offset="0"
         style="stop-color:#323232;stop-opacity:1;" />
      <stop
         id="stop3908"
         offset="1"
         style="stop-color:#787878;stop-opacity:1;" />
    </linearGradient>
    <inkscape:perspective
       id="perspective2881"
       inkscape:persp3d-origin="0.5 : 0.33333333 : 1"
       inkscape:vp_z="1 : 0.5 : 1"
       inkscape:vp_y="0 : 1000 : 0"
       inkscape:vp_x="0 : 0.5 : 1"
       sodipodi:type="inkscape:persp3d" />
    <inkscape:perspective
       id="perspective8938"
       inkscape:persp3d-origin="0.5 : 0.33333333 : 1"
       inkscape:vp_z="1 : 0.5 : 1"
       inkscape:vp_y="0 : 1000 : 0"
       inkscape:vp_x="0 : 0.5 : 1"
       sodipodi:type="inkscape:persp3d" />
    <inkscape:perspective
       id="perspective8993"
       inkscape:persp3d-origin="0.5 : 0.33333333 : 1"
       inkscape:vp_z="1 : 0.5 : 1"
       inkscape:vp_y="0 : 1000 : 0"
       inkscape:vp_x="0 : 0.5 : 1"
       sodipodi:type="inkscape:persp3d" />
    <linearGradient
       inkscape:collect="always"
       xlink:href="#linearGradient4055"
       id="linearGradient6633"
       gradientUnits="userSpaceOnUse"
       x1="-786.3324"
       y1="356.60675"
       x2="80.769913"
       y2="356.60675" />
    <linearGradient
       inkscape:collect="always"
       id="linearGradient4055">
      <stop
         style="stop-color:#ffffff;stop-opacity:1;"
         offset="0"
         id="stop4057" />
      <stop
         style="stop-color:#ffffff;stop-opacity:0;"
         offset="1"
         id="stop4059" />
    </linearGradient>
    <filter
       color-interpolation-filters="sRGB"
       inkscape:collect="always"
       id="filter5063">
      <feGaussianBlur
         inkscape:collect="always"
         stdDeviation="8.2374645"
         id="feGaussianBlur5065" />
    </filter>
    <linearGradient
       inkscape:collect="always"
       xlink:href="#linearGradient3641"
       id="linearGradient6635"
       gradientUnits="userSpaceOnUse"
       x1="-782.90625"
       y1="86.34375"
       x2="-643.34375"
       y2="86.34375" />
    <linearGradient
       inkscape:collect="always"
       id="linearGradient3641">
      <stop
         style="stop-color:#ffffff;stop-opacity:1;"
         offset="0"
         id="stop3643" />
      <stop
         style="stop-color:#ffffff;stop-opacity:0;"
         offset="1"
         id="stop3645" />
    </linearGradient>
    <filter
       color-interpolation-filters="sRGB"
       inkscape:collect="always"
       id="filter6623">
      <feGaussianBlur
         inkscape:collect="always"
         stdDeviation="2.4075"
         id="feGaussianBlur6625" />
    </filter>
    <linearGradient
       y2="86.34375"
       x2="-643.34375"
       y1="86.34375"
       x1="-782.90625"
       gradientUnits="userSpaceOnUse"
       id="linearGradient9014"
       xlink:href="#linearGradient3641"
       inkscape:collect="always" />
    <inkscape:perspective
       id="perspective9605"
       inkscape:persp3d-origin="0.5 : 0.33333333 : 1"
       inkscape:vp_z="1 : 0.5 : 1"
       inkscape:vp_y="0 : 1000 : 0"
       inkscape:vp_x="0 : 0.5 : 1"
       sodipodi:type="inkscape:persp3d" />
    <inkscape:perspective
       id="perspective9627"
       inkscape:persp3d-origin="0.5 : 0.33333333 : 1"
       inkscape:vp_z="1 : 0.5 : 1"
       inkscape:vp_y="0 : 1000 : 0"
       inkscape:vp_x="0 : 0.5 : 1"
       sodipodi:type="inkscape:persp3d" />
    <radialGradient
       inkscape:collect="always"
       xlink:href="#linearGradient3641"
       id="radialGradient9647"
       cx="-55.468754"
       cy="119.59375"
       fx="-55.468754"
       fy="119.59375"
       r="175.84375"
       gradientTransform="matrix(1,0,0,1.0014217,0,-0.17003184)"
       gradientUnits="userSpaceOnUse" />
    <filter
       inkscape:collect="always"
       id="filter9653">
      <feGaussianBlur
         inkscape:collect="always"
         stdDeviation="5.6309999"
         id="feGaussianBlur9655" />
    </filter>
    <filter
       inkscape:collect="always"
       id="filter9661">
      <feGaussianBlur
         inkscape:collect="always"
         stdDeviation="4.0350787"
         id="feGaussianBlur9663" />
    </filter>
    <radialGradient
       inkscape:collect="always"
       xlink:href="#linearGradient3641"
       id="radialGradient9671"
       cx="166.58305"
       cy="-123.26563"
       fx="166.58305"
       fy="-123.26563"
       r="140.83804"
       gradientTransform="matrix(1,0,0,0.99796803,0,-0.25047243)"
       gradientUnits="userSpaceOnUse" />
  </defs>
  <sodipodi:namedview
     id="base"
     pagecolor="#ffffff"
     bordercolor="#666666"
     borderopacity="1.0"
     inkscape:pageopacity="0.0"
     inkscape:pageshadow="2"
     inkscape:zoom="0.45544553"
     inkscape:cx="-259.32616"
     inkscape:cy="500.3989"
     inkscape:document-units="px"
     inkscape:current-layer="g4060"
     showguides="true"
     inkscape:guide-bbox="true"
     inkscape:window-width="1920"
     inkscape:window-height="1032"
     inkscape:window-x="-1"
     inkscape:window-y="0"
     showgrid="true"
     showborder="true"
     inkscape:showpageshadow="true"
     inkscape:window-maximized="1" />
  <metadata
     id="metadata7">
    <rdf:RDF>
      <cc:Work
         rdf:about="">
        <dc:format>image/svg+xml</dc:format>
        <dc:type
           rdf:resource="http://purl.org/dc/dcmitype/StillImage" />
        <dc:title></dc:title>
      </cc:Work>
    </rdf:RDF>
  </metadata>
  <g
     inkscape:label="Layer 1"
     inkscape:groupmode="layer"
     id="layer1"
     transform="translate(464.16179,464.03236)">
    <g
       id="g4082"
       transform="translate(0,1.552561)">
      <g
         id="g4060"
         transform="matrix(1.5074827,0,0,1.5074827,-9.4212231,-17.89429)">
        <g
           id="g3671"
           transform="matrix(1.026005,0,0,1.026005,2.9592163,-8.3554265)"
           style="fill:#2a7fff">
          <path
             style="opacity:0.69999999999999996;fill:#2a7fff;fill-opacity:1;fill-rule:nonzero;stroke:none;stroke-width:1;marker:none;visibility:visible;display:block;overflow:visible;enable-background:accumulate"
             id="rect3267"
             d="m -6.6717177,-71.056482 c -7.2883193,-2.985815 -15.6653393,0.642522 -18.7019553,8.054844 l -10.695839,26.108343 c -14.453541,-1.866563 -29.0532,-1.723193 -43.160272,0.235269 L -90.193057,-62.83817 c -1.547408,-3.69433 -4.117764,-6.368322 -7.497016,-7.786208 -3.379067,-1.42048 -7.332187,-1.612 -10.964467,-0.09125 l -51.22214,21.450367 c -7.26474,3.041962 -10.43326,11.293691 -7.33697,18.68306 l 10.96338,26.1801744 c -11.29331,8.677859 -21.63845,18.9806326 -30.44845,30.5894166 l -26.10829,-10.695818 c -7.41233,-3.036617 -15.8759,0.387463 -18.8615,7.67525 l -20.95058,51.139981 c -2.98557,7.287708 0.64307,15.665632 8.0554,18.702245 l 26.10829,10.695812 c -1.86688,14.45328 -1.72353,29.05289 0.23553,43.15977 l -26.1801,10.96355 c -7.3892,3.09385 -10.91988,11.19722 -7.87976,18.46069 l 21.45025,51.22225 c 3.04163,7.2641 11.2936,10.43325 18.68198,7.33924 l 26.18,-10.9636 c 8.67833,11.29298 18.98113,21.63817 30.58917,30.44838 l -10.6958,26.10827 c -3.03663,7.41232 0.38779,15.87538 7.67611,18.8612 l 51.1393,20.9503 c 7.288317,2.98581 15.666099,-0.64222 18.702715,-8.05454 l 10.695807,-26.10827 c 14.452814,1.86618 29.052481,1.72281 43.159546,-0.23564 l 10.963278,26.18013 c 3.094023,7.38843 11.197612,10.91977 18.4615164,7.87737 L 45.946286,298.4636 c 7.264738,-3.04195 10.433256,-11.29369 7.336961,-18.68306 L 42.319893,253.60029 c 11.293278,-8.67778 21.638457,-18.98063 30.448459,-30.58941 l 26.10824,10.6958 c 7.412338,3.03681 15.875888,-0.38729 18.861478,-7.67508 l 20.95056,-51.13991 c 2.9856,-7.28778 -0.64301,-15.66569 -8.05463,-18.70202 l -26.10902,-10.69611 c 1.86684,-14.4532 1.72348,-29.05281 -0.23554,-43.15977 l 26.18087,-10.963245 c 7.38841,-3.094082 10.91908,-11.197451 7.87976,-18.46069 L 116.89981,21.687603 C 113.85742,14.423196 105.60621,11.254367 98.21739,14.347285 L 72.037361,25.31096 C 63.359059,14.017896 53.056256,3.6727014 41.448213,-5.1375056 L 52.144022,-31.245774 c 3.036615,-7.412323 -0.387796,-15.875366 -7.675356,-18.860871 L -6.6713987,-71.057261 z M -34.02946,68.614528 C -3.1259361,81.274815 11.67975,116.63087 -0.98055035,147.53443 -13.640888,178.43807 -48.996637,193.24434 -79.900159,180.58405 c -30.903521,-12.66028 -45.709981,-48.01657 -33.049651,-78.92022 12.6603,-30.903556 48.016831,-45.709586 78.92035,-33.049302 z" />
          <path
             style="opacity:0.69999999999999996;fill:#2a7fff;fill-opacity:1;fill-rule:nonzero;stroke:none;stroke-width:1;marker:none;visibility:visible;display:block;overflow:visible;enable-background:accumulate"
             id="rect3267-6"
             d="m 122.99914,-254.5996 c -5.698,0.64304 -9.77748,5.89001 -9.12349,11.68496 l 2.30351,20.41146 c -9.88143,3.86408 -19.153077,9.06261 -27.475298,15.24775 l -16.157848,-12.88089 c -2.280294,-1.81753 -4.856814,-2.62574 -7.510432,-2.34898 -2.654409,0.27507 -5.245452,1.53557 -7.032672,3.77712 l -25.201659,31.61356 c -3.574412,4.48349 -2.711027,10.86052 1.850755,14.4955 l 16.15793,12.88089 c -4.175175,9.49118 -7.176563,19.68819 -8.740928,30.18208 l -20.411407,2.30351 c -5.794941,0.65399 -10.00114,5.80083 -9.358144,11.49841 l 4.512036,39.981147 c 0.64299,5.697504 5.89047,9.777466 11.685412,9.123487 l 20.411405,-2.303519 c 3.8638,9.881375 9.062303,19.152994 15.247757,27.474876 l -12.880768,16.158026 c -3.635727,4.560152 -3.055473,10.969154 1.426407,14.543395 l 31.6135,25.201771 c 4.483076,3.57412 10.860463,2.711046 14.495623,-1.848925 L 111.69153,-3.5619801 c 9.49137,4.17479595 19.68841,7.176207 30.1819,8.740961 l 2.30351,20.4113901 c 0.65399,5.794943 5.80085,10.000689 11.49884,9.357646 l 39.98062,-4.51198 c 5.69798,-0.64304 9.77806,-5.890084 9.12408,-11.685026 l -2.30351,-20.4113906 c 9.88082,-3.8640815 19.15248,-9.0626164 27.4747,-15.2477504 l 16.15784,12.8808884 c 4.56,3.63517945 10.96937,3.05526675 14.5431,-1.4282144 l 25.20166,-31.613536 c 3.57442,-4.483486 2.71103,-10.860536 -1.85076,-14.495511 l -16.15793,-12.880943 c 4.17518,-9.491128 7.17656,-19.688208 8.74092,-30.182099 l 20.41138,-2.303512 c 5.795,-0.653867 10.00119,-5.800713 9.35819,-11.498293 l -4.51203,-39.98108 c -0.64299,-5.69758 -5.89046,-9.77753 -11.68485,-9.12361 l -20.41199,2.30359 c -3.86377,-9.88131 -9.06228,-19.15292 -15.24774,-27.47488 l 12.88137,-16.15808 c 3.63513,-4.56003 3.05487,-10.96903 -1.4264,-14.54341 l -31.61351,-25.20177 c -4.48367,-3.57405 -10.86048,-2.71104 -14.49629,1.84839 l -12.88068,16.15807 c -9.49139,-4.17487 -19.68843,-7.17627 -30.18193,-8.74102 l -2.30351,-20.4114 c -0.65398,-5.79495 -5.80084,-10.00068 -11.49823,-9.35771 l -39.98121,4.51205 z m 31.38941,98.74893 c 24.16033,-2.72658 45.98129,14.66899 48.70788,38.82934 2.7266,24.160422 -14.66858,45.981648 -38.8289,48.708239 -24.16031,2.726592 -45.98185,-14.668859 -48.70845,-38.829289 -2.7266,-24.16034 14.66917,-45.98169 38.82947,-48.70829 z" />
        </g>
        <path
           style="opacity:0.40000000000000002;fill:url(#radialGradient9647);fill-opacity:1;fill-rule:nonzero;stroke:none;stroke-width:1;marker:none;visibility:visible;display:block;overflow:visible;enable-background:accumulate;filter:url(#filter9653)"
           d="m -5.37501,-54.875 c -4.40399,9.90215 -6.95873,21.02511 -13.06249,29.96875 -7.87182,6.64959 -18.39092,0.34424 -27.4048,1.04007 -14.64421,-0.89904 -29.3219,0.31765 -43.62645,3.42869 -9.82904,-9.48312 -12.7161,-23.4287 -18.125,-35.53126 -11.87618,5.64468 -25.1183,10.27997 -36.65625,15.46875 4.43619,9.18071 10.41707,18.35558 11.21875,28.875 0.86859,12.49389 -12.09879,18.33584 -20.0625,25.281251 -9.36839,9.435299 -18.27329,19.487852 -25.34375,30.812506 -13.75875,0.359738 -25.34508,-7.872382 -37.84375,-12.34375 -4.41724,12.453343 -10.92741,24.822102 -15.03125,37 11.25705,4.678654 26.79535,6.267826 32.5625,18.718749 3.83317,10.62834 -1.88395,21.679184 -0.375,32.593744 0.0827,11.15096 1.34524,22.20541 3.78125,33.0625 -9.5493,9.81608 -23.43391,12.55721 -35.53125,18.0625 5.69982,11.76582 9.77401,25.26007 15.46875,36.40625 11.52133,-5.78057 25.68741,-14.36895 38.5625,-7.4375 10.90143,6.87304 15.91404,19.73349 26.53125,26.875 6.26372,5.61631 13.04699,10.67351 20.09375,15.28125 -0.14576,13.65215 -8.15673,25.23231 -12.625,37.71875 12.52942,4.36057 24.99156,10.0672 36.8125,15.28125 3.96178,-11.96282 7.47663,-26.98421 20.375,-32.4375 12.06439,-4.08009 25.0435,2.02327 37.375,-0.3125 9.13861,-0.50386 18.14453,-1.62997 27.09375,-3.53125 9.68286,9.60198 12.05399,23.61475 17.875,35.46875 11.91352,-5.70638 24.51727,-9.87961 36.59374,-15.21875 -5.50114,-11.31699 -14.24129,-23.95077 -9.24999,-37.03125 5.4229,-10.71639 18.21037,-15.05554 25.09632,-24.62999 6.75439,-7.14848 12.94375,-15.12334 18.30993,-23.46376 13.76699,-0.44003 25.49044,7.85473 37.90624,12.28125 4.46852,-12.46345 10.85678,-25.12882 15.03125,-37.125 -11.51904,-3.94727 -26.0094,-6.5385 -31.99999,-18.5 -4.61233,-11.74546 1.82104,-24.48778 -0.3125,-36.65625 C 87.76243,104.65448 86.46271,94.930192 84.37499,85.281252 93.87714,75.445093 108.03307,73.23582 119.84374,67.281251 114.13769,55.691678 110.16562,41.928031 104.4375,31.000005 93.0763,36.622093 79.91839,44.825345 66.99999,39.093756 56.46937,33.640958 51.70233,21.407796 42.53125,14.187501 35.19407,7.83976 27.77196,1.74747 19.56249,-3.46875 19.10832,-17.25399 27.44459,-28.94688 31.87499,-41.40625 19.49515,-45.97169 7.45252,-51.26837 -4.75001,-56.5 l -0.35898,0.93334 -0.26602,0.69166 z M -54.375,33.906254 c 49.05882,-0.830218 91.81071,48.518766 83.81894,97.051216 -5.42183,46.0806 -53.83199,82.43875 -99.69394,72.88628 -43.65983,-7.05235 -77.89341,-52.29799 -69.89226,-96.45903 5.39693,-41.151574 43.83562,-75.14811 85.76726,-73.478466 z"
           id="rect3267-4-4"
           sodipodi:nodetypes="cccccccccccccccccccccccccccccccccccccccccccccccc" />
        <path
           style="opacity:0.40000000000000002;fill:url(#radialGradient9671);fill-opacity:1.0;fill-rule:nonzero;stroke:none;stroke-width:1;marker:none;visibility:visible;display:block;overflow:visible;enable-background:accumulate;filter:url(#filter9661)"
           d="m 160.1875,-249.1875 c -5.09117,0.37823 -10.34892,0.002 -15.3125,1.03125 2.49221,12.04766 -0.58025,27.94253 -13.3227,32.71264 -11.92626,4.78257 -22.86661,12.11348 -33.08355,19.78736 -10.3988,3.28535 -18.13592,-6.95462 -25.40625,-12.4375 -2.78319,0.95093 -2.87521,5.50694 -5.71875,6.90625 -1.04484,1.64489 -6.54479,4.65688 -2.4375,6.15625 9.88318,6.80148 17.21393,20.38349 11.50201,32.09604 -4.28407,11.06619 -7.57536,22.44673 -8.72076,34.21646 -4.08793,10.84616 -17.78722,11.67325 -27.34375,11.25 0.62255,5.09122 1.26403,10.35208 1.71875,15.53125 12.22252,-2.53333 28.07008,1.19506 32.53125,14.187502 4.50968,12.19173 13.02833,22.41878 19.625,33.375 2.353,10.24562 -7.46728,17.77843 -12.625,24.65624 4.41891,2.62271 8.23719,6.85746 12.15625,9.56251 6.62605,-11.484 22.50779,-19.46789 35.01877,-12.49508 10.21279,4.64955 21.55956,6.43174 32.51248,8.21383 10.19098,4.48928 11.7694,17.48485 10.84375,27.12499 5.06876,-0.52221 10.07459,-1.50634 15.25,-1.28125 1.00624,-2.06707 -0.8426,-6.00309 -0.1875,-8.74999 -0.0217,-10.72563 5.90412,-22.36272 16.9375,-25.06251 11.33179,-4.54978 20.78064,-12.86375 31.46875,-18.40625 9.9195,-2.12982 17.76742,6.25232 24.28125,12.37501 3.14898,-3.99943 6.71993,-8.15921 9.65625,-12.03125 -10.1601,-6.75259 -18.85582,-20.00682 -13.43951,-32.31479 4.19945,-10.80445 7.84238,-21.888922 8.62701,-33.435212 3.3439,-11.30008 16.81629,-13.79833 27.125,-12.96875 2.67186,-0.52876 -1.0714,-4.12055 -0.1875,-5.9375 -0.36624,-3.20673 0.0355,-6.61348 -0.96875,-9.5625 -12.81075,2.56284 -29.41238,-2.04294 -33.3125,-15.9375 -4.235,-11.33329 -12.082,-20.57944 -18.0625,-30.78125 -3.06819,-10.29339 6.40348,-18.97713 11.6875,-25.59375 -3.7539,-3.25287 -7.87723,-6.46204 -11.65625,-9.4375 -6.98055,10.47688 -21.11025,19.14645 -33.6431,13.08208 -10.33741,-4.44133 -21.35787,-7.46005 -32.51315,-8.33208 -11.21343,-3.77641 -13.56033,-17.15017 -12.59375,-27.53125 l -0.40625,0.0312 0,5e-5 z M 93.65625,-20.031258 c -0.10364,0.0325 0.0429,0.0576 0,0 z M 63.25,-196.25 l -0.0312,0.0312 0.0312,-0.0312 z m 0,-0.15625 c -0.10251,0.0967 0.0576,0.31319 0,0 z m 103.75,4.125 c 41.54391,-0.52788 76.95598,43.3434 66.6875,83.875 -7.96614,38.573642 -53.93931,64.885562 -91,49.593752 -34.77001,-12.29607 -55.44871,-56.099962 -39.88759,-90.248992 10.44355,-25.27981 36.51129,-43.602 64.20009,-43.21976 z"
           id="rect3267-4-9"
           sodipodi:nodetypes="cccccccccccccccccccccccccccccccccccccccccccccccccc" />
      </g>
    </g>
  </g>
</svg>
