<?xml version="1.0" encoding="UTF-8" standalone="no"?>
<!-- Created with Inkscape (http://www.inkscape.org/) -->

<svg
   xmlns:dc="http://purl.org/dc/elements/1.1/"
   xmlns:cc="http://creativecommons.org/ns#"
   xmlns:rdf="http://www.w3.org/1999/02/22-rdf-syntax-ns#"
   xmlns:svg="http://www.w3.org/2000/svg"
   xmlns="http://www.w3.org/2000/svg"
   xmlns:xlink="http://www.w3.org/1999/xlink"
   xmlns:sodipodi="http://sodipodi.sourceforge.net/DTD/sodipodi-0.dtd"
   xmlns:inkscape="http://www.inkscape.org/namespaces/inkscape"
   width="1393.1727"
   height="896.78442"
   id="svg2"
   sodipodi:version="0.32"
   inkscape:version="0.91 r13725"
   sodipodi:docname="PixeShift-thumbnail.svg"
   inkscape:export-filename="/home/philippe/devel/rawtherapee/icons/NewIcons/processing.png"
   inkscape:export-xdpi="1.8"
   inkscape:export-ydpi="1.8"
   version="1.1">
  <defs
     id="defs4">
    <inkscape:path-effect
       effect="spiro"
       id="path-effect3669"
       is_visible="true" />
    <inkscape:perspective
       sodipodi:type="inkscape:persp3d"
       inkscape:vp_x="0 : 36 : 1"
       inkscape:vp_y="0 : 1000 : 0"
       inkscape:vp_z="72 : 36 : 1"
       inkscape:persp3d-origin="36 : 24 : 1"
       id="perspective21" />
    <inkscape:perspective
       id="perspective3614"
       inkscape:persp3d-origin="0.5 : 0.33333333 : 1"
       inkscape:vp_z="1 : 0.5 : 1"
       inkscape:vp_y="0 : 1000 : 0"
       inkscape:vp_x="0 : 0.5 : 1"
       sodipodi:type="inkscape:persp3d" />
    <inkscape:perspective
       id="perspective3636"
       inkscape:persp3d-origin="0.5 : 0.33333333 : 1"
       inkscape:vp_z="1 : 0.5 : 1"
       inkscape:vp_y="0 : 1000 : 0"
       inkscape:vp_x="0 : 0.5 : 1"
       sodipodi:type="inkscape:persp3d" />
    <inkscape:perspective
       id="perspective3658"
       inkscape:persp3d-origin="0.5 : 0.33333333 : 1"
       inkscape:vp_z="1 : 0.5 : 1"
       inkscape:vp_y="0 : 1000 : 0"
       inkscape:vp_x="0 : 0.5 : 1"
       sodipodi:type="inkscape:persp3d" />
    <inkscape:perspective
       id="perspective3680"
       inkscape:persp3d-origin="0.5 : 0.33333333 : 1"
       inkscape:vp_z="1 : 0.5 : 1"
       inkscape:vp_y="0 : 1000 : 0"
       inkscape:vp_x="0 : 0.5 : 1"
       sodipodi:type="inkscape:persp3d" />
    <inkscape:perspective
       id="perspective3680-0"
       inkscape:persp3d-origin="0.5 : 0.33333333 : 1"
       inkscape:vp_z="1 : 0.5 : 1"
       inkscape:vp_y="0 : 1000 : 0"
       inkscape:vp_x="0 : 0.5 : 1"
       sodipodi:type="inkscape:persp3d" />
    <inkscape:perspective
       id="perspective3680-8"
       inkscape:persp3d-origin="0.5 : 0.33333333 : 1"
       inkscape:vp_z="1 : 0.5 : 1"
       inkscape:vp_y="0 : 1000 : 0"
       inkscape:vp_x="0 : 0.5 : 1"
       sodipodi:type="inkscape:persp3d" />
    <inkscape:perspective
       id="perspective3720"
       inkscape:persp3d-origin="0.5 : 0.33333333 : 1"
       inkscape:vp_z="1 : 0.5 : 1"
       inkscape:vp_y="0 : 1000 : 0"
       inkscape:vp_x="0 : 0.5 : 1"
       sodipodi:type="inkscape:persp3d" />
    <inkscape:perspective
       id="perspective3742"
       inkscape:persp3d-origin="0.5 : 0.33333333 : 1"
       inkscape:vp_z="1 : 0.5 : 1"
       inkscape:vp_y="0 : 1000 : 0"
       inkscape:vp_x="0 : 0.5 : 1"
       sodipodi:type="inkscape:persp3d" />
    <inkscape:perspective
       id="perspective3742-2"
       inkscape:persp3d-origin="0.5 : 0.33333333 : 1"
       inkscape:vp_z="1 : 0.5 : 1"
       inkscape:vp_y="0 : 1000 : 0"
       inkscape:vp_x="0 : 0.5 : 1"
       sodipodi:type="inkscape:persp3d" />
    <inkscape:perspective
       id="perspective3742-26"
       inkscape:persp3d-origin="0.5 : 0.33333333 : 1"
       inkscape:vp_z="1 : 0.5 : 1"
       inkscape:vp_y="0 : 1000 : 0"
       inkscape:vp_x="0 : 0.5 : 1"
       sodipodi:type="inkscape:persp3d" />
    <inkscape:perspective
       id="perspective3742-0"
       inkscape:persp3d-origin="0.5 : 0.33333333 : 1"
       inkscape:vp_z="1 : 0.5 : 1"
       inkscape:vp_y="0 : 1000 : 0"
       inkscape:vp_x="0 : 0.5 : 1"
       sodipodi:type="inkscape:persp3d" />
    <inkscape:perspective
       id="perspective3742-1"
       inkscape:persp3d-origin="0.5 : 0.33333333 : 1"
       inkscape:vp_z="1 : 0.5 : 1"
       inkscape:vp_y="0 : 1000 : 0"
       inkscape:vp_x="0 : 0.5 : 1"
       sodipodi:type="inkscape:persp3d" />
    <inkscape:perspective
       id="perspective3836"
       inkscape:persp3d-origin="0.5 : 0.33333333 : 1"
       inkscape:vp_z="1 : 0.5 : 1"
       inkscape:vp_y="0 : 1000 : 0"
       inkscape:vp_x="0 : 0.5 : 1"
       sodipodi:type="inkscape:persp3d" />
    <inkscape:perspective
       id="perspective2861"
       inkscape:persp3d-origin="0.5 : 0.33333333 : 1"
       inkscape:vp_z="1 : 0.5 : 1"
       inkscape:vp_y="0 : 1000 : 0"
       inkscape:vp_x="0 : 0.5 : 1"
       sodipodi:type="inkscape:persp3d" />
    <inkscape:perspective
       id="perspective2871"
       inkscape:persp3d-origin="0.5 : 0.33333333 : 1"
       inkscape:vp_z="1 : 0.5 : 1"
       inkscape:vp_y="0 : 1000 : 0"
       inkscape:vp_x="0 : 0.5 : 1"
       sodipodi:type="inkscape:persp3d" />
    <inkscape:perspective
       id="perspective2906"
       inkscape:persp3d-origin="0.5 : 0.33333333 : 1"
       inkscape:vp_z="1 : 0.5 : 1"
       inkscape:vp_y="0 : 1000 : 0"
       inkscape:vp_x="0 : 0.5 : 1"
       sodipodi:type="inkscape:persp3d" />
    <inkscape:perspective
       id="perspective2912"
       inkscape:persp3d-origin="0.5 : 0.33333333 : 1"
       inkscape:vp_z="1 : 0.5 : 1"
       inkscape:vp_y="0 : 1000 : 0"
       inkscape:vp_x="0 : 0.5 : 1"
       sodipodi:type="inkscape:persp3d" />
    <inkscape:perspective
       id="perspective2861-9"
       inkscape:persp3d-origin="0.5 : 0.33333333 : 1"
       inkscape:vp_z="1 : 0.5 : 1"
       inkscape:vp_y="0 : 1000 : 0"
       inkscape:vp_x="0 : 0.5 : 1"
       sodipodi:type="inkscape:persp3d" />
    <inkscape:perspective
       id="perspective2911"
       inkscape:persp3d-origin="0.5 : 0.33333333 : 1"
       inkscape:vp_z="1 : 0.5 : 1"
       inkscape:vp_y="0 : 1000 : 0"
       inkscape:vp_x="0 : 0.5 : 1"
       sodipodi:type="inkscape:persp3d" />
    <linearGradient
       y2="45.017357"
       x2="20.758585"
       y1="1"
       x1="20.758585"
       gradientTransform="matrix(1.6744133,0,0,1.6744133,7.8140536,-64.51142)"
       gradientUnits="userSpaceOnUse"
       id="linearGradient4427"
       xlink:href="#linearGradient3904"
       inkscape:collect="always" />
    <linearGradient
       gradientUnits="userSpaceOnUse"
       y2="18.083122"
       x2="11"
       y1="3.9374998"
       x1="11"
       id="linearGradient3904">
      <stop
         id="stop3906"
         offset="0"
         style="stop-color:#323232;stop-opacity:1;" />
      <stop
         id="stop3908"
         offset="1"
         style="stop-color:#787878;stop-opacity:1;" />
    </linearGradient>
    <inkscape:perspective
       id="perspective2881"
       inkscape:persp3d-origin="0.5 : 0.33333333 : 1"
       inkscape:vp_z="1 : 0.5 : 1"
       inkscape:vp_y="0 : 1000 : 0"
       inkscape:vp_x="0 : 0.5 : 1"
       sodipodi:type="inkscape:persp3d" />
    <inkscape:perspective
       id="perspective8938"
       inkscape:persp3d-origin="0.5 : 0.33333333 : 1"
       inkscape:vp_z="1 : 0.5 : 1"
       inkscape:vp_y="0 : 1000 : 0"
       inkscape:vp_x="0 : 0.5 : 1"
       sodipodi:type="inkscape:persp3d" />
    <inkscape:perspective
       id="perspective8993"
       inkscape:persp3d-origin="0.5 : 0.33333333 : 1"
       inkscape:vp_z="1 : 0.5 : 1"
       inkscape:vp_y="0 : 1000 : 0"
       inkscape:vp_x="0 : 0.5 : 1"
       sodipodi:type="inkscape:persp3d" />
    <linearGradient
       inkscape:collect="always"
       xlink:href="#linearGradient4055"
       id="linearGradient6633"
       gradientUnits="userSpaceOnUse"
       x1="-786.3324"
       y1="356.60675"
       x2="80.769913"
       y2="356.60675" />
    <linearGradient
       inkscape:collect="always"
       id="linearGradient4055">
      <stop
         style="stop-color:#ffffff;stop-opacity:1;"
         offset="0"
         id="stop4057" />
      <stop
         style="stop-color:#ffffff;stop-opacity:0;"
         offset="1"
         id="stop4059" />
    </linearGradient>
    <linearGradient
       inkscape:collect="always"
       xlink:href="#linearGradient3641"
       id="linearGradient6635"
       gradientUnits="userSpaceOnUse"
       x1="-782.90625"
       y1="86.34375"
       x2="-643.34375"
       y2="86.34375" />
    <linearGradient
       inkscape:collect="always"
       id="linearGradient3641">
      <stop
         style="stop-color:#ffffff;stop-opacity:1;"
         offset="0"
         id="stop3643" />
      <stop
         style="stop-color:#ffffff;stop-opacity:0;"
         offset="1"
         id="stop3645" />
    </linearGradient>
    <linearGradient
       y2="86.34375"
       x2="-643.34375"
       y1="86.34375"
       x1="-782.90625"
       gradientUnits="userSpaceOnUse"
       id="linearGradient9014"
       xlink:href="#linearGradient3641"
       inkscape:collect="always" />
    <inkscape:perspective
       id="perspective9605"
       inkscape:persp3d-origin="0.5 : 0.33333333 : 1"
       inkscape:vp_z="1 : 0.5 : 1"
       inkscape:vp_y="0 : 1000 : 0"
       inkscape:vp_x="0 : 0.5 : 1"
       sodipodi:type="inkscape:persp3d" />
    <inkscape:perspective
       id="perspective9627"
       inkscape:persp3d-origin="0.5 : 0.33333333 : 1"
       inkscape:vp_z="1 : 0.5 : 1"
       inkscape:vp_y="0 : 1000 : 0"
       inkscape:vp_x="0 : 0.5 : 1"
       sodipodi:type="inkscape:persp3d" />
  </defs>
  <sodipodi:namedview
     id="base"
     pagecolor="#ffffff"
     bordercolor="#666666"
     borderopacity="1.0"
     inkscape:pageopacity="0"
     inkscape:pageshadow="2"
     inkscape:zoom="0.22772277"
     inkscape:cx="701.93811"
     inkscape:cy="252.09671"
     inkscape:document-units="px"
     inkscape:current-layer="g4185"
     showguides="true"
     inkscape:guide-bbox="true"
     inkscape:window-width="1920"
     inkscape:window-height="1028"
     inkscape:window-x="0"
     inkscape:window-y="0"
     showgrid="true"
     showborder="true"
     inkscape:showpageshadow="true"
     inkscape:window-maximized="1"
     fit-margin-top="0"
     fit-margin-right="0"
     fit-margin-bottom="0"
     fit-margin-left="0" />
  <metadata
     id="metadata7">
    <rdf:RDF>
      <cc:Work
         rdf:about="">
        <dc:format>image/svg+xml</dc:format>
        <dc:type
           rdf:resource="http://purl.org/dc/dcmitype/StillImage" />
        <dc:title></dc:title>
      </cc:Work>
    </rdf:RDF>
  </metadata>
  <g
     inkscape:label="Layer 1"
     inkscape:groupmode="layer"
     id="layer1"
     transform="translate(619.48357,402.74312)">
    <g
       id="g4082"
       transform="translate(0,1.552561)">
      <g
         id="g4060"
         transform="matrix(1.5074827,0,0,1.5074827,-9.4212231,-17.89429)">
        <g
           id="g4185">
          <path
             inkscape:connector-curvature="0"
             id="rect4183"
             style="color:#000000;font-style:normal;font-variant:normal;font-weight:normal;font-stretch:normal;font-size:medium;line-height:normal;font-family:sans-serif;text-indent:0;text-align:start;text-decoration:none;text-decoration-line:none;text-decoration-style:solid;text-decoration-color:#000000;letter-spacing:normal;word-spacing:normal;text-transform:none;direction:ltr;block-progression:tb;writing-mode:lr-tb;baseline-shift:baseline;text-anchor:start;white-space:normal;clip-rule:nonzero;display:inline;overflow:visible;visibility:visible;opacity:0.6;isolation:auto;mix-blend-mode:normal;color-interpolation:sRGB;color-interpolation-filters:linearRGB;solid-color:#000000;solid-opacity:1;fill:#2a7fff;fill-opacity:1;fill-rule:nonzero;stroke:none;stroke-width:53.06860352;stroke-linecap:butt;stroke-linejoin:miter;stroke-miterlimit:4;stroke-dasharray:none;stroke-dashoffset:0;stroke-opacity:1;color-rendering:auto;image-rendering:auto;shape-rendering:auto;text-rendering:auto;enable-background:accumulate"
             d="m -351.62109,-203.25391 818.03492,0 0,488.75 -818.03492,0 z m -53.06836,-53.06836 0,26.53516 0,568.35352 924.17164,0 0,-594.88868 z"
             sodipodi:nodetypes="ccccccccccc" />
          <path
             id="path4229"
             style="color:#000000;font-style:italic;font-variant:normal;font-weight:bold;font-stretch:normal;font-size:medium;line-height:125%;font-family:sans-serif;-inkscape-font-specification:'sans-serif Bold Italic';text-indent:0;text-align:start;text-decoration:none;text-decoration-line:none;text-decoration-style:solid;text-decoration-color:#000000;letter-spacing:0px;word-spacing:0px;text-transform:none;direction:ltr;block-progression:tb;writing-mode:lr-tb;baseline-shift:baseline;text-anchor:start;white-space:normal;clip-rule:nonzero;display:inline;overflow:visible;visibility:visible;opacity:0.6;isolation:auto;mix-blend-mode:normal;color-interpolation:sRGB;color-interpolation-filters:linearRGB;solid-color:#000000;solid-opacity:1;fill:#ffffff;fill-opacity:1;fill-rule:nonzero;stroke:none;stroke-width:35.39651489;stroke-linecap:butt;stroke-linejoin:miter;stroke-miterlimit:4;stroke-dasharray:none;stroke-dashoffset:0;stroke-opacity:1;color-rendering:auto;image-rendering:auto;shape-rendering:auto;text-rendering:auto;enable-background:accumulate"
             d="m 265.62781,-155.05765 c -49.1457,0 -90.4877,11.63079 -121.78711,36.28125 -0.002,10e-4 -0.004,0.002 -0.006,0.004 -0.001,0.001 -0.002,0.003 -0.004,0.004 -31.08988,24.457406 -47.765635,59.560878 -47.765635,99.859382 0,26.1255302 8.009915,49.737922 24.222665,67.476564 16.19944,17.724111 39.53693,29.424012 68.50195,36.582032 l 36.05273,8.955081 c 18.27024,4.67899 29.8783,10.548831 30.33985,10.935541 l 0.10937,0.0918 0.11133,0.0898 c 1.57451,1.27663 1.97461,1.35886 1.97461,5.83984 0,7.0758 -1.84688,10.95839 -11.08203,16.9668 l -0.041,0.0273 -0.041,0.0274 c -8.95459,5.89692 -21.71423,9.52734 -39.58008,9.52734 -16.90162,0 -34.1879,-2.62042 -52.0293,-8 -0.004,-0.001 -0.008,-0.003 -0.0117,-0.004 -17.68141,-5.37871 -36.26581,-13.62326 -55.697265,-24.87305 L 77.246756,92.200239 55.860037,206.14163 l 13.724609,5.3086 c 22.036745,8.52517 44.595704,14.97175 67.626954,19.32031 l 0.01,0.002 0.0117,0.002 c 23.18039,4.34633 46.48636,6.52539 69.86133,6.5254 50.55671,0 93.03102,-12.12298 125.0957,-37.73047 32.12994,-25.53805 49.30469,-61.90037 49.30469,-103.716791 0,-26.672502 -8.93503,-50.831674 -26.49414,-68.613285 C 337.53461,9.2432032 312.19246,-2.7878274 279.87002,-10.950058 l -0.0469,-0.0117 -36.48437,-9.005861 -0.0293,-0.008 c -15.93799,-3.8768 -26.07364,-8.70118 -27.02148,-9.37109 -1.11715,-0.90115 -1.4043,-1.10446 -1.4043,-4.541011 0,-6.37617 1.03633,-8.65757 9.36719,-13.351571 8.55572,-4.74234 22.96524,-8.12695 43.2207,-8.12695 14.55805,0 29.58489,1.93667 45.17969,5.90625 l 0.0723,0.0176 0.0742,0.0195 c 15.51091,3.807221 31.42298,9.703661 47.75,17.794922 l 20.76367,10.29102 21.89649,-111.599621 -15.73828,-4.41016 c -20.94077,-5.86976 -41.63365,-10.25499 -62.07422,-13.13672 l -0.0274,-0.004 c -20.315,-3.03795 -40.23336,-4.57032 -59.74023,-4.57032 z m -374.4375,105.914079 34.068354,0 c 12.286972,0 19.089561,2.70039 22.697266,5.742181 l 0.06445,0.0527 0.06445,0.0547 c 3.78294,3.12821 5.564453,6.27875 5.564453,14.935551 0,15.261321 -3.764544,23.5142316 -10.652343,29.6367216 -6.92581,6.1562806 -18.056251,10.2773404 -36.173829,10.2773404 l -27.568361,0 11.93555,-60.699214 z m -105.64648,-99.691419 -2.78907,14.3125 -71.16992,365.14063 124.81055,0 23.04492,-119.37109 43.925776,0 c 29.780569,0 55.131204,-2.96625 76.431641,-9.54687 l 0.0625,-0.0195 0.0625,-0.0195 C 1.1781386,94.921679 20.010872,83.952138 35.651243,69.014707 l 0.0293,-0.0273 0.02734,-0.0254 C 49.987967,55.204376 61.12506,38.939885 68.787961,20.653414 l 0.01172,-0.0273 0.0098,-0.0274 c 7.643691,-18.4143414 11.492187,-37.980452 11.492187,-58.173824 0,-33.426612 -12.798296,-62.75382 -37.203125,-82.41603 -24.257058,-19.8177 -56.934123,-28.84375 -95.716797,-28.84375 l -161.837886,0 z m -137.16492,-54.41892 818.03492,0 0,488.75 -818.03492,0 z"
             inkscape:connector-curvature="0" />
          <path
             inkscape:connector-curvature="0"
             d="m 265.62781,-155.05764 c -49.1457,0 -90.4877,11.63079 -121.78711,36.28125 -0.002,0.001 -0.004,0.002 -0.006,0.004 -0.001,0.001 -0.002,0.003 -0.004,0.004 -31.08988,24.4574 -47.765635,59.56087 -47.765635,99.85937 0,26.12553 8.009915,49.73792 24.222665,67.47656 16.19944,17.72411 39.53693,29.42401 68.50195,36.58203 l 36.05273,8.95508 c 18.27024,4.67899 29.8783,10.54884 30.33985,10.93555 l 0.10937,0.0918 0.11133,0.0898 c 1.57451,1.27663 1.97461,1.35886 1.97461,5.83984 0,7.0758 -1.84688,10.95839 -11.08203,16.9668 l -0.041,0.0273 -0.041,0.0274 c -8.95459,5.89692 -21.71423,9.52734 -39.58008,9.52734 -16.90162,0 -34.1879,-2.62042 -52.0293,-8 -0.004,-0.001 -0.008,-0.003 -0.0117,-0.004 -17.68141,-5.37871 -36.26581,-13.62326 -55.697265,-24.87305 l -21.648439,-12.5332 -21.386719,113.9414 13.724609,5.3086 c 22.036745,8.52516 44.595704,14.97175 67.626954,19.32031 l 0.01,0.002 0.0117,0.002 c 23.18039,4.34633 46.48636,6.52539 69.86133,6.5254 50.55671,0 93.03102,-12.12298 125.0957,-37.73047 32.12994,-25.53805 49.30469,-61.90037 49.30469,-103.7168 0,-26.6725 -8.93503,-50.83167 -26.49414,-68.61328 C 337.53461,9.2432 312.19246,-2.78783 279.87002,-10.95006 l -0.0469,-0.0117 -36.48437,-9.00586 -0.0293,-0.008 c -15.93799,-3.8768 -26.07364,-8.70118 -27.02148,-9.37109 -1.11715,-0.90115 -1.4043,-1.10446 -1.4043,-4.54101 0,-6.37617 1.03633,-8.65757 9.36719,-13.35157 8.55572,-4.74234 22.96524,-8.12695 43.2207,-8.12695 14.55805,0 29.58489,1.93667 45.17969,5.90625 l 0.0723,0.0176 0.0742,0.0195 c 15.51091,3.80722 31.42298,9.70366 47.75,17.79492 l 20.76367,10.29102 21.89649,-111.59961 -15.73828,-4.41016 c -20.94077,-5.86976 -41.63365,-10.25499 -62.07422,-13.13672 l -0.0274,-0.004 c -20.315,-3.03795 -40.23336,-4.57032 -59.74023,-4.57032 z m -374.4375,105.91407 34.068354,0 c 12.286972,0 19.089561,2.70039 22.697266,5.74218 l 0.06445,0.0527 0.06445,0.0547 c 3.78294,3.12821 5.564453,6.27875 5.564453,14.93555 0,15.26132 -3.764544,23.51423 -10.652343,29.63672 -6.92581,6.15628 -18.056251,10.27734 -36.173829,10.27734 l -27.568361,0 11.93555,-60.69921 z m -105.64648,-99.69141 -2.78907,14.3125 -71.16992,365.14062 124.81055,0 23.04492,-119.37109 43.925776,0 c 29.780569,0 55.131204,-2.96625 76.431641,-9.54687 l 0.0625,-0.0195 0.0625,-0.0195 C 1.1781386,94.92167 20.010872,83.95213 35.651243,69.0147 l 0.0293,-0.0273 0.02734,-0.0254 C 49.987967,55.20437 61.12506,38.93988 68.787961,20.65341 l 0.01172,-0.0273 0.0098,-0.0274 c 7.643691,-18.41434 11.492187,-37.98045 11.492187,-58.17382 0,-33.42661 -12.798296,-62.75381 -37.203125,-82.41602 -24.257058,-19.8177 -56.934123,-28.84375 -95.716797,-28.84375 l -161.837886,0 z"
             style="color:#000000;font-style:italic;font-variant:normal;font-weight:bold;font-stretch:normal;font-size:medium;line-height:125%;font-family:sans-serif;-inkscape-font-specification:'sans-serif Bold Italic';text-indent:0;text-align:start;text-decoration:none;text-decoration-line:none;text-decoration-style:solid;text-decoration-color:#000000;letter-spacing:0px;word-spacing:0px;text-transform:none;direction:ltr;block-progression:tb;writing-mode:lr-tb;baseline-shift:baseline;text-anchor:start;white-space:normal;clip-rule:nonzero;display:inline;overflow:visible;visibility:visible;opacity:0.6;isolation:auto;mix-blend-mode:normal;color-interpolation:sRGB;color-interpolation-filters:linearRGB;solid-color:#000000;solid-opacity:1;fill:#2a7fff;fill-opacity:1;fill-rule:nonzero;stroke:none;stroke-width:35.39651489;stroke-linecap:butt;stroke-linejoin:miter;stroke-miterlimit:4;stroke-dasharray:none;stroke-dashoffset:0;stroke-opacity:1;color-rendering:auto;image-rendering:auto;shape-rendering:auto;text-rendering:auto;enable-background:accumulate"
             id="path4257" />
        </g>
      </g>
    </g>
  </g>
</svg>
