<?xml version="1.0" encoding="UTF-8" standalone="no"?>
<!-- Created with Inkscape (http://www.inkscape.org/) -->

<svg
   xmlns:dc="http://purl.org/dc/elements/1.1/"
   xmlns:cc="http://creativecommons.org/ns#"
   xmlns:rdf="http://www.w3.org/1999/02/22-rdf-syntax-ns#"
   xmlns:svg="http://www.w3.org/2000/svg"
   xmlns="http://www.w3.org/2000/svg"
   xmlns:xlink="http://www.w3.org/1999/xlink"
   xmlns:sodipodi="http://sodipodi.sourceforge.net/DTD/sodipodi-0.dtd"
   xmlns:inkscape="http://www.inkscape.org/namespaces/inkscape"
   width="1000"
   height="1000"
   id="svg5077"
   sodipodi:version="0.32"
   inkscape:version="0.47 r22583"
   version="1.0"
   sodipodi:docname="warnsh.svg"
   inkscape:output_extension="org.inkscape.output.svg.inkscape"
   inkscape:export-filename="/home/philippe/devel/rawtherapee/icons/NewIcons//warnsh.png"
   inkscape:export-xdpi="2.1600001"
   inkscape:export-ydpi="2.1600001"
   sodipodi:modified="TRUE">
  <sodipodi:namedview
     id="base"
     pagecolor="#ffffff"
     bordercolor="#666666"
     borderopacity="1.0"
     inkscape:pageopacity="0.0"
     inkscape:pageshadow="2"
     inkscape:zoom="0.788"
     inkscape:cx="843.90865"
     inkscape:cy="500"
     inkscape:document-units="px"
     inkscape:current-layer="layer1"
     width="200px"
     height="200px"
     inkscape:window-width="1920"
     inkscape:window-height="1032"
     inkscape:window-x="-1"
     inkscape:window-y="0"
     showgrid="false"
     inkscape:window-maximized="1" />
  <defs
     id="defs5079">
    <inkscape:perspective
       id="perspective28"
       inkscape:persp3d-origin="100 : 66.666667 : 1"
       inkscape:vp_z="200 : 100 : 1"
       inkscape:vp_y="0 : 1000 : 0"
       inkscape:vp_x="0 : 100 : 1"
       sodipodi:type="inkscape:persp3d" />
    <linearGradient
       id="linearGradient4578">
      <stop
         style="stop-color: rgb(255, 255, 255); stop-opacity: 1;"
         offset="0"
         id="stop4580" />
      <stop
         style="stop-color: rgb(255, 255, 255); stop-opacity: 0;"
         offset="1"
         id="stop4582" />
    </linearGradient>
    <linearGradient
       id="linearGradient4594">
      <stop
         style="stop-color: rgb(255, 255, 255); stop-opacity: 1;"
         offset="0"
         id="stop4596" />
      <stop
         style="stop-color: rgb(192, 203, 228); stop-opacity: 1;"
         offset="1"
         id="stop4598" />
    </linearGradient>
    <linearGradient
       id="linearGradient4567">
      <stop
         id="stop4569"
         offset="0"
         style="stop-color: rgb(255, 0, 0); stop-opacity: 1;" />
      <stop
         id="stop4571"
         offset="1"
         style="stop-color: rgb(119, 0, 0); stop-opacity: 1;" />
    </linearGradient>
    <inkscape:perspective
       sodipodi:type="inkscape:persp3d"
       inkscape:vp_x="0 : 0.5 : 1"
       inkscape:vp_y="0 : 1000 : 0"
       inkscape:vp_z="1 : 0.5 : 1"
       inkscape:persp3d-origin="0.5 : 0.33333333 : 1"
       id="perspective3622" />
    <inkscape:perspective
       sodipodi:type="inkscape:persp3d"
       inkscape:vp_x="0 : 0.5 : 1"
       inkscape:vp_y="0 : 1000 : 0"
       inkscape:vp_z="1 : 0.5 : 1"
       inkscape:persp3d-origin="0.5 : 0.33333333 : 1"
       id="perspective3645" />
    <inkscape:perspective
       sodipodi:type="inkscape:persp3d"
       inkscape:vp_x="0 : 0.5 : 1"
       inkscape:vp_y="0 : 1000 : 0"
       inkscape:vp_z="1 : 0.5 : 1"
       inkscape:persp3d-origin="0.5 : 0.33333333 : 1"
       id="perspective3673" />
    <inkscape:perspective
       sodipodi:type="inkscape:persp3d"
       inkscape:vp_x="0 : 0.5 : 1"
       inkscape:vp_y="0 : 1000 : 0"
       inkscape:vp_z="1 : 0.5 : 1"
       inkscape:persp3d-origin="0.5 : 0.33333333 : 1"
       id="perspective2832" />
    <inkscape:perspective
       sodipodi:type="inkscape:persp3d"
       inkscape:vp_x="0 : 0.5 : 1"
       inkscape:vp_y="0 : 1000 : 0"
       inkscape:vp_z="1 : 0.5 : 1"
       inkscape:persp3d-origin="0.5 : 0.33333333 : 1"
       id="perspective3722" />
    <inkscape:perspective
       sodipodi:type="inkscape:persp3d"
       inkscape:vp_x="0 : 0.5 : 1"
       inkscape:vp_y="0 : 1000 : 0"
       inkscape:vp_z="1 : 0.5 : 1"
       inkscape:persp3d-origin="0.5 : 0.33333333 : 1"
       id="perspective2840" />
    <inkscape:perspective
       sodipodi:type="inkscape:persp3d"
       inkscape:vp_x="0 : 0.5 : 1"
       inkscape:vp_y="0 : 1000 : 0"
       inkscape:vp_z="1 : 0.5 : 1"
       inkscape:persp3d-origin="0.5 : 0.33333333 : 1"
       id="perspective2863" />
    <inkscape:perspective
       sodipodi:type="inkscape:persp3d"
       inkscape:vp_x="0 : 0.5 : 1"
       inkscape:vp_y="0 : 1000 : 0"
       inkscape:vp_z="1 : 0.5 : 1"
       inkscape:persp3d-origin="0.5 : 0.33333333 : 1"
       id="perspective2858" />
    <inkscape:perspective
       sodipodi:type="inkscape:persp3d"
       inkscape:vp_x="0 : 0.5 : 1"
       inkscape:vp_y="0 : 1000 : 0"
       inkscape:vp_z="1 : 0.5 : 1"
       inkscape:persp3d-origin="0.5 : 0.33333333 : 1"
       id="perspective4001" />
    <inkscape:perspective
       sodipodi:type="inkscape:persp3d"
       inkscape:vp_x="0 : 0.5 : 1"
       inkscape:vp_y="0 : 1000 : 0"
       inkscape:vp_z="1 : 0.5 : 1"
       inkscape:persp3d-origin="0.5 : 0.33333333 : 1"
       id="perspective4044" />
    <inkscape:perspective
       id="perspective4171"
       inkscape:persp3d-origin="0.5 : 0.33333333 : 1"
       inkscape:vp_z="1 : 0.5 : 1"
       inkscape:vp_y="0 : 1000 : 0"
       inkscape:vp_x="0 : 0.5 : 1"
       sodipodi:type="inkscape:persp3d" />
    <inkscape:perspective
       id="perspective4193"
       inkscape:persp3d-origin="0.5 : 0.33333333 : 1"
       inkscape:vp_z="1 : 0.5 : 1"
       inkscape:vp_y="0 : 1000 : 0"
       inkscape:vp_x="0 : 0.5 : 1"
       sodipodi:type="inkscape:persp3d" />
    <inkscape:perspective
       id="perspective4215"
       inkscape:persp3d-origin="0.5 : 0.33333333 : 1"
       inkscape:vp_z="1 : 0.5 : 1"
       inkscape:vp_y="0 : 1000 : 0"
       inkscape:vp_x="0 : 0.5 : 1"
       sodipodi:type="inkscape:persp3d" />
    <inkscape:perspective
       id="perspective4237"
       inkscape:persp3d-origin="0.5 : 0.33333333 : 1"
       inkscape:vp_z="1 : 0.5 : 1"
       inkscape:vp_y="0 : 1000 : 0"
       inkscape:vp_x="0 : 0.5 : 1"
       sodipodi:type="inkscape:persp3d" />
    <inkscape:perspective
       id="perspective4262"
       inkscape:persp3d-origin="0.5 : 0.33333333 : 1"
       inkscape:vp_z="1 : 0.5 : 1"
       inkscape:vp_y="0 : 1000 : 0"
       inkscape:vp_x="0 : 0.5 : 1"
       sodipodi:type="inkscape:persp3d" />
    <inkscape:perspective
       id="perspective4284"
       inkscape:persp3d-origin="0.5 : 0.33333333 : 1"
       inkscape:vp_z="1 : 0.5 : 1"
       inkscape:vp_y="0 : 1000 : 0"
       inkscape:vp_x="0 : 0.5 : 1"
       sodipodi:type="inkscape:persp3d" />
    <inkscape:perspective
       id="perspective4306"
       inkscape:persp3d-origin="0.5 : 0.33333333 : 1"
       inkscape:vp_z="1 : 0.5 : 1"
       inkscape:vp_y="0 : 1000 : 0"
       inkscape:vp_x="0 : 0.5 : 1"
       sodipodi:type="inkscape:persp3d" />
    <inkscape:perspective
       id="perspective4329"
       inkscape:persp3d-origin="0.5 : 0.33333333 : 1"
       inkscape:vp_z="1 : 0.5 : 1"
       inkscape:vp_y="0 : 1000 : 0"
       inkscape:vp_x="0 : 0.5 : 1"
       sodipodi:type="inkscape:persp3d" />
    <inkscape:perspective
       id="perspective4366"
       inkscape:persp3d-origin="0.5 : 0.33333333 : 1"
       inkscape:vp_z="1 : 0.5 : 1"
       inkscape:vp_y="0 : 1000 : 0"
       inkscape:vp_x="0 : 0.5 : 1"
       sodipodi:type="inkscape:persp3d" />
    <inkscape:perspective
       id="perspective4421"
       inkscape:persp3d-origin="0.5 : 0.33333333 : 1"
       inkscape:vp_z="1 : 0.5 : 1"
       inkscape:vp_y="0 : 1000 : 0"
       inkscape:vp_x="0 : 0.5 : 1"
       sodipodi:type="inkscape:persp3d" />
    <inkscape:perspective
       id="perspective4455"
       inkscape:persp3d-origin="0.5 : 0.33333333 : 1"
       inkscape:vp_z="1 : 0.5 : 1"
       inkscape:vp_y="0 : 1000 : 0"
       inkscape:vp_x="0 : 0.5 : 1"
       sodipodi:type="inkscape:persp3d" />
    <inkscape:perspective
       id="perspective4483"
       inkscape:persp3d-origin="0.5 : 0.33333333 : 1"
       inkscape:vp_z="1 : 0.5 : 1"
       inkscape:vp_y="0 : 1000 : 0"
       inkscape:vp_x="0 : 0.5 : 1"
       sodipodi:type="inkscape:persp3d" />
    <inkscape:perspective
       id="perspective2908"
       inkscape:persp3d-origin="0.5 : 0.33333333 : 1"
       inkscape:vp_z="1 : 0.5 : 1"
       inkscape:vp_y="0 : 1000 : 0"
       inkscape:vp_x="0 : 0.5 : 1"
       sodipodi:type="inkscape:persp3d" />
    <inkscape:perspective
       id="perspective2871"
       inkscape:persp3d-origin="0.5 : 0.33333333 : 1"
       inkscape:vp_z="1 : 0.5 : 1"
       inkscape:vp_y="0 : 1000 : 0"
       inkscape:vp_x="0 : 0.5 : 1"
       sodipodi:type="inkscape:persp3d" />
    <inkscape:perspective
       id="perspective3808"
       inkscape:persp3d-origin="0.5 : 0.33333333 : 1"
       inkscape:vp_z="1 : 0.5 : 1"
       inkscape:vp_y="0 : 1000 : 0"
       inkscape:vp_x="0 : 0.5 : 1"
       sodipodi:type="inkscape:persp3d" />
    <inkscape:perspective
       id="perspective6570"
       inkscape:persp3d-origin="0.5 : 0.33333333 : 1"
       inkscape:vp_z="1 : 0.5 : 1"
       inkscape:vp_y="0 : 1000 : 0"
       inkscape:vp_x="0 : 0.5 : 1"
       sodipodi:type="inkscape:persp3d" />
    <inkscape:perspective
       id="perspective4221"
       inkscape:persp3d-origin="0.5 : 0.33333333 : 1"
       inkscape:vp_z="1 : 0.5 : 1"
       inkscape:vp_y="0 : 1000 : 0"
       inkscape:vp_x="0 : 0.5 : 1"
       sodipodi:type="inkscape:persp3d" />
    <linearGradient
       inkscape:collect="always"
       xlink:href="#linearGradient3641-4"
       id="linearGradient4009"
       x1="-1058.9431"
       y1="-77.696152"
       x2="-129.11806"
       y2="-77.696152"
       gradientUnits="userSpaceOnUse" />
    <linearGradient
       inkscape:collect="always"
       id="linearGradient3641-4">
      <stop
         style="stop-color:#ffffff;stop-opacity:1;"
         offset="0"
         id="stop3643-9" />
      <stop
         style="stop-color:#ffffff;stop-opacity:0;"
         offset="1"
         id="stop3645-5" />
    </linearGradient>
    <filter
       color-interpolation-filters="sRGB"
       inkscape:collect="always"
       id="filter4015">
      <feGaussianBlur
         inkscape:collect="always"
         stdDeviation="14.005273"
         id="feGaussianBlur4017" />
    </filter>
    <linearGradient
       gradientTransform="translate(-0.00373818,-0.13721622)"
       y2="-77.696152"
       x2="-129.11806"
       y1="-77.696152"
       x1="-1058.9431"
       gradientUnits="userSpaceOnUse"
       id="linearGradient4232"
       xlink:href="#linearGradient3641-4"
       inkscape:collect="always" />
    <inkscape:perspective
       id="perspective4736"
       inkscape:persp3d-origin="0.5 : 0.33333333 : 1"
       inkscape:vp_z="1 : 0.5 : 1"
       inkscape:vp_y="0 : 1000 : 0"
       inkscape:vp_x="0 : 0.5 : 1"
       sodipodi:type="inkscape:persp3d" />
    <linearGradient
       gradientTransform="translate(1218.2704,-48.36056)"
       y2="-77.696152"
       x2="-129.11806"
       y1="-77.696152"
       x1="-1058.9431"
       gradientUnits="userSpaceOnUse"
       id="linearGradient4232-3"
       xlink:href="#linearGradient3641-4-9"
       inkscape:collect="always" />
    <linearGradient
       inkscape:collect="always"
       id="linearGradient3641-4-9">
      <stop
         style="stop-color:#ffffff;stop-opacity:1;"
         offset="0"
         id="stop3643-9-0" />
      <stop
         style="stop-color:#ffffff;stop-opacity:0;"
         offset="1"
         id="stop3645-5-8" />
    </linearGradient>
    <filter
       color-interpolation-filters="sRGB"
       inkscape:collect="always"
       id="filter4015-8">
      <feGaussianBlur
         inkscape:collect="always"
         stdDeviation="14.005273"
         id="feGaussianBlur4017-5" />
    </filter>
  </defs>
  <metadata
     id="metadata5082">
    <rdf:RDF>
      <cc:Work
         rdf:about="">
        <dc:format>image/svg+xml</dc:format>
        <dc:type
           rdf:resource="http://purl.org/dc/dcmitype/StillImage" />
        <dc:title />
      </cc:Work>
    </rdf:RDF>
  </metadata>
  <g
     transform="translate(1094.0343,577.83337)"
     id="layer1"
     inkscape:groupmode="layer"
     inkscape:label="Livello 1">
    <path
       style="opacity:0.7;fill:#000000;stroke:none"
       d="m -594.1826,-411.71105 -385.3438,667.75537 770.9841,0 -385.6403,-667.75537 z m 0.1186,134.06099 c 29.3685,0 53.245,28.35247 53.245,124.63344 0,96.28101 -23.8765,224.18603 -53.245,224.18603 -29.3682,0 -53.1856,-127.90502 -53.1856,-224.18603 0,-96.28097 23.8174,-124.63344 53.1856,-124.63344 z m 0,375.14547 c 30.1467,0 54.6087,24.43595 54.6087,54.60865 0,30.17271 -24.462,54.60865 -54.6087,54.60865 -30.1466,0 -54.5493,-24.43594 -54.5493,-54.60865 0,-30.1727 24.4027,-54.60865 54.5493,-54.60865 z"
       id="polygon10-8-5" />
    <path
       style="opacity:0.69999999999999996;fill:#2a7fff;stroke:none"
       d="m -594.1835,-508.08669 c -27.8686,0 -53.5376,14.87966 -67.6084,39.05969 l -406.5456,703.93633 c -6.8306,11.88513 -10.3785,25.39862 -10.3784,39.05969 0,43.30555 34.9466,78.45093 78.252,78.45093 l 812.8592,0 c 43.3055,-0.13662 78.252,-35.28199 78.252,-78.45093 0,-13.66107 -3.6473,-27.21169 -10.4778,-38.96021 L -526.4093,-469.027 c -13.9343,-24.18003 -39.7691,-39.05969 -67.7742,-39.05969 z m 0,96.35605 385.6232,667.76139 -770.9811,0 385.3579,-667.76139 z"
       id="path8-3-6-9" />
    <path
       sodipodi:nodetypes="csssc"
       id="path4562-5-7"
       d="m -540.8311,-153.00796 c 0,96.28101 -23.8351,224.18167 -53.2034,224.18167 -29.3683,0 -53.2034,-127.90066 -53.2034,-224.18167 0,-96.28097 23.8351,-124.66236 53.2034,-124.66236 29.3683,0 53.2034,28.38139 53.2034,124.66236 z"
       style="opacity:0.25000000000000000;fill:#ffffff;fill-opacity:1;fill-rule:nonzero;stroke:none" />
    <path
       transform="matrix(3.1866019,0,0,3.1893584,-869.9116,-363.21042)"
       d="m 103.7037,161.57408 c 0,9.46043 -7.669193,17.12963 -17.129626,17.12963 -9.460433,0 -17.129629,-7.6692 -17.129629,-17.12963 0,-9.46043 7.669196,-17.12963 17.129629,-17.12963 9.460433,0 17.129626,7.6692 17.129626,17.12963 z"
       sodipodi:ry="17.129629"
       sodipodi:rx="17.129629"
       sodipodi:cy="161.57408"
       sodipodi:cx="86.574074"
       id="path4565-0-7"
       style="opacity:0.25000000000000000;fill:#ffffff;fill-opacity:1;fill-rule:nonzero;stroke:none"
       sodipodi:type="arc" />
    <path
       style="opacity:0.4;fill:url(#linearGradient4232);fill-opacity:1;stroke:none;filter:url(#filter4015)"
       d="m -596.53497,-488.19972 c -25.07548,0.74596 -46.35004,19.57771 -55.5625,42 -134.37919,233.66149 -270.50169,466.284664 -403.53133,700.65625 -12.6181,32.78003 12.3231,75.41352 48.2443,76.98153 30.79094,2.85751 61.72504,-0.72497 92.56824,0.82155 245.72907,-0.28455 491.46076,0.78304 737.18754,-0.70933 34.84411,-5.09266 59.44027,-47.23194 43.59375,-79.40625 -13.18523,-28.9251 -32.34985,-54.85448 -46.90977,-83.18514 -122.50353,-211.701886 -243.90262,-424.0447 -367.52773,-635.09611 -11.16551,-14.4799 -29.7988,-22.84732 -48.0625,-22.0625 z m 4.09375,39.34375 c 139.29923,241.60305 278.92354,483.252994 418.5625,724.75 -280.11458,0 -560.22914,0 -840.34388,0 140.19974,-242.474016 280.13604,-485.10031 420.03138,-727.75 0.58333,1 1.16667,2 1.75,3 z"
       id="path8-3-6-6" />
    <path
       style="opacity:0.7;fill:#000000;stroke:none"
       d="m 624.09153,-459.9344 -385.3438,667.75537 770.98407,0 -385.64027,-667.75537 z m 0.1186,134.06099 c 29.3685,0 53.245,28.35247 53.245,124.63344 0,96.28101 -23.8765,224.18603 -53.245,224.18603 -29.3682,0 -53.1856,-127.90502 -53.1856,-224.18603 0,-96.28097 23.8174,-124.63344 53.1856,-124.63344 z m 0,375.14547 c 30.1467,0 54.6087,24.43595 54.6087,54.60865 0,30.17271 -24.462,54.60865 -54.6087,54.60865 -30.1466,0 -54.5493,-24.43594 -54.5493,-54.60865 0,-30.1727 24.4027,-54.60865 54.5493,-54.60865 z"
       id="polygon10-8-5-0" />
    <path
       style="opacity:0.7;fill:#aa0000;stroke:none"
       d="m 624.09063,-556.31004 c -27.8686,0 -53.5376,14.87966 -67.6084,39.05969 l -406.5456,703.93633 c -6.8306,11.88513 -10.3785,25.39862 -10.3784,39.05969 0,43.30555 34.9466,78.45093 78.252,78.45093 l 812.85917,0 c 43.3055,-0.13662 78.252,-35.28199 78.252,-78.45093 0,-13.66107 -3.6473,-27.21169 -10.4778,-38.96021 L 691.86483,-517.25035 c -13.9343,-24.18003 -39.7691,-39.05969 -67.7742,-39.05969 z m 0,96.35605 385.62317,667.76139 -770.98107,0 385.3579,-667.76139 z"
       id="path8-3-6-9-9" />
    <path
       sodipodi:nodetypes="csssc"
       id="path4562-5-7-6"
       d="m 677.44303,-201.23131 c 0,96.28101 -23.8351,224.18167 -53.2034,224.18167 -29.3683,0 -53.2034,-127.90066 -53.2034,-224.18167 0,-96.28097 23.8351,-124.66236 53.2034,-124.66236 29.3683,0 53.2034,28.38139 53.2034,124.66236 z"
       style="opacity:0.25;fill:#ffffff;fill-opacity:1;fill-rule:nonzero;stroke:none" />
    <path
       transform="matrix(3.1866019,0,0,3.1893584,348.36253,-411.43377)"
       d="m 103.7037,161.57408 a 17.129629,17.129629 0 1 1 -34.259255,0 17.129629,17.129629 0 1 1 34.259255,0 z"
       sodipodi:ry="17.129629"
       sodipodi:rx="17.129629"
       sodipodi:cy="161.57408"
       sodipodi:cx="86.574074"
       id="path4565-0-7-3"
       style="opacity:0.25;fill:#ffffff;fill-opacity:1;fill-rule:nonzero;stroke:none"
       sodipodi:type="arc" />
    <path
       style="opacity:0.4;fill:url(#linearGradient4232-3);fill-opacity:1;stroke:none;filter:url(#filter4015-8)"
       d="m 621.73913,-536.42307 c -25.0754,0.74596 -46.35,19.57771 -55.5625,42 -134.3791,233.66149 -270.5016,466.28467 -403.5313,700.65625 -12.6181,32.78003 12.3231,75.41352 48.2443,76.98153 30.791,2.85751 61.7251,-0.72497 92.5683,0.82155 245.729,-0.28455 491.4607,0.78304 737.18747,-0.70933 34.8441,-5.09266 59.4403,-47.23194 43.5938,-79.40625 -13.1853,-28.9251 -32.3499,-54.85448 -46.9098,-83.18514 -122.50357,-211.70188 -243.90257,-424.0447 -367.52777,-635.09611 -11.1655,-14.4799 -29.7988,-22.84732 -48.0625,-22.0625 z m 4.0938,39.34375 c 139.2992,241.60305 278.9235,483.253 418.56247,724.75 -280.11457,0 -560.22907,0 -840.34387,0 140.1998,-242.47401 280.1361,-485.10031 420.0314,-727.75 0.5833,1 1.1667,2 1.75,3 z"
       id="path8-3-6-6-8" />
  </g>
</svg>
