<?xml version="1.0" encoding="UTF-8" standalone="no"?>
<!-- Created with Inkscape (http://www.inkscape.org/) -->

<svg
   width="128"
   height="48"
   viewBox="0 0 128 48"
   version="1.1"
   id="SVGRoot"
   xmlns="http://www.w3.org/2000/svg"
   xmlns:svg="http://www.w3.org/2000/svg"
   xmlns:rdf="http://www.w3.org/1999/02/22-rdf-syntax-ns#"
   xmlns:cc="http://creativecommons.org/ns#"
   xmlns:dc="http://purl.org/dc/elements/1.1/">
  <defs
     id="defs815" />
  <metadata
     id="metadata818">
    <rdf:RDF>
      <cc:Work
         rdf:about="">
        <dc:format>image/svg+xml</dc:format>
        <dc:type
           rdf:resource="http://purl.org/dc/dcmitype/StillImage" />
        <dc:title />
        <dc:creator>
          <cc:Agent>
            <dc:title>Maciej Dworak</dc:title>
          </cc:Agent>
        </dc:creator>
        <dc:rights>
          <cc:Agent>
            <dc:title />
          </cc:Agent>
        </dc:rights>
        <dc:description>RawTherapee icon.</dc:description>
        <cc:license
           rdf:resource="http://creativecommons.org/licenses/by-sa/4.0/" />
      </cc:Work>
      <cc:License
         rdf:about="http://creativecommons.org/licenses/by-sa/4.0/">
        <cc:permits
           rdf:resource="http://creativecommons.org/ns#Reproduction" />
        <cc:permits
           rdf:resource="http://creativecommons.org/ns#Distribution" />
        <cc:requires
           rdf:resource="http://creativecommons.org/ns#Notice" />
        <cc:requires
           rdf:resource="http://creativecommons.org/ns#Attribution" />
        <cc:permits
           rdf:resource="http://creativecommons.org/ns#DerivativeWorks" />
        <cc:requires
           rdf:resource="http://creativecommons.org/ns#ShareAlike" />
      </cc:License>
    </rdf:RDF>
  </metadata>
  <g
     id="layer1"
     transform="translate(0,24)">
    <path
       style="opacity:0.7;fill:#cccccc;fill-opacity:1.0;fill-rule:nonzero;stroke:#ffff00;stroke-width:0;stroke-miterlimit:4;stroke-dasharray:none;stroke-dashoffset:0;stroke-opacity:1.0"
       d="m 25.835228,-22.591734 c -0.06989,0.0027 -0.137644,0.0058 -0.2068,0.01299 -0.276642,0.02888 -0.54982,0.09115 -0.799645,0.194908 -0.249827,0.103757 -0.482435,0.245945 -0.682458,0.422297 -0.12583,0.109462 -0.226927,0.215575 -0.310208,0.324847 -0.08327,0.109269 -0.14704,0.220433 -0.193029,0.344336 -0.09193,0.247803 -0.115421,0.540281 -0.08961,0.935554 0.02257,0.340542 0.04378,0.607708 0.07584,0.825107 0.03206,0.2174 0.07459,0.387632 0.14476,0.545741 0.07017,0.158108 0.166407,0.29861 0.303314,0.46128 0.136907,0.16267 0.319197,0.347143 0.55148,0.578225 0.477473,0.486488 0.943696,0.997509 1.034027,1.143456 0.07742,0.139865 0.117678,0.272824 0.130966,0.402808 0.01336,0.129984 -0.0021,0.255614 -0.05515,0.383317 -0.05324,0.127704 -0.139762,0.256791 -0.261954,0.389815 -0.122191,0.133024 -0.282081,0.269855 -0.475651,0.415802 -0.180662,0.133784 -0.564895,0.260305 -0.937517,0.337839 -0.186304,0.03877 -0.370061,0.0633 -0.523908,0.07147 -0.153856,0.0082 -0.276928,9.55e-4 -0.344674,-0.03248 -0.109687,-0.05777 -0.210968,-0.153185 -0.303316,-0.279367 -0.09235,-0.126184 -0.175573,-0.28272 -0.248167,-0.474274 -0.145175,-0.38311 -0.251697,-0.893923 -0.303314,-1.520277 -0.04516,-0.462164 -0.08875,-0.789075 -0.151646,-1.046002 -0.06292,-0.256927 -0.13891,-0.440854 -0.255059,-0.617206 -0.08065,-0.124663 -0.209701,-0.264653 -0.365356,-0.402808 -0.155664,-0.138155 -0.344125,-0.275866 -0.537695,-0.402809 -0.19357,-0.126943 -0.391571,-0.246813 -0.585948,-0.337839 -0.194378,-0.09103 -0.379614,-0.151508 -0.537694,-0.181913 -0.219378,-0.04561 -0.464238,-0.04618 -0.710033,0 -0.245792,0.04618 -0.492782,0.139014 -0.730711,0.259876 -0.23793,0.120862 -0.465989,0.269844 -0.661777,0.448287 -0.195788,0.178442 -0.363177,0.385292 -0.482546,0.604212 -0.07098,0.130744 -0.121613,0.314171 -0.151659,0.52625 -0.03004,0.212078 -0.03645,0.451924 -0.02757,0.695169 0.0089,0.243244 0.03695,0.490419 0.08272,0.71466 0.04577,0.22424 0.10547,0.423156 0.186124,0.578224 0.122595,0.225001 0.275316,0.424749 0.454972,0.591219 0.179658,0.16647 0.386153,0.299845 0.627309,0.409305 0.241158,0.109459 0.513237,0.192914 0.820328,0.246883 0.307092,0.05397 0.649673,0.07796 1.027134,0.07796 0.529091,0 1.147301,0.07162 1.39249,0.168919 0.125807,0.05169 0.251029,0.132566 0.365357,0.227393 0.114315,0.09483 0.220686,0.203983 0.310206,0.324846 0.08951,0.120861 0.162285,0.253524 0.213709,0.383317 0.05142,0.129794 0.08272,0.261696 0.08272,0.383318 0,0.133784 -0.02729,0.222155 -0.12408,0.311852 -0.09679,0.0897 -0.267578,0.177652 -0.551481,0.305354 -0.374234,0.170271 -0.923345,0.340334 -1.220152,0.376821 -0.1355,0.01825 -0.243616,0.02941 -0.337781,0.02599 -0.09417,-0.0034 -0.179764,-0.01785 -0.27574,-0.06497 -0.19197,-0.09425 -0.431159,-0.300303 -0.889274,-0.701656 -0.258093,-0.231082 -0.555053,-0.470026 -0.834116,-0.669182 -0.279063,-0.199156 -0.534936,-0.356238 -0.696244,-0.435292 -0.264545,-0.121623 -0.430362,-0.188138 -0.599735,-0.207902 -0.169373,-0.01977 -0.343409,0.0037 -0.627311,0.05847 -0.187117,0.03953 -0.381173,0.104794 -0.565267,0.188411 -0.184091,0.08362 -0.361792,0.183316 -0.523907,0.298858 -0.162114,0.115541 -0.306214,0.248014 -0.427398,0.383318 -0.121183,0.135305 -0.214443,0.279392 -0.27574,0.422298 -0.103236,0.231083 -0.162897,0.504376 -0.179232,0.79912 -0.01633,0.294744 0.0084,0.609728 0.06894,0.916064 0.06049,0.306336 0.155402,0.604727 0.282633,0.870586 0.127233,0.265858 0.284868,0.49587 0.46876,0.6691809 0.112915,0.1033785 0.249806,0.1961321 0.399823,0.2793673 0.150017,0.083236 0.312001,0.1616028 0.48944,0.2208941 0.354878,0.1185802 0.758506,0.1819125 1.165002,0.1819125 0.125821,0 0.273186,-0.02726 0.434292,-0.08446 0.161108,-0.0572 0.333928,-0.1461991 0.517013,-0.2533795 0.366169,-0.2143577 0.763194,-0.5191273 1.137428,-0.8900743 0.161309,-0.16115 0.321806,-0.298706 0.475653,-0.409305 0.153849,-0.110601 0.304149,-0.191048 0.454972,-0.25338 0.150823,-0.06233 0.302736,-0.107098 0.454971,-0.123441 0.152235,-0.01635 0.303785,-0.0079 0.461865,0.01949 0.335521,0.05777 0.611235,0.141605 0.820328,0.246883 0.209103,0.105278 0.349163,0.232394 0.427399,0.376821 0.07823,0.144426 0.09154,0.305559 0.03447,0.480771 -0.05707,0.1752111 -0.182343,0.3675946 -0.379144,0.5652306 -0.148398,0.1489862 -0.275011,0.2644026 -0.399823,0.3573297 -0.124817,0.092928 -0.251345,0.1584917 -0.386037,0.2079011 -0.269384,0.098819 -0.586334,0.1234414 -1.096068,0.1234414 -0.403268,0 -0.781468,0.036489 -1.123642,0.1039517 -0.342181,0.067458 -0.651934,0.1688697 -0.923738,0.2988524 -0.271804,0.1299827 -0.504086,0.2867101 -0.696245,0.4742743 -0.192158,0.1875639 -0.34484,0.4029901 -0.448077,0.6431938 -0.0613,0.1459473 -0.09352,0.345967 -0.103402,0.5717278 -0.0099,0.2257603 0.0067,0.4817847 0.04136,0.7341508 0.03468,0.2523658 0.08616,0.5018925 0.158549,0.7276535 0.07239,0.2257627 0.165611,0.4257812 0.268847,0.5717278 0.132274,0.1869956 0.27713,0.3528061 0.441186,0.4937649 0.164054,0.140959 0.343986,0.2560052 0.5308,0.3508332 0.186815,0.094828 0.385398,0.1657958 0.58595,0.2143976 0.200552,0.048602 0.401363,0.075682 0.606628,0.077963 0.205266,0.00229 0.412568,-0.020841 0.613523,-0.06497 0.200955,-0.044134 0.398326,-0.1107574 0.585948,-0.2014045 0.187621,-0.090647 0.365534,-0.2070834 0.530801,-0.3443362 0.165262,-0.1372521 0.321084,-0.2968182 0.454972,-0.4807711 0.116135,-0.1581077 0.193766,-0.3250284 0.25506,-0.5652308 0.0613,-0.2402042 0.106048,-0.5505219 0.144759,-1.0005238 0.06453,-0.7236516 0.132025,-1.1961846 0.248165,-1.5397672 0.05808,-0.1717913 0.128202,-0.3140506 0.213708,-0.4352927 0.08548,-0.1212426 0.187617,-0.2245064 0.310209,-0.3248454 0.122583,-0.097298 0.269959,-0.1693956 0.434291,-0.2208941 0.164335,-0.051498 0.347716,-0.07914 0.530801,-0.08446 0.18308,-0.00531 0.365736,0.010744 0.544586,0.051975 0.178843,0.041238 0.351596,0.1067313 0.503228,0.194908 0.100015,0.054729 0.192867,0.1329443 0.275739,0.2273906 0.08288,0.094446 0.153212,0.2024641 0.213709,0.3248457 0.120971,0.2447637 0.193028,0.5327981 0.193028,0.81861 0,0.060812 -0.10637,0.2170625 -0.275741,0.4222992 -0.169378,0.2052386 -0.403241,0.4588374 -0.654883,0.7081629 -0.296806,0.2858119 -0.528965,0.5251124 -0.710033,0.7341505 -0.181076,0.2090379 -0.307878,0.39275 -0.399823,0.5782249 -0.09195,0.1854749 -0.149781,0.3696021 -0.179235,0.5847216 -0.02943,0.215118 -0.03404,0.455667 -0.02756,0.7536413 0.0129,0.407434 0.06542,0.757529 0.16544,1.0460022 0.100014,0.2884728 0.248056,0.5207525 0.448078,0.7016659 0.200029,0.1809128 0.45224,0.3050594 0.76518,0.3898143 0.312936,0.084756 0.691775,0.1299379 1.130534,0.1299379 0.425853,0 0.794332,-0.03865 1.116749,-0.1169448 0.322417,-0.078292 0.598531,-0.1992208 0.82033,-0.3573298 0.221791,-0.1581077 0.393004,-0.3582718 0.517013,-0.5977156 0.124011,-0.2394439 0.19844,-0.5158024 0.22748,-0.8381011 0.01934,-0.2128395 0.01474,-0.41691 -0.01382,-0.6172062 -0.02842,-0.2002952 -0.0803,-0.3981429 -0.158554,-0.5912184 -0.07823,-0.1930757 -0.180155,-0.3870497 -0.310209,-0.5782248 -0.130046,-0.1911732 -0.291753,-0.3771304 -0.475646,-0.5717256 -0.425853,-0.4500019 -0.662533,-0.7351641 -0.799645,-0.98753 -0.06856,-0.1261835 -0.111852,-0.2399598 -0.137874,-0.3703237 -0.026,-0.1303642 -0.03814,-0.2780157 -0.04136,-0.4482868 -0.0064,-0.1945964 0.01151,-0.3656343 0.04827,-0.5197527 0.03668,-0.1541165 0.09007,-0.2914835 0.172349,-0.4093048 0.08226,-0.1178224 0.193742,-0.2131512 0.323991,-0.2988579 0.130252,-0.085706 0.281202,-0.1566269 0.461869,-0.2143976 0.248413,-0.079055 0.4921,-0.1159576 0.716923,-0.1104483 0.224831,0.00551 0.434106,0.05358 0.620415,0.1364344 0.186304,0.082854 0.349669,0.1978547 0.482548,0.350833 0.132877,0.1529773 0.231897,0.3428546 0.296419,0.558734 0.06453,0.2432455 0.130966,0.7680905 0.130966,1.1694435 0,0.4500019 0.03903,0.8027706 0.130966,1.1174681 0.09195,0.3146975 0.23515,0.5912705 0.448078,0.8770822 0.193558,0.2675688 0.405738,0.4671144 0.66867,0.6237032 0.262933,0.1565895 0.578395,0.2652818 0.971987,0.3443362 0.193581,0.042569 0.379927,0.06687 0.558373,0.06497 0.178452,-0.00187 0.348444,-0.030835 0.517014,-0.077963 0.168571,-0.047128 0.332404,-0.1147834 0.496333,-0.207901 0.16392,-0.093118 0.324904,-0.2109674 0.489439,-0.350833 0.191969,-0.1626698 0.36043,-0.3351698 0.496333,-0.5132557 0.135894,-0.1780859 0.24334,-0.3578914 0.323994,-0.5457402 0.08065,-0.1878481 0.132347,-0.3797694 0.158554,-0.5717279 0.02621,-0.1919589 0.02743,-0.3878102 0,-0.5782248 -0.02743,-0.1904158 -0.08518,-0.3755168 -0.16544,-0.558734 -0.08026,-0.1832163 -0.18483,-0.3623804 -0.317101,-0.5327465 C 34.705876,-7.6892691 34.54599,-7.8543103 34.3625,-8.0061716 34.179006,-8.1580321 33.969088,-8.2942707 33.735192,-8.421974 33.373861,-8.6226506 33.07893,-8.7421284 32.756313,-8.7922977 c -0.322615,-0.05017 -0.672862,-0.033991 -1.137429,0.038982 -0.238736,0.036486 -0.436854,0.054445 -0.60663,0.051975 -0.169769,-0.00247 -0.306416,-0.022062 -0.427396,-0.071467 -0.120994,-0.049409 -0.224763,-0.1295589 -0.317104,-0.2338896 -0.09235,-0.1043282 -0.178083,-0.2355774 -0.261952,-0.4028084 -0.116135,-0.2280413 -0.170967,-0.4436574 -0.179234,-0.6431933 -0.0083,-0.199539 0.03134,-0.386111 0.12408,-0.545741 0.09276,-0.159629 0.233587,-0.294489 0.420503,-0.402808 0.186926,-0.108319 0.422024,-0.188279 0.696246,-0.233889 0.170989,-0.02737 0.322775,-0.03298 0.468758,-0.0195 0.14598,0.01349 0.285888,0.04432 0.434291,0.110448 0.296809,0.132263 0.625049,0.385604 1.096069,0.799119 0.580709,0.5047324 0.930238,0.78892 1.227044,0.9485491 0.148398,0.079815 0.282219,0.1276095 0.427398,0.1559265 0.145175,0.028314 0.302322,0.038982 0.489439,0.038982 0.232283,-0.00304 0.456148,-0.032163 0.668672,-0.077963 0.212511,-0.045797 0.414229,-0.1090123 0.599736,-0.194908 0.185498,-0.085896 0.351999,-0.1885187 0.503226,-0.3118514 0.151231,-0.1233316 0.28324,-0.2706872 0.392929,-0.4287962 0.161317,-0.237163 0.253309,-0.388333 0.303316,-0.604212 0.05,-0.215879 0.06204,-0.494129 0.06204,-0.974536 0,-0.504732 -0.0088,-0.77538 -0.06204,-0.974537 -0.05324,-0.199156 -0.150655,-0.32682 -0.337784,-0.54574 -0.12583,-0.148986 -0.29442,-0.30272 -0.482546,-0.448286 -0.188123,-0.145566 -0.396123,-0.282707 -0.606628,-0.402809 -0.210507,-0.120101 -0.427451,-0.219767 -0.620415,-0.292361 -0.19296,-0.07259 -0.360834,-0.1204 -0.496334,-0.123441 -0.161317,0 -0.303268,0.01603 -0.441186,0.04548 -0.13792,0.02946 -0.275329,0.07418 -0.420503,0.14943 -0.290356,0.150507 -0.627255,0.412839 -1.130537,0.844598 -0.445211,0.377029 -0.733261,0.595117 -1.047811,0.747144 -0.314555,0.152028 -0.651468,0.234877 -1.206366,0.344336 -0.112911,0.02129 -0.224555,0.02656 -0.323994,0.01299 -0.09944,-0.01356 -0.185683,-0.0481 -0.268847,-0.09096 -0.166361,-0.08571 -0.301352,-0.220303 -0.386039,-0.389814 -0.08468,-0.169511 -0.122559,-0.369377 -0.103399,-0.578225 0.01911,-0.208848 0.0961,-0.426483 0.241274,-0.6302 0.109686,-0.158108 0.21129,-0.283929 0.323994,-0.383317 0.112703,-0.09939 0.239323,-0.17688 0.399823,-0.23389 0.160489,-0.05701 0.353575,-0.09247 0.606629,-0.123441 0.253053,-0.03097 0.560936,-0.05668 0.951304,-0.07796 0.683948,-0.03041 1.058568,-0.05116 1.316663,-0.110448 0.258092,-0.05929 0.401917,-0.154575 0.634201,-0.324845 0.154846,-0.115541 0.297948,-0.256708 0.427398,-0.409305 0.129446,-0.152598 0.24261,-0.314717 0.337782,-0.487269 0.09518,-0.172551 0.175457,-0.350847 0.227479,-0.526249 0.05202,-0.175402 0.07583,-0.352106 0.07583,-0.513256 0,-0.16267 -0.02439,-0.328031 -0.06893,-0.493765 -0.04456,-0.165734 -0.10386,-0.33176 -0.18612,-0.493765 -0.164542,-0.324009 -0.401343,-0.634741 -0.675565,-0.90307 -0.274224,-0.268329 -0.587767,-0.491392 -0.916837,-0.649691 -0.164542,-0.07915 -0.335267,-0.140462 -0.503228,-0.181913 -0.167973,-0.04145 -0.331799,-0.06151 -0.496334,-0.05847 -0.183886,0.003 -0.371219,0.02202 -0.551478,0.06497 -0.18027,0.04295 -0.354535,0.107836 -0.523908,0.18841 -0.169378,0.08058 -0.33132,0.17644 -0.482546,0.292361 -0.151231,0.115921 -0.294683,0.253821 -0.420504,0.402808 -0.18711,0.21892 -0.286604,0.348663 -0.344676,0.578225 -0.05808,0.229562 -0.07026,0.555252 -0.08961,1.169443 -0.02581,0.620273 -0.05062,0.949835 -0.110308,1.182437 -0.05969,0.232603 -0.157564,0.366218 -0.344674,0.591219 -0.177438,0.209798 -0.388095,0.385779 -0.613523,0.519753 -0.22543,0.133974 -0.46235,0.229958 -0.696245,0.279367 -0.233896,0.04941 -0.465825,0.05039 -0.668671,0.0065 -0.202839,-0.0439 -0.377845,-0.13342 -0.510118,-0.279367 -0.09034,-0.100339 -0.171474,-0.231065 -0.234382,-0.37682 -0.06292,-0.145757 -0.108834,-0.307389 -0.137874,-0.467778 -0.02904,-0.160389 -0.03887,-0.317044 -0.02757,-0.46128 0.01129,-0.144236 0.04532,-0.273026 0.1034,-0.370324 0.07742,-0.158109 0.511662,-0.647144 0.937515,-1.084984 0.27745,-0.27973 0.508046,-0.554117 0.682458,-0.825107 0.174421,-0.270989 0.293575,-0.539568 0.365358,-0.805616 0.07178,-0.266048 0.09248,-0.527715 0.06204,-0.792623 -0.03044,-0.264908 -0.108996,-0.531551 -0.241271,-0.79912 -0.141951,-0.285812 -0.270349,-0.479834 -0.468759,-0.656186 -0.198417,-0.176354 -0.470744,-0.332902 -0.90305,-0.54574 -0.261318,-0.127705 -0.53296,-0.218105 -0.813434,-0.266374 -0.210347,-0.0362 -0.424504,-0.04705 -0.634203,-0.03898 z m 0.255062,9.102167 c 0.907528,-0.03466 1.796602,0.546728 1.985331,1.416326 0.07471,0.352058 -0.07434,0.541856 -0.268849,1.046002 -0.07358,0.1907 -0.407907,0.403207 -0.592841,0.552237 -0.36242,0.292057 -1.120684,0.311852 -1.55104,0.311852 -0.812993,0 -1.472233,-1.097042 -1.227044,-2.033532 0.103239,-0.377029 0.678707,-1.029163 1.027132,-1.162947 0.203254,-0.07753 0.417879,-0.121938 0.627311,-0.129938 z"
       id="path4462" />
    <path
       style="opacity:0.7;fill:#cccccc;fill-opacity:1.0;fill-rule:nonzero;stroke:#ffff00;stroke-width:0;stroke-miterlimit:4;stroke-dasharray:none;stroke-dashoffset:0;stroke-opacity:1.0"
       d="m 63.573009,-22.251167 c -0.31204,0.0031 -0.569418,0.0336 -0.80654,0.09745 -0.316164,0.08514 -0.594662,0.230614 -0.923732,0.467777 -0.287131,0.197635 -0.526379,0.389591 -0.716925,0.591218 -0.190541,0.201627 -0.330688,0.415225 -0.441184,0.656187 -0.110492,0.240964 -0.187386,0.50946 -0.234379,0.825108 -0.04698,0.315647 -0.06895,0.678797 -0.06895,1.104474 0,0.522975 0.02049,0.881565 0.06895,1.208425 0.04838,0.326859 0.126014,0.623911 0.255059,1.007021 0.180662,0.522975 0.307561,0.948548 0.268847,0.948548 -0.03871,0 -0.332268,-0.220531 -0.654885,-0.500262 -0.33552,-0.27973 -1.005515,-0.71996 -1.49589,-0.987529 -0.367784,-0.200676 -0.625738,-0.321818 -0.854795,-0.396311 -0.229046,-0.07449 -0.431701,-0.103951 -0.696245,-0.103951 -0.374237,0 -0.69175,0.05683 -0.97888,0.175417 -0.287129,0.118581 -0.540671,0.303327 -0.78586,0.558734 -0.151622,0.152027 -0.273816,0.282207 -0.365356,0.415802 -0.09154,0.133594 -0.153142,0.268822 -0.199914,0.435292 -0.09357,0.332941 -0.117632,0.780461 -0.12408,1.552761 0,0.675003 0.01244,1.065558 0.06893,1.422823 0.05647,0.357265 0.158439,0.687113 0.358461,1.234413 0.225822,0.620272 0.554486,1.311673 0.951304,2.014041 0.396821,0.7023677 0.861195,1.415754 1.358023,2.0725135 0.438759,0.5837862 0.962237,1.1915069 1.399381,1.6567113 0.218568,0.2326033 0.41509,0.427266 0.572163,0.5652311 0.15708,0.137965 0.269148,0.2208941 0.323996,0.2208941 0.08387,0 0.150863,-0.019121 0.193006,-0.058471 0.04214,-0.039336 0.06123,-0.1001626 0.06204,-0.175416 0.0014,-0.1505068 -0.07996,-0.369544 -0.241274,-0.6431938 -0.248416,-0.401353 -0.439321,-0.8474793 -0.579056,-1.2993815 -0.139739,-0.4519022 -0.228447,-0.9103336 -0.255059,-1.3253692 -0.0266,-0.4150356 0.0055,-0.7877338 0.09651,-1.0784867 0.04546,-0.1453765 0.110424,-0.2724083 0.18612,-0.3703238 0.0757,-0.097914 0.162377,-0.168374 0.268847,-0.207901 0.193581,-0.06993 0.375654,-0.101788 0.551478,-0.09096 0.175826,0.01082 0.343244,0.06478 0.523908,0.16892 0.180662,0.1041389 0.370969,0.2577893 0.579056,0.4677772 0.208089,0.2099876 0.438151,0.4772371 0.696243,0.8056165 0.267771,0.3405419 0.476526,0.5863038 0.634203,0.7341507 0.157679,0.1478469 0.263872,0.1995972 0.317101,0.1494274 0.05324,-0.05017 0.05246,-0.2012774 0.0069,-0.4547835 -0.04557,-0.2535058 -0.137022,-0.6098254 -0.275742,-1.0719894 -0.109687,-0.3679069 -0.196828,-0.7403689 -0.261954,-1.1044749 -0.06513,-0.364106 -0.105541,-0.721078 -0.12408,-1.052499 -0.01865,-0.33142 -0.01635,-0.639718 0.01382,-0.909567 0.03005,-0.269849 0.08479,-0.502782 0.165439,-0.682175 0.06775,-0.152027 0.151393,-0.287647 0.248167,-0.402808 0.09679,-0.115163 0.205073,-0.20833 0.330887,-0.285864 0.12583,-0.07753 0.265648,-0.13627 0.420503,-0.175416 0.154847,-0.03915 0.326231,-0.05847 0.510121,-0.05847 0.203254,0 0.380219,0.007 0.537696,0.03248 0.157472,0.02547 0.297101,0.06719 0.420501,0.123441 0.123412,0.05625 0.229875,0.128539 0.330889,0.220894 0.101028,0.09236 0.1992,0.204055 0.289529,0.337839 0.106463,0.161149 0.17829,0.394582 0.22748,0.669182 0.04919,0.274599 0.0754,0.59038 0.06895,0.92256 -0.0064,0.332181 -0.0429,0.679627 -0.1034,1.013518 -0.0605,0.333891 -0.149043,0.655824 -0.261954,0.9355547 -0.193581,0.4743264 -0.310803,0.9639593 -0.344676,1.3318662 -0.01704,0.1839542 -0.01336,0.3334701 0.01382,0.4417897 0.02722,0.1083194 0.07745,0.175416 0.151646,0.175416 0.05808,0 0.179257,-0.1037025 0.330889,-0.2663732 0.151622,-0.1626698 0.335909,-0.3873715 0.510121,-0.6366968 0.400044,-0.5533807 0.696148,-0.9031091 0.971986,-1.1174681 0.137921,-0.1071805 0.269001,-0.1815935 0.406717,-0.2273905 0.137713,-0.0458 0.283101,-0.06497 0.441183,-0.06497 0.193581,0 0.358416,0.02878 0.496334,0.08446 0.13792,0.05568 0.243779,0.137077 0.330888,0.2533792 0.08712,0.1163016 0.151876,0.2664235 0.193029,0.4482867 0.04113,0.1818626 0.06204,0.397325 0.06204,0.6496908 -0.0064,0.3527041 -0.03125,0.5876712 -0.110286,0.8445978 -0.07903,0.2569271 -0.215804,0.5362809 -0.448078,0.9680394 -0.167766,0.3162172 -0.296512,0.6077322 -0.386039,0.8640887 -0.08951,0.2563565 -0.135087,0.4756192 -0.14476,0.6496908 -0.0097,0.1740723 0.01773,0.3009618 0.08961,0.3703237 0.07178,0.069363 0.182919,0.083757 0.337781,0.025989 0.103239,-0.036486 0.592788,-0.5401791 1.096069,-1.1239648 0.609746,-0.7145301 1.152384,-1.417263 1.619975,-2.1049984 0.467593,-0.6877348 0.860207,-1.3606667 1.178791,-2.0075439 0.318582,-0.646878 0.5611,-1.266158 0.723818,-1.858116 0.08136,-0.295979 0.145013,-0.584476 0.18612,-0.864088 0.04111,-0.279613 0.06204,-0.550626 0.06204,-0.812114 0,-0.377028 -0.02386,-0.708476 -0.08272,-1.00702 -0.05892,-0.298548 -0.153631,-0.563136 -0.282678,-0.805621 -0.129047,-0.242484 -0.292723,-0.46683 -0.503228,-0.675678 -0.210503,-0.208848 -0.468814,-0.406576 -0.772073,-0.604212 -0.238736,-0.158109 -0.416287,-0.254081 -0.606628,-0.311852 -0.190334,-0.05777 -0.391222,-0.07796 -0.668673,-0.07796 -0.251639,0 -0.50072,0.03224 -0.7445,0.09096 -0.243775,0.05872 -0.483388,0.146615 -0.71003,0.259876 -0.226628,0.113261 -0.440873,0.252182 -0.641095,0.415802 -0.200214,0.16362 -0.386949,0.355433 -0.551481,0.565231 -0.283903,0.364866 -0.555893,0.656188 -0.620416,0.656188 -0.06453,0 0.03903,-0.36944 0.2068,-0.831604 0.114523,-0.294934 0.209149,-0.584774 0.275742,-0.870586 0.0666,-0.285812 0.104528,-0.564451 0.12408,-0.838101 0.01957,-0.27365 0.01957,-0.540673 -0.0069,-0.79912 -0.02655,-0.258447 -0.07986,-0.50694 -0.151646,-0.747144 -0.07178,-0.240204 -0.159659,-0.476249 -0.275741,-0.695169 -0.116089,-0.21892 -0.254118,-0.422611 -0.413611,-0.617206 -0.159499,-0.194596 -0.342599,-0.37851 -0.544586,-0.54574 -0.201987,-0.167229 -0.425096,-0.317958 -0.668671,-0.454783 -0.341975,-0.188514 -0.579979,-0.303849 -0.820329,-0.376822 -0.240349,-0.07297 -0.485687,-0.105198 -0.834115,-0.123441 -0.117747,-0.0046 -0.226881,-0.0075 -0.330887,-0.0065 z m 17.468158,5.522371 c -0.04373,-0.003 -0.08541,-5.46e-4 -0.130988,0.0065 -0.09115,0.01406 -0.18718,0.04881 -0.303312,0.09745 -0.174214,0.06689 -0.722662,0.559033 -1.613082,1.442313 -0.890421,0.883281 -2.125241,2.157961 -3.667348,3.787697 -0.94204,0.991221 -1.416436,1.4867397 -1.640657,1.780153 -0.112105,0.1467052 -0.162493,0.24256 -0.179235,0.3248452 -0.01681,0.082286 0.0051,0.1491681 0.02757,0.2403861 0.05808,0.2371628 0.15358,0.4036527 0.282636,0.4872679 0.06453,0.041809 0.136263,0.064399 0.213709,0.06497 0.07742,5.849e-4 0.161064,-0.022411 0.248166,-0.06497 0.348426,-0.1763534 2.430405,-1.4942502 4.453209,-2.8001672 2.022803,-1.305917 3.986379,-2.601414 4.115426,-2.735198 0.138726,-0.142906 0.228885,-0.29595 0.261954,-0.46128 0.03307,-0.16533 0.009,-0.33884 -0.06204,-0.519753 -0.07098,-0.180913 -0.191946,-0.36908 -0.365356,-0.558734 -0.173408,-0.189655 -0.394447,-0.380173 -0.66867,-0.571728 -0.400045,-0.279731 -0.640546,-0.435995 -0.834117,-0.493765 -0.04838,-0.01444 -0.09414,-0.02297 -0.137875,-0.02599 z m -34.398623,0.06497 c -0.116135,0.01292 -0.237117,0.04675 -0.365354,0.10395 -0.128248,0.0572 -0.265208,0.137007 -0.413611,0.240386 -0.180662,0.121622 -0.328913,0.233961 -0.448078,0.350833 -0.119175,0.11687 -0.205142,0.239924 -0.268849,0.363826 -0.06372,0.123903 -0.102871,0.253596 -0.117195,0.396312 -0.01428,0.142716 -0.0083,0.294465 0.02073,0.467777 0.05163,0.304055 0.128501,0.623027 0.193028,0.708163 0.09034,0.139864 2.279655,1.548863 4.466995,2.917111 2.187339,1.368249 4.377545,2.6949696 4.480783,2.6767262 0.116135,-0.024331 0.266364,-0.1252611 0.330889,-0.2468826 0.03871,-0.057771 0.06027,-0.1082521 0.03448,-0.1949081 -0.02582,-0.086656 -0.09932,-0.2039249 -0.241275,-0.3833173 -0.283979,-0.3587841 -0.851395,-0.9726642 -1.909577,-2.0855062 -1.522749,-1.599331 -2.7228,-2.8382 -3.577733,-3.703237 -0.854935,-0.865038 -1.360835,-1.350681 -1.502785,-1.435817 -0.116142,-0.06993 -0.232565,-0.119973 -0.344677,-0.149429 -0.112109,-0.02945 -0.221639,-0.03891 -0.337781,-0.02599 z m 32.103083,8.2835567 c -0.151461,0.00648 -0.302978,0.020168 -0.461863,0.038982 -0.317779,0.037603 -0.649082,0.1021344 -0.992667,0.1884115 -0.343587,0.086275 -0.700713,0.1968226 -1.068494,0.3313421 -0.367784,0.1345199 -0.747066,0.2919363 -1.137431,0.4742744 -0.780732,0.3646763 -1.606492,0.8239637 -2.467875,1.3773445 -0.929137,0.5959482 -1.6205,1.0914159 -2.081843,1.4942886 -0.230669,0.201437 -0.408971,0.3790076 -0.523906,0.5327465 -0.114937,0.1537377 -0.172348,0.2833938 -0.172348,0.3898143 0,0.1125 0.02142,0.2073078 0.05515,0.2728703 0.03367,0.065561 0.0815,0.1044379 0.151645,0.1234413 0.07017,0.018996 0.159361,0.014185 0.268847,-0.012988 0.10948,-0.027175 0.241302,-0.076455 0.392929,-0.1494275 0.487152,-0.2402016 0.998864,-0.4291661 1.495895,-0.565231 0.497029,-0.1360654 0.980056,-0.219518 1.413168,-0.2468827 0.433112,-0.027365 0.814459,-0.00146 1.109856,0.08446 0.147708,0.042948 0.272819,0.1032987 0.372251,0.175416 0.09944,0.07212 0.17175,0.158018 0.213686,0.2598762 0.05808,0.142906 0.08712,0.2683813 0.07583,0.3898144 -0.01128,0.121432 -0.06266,0.2407551 -0.172349,0.3768208 -0.109686,0.1360654 -0.272996,0.2874709 -0.510118,0.474274 -0.237124,0.1868036 -0.55082,0.4085256 -0.944412,0.6821754 -0.27745,0.1945964 -0.467022,0.3469869 -0.592843,0.4807711 -0.12583,0.1337844 -0.186557,0.24786985 -0.193028,0.35732996 -0.0129,0.0851353 0.0014,0.17197328 0.02757,0.24038616 0.02582,0.0684129 0.06556,0.11819128 0.117195,0.13643438 0.09034,0.0364862 0.760327,-0.0977644 1.495892,-0.29236081 0.37746,-0.10033706 0.764241,-0.18166321 1.144324,-0.24038619 0.380081,-0.05872 0.75373,-0.094484 1.102961,-0.1104483 0.349232,-0.015955 0.673288,-0.00843 0.958197,0.01947 0.284912,0.027936 0.529808,0.076455 0.716928,0.14942995 0.154846,0.060812 0.292628,0.13693546 0.413608,0.22739063 0.120971,0.0904552 0.226329,0.19631155 0.310209,0.31185162 0.08387,0.11554131 0.149458,0.24075511 0.193029,0.37682078 0.04355,0.13606543 0.06204,0.28326519 0.06204,0.43529271 0,0.22499993 -0.01175,0.36647746 -0.08272,0.50026188 -0.07098,0.13378443 -0.201135,0.25977253 -0.420504,0.44828673 -0.12583,0.1064173 -0.268747,0.2009184 -0.434291,0.2858638 -0.165532,0.084946 -0.35021,0.1608449 -0.544586,0.2208941 -0.388753,0.1201033 -0.822754,0.1884115 -1.261513,0.1884115 -0.367784,0 -1.033409,-0.090425 -1.654442,-0.2014045 C 74.498567,1.73487 73.919801,1.5983957 73.713326,1.4950163 73.552008,1.4159613 73.438303,1.3726793 73.34797,1.3650784 c -0.09034,-0.0076 -0.156505,0.023658 -0.22748,0.08446 -0.08387,0.063851 -0.139786,0.1236083 -0.158554,0.1884115 -0.01865,0.064803 -0.0022,0.1345821 0.05515,0.2143976 0.114523,0.1596284 0.391552,0.365126 0.875477,0.6691813 0.412948,0.2614877 0.743201,0.4947546 0.985772,0.708163 0.242571,0.2134079 0.399031,0.4026336 0.475653,0.5782248 0.03832,0.087795 0.05748,0.1731126 0.05515,0.2533795 -0.0022,0.080267 -0.02651,0.1598727 -0.06893,0.2338896 -0.08488,0.1480364 -0.247476,0.2850591 -0.489436,0.4158019 -0.225822,0.1216215 -0.405146,0.1893863 -0.634205,0.2273906 -0.229046,0.038007 -0.512986,0.045062 -0.958197,0.038982 C 72.71639,4.9712749 72.256109,4.9217707 71.838323,4.8214311 71.420534,4.7210916 71.047995,4.5664926 70.680212,4.3536541 70.409214,4.1955464 70.201746,4.1182463 70.059796,4.1197644 c -0.07098,8.382e-4 -0.129146,0.023732 -0.16544,0.064968 -0.03629,0.041238 -0.05515,0.099819 -0.05515,0.1819125 0,0.072972 0.04242,0.1643625 0.12408,0.2728703 0.08166,0.1085088 0.20779,0.2324662 0.386036,0.3898146 0.356493,0.3146977 0.918603,0.7419987 1.750954,1.3318659 0.553286,0.3922324 1.106068,0.7455558 1.654442,1.0589942 0.548372,0.3134358 1.095659,0.5857262 1.626868,0.8186112 0.531208,0.2328875 1.049244,0.4276485 1.55104,0.5782251 0.501793,0.1505717 0.980613,0.2583301 1.440745,0.3248459 0.460132,0.066511 0.896654,0.090767 1.302873,0.071472 0.406217,-0.019195 0.783582,-0.081518 1.123641,-0.188414 0.340059,-0.1068959 0.648297,-0.258552 0.909945,-0.4547838 0.261645,-0.1962417 0.477003,-0.4338259 0.647988,-0.721156 0.161318,-0.2645275 0.267465,-0.5486766 0.310209,-0.8381033 0.04274,-0.2894209 0.02595,-0.5871956 -0.04825,-0.896571 C 82.545578,5.8049438 82.4095,5.483662 82.219958,5.159274 82.03043,4.8348861 81.78561,4.5062049 81.482351,4.1717441 81.108117,3.7703911 80.81368,3.4091111 80.81368,3.3726246 c 0,-0.036486 0.407543,0.05712 0.92373,0.2273906 0.345199,0.1064198 0.677751,0.1929462 0.999562,0.2533792 0.321806,0.060433 0.637484,0.096765 0.937517,0.1104483 0.30003,0.013686 0.588709,0.00125 0.868582,-0.032485 0.279868,-0.033826 0.552116,-0.086823 0.813432,-0.1689195 0.406498,-0.1277042 0.76652,-0.2967349 1.082284,-0.5002616 0.315759,-0.2035261 0.581879,-0.4448087 0.799645,-0.71466 0.217762,-0.2698513 0.383821,-0.5699045 0.496333,-0.8965732 0.11252,-0.3266707 0.172349,-0.67851009 0.172349,-1.05249894 0,-0.36182694 -0.04516,-0.69863082 -0.14476,-1.01351754 C 87.662731,-0.72995956 87.509001,-1.027283 87.307369,-1.298652 87.105732,-1.570021 86.855164,-1.8145252 86.549082,-2.0457963 86.243,-2.2770677 85.87975,-2.4943949 85.4668,-2.6889904 85.115146,-2.85318 84.776637,-2.9689769 84.446561,-3.0463203 c -0.330078,-0.077343 -0.648122,-0.113832 -0.965092,-0.1039503 -0.316972,0.00987 -0.632079,0.064935 -0.944412,0.1624229 -0.312329,0.097488 -0.621352,0.2368263 -0.937517,0.4222992 -0.361328,0.2189197 -0.698891,0.3548351 -0.737605,0.3183484 -0.05161,-0.036486 0.195286,-0.3684526 0.530801,-0.7211568 0.222598,-0.234124 0.411861,-0.4582783 0.572161,-0.6756783 0.160304,-0.2173991 0.2905,-0.4268999 0.392929,-0.6366971 0.102432,-0.2097956 0.178497,-0.4188808 0.227479,-0.6301999 0.04901,-0.2113189 0.06895,-0.4212345 0.06895,-0.6431938 0,-0.2888526 -0.02957,-0.5483568 -0.09651,-0.7796289 -0.06694,-0.2312726 -0.168699,-0.4378856 -0.317102,-0.6302005 -0.148403,-0.1923149 -0.341567,-0.3672617 -0.58595,-0.5392435 -0.244381,-0.1719812 -0.541279,-0.3429845 -0.896155,-0.5132557 -0.230672,-0.11098 -0.476287,-0.1923545 -0.737607,-0.2533792 -0.261317,-0.061024 -0.536867,-0.098951 -0.827223,-0.1104483 -0.145174,-0.00576 -0.296605,-0.00648 -0.448076,0 z M 48.338349,-8.269822 c -0.143793,-2.144e-4 -0.274206,0.00606 -0.399824,0.012988 -0.251236,0.013885 -0.47026,0.044588 -0.66867,0.090956 -0.198418,0.046368 -0.381339,0.1095807 -0.558374,0.194908 -0.177046,0.085325 -0.350576,0.1941028 -0.537695,0.3248454 -0.161318,0.1185827 -0.296424,0.2388206 -0.406716,0.3703235 -0.110286,0.1315034 -0.191348,0.2706872 -0.25506,0.428796 -0.06372,0.1581077 -0.10941,0.3343503 -0.130965,0.5327464 -0.02165,0.1983956 -0.02303,0.4168155 -0.0069,0.6691816 0.01612,0.2614874 0.04631,0.5043637 0.09651,0.7276535 0.0502,0.2232898 0.119336,0.4307003 0.213709,0.636697 0.09435,0.2059965 0.216748,0.4075983 0.365356,0.6172062 0.148606,0.2096088 0.324766,0.4285611 0.537693,0.6626846 0.361331,0.401353 0.632437,0.7423106 0.606629,0.7666351 -0.02582,0.024331 -0.486903,-0.1384112 -1.054707,-0.35733 -0.490376,-0.1885137 -0.975975,-0.3179804 -1.440743,-0.3898143 -0.464768,-0.071833 -0.910679,-0.083069 -1.337343,-0.038982 -0.426659,0.044087 -0.830315,0.1461069 -1.206364,0.3053546 -0.376048,0.1592495 -0.727981,0.376041 -1.040919,0.6496908 -0.196805,0.1702706 -0.349229,0.3197768 -0.475653,0.4742743 -0.126429,0.154498 -0.226259,0.3131968 -0.296422,0.4872681 -0.07017,0.17407231 -0.116733,0.36872282 -0.14476,0.5977154 -0.02803,0.22899357 -0.03447,0.49285644 -0.03447,0.81211349 0,0.32837959 0.01819,0.61810016 0.06204,0.88357941 0.04376,0.2654791 0.11245,0.507973 0.2068,0.7276538 0.09435,0.21968 0.213524,0.419725 0.365354,0.6107092 0.15183,0.1909817 0.335331,0.3728436 0.551483,0.552237 0.30003,0.2493255 0.629482,0.4460683 0.985772,0.5977154 0.35629,0.1516486 0.738632,0.2586417 1.144323,0.3118516 0.405687,0.053211 0.833956,0.052486 1.282194,0.00648 0.448233,-0.045987 0.915457,-0.139917 1.39938,-0.2858638 0.535543,-0.1641904 0.875063,-0.2484009 1.020242,-0.2468827 0.07259,8.381e-4 0.09962,0.022212 0.07583,0.06497 -0.02379,0.042756 -0.09433,0.1097727 -0.213708,0.194908 -0.141951,0.1216215 -0.493298,0.3641386 -0.751393,0.558734 -0.177438,0.1277043 -0.324881,0.265864 -0.448078,0.4158022 -0.123205,0.1499385 -0.223013,0.3105707 -0.29642,0.4937649 -0.07339,0.1831938 -0.123642,0.3897375 -0.151668,0.6172062 -0.02803,0.2274679 -0.03358,0.477368 -0.02073,0.7601383 0.01612,0.3679057 0.07047,0.6910068 0.16544,0.9745377 0.09497,0.2835284 0.230524,0.5243508 0.413608,0.734149 0.18308,0.2098032 0.415772,0.3860393 0.696246,0.532747 0.280474,0.1467076 0.61242,0.2695681 0.999559,0.3638275 0.361331,0.085133 0.606091,0.1273128 0.875475,0.1364369 0.269385,0.00922 0.561242,-0.017201 1.006454,-0.077953 0.638781,-0.085133 1.195321,-0.2004797 1.764739,-0.3768205 0.569418,-0.1763484 1.149726,-0.4122672 1.833674,-0.7406481 0.461339,-0.2219685 1.003032,-0.5265845 1.557933,-0.8640869 0.5549,-0.3375018 1.120799,-0.7067093 1.633762,-1.0654944 0.51296,-0.3587853 0.974246,-0.708215 1.309768,-0.994027 0.33552,-0.2858119 0.549578,-0.5116193 0.572161,-0.6302 0.0129,-0.060812 -0.0067,-0.1226211 -0.05515,-0.1819125 -0.04838,-0.059291 -0.124241,-0.1133575 -0.22748,-0.1559264 -0.129054,-0.060812 -0.2504,-0.08542 -0.434291,-0.051975 -0.183886,0.033445 -0.43407,0.1212575 -0.834114,0.2793672 -0.483926,0.1885137 -0.927481,0.3323296 -1.385596,0.4417897 -0.458114,0.1094612 -0.925883,0.1856544 -1.461425,0.2403862 -0.183886,0.021289 -0.349704,0.017076 -0.489439,-0.00648 -0.139739,-0.023558 -0.257205,-0.063046 -0.351568,-0.1299378 -0.09437,-0.066892 -0.165924,-0.157674 -0.213709,-0.2663733 -0.04779,-0.1086982 -0.06893,-0.2408249 -0.06893,-0.3898143 0,-0.1459473 0.01451,-0.2733942 0.06204,-0.4028083 0.04758,-0.1294119 0.124679,-0.258313 0.234377,-0.3898144 0.219374,-0.2630073 0.575638,-0.5459501 1.130537,-0.929058 0.5549,-0.3770282 1.020239,-0.7448055 1.020239,-0.8056165 0,-0.042569 -0.04219,-0.090827 -0.117194,-0.1364344 -0.07501,-0.045608 -0.183518,-0.086955 -0.296422,-0.1234413 -0.225822,-0.072972 -0.486242,-0.1144494 -0.641098,-0.077963 -0.167765,0.036486 -0.74709,0.1650729 -1.289086,0.2988578 -0.296806,0.079055 -0.671235,0.1462589 -1.061599,0.194908 -0.390365,0.048649 -0.797664,0.07838 -1.171898,0.08446 -0.567804,0.012165 -0.881087,0.020467 -1.089177,-0.012988 C 49.253829,2.0073401 49.148458,1.9341854 49.000055,1.8004009 48.793577,1.6179674 48.654925,1.393574 48.572656,1.1507104 48.490396,0.90784629 48.468243,0.64445881 48.503726,0.39057206 c 0.03549,-0.25388676 0.122053,-0.49916002 0.268846,-0.71465973 0.146787,-0.21549945 0.348096,-0.39854648 0.599736,-0.5262497 0.167766,-0.0851353 0.412823,-0.14637609 0.710032,-0.18191253 0.297207,-0.035536 0.651286,-0.045408 1.027135,-0.032485 0.375846,0.012938 0.775114,0.050205 1.178788,0.11044834 0.403674,0.0602411 0.811892,0.14046292 1.192579,0.24688268 0.600067,0.16419042 1.012365,0.25269116 1.275298,0.26637299 0.131472,0.006831 0.221539,-0.002266 0.282634,-0.0324851 0.0611,-0.0302165 0.08961,-0.0760387 0.08961,-0.1429309 0,-0.060812 -0.465339,-0.41559401 -1.020239,-0.79262271 -0.600065,-0.3952718 -0.956917,-0.6628653 -1.165002,-0.90307 -0.104044,-0.1201033 -0.166269,-0.2295918 -0.206799,-0.3508332 -0.04053,-0.1212426 -0.05515,-0.2538222 -0.05515,-0.4028081 0,-0.1398646 0.0205,-0.2677765 0.06893,-0.3833175 0.04838,-0.1155414 0.120142,-0.2171772 0.213708,-0.3053549 0.09357,-0.088177 0.209172,-0.1631259 0.344674,-0.2208941 0.135503,-0.057768 0.294547,-0.099115 0.468761,-0.1234413 0.177438,-0.027365 0.402233,-0.02798 0.654883,-0.00648 0.252648,0.021464 0.529166,0.068365 0.820327,0.1299379 0.582322,0.1231422 1.207193,0.3146578 1.723377,0.54574 0.406498,0.1885137 0.719311,0.2936082 0.930625,0.3118516 0.105657,0.00912 0.187432,-0.00553 0.241274,-0.038982 0.05384,-0.033447 0.08272,-0.086409 0.08272,-0.162423 0,-0.097298 -0.170207,-0.2863319 -0.517013,-0.5782248 -0.34671,-0.2919168 -0.87609,-0.6846421 -1.592299,-1.1954548 -0.825898,-0.577705 -1.522569,-1.0240947 -2.24039,-1.4163261 -0.717821,-0.3922312 -1.454696,-0.7335266 -2.364475,-1.1044741 -0.683946,-0.2736497 -1.07619,-0.4201031 -1.440745,-0.5067589 -0.364555,-0.086656 -0.7006,-0.112111 -1.268404,-0.1364343 -0.167766,-0.00608 -0.324961,-0.012789 -0.468761,-0.012988 z m 15.289807,5.4509055 c -0.07208,0.00214 -0.142526,0.00501 -0.213708,0.012988 -0.284709,0.031924 -0.564969,0.108085 -0.841007,0.2338896 -0.276039,0.1258021 -0.541998,0.3008327 -0.806543,0.5197524 -0.18711,0.1550664 -0.347614,0.2986936 -0.475651,0.4417897 -0.128041,0.1430955 -0.223472,0.2825044 -0.303314,0.435293 -0.07984,0.1527879 -0.143585,0.31611747 -0.18612,0.50026188 -0.04256,0.18414366 -0.0666,0.39303691 -0.08272,0.63019999 -0.02582,0.3891906 -0.0041,0.75363709 0.06893,1.09797723 0.07319,0.3443405 0.198394,0.6661919 0.365356,0.9550454 0.16696,0.2888536 0.378732,0.543915 0.634201,0.7666351 0.255476,0.222719 0.550518,0.4127875 0.889265,0.5587341 0.251639,0.1109793 0.508271,0.1879478 0.765179,0.2338896 0.256909,0.045942 0.519526,0.059351 0.772075,0.045478 0.252547,-0.013886 0.499046,-0.054981 0.737603,-0.1234414 0.238561,-0.06846 0.467515,-0.1615429 0.682458,-0.2793668 0.214952,-0.1178223 0.41804,-0.2603421 0.599735,-0.4222991 0.181699,-0.1619568 0.343723,-0.3448744 0.482549,-0.5457403 0.138818,-0.2008661 0.251455,-0.42164 0.337781,-0.6561875 0.08631,-0.2345478 0.141237,-0.4841373 0.16544,-0.74714435 0.0355,-0.3496593 0.0256,-0.67891017 -0.04135,-0.98752673 -0.06694,-0.30861656 -0.187474,-0.59347845 -0.358462,-0.86408862 -0.170989,-0.2706104 -0.392028,-0.524495 -0.668672,-0.7601384 -0.276642,-0.2356434 -0.608749,-0.4524715 -0.992665,-0.6561875 -0.293579,-0.1581087 -0.584921,-0.2686311 -0.875477,-0.3313424 -0.217916,-0.047033 -0.438655,-0.064869 -0.654883,-0.058471 z m -3.832792,8.7383406 c -0.05043,0.00414 -0.105772,0.016553 -0.16544,0.038982 -0.119359,0.044847 -0.258313,0.1280757 -0.406716,0.2403862 -0.148399,0.1123105 -0.311559,0.2524438 -0.482546,0.4287959 -0.458115,0.4804074 -1.07652,1.2771359 -1.64755,2.0920053 -0.57103,0.8148669 -1.093475,1.6490705 -1.35802,2.2024515 -0.161318,0.331417 -0.287678,0.622387 -0.392931,0.903069 -0.105243,0.280684 -0.188492,0.551112 -0.248167,0.831604 -0.05969,0.280492 -0.09949,0.572225 -0.12408,0.903071 -0.0246,0.330846 -0.03447,0.698702 -0.03447,1.130462 0,0.668922 0.0078,1.068587 0.04825,1.351358 0.04032,0.28277 0.111783,0.450261 0.23438,0.669181 0.12583,0.221969 0.269265,0.416752 0.427398,0.584722 0.15814,0.167972 0.331306,0.308375 0.517013,0.422298 0.185706,0.113926 0.384298,0.200031 0.592841,0.259876 0.20855,0.05983 0.428244,0.09825 0.654883,0.103954 0.226651,0.0057 0.463144,-0.01645 0.70314,-0.06497 0.239994,-0.04849 0.482095,-0.12467 0.73071,-0.227403 0.248618,-0.102708 0.505792,-0.232813 0.758288,-0.389813 0.252494,-0.156979 0.499751,-0.340918 0.751392,-0.552237 0.400043,-0.328381 0.753157,-0.583059 0.778968,-0.558736 0.02582,0.02443 -0.115767,0.37178 -0.296424,0.773134 -0.148399,0.316218 -0.234241,0.547313 -0.282632,0.831604 -0.04838,0.284291 -0.06248,0.622559 -0.06895,1.17594 0,0.38311 0.02165,0.717633 0.06204,1.013516 0.04032,0.295886 0.102686,0.557741 0.193029,0.792626 0.09034,0.234881 0.208435,0.443084 0.358461,0.643192 0.150011,0.200106 0.332103,0.386668 0.551483,0.578223 0.190335,0.164183 0.370412,0.307139 0.551479,0.422301 0.181076,0.115148 0.362752,0.207909 0.551483,0.279365 0.188722,0.07145 0.386407,0.122851 0.599735,0.155932 0.213317,0.03308 0.441375,0.04547 0.696246,0.04547 0.295194,0.003 0.577533,-0.02615 0.847902,-0.08446 0.270366,-0.05831 0.524928,-0.146708 0.765177,-0.259876 0.24025,-0.113178 0.463833,-0.254294 0.668671,-0.415802 0.204842,-0.161516 0.394244,-0.342404 0.558375,-0.54574 0.164128,-0.203347 0.309263,-0.424024 0.427399,-0.662685 0.118138,-0.238646 0.208895,-0.492663 0.275739,-0.760138 0.06685,-0.267474 0.106923,-0.548322 0.117194,-0.8381 0.01036,-0.289779 -0.01036,-0.590999 -0.06204,-0.896575 -0.07742,-0.437839 -0.257875,-1.104266 -0.399826,-1.481293 -0.154846,-0.364867 -0.2464,-0.696833 -0.220594,-0.721156 0.02582,-0.02443 0.386698,0.230344 0.799648,0.558733 0.374234,0.301016 0.73156,0.548297 1.068494,0.734151 0.336931,0.185846 0.652957,0.308824 0.965092,0.383317 0.312134,0.07449 0.617005,0.09805 0.916837,0.06496 0.299829,-0.03306 0.596124,-0.116568 0.896157,-0.253379 0.250027,-0.115546 0.469465,-0.257138 0.661775,-0.422298 0.192315,-0.165156 0.361842,-0.353819 0.496333,-0.56523 0.134489,-0.211424 0.240528,-0.447377 0.317102,-0.701666 0.07657,-0.25429 0.119313,-0.531314 0.137874,-0.825108 0.01865,-0.293794 0.01198,-0.60563 -0.02757,-0.935556 -0.03956,-0.329924 -0.109018,-0.676822 -0.206799,-1.039503 -0.0978,-0.362683 -0.223036,-0.7384 -0.379146,-1.130464 C 72.516327,11.80987 72.328609,11.39859 72.114069,10.980514 71.859201,10.490986 71.513055,9.9342552 71.13519,9.3692799 70.757326,8.8043071 70.347939,8.2340942 69.949506,7.7255633 69.551075,7.21703 69.170004,6.7723787 68.853439,6.4521696 68.695161,6.292065 68.551546,6.1636446 68.432933,6.075349 68.314311,5.9870527 68.216438,5.9389147 68.150302,5.9389147 c -0.08387,0 -0.14172,0.011442 -0.179235,0.045478 -0.03751,0.034016 -0.05264,0.091041 -0.04136,0.175416 0.02257,0.1687499 0.146856,0.4543156 0.379142,0.9225618 0.245189,0.4986489 0.436223,0.9724037 0.56527,1.4163259 0.129054,0.4439196 0.193029,0.8565508 0.193029,1.2214178 0,0.2371504 -0.01082,0.3801588 -0.06893,0.5002618 -0.05808,0.120109 -0.164012,0.217058 -0.344676,0.350832 -0.232284,0.1581 -0.593172,0.363152 -0.799645,0.448287 -0.129054,0.0517 -0.239457,0.0785 -0.351569,0.07147 -0.112105,-0.007 -0.222091,-0.04405 -0.344676,-0.12993 -0.245189,-0.171787 -0.541003,-0.522352 -0.992667,-1.130462 -0.400043,-0.5351377 -0.79027,-0.9745377 -0.854795,-0.9745377 -0.06775,0 -0.114108,0.026475 -0.14476,0.077953 -0.03065,0.051503 -0.04092,0.1251938 -0.03447,0.2338846 0.0129,0.2174066 0.100636,0.559097 0.261954,1.0395061 0.116135,0.340541 0.206385,0.691089 0.275742,1.058995 0.06936,0.367906 0.111621,0.754264 0.130965,1.143454 l 0.08272,1.175943 -0.413611,0.487266 c -0.193558,0.231092 -0.429064,0.416243 -0.73071,0.565232 -0.301647,0.148976 -0.672422,0.260033 -1.130537,0.357328 -0.14195,0.02443 -0.24716,0.02805 -0.358463,-0.01296 -0.111299,-0.04106 -0.223842,-0.126515 -0.372249,-0.266374 -0.190334,-0.17939 -0.337947,-0.407955 -0.441184,-0.682175 -0.103239,-0.27422 -0.163091,-0.590939 -0.179234,-0.955045 -0.01612,-0.364105 0.01175,-0.772368 0.08272,-1.221418 0.07098,-0.44905 0.179695,-0.939246 0.337781,-1.468301 0.193558,-0.6324362 0.328241,-1.2418974 0.289527,-1.3513585 -0.04516,-0.1033809 -0.110516,-0.1654045 -0.18612,-0.188414 -0.0756,-0.022935 -0.163183,-0.00499 -0.268847,0.051977 -0.211313,0.1140256 -0.484365,0.386852 -0.813434,0.8186113 -0.25164,0.3222982 -0.453249,0.5497812 -0.654883,0.7276532 -0.201642,0.177869 -0.402802,0.306341 -0.647991,0.415802 -0.348425,0.158099 -0.564123,0.230021 -0.723817,0.220897 -0.07984,-0.0045 -0.145704,-0.03046 -0.2068,-0.07795 -0.0611,-0.04752 -0.117931,-0.116693 -0.179234,-0.207908 -0.112911,-0.173307 -0.187318,-0.389876 -0.220594,-0.643193 -0.03328,-0.2533174 -0.0237,-0.5406151 0.02073,-0.8575934 0.04435,-0.3169783 0.128202,-0.6622137 0.248166,-1.0265098 0.119981,-0.3642962 0.275189,-0.7481841 0.468759,-1.1434572 0.219373,-0.4500008 0.36271,-0.8975599 0.323996,-1.0070198 -0.04194,-0.1003395 -0.109134,-0.1623755 -0.193028,-0.1884115 -0.04194,-0.013013 -0.08744,-0.017126 -0.137875,-0.012988 z m -5.893953,3.3004284 c -0.07742,0 -2.079715,1.2569045 -4.115425,2.5597805 -2.035709,1.302876 -4.101088,2.649805 -4.294658,2.826155 -0.167766,0.152018 -0.273257,0.270129 -0.337781,0.396313 -0.06453,0.126191 -0.08961,0.265851 -0.08961,0.448285 0,0.297974 0.06441,0.55781 0.199914,0.805618 0.135502,0.247795 0.34429,0.477913 0.641096,0.721156 0.258094,0.218927 0.493148,0.367297 0.72382,0.441791 0.230669,0.07449 0.457506,0.08072 0.696243,0.02598 0.132278,-0.03041 0.649678,-0.498502 1.358023,-1.182437 0.708342,-0.683934 1.60334,-1.58686 2.481664,-2.501309 0.878321,-0.914446 1.742947,-1.837839 2.385152,-2.559783 0.64221,-0.721939 1.061604,-1.244936 1.061604,-1.3513558 0,-0.066885 -0.03155,-0.148328 -0.0896,-0.2274031 C 54.463773,9.543589 54.384691,9.4694749 54.294372,9.4147306 54.126606,9.305267 53.940155,9.219835 53.901441,9.219835 Z m 19.956717,0 c -0.07742,0 -0.168249,0.071197 -0.234382,0.1624129 -0.06614,0.091216 -0.108972,0.200729 -0.0896,0.2858643 0.0129,0.085133 0.02165,0.2055652 0.03447,0.2663723 0.0129,0.109464 2.4285,2.689564 5.280428,5.632819 0.445212,0.456082 0.885955,0.888061 1.240834,1.214921 0.354878,0.32686 0.627034,0.548235 0.723817,0.584721 0.135502,0.05475 0.242762,0.08404 0.365354,0.07795 0.122606,-0.006 0.26008,-0.04355 0.434294,-0.110436 0.290353,-0.115546 0.627653,-0.364152 0.909942,-0.630202 0.141144,-0.133022 0.267969,-0.271493 0.365356,-0.402807 0.09739,-0.131326 0.167213,-0.253953 0.193029,-0.357331 0.04516,-0.164183 0.06165,-0.297708 0.02756,-0.435292 -0.03408,-0.137583 -0.117286,-0.2776 -0.282634,-0.44179 C 82.661252,14.902876 82.416938,14.71335 82.068313,14.469344 81.719687,14.225338 81.266653,13.923811 80.682717,13.546783 79.443869,12.744077 77.41409,11.446202 76.188147,10.655658 74.962206,9.8651144 73.922664,9.2198425 73.858142,9.2198425 Z"
       id="path4350" />
    <path
       style="opacity:0.7;fill:#cccccc;fill-opacity:1.0;fill-rule:nonzero;stroke:#ffff00;stroke-width:0;stroke-miterlimit:4;stroke-dasharray:none;stroke-dashoffset:0;stroke-opacity:1.0"
       d="m 6.8309388,-22.998687 c -0.03619,0.0014 -0.071265,0.003 -0.1070731,0.0067 -0.143233,0.01496 -0.2846719,0.04719 -0.4140198,0.100913 -0.1293466,0.05372 -0.2497824,0.12734 -0.3533442,0.218648 -0.065144,0.05667 -0.1174959,0.111615 -0.1606107,0.168189 -0.043117,0.05658 -0.076134,0.11413 -0.099936,0.178283 -0.047605,0.128302 -0.059762,0.279733 -0.046399,0.484385 0.011699,0.176319 0.022661,0.314643 0.03926,0.427202 0.016604,0.11256 0.038622,0.200696 0.074952,0.282559 0.03633,0.08186 0.086156,0.154605 0.1570412,0.23883 0.070885,0.08422 0.1652648,0.179734 0.2855308,0.299378 0.2472126,0.251881 0.4886,0.516463 0.5353702,0.592027 0.040089,0.07242 0.060923,0.141256 0.067813,0.208555 0.00689,0.0673 -0.00103,0.132346 -0.028554,0.198464 -0.027561,0.06612 -0.072364,0.132954 -0.1356266,0.201828 -0.063265,0.06887 -0.1460495,0.139718 -0.2462702,0.215282 -0.093539,0.06927 -0.2924762,0.134774 -0.4854025,0.174918 -0.096463,0.02007 -0.1915984,0.03277 -0.2712543,0.037 -0.079655,0.0042 -0.1433804,4.87e-4 -0.1784558,-0.01682 -0.056792,-0.02991 -0.1092285,-0.07931 -0.1570412,-0.144643 -0.047815,-0.06533 -0.090907,-0.146379 -0.1284876,-0.245556 -0.075166,-0.198357 -0.1303161,-0.462831 -0.1570412,-0.787128 -0.023386,-0.239287 -0.04595,-0.408547 -0.078522,-0.541571 -0.032572,-0.133024 -0.071926,-0.228253 -0.1320571,-0.31956 -0.041758,-0.06455 -0.1085699,-0.137025 -0.1891643,-0.208554 -0.080594,-0.07153 -0.1781702,-0.142831 -0.2783926,-0.208557 -0.1002219,-0.06573 -0.2027375,-0.127786 -0.3033764,-0.174915 -0.1006387,-0.04713 -0.196545,-0.07844 -0.2783926,-0.09419 -0.1135833,-0.02361 -0.240361,-0.02391 -0.367621,0 -0.1272602,0.02391 -0.2551398,0.07197 -0.3783282,0.134552 -0.1231887,0.06258 -0.2412672,0.13971 -0.3426369,0.232103 -0.1013688,0.09239 -0.1880358,0.199485 -0.2498395,0.312832 -0.036747,0.06769 -0.062966,0.162664 -0.078522,0.272468 -0.015545,0.109803 -0.018861,0.233985 -0.014278,0.359925 0.00458,0.125941 0.019137,0.253916 0.042829,0.370018 0.023699,0.116101 0.054609,0.21909 0.096367,0.299377 0.063472,0.116495 0.1425445,0.219915 0.2355629,0.306105 0.093018,0.08619 0.1999326,0.155246 0.3247913,0.211919 0.1248583,0.05667 0.2657297,0.09988 0.4247272,0.127824 0.1589963,0.02794 0.33637,0.04037 0.5318009,0.04037 0.2739383,0 0.5940184,0.03708 0.7209653,0.08746 0.065144,0.02676 0.1299707,0.06864 0.1891643,0.117733 0.059194,0.0491 0.114258,0.105613 0.1606107,0.16819 0.046353,0.06258 0.084021,0.131262 0.1106425,0.198463 0.026621,0.0672 0.042829,0.135494 0.042829,0.198464 0,0.06927 -0.01414,0.115021 -0.064244,0.161462 -0.050111,0.04644 -0.1385398,0.09198 -0.2855307,0.158098 -0.1937608,0.08816 -0.4780642,0.176209 -0.631737,0.1951 -0.070155,0.0094 -0.1261341,0.01523 -0.1748886,0.01346 -0.048752,-0.0018 -0.093071,-0.0092 -0.1427637,-0.03365 -0.099386,-0.0488 -0.223228,-0.155488 -0.4604184,-0.363289 -0.1336283,-0.119644 -0.2873798,-0.243357 -0.4318652,-0.346471 -0.1444858,-0.103114 -0.276965,-0.184443 -0.3604827,-0.225374 -0.1369691,-0.06297 -0.222821,-0.09741 -0.3105149,-0.107641 -0.087694,-0.01023 -0.1777995,0.0019 -0.3247911,0.03027 -0.09688,0.02046 -0.1973533,0.05426 -0.2926692,0.09755 -0.095314,0.04329 -0.1873196,0.09491 -0.2712543,0.154734 -0.083936,0.05982 -0.1585427,0.12841 -0.2212873,0.198464 -0.062742,0.07005 -0.1110294,0.144657 -0.1427655,0.218647 -0.053452,0.119643 -0.084341,0.261142 -0.092797,0.413746 -0.008452,0.152604 0.00438,0.315689 0.035693,0.474295 0.031319,0.158606 0.080461,0.313099 0.1463351,0.450748 0.065874,0.137649 0.1474911,0.256738 0.2427012,0.346471 0.058461,0.05352 0.1293374,0.101547 0.2070093,0.144643 0.077672,0.0431 0.1615388,0.08367 0.2534086,0.114369 0.1837386,0.0614 0.3927192,0.09419 0.6031839,0.09419 0.065144,0 0.1414413,-0.01411 0.2248544,-0.04373 0.083413,-0.02961 0.172892,-0.07569 0.2676851,-0.131187 0.1895857,-0.110985 0.3951461,-0.268781 0.5889076,-0.46084 0.083517,-0.08344 0.1666143,-0.154655 0.24627,-0.211919 0.079655,-0.05726 0.1574741,-0.09892 0.2355629,-0.131188 0.078089,-0.03227 0.1567418,-0.05545 0.2355632,-0.06391 0.078821,-0.0085 0.1572853,-0.0041 0.2391319,0.01009 0.1737165,0.02991 0.3164675,0.07332 0.424727,0.127825 0.108259,0.05451 0.1807794,0.120323 0.2212873,0.1951 0.040506,0.07478 0.047391,0.158204 0.017847,0.24892 -0.029544,0.09072 -0.094412,0.190323 -0.1963032,0.29265 -0.076836,0.07714 -0.1423879,0.136895 -0.2070094,0.185009 -0.064621,0.04811 -0.1301342,0.08206 -0.1998704,0.107641 -0.1394747,0.05116 -0.3035761,0.06391 -0.5674922,0.06391 -0.2087941,0 -0.4046075,0.01889 -0.5817691,0.05382 -0.1771616,0.03493 -0.3375364,0.08744 -0.4782641,0.154735 -0.1407275,0.0673 -0.260992,0.148445 -0.3604825,0.245557 -0.099492,0.09711 -0.1785433,0.208649 -0.2319939,0.333015 -0.031736,0.07557 -0.048421,0.179126 -0.053538,0.296014 -0.00511,0.116887 0.00345,0.249445 0.021417,0.380108 0.017963,0.130664 0.044612,0.259857 0.082091,0.376745 0.037477,0.11689 0.085746,0.220451 0.139196,0.296014 0.068484,0.09682 0.1434841,0.182665 0.228424,0.255648 0.08494,0.07298 0.1780989,0.132548 0.2748236,0.181646 0.096724,0.0491 0.1995411,0.08584 0.3033764,0.111004 0.1038352,0.02516 0.2078062,0.03918 0.314084,0.04036 0.1062762,0.0012 0.2136072,-0.01079 0.317653,-0.03364 0.1040448,-0.02286 0.2062333,-0.05734 0.3033763,-0.104278 0.097143,-0.04693 0.1892563,-0.107217 0.2748236,-0.17828 0.085566,-0.07106 0.1662435,-0.153678 0.2355627,-0.24892 0.060133,-0.08186 0.1003209,-0.168283 0.1320594,-0.29265 0.031736,-0.124366 0.054908,-0.285034 0.074952,-0.518024 0.033408,-0.374672 0.068357,-0.619328 0.1284876,-0.797218 0.030067,-0.08895 0.066379,-0.162601 0.1106425,-0.225374 0.044264,-0.06277 0.097138,-0.11624 0.1606107,-0.16819 0.063472,-0.05038 0.1397718,-0.0877 0.2248545,-0.114369 0.085083,-0.02666 0.180031,-0.04097 0.2748233,-0.04373 0.094792,-0.0028 0.1893623,0.0056 0.2819617,0.02691 0.092599,0.02135 0.1820391,0.05526 0.260547,0.100914 0.05178,0.02834 0.099858,0.06883 0.1427655,0.117733 0.042908,0.0489 0.079323,0.104826 0.1106425,0.16819 0.062639,0.126727 0.099936,0.275858 0.099936,0.423838 0,0.03148 -0.055071,0.112385 -0.1427656,0.218645 -0.087694,0.106263 -0.2087802,0.237564 -0.3390678,0.366653 -0.1536721,0.147979 -0.273872,0.271879 -0.3676207,0.380109 -0.093749,0.108229 -0.159404,0.203346 -0.2070094,0.299377 -0.047605,0.09603 -0.077557,0.191363 -0.092797,0.302742 -0.015245,0.111378 -0.017617,0.235923 -0.014278,0.3902 0.00668,0.210949 0.033878,0.392212 0.085661,0.54157 0.051781,0.149358 0.1284323,0.269621 0.2319935,0.36329 0.1035611,0.09367 0.2341489,0.157945 0.3961743,0.201828 0.1620223,0.04388 0.3581696,0.06728 0.585338,0.06728 0.2204859,0 0.4112682,-0.02002 0.5781998,-0.06055 0.1669322,-0.04054 0.30989,-0.103146 0.4247272,-0.185008 0.1148361,-0.08186 0.2034814,-0.185495 0.2676851,-0.309469 0.064205,-0.123972 0.1027482,-0.267058 0.1177815,-0.433929 0.010018,-0.110199 0.00758,-0.215856 -0.00714,-0.319561 -0.014715,-0.103705 -0.041583,-0.206138 -0.082089,-0.306105 -0.040508,-0.09997 -0.093274,-0.200395 -0.1606107,-0.299377 -0.067341,-0.09898 -0.1510659,-0.195264 -0.2462755,-0.296016 -0.2204869,-0.23299 -0.3430298,-0.380633 -0.4140195,-0.511296 -0.035494,-0.06533 -0.057915,-0.124239 -0.071383,-0.191737 -0.013472,-0.0675 -0.019736,-0.143943 -0.021417,-0.232103 -0.00334,-0.100753 0.00599,-0.189309 0.024984,-0.269103 0.018999,-0.0798 0.046634,-0.150917 0.089228,-0.211919 0.042594,-0.061 0.1003095,-0.11036 0.1677497,-0.154734 0.06744,-0.04438 0.1455912,-0.0811 0.2391319,-0.111006 0.1286189,-0.04093 0.2547873,-0.06004 0.37119,-0.05718 0.1164044,0.0029 0.2247601,0.02774 0.3212223,0.07064 0.096464,0.0429 0.1810419,0.10244 0.2498395,0.181644 0.068799,0.0792 0.1200659,0.177514 0.1534717,0.289287 0.033408,0.125939 0.067813,0.397681 0.067813,0.605482 0,0.23299 0.020219,0.415637 0.067813,0.578573 0.047605,0.162936 0.1217516,0.306132 0.2319939,0.454112 0.1002219,0.138533 0.2100722,0.241849 0.3462061,0.322924 0.1361332,0.08107 0.2994648,0.137349 0.503248,0.17828 0.100222,0.02204 0.196708,0.03462 0.289098,0.03364 0.09239,-9.75e-4 0.180409,-0.01595 0.267687,-0.04036 0.08727,-0.02441 0.172102,-0.05943 0.256976,-0.107642 0.08488,-0.04821 0.16822,-0.109229 0.253409,-0.181645 0.09939,-0.08422 0.186615,-0.173534 0.256979,-0.26574 0.07036,-0.0922 0.125989,-0.185298 0.167747,-0.282559 0.04176,-0.09726 0.06852,-0.196625 0.08209,-0.296013 0.01356,-0.09939 0.01421,-0.200789 0,-0.299378 -0.0142,-0.09858 -0.0441,-0.194421 -0.08565,-0.289282 -0.04155,-0.09486 -0.09569,-0.187624 -0.16418,-0.275831 -0.06849,-0.08821 -0.15127,-0.173658 -0.24627,-0.252285 -0.095,-0.07863 -0.203691,-0.149164 -0.324792,-0.215282 -0.187081,-0.103901 -0.339782,-0.165761 -0.506818,-0.191737 -0.167036,-0.02598 -0.348375,-0.0176 -0.5889062,0.02018 -0.1236055,0.01889 -0.2261809,0.02819 -0.314084,0.02691 -0.087901,-0.0013 -0.1586486,-0.01142 -0.2212873,-0.037 -0.062639,-0.02558 -0.1163675,-0.06708 -0.1641801,-0.121097 -0.047815,-0.05402 -0.092199,-0.121971 -0.1356266,-0.208555 -0.060133,-0.118069 -0.088516,-0.229705 -0.092797,-0.333016 -0.00428,-0.10331 0.016212,-0.19991 0.064244,-0.282558 0.048022,-0.08265 0.1209411,-0.152472 0.2177178,-0.208555 0.096777,-0.05608 0.2185031,-0.09748 0.3604829,-0.121097 0.08853,-0.01417 0.1671187,-0.01708 0.2427013,-0.01009 0.075583,0.007 0.1480184,0.02294 0.2248542,0.05718 0.153672,0.06848 0.323621,0.199648 0.567492,0.413747 0.300664,0.261326 0.481633,0.408465 0.635306,0.491113 0.07684,0.04132 0.146121,0.06607 0.221285,0.08073 0.07517,0.01466 0.156528,0.02018 0.253409,0.02018 0.120266,-0.0016 0.236172,-0.01665 0.346207,-0.04037 0.110034,-0.02371 0.214471,-0.05644 0.310514,-0.100914 0.09605,-0.04447 0.182249,-0.09761 0.260548,-0.161462 0.0783,-0.06386 0.146648,-0.140149 0.20344,-0.22201 0.08352,-0.122792 0.131152,-0.201061 0.157041,-0.312833 0.02589,-0.111772 0.03212,-0.255837 0.03212,-0.504569 0,-0.261326 -0.0046,-0.401455 -0.03212,-0.504569 -0.02756,-0.103114 -0.07801,-0.169212 -0.174886,-0.282558 -0.06515,-0.07714 -0.152438,-0.156735 -0.24984,-0.232102 -0.0974,-0.07537 -0.205093,-0.146372 -0.314083,-0.208555 -0.108992,-0.06218 -0.221315,-0.113785 -0.321223,-0.151371 -0.09991,-0.03758 -0.186824,-0.06234 -0.256978,-0.06391 -0.08352,0 -0.157016,0.0083 -0.228424,0.02355 -0.07141,0.01525 -0.142552,0.0384 -0.217716,0.07737 -0.150332,0.07793 -0.324763,0.213749 -0.585337,0.437293 -0.230509,0.195208 -0.379649,0.308124 -0.542509,0.386836 -0.1628602,0.07871 -0.337298,0.121608 -0.6245991,0.178281 -0.058463,0.01102 -0.116268,0.01375 -0.1677494,0.0067 -0.051481,-0.007 -0.096132,-0.02491 -0.139196,-0.04709 -0.086128,-0.04437 -0.1560234,-0.114062 -0.1998704,-0.201827 -0.043847,-0.08776 -0.063456,-0.191246 -0.053538,-0.299378 0.00993,-0.108131 0.049754,-0.220813 0.1249204,-0.326287 0.056792,-0.08186 0.1093921,-0.147006 0.1677497,-0.198464 0.058358,-0.05146 0.1239094,-0.09158 0.2070093,-0.121097 0.0831,-0.02952 0.1830662,-0.04787 0.314084,-0.06391 0.1310185,-0.01604 0.2904271,-0.02934 0.4925405,-0.04036 0.354114,-0.01574 0.548074,-0.02649 0.681704,-0.05718 0.13363,-0.0307 0.208096,-0.08003 0.328361,-0.16819 0.08018,-0.05982 0.154262,-0.132911 0.221285,-0.211919 0.06702,-0.07901 0.125612,-0.162945 0.174887,-0.252284 0.04927,-0.08934 0.09085,-0.181653 0.117781,-0.272467 0.02693,-0.09081 0.03926,-0.182305 0.03926,-0.26574 0,-0.08422 -0.01262,-0.16984 -0.03569,-0.255648 -0.02307,-0.08581 -0.05377,-0.171769 -0.09637,-0.255648 -0.08519,-0.167758 -0.207795,-0.328639 -0.349776,-0.467567 -0.141978,-0.138929 -0.304319,-0.25442 -0.474695,-0.33638 -0.08519,-0.04098 -0.173583,-0.07272 -0.260546,-0.09418 -0.08696,-0.02146 -0.171791,-0.03185 -0.256978,-0.03027 -0.09521,0.0016 -0.1922,0.01139 -0.2855301,0.03364 -0.093332,0.02224 -0.1835613,0.05583 -0.2712541,0.09755 -0.087694,0.04172 -0.1715425,0.09135 -0.2498395,0.151372 -0.078298,0.06002 -0.1525736,0.131416 -0.2177178,0.208554 -0.09688,0.113348 -0.1483916,0.180522 -0.1784558,0.299378 -0.030067,0.118857 -0.036376,0.287484 -0.046399,0.605483 -0.013357,0.321148 -0.026205,0.49178 -0.057107,0.61221 -0.0309,0.12043 -0.081575,0.18961 -0.1784557,0.306105 -0.091869,0.108623 -0.2009367,0.199738 -0.3176531,0.269103 -0.1167152,0.06937 -0.239382,0.119062 -0.3604824,0.144644 -0.1210999,0.02558 -0.2411822,0.02609 -0.3462064,0.0034 -0.1050234,-0.02273 -0.1956307,-0.06908 -0.2641158,-0.144643 -0.046769,-0.05195 -0.088779,-0.119634 -0.1213509,-0.1951 -0.032572,-0.07547 -0.05635,-0.159151 -0.071383,-0.242193 -0.015038,-0.08304 -0.020127,-0.16415 -0.014278,-0.238829 0.00585,-0.07468 0.023471,-0.14136 0.053538,-0.191736 0.040089,-0.08186 0.2649156,-0.33506 0.4854024,-0.561753 0.1436499,-0.144833 0.2630413,-0.286896 0.3533444,-0.427202 0.090303,-0.140306 0.1519979,-0.279362 0.1891643,-0.417111 0.037166,-0.137746 0.047886,-0.273225 0.032123,-0.410381 -0.015752,-0.137158 -0.056435,-0.275213 -0.1249204,-0.413747 -0.073494,-0.147979 -0.1399744,-0.248436 -0.2427012,-0.339743 -0.1027275,-0.09131 -0.243729,-0.17236 -0.4675566,-0.282559 -0.1352973,-0.06612 -0.2759414,-0.112924 -0.421158,-0.137916 -0.108913,-0.01875 -0.2197881,-0.02435 -0.3283603,-0.02019 z m 0.1320571,4.712674 c 0.4698751,-0.01795 0.9301951,0.28307 1.0279108,0.733307 0.038679,0.182279 -0.038481,0.280548 -0.1391961,0.54157 -0.038097,0.09874 -0.211196,0.208762 -0.3069457,0.285923 -0.1876443,0.151213 -0.5802385,0.161462 -0.8030554,0.161462 -0.4209295,0 -0.762253,-0.567997 -0.635306,-1.052867 0.05345,-0.195208 0.3514028,-0.532852 0.5318011,-0.602119 0.105233,-0.04014 0.2163591,-0.06313 0.3247913,-0.06728 z"
       id="path4462-1" />
    <path
       style="opacity:0.7;fill:#cccccc;fill-opacity:1.0;fill-rule:nonzero;stroke:#ffff00;stroke-width:0;stroke-miterlimit:4;stroke-dasharray:none;stroke-dashoffset:0;stroke-opacity:1.0"
       d="m 102.16475,-22.591734 c 0.0699,0.0027 0.13765,0.0058 0.2068,0.01299 0.27664,0.02888 0.54982,0.09115 0.79965,0.194908 0.24983,0.103757 0.48244,0.245945 0.68246,0.422297 0.12581,0.109462 0.22693,0.215575 0.3102,0.324847 0.0833,0.109269 0.14704,0.220433 0.19303,0.344336 0.092,0.247803 0.11542,0.540281 0.0896,0.935554 -0.0226,0.340542 -0.0438,0.607708 -0.0758,0.825107 -0.032,0.2174 -0.0746,0.387632 -0.14476,0.545741 -0.0702,0.158108 -0.1664,0.29861 -0.30331,0.46128 -0.13691,0.16267 -0.3192,0.347143 -0.55148,0.578225 -0.47747,0.486488 -0.9437,0.997509 -1.03403,1.143456 -0.0774,0.139865 -0.11768,0.272824 -0.13096,0.402808 -0.0134,0.129984 0.002,0.255614 0.0551,0.383317 0.0532,0.127704 0.13976,0.256791 0.26195,0.389815 0.12219,0.133024 0.28209,0.269855 0.47566,0.415802 0.18066,0.133784 0.56489,0.260305 0.93751,0.337839 0.18631,0.03877 0.37006,0.0633 0.52391,0.07147 0.15386,0.0082 0.27693,9.55e-4 0.34467,-0.03248 0.10969,-0.05777 0.21097,-0.153185 0.30332,-0.279367 0.0923,-0.126184 0.17557,-0.28272 0.24817,-0.474274 0.14517,-0.38311 0.25169,-0.893923 0.30331,-1.520277 0.0452,-0.462164 0.0888,-0.789075 0.15165,-1.046002 0.0629,-0.256927 0.13891,-0.440854 0.25506,-0.617206 0.0806,-0.124663 0.2097,-0.264653 0.36535,-0.402808 0.15565,-0.138155 0.34413,-0.275866 0.5377,-0.402809 0.19355,-0.126943 0.39157,-0.246813 0.58594,-0.337839 0.19439,-0.09103 0.37962,-0.151508 0.5377,-0.181913 0.21937,-0.04561 0.46424,-0.04618 0.71003,0 0.24579,0.04618 0.49278,0.139014 0.73071,0.259876 0.23793,0.120862 0.46599,0.269844 0.66178,0.448287 0.19579,0.178442 0.36318,0.385292 0.48254,0.604212 0.071,0.130744 0.12162,0.314171 0.15167,0.52625 0.0301,0.212078 0.0365,0.451924 0.0276,0.695169 -0.009,0.243244 -0.037,0.490419 -0.0827,0.71466 -0.0458,0.22424 -0.10547,0.423156 -0.18612,0.578224 -0.12261,0.225001 -0.27532,0.424749 -0.45497,0.591219 -0.17965,0.16647 -0.38616,0.299845 -0.62731,0.409305 -0.24116,0.109459 -0.51324,0.192914 -0.82033,0.246883 -0.30709,0.05397 -0.64967,0.07796 -1.02713,0.07796 -0.52909,0 -1.1473,0.07162 -1.39249,0.168919 -0.12581,0.05169 -0.25103,0.132566 -0.36536,0.227393 -0.11431,0.09483 -0.22069,0.203983 -0.31021,0.324846 -0.0895,0.120861 -0.16228,0.253524 -0.21371,0.383317 -0.0514,0.129794 -0.0827,0.261696 -0.0827,0.383318 0,0.133784 0.0273,0.222155 0.12408,0.311852 0.0968,0.0897 0.26758,0.177652 0.55148,0.305354 0.37424,0.170271 0.92335,0.340334 1.22016,0.376821 0.1355,0.01825 0.24361,0.02941 0.33778,0.02599 0.0942,-0.0034 0.17976,-0.01785 0.27574,-0.06497 0.19194,-0.09426 0.43115,-0.300313 0.88926,-0.701666 0.25809,-0.231082 0.55505,-0.470025 0.83412,-0.669181 0.27906,-0.199156 0.53493,-0.356239 0.69624,-0.435293 0.26455,-0.121622 0.43036,-0.188137 0.59974,-0.207901 0.16937,-0.01977 0.3434,0.0037 0.62731,0.05847 0.18711,0.03953 0.38117,0.104794 0.56526,0.188411 0.1841,0.08362 0.3618,0.183316 0.52391,0.298858 0.16212,0.115541 0.30621,0.248014 0.4274,0.383318 0.12118,0.135305 0.21444,0.279393 0.27574,0.422299 0.10324,0.231082 0.1629,0.504376 0.17923,0.799119 0.0163,0.294744 -0.009,0.609729 -0.0689,0.916064 -0.0605,0.306336 -0.1554,0.604728 -0.28264,0.870586 -0.12723,0.265858 -0.28487,0.49587 -0.46876,0.6691812 -0.11291,0.1033784 -0.2498,0.1961321 -0.39982,0.2793673 -0.15001,0.083236 -0.312,0.1616028 -0.48944,0.2208941 -0.35488,0.1185802 -0.75851,0.1819125 -1.165,0.1819125 -0.12583,0 -0.27319,-0.02726 -0.43429,-0.08446 -0.16111,-0.0572 -0.33393,-0.1461991 -0.51702,-0.2533795 -0.36617,-0.2143577 -0.76319,-0.5191286 -1.13743,-0.8900756 -0.16132,-0.161149 -0.3218,-0.298706 -0.47565,-0.409305 -0.15385,-0.110601 -0.30415,-0.191049 -0.45497,-0.25338 -0.15082,-0.06233 -0.30274,-0.107098 -0.45497,-0.123441 -0.15225,-0.01635 -0.30379,-0.0079 -0.46187,0.01949 -0.33552,0.05777 -0.61123,0.141605 -0.82033,0.246883 -0.2091,0.105278 -0.34916,0.232394 -0.42739,0.376821 -0.0782,0.144426 -0.0915,0.305559 -0.0345,0.480771 0.0571,0.1752112 0.18234,0.3675946 0.37914,0.5652306 0.1484,0.1489862 0.27501,0.2644026 0.39983,0.3573298 0.12481,0.092928 0.25134,0.1584916 0.38603,0.2079011 0.26939,0.098819 0.58634,0.1234413 1.09607,0.1234413 0.40327,0 0.78147,0.036489 1.12364,0.1039518 0.34218,0.067463 0.65193,0.1688746 0.92373,0.2988576 0.27181,0.1299827 0.50409,0.2867101 0.69625,0.4742743 0.19215,0.1875639 0.34484,0.4029901 0.44808,0.6431937 0.0613,0.1459474 0.0935,0.3459671 0.1034,0.5717279 0.01,0.2257602 -0.007,0.4817847 -0.0414,0.7341507 -0.0347,0.2523659 -0.0862,0.5018925 -0.15856,0.7276535 -0.0724,0.2257628 -0.1656,0.4257813 -0.26884,0.5717279 -0.13228,0.1869955 -0.27714,0.3528061 -0.44119,0.4937648 -0.16406,0.140959 -0.34399,0.2560053 -0.5308,0.3508333 -0.18681,0.094828 -0.3854,0.1657958 -0.58595,0.2143975 -0.20056,0.048602 -0.40136,0.075682 -0.60663,0.077963 -0.20525,0.00229 -0.41256,-0.020841 -0.61352,-0.06497 -0.20095,-0.044134 -0.39833,-0.1107574 -0.58595,-0.2014046 -0.18761,-0.09064 -0.36552,-0.2070766 -0.53079,-0.3443289 -0.16527,-0.1372521 -0.32109,-0.2968182 -0.45497,-0.4807711 -0.11615,-0.1581087 -0.19376,-0.3250284 -0.25506,-0.5652308 -0.0613,-0.2402037 -0.10605,-0.5505219 -0.14477,-1.0005238 -0.0645,-0.7236516 -0.13202,-1.1961846 -0.24816,-1.5397672 -0.0581,-0.1717913 -0.1282,-0.3140506 -0.21371,-0.4352927 -0.0855,-0.1212426 -0.18762,-0.2245064 -0.31021,-0.3248454 -0.1226,-0.097298 -0.26996,-0.1693956 -0.43429,-0.2208941 -0.16433,-0.051498 -0.34771,-0.07914 -0.5308,-0.08446 -0.18308,-0.00531 -0.36574,0.010744 -0.54459,0.051975 -0.17884,0.041238 -0.35159,0.1067313 -0.50322,0.194908 -0.10002,0.054729 -0.19287,0.1329443 -0.27574,0.2273906 -0.0829,0.094446 -0.15322,0.2024641 -0.21369,0.3248457 -0.12099,0.2447637 -0.19303,0.5327981 -0.19303,0.81861 0,0.060812 0.10637,0.2170625 0.27574,0.4222992 0.16938,0.2052386 0.40325,0.4588374 0.65489,0.7081629 0.2968,0.2858119 0.52896,0.5251124 0.71003,0.7341505 0.18108,0.2090379 0.30787,0.39275 0.39982,0.5782249 0.0919,0.1854748 0.1498,0.3696021 0.17923,0.5847216 0.0294,0.215118 0.034,0.455667 0.0276,0.7536413 -0.0129,0.407434 -0.0654,0.757529 -0.16544,1.0460022 -0.10001,0.2884728 -0.24806,0.5207525 -0.44808,0.7016659 -0.20003,0.1809128 -0.45224,0.3050594 -0.76518,0.3898143 -0.31294,0.084756 -0.69178,0.1299379 -1.13053,0.1299379 -0.42586,0 -0.79434,-0.03865 -1.11675,-0.1169448 -0.32242,-0.078292 -0.59853,-0.1992208 -0.82033,-0.3573298 -0.221793,-0.1581077 -0.393008,-0.3582718 -0.517014,-0.5977156 -0.124011,-0.2394439 -0.198464,-0.5158025 -0.22748,-0.8381011 -0.01934,-0.2128395 -0.01474,-0.41691 0.01382,-0.6172062 0.02842,-0.2002952 0.08033,-0.3981429 0.158554,-0.5912184 0.07823,-0.1930757 0.180156,-0.3870497 0.310207,-0.5782248 0.130044,-0.1911762 0.291763,-0.3771327 0.475653,-0.5717278 0.42585,-0.4500019 0.66253,-0.7351642 0.79964,-0.98753 0.0686,-0.1261836 0.11185,-0.2399599 0.13788,-0.3703238 0.026,-0.1303641 0.0381,-0.2780156 0.0414,-0.4482867 0.006,-0.1945965 -0.0115,-0.3656344 -0.0483,-0.5197527 -0.0367,-0.1541166 -0.0901,-0.2914836 -0.17235,-0.4093049 -0.0823,-0.1178223 -0.19374,-0.2131511 -0.32399,-0.2988578 -0.13025,-0.085706 -0.2812,-0.156627 -0.46187,-0.2143976 -0.24841,-0.079055 -0.492097,-0.1159576 -0.71692,-0.1104483 -0.224831,0.00551 -0.434106,0.05358 -0.620415,0.1364344 -0.186304,0.082854 -0.349669,0.1978546 -0.482548,0.3508329 -0.132877,0.1529773 -0.231897,0.3428547 -0.29642,0.5587341 -0.06453,0.2432455 -0.130965,0.7680904 -0.130965,1.1694434 0,0.4500019 -0.03903,0.8027706 -0.130989,1.1174681 -0.09193,0.3146975 -0.23515,0.5912705 -0.448076,0.8770822 -0.193558,0.2675688 -0.405737,0.4671144 -0.668672,0.6237032 -0.262933,0.1565896 -0.578393,0.2652819 -0.971985,0.3443362 -0.193558,0.042569 -0.379927,0.06687 -0.558375,0.06497 -0.178452,-0.00187 -0.348444,-0.030835 -0.517014,-0.077963 -0.168572,-0.047128 -0.332402,-0.1147835 -0.496333,-0.2079011 -0.16392,-0.093118 -0.324904,-0.2109673 -0.489436,-0.350833 -0.191946,-0.1626697 -0.360433,-0.3351697 -0.496334,-0.5132556 -0.135893,-0.1780859 -0.243342,-0.3578914 -0.323996,-0.5457403 -0.08065,-0.1878481 -0.132347,-0.3797694 -0.158554,-0.5717278 -0.02621,-0.1919589 -0.02743,-0.3878103 0,-0.5782249 0.02743,-0.1904158 0.08518,-0.3755167 0.16544,-0.558734 0.08026,-0.1832163 0.18483,-0.3623804 0.317101,-0.5327465 0.132278,-0.1703653 0.292161,-0.3354066 0.475651,-0.4872678 0.183495,-0.1518605 0.393413,-0.2880992 0.627311,-0.4158024 0.361328,-0.2006766 0.65626,-0.3201545 0.978877,-0.3703238 0.322616,-0.05017 0.672861,-0.033991 1.137428,0.038982 0.238737,0.036486 0.436855,0.054445 0.606631,0.051975 0.169769,-0.00247 0.306416,-0.022062 0.427396,-0.071467 0.120994,-0.04941 0.224762,-0.129559 0.317104,-0.2338897 0.09235,-0.1043282 0.178083,-0.2355773 0.261952,-0.4028083 0.116135,-0.2280413 0.170966,-0.4436574 0.179234,-0.6431942 0.0083,-0.199537 -0.03132,-0.386111 -0.12408,-0.54574 -0.09276,-0.159629 -0.233587,-0.294489 -0.420504,-0.402808 -0.186926,-0.10832 -0.422021,-0.18828 -0.696245,-0.23389 -0.17099,-0.02736 -0.322776,-0.03298 -0.468761,-0.01949 -0.14598,0.01349 -0.285888,0.04432 -0.434291,0.110448 -0.296806,0.132264 -0.625049,0.385604 -1.096069,0.799119 -0.580709,0.5047323 -0.930235,0.7889198 -1.227043,0.948549 -0.148399,0.079815 -0.28222,0.1276095 -0.427399,0.1559264 -0.145174,0.028315 -0.302319,0.038982 -0.489438,0.038982 -0.232284,-0.00304 -0.456148,-0.032163 -0.668668,-0.077963 -0.212534,-0.045797 -0.414233,-0.1090124 -0.599736,-0.194908 -0.185498,-0.085896 -0.351999,-0.1885187 -0.503228,-0.3118514 -0.151231,-0.1233317 -0.283242,-0.270687 -0.392931,-0.428796 -0.161318,-0.237162 -0.253307,-0.388333 -0.303312,-0.604212 -0.05002,-0.215878 -0.06204,-0.494129 -0.06204,-0.974536 0,-0.504732 0.0088,-0.77538 0.06204,-0.974536 0.05322,-0.199156 0.150655,-0.326821 0.337781,-0.545741 0.125807,-0.148986 0.294421,-0.30272 0.482544,-0.448286 0.188123,-0.145566 0.396123,-0.282707 0.60663,-0.402809 0.210508,-0.1201 0.427452,-0.219767 0.620416,-0.29236 0.192959,-0.07259 0.360836,-0.1204 0.496333,-0.123442 0.161318,0 0.303266,0.01603 0.441184,0.04548 0.13792,0.02946 0.275329,0.07418 0.420504,0.14943 0.290355,0.150507 0.627255,0.41284 1.130536,0.844598 0.445211,0.377029 0.733262,0.595117 1.047814,0.747145 0.314552,0.152027 0.651465,0.234877 1.206366,0.344336 0.112911,0.02129 0.224555,0.02656 0.323994,0.01299 0.09944,-0.01356 0.185682,-0.0481 0.268847,-0.09096 0.166338,-0.08571 0.301349,-0.220304 0.386036,-0.389815 0.08468,-0.16951 0.12256,-0.369377 0.1034,-0.578225 -0.01911,-0.208848 -0.0961,-0.426483 -0.241272,-0.6302 -0.109687,-0.158107 -0.21129,-0.283929 -0.323994,-0.383317 -0.112727,-0.09939 -0.239324,-0.17688 -0.399826,-0.23389 -0.160512,-0.05701 -0.353575,-0.09247 -0.606628,-0.123441 -0.25307,-0.03096 -0.560953,-0.05667 -0.951321,-0.07795 -0.683947,-0.03041 -1.058568,-0.05116 -1.31666,-0.110447 -0.258095,-0.05929 -0.40192,-0.154575 -0.634203,-0.324846 -0.154856,-0.115541 -0.297949,-0.256707 -0.427399,-0.409305 -0.12945,-0.152598 -0.24261,-0.314716 -0.337781,-0.487268 -0.09517,-0.172551 -0.175465,-0.350848 -0.227485,-0.526249 -0.05202,-0.175402 -0.07583,-0.352107 -0.07583,-0.513256 0,-0.16267 0.02437,-0.328031 0.06895,-0.493765 0.04456,-0.165734 0.10386,-0.331761 0.186119,-0.493765 0.164542,-0.324009 0.401342,-0.634741 0.675563,-0.90307 0.274224,-0.268329 0.587768,-0.491392 0.916835,-0.649691 0.164542,-0.07915 0.335267,-0.140462 0.503228,-0.181913 0.167973,-0.04145 0.331799,-0.06151 0.496334,-0.05847 0.183886,0.003 0.371219,0.02202 0.551478,0.06497 0.18027,0.04295 0.354535,0.107835 0.523908,0.18841 0.169378,0.08057 0.33132,0.17644 0.482546,0.292361 0.151231,0.115921 0.294683,0.253821 0.420504,0.402808 0.18711,0.21892 0.286606,0.348663 0.344676,0.578225 0.05808,0.229561 0.07026,0.555251 0.08961,1.169443 0.02582,0.620273 0.05062,0.949835 0.110285,1.182437 0.05969,0.232602 0.157564,0.366218 0.344674,0.591219 0.177438,0.209798 0.388095,0.385778 0.613525,0.519752 0.225431,0.133974 0.462348,0.229959 0.696246,0.279368 0.233893,0.04941 0.465825,0.05039 0.668665,0.0065 0.20284,-0.0439 0.37785,-0.13342 0.51012,-0.279367 0.0903,-0.100339 0.17147,-0.231065 0.23438,-0.376821 0.0629,-0.145756 0.10884,-0.307388 0.13787,-0.467777 0.029,-0.160389 0.0389,-0.317044 0.0276,-0.461281 -0.0113,-0.144235 -0.0453,-0.273026 -0.1034,-0.370323 -0.0774,-0.158109 -0.51166,-0.647144 -0.93752,-1.084984 -0.277445,-0.279731 -0.508038,-0.554118 -0.682452,-0.825107 -0.174421,-0.270989 -0.293575,-0.539568 -0.365356,-0.805617 -0.07178,-0.266048 -0.09248,-0.527714 -0.06204,-0.792622 0.03044,-0.264909 0.108996,-0.531552 0.241274,-0.79912 0.14195,-0.285812 0.270348,-0.479834 0.468756,-0.656186 0.198418,-0.176354 0.470748,-0.332902 0.903048,-0.545741 0.26132,-0.127704 0.53296,-0.218104 0.81343,-0.266374 0.21037,-0.0362 0.42451,-0.04705 0.63421,-0.03898 z m -0.25506,9.102167 c -0.90753,-0.03466 -1.7966,0.546728 -1.985329,1.416326 -0.07471,0.352058 0.07431,0.541856 0.268849,1.046002 0.0736,0.1907 0.4079,0.403207 0.59284,0.552237 0.36242,0.292057 1.12068,0.311852 1.55104,0.311852 0.81299,0 1.47223,-1.097042 1.22704,-2.033532 -0.10323,-0.377029 -0.6787,-1.029163 -1.02713,-1.162947 -0.20325,-0.07753 -0.41788,-0.121938 -0.62731,-0.129938 z"
       id="path4462-18" />
    <path
       style="opacity:0.7;fill:#cccccc;fill-opacity:1.0;fill-rule:nonzero;stroke:#ffff00;stroke-width:0;stroke-miterlimit:4;stroke-dasharray:none;stroke-dashoffset:0;stroke-opacity:1.0"
       d="m 121.16904,-22.998687 c 0.0362,0.0014 0.0713,0.003 0.10708,0.0067 0.14324,0.01496 0.28468,0.04719 0.41403,0.100913 0.12935,0.05372 0.24978,0.12734 0.35334,0.218648 0.0651,0.05667 0.11749,0.111615 0.1606,0.168189 0.0431,0.05658 0.0761,0.11413 0.1,0.178283 0.0476,0.128302 0.0598,0.279733 0.0464,0.484385 -0.0117,0.176319 -0.0226,0.314643 -0.0393,0.427202 -0.0166,0.11256 -0.0386,0.200696 -0.075,0.282559 -0.0363,0.08186 -0.0862,0.154605 -0.15704,0.23883 -0.0709,0.08422 -0.16525,0.179734 -0.28553,0.299378 -0.24721,0.251881 -0.4886,0.516463 -0.53537,0.592027 -0.0401,0.07242 -0.0609,0.141256 -0.0678,0.208555 -0.007,0.0673 0.001,0.132346 0.0286,0.198464 0.0276,0.06612 0.0724,0.132954 0.13561,0.201828 0.0633,0.06887 0.14605,0.139718 0.24628,0.215282 0.0935,0.06927 0.29247,0.134774 0.4854,0.174918 0.0965,0.02007 0.1916,0.03277 0.27125,0.037 0.0797,0.0042 0.14338,4.87e-4 0.17845,-0.01682 0.0568,-0.02991 0.10923,-0.07931 0.15704,-0.144643 0.0478,-0.06533 0.0909,-0.146379 0.1285,-0.245556 0.0752,-0.198357 0.13032,-0.462831 0.15703,-0.787128 0.0234,-0.239287 0.046,-0.408547 0.0785,-0.541571 0.0326,-0.133024 0.0719,-0.228253 0.13205,-0.31956 0.0417,-0.06455 0.10856,-0.137025 0.18916,-0.208554 0.0806,-0.07153 0.17818,-0.142831 0.2784,-0.208557 0.10022,-0.06573 0.20274,-0.127786 0.30337,-0.174915 0.10064,-0.04713 0.19655,-0.07844 0.27839,-0.09419 0.11358,-0.02361 0.24037,-0.02391 0.36762,0 0.12726,0.02391 0.25514,0.07197 0.37833,0.134552 0.12318,0.06258 0.24127,0.13971 0.34264,0.232103 0.10137,0.09239 0.18803,0.199485 0.24984,0.312832 0.0367,0.06769 0.063,0.162664 0.0785,0.272468 0.0157,0.109803 0.0189,0.233985 0.0143,0.359925 -0.005,0.125941 -0.0191,0.253916 -0.0428,0.370018 -0.0237,0.116101 -0.0546,0.21909 -0.0964,0.299377 -0.0635,0.116495 -0.14255,0.219915 -0.23557,0.306105 -0.093,0.08619 -0.19993,0.155246 -0.32479,0.211919 -0.12486,0.05667 -0.26573,0.09988 -0.42473,0.127824 -0.15899,0.02794 -0.33637,0.04037 -0.5318,0.04037 -0.27393,0 -0.59401,0.03708 -0.72096,0.08746 -0.0652,0.02676 -0.12998,0.06864 -0.18916,0.117733 -0.0592,0.0491 -0.11425,0.105613 -0.1606,0.16819 -0.0464,0.06258 -0.084,0.131262 -0.11063,0.198463 -0.0266,0.0672 -0.0428,0.135494 -0.0428,0.198464 0,0.06927 0.014,0.115021 0.0643,0.161462 0.0501,0.04644 0.13854,0.09198 0.28553,0.158098 0.19377,0.08816 0.47807,0.176209 0.63174,0.1951 0.0701,0.0094 0.12613,0.01523 0.17488,0.01346 0.0487,-0.0018 0.0931,-0.0092 0.14276,-0.03364 0.0994,-0.0488 0.22322,-0.155488 0.46042,-0.36329 0.13363,-0.119643 0.28738,-0.243357 0.43186,-0.34647 0.14449,-0.103114 0.27697,-0.184444 0.36049,-0.225374 0.13697,-0.06297 0.22282,-0.09741 0.31051,-0.107642 0.0877,-0.01023 0.1778,0.0019 0.32479,0.03027 0.0969,0.02047 0.19736,0.05426 0.29267,0.09755 0.0953,0.04329 0.18732,0.09491 0.27125,0.154735 0.0839,0.05982 0.15854,0.128409 0.22129,0.198464 0.0627,0.07005 0.11102,0.144656 0.14276,0.218646 0.0534,0.119644 0.0843,0.261142 0.0928,0.413747 0.009,0.152604 -0.004,0.315688 -0.0357,0.474294 -0.0313,0.158606 -0.0805,0.3131 -0.14633,0.450749 -0.0659,0.137648 -0.1475,0.256738 -0.2427,0.34647 -0.0585,0.05353 -0.12933,0.101548 -0.20701,0.144643 -0.0777,0.0431 -0.16155,0.08367 -0.25341,0.114369 -0.18374,0.0614 -0.39271,0.09419 -0.60318,0.09419 -0.0652,0 -0.14144,-0.01411 -0.22486,-0.04373 -0.0834,-0.02961 -0.1729,-0.07569 -0.26768,-0.131188 -0.18958,-0.110985 -0.39515,-0.26878 -0.58891,-0.460839 -0.0835,-0.08344 -0.16661,-0.154656 -0.24627,-0.211919 -0.0796,-0.05726 -0.15747,-0.09892 -0.23556,-0.131188 -0.0781,-0.03227 -0.15674,-0.05545 -0.23556,-0.06391 -0.0788,-0.0085 -0.15729,-0.0041 -0.23914,0.01009 -0.1737,0.02991 -0.31646,0.07332 -0.42472,0.127824 -0.10826,0.05451 -0.18078,0.120323 -0.22129,0.1951 -0.0405,0.07478 -0.0474,0.158204 -0.018,0.248921 0.0296,0.09072 0.0944,0.190323 0.1963,0.292649 0.0768,0.07714 0.14239,0.136896 0.20701,0.185009 0.0646,0.04811 0.13013,0.08206 0.19986,0.107641 0.13947,0.05116 0.30358,0.06391 0.5675,0.06391 0.2088,0 0.4046,0.01889 0.58176,0.05382 0.17717,0.03493 0.33754,0.08744 0.47827,0.154735 0.14073,0.0673 0.26099,0.148445 0.36048,0.245556 0.0995,0.09711 0.17854,0.208649 0.23199,0.333016 0.0317,0.07556 0.0484,0.179125 0.0536,0.296014 0.005,0.116887 -0.003,0.249445 -0.0214,0.380108 -0.018,0.130663 -0.0446,0.259857 -0.0821,0.376745 -0.0375,0.11689 -0.0857,0.22045 -0.13919,0.296014 -0.0685,0.09682 -0.14349,0.182665 -0.22842,0.255648 -0.0849,0.07298 -0.17811,0.132548 -0.27482,0.181645 -0.0967,0.0491 -0.19955,0.08584 -0.30338,0.111005 -0.10384,0.02516 -0.20781,0.03918 -0.31408,0.04036 -0.10628,0.0012 -0.21362,-0.01079 -0.31766,-0.03364 -0.10404,-0.02286 -0.20622,-0.05734 -0.30337,-0.104278 -0.0971,-0.04693 -0.18926,-0.107218 -0.27483,-0.178281 -0.0856,-0.07106 -0.16624,-0.153677 -0.23556,-0.248919 -0.0601,-0.08186 -0.10031,-0.168284 -0.13205,-0.29265 -0.0317,-0.124366 -0.0549,-0.285034 -0.075,-0.518024 -0.0334,-0.374673 -0.0683,-0.619328 -0.12847,-0.797219 -0.0301,-0.08894 -0.0664,-0.162601 -0.11066,-0.225374 -0.0443,-0.06277 -0.0971,-0.116239 -0.1606,-0.168189 -0.0635,-0.05038 -0.13977,-0.0877 -0.22486,-0.114369 -0.0851,-0.02666 -0.18004,-0.04097 -0.27482,-0.04373 -0.0948,-0.0028 -0.18937,0.0056 -0.28196,0.02691 -0.0926,0.02135 -0.18205,0.05526 -0.26055,0.100914 -0.0518,0.02834 -0.0999,0.06883 -0.14275,0.117733 -0.0429,0.0489 -0.0793,0.104825 -0.11066,0.168189 -0.0626,0.126728 -0.0999,0.275858 -0.0999,0.423838 0,0.03148 0.0551,0.112385 0.14275,0.218646 0.0877,0.106262 0.20879,0.237564 0.33907,0.366653 0.15368,0.147979 0.27387,0.271878 0.36762,0.380108 0.0937,0.10823 0.15941,0.203347 0.20701,0.299378 0.0476,0.09603 0.0776,0.191363 0.0928,0.302741 0.0152,0.111378 0.0177,0.235924 0.0143,0.3902 -0.007,0.21095 -0.0339,0.392213 -0.0857,0.541571 -0.0518,0.149357 -0.12843,0.269621 -0.23199,0.363289 -0.10356,0.09367 -0.23415,0.157946 -0.39618,0.201829 -0.16203,0.04388 -0.35817,0.06728 -0.58534,0.06728 -0.22048,0 -0.41127,-0.02002 -0.5782,-0.06055 -0.16693,-0.04054 -0.30989,-0.103147 -0.42472,-0.185009 -0.11485,-0.08186 -0.20349,-0.185495 -0.26769,-0.309469 -0.0642,-0.123972 -0.10275,-0.267058 -0.11777,-0.433929 -0.01,-0.110199 -0.008,-0.215856 0.007,-0.31956 0.0147,-0.103705 0.0416,-0.206139 0.0821,-0.306105 0.0405,-0.09997 0.0933,-0.200395 0.1606,-0.299378 0.0673,-0.09898 0.15107,-0.195262 0.24627,-0.296013 0.22048,-0.23299 0.34303,-0.380634 0.41402,-0.511297 0.0355,-0.06533 0.0579,-0.124239 0.0714,-0.191737 0.0134,-0.0675 0.0198,-0.143943 0.0214,-0.232102 0.003,-0.100754 -0.006,-0.189309 -0.025,-0.269104 -0.0191,-0.0798 -0.0466,-0.150916 -0.0892,-0.211919 -0.0426,-0.061 -0.10031,-0.11036 -0.16774,-0.154734 -0.0675,-0.04437 -0.14559,-0.08109 -0.23913,-0.111005 -0.12862,-0.04093 -0.25479,-0.06004 -0.37119,-0.05718 -0.11641,0.0029 -0.22476,0.02774 -0.32122,0.07064 -0.0965,0.0429 -0.18106,0.10244 -0.24984,0.181645 -0.0688,0.0792 -0.12007,0.177514 -0.15347,0.289286 -0.0334,0.125939 -0.0678,0.397681 -0.0678,0.605483 0,0.232989 -0.0203,0.415637 -0.0678,0.578572 -0.0476,0.162937 -0.12175,0.306132 -0.23199,0.454112 -0.10022,0.138533 -0.21007,0.24185 -0.34621,0.322924 -0.13612,0.08108 -0.29946,0.137349 -0.50325,0.17828 -0.10022,0.02204 -0.19671,0.03462 -0.2891,0.03364 -0.0924,-9.74e-4 -0.1804,-0.01595 -0.26768,-0.04037 -0.0873,-0.0244 -0.17209,-0.05943 -0.25698,-0.107641 -0.0849,-0.04821 -0.16822,-0.109229 -0.2534,-0.181646 -0.0994,-0.08422 -0.18661,-0.173534 -0.25698,-0.265739 -0.0704,-0.09221 -0.126,-0.185298 -0.16775,-0.282559 -0.0418,-0.09726 -0.0685,-0.196626 -0.0821,-0.296014 -0.0136,-0.09939 -0.0143,-0.200788 0,-0.299377 0.0143,-0.09859 0.0441,-0.194425 0.0857,-0.289286 0.0416,-0.09486 0.0957,-0.187624 0.16418,-0.275831 0.0685,-0.08821 0.15127,-0.173659 0.24627,-0.252285 0.095,-0.07863 0.20369,-0.149164 0.32479,-0.215282 0.18708,-0.103901 0.33978,-0.165761 0.50682,-0.191737 0.16702,-0.02598 0.34837,-0.0176 0.5889,0.02018 0.1236,0.01889 0.22619,0.02819 0.31409,0.02691 0.0879,-0.0013 0.15864,-0.01142 0.22128,-0.037 0.0626,-0.02558 0.11637,-0.06708 0.16418,-0.121097 0.0478,-0.05402 0.0922,-0.121971 0.13561,-0.208555 0.0601,-0.118069 0.0885,-0.229705 0.0928,-0.333016 0.004,-0.10331 -0.0161,-0.19991 -0.0643,-0.282558 -0.048,-0.08265 -0.12095,-0.152472 -0.21772,-0.208555 -0.0968,-0.05608 -0.21849,-0.09748 -0.36048,-0.121097 -0.0885,-0.01417 -0.16712,-0.01708 -0.2427,-0.01009 -0.0756,0.007 -0.14803,0.02294 -0.22485,0.05718 -0.15368,0.06848 -0.32362,0.199648 -0.5675,0.413746 -0.30066,0.261327 -0.48163,0.408466 -0.6353,0.491114 -0.0768,0.04132 -0.14612,0.06607 -0.22129,0.08073 -0.0752,0.01466 -0.15652,0.02018 -0.25341,0.02018 -0.12025,-0.0016 -0.23617,-0.01665 -0.3462,-0.04037 -0.11003,-0.02371 -0.21447,-0.05644 -0.31052,-0.100914 -0.0961,-0.04447 -0.18225,-0.09761 -0.26054,-0.161462 -0.0783,-0.06386 -0.14665,-0.140149 -0.20344,-0.22201 -0.0835,-0.122792 -0.13115,-0.201061 -0.15703,-0.312833 -0.0259,-0.111772 -0.0321,-0.255837 -0.0321,-0.504569 0,-0.261326 0.005,-0.401455 0.0321,-0.504569 0.0276,-0.103114 0.078,-0.169212 0.17488,-0.282558 0.0652,-0.07714 0.15243,-0.156735 0.24984,-0.232102 0.0974,-0.07537 0.20509,-0.146372 0.31408,-0.208555 0.109,-0.06218 0.22131,-0.113785 0.32122,-0.151371 0.0999,-0.03758 0.18684,-0.06234 0.25698,-0.06391 0.0835,0 0.15701,0.0083 0.22843,0.02355 0.0714,0.01525 0.14254,0.0384 0.21771,0.07737 0.15033,0.07793 0.32476,0.213749 0.58534,0.437293 0.23051,0.195207 0.37965,0.308123 0.54251,0.386836 0.16286,0.07871 0.3373,0.121608 0.6246,0.178281 0.0585,0.01102 0.11627,0.01375 0.16774,0.0067 0.0515,-0.007 0.0961,-0.02491 0.13919,-0.04709 0.0861,-0.04437 0.15602,-0.114063 0.19986,-0.201828 0.0438,-0.08776 0.0634,-0.191245 0.0536,-0.299377 -0.01,-0.108132 -0.0498,-0.220813 -0.12493,-0.326288 -0.0568,-0.08186 -0.10939,-0.147005 -0.16775,-0.198463 -0.0584,-0.05146 -0.12392,-0.09158 -0.207,-0.121097 -0.0831,-0.02952 -0.18306,-0.04787 -0.31409,-0.06391 -0.13101,-0.01604 -0.29043,-0.02934 -0.49254,-0.04036 -0.35411,-0.01574 -0.54808,-0.02649 -0.6817,-0.05719 -0.13364,-0.0307 -0.20809,-0.08003 -0.32836,-0.168189 -0.0802,-0.05982 -0.15428,-0.132911 -0.22129,-0.211919 -0.067,-0.07901 -0.12562,-0.162946 -0.17488,-0.252285 -0.0493,-0.08934 -0.0909,-0.181652 -0.11777,-0.272467 -0.0269,-0.09081 -0.0393,-0.182304 -0.0393,-0.265739 0,-0.08422 0.0127,-0.16984 0.0357,-0.255648 0.0231,-0.08581 0.0538,-0.171769 0.0964,-0.255648 0.0852,-0.167758 0.20779,-0.328639 0.34977,-0.467567 0.14197,-0.13893 0.30432,-0.25442 0.4747,-0.33638 0.0852,-0.04098 0.17359,-0.07272 0.26054,-0.09418 0.087,-0.02146 0.1718,-0.03185 0.25698,-0.03027 0.0952,0.0016 0.1922,0.01139 0.28553,0.03364 0.0933,0.02224 0.18356,0.05583 0.27125,0.09755 0.0877,0.04172 0.17155,0.09135 0.24985,0.151372 0.0783,0.06002 0.15256,0.131416 0.21771,0.208554 0.0969,0.113348 0.1484,0.180521 0.17845,0.299378 0.0301,0.118856 0.0364,0.287484 0.0464,0.605482 0.0133,0.321148 0.0262,0.49178 0.0571,0.61221 0.0309,0.120431 0.0816,0.189611 0.17845,0.306106 0.0919,0.108623 0.20093,0.199737 0.31765,0.269103 0.11671,0.06937 0.23938,0.119061 0.36048,0.144643 0.12111,0.02558 0.24119,0.02609 0.34621,0.0034 0.10503,-0.02273 0.19563,-0.06908 0.26412,-0.144643 0.0468,-0.05195 0.0888,-0.119634 0.12134,-0.1951 0.0326,-0.07547 0.0563,-0.159151 0.0714,-0.242193 0.015,-0.08304 0.02,-0.16415 0.0143,-0.238829 -0.006,-0.07468 -0.0235,-0.14136 -0.0535,-0.191736 -0.0401,-0.08186 -0.26491,-0.335061 -0.4854,-0.561754 -0.14365,-0.144833 -0.26304,-0.286895 -0.35334,-0.427201 -0.0903,-0.140306 -0.15199,-0.279363 -0.18916,-0.417112 -0.0372,-0.137745 -0.0479,-0.273224 -0.0321,-0.410381 0.0157,-0.137157 0.0564,-0.275213 0.12493,-0.413747 0.0735,-0.147979 0.13997,-0.248435 0.2427,-0.339743 0.10273,-0.0913 0.24373,-0.172359 0.46756,-0.282559 0.1353,-0.06612 0.27594,-0.112923 0.42116,-0.137915 0.1089,-0.01875 0.21979,-0.02436 0.32836,-0.02019 z m -0.13207,4.712674 c -0.46988,-0.01795 -0.93019,0.28307 -1.02791,0.733307 -0.0387,0.182279 0.0385,0.280548 0.13919,0.54157 0.0381,0.09874 0.21119,0.208762 0.30694,0.285923 0.18764,0.151213 0.58024,0.161462 0.80306,0.161462 0.42093,0 0.76225,-0.567997 0.6353,-1.052867 -0.0534,-0.195208 -0.3514,-0.532852 -0.5318,-0.602119 -0.10524,-0.04014 -0.21636,-0.06313 -0.32479,-0.06728 z"
       id="path4462-1-3" />
  </g>
</svg>
