<?xml version="1.0" encoding="UTF-8" standalone="no"?>
<!-- Created with Inkscape (http://www.inkscape.org/) -->

<svg
   width="52.187881mm"
   height="52.187881mm"
   viewBox="0 0 197.24555 197.24552"
   version="1.1"
   id="svg783"
   inkscape:version="1.1.1 (3bf5ae0d25, 2021-09-20)"
   sodipodi:docname="rt-logo.svg"
   inkscape:export-filename="C:\msys64\home\Roel\RawTherapee\rtdata\images\png\rawtherapee-logo-256.png"
   inkscape:export-xdpi="124.59598"
   inkscape:export-ydpi="124.59598"
   style="enable-background:new"
   xmlns:inkscape="http://www.inkscape.org/namespaces/inkscape"
   xmlns:sodipodi="http://sodipodi.sourceforge.net/DTD/sodipodi-0.dtd"
   xmlns:xlink="http://www.w3.org/1999/xlink"
   xmlns="http://www.w3.org/2000/svg"
   xmlns:svg="http://www.w3.org/2000/svg"
   xmlns:rdf="http://www.w3.org/1999/02/22-rdf-syntax-ns#"
   xmlns:cc="http://creativecommons.org/ns#"
   xmlns:dc="http://purl.org/dc/elements/1.1/">
  <title
     id="title89">RawTherapee Logo</title>
  <defs
     id="defs777">
    <linearGradient
       id="linearGradient3962-8">
      <stop
         id="stop3964-8"
         offset="0"
         style="stop-color:#38c102;stop-opacity:1" />
      <stop
         id="stop3966-8"
         offset="1"
         style="stop-color:#bced02;stop-opacity:1;" />
    </linearGradient>
    <linearGradient
       id="linearGradient3954-7">
      <stop
         id="stop3956-7"
         offset="0"
         style="stop-color:#009a01;stop-opacity:1" />
      <stop
         id="stop3958-6"
         offset="1"
         style="stop-color:#01d901;stop-opacity:1;" />
    </linearGradient>
    <linearGradient
       id="linearGradient4002-3"
       inkscape:collect="always">
      <stop
         id="stop4004-0"
         offset="0"
         style="stop-color:#5a1898;stop-opacity:1" />
      <stop
         id="stop4006-3"
         offset="1"
         style="stop-color:#971ec6;stop-opacity:1" />
    </linearGradient>
    <linearGradient
       id="linearGradient4024-9">
      <stop
         id="stop4026-2"
         offset="0"
         style="stop-color:#053980;stop-opacity:1" />
      <stop
         id="stop4028-5"
         offset="1"
         style="stop-color:#0293e4;stop-opacity:1;" />
    </linearGradient>
    <linearGradient
       id="linearGradient4018-0"
       inkscape:collect="always">
      <stop
         id="stop4020-5"
         offset="0"
         style="stop-color:#151b92;stop-opacity:1" />
      <stop
         id="stop4022-9"
         offset="1"
         style="stop-color:#1526c3;stop-opacity:1" />
    </linearGradient>
    <linearGradient
       id="linearGradient3978-6">
      <stop
         style="stop-color:#f18e01;stop-opacity:1;"
         offset="0"
         id="stop4040-9" />
      <stop
         id="stop3982-2"
         offset="1"
         style="stop-color:#ffd02b;stop-opacity:1;" />
    </linearGradient>
    <linearGradient
       id="linearGradient3994-4"
       inkscape:collect="always">
      <stop
         id="stop3996-7"
         offset="0"
         style="stop-color:#d91566;stop-opacity:1" />
      <stop
         id="stop3998-7"
         offset="1"
         style="stop-color:#fc12aa;stop-opacity:1" />
    </linearGradient>
    <linearGradient
       id="linearGradient3970-4">
      <stop
         id="stop3972-8"
         offset="0"
         style="stop-color:#f8bc00;stop-opacity:1;" />
      <stop
         id="stop3974-1"
         offset="1"
         style="stop-color:#ffe309;stop-opacity:1;" />
    </linearGradient>
    <linearGradient
       id="linearGradient3946-8">
      <stop
         id="stop3948-9"
         offset="0"
         style="stop-color:#0193be;stop-opacity:1;" />
      <stop
         id="stop3950-3"
         offset="1"
         style="stop-color:#01d4ed;stop-opacity:1;" />
    </linearGradient>
    <linearGradient
       id="linearGradient3986-8">
      <stop
         id="stop3988-0"
         offset="0"
         style="stop-color:#fd4c0b;stop-opacity:1" />
      <stop
         id="stop3990-2"
         offset="1"
         style="stop-color:#feab27;stop-opacity:1;" />
    </linearGradient>
    <filter
       id="filter4905-0"
       x="0"
       y="0"
       width="1"
       height="1"
       inkscape:label="ring inset lightness-contrast"
       inkscape:menu="Color"
       inkscape:menu-tooltip="Increase or decrease lightness and contrast"
       style="color-interpolation-filters:sRGB">
      <feFlood
         id="feFlood4907-7"
         result="result1"
         flood-opacity="0"
         flood-color="rgb(255,255,255)" />
      <feBlend
         id="feBlend4909-8"
         in2="SourceGraphic"
         mode="normal"
         result="result2" />
      <feComposite
         id="feComposite4911-6"
         in2="SourceGraphic"
         k2="1.2"
         operator="arithmetic"
         result="result3"
         k1="0"
         k4="0.2"
         k3="0" />
      <feComposite
         id="feComposite4913-88"
         in2="SourceGraphic"
         operator="in" />
    </filter>
    <linearGradient
       inkscape:collect="always"
       xlink:href="#linearGradient3986-8"
       id="linearGradient7477"
       x1="226.75093"
       y1="39.7075"
       x2="188.64473"
       y2="77.343597"
       gradientUnits="userSpaceOnUse"
       gradientTransform="rotate(-15,802.43241,-1.9489591)" />
    <linearGradient
       inkscape:collect="always"
       xlink:href="#linearGradient3978-6"
       id="linearGradient7759"
       x1="249.71877"
       y1="79.683319"
       x2="197.60223"
       y2="93.622879"
       gradientUnits="userSpaceOnUse"
       gradientTransform="rotate(-15,802.43241,-1.9489591)" />
    <linearGradient
       inkscape:collect="always"
       xlink:href="#linearGradient3970-4"
       id="linearGradient7767"
       x1="249.90581"
       y1="125.98007"
       x2="197.72298"
       y2="111.61357"
       gradientUnits="userSpaceOnUse"
       gradientTransform="rotate(-15,802.43241,-1.9489591)" />
    <linearGradient
       inkscape:collect="always"
       xlink:href="#linearGradient3962-8"
       id="linearGradient10819"
       x1="186.45189"
       y1="188.78058"
       x2="172.53987"
       y2="136.40414"
       gradientUnits="userSpaceOnUse"
       gradientTransform="rotate(-15,802.43241,-1.9489591)" />
    <linearGradient
       inkscape:collect="always"
       xlink:href="#linearGradient3954-7"
       id="linearGradient10827"
       x1="140.57898"
       y1="188.96413"
       x2="154.49196"
       y2="135.54562"
       gradientUnits="userSpaceOnUse"
       gradientTransform="rotate(-15,802.43241,-1.9489591)" />
    <linearGradient
       inkscape:collect="always"
       xlink:href="#linearGradient3946-8"
       id="linearGradient10835"
       x1="99.718773"
       y1="165.33376"
       x2="138.70259"
       y2="126.9732"
       gradientUnits="userSpaceOnUse"
       gradientTransform="rotate(-15,802.43241,-1.9489591)" />
    <linearGradient
       inkscape:collect="always"
       xlink:href="#linearGradient4024-9"
       id="linearGradient10843"
       x1="76.875038"
       y1="125.39568"
       x2="129.98044"
       y2="111.2607"
       gradientUnits="userSpaceOnUse"
       gradientTransform="rotate(-15,802.43241,-1.9489591)" />
    <linearGradient
       inkscape:collect="always"
       xlink:href="#linearGradient4018-0"
       id="linearGradient10851"
       x1="77.518173"
       y1="79.568878"
       x2="130.19432"
       y2="93.55809"
       gradientUnits="userSpaceOnUse"
       gradientTransform="rotate(-15,802.43241,-1.9489591)" />
    <linearGradient
       inkscape:collect="always"
       xlink:href="#linearGradient4002-3"
       id="linearGradient10859"
       x1="100.42588"
       y1="39.737522"
       x2="138.96776"
       y2="78.363228"
       gradientUnits="userSpaceOnUse"
       gradientTransform="rotate(-15,802.43241,-1.9489591)" />
    <linearGradient
       inkscape:collect="always"
       xlink:href="#linearGradient3994-4"
       id="linearGradient10867"
       x1="140.49059"
       y1="16.437004"
       x2="154.79814"
       y2="69.879189"
       gradientUnits="userSpaceOnUse"
       gradientTransform="rotate(-15,802.43241,-1.9489591)" />
    <linearGradient
       inkscape:collect="always"
       xlink:href="#linearGradient3986-8"
       id="linearGradient19153"
       x1="208.75566"
       y1="23.213453"
       x2="243.28401"
       y2="57.596519"
       gradientUnits="userSpaceOnUse"
       gradientTransform="rotate(-15,802.43241,-1.9489591)" />
    <linearGradient
       inkscape:collect="always"
       xlink:href="#linearGradient3978-6"
       id="linearGradient19161"
       x1="240.19098"
       y1="48.687042"
       x2="256.26306"
       y2="106.95491"
       gradientUnits="userSpaceOnUse"
       gradientTransform="rotate(-15,802.43241,-1.9489591)" />
    <linearGradient
       inkscape:collect="always"
       xlink:href="#linearGradient3970-4"
       id="linearGradient19169"
       x1="254.64981"
       y1="101.84784"
       x2="242.17578"
       y2="148.77542"
       gradientUnits="userSpaceOnUse"
       gradientTransform="rotate(-15,802.43241,-1.9489591)" />
    <linearGradient
       inkscape:collect="always"
       xlink:href="#linearGradient3962-8"
       id="linearGradient19177"
       x1="163.02301"
       y1="193.83618"
       x2="209.80595"
       y2="181.05989"
       gradientUnits="userSpaceOnUse"
       gradientTransform="rotate(-15,802.43241,-1.9489591)" />
    <linearGradient
       inkscape:collect="always"
       xlink:href="#linearGradient3954-7"
       id="linearGradient19185"
       x1="117.51535"
       y1="181.72815"
       x2="164.49129"
       y2="194.03969"
       gradientUnits="userSpaceOnUse"
       gradientTransform="rotate(-15,802.43241,-1.9489591)" />
    <linearGradient
       inkscape:collect="always"
       xlink:href="#linearGradient3946-8"
       id="linearGradient19193"
       x1="84.229202"
       y1="147.87372"
       x2="118.57832"
       y2="182.1684"
       gradientUnits="userSpaceOnUse"
       gradientTransform="rotate(-15,802.43241,-1.9489591)" />
    <linearGradient
       inkscape:collect="always"
       xlink:href="#linearGradient4024-9"
       id="linearGradient19201"
       x1="71.600014"
       y1="98.586967"
       x2="86.637268"
       y2="153.3033"
       gradientUnits="userSpaceOnUse"
       gradientTransform="rotate(-15,802.43241,-1.9489591)" />
    <linearGradient
       inkscape:collect="always"
       xlink:href="#linearGradient4018-0"
       id="linearGradient19209"
       x1="85.458618"
       y1="53.097939"
       x2="71.537453"
       y2="106.59224"
       gradientUnits="userSpaceOnUse"
       gradientTransform="rotate(-15,802.43241,-1.9489591)" />
    <linearGradient
       inkscape:collect="always"
       xlink:href="#linearGradient4002-3"
       id="linearGradient19217"
       x1="80.822929"
       y1="61.417603"
       x2="120.4325"
       y2="21.283628"
       gradientUnits="userSpaceOnUse"
       gradientTransform="rotate(-15,802.43241,-1.9489591)" />
    <linearGradient
       inkscape:collect="always"
       xlink:href="#linearGradient3994-4"
       id="linearGradient19225"
       x1="167.3401"
       y1="10.365549"
       x2="113.41623"
       y2="24.735945"
       gradientUnits="userSpaceOnUse"
       gradientTransform="rotate(-15,802.43241,-1.9489591)" />
    <filter
       width="1.0919776"
       height="1.3006796"
       y="-0.15033983"
       x="-0.04598882"
       inkscape:label="RawTherapee white"
       id="filter4749"
       style="color-interpolation-filters:sRGB">
      <feFlood
         result="flood"
         flood-color="rgb(255,255,255)"
         flood-opacity="0.40000000000000002"
         id="feFlood4751" />
      <feComposite
         result="composite1"
         operator="in"
         in="flood"
         in2="SourceGraphic"
         id="feComposite4753" />
      <feGaussianBlur
         result="blur"
         stdDeviation="3.5"
         id="feGaussianBlur4755" />
      <feComposite
         result="composite2"
         operator="over"
         in="SourceGraphic"
         in2="blur"
         id="feComposite4757" />
    </filter>
    <filter
       width="1.4157329"
       height="1.5012363"
       y="-0.25061816"
       x="-0.20786646"
       inkscape:label="RawTherapee white"
       id="filter1105"
       style="color-interpolation-filters:sRGB">
      <feFlood
         result="flood"
         flood-color="rgb(255,255,255)"
         flood-opacity="0.40000000000000002"
         id="feFlood1097" />
      <feComposite
         result="composite1"
         operator="in"
         in="flood"
         in2="SourceGraphic"
         id="feComposite1099" />
      <feGaussianBlur
         result="blur"
         stdDeviation="3.5"
         id="feGaussianBlur1101" />
      <feComposite
         result="composite2"
         operator="over"
         in="SourceGraphic"
         in2="blur"
         id="feComposite1103" />
    </filter>
    <filter
       inkscape:menu-tooltip="Increase or decrease lightness and contrast"
       inkscape:menu="Color"
       inkscape:label="ring inset lightness-contrast"
       height="1.0019884"
       width="1.0017145"
       y="-0.0011311892"
       x="-0.00085726596"
       id="filter4905-0-1"
       style="color-interpolation-filters:sRGB">
      <feFlood
         flood-color="rgb(255,255,255)"
         flood-opacity="0"
         result="result1"
         id="feFlood4907-6" />
      <feBlend
         result="result2"
         mode="normal"
         in2="SourceGraphic"
         id="feBlend4909-2" />
      <feComposite
         k3="0"
         k4="0.2"
         k1="0"
         result="result3"
         operator="arithmetic"
         k2="1.2"
         in2="SourceGraphic"
         id="feComposite4911-6-0" />
      <feComposite
         operator="in"
         in2="SourceGraphic"
         id="feComposite4913-1" />
    </filter>
  </defs>
  <sodipodi:namedview
     id="base"
     pagecolor="#ffffff"
     bordercolor="#666666"
     borderopacity="1.0"
     inkscape:pageopacity="0.0"
     inkscape:pageshadow="2"
     inkscape:zoom="4.0000001"
     inkscape:cx="128"
     inkscape:cy="77.124998"
     inkscape:document-units="px"
     inkscape:current-layer="layer1"
     showgrid="false"
     units="mm"
     inkscape:snap-bbox="true"
     inkscape:bbox-nodes="true"
     inkscape:snap-page="false"
     inkscape:snap-text-baseline="false"
     inkscape:snap-center="false"
     inkscape:snap-object-midpoints="true"
     inkscape:snap-midpoints="false"
     inkscape:snap-smooth-nodes="false"
     inkscape:snap-intersection-paths="false"
     inkscape:object-paths="false"
     inkscape:snap-bbox-midpoints="true"
     inkscape:snap-bbox-edge-midpoints="false"
     inkscape:bbox-paths="false"
     showguides="true"
     inkscape:guide-bbox="true"
     inkscape:snap-others="true"
     inkscape:object-nodes="false"
     inkscape:snap-nodes="true"
     inkscape:snap-global="false"
     inkscape:window-width="3440"
     inkscape:window-height="1387"
     inkscape:window-x="3832"
     inkscape:window-y="-8"
     inkscape:window-maximized="1"
     inkscape:measure-start="416.334,192.525"
     inkscape:measure-end="422.317,192.368"
     fit-margin-top="1"
     fit-margin-left="1"
     fit-margin-right="1"
     fit-margin-bottom="1"
     scale-x="1"
     inkscape:pagecheckerboard="true"
     height="52.18788mm" />
  <metadata
     id="metadata780">
    <rdf:RDF>
      <cc:Work
         rdf:about="">
        <dc:format>image/svg+xml</dc:format>
        <dc:type
           rdf:resource="http://purl.org/dc/dcmitype/StillImage" />
        <dc:title>RawTherapee Logo</dc:title>
        <dc:creator>
          <cc:Agent>
            <dc:title>Maciej Dworak</dc:title>
          </cc:Agent>
        </dc:creator>
        <dc:source>www.rawtherapee.com</dc:source>
        <dc:date>2019-03-11</dc:date>
      </cc:Work>
    </rdf:RDF>
  </metadata>
  <g
     inkscape:label="Layer 1"
     inkscape:groupmode="layer"
     id="layer1"
     transform="translate(-113.83346,-165.7737)">
    <g
       id="g1471">
      <path
         id="path1157"
         style="fill:url(#linearGradient19169);fill-opacity:1;stroke-width:0.682085;stroke-linecap:round;stroke-linejoin:round;filter:url(#filter4905-0)"
         d="m 294.18353,286.29588 8.89675,2.38406 a 93.821518,93.821518 0 0 0 2.4e-4,-48.56705 l -8.71031,2.33392 a 84.803757,84.803757 0 0 1 2.29016,11.88245 84.803757,84.803757 0 0 1 0.57521,12.08518 84.803757,84.803757 0 0 1 -1.14997,12.04599 84.803757,84.803757 0 0 1 -1.90208,7.83545 z" />
      <path
         id="path4829"
         style="fill:url(#linearGradient7767);fill-opacity:1;stroke-width:0.682085;stroke-linecap:round;stroke-linejoin:round"
         d="m 294.18353,286.29588 a 84.803757,84.803757 0 0 0 1.90208,-7.83545 84.803757,84.803757 0 0 0 1.14997,-12.04599 84.803757,84.803757 0 0 0 -0.57521,-12.08518 84.803757,84.803757 0 0 0 -2.29016,-11.88245 l -43.24405,11.5872 a 40.033501,40.033501 0 0 1 -0.0886,20.70095 z" />
      <path
         id="path1341"
         style="fill:#fffb00;fill-opacity:1;stroke-width:0.682085;stroke-linecap:round;stroke-linejoin:round;filter:url(#filter4905-0)"
         d="m 272.28532,324.2247 6.51303,6.51278 a 93.821518,93.821518 0 0 0 24.28193,-42.05754 l -8.89675,-2.38406 a 84.803757,84.803757 0 0 1 -0.95072,3.9227 84.803757,84.803757 0 0 1 -4.49616,11.23195 84.803757,84.803757 0 0 1 -6.05046,10.4797 84.803757,84.803757 0 0 1 -7.47908,9.50977 84.803757,84.803757 0 0 1 -2.92179,2.7847 z" />
      <path
         id="path4832"
         style="fill:#fffb00;fill-opacity:1;stroke-width:0.682085;stroke-linecap:round;stroke-linejoin:round"
         d="m 272.28532,324.2247 a 84.803757,84.803757 0 0 0 2.92179,-2.7847 84.803757,84.803757 0 0 0 7.47908,-9.50977 84.803757,84.803757 0 0 0 6.05046,-10.4797 84.803757,84.803757 0 0 0 4.49616,-11.23195 84.803757,84.803757 0 0 0 0.95072,-3.9227 l -43.14595,-11.56092 a 40.033501,40.033501 0 0 1 -10.33729,17.90471 z" />
      <path
         id="path1547"
         style="fill:url(#linearGradient19177);fill-opacity:1;stroke-width:0.682085;stroke-linecap:round;stroke-linejoin:round;filter:url(#filter4905-0)"
         d="m 234.40424,346.3109 2.33393,8.71032 a 93.821518,93.821518 0 0 0 42.06018,-24.28374 l -6.51303,-6.51278 a 84.803757,84.803757 0 0 1 -5.83466,5.56497 84.803757,84.803757 0 0 1 -9.85715,7.0189 84.803757,84.803757 0 0 1 -10.75367,5.54444 84.803757,84.803757 0 0 1 -11.4356,3.95789 z" />
      <path
         id="path4835"
         style="fill:url(#linearGradient10819);fill-opacity:1;stroke-width:0.682085;stroke-linecap:round;stroke-linejoin:round"
         d="m 234.40424,346.3109 a 84.803757,84.803757 0 0 0 11.4356,-3.95789 84.803757,84.803757 0 0 0 10.75367,-5.54444 84.803757,84.803757 0 0 0 9.85715,-7.0189 84.803757,84.803757 0 0 0 5.83466,-5.56497 l -31.58503,-31.58503 a 40.033501,40.033501 0 0 1 -17.88325,10.42719 z" />
      <path
         id="path1753"
         style="fill:url(#linearGradient19185);fill-opacity:1;stroke-width:0.682085;stroke-linecap:round;stroke-linejoin:round;filter:url(#filter4905-0)"
         d="m 190.55705,346.12372 -2.38405,8.89675 a 93.821518,93.821518 0 0 0 48.56517,7.5e-4 l -2.33393,-8.71032 a 84.803757,84.803757 0 0 1 -11.88057,2.28966 84.803757,84.803757 0 0 1 -12.08519,0.57522 84.803757,84.803757 0 0 1 -12.04598,-1.14998 84.803757,84.803757 0 0 1 -7.83545,-1.90208 z" />
      <path
         id="path4838"
         style="fill:url(#linearGradient10827);fill-opacity:1;stroke-width:0.682085;stroke-linecap:round;stroke-linejoin:round"
         d="m 190.55705,346.12372 a 84.803757,84.803757 0 0 0 7.83545,1.90208 84.803757,84.803757 0 0 0 12.04598,1.14998 84.803757,84.803757 0 0 0 12.08519,-0.57522 84.803757,84.803757 0 0 0 11.88057,-2.28966 l -11.5872,-43.24404 a 40.033501,40.033501 0 0 1 -20.69907,-0.0891 z" />
      <path
         id="path1857"
         style="fill:url(#linearGradient19193);fill-opacity:1;stroke-width:0.682085;stroke-linecap:round;stroke-linejoin:round;filter:url(#filter4905-0)"
         d="m 152.62823,324.22551 -6.51278,6.51303 a 93.821518,93.821518 0 0 0 42.05755,24.28193 l 2.38405,-8.89675 a 84.803757,84.803757 0 0 1 -3.9227,-0.95072 84.803757,84.803757 0 0 1 -11.23196,-4.49616 84.803757,84.803757 0 0 1 -10.4797,-6.05046 84.803757,84.803757 0 0 1 -9.50976,-7.47907 84.803757,84.803757 0 0 1 -2.7847,-2.9218 z" />
      <path
         id="path4841"
         style="fill:url(#linearGradient10835);fill-opacity:1;stroke-width:0.682085;stroke-linecap:round;stroke-linejoin:round"
         d="m 152.62823,324.22551 a 84.803757,84.803757 0 0 0 2.7847,2.9218 84.803757,84.803757 0 0 0 9.50976,7.47907 84.803757,84.803757 0 0 0 10.4797,6.05046 84.803757,84.803757 0 0 0 11.23196,4.49616 84.803757,84.803757 0 0 0 3.9227,0.95072 l 11.56092,-43.14594 a 40.033501,40.033501 0 0 1 -17.90472,-10.3373 z" />
      <path
         id="path1961"
         style="fill:url(#linearGradient19201);fill-opacity:1;stroke-width:0.682085;stroke-linecap:round;stroke-linejoin:round;filter:url(#filter4905-0)"
         d="m 130.54202,286.34444 -8.71031,2.33392 a 93.821518,93.821518 0 0 0 24.28374,42.06018 l 6.51278,-6.51303 a 84.803757,84.803757 0 0 1 -5.56497,-5.83466 84.803757,84.803757 0 0 1 -7.0189,-9.85715 84.803757,84.803757 0 0 1 -5.54444,-10.75367 84.803757,84.803757 0 0 1 -3.9579,-11.43559 z" />
      <path
         id="path4844"
         style="fill:url(#linearGradient10843);fill-opacity:1;stroke-width:0.682085;stroke-linecap:round;stroke-linejoin:round"
         d="m 130.54202,286.34444 a 84.803757,84.803757 0 0 0 3.9579,11.43559 84.803757,84.803757 0 0 0 5.54444,10.75367 84.803757,84.803757 0 0 0 7.0189,9.85715 84.803757,84.803757 0 0 0 5.56497,5.83466 l 31.58502,-31.58503 a 40.033501,40.033501 0 0 1 -10.42718,-17.88325 z" />
      <path
         id="path2065"
         style="fill:url(#linearGradient19209);fill-opacity:1;stroke-width:0.682085;stroke-linecap:round;stroke-linejoin:round;filter:url(#filter4905-0)"
         d="m 130.72921,242.49724 -8.89675,-2.38405 a 93.821518,93.821518 0 0 0 -7.5e-4,48.56517 l 8.71031,-2.33392 a 84.803757,84.803757 0 0 1 -2.28965,-11.88058 84.803757,84.803757 0 0 1 -0.57521,-12.08518 84.803757,84.803757 0 0 1 1.14997,-12.04599 84.803757,84.803757 0 0 1 1.90208,-7.83545 z" />
      <path
         id="path4847"
         style="fill:url(#linearGradient10851);fill-opacity:1;stroke-width:0.682085;stroke-linecap:round;stroke-linejoin:round"
         d="m 130.72921,242.49724 a 84.803757,84.803757 0 0 0 -1.90208,7.83545 84.803757,84.803757 0 0 0 -1.14997,12.04599 84.803757,84.803757 0 0 0 0.57521,12.08518 84.803757,84.803757 0 0 0 2.28965,11.88058 l 43.24405,-11.58721 a 40.033501,40.033501 0 0 1 0.0891,-20.69907 z" />
      <path
         id="path2169"
         style="fill:url(#linearGradient19217);fill-opacity:1;stroke-width:0.682085;stroke-linecap:round;stroke-linejoin:round;filter:url(#filter4905-0)"
         d="m 152.62742,204.56842 -6.51302,-6.51278 a 93.821518,93.821518 0 0 0 -24.28194,42.05755 l 8.89675,2.38405 a 84.803757,84.803757 0 0 1 0.95072,-3.92269 84.803757,84.803757 0 0 1 4.49616,-11.23196 84.803757,84.803757 0 0 1 6.05045,-10.4797 84.803757,84.803757 0 0 1 7.47909,-9.50977 84.803757,84.803757 0 0 1 2.92179,-2.7847 z" />
      <path
         id="path4850"
         style="fill:url(#linearGradient10859);fill-opacity:1;stroke-width:0.682085;stroke-linecap:round;stroke-linejoin:round"
         d="m 152.62742,204.56842 a 84.803757,84.803757 0 0 0 -2.92179,2.7847 84.803757,84.803757 0 0 0 -7.47909,9.50977 84.803757,84.803757 0 0 0 -6.05045,10.4797 84.803757,84.803757 0 0 0 -4.49616,11.23196 84.803757,84.803757 0 0 0 -0.95072,3.92269 l 43.14594,11.56092 a 40.033501,40.033501 0 0 1 10.33729,-17.90471 z" />
      <path
         id="path2377"
         style="fill:url(#linearGradient10867);fill-opacity:1;stroke-width:0.682085;stroke-linecap:round;stroke-linejoin:round"
         d="m 190.50661,182.48272 a 84.803757,84.803757 0 0 0 -11.4337,3.95739 84.803757,84.803757 0 0 0 -10.75369,5.54444 84.803757,84.803757 0 0 0 -9.85714,7.0189 84.803757,84.803757 0 0 0 -5.83466,5.56497 l 31.58502,31.58503 a 40.033501,40.033501 0 0 1 17.88138,-10.42668 z" />
      <path
         id="path4853"
         style="fill:url(#linearGradient19225);fill-opacity:1;stroke-width:0.682085;stroke-linecap:round;stroke-linejoin:round;filter:url(#filter4905-0)"
         d="m 188.17269,173.77241 a 93.821518,93.821518 0 0 0 -42.05829,24.28323 l 6.51302,6.51278 a 84.803757,84.803757 0 0 1 5.83466,-5.56497 84.803757,84.803757 0 0 1 9.85714,-7.0189 84.803757,84.803757 0 0 1 10.75369,-5.54444 84.803757,84.803757 0 0 1 11.4337,-3.95739 z" />
      <path
         id="path2481"
         style="fill:#ff0b0d;fill-opacity:1;stroke-width:0.682085;stroke-linecap:round;stroke-linejoin:round"
         d="m 234.40028,182.50378 a 84.803757,84.803757 0 0 0 -2.68754,-0.69529 84.803757,84.803757 0 0 0 -4.07443,-0.84536 84.803757,84.803757 0 0 0 -4.11369,-0.64477 84.803757,84.803757 0 0 0 -4.13823,-0.44206 84.803757,84.803757 0 0 0 -4.15611,-0.23708 84.803757,84.803757 0 0 0 -4.16076,-0.0357 84.803757,84.803757 0 0 0 -4.16015,0.17042 84.803757,84.803757 0 0 0 -4.1458,0.37485 84.803757,84.803757 0 0 0 -4.12205,0.57675 84.803757,84.803757 0 0 0 -4.08833,0.77801 84.803757,84.803757 0 0 0 -4.04658,0.97913 l 11.58721,43.24405 a 40.033501,40.033501 0 0 1 20.72361,-4e-4 z" />
      <path
         id="path4798"
         style="fill:#ff0b0d;fill-opacity:1;stroke-width:0.682085;stroke-linecap:round;stroke-linejoin:round;filter:url(#filter4905-0)"
         d="m 188.17269,173.77241 2.33392,8.71031 a 84.803757,84.803757 0 0 1 4.04658,-0.97913 84.803757,84.803757 0 0 1 4.08833,-0.77801 84.803757,84.803757 0 0 1 4.12205,-0.57675 84.803757,84.803757 0 0 1 4.1458,-0.37485 84.803757,84.803757 0 0 1 4.16015,-0.17042 84.803757,84.803757 0 0 1 4.16076,0.0357 84.803757,84.803757 0 0 1 4.15611,0.23708 84.803757,84.803757 0 0 1 4.13823,0.44206 84.803757,84.803757 0 0 1 4.11369,0.64477 84.803757,84.803757 0 0 1 4.07443,0.84536 84.803757,84.803757 0 0 1 2.68754,0.69529 l 2.33947,-8.73113 a 93.821518,93.821518 0 0 0 -48.56706,-2.4e-4 z" />
      <path
         id="path2585"
         style="fill:url(#linearGradient19153);fill-opacity:1;stroke-width:0.682085;stroke-linecap:round;stroke-linejoin:round;filter:url(#filter4905-0)"
         d="m 272.40565,204.44619 6.39164,-6.3916 a 93.821518,93.821518 0 0 0 -42.05754,-24.28194 l -2.33947,8.73113 a 84.803757,84.803757 0 0 1 1.34283,0.3479 84.803757,84.803757 0 0 1 3.97211,1.24078 84.803757,84.803757 0 0 1 3.90717,1.43612 84.803757,84.803757 0 0 1 3.83217,1.62405 84.803757,84.803757 0 0 1 3.74859,1.81022 84.803757,84.803757 0 0 1 3.65546,1.99088 84.803757,84.803757 0 0 1 3.55187,2.17028 84.803757,84.803757 0 0 1 3.44149,2.33938 84.803757,84.803757 0 0 1 3.32256,2.50673 84.803757,84.803757 0 0 1 3.19592,2.66804 84.803757,84.803757 0 0 1 3.06249,2.81905 84.803757,84.803757 0 0 1 0.97271,0.98898 z" />
      <path
         id="path4823"
         style="fill:url(#linearGradient7477);fill-opacity:1;stroke-width:0.682085;stroke-linecap:round;stroke-linejoin:round"
         d="m 272.40565,204.44619 a 84.803757,84.803757 0 0 0 -0.97271,-0.98898 84.803757,84.803757 0 0 0 -3.06249,-2.81905 84.803757,84.803757 0 0 0 -3.19592,-2.66804 84.803757,84.803757 0 0 0 -3.32256,-2.50673 84.803757,84.803757 0 0 0 -3.44149,-2.33938 84.803757,84.803757 0 0 0 -3.55187,-2.17028 84.803757,84.803757 0 0 0 -3.65546,-1.99088 84.803757,84.803757 0 0 0 -3.74859,-1.81022 84.803757,84.803757 0 0 0 -3.83217,-1.62405 84.803757,84.803757 0 0 0 -3.90717,-1.43612 84.803757,84.803757 0 0 0 -3.97211,-1.24078 84.803757,84.803757 0 0 0 -1.34283,-0.3479 l -11.58597,43.23354 a 40.033501,40.033501 0 0 1 17.94059,10.35801 z" />
      <path
         id="path2689"
         style="fill:url(#linearGradient19161);fill-opacity:1;stroke-width:0.682085;stroke-linecap:round;stroke-linejoin:round;filter:url(#filter4905-0)"
         d="m 294.37021,242.44681 8.71031,-2.33392 a 93.821518,93.821518 0 0 0 -24.28323,-42.0583 l -6.39164,6.3916 a 84.803757,84.803757 0 0 1 1.94591,1.97984 84.803757,84.803757 0 0 1 2.76932,3.10587 84.803757,84.803757 0 0 1 2.61472,3.23829 84.803757,84.803757 0 0 1 2.45245,3.36467 84.803757,84.803757 0 0 1 2.28287,3.47886 84.803757,84.803757 0 0 1 2.11177,3.58739 84.803757,84.803757 0 0 1 1.93249,3.688 84.803757,84.803757 0 0 1 1.74777,3.77592 84.803757,84.803757 0 0 1 1.56204,3.86005 84.803757,84.803757 0 0 1 1.37039,3.92961 84.803757,84.803757 0 0 1 1.17483,3.99212 z" />
      <path
         id="path4826"
         style="fill:url(#linearGradient7759);fill-opacity:1;stroke-width:0.682085;stroke-linecap:round;stroke-linejoin:round"
         d="m 294.37021,242.44681 a 84.803757,84.803757 0 0 0 -1.17483,-3.99212 84.803757,84.803757 0 0 0 -1.37039,-3.92961 84.803757,84.803757 0 0 0 -1.56204,-3.86005 84.803757,84.803757 0 0 0 -1.74777,-3.77592 84.803757,84.803757 0 0 0 -1.93249,-3.688 84.803757,84.803757 0 0 0 -2.11177,-3.58739 84.803757,84.803757 0 0 0 -2.28287,-3.47886 84.803757,84.803757 0 0 0 -2.45245,-3.36467 84.803757,84.803757 0 0 0 -2.61472,-3.23829 84.803757,84.803757 0 0 0 -2.76932,-3.10587 84.803757,84.803757 0 0 0 -1.94591,-1.97984 l -31.64233,31.64284 a 40.033501,40.033501 0 0 1 10.36284,17.94498 z" />
      <circle
         style="fill:none;fill-opacity:1;stroke:#000000;stroke-width:1.33333;stroke-linecap:round;stroke-linejoin:round;stroke-miterlimit:4;stroke-dasharray:none;stroke-opacity:1"
         id="circle4294"
         cx="136.78612"
         cy="310.37509"
         r="40.033501"
         transform="rotate(-15)" />
      <circle
         style="fill:none;fill-opacity:1;stroke:#000000;stroke-width:2.66667;stroke-linecap:round;stroke-linejoin:round;stroke-miterlimit:4;stroke-dasharray:none;stroke-opacity:1"
         id="path4028"
         cx="136.78612"
         cy="310.37509"
         r="93.821518"
         transform="rotate(-15)" />
    </g>
  </g>
</svg>
