<?xml version="1.0" encoding="UTF-8" standalone="no"?>
<!-- Created with Inkscape (http://www.inkscape.org/) -->

<svg
   width="160mm"
   height="100mm"
   viewBox="0 0 160 99.999999"
   version="1.1"
   id="svg783"
   inkscape:version="1.3.2 (091e20ef0f, 2023-11-25, custom)"
   sodipodi:docname="splash.svg"
   inkscape:export-filename="/tmp/splash.png"
   inkscape:export-xdpi="96"
   inkscape:export-ydpi="96"
   enable-background="new"
   xmlns:inkscape="http://www.inkscape.org/namespaces/inkscape"
   xmlns:sodipodi="http://sodipodi.sourceforge.net/DTD/sodipodi-0.dtd"
   xmlns:xlink="http://www.w3.org/1999/xlink"
   xmlns="http://www.w3.org/2000/svg"
   xmlns:svg="http://www.w3.org/2000/svg"
   xmlns:rdf="http://www.w3.org/1999/02/22-rdf-syntax-ns#"
   xmlns:cc="http://creativecommons.org/ns#"
   xmlns:dc="http://purl.org/dc/elements/1.1/">
  <title
     id="title188">RawTherapee splash screen</title>
  <defs
     id="defs777">
    <rect
       x="-430.18854"
       y="-11.775234"
       width="560.5011"
       height="438.0387"
       id="rect183260" />
    <rect
       x="-457.66409"
       y="-16.485327"
       width="370.52734"
       height="390.15274"
       id="rect181038" />
    <linearGradient
       id="linearGradient3962-8">
      <stop
         id="stop3964-8"
         offset="0"
         style="stop-color:#38c102;stop-opacity:1" />
      <stop
         id="stop3966-8"
         offset="1"
         style="stop-color:#bced02;stop-opacity:1;" />
    </linearGradient>
    <linearGradient
       id="linearGradient3954-7">
      <stop
         id="stop3956-7"
         offset="0"
         style="stop-color:#009a01;stop-opacity:1" />
      <stop
         id="stop3958-6"
         offset="1"
         style="stop-color:#01d901;stop-opacity:1;" />
    </linearGradient>
    <linearGradient
       id="linearGradient4002-3"
       inkscape:collect="always">
      <stop
         id="stop4004-0"
         offset="0"
         style="stop-color:#5a1898;stop-opacity:1" />
      <stop
         id="stop4006-3"
         offset="1"
         style="stop-color:#971ec6;stop-opacity:1" />
    </linearGradient>
    <linearGradient
       id="linearGradient4024-9">
      <stop
         id="stop4026-2"
         offset="0"
         style="stop-color:#053980;stop-opacity:1" />
      <stop
         id="stop4028-5"
         offset="1"
         style="stop-color:#0293e4;stop-opacity:1;" />
    </linearGradient>
    <linearGradient
       id="linearGradient4018-0"
       inkscape:collect="always">
      <stop
         id="stop4020-5"
         offset="0"
         style="stop-color:#151b92;stop-opacity:1" />
      <stop
         id="stop4022-9"
         offset="1"
         style="stop-color:#1526c3;stop-opacity:1" />
    </linearGradient>
    <linearGradient
       id="linearGradient3978-6">
      <stop
         style="stop-color:#f18e01;stop-opacity:1;"
         offset="0"
         id="stop4040-9" />
      <stop
         id="stop3982-2"
         offset="1"
         style="stop-color:#ffd02b;stop-opacity:1;" />
    </linearGradient>
    <linearGradient
       id="linearGradient3994-4"
       inkscape:collect="always">
      <stop
         id="stop3996-7"
         offset="0"
         style="stop-color:#d91566;stop-opacity:1" />
      <stop
         id="stop3998-7"
         offset="1"
         style="stop-color:#fc12aa;stop-opacity:1" />
    </linearGradient>
    <linearGradient
       id="linearGradient3970-4">
      <stop
         id="stop3972-8"
         offset="0"
         style="stop-color:#f8bc00;stop-opacity:1;" />
      <stop
         id="stop3974-1"
         offset="1"
         style="stop-color:#ffe309;stop-opacity:1;" />
    </linearGradient>
    <linearGradient
       id="linearGradient3946-8">
      <stop
         id="stop3948-9"
         offset="0"
         style="stop-color:#0193be;stop-opacity:1;" />
      <stop
         id="stop3950-3"
         offset="1"
         style="stop-color:#01d4ed;stop-opacity:1;" />
    </linearGradient>
    <linearGradient
       id="linearGradient3986-8">
      <stop
         id="stop3988-0"
         offset="0"
         style="stop-color:#fd4c0b;stop-opacity:1" />
      <stop
         id="stop3990-2"
         offset="1"
         style="stop-color:#feab27;stop-opacity:1;" />
    </linearGradient>
    <filter
       width="2.1437705"
       height="2.5121801"
       y="-0.75609007"
       x="-0.57188526"
       inkscape:label="RawTherapee white"
       id="filter4749"
       style="color-interpolation-filters:sRGB"
       inkscape:auto-region="true">
      <feFlood
         result="flood"
         flood-color="rgb(255,255,255)"
         flood-opacity="0.24524714828897337"
         id="feFlood4751" />
      <feComposite
         result="composite1"
         operator="in"
         in="flood"
         in2="SourceGraphic"
         id="feComposite4753" />
      <feGaussianBlur
         result="blur"
         stdDeviation="2"
         id="feGaussianBlur4755" />
      <feComposite
         result="composite2"
         operator="over"
         in="SourceGraphic"
         in2="blur"
         id="feComposite4757" />
    </filter>
    <filter
       inkscape:menu-tooltip="Glow of object's own color at the edges"
       inkscape:menu="Shadows and Glows"
       inkscape:label="ring glow"
       id="filter3580-78"
       x="-0.82091249"
       y="-0.8209123"
       width="2.641825"
       height="2.6418246"
       style="color-interpolation-filters:sRGB">
      <feGaussianBlur
         result="result91"
         stdDeviation="14.997794432548178"
         id="feGaussianBlur3582-4" />
      <feComposite
         operator="over"
         in="SourceGraphic"
         in2="result91"
         id="feComposite3584-5" />
    </filter>
    <filter
       id="filter4905-0-9"
       x="0"
       y="0"
       width="1"
       height="1"
       inkscape:label="ring inset lightness-contrast"
       inkscape:menu="Color"
       inkscape:menu-tooltip="Increase or decrease lightness and contrast"
       style="color-interpolation-filters:sRGB">
      <feFlood
         id="feFlood4907-7-7"
         result="result1"
         flood-opacity="0"
         flood-color="rgb(255,255,255)" />
      <feBlend
         id="feBlend4909-8-6"
         in2="SourceGraphic"
         mode="normal"
         result="result2" />
      <feComposite
         id="feComposite4911-6-0"
         in2="SourceGraphic"
         k2="1.2"
         operator="arithmetic"
         result="result3"
         k1="0"
         k4="0.2"
         k3="0" />
      <feComposite
         id="feComposite4913-88-2"
         in2="SourceGraphic"
         operator="in" />
    </filter>
    <filter
       width="1.3101085"
       height="3.1717951"
       y="-1.0858974"
       x="-0.15505423"
       inkscape:label="RawTherapee white"
       id="filter4749-3"
       style="color-interpolation-filters:sRGB"
       inkscape:auto-region="true">
      <feFlood
         result="flood"
         flood-color="rgb(255,255,255)"
         flood-opacity="0.24524714828897337"
         id="feFlood4751-3" />
      <feComposite
         result="composite1"
         operator="in"
         in="flood"
         in2="SourceGraphic"
         id="feComposite4753-8" />
      <feGaussianBlur
         result="blur"
         stdDeviation="2"
         id="feGaussianBlur4755-6" />
      <feComposite
         result="composite2"
         operator="over"
         in="SourceGraphic"
         in2="blur"
         id="feComposite4757-6" />
    </filter>
    <filter
       id="filter4905-0"
       x="0"
       y="0"
       width="1"
       height="1"
       inkscape:label="ring inset lightness-contrast"
       inkscape:menu="Color"
       inkscape:menu-tooltip="Increase or decrease lightness and contrast"
       style="color-interpolation-filters:sRGB">
      <feFlood
         id="feFlood4907-7"
         result="result1"
         flood-opacity="0"
         flood-color="rgb(255,255,255)" />
      <feBlend
         id="feBlend4909-8"
         in2="SourceGraphic"
         mode="normal"
         result="result2" />
      <feComposite
         id="feComposite4911-6"
         in2="SourceGraphic"
         k2="1.2"
         operator="arithmetic"
         result="result3"
         k1="0"
         k4="0.2"
         k3="0" />
      <feComposite
         id="feComposite4913-88"
         in2="SourceGraphic"
         operator="in" />
    </filter>
    <filter
       id="filter2037"
       x="0"
       y="0"
       width="1"
       height="1"
       inkscape:label="ring inset lightness-contrast"
       inkscape:menu="Color"
       inkscape:menu-tooltip="Increase or decrease lightness and contrast"
       style="color-interpolation-filters:sRGB">
      <feFlood
         id="feFlood2029"
         result="result1"
         flood-opacity="0"
         flood-color="rgb(255,255,255)" />
      <feBlend
         id="feBlend2031"
         in2="SourceGraphic"
         mode="normal"
         result="result2" />
      <feComposite
         id="feComposite2033"
         in2="SourceGraphic"
         k2="1.2"
         operator="arithmetic"
         result="result3"
         k1="0"
         k4="0.2"
         k3="0" />
      <feComposite
         id="feComposite2035"
         in2="SourceGraphic"
         operator="in" />
    </filter>
    <filter
       id="filter2051"
       x="0"
       y="0"
       width="1"
       height="1"
       inkscape:label="ring inset lightness-contrast"
       inkscape:menu="Color"
       inkscape:menu-tooltip="Increase or decrease lightness and contrast"
       style="color-interpolation-filters:sRGB">
      <feFlood
         id="feFlood2043"
         result="result1"
         flood-opacity="0"
         flood-color="rgb(255,255,255)" />
      <feBlend
         id="feBlend2045"
         in2="SourceGraphic"
         mode="normal"
         result="result2" />
      <feComposite
         id="feComposite2047"
         in2="SourceGraphic"
         k2="1.2"
         operator="arithmetic"
         result="result3"
         k1="0"
         k4="0.2"
         k3="0" />
      <feComposite
         id="feComposite2049"
         in2="SourceGraphic"
         operator="in" />
    </filter>
    <filter
       id="filter2072"
       x="0"
       y="0"
       width="1"
       height="1"
       inkscape:label="ring inset lightness-contrast"
       inkscape:menu="Color"
       inkscape:menu-tooltip="Increase or decrease lightness and contrast"
       style="color-interpolation-filters:sRGB">
      <feFlood
         id="feFlood2064"
         result="result1"
         flood-opacity="0"
         flood-color="rgb(255,255,255)" />
      <feBlend
         id="feBlend2066"
         in2="SourceGraphic"
         mode="normal"
         result="result2" />
      <feComposite
         id="feComposite2068"
         in2="SourceGraphic"
         k2="1.2"
         operator="arithmetic"
         result="result3"
         k1="0"
         k4="0.2"
         k3="0" />
      <feComposite
         id="feComposite2070"
         in2="SourceGraphic"
         operator="in" />
    </filter>
    <filter
       id="filter2093"
       x="0"
       y="0"
       width="1"
       height="1"
       inkscape:label="ring inset lightness-contrast"
       inkscape:menu="Color"
       inkscape:menu-tooltip="Increase or decrease lightness and contrast"
       style="color-interpolation-filters:sRGB">
      <feFlood
         id="feFlood2085"
         result="result1"
         flood-opacity="0"
         flood-color="rgb(255,255,255)" />
      <feBlend
         id="feBlend2087"
         in2="SourceGraphic"
         mode="normal"
         result="result2" />
      <feComposite
         id="feComposite2089"
         in2="SourceGraphic"
         k2="1.2"
         operator="arithmetic"
         result="result3"
         k1="0"
         k4="0.2"
         k3="0" />
      <feComposite
         id="feComposite2091"
         in2="SourceGraphic"
         operator="in" />
    </filter>
    <filter
       id="filter2114"
       x="0"
       y="0"
       width="1"
       height="1"
       inkscape:label="ring inset lightness-contrast"
       inkscape:menu="Color"
       inkscape:menu-tooltip="Increase or decrease lightness and contrast"
       style="color-interpolation-filters:sRGB">
      <feFlood
         id="feFlood2106"
         result="result1"
         flood-opacity="0"
         flood-color="rgb(255,255,255)" />
      <feBlend
         id="feBlend2108"
         in2="SourceGraphic"
         mode="normal"
         result="result2" />
      <feComposite
         id="feComposite2110"
         in2="SourceGraphic"
         k2="1.2"
         operator="arithmetic"
         result="result3"
         k1="0"
         k4="0.2"
         k3="0" />
      <feComposite
         id="feComposite2112"
         in2="SourceGraphic"
         operator="in" />
    </filter>
    <filter
       id="filter2135"
       x="0"
       y="0"
       width="1"
       height="1"
       inkscape:label="ring inset lightness-contrast"
       inkscape:menu="Color"
       inkscape:menu-tooltip="Increase or decrease lightness and contrast"
       style="color-interpolation-filters:sRGB">
      <feFlood
         id="feFlood2127"
         result="result1"
         flood-opacity="0"
         flood-color="rgb(255,255,255)" />
      <feBlend
         id="feBlend2129"
         in2="SourceGraphic"
         mode="normal"
         result="result2" />
      <feComposite
         id="feComposite2131"
         in2="SourceGraphic"
         k2="1.2"
         operator="arithmetic"
         result="result3"
         k1="0"
         k4="0.2"
         k3="0" />
      <feComposite
         id="feComposite2133"
         in2="SourceGraphic"
         operator="in" />
    </filter>
    <filter
       id="filter2156"
       x="0"
       y="0"
       width="1"
       height="1"
       inkscape:label="ring inset lightness-contrast"
       inkscape:menu="Color"
       inkscape:menu-tooltip="Increase or decrease lightness and contrast"
       style="color-interpolation-filters:sRGB">
      <feFlood
         id="feFlood2148"
         result="result1"
         flood-opacity="0"
         flood-color="rgb(255,255,255)" />
      <feBlend
         id="feBlend2150"
         in2="SourceGraphic"
         mode="normal"
         result="result2" />
      <feComposite
         id="feComposite2152"
         in2="SourceGraphic"
         k2="1.2"
         operator="arithmetic"
         result="result3"
         k1="0"
         k4="0.2"
         k3="0" />
      <feComposite
         id="feComposite2154"
         in2="SourceGraphic"
         operator="in" />
    </filter>
    <filter
       id="filter2184"
       x="0"
       y="0"
       width="1"
       height="1"
       inkscape:label="ring inset lightness-contrast"
       inkscape:menu="Color"
       inkscape:menu-tooltip="Increase or decrease lightness and contrast"
       style="color-interpolation-filters:sRGB">
      <feFlood
         id="feFlood2176"
         result="result1"
         flood-opacity="0"
         flood-color="rgb(255,255,255)" />
      <feBlend
         id="feBlend2178"
         in2="SourceGraphic"
         mode="normal"
         result="result2" />
      <feComposite
         id="feComposite2180"
         in2="SourceGraphic"
         k2="1.2"
         operator="arithmetic"
         result="result3"
         k1="0"
         k4="0.2"
         k3="0" />
      <feComposite
         id="feComposite2182"
         in2="SourceGraphic"
         operator="in" />
    </filter>
    <filter
       id="filter2194"
       x="0"
       y="0"
       width="1"
       height="1"
       inkscape:label="ring inset lightness-contrast"
       inkscape:menu="Color"
       inkscape:menu-tooltip="Increase or decrease lightness and contrast"
       style="color-interpolation-filters:sRGB">
      <feFlood
         id="feFlood2186"
         result="result1"
         flood-opacity="0"
         flood-color="rgb(255,255,255)" />
      <feBlend
         id="feBlend2188"
         in2="SourceGraphic"
         mode="normal"
         result="result2" />
      <feComposite
         id="feComposite2190"
         in2="SourceGraphic"
         k2="1.2"
         operator="arithmetic"
         result="result3"
         k1="0"
         k4="0.2"
         k3="0" />
      <feComposite
         id="feComposite2192"
         in2="SourceGraphic"
         operator="in" />
    </filter>
    <filter
       id="filter2208"
       x="0"
       y="0"
       width="1"
       height="1"
       inkscape:label="ring inset lightness-contrast"
       inkscape:menu="Color"
       inkscape:menu-tooltip="Increase or decrease lightness and contrast"
       style="color-interpolation-filters:sRGB">
      <feFlood
         id="feFlood2200"
         result="result1"
         flood-opacity="0"
         flood-color="rgb(255,255,255)" />
      <feBlend
         id="feBlend2202"
         in2="SourceGraphic"
         mode="normal"
         result="result2" />
      <feComposite
         id="feComposite2204"
         in2="SourceGraphic"
         k2="1.2"
         operator="arithmetic"
         result="result3"
         k1="0"
         k4="0.2"
         k3="0" />
      <feComposite
         id="feComposite2206"
         in2="SourceGraphic"
         operator="in" />
    </filter>
    <filter
       id="filter2229"
       x="0"
       y="0"
       width="1"
       height="1"
       inkscape:label="ring inset lightness-contrast"
       inkscape:menu="Color"
       inkscape:menu-tooltip="Increase or decrease lightness and contrast"
       style="color-interpolation-filters:sRGB">
      <feFlood
         id="feFlood2221"
         result="result1"
         flood-opacity="0"
         flood-color="rgb(255,255,255)" />
      <feBlend
         id="feBlend2223"
         in2="SourceGraphic"
         mode="normal"
         result="result2" />
      <feComposite
         id="feComposite2225"
         in2="SourceGraphic"
         k2="1.2"
         operator="arithmetic"
         result="result3"
         k1="0"
         k4="0.2"
         k3="0" />
      <feComposite
         id="feComposite2227"
         in2="SourceGraphic"
         operator="in" />
    </filter>
    <linearGradient
       inkscape:collect="always"
       xlink:href="#linearGradient3970-4"
       id="linearGradient1281"
       gradientUnits="userSpaceOnUse"
       gradientTransform="rotate(-15,802.43241,-1.9489591)"
       x1="254.64981"
       y1="101.84784"
       x2="242.17578"
       y2="148.77542" />
    <linearGradient
       inkscape:collect="always"
       xlink:href="#linearGradient3970-4"
       id="linearGradient1283"
       gradientUnits="userSpaceOnUse"
       gradientTransform="rotate(-15,802.43241,-1.9489591)"
       x1="249.90581"
       y1="125.98007"
       x2="197.72298"
       y2="111.61357" />
    <linearGradient
       inkscape:collect="always"
       xlink:href="#linearGradient3962-8"
       id="linearGradient1285"
       gradientUnits="userSpaceOnUse"
       gradientTransform="rotate(-15,802.43241,-1.9489591)"
       x1="163.02301"
       y1="193.83618"
       x2="209.80595"
       y2="181.05989" />
    <linearGradient
       inkscape:collect="always"
       xlink:href="#linearGradient3962-8"
       id="linearGradient1287"
       gradientUnits="userSpaceOnUse"
       gradientTransform="rotate(-15,802.43241,-1.9489591)"
       x1="186.45189"
       y1="188.78058"
       x2="172.53987"
       y2="136.40414" />
    <linearGradient
       inkscape:collect="always"
       xlink:href="#linearGradient3954-7"
       id="linearGradient1289"
       gradientUnits="userSpaceOnUse"
       gradientTransform="rotate(-15,802.43241,-1.9489591)"
       x1="117.51535"
       y1="181.72815"
       x2="164.49129"
       y2="194.03969" />
    <linearGradient
       inkscape:collect="always"
       xlink:href="#linearGradient3954-7"
       id="linearGradient1291"
       gradientUnits="userSpaceOnUse"
       gradientTransform="rotate(-15,802.43241,-1.9489591)"
       x1="140.57898"
       y1="188.96413"
       x2="154.49196"
       y2="135.54562" />
    <linearGradient
       inkscape:collect="always"
       xlink:href="#linearGradient3946-8"
       id="linearGradient1293"
       gradientUnits="userSpaceOnUse"
       gradientTransform="rotate(-15,802.43241,-1.9489591)"
       x1="84.229202"
       y1="147.87372"
       x2="118.57832"
       y2="182.1684" />
    <linearGradient
       inkscape:collect="always"
       xlink:href="#linearGradient3946-8"
       id="linearGradient1295"
       gradientUnits="userSpaceOnUse"
       gradientTransform="rotate(-15,802.43241,-1.9489591)"
       x1="99.718773"
       y1="165.33376"
       x2="138.70259"
       y2="126.9732" />
    <linearGradient
       inkscape:collect="always"
       xlink:href="#linearGradient4024-9"
       id="linearGradient1297"
       gradientUnits="userSpaceOnUse"
       gradientTransform="rotate(-15,802.43241,-1.9489591)"
       x1="71.600014"
       y1="98.586967"
       x2="86.637268"
       y2="153.3033" />
    <linearGradient
       inkscape:collect="always"
       xlink:href="#linearGradient4024-9"
       id="linearGradient1299"
       gradientUnits="userSpaceOnUse"
       gradientTransform="rotate(-15,802.43241,-1.9489591)"
       x1="76.875038"
       y1="125.39568"
       x2="129.98044"
       y2="111.2607" />
    <linearGradient
       inkscape:collect="always"
       xlink:href="#linearGradient4018-0"
       id="linearGradient1301"
       gradientUnits="userSpaceOnUse"
       gradientTransform="rotate(-15,802.43241,-1.9489591)"
       x1="85.458618"
       y1="53.097939"
       x2="71.537453"
       y2="106.59224" />
    <linearGradient
       inkscape:collect="always"
       xlink:href="#linearGradient4018-0"
       id="linearGradient1303"
       gradientUnits="userSpaceOnUse"
       gradientTransform="rotate(-15,802.43241,-1.9489591)"
       x1="77.518173"
       y1="79.568878"
       x2="130.19432"
       y2="93.55809" />
    <linearGradient
       inkscape:collect="always"
       xlink:href="#linearGradient4002-3"
       id="linearGradient1305"
       gradientUnits="userSpaceOnUse"
       gradientTransform="rotate(-15,802.43241,-1.9489591)"
       x1="80.822929"
       y1="61.417603"
       x2="120.4325"
       y2="21.283628" />
    <linearGradient
       inkscape:collect="always"
       xlink:href="#linearGradient4002-3"
       id="linearGradient1307"
       gradientUnits="userSpaceOnUse"
       gradientTransform="rotate(-15,802.43241,-1.9489591)"
       x1="100.42588"
       y1="39.737522"
       x2="138.96776"
       y2="78.363228" />
    <linearGradient
       inkscape:collect="always"
       xlink:href="#linearGradient3994-4"
       id="linearGradient1309"
       gradientUnits="userSpaceOnUse"
       gradientTransform="rotate(-15,802.43241,-1.9489591)"
       x1="140.49059"
       y1="16.437004"
       x2="154.79814"
       y2="69.879189" />
    <linearGradient
       inkscape:collect="always"
       xlink:href="#linearGradient3994-4"
       id="linearGradient1311"
       gradientUnits="userSpaceOnUse"
       gradientTransform="rotate(-15,802.43241,-1.9489591)"
       x1="167.3401"
       y1="10.365549"
       x2="113.41623"
       y2="24.735945" />
    <linearGradient
       inkscape:collect="always"
       xlink:href="#linearGradient3986-8"
       id="linearGradient1313"
       gradientUnits="userSpaceOnUse"
       gradientTransform="rotate(-15,802.43241,-1.9489591)"
       x1="208.75566"
       y1="23.213453"
       x2="243.28401"
       y2="57.596519" />
    <linearGradient
       inkscape:collect="always"
       xlink:href="#linearGradient3986-8"
       id="linearGradient1315"
       gradientUnits="userSpaceOnUse"
       gradientTransform="rotate(-15,802.43241,-1.9489591)"
       x1="226.75093"
       y1="39.7075"
       x2="188.64473"
       y2="77.343597" />
    <linearGradient
       inkscape:collect="always"
       xlink:href="#linearGradient3978-6"
       id="linearGradient1317"
       gradientUnits="userSpaceOnUse"
       gradientTransform="rotate(-15,802.43241,-1.9489591)"
       x1="240.19098"
       y1="48.687042"
       x2="256.26306"
       y2="106.95491" />
    <linearGradient
       inkscape:collect="always"
       xlink:href="#linearGradient3978-6"
       id="linearGradient1319"
       gradientUnits="userSpaceOnUse"
       gradientTransform="rotate(-15,802.43241,-1.9489591)"
       x1="249.71877"
       y1="79.683319"
       x2="197.60223"
       y2="93.622879" />
    <filter
       width="1.2494091"
       height="3.8250666"
       y="-1.4125333"
       x="-0.12470456"
       inkscape:label="RawTherapee white"
       id="filter4749-3-4"
       style="color-interpolation-filters:sRGB"
       inkscape:auto-region="true">
      <feFlood
         result="flood"
         flood-color="rgb(255,255,255)"
         flood-opacity="0.24524714828897337"
         id="feFlood4751-3-9" />
      <feComposite
         result="composite1"
         operator="in"
         in="flood"
         in2="SourceGraphic"
         id="feComposite4753-8-2" />
      <feGaussianBlur
         result="blur"
         stdDeviation="2"
         id="feGaussianBlur4755-6-0" />
      <feComposite
         result="composite2"
         operator="over"
         in="SourceGraphic"
         in2="blur"
         id="feComposite4757-6-6" />
    </filter>
    <filter
       width="1.2125351"
       height="4.2627358"
       y="-1.6313679"
       x="-0.10626753"
       inkscape:label="RawTherapee white"
       id="filter4749-3-2"
       style="color-interpolation-filters:sRGB"
       inkscape:auto-region="true">
      <feFlood
         result="flood"
         flood-color="rgb(255,255,255)"
         flood-opacity="0.24524714828897337"
         id="feFlood4751-3-6" />
      <feComposite
         result="composite1"
         operator="in"
         in="flood"
         in2="SourceGraphic"
         id="feComposite4753-8-6" />
      <feGaussianBlur
         result="blur"
         stdDeviation="2 2.323"
         id="feGaussianBlur4755-6-4" />
      <feComposite
         result="composite2"
         operator="over"
         in="SourceGraphic"
         in2="blur"
         id="feComposite4757-6-9" />
    </filter>
    <filter
       width="1.3101098"
       height="3.1717934"
       y="-1.0858967"
       x="-0.15505489"
       inkscape:label="RawTherapee white"
       id="filter4749-3-3"
       style="color-interpolation-filters:sRGB"
       inkscape:auto-region="true">
      <feFlood
         result="flood"
         flood-color="rgb(255,255,255)"
         flood-opacity="0.24524714828897337"
         id="feFlood4751-3-6-3" />
      <feComposite
         result="composite1"
         operator="in"
         in="flood"
         in2="SourceGraphic"
         id="feComposite4753-8-7" />
      <feGaussianBlur
         result="blur"
         stdDeviation="2"
         id="feGaussianBlur4755-6-5" />
      <feComposite
         result="composite2"
         operator="over"
         in="SourceGraphic"
         in2="blur"
         id="feComposite4757-6-3" />
    </filter>
    <filter
       width="1.2125351"
       height="4.2627359"
       y="-1.6313679"
       x="-0.10626753"
       inkscape:label="RawTherapee white"
       id="filter4749-3-2-3"
       style="color-interpolation-filters:sRGB"
       inkscape:auto-region="true">
      <feFlood
         result="flood"
         flood-color="rgb(255,255,255)"
         flood-opacity="0.24524714828897337"
         id="feFlood4751-3-6-6" />
      <feComposite
         result="composite1"
         operator="in"
         in="flood"
         in2="SourceGraphic"
         id="feComposite4753-8-6-7" />
      <feGaussianBlur
         result="blur"
         stdDeviation="2 2.323"
         id="feGaussianBlur4755-6-4-5" />
      <feComposite
         result="composite2"
         operator="over"
         in="SourceGraphic"
         in2="blur"
         id="feComposite4757-6-9-3" />
    </filter>
  </defs>
  <sodipodi:namedview
     id="base"
     pagecolor="#ffffff"
     bordercolor="#666666"
     borderopacity="1.0"
     inkscape:pageopacity="0.0"
     inkscape:pageshadow="2"
     inkscape:zoom="0.98494663"
     inkscape:cx="367.02496"
     inkscape:cy="284.27936"
     inkscape:document-units="px"
     inkscape:current-layer="layer2"
     showgrid="false"
     units="mm"
     inkscape:snap-bbox="true"
     inkscape:bbox-nodes="true"
     inkscape:snap-page="false"
     inkscape:snap-text-baseline="false"
     inkscape:snap-center="false"
     inkscape:snap-object-midpoints="true"
     inkscape:snap-midpoints="false"
     inkscape:snap-smooth-nodes="false"
     inkscape:snap-intersection-paths="false"
     inkscape:object-paths="false"
     inkscape:snap-bbox-midpoints="true"
     inkscape:snap-bbox-edge-midpoints="false"
     inkscape:bbox-paths="false"
     showguides="true"
     inkscape:guide-bbox="true"
     inkscape:snap-others="true"
     inkscape:object-nodes="false"
     inkscape:snap-nodes="true"
     inkscape:snap-global="false"
     inkscape:window-width="1324"
     inkscape:window-height="697"
     inkscape:window-x="0"
     inkscape:window-y="0"
     inkscape:window-maximized="1"
     inkscape:measure-start="416.334,192.525"
     inkscape:measure-end="422.317,192.368"
     inkscape:pagecheckerboard="0"
     fit-margin-top="0"
     fit-margin-left="0"
     fit-margin-right="0"
     fit-margin-bottom="0"
     width="157.40977mm"
     inkscape:showpageshadow="2"
     inkscape:deskcolor="#d1d1d1">
    <sodipodi:guide
       position="13.081061,8.9833331"
       orientation="0,1"
       id="guide6595"
       inkscape:locked="false"
       inkscape:label=""
       inkscape:color="rgb(0,134,229)" />
    <sodipodi:guide
       position="153.15072,8.9833384"
       orientation="-1,0"
       id="guide15125"
       inkscape:locked="false"
       inkscape:label=""
       inkscape:color="rgb(0,134,229)" />
  </sodipodi:namedview>
  <metadata
     id="metadata780">
    <rdf:RDF>
      <cc:Work
         rdf:about="">
        <dc:title>RawTherapee splash screen</dc:title>
        <cc:license
           rdf:resource="http://creativecommons.org/licenses/by-sa/4.0/" />
      </cc:Work>
      <cc:License
         rdf:about="http://creativecommons.org/licenses/by-sa/4.0/">
        <cc:permits
           rdf:resource="http://creativecommons.org/ns#Reproduction" />
        <cc:permits
           rdf:resource="http://creativecommons.org/ns#Distribution" />
        <cc:requires
           rdf:resource="http://creativecommons.org/ns#Notice" />
        <cc:requires
           rdf:resource="http://creativecommons.org/ns#Attribution" />
        <cc:permits
           rdf:resource="http://creativecommons.org/ns#DerivativeWorks" />
        <cc:requires
           rdf:resource="http://creativecommons.org/ns#ShareAlike" />
      </cc:License>
    </rdf:RDF>
  </metadata>
  <g
     inkscape:label="Layer 1"
     inkscape:groupmode="layer"
     id="layer1"
     transform="translate(4.6433668,-186.15341)">
    <rect
       y="186.15341"
       x="-4.6433668"
       height="100"
       width="160"
       id="rect4747"
       style="fill:#2a2a2a;fill-opacity:1;fill-rule:nonzero;stroke:none;stroke-width:0.289435;enable-background:new" />
    <g
       id="g1471"
       style="filter:url(#filter3580-78);enable-background:new"
       transform="matrix(0.32898701,0,0,0.32898701,5.4693427,158.00998)">
      <path
         id="path1157-5"
         style="fill:url(#linearGradient1281);fill-opacity:1;stroke-width:0.682085;stroke-linecap:round;stroke-linejoin:round;filter:url(#filter4905-0)"
         d="m 294.18353,286.29588 8.89675,2.38406 a 93.821518,93.821518 0 0 0 2.4e-4,-48.56705 l -8.71031,2.33392 a 84.803757,84.803757 0 0 1 2.29016,11.88245 84.803757,84.803757 0 0 1 0.57521,12.08518 84.803757,84.803757 0 0 1 -1.14997,12.04599 84.803757,84.803757 0 0 1 -1.90208,7.83545 z" />
      <path
         id="path4829-2"
         style="fill:url(#linearGradient1283);fill-opacity:1;stroke-width:0.682085;stroke-linecap:round;stroke-linejoin:round;filter:url(#filter3580-78)"
         d="m 294.18353,286.29588 a 84.803757,84.803757 0 0 0 1.90208,-7.83545 84.803757,84.803757 0 0 0 1.14997,-12.04599 84.803757,84.803757 0 0 0 -0.57521,-12.08518 84.803757,84.803757 0 0 0 -2.29016,-11.88245 l -43.24405,11.5872 a 40.033501,40.033501 0 0 1 -0.0886,20.70095 z" />
      <path
         id="path1341-4"
         style="fill:#fffb00;fill-opacity:1;stroke-width:0.682085;stroke-linecap:round;stroke-linejoin:round;filter:url(#filter4905-0)"
         d="m 272.28532,324.2247 6.51303,6.51278 a 93.821518,93.821518 0 0 0 24.28193,-42.05754 l -8.89675,-2.38406 a 84.803757,84.803757 0 0 1 -0.95072,3.9227 84.803757,84.803757 0 0 1 -4.49616,11.23195 84.803757,84.803757 0 0 1 -6.05046,10.4797 84.803757,84.803757 0 0 1 -7.47908,9.50977 84.803757,84.803757 0 0 1 -2.92179,2.7847 z" />
      <path
         id="path4832-9"
         style="fill:#fffb00;fill-opacity:1;stroke-width:0.682085;stroke-linecap:round;stroke-linejoin:round;filter:url(#filter3580-78)"
         d="m 272.28532,324.2247 a 84.803757,84.803757 0 0 0 2.92179,-2.7847 84.803757,84.803757 0 0 0 7.47908,-9.50977 84.803757,84.803757 0 0 0 6.05046,-10.4797 84.803757,84.803757 0 0 0 4.49616,-11.23195 84.803757,84.803757 0 0 0 0.95072,-3.9227 l -43.14595,-11.56092 a 40.033501,40.033501 0 0 1 -10.33729,17.90471 z" />
      <path
         id="path1547-6"
         style="fill:url(#linearGradient1285);fill-opacity:1;stroke-width:0.682085;stroke-linecap:round;stroke-linejoin:round;filter:url(#filter4905-0)"
         d="m 234.40424,346.3109 2.33393,8.71032 a 93.821518,93.821518 0 0 0 42.06018,-24.28374 l -6.51303,-6.51278 a 84.803757,84.803757 0 0 1 -5.83466,5.56497 84.803757,84.803757 0 0 1 -9.85715,7.0189 84.803757,84.803757 0 0 1 -10.75367,5.54444 84.803757,84.803757 0 0 1 -11.4356,3.95789 z" />
      <path
         id="path4835-4"
         style="fill:url(#linearGradient1287);fill-opacity:1;stroke-width:0.682085;stroke-linecap:round;stroke-linejoin:round;filter:url(#filter3580-78)"
         d="m 234.40424,346.3109 a 84.803757,84.803757 0 0 0 11.4356,-3.95789 84.803757,84.803757 0 0 0 10.75367,-5.54444 84.803757,84.803757 0 0 0 9.85715,-7.0189 84.803757,84.803757 0 0 0 5.83466,-5.56497 l -31.58503,-31.58503 a 40.033501,40.033501 0 0 1 -17.88325,10.42719 z" />
      <path
         id="path1753-0"
         style="fill:url(#linearGradient1289);fill-opacity:1;stroke-width:0.682085;stroke-linecap:round;stroke-linejoin:round;filter:url(#filter4905-0)"
         d="m 190.55705,346.12372 -2.38405,8.89675 a 93.821518,93.821518 0 0 0 48.56517,7.5e-4 l -2.33393,-8.71032 a 84.803757,84.803757 0 0 1 -11.88057,2.28966 84.803757,84.803757 0 0 1 -12.08519,0.57522 84.803757,84.803757 0 0 1 -12.04598,-1.14998 84.803757,84.803757 0 0 1 -7.83545,-1.90208 z" />
      <path
         id="path4838-2"
         style="fill:url(#linearGradient1291);fill-opacity:1;stroke-width:0.682085;stroke-linecap:round;stroke-linejoin:round;filter:url(#filter3580-78)"
         d="m 190.55705,346.12372 a 84.803757,84.803757 0 0 0 7.83545,1.90208 84.803757,84.803757 0 0 0 12.04598,1.14998 84.803757,84.803757 0 0 0 12.08519,-0.57522 84.803757,84.803757 0 0 0 11.88057,-2.28966 l -11.5872,-43.24404 a 40.033501,40.033501 0 0 1 -20.69907,-0.0891 z" />
      <path
         id="path1857-7"
         style="fill:url(#linearGradient1293);fill-opacity:1;stroke-width:0.682085;stroke-linecap:round;stroke-linejoin:round;filter:url(#filter4905-0)"
         d="m 152.62823,324.22551 -6.51278,6.51303 a 93.821518,93.821518 0 0 0 42.05755,24.28193 l 2.38405,-8.89675 a 84.803757,84.803757 0 0 1 -3.9227,-0.95072 84.803757,84.803757 0 0 1 -11.23196,-4.49616 84.803757,84.803757 0 0 1 -10.4797,-6.05046 84.803757,84.803757 0 0 1 -9.50976,-7.47907 84.803757,84.803757 0 0 1 -2.7847,-2.9218 z" />
      <path
         id="path4841-1"
         style="fill:url(#linearGradient1295);fill-opacity:1;stroke-width:0.682085;stroke-linecap:round;stroke-linejoin:round;filter:url(#filter3580-78)"
         d="m 152.62823,324.22551 a 84.803757,84.803757 0 0 0 2.7847,2.9218 84.803757,84.803757 0 0 0 9.50976,7.47907 84.803757,84.803757 0 0 0 10.4797,6.05046 84.803757,84.803757 0 0 0 11.23196,4.49616 84.803757,84.803757 0 0 0 3.9227,0.95072 l 11.56092,-43.14594 a 40.033501,40.033501 0 0 1 -17.90472,-10.3373 z" />
      <path
         id="path1961-0"
         style="fill:url(#linearGradient1297);fill-opacity:1;stroke-width:0.682085;stroke-linecap:round;stroke-linejoin:round;filter:url(#filter4905-0)"
         d="m 130.54202,286.34444 -8.71031,2.33392 a 93.821518,93.821518 0 0 0 24.28374,42.06018 l 6.51278,-6.51303 a 84.803757,84.803757 0 0 1 -5.56497,-5.83466 84.803757,84.803757 0 0 1 -7.0189,-9.85715 84.803757,84.803757 0 0 1 -5.54444,-10.75367 84.803757,84.803757 0 0 1 -3.9579,-11.43559 z" />
      <path
         id="path4844-0"
         style="fill:url(#linearGradient1299);fill-opacity:1;stroke-width:0.682085;stroke-linecap:round;stroke-linejoin:round;filter:url(#filter3580-78)"
         d="m 130.54202,286.34444 a 84.803757,84.803757 0 0 0 3.9579,11.43559 84.803757,84.803757 0 0 0 5.54444,10.75367 84.803757,84.803757 0 0 0 7.0189,9.85715 84.803757,84.803757 0 0 0 5.56497,5.83466 l 31.58502,-31.58503 a 40.033501,40.033501 0 0 1 -10.42718,-17.88325 z" />
      <path
         id="path2065-7"
         style="fill:url(#linearGradient1301);fill-opacity:1;stroke-width:0.682085;stroke-linecap:round;stroke-linejoin:round;filter:url(#filter4905-0)"
         d="m 130.72921,242.49724 -8.89675,-2.38405 a 93.821518,93.821518 0 0 0 -7.5e-4,48.56517 l 8.71031,-2.33392 a 84.803757,84.803757 0 0 1 -2.28965,-11.88058 84.803757,84.803757 0 0 1 -0.57521,-12.08518 84.803757,84.803757 0 0 1 1.14997,-12.04599 84.803757,84.803757 0 0 1 1.90208,-7.83545 z" />
      <path
         id="path4847-5"
         style="fill:url(#linearGradient1303);fill-opacity:1;stroke-width:0.682085;stroke-linecap:round;stroke-linejoin:round;filter:url(#filter3580-78)"
         d="m 130.72921,242.49724 a 84.803757,84.803757 0 0 0 -1.90208,7.83545 84.803757,84.803757 0 0 0 -1.14997,12.04599 84.803757,84.803757 0 0 0 0.57521,12.08518 84.803757,84.803757 0 0 0 2.28965,11.88058 l 43.24405,-11.58721 a 40.033501,40.033501 0 0 1 0.0891,-20.69907 z" />
      <path
         id="path2169-9"
         style="fill:url(#linearGradient1305);fill-opacity:1;stroke-width:0.682085;stroke-linecap:round;stroke-linejoin:round;filter:url(#filter4905-0)"
         d="m 152.62742,204.56842 -6.51302,-6.51278 a 93.821518,93.821518 0 0 0 -24.28194,42.05755 l 8.89675,2.38405 a 84.803757,84.803757 0 0 1 0.95072,-3.92269 84.803757,84.803757 0 0 1 4.49616,-11.23196 84.803757,84.803757 0 0 1 6.05045,-10.4797 84.803757,84.803757 0 0 1 7.47909,-9.50977 84.803757,84.803757 0 0 1 2.92179,-2.7847 z" />
      <path
         id="path4850-1"
         style="fill:url(#linearGradient1307);fill-opacity:1;stroke-width:0.682085;stroke-linecap:round;stroke-linejoin:round;filter:url(#filter3580-78)"
         d="m 152.62742,204.56842 a 84.803757,84.803757 0 0 0 -2.92179,2.7847 84.803757,84.803757 0 0 0 -7.47909,9.50977 84.803757,84.803757 0 0 0 -6.05045,10.4797 84.803757,84.803757 0 0 0 -4.49616,11.23196 84.803757,84.803757 0 0 0 -0.95072,3.92269 l 43.14594,11.56092 a 40.033501,40.033501 0 0 1 10.33729,-17.90471 z" />
      <path
         id="path2377-3"
         style="fill:url(#linearGradient1309);fill-opacity:1;stroke-width:0.682085;stroke-linecap:round;stroke-linejoin:round;filter:url(#filter3580-78)"
         d="m 190.50661,182.48272 a 84.803757,84.803757 0 0 0 -11.4337,3.95739 84.803757,84.803757 0 0 0 -10.75369,5.54444 84.803757,84.803757 0 0 0 -9.85714,7.0189 84.803757,84.803757 0 0 0 -5.83466,5.56497 l 31.58502,31.58503 a 40.033501,40.033501 0 0 1 17.88138,-10.42668 z" />
      <path
         id="path4853-2"
         style="fill:url(#linearGradient1311);fill-opacity:1;stroke-width:0.682085;stroke-linecap:round;stroke-linejoin:round;filter:url(#filter4905-0)"
         d="m 188.17269,173.77241 a 93.821518,93.821518 0 0 0 -42.05829,24.28323 l 6.51302,6.51278 a 84.803757,84.803757 0 0 1 5.83466,-5.56497 84.803757,84.803757 0 0 1 9.85714,-7.0189 84.803757,84.803757 0 0 1 10.75369,-5.54444 84.803757,84.803757 0 0 1 11.4337,-3.95739 z" />
      <path
         id="path2481-5"
         style="fill:#ff0b0d;fill-opacity:1;stroke-width:0.682085;stroke-linecap:round;stroke-linejoin:round;filter:url(#filter3580-78)"
         d="m 234.40028,182.50378 a 84.803757,84.803757 0 0 0 -2.68754,-0.69529 84.803757,84.803757 0 0 0 -4.07443,-0.84536 84.803757,84.803757 0 0 0 -4.11369,-0.64477 84.803757,84.803757 0 0 0 -4.13823,-0.44206 84.803757,84.803757 0 0 0 -4.15611,-0.23708 84.803757,84.803757 0 0 0 -4.16076,-0.0357 84.803757,84.803757 0 0 0 -4.16015,0.17042 84.803757,84.803757 0 0 0 -4.1458,0.37485 84.803757,84.803757 0 0 0 -4.12205,0.57675 84.803757,84.803757 0 0 0 -4.08833,0.77801 84.803757,84.803757 0 0 0 -4.04658,0.97913 l 11.58721,43.24405 a 40.033501,40.033501 0 0 1 20.72361,-4e-4 z" />
      <path
         id="path4798-5"
         style="fill:#ff0b0d;fill-opacity:1;stroke-width:0.682085;stroke-linecap:round;stroke-linejoin:round;filter:url(#filter4905-0)"
         d="m 188.17269,173.77241 2.33392,8.71031 a 84.803757,84.803757 0 0 1 4.04658,-0.97913 84.803757,84.803757 0 0 1 4.08833,-0.77801 84.803757,84.803757 0 0 1 4.12205,-0.57675 84.803757,84.803757 0 0 1 4.1458,-0.37485 84.803757,84.803757 0 0 1 4.16015,-0.17042 84.803757,84.803757 0 0 1 4.16076,0.0357 84.803757,84.803757 0 0 1 4.15611,0.23708 84.803757,84.803757 0 0 1 4.13823,0.44206 84.803757,84.803757 0 0 1 4.11369,0.64477 84.803757,84.803757 0 0 1 4.07443,0.84536 84.803757,84.803757 0 0 1 2.68754,0.69529 l 2.33947,-8.73113 a 93.821518,93.821518 0 0 0 -48.56706,-2.4e-4 z" />
      <path
         id="path2585-1"
         style="fill:url(#linearGradient1313);fill-opacity:1;stroke-width:0.682085;stroke-linecap:round;stroke-linejoin:round;filter:url(#filter4905-0)"
         d="m 272.40565,204.44619 6.39164,-6.3916 a 93.821518,93.821518 0 0 0 -42.05754,-24.28194 l -2.33947,8.73113 a 84.803757,84.803757 0 0 1 1.34283,0.3479 84.803757,84.803757 0 0 1 3.97211,1.24078 84.803757,84.803757 0 0 1 3.90717,1.43612 84.803757,84.803757 0 0 1 3.83217,1.62405 84.803757,84.803757 0 0 1 3.74859,1.81022 84.803757,84.803757 0 0 1 3.65546,1.99088 84.803757,84.803757 0 0 1 3.55187,2.17028 84.803757,84.803757 0 0 1 3.44149,2.33938 84.803757,84.803757 0 0 1 3.32256,2.50673 84.803757,84.803757 0 0 1 3.19592,2.66804 84.803757,84.803757 0 0 1 3.06249,2.81905 84.803757,84.803757 0 0 1 0.97271,0.98898 z" />
      <path
         id="path4823-0"
         style="fill:url(#linearGradient1315);fill-opacity:1;stroke-width:0.682085;stroke-linecap:round;stroke-linejoin:round;filter:url(#filter3580-78)"
         d="m 272.40565,204.44619 a 84.803757,84.803757 0 0 0 -0.97271,-0.98898 84.803757,84.803757 0 0 0 -3.06249,-2.81905 84.803757,84.803757 0 0 0 -3.19592,-2.66804 84.803757,84.803757 0 0 0 -3.32256,-2.50673 84.803757,84.803757 0 0 0 -3.44149,-2.33938 84.803757,84.803757 0 0 0 -3.55187,-2.17028 84.803757,84.803757 0 0 0 -3.65546,-1.99088 84.803757,84.803757 0 0 0 -3.74859,-1.81022 84.803757,84.803757 0 0 0 -3.83217,-1.62405 84.803757,84.803757 0 0 0 -3.90717,-1.43612 84.803757,84.803757 0 0 0 -3.97211,-1.24078 84.803757,84.803757 0 0 0 -1.34283,-0.3479 l -11.58597,43.23354 a 40.033501,40.033501 0 0 1 17.94059,10.35801 z" />
      <path
         id="path2689-4"
         style="fill:url(#linearGradient1317);fill-opacity:1;stroke-width:0.682085;stroke-linecap:round;stroke-linejoin:round;filter:url(#filter4905-0)"
         d="m 294.37021,242.44681 8.71031,-2.33392 a 93.821518,93.821518 0 0 0 -24.28323,-42.0583 l -6.39164,6.3916 a 84.803757,84.803757 0 0 1 1.94591,1.97984 84.803757,84.803757 0 0 1 2.76932,3.10587 84.803757,84.803757 0 0 1 2.61472,3.23829 84.803757,84.803757 0 0 1 2.45245,3.36467 84.803757,84.803757 0 0 1 2.28287,3.47886 84.803757,84.803757 0 0 1 2.11177,3.58739 84.803757,84.803757 0 0 1 1.93249,3.688 84.803757,84.803757 0 0 1 1.74777,3.77592 84.803757,84.803757 0 0 1 1.56204,3.86005 84.803757,84.803757 0 0 1 1.37039,3.92961 84.803757,84.803757 0 0 1 1.17483,3.99212 z" />
      <path
         id="path4826-3"
         style="fill:url(#linearGradient1319);fill-opacity:1;stroke-width:0.682085;stroke-linecap:round;stroke-linejoin:round;filter:url(#filter3580-78)"
         d="m 294.37021,242.44681 a 84.803757,84.803757 0 0 0 -1.17483,-3.99212 84.803757,84.803757 0 0 0 -1.37039,-3.92961 84.803757,84.803757 0 0 0 -1.56204,-3.86005 84.803757,84.803757 0 0 0 -1.74777,-3.77592 84.803757,84.803757 0 0 0 -1.93249,-3.688 84.803757,84.803757 0 0 0 -2.11177,-3.58739 84.803757,84.803757 0 0 0 -2.28287,-3.47886 84.803757,84.803757 0 0 0 -2.45245,-3.36467 84.803757,84.803757 0 0 0 -2.61472,-3.23829 84.803757,84.803757 0 0 0 -2.76932,-3.10587 84.803757,84.803757 0 0 0 -1.94591,-1.97984 l -31.64233,31.64284 a 40.033501,40.033501 0 0 1 10.36284,17.94498 z" />
      <circle
         style="fill:none;fill-opacity:1;stroke:#000000;stroke-width:1.33333;stroke-linecap:round;stroke-linejoin:round;stroke-miterlimit:4;stroke-dasharray:none;stroke-opacity:1"
         id="circle4294-2"
         cx="136.78612"
         cy="310.37509"
         r="40.033501"
         transform="rotate(-15)" />
      <circle
         style="fill:none;fill-opacity:1;stroke:#000000;stroke-width:2.66667;stroke-linecap:round;stroke-linejoin:round;stroke-miterlimit:4;stroke-dasharray:none;stroke-opacity:1"
         id="path4028-1"
         cx="136.78612"
         cy="310.37509"
         r="93.821518"
         transform="rotate(-15)" />
    </g>
    <g
       id="g140289"
       style="filter:url(#filter4749)">
      <path
         style="font-weight:500;font-size:21.1667px;line-height:1.25;font-family:'ITC Eras Std';-inkscape-font-specification:'ITC Eras Std Medium';letter-spacing:0.396875px;word-spacing:0px;fill:#ffffff;stroke-width:0.932443px"
         d="m 55.034876,193.06377 -0.0635,1.48167 c 0.740834,-0.0423 1.481669,-0.10583 2.222503,-0.10583 h 2.222504 c -0.148167,4.2545 -0.275167,8.50901 -0.592668,12.74235 h 2.05317 c 0,-4.23334 0.254001,-8.46668 0.444501,-12.74235 h 1.79917 c 0.508,0 1.714502,0.0212 2.603504,0.10583 l 0.0635,-1.48167 z m 12.461883,0 c -0.0635,4.72018 -0.254,9.41918 -0.571501,14.11819 h 1.883837 c 0.02117,-1.05833 0.02117,-4.61434 0.423334,-6.47701 0.381,-1.73567 1.693336,-2.81517 3.471339,-2.81517 1.735669,0 2.836337,0.6985 2.836337,2.49767 0,1.8415 -0.254,5.54568 -0.338667,6.79451 h 1.841503 c 0.02117,-1.73567 0.296334,-6.68868 0.296334,-7.42951 0,-2.45534 -1.73567,-3.28084 -3.958173,-3.28084 -1.947336,0 -3.450172,0.5715 -4.29684,2.24367 l -0.04233,0.0423 c 0.0635,-1.88383 0.190501,-3.78884 0.317501,-5.69384 z m 22.029256,8.65718 c 0.04233,-0.381 0.0635,-0.67733 0.0635,-0.9525 0,-2.87867 -1.778003,-4.29684 -4.550841,-4.29684 -3.407839,0 -5.228175,2.4765 -5.228175,5.71501 0,2.58234 1.100669,5.22817 5.439842,5.22817 1.079502,0 2.137837,-0.14816 3.196172,-0.42333 l 0.296334,-1.54517 c -1.016002,0.33867 -2.159004,0.65617 -3.217339,0.65617 -2.391837,0 -3.915839,-1.35467 -3.915839,-3.78884 v -0.59267 z m -7.789346,-1.10067 c 0.3175,-1.8415 1.545169,-3.048 3.471339,-3.048 1.883836,0 2.688171,1.31233 2.688171,3.048 z m 12.059711,-3.91584 h -1.756836 c 0.02117,4.40268 -0.1905,7.45068 -0.359834,10.47752 h 1.86267 c 0,-2.58234 0,-4.95301 0.211667,-6.30768 0.232833,-1.56633 1.143002,-2.921 2.878671,-2.921 0.402167,0 0.804335,0.0635 1.185335,0.16933 l -0.0635,-1.54517 c -0.254,-0.0635 -0.529167,-0.10583 -0.825501,-0.10583 -1.545169,0 -2.476504,0.61383 -3.153839,1.905 h -0.04233 z m 14.15522,10.47752 c 0,-2.32834 0.3175,-6.43468 0.3175,-8.00101 0,-1.35467 -0.508,-2.70934 -4.0005,-2.70934 -1.33351,0 -2.62467,0.21167 -3.91584,0.55033 l -0.1905,1.37584 c 1.22766,-0.52917 2.54,-0.8255 3.8735,-0.8255 0.99484,0 2.43417,0.23283 2.43417,1.50283 0,2.85751 -7.683509,1.16417 -7.683509,5.56685 0,2.45533 2.285999,2.77283 3.831169,2.77283 0.6985,0 1.39701,-0.0847 2.07434,-0.21166 l 0.33867,-1.27 c -0.6985,0.23283 -1.43934,0.381 -2.18017,0.381 -1.0795,0 -2.37067,-0.381 -2.37067,-1.69334 0,-2.49767 4.6355,-2.20134 5.99017,-3.57717 -0.10583,2.07433 -0.16933,4.50851 -0.381,6.13834 z m 4.90537,4.65668 c 0,-2.70934 0.14817,-4.63551 0.14817,-6.49818 h 0.0423 c 0.80434,1.397 2.15901,2.07433 3.64068,2.07433 3.40783,0 4.953,-2.794 4.953,-5.88434 0,-3.83117 -2.37067,-5.05884 -5.16467,-5.05884 -1.82034,0 -3.38667,0.27517 -4.91068,0.61383 -0.0847,4.93185 -0.254,9.84252 -0.59266,14.7532 z m 0.42334,-13.52553 c 0.93133,-0.3175 1.92617,-0.52916 2.89983,-0.52916 2.41301,0 3.66184,1.397 3.66184,3.76767 0,2.159 -0.97366,4.55084 -3.47134,4.55084 -2.032,0 -3.21733,-1.397 -3.21733,-3.89467 0,-1.58751 0.10583,-2.75167 0.127,-3.89468 z m 20.14541,3.40784 c 0.0423,-0.381 0.0635,-0.67733 0.0635,-0.9525 0,-2.87867 -1.778,-4.29684 -4.55084,-4.29684 -3.40784,0 -5.22818,2.4765 -5.22818,5.71501 0,2.58234 1.10067,5.22817 5.43985,5.22817 1.0795,0 2.13783,-0.14816 3.19617,-0.42333 l 0.29633,-1.54517 c -1.016,0.33867 -2.159,0.65617 -3.21734,0.65617 -2.39183,0 -3.91584,-1.35467 -3.91584,-3.78884 v -0.59267 z m -7.78935,-1.10067 c 0.3175,-1.8415 1.54517,-3.048 3.47134,-3.048 1.88384,0 2.68817,1.31233 2.68817,3.048 z m 19.3834,1.10067 c 0.0423,-0.381 0.0635,-0.67733 0.0635,-0.9525 0,-2.87867 -1.77801,-4.29684 -4.55084,-4.29684 -3.40784,0 -5.22818,2.4765 -5.22818,5.71501 0,2.58234 1.10067,5.22817 5.43984,5.22817 1.0795,0 2.13784,-0.14816 3.19617,-0.42333 l 0.29634,-1.54517 c -1.016,0.33867 -2.15901,0.65617 -3.21734,0.65617 -2.39184,0 -3.91584,-1.35467 -3.91584,-3.78884 v -0.59267 z m -7.78935,-1.10067 c 0.3175,-1.8415 1.54517,-3.048 3.47134,-3.048 1.88384,0 2.68817,1.31233 2.68817,3.048 z"
         id="text10534"
         aria-label="Therapee" />
      <path
         style="font-weight:800;font-size:21.1667px;line-height:1.25;font-family:'ITC Eras Std';-inkscape-font-specification:'ITC Eras Std Ultra-Bold';letter-spacing:-0.79375px;fill:#ffffff;stroke-width:0.264583"
         d="m 12.678596,196.66211 c 1.100668,0 2.328337,-0.0212 2.328337,1.10067 0,1.2065 -1.270002,1.50284 -2.264837,1.50284 -0.296334,0 -0.613835,-0.0212 -0.910168,-0.0847 0.740834,2.64584 1.354668,5.31284 1.968503,8.00101 h 5.778509 c -0.698501,-2.01084 -1.481669,-4.00051 -2.11667,-6.05368 1.820336,-0.80433 2.815171,-2.159 2.815171,-4.14867 0,-3.683 -3.704173,-3.91584 -5.482175,-3.91584 H 6.3497522 c 0,4.72018 -0.1270002,9.44035 -0.7196679,14.11819 h 5.3975087 c 0.04233,-3.4925 0.148167,-7.00618 0.381001,-10.51985 z m 9.345086,3.47134 c 1.397002,-0.48683 3.090338,-0.93133 4.572007,-0.93133 0.338667,0 0.867835,0 0.867835,0.5715 0,1.22766 -6.985011,0.0847 -6.985011,4.52967 0,1.60867 1.121835,3.15384 4.021673,3.15384 0.486834,0 0.973668,-0.0423 1.460502,-0.10584 l 0.910168,-2.921 c -0.211667,0.0847 -0.465667,0.14817 -0.719667,0.14817 -0.317501,0 -0.677335,-0.0847 -0.677335,-0.46567 0,-0.635 1.524003,-0.8255 2.074337,-1.03717 -0.0635,1.37584 -0.127,2.75167 -0.296334,4.10634 h 5.016508 c 0.08467,-4.23334 0.402167,-5.92668 0.402167,-8.17035 0,-1.48166 -1.418169,-2.68817 -4.445007,-2.68817 -1.905003,0 -3.810006,0.29634 -5.693842,0.67734 z m 30.892792,-3.53484 H 48.1963 c -0.592668,1.82034 -1.100668,3.66184 -1.566336,5.37634 h -0.04233 c -0.338667,-1.7145 -0.783168,-3.556 -1.227669,-5.37634 h -4.868341 c -0.592668,1.82034 -1.206502,3.66184 -1.672169,5.37634 h -0.04233 c -0.338667,-1.7145 -0.677334,-3.556 -1.164168,-5.37634 h -4.741341 c 1.270002,3.47134 2.286004,7.04851 3.407839,10.58335 h 4.55084 c 0.698501,-1.73567 1.206502,-3.53484 1.778003,-5.14351 h 0.04233 l 1.121836,5.14351 h 4.74134 z"
         id="text62463"
         aria-label="Raw" />
    </g>
    <g
       aria-label="5"
       transform="matrix(0.26003726,0,0.01362797,0.2600373,-8.7023404,250.43016)"
       style="font-style:normal;font-variant:normal;font-weight:bold;font-stretch:normal;line-height:0%;font-family:'Eras Bold ITC';-inkscape-font-specification:'Eras Bold ITC Bold';letter-spacing:0px;word-spacing:0px;fill:#ffffff;fill-opacity:1;stroke:none;stroke-width:1px;stroke-linecap:butt;stroke-linejoin:miter;stroke-opacity:1;filter:url(#filter4749);enable-background:new"
       id="text3689" />
    <g
       style="fill:#ffffff;enable-background:new"
       transform="matrix(0.24804687,0,0,0.2480469,-127.75775,273.1232)"
       id="g220" />
    <g
       id="g1"
       transform="matrix(0.79376077,0,0,0.79376077,13.596658,49.971814)">
      <path
         style="font-weight:bold;font-size:20.4611px;line-height:1.25;font-family:'ITC Eras Std';-inkscape-font-specification:'ITC Eras Std Bold';fill:#ffffff;stroke-width:0.873393"
         d="m 58.18748,240.09172 h 2.475793 c 1.063977,0 2.41441,0.0205 3.007782,0.0614 l 0.163688,-2.98732 h -9.698561 c -0.122766,2.59856 -0.347838,5.19712 -0.572911,7.77521 0.961672,-0.12276 1.943805,-0.22507 2.925938,-0.22507 1.023055,0 2.782709,0.10231 2.782709,1.55505 0,1.30951 -1.534582,1.80057 -2.61902,1.80057 -1.166283,0 -2.312105,-0.26599 -3.437465,-0.61383 l 0.286455,3.15101 c 1.207205,0.30691 2.455332,0.45014 3.72392,0.45014 5.442653,0 6.854469,-2.86455 6.854469,-4.80836 0,-2.84409 -2.516716,-3.86714 -4.992509,-3.86714 -0.368299,0 -0.736599,0.0205 -1.104899,0.0409 z"
         id="text23926"
         transform="matrix(1,0,0.05240778,1,-0.25547655,-0.02528481)"
         aria-label="5" />
      <path
         style="font-weight:bold;font-size:11.9944px;line-height:1.25;font-family:'ITC Eras Std';-inkscape-font-specification:'ITC Eras Std Bold';fill:#ffffff;stroke-width:0.537916"
         d="m 64.443833,252.74211 0.10795,-2.08702 h -2.218964 l -0.08396,2.08702 z"
         id="text43488"
         transform="matrix(1,0,0.05240778,1,-0.25547655,-0.02528481)"
         aria-label="." />
    </g>
    <path
       style="font-weight:500;font-size:4.23333px;line-height:1.25;font-family:'ITC Eras Std';-inkscape-font-specification:'ITC Eras Std Medium';letter-spacing:0px;word-spacing:-0.132292px;fill:#ffffff;stroke-width:0.0495763px"
       d="m 7.2937831,275.81534 h 0.6392328 l -0.0381,0.9652 c -0.2328331,0.0677 -0.4783662,0.10584 -0.719666,0.10584 -0.7069661,0 -1.1556991,-0.34714 -1.1556991,-1.09644 0,-0.68156 0.4444997,-1.25306 1.3207989,-1.25306 0.3047998,0 0.6011329,0.0677 0.8889993,0.16087 l -0.021167,-0.33444 c -0.2878664,-0.0677 -0.5841995,-0.11006 -0.8847659,-0.11006 -1.3673655,0 -1.6933319,0.9652 -1.6933319,1.54939 0,0.95674 0.6646328,1.36737 1.5493987,1.36737 0.3640664,0 0.7196661,-0.0635 1.0752658,-0.13547 0.016933,-0.69426 0.033867,-1.09643 0.0635,-1.49436 H 7.3064831 Z m 1.6552343,-1.51553 c -0.016933,0.94404 -0.0508,1.88383 -0.1227665,2.82363 h 0.372533 c 0.0127,-0.8001 0.0508,-1.59596 0.084667,-2.37913 h 0.00847 c 0.5122329,0.78317 1.0710331,1.56633 1.5790321,2.37913 h 0.4953 c 0.0254,-0.9398 0.05927,-1.88383 0.127,-2.82363 H 11.12072 c 0.0042,0.4953 -0.05503,1.61713 -0.08043,2.40877 h -0.0085 c -0.5207,-0.79587 -1.0794996,-1.5875 -1.5832659,-2.40877 z m 3.1707676,0 c -0.01693,0.6477 -0.08043,1.70603 -0.08043,1.9939 0,0.51647 0.3937,0.8763 1.172633,0.8763 0.990599,0 1.257299,-0.46143 1.274232,-1.03717 0.02117,-0.74083 0.06773,-1.28693 0.09737,-1.83303 h -0.4064 c -0.0042,0.4064 -0.0635,1.77377 -0.118533,2.04047 -0.08467,0.40216 -0.440267,0.5461 -0.8128,0.5461 -0.529166,0 -0.821266,-0.2159 -0.821266,-0.76624 0,-0.41063 0.05927,-1.21919 0.1016,-1.82033 z m 5.62927,1.51553 h 0.639233 l -0.0381,0.9652 c -0.232833,0.0677 -0.478367,0.10584 -0.719666,0.10584 -0.706966,0 -1.155699,-0.34714 -1.155699,-1.09644 0,-0.68156 0.444499,-1.25306 1.320798,-1.25306 0.3048,0 0.601133,0.0677 0.889,0.16087 l -0.02117,-0.33444 c -0.287866,-0.0677 -0.584199,-0.11006 -0.884766,-0.11006 -1.367365,0 -1.693332,0.9652 -1.693332,1.54939 0,0.95674 0.664633,1.36737 1.549399,1.36737 0.364066,0 0.719666,-0.0635 1.075266,-0.13547 0.01693,-0.69426 0.03387,-1.09643 0.0635,-1.49436 h -1.011766 z m 2.650066,-1.24036 c 0.198966,0 0.4445,0.0847 0.4445,0.42333 0,0.4191 -0.325967,0.5969 -0.702733,0.5969 -0.105833,0 -0.207433,-0.0127 -0.313267,-0.0296 l 0.07197,0.26246 c 0.110067,0.0169 0.220133,0.0296 0.3302,0.0296 0.537633,0 1.003299,-0.30057 1.003299,-0.88053 0,-0.24977 -0.131233,-0.67734 -0.7239,-0.67734 h -1.117599 c 0,0.3683 -0.02963,1.88807 -0.110066,2.82363 h 0.3937 c 0,-0.9779 0.04233,-1.76106 0.0762,-2.54846 z m 1.274229,-0.27517 c -0.0127,1.08797 -0.03387,1.8288 -0.122766,2.82363 h 1.756832 l 0.01693,-0.28786 c -0.08467,0.004 -0.334433,0.0127 -0.605366,0.0127 h -0.749299 c 0.0381,-1.0668 0.0762,-1.80763 0.118533,-2.54847 z m 3.357035,0.72814 -0.740833,1.78223 -0.592666,-1.78223 h -0.385233 l 0.757766,2.09549 h 0.4064 c 0.296333,-0.70696 0.618066,-1.40123 0.939799,-2.09549 z m 0.567268,2.03623 c 0.245533,0.0635 0.499533,0.10583 0.757766,0.10583 0.842432,0 1.142999,-0.4445 1.142999,-0.8509 0,-0.41063 -0.2667,-0.635 -0.630766,-0.65617 v -0.008 c 0.262466,-0.072 0.605366,-0.2413 0.605366,-0.7239 0,-0.5715 -0.5334,-0.67733 -0.994833,-0.67733 -0.215899,0 -0.431799,0.0296 -0.643466,0.0635 l -0.0508,0.2921 c 0.211667,-0.0635 0.4318,-0.0931 0.651933,-0.0931 0.3175,0 0.6223,0.0974 0.6223,0.46567 0,0.22437 -0.182034,0.54186 -0.757766,0.54186 -0.09313,0 -0.160867,-0.004 -0.2286,-0.0169 l -0.01693,0.2921 c 0.09737,-0.008 0.194734,-0.0127 0.2921,-0.0127 0.3429,0 0.762,0.0804 0.762,0.50377 0,0.42333 -0.3556,0.5969 -0.7747,0.5969 -0.270933,0 -0.524933,-0.0635 -0.766233,-0.15664 z"
       id="text45159"
       aria-label="GNU GPLv3" />
    <text
       xml:space="preserve"
       transform="matrix(0.26458333,0,0,0.26458333,-4.6433668,186.15341)"
       id="text181036"
       style="font-size:21.3333px;line-height:1.25;font-family:'Eras BQ';-inkscape-font-specification:'Eras BQ';white-space:pre;shape-inside:url(#rect181038);display:inline" />
    <path
       style="font-size:9.525px;line-height:1.25;font-family:'Eras Bold ITC';-inkscape-font-specification:'Eras Bold ITC';letter-spacing:-0.992188px;fill:#ffffff;stroke-width:0.537916;filter:url(#filter4749)"
       d="m 66.972844,252.72681 q 0.06046,-0.72089 0.153479,-2.33009 0.09302,-1.60921 0.10697,-2.30219 -0.172082,0.10697 -0.334863,0.21394 -0.162781,0.10232 -0.706934,0.493 0.02791,-0.39533 0.05116,-0.92553 0.02325,-0.53485 0.02325,-0.786 0.237195,-0.13487 0.534851,-0.32091 0.302307,-0.18603 0.36742,-0.23254 0.06976,-0.0512 0.204638,-0.15813 0.413929,0.009 0.953431,0.009 0.511596,0 1.046447,-0.009 l -0.09302,1.03714 -0.199988,3.44165 -0.04651,1.26504 v 0.60462 q -0.395325,-0.009 -0.962732,-0.009 -0.660425,0 -1.097607,0.009 z m 5.212084,0 q 0.06046,-0.72089 0.153479,-2.33009 0.09302,-1.60921 0.10697,-2.30219 -0.172082,0.10697 -0.334863,0.21394 -0.162781,0.10232 -0.706933,0.493 0.02791,-0.39533 0.05116,-0.92553 0.02326,-0.53485 0.02326,-0.786 0.237194,-0.13487 0.534851,-0.32091 0.302307,-0.18603 0.367419,-0.23254 0.06976,-0.0512 0.204639,-0.15813 0.413928,0.009 0.95343,0.009 0.511596,0 1.046448,-0.009 l -0.09302,1.03714 -0.199988,3.44165 -0.04651,1.26504 v 0.60462 q -0.395324,-0.009 -0.962731,-0.009 -0.660425,0 -1.097608,0.009 z"
       id="text40750-4"
       transform="matrix(1,0,0.05240778,1,-2.7623382,-2.1704388)"
       aria-label="11" />
  </g>
  <g
     inkscape:groupmode="layer"
     id="layer2"
     inkscape:label="Release type"
     style="display:inline">
    <path
       d="m 98.972311,268.50891 q 0.04582,-0.42443 0.07235,-0.76447 0.02653,-0.34003 0.04582,-0.78858 0.01929,-0.44855 0.02894,-0.94533 0.0096,-0.4992 0.0096,-0.79341 0.301445,0.007 0.487136,0.007 0.192926,0 0.470253,-0.01 0.27734,-0.0121 0.5402,-0.0121 0.30868,0 0.54983,0.0241 0.18087,0.0169 0.32798,0.0699 0.14951,0.0531 0.2508,0.13023 0.10129,0.0748 0.16881,0.16881 0.0675,0.0941 0.1037,0.22186 0.0386,0.1254 0.0386,0.2701 0,0.16157 -0.041,0.30385 -0.041,0.13988 -0.13022,0.26528 -0.0868,0.12299 -0.22186,0.21463 -0.13264,0.0892 -0.3738,0.18328 l 0.1254,0.30627 q 0.0531,0.12781 0.11335,0.26044 l 0.32315,0.70659 q 0.0217,0.0458 0.0772,0.18087 -0.39791,-0.005 -0.53537,-0.005 -0.17363,0 -0.56913,0.005 -0.0386,-0.1254 -0.13987,-0.46543 -0.041,-0.14228 -0.0699,-0.21945 -0.0579,-0.17123 -0.17122,-0.47991 l -0.24839,-0.68247 q 0.13023,0.0241 0.25563,0.0241 0.17604,0 0.31832,-0.0531 0.1447,-0.053 0.21705,-0.16398 0.0747,-0.11094 0.0747,-0.23393 0,-0.10369 -0.0555,-0.18086 -0.0555,-0.0796 -0.17605,-0.11817 -0.11816,-0.0386 -0.36655,-0.0386 -0.0844,0 -0.17605,0.005 -0.0892,0.002 -0.20981,0.005 -0.0314,0.49437 -0.0555,1.20578 -0.0241,0.71142 -0.03135,1.3963 -0.402731,-0.005 -0.52331,-0.005 -0.139871,0 -0.504017,0.005 z m 5.580519,-0.72829 q -0.0314,0.14469 -0.12058,0.69935 -0.27974,0.0555 -0.47026,0.0724 -0.19051,0.0193 -0.38585,0.0193 -0.28697,0 -0.52813,-0.041 -0.24116,-0.0386 -0.4172,-0.13988 -0.17363,-0.10128 -0.2918,-0.2508 -0.11817,-0.15193 -0.18087,-0.35932 -0.0603,-0.2074 -0.0603,-0.42685 0,-0.30868 0.12299,-0.60289 0.12299,-0.29662 0.31592,-0.46302 0.19534,-0.1664 0.44855,-0.23634 0.25321,-0.0699 0.51849,-0.0699 0.27492,0 0.52331,0.0651 0.2508,0.0627 0.42443,0.22187 0.17364,0.15916 0.24598,0.35932 0.0748,0.20016 0.0748,0.43167 0,0.13746 -0.0313,0.30627 l -1.69051,0.002 q -0.002,0.0386 -0.002,0.0699 0,0.26044 0.18569,0.38343 0.18569,0.12299 0.45338,0.12299 0.15916,0 0.36173,-0.0362 0.20498,-0.0386 0.50402,-0.12781 z m -1.48312,-0.78135 h 0.79582 q 0.002,-0.041 0.002,-0.0699 0,-0.1254 -0.0458,-0.21462 -0.0434,-0.0892 -0.12781,-0.13023 -0.082,-0.041 -0.18569,-0.041 -0.0724,0 -0.13987,0.0241 -0.0675,0.0217 -0.12299,0.0675 -0.0531,0.0434 -0.0892,0.10129 -0.0362,0.0579 -0.053,0.11334 -0.0169,0.0531 -0.0338,0.14952 z m 1.77025,1.50723 0.0434,-0.51849 0.094,-1.80144 0.0265,-0.96945 q 0.33521,0.005 0.50402,0.005 0.21945,0 0.48473,-0.005 l -0.0555,0.74035 -0.0892,1.82315 -0.0193,0.72829 q -0.25804,-0.005 -0.46543,-0.005 z m 3.67779,-0.72588 q -0.0314,0.14469 -0.12058,0.69935 -0.27974,0.0555 -0.47026,0.0724 -0.19051,0.0193 -0.38585,0.0193 -0.28697,0 -0.52813,-0.041 -0.24116,-0.0386 -0.4172,-0.13988 -0.17363,-0.10128 -0.2918,-0.2508 -0.11817,-0.15193 -0.18087,-0.35932 -0.0603,-0.2074 -0.0603,-0.42685 0,-0.30868 0.12299,-0.60289 0.12299,-0.29662 0.31592,-0.46302 0.19534,-0.1664 0.44855,-0.23634 0.25321,-0.0699 0.51849,-0.0699 0.27492,0 0.52331,0.0651 0.2508,0.0627 0.42443,0.22187 0.17364,0.15916 0.24598,0.35932 0.0748,0.20016 0.0748,0.43167 0,0.13746 -0.0314,0.30627 l -1.69051,0.002 q -0.002,0.0386 -0.002,0.0699 0,0.26044 0.18569,0.38343 0.18569,0.12299 0.45338,0.12299 0.15916,0 0.36173,-0.0362 0.20498,-0.0386 0.50402,-0.12781 z m -1.48312,-0.78135 h 0.79582 q 0.002,-0.041 0.002,-0.0699 0,-0.1254 -0.0458,-0.21462 -0.0434,-0.0892 -0.12781,-0.13023 -0.082,-0.041 -0.18569,-0.041 -0.0724,0 -0.13987,0.0241 -0.0675,0.0217 -0.12299,0.0675 -0.0531,0.0434 -0.0892,0.10129 -0.0362,0.0579 -0.053,0.11334 -0.0169,0.0531 -0.0338,0.14952 z m 2.00176,-0.2508 q 0.0458,-0.23875 0.0579,-0.32798 0.0121,-0.0916 0.0386,-0.28456 0.69453,-0.15193 1.19373,-0.15193 0.28456,0 0.52089,0.0651 0.23634,0.0627 0.36897,0.20499 0.13264,0.14228 0.13264,0.40755 0,0.13505 -0.0362,0.60772 -0.0362,0.47266 -0.0555,1.23954 -0.23633,-0.005 -0.47026,-0.005 -0.22668,0 -0.48231,0.005 0.0338,-0.26527 0.0748,-1.09485 -0.0916,0.0434 -0.14469,0.0627 -0.0506,0.0193 -0.18087,0.0579 -0.13023,0.0386 -0.20498,0.0651 -0.0724,0.0265 -0.12782,0.0675 -0.053,0.041 -0.0772,0.0844 -0.0217,0.0434 -0.0217,0.0965 0,0.082 0.0651,0.13987 0.0651,0.0579 0.20739,0.0579 0.0506,0 0.10853,-0.007 0.0579,-0.01 0.15916,-0.0434 -0.0699,0.18569 -0.1664,0.5426 -0.20739,0.0338 -0.39308,0.0338 -0.29904,0 -0.4992,-0.082 -0.19775,-0.0844 -0.30627,-0.2701 -0.10611,-0.18569 -0.10611,-0.37138 0,-0.11334 0.0386,-0.22186 0.041,-0.10852 0.1254,-0.21222 0.0844,-0.1037 0.19775,-0.17604 0.11334,-0.0748 0.30868,-0.13988 0.19775,-0.0651 0.49919,-0.12299 0.1254,-0.0241 0.2291,-0.0506 0.10611,-0.0289 0.14952,-0.0482 0.0458,-0.0217 0.0724,-0.0482 0.0289,-0.0289 0.041,-0.0579 0.0121,-0.0314 0.0121,-0.0651 0,-0.0916 -0.0772,-0.13987 -0.0772,-0.0506 -0.22669,-0.0506 -0.41479,0 -1.02491,0.23393 z m 2.50094,1.71462 q -0.01,-0.10611 -0.0193,-0.22186 -0.01,-0.11817 -0.0314,-0.32315 l -0.0193,-0.17364 q 0.23392,0.0916 0.40273,0.13746 0.16881,0.0434 0.31109,0.0434 0.11817,0 0.19052,-0.0217 0.0747,-0.0217 0.10852,-0.0627 0.0338,-0.041 0.0338,-0.0844 0,-0.0386 -0.0265,-0.0748 -0.0241,-0.0386 -0.11334,-0.10369 -0.19775,-0.1447 -0.34968,-0.26286 -0.14952,-0.11817 -0.22669,-0.20981 -0.0748,-0.0916 -0.11575,-0.19775 -0.0386,-0.10611 -0.0386,-0.21945 0,-0.20016 0.11335,-0.3738 0.11575,-0.17363 0.33762,-0.2508 0.22427,-0.0796 0.54501,-0.0796 0.33521,0 0.85611,0.0868 l 0.0386,0.67765 q -0.2918,-0.11576 -0.56189,-0.11576 -0.19052,0 -0.27733,0.0386 -0.0844,0.0386 -0.0844,0.11816 0,0.0265 0.01,0.0506 0.01,0.0241 0.0338,0.0506 0.0265,0.0265 0.0627,0.0555 0.0386,0.0265 0.18328,0.12781 0.14469,0.10128 0.22669,0.1664 0.13504,0.10611 0.20498,0.19775 0.0724,0.0892 0.10852,0.19292 0.0386,0.10129 0.0386,0.21463 0,0.17122 -0.0844,0.31592 -0.082,0.14228 -0.2508,0.23874 -0.1664,0.0965 -0.36174,0.13264 -0.19533,0.0386 -0.40273,0.0386 -0.13987,0 -0.35209,-0.0241 -0.2098,-0.0241 -0.48955,-0.0844 z m 4.54837,-0.68247 q -0.0314,0.14469 -0.12058,0.69935 -0.27974,0.0555 -0.47025,0.0724 -0.19052,0.0193 -0.38585,0.0193 -0.28698,0 -0.52814,-0.041 -0.24115,-0.0386 -0.4172,-0.13988 -0.17363,-0.10128 -0.2918,-0.2508 -0.11817,-0.15193 -0.18087,-0.35932 -0.0603,-0.2074 -0.0603,-0.42685 0,-0.30868 0.12299,-0.60289 0.12299,-0.29662 0.31592,-0.46302 0.19534,-0.1664 0.44855,-0.23634 0.25322,-0.0699 0.51849,-0.0699 0.27492,0 0.52331,0.0651 0.2508,0.0627 0.42443,0.22187 0.17364,0.15916 0.24598,0.35932 0.0748,0.20016 0.0748,0.43167 0,0.13746 -0.0314,0.30627 l -1.69051,0.002 q -0.002,0.0386 -0.002,0.0699 0,0.26044 0.18569,0.38343 0.18569,0.12299 0.45338,0.12299 0.15916,0 0.36173,-0.0362 0.20499,-0.0386 0.50402,-0.12781 z m -1.48311,-0.78135 h 0.79581 q 0.002,-0.041 0.002,-0.0699 0,-0.1254 -0.0458,-0.21462 -0.0434,-0.0892 -0.12782,-0.13023 -0.082,-0.041 -0.18569,-0.041 -0.0724,0 -0.13987,0.0241 -0.0675,0.0217 -0.12299,0.0675 -0.0531,0.0434 -0.0892,0.10129 -0.0362,0.0579 -0.0531,0.11334 -0.0169,0.0531 -0.0338,0.14952 z m 5.64578,0.70659 q -0.0289,0.14228 -0.0699,0.39791 -0.041,0.25321 -0.0555,0.39308 -0.51608,0.0748 -0.92122,0.0748 -0.39068,0 -0.7283,-0.0965 -0.3352,-0.0989 -0.61736,-0.32074 -0.27974,-0.22428 -0.40032,-0.52572 -0.12058,-0.30145 -0.12058,-0.67524 0,-0.43649 0.16158,-0.78376 0.16399,-0.34968 0.46784,-0.58119 0.30627,-0.23392 0.67042,-0.33279 0.36415,-0.10129 0.75241,-0.10129 0.35691,0 0.88263,0.0916 l 0.005,0.20257 q 0.005,0.13264 0.0145,0.2918 l 0.0169,0.27492 q -0.28216,-0.0675 -0.4582,-0.0916 -0.17364,-0.0241 -0.32315,-0.0241 -0.32556,0 -0.58601,0.13022 -0.26045,0.13022 -0.40997,0.37862 -0.14952,0.24839 -0.14952,0.54983 0,0.27492 0.1254,0.47267 0.12541,0.19534 0.33762,0.30386 0.21463,0.10611 0.52814,0.10611 0.17122,0 0.37138,-0.0265 0.20257,-0.0289 0.50643,-0.10852 z m 0.41494,-0.95739 q 0.0458,-0.23875 0.0579,-0.32798 0.012,-0.0916 0.0386,-0.28456 0.69453,-0.15193 1.19373,-0.15193 0.28456,0 0.5209,0.0651 0.23633,0.0627 0.36897,0.20499 0.13263,0.14228 0.13263,0.40755 0,0.13505 -0.0362,0.60772 -0.0362,0.47266 -0.0555,1.23954 -0.23633,-0.005 -0.47025,-0.005 -0.22669,0 -0.48232,0.005 0.0338,-0.26527 0.0748,-1.09485 -0.0916,0.0434 -0.14469,0.0627 -0.0506,0.0193 -0.18087,0.0579 -0.13022,0.0386 -0.20498,0.0651 -0.0724,0.0265 -0.12782,0.0675 -0.053,0.041 -0.0772,0.0844 -0.0217,0.0434 -0.0217,0.0965 0,0.082 0.0651,0.13987 0.0651,0.0579 0.2074,0.0579 0.0506,0 0.10852,-0.007 0.0579,-0.01 0.15916,-0.0434 -0.0699,0.18569 -0.1664,0.5426 -0.20739,0.0338 -0.39308,0.0338 -0.29904,0 -0.4992,-0.082 -0.19775,-0.0844 -0.30627,-0.2701 -0.10611,-0.18569 -0.10611,-0.37138 0,-0.11334 0.0386,-0.22186 0.041,-0.10852 0.1254,-0.21222 0.0844,-0.1037 0.19775,-0.17604 0.11334,-0.0748 0.30868,-0.13988 0.19775,-0.0651 0.49919,-0.12299 0.12541,-0.0241 0.2291,-0.0506 0.10611,-0.0289 0.14952,-0.0482 0.0458,-0.0217 0.0724,-0.0482 0.0289,-0.0289 0.041,-0.0579 0.0121,-0.0314 0.0121,-0.0651 0,-0.0916 -0.0772,-0.13987 -0.0772,-0.0506 -0.22669,-0.0506 -0.41478,0 -1.02491,0.23393 z m 2.49612,1.76044 q 0.0699,-0.54742 0.10611,-1.20819 0.0386,-0.66319 0.0458,-1.25402 0.28939,0.005 0.4992,0.005 0.24356,0 0.46784,-0.005 l -0.0241,0.32797 q 0.0796,-0.0892 0.13746,-0.13987 0.0579,-0.053 0.14229,-0.10128 0.0868,-0.0506 0.18328,-0.082 0.0965,-0.0313 0.2098,-0.0482 0.11576,-0.0193 0.24116,-0.0193 0.17363,0 0.33762,0.0386 0.1664,0.0362 0.27733,0.1061 0.11093,0.0675 0.18569,0.17123 0.0748,0.10128 0.0989,0.21945 0.0241,0.11816 0.0241,0.24357 0,0.0916 -0.0193,0.39549 l -0.041,0.87299 q -0.0121,0.25804 -0.0121,0.47749 -0.24357,-0.005 -0.45578,-0.005 -0.28698,0 -0.52331,0.005 0.0217,-0.21945 0.0458,-0.65112 0.0241,-0.43408 0.0241,-0.61013 0,-0.27251 -0.10611,-0.37861 -0.1037,-0.10853 -0.26286,-0.10853 -0.13987,0 -0.26527,0.0916 -0.12299,0.0916 -0.19052,0.26769 -0.0675,0.17363 -0.0965,0.57395 -0.0265,0.40032 -0.0362,0.81511 -0.24116,-0.005 -0.47026,-0.005 -0.24115,0 -0.52331,0.005 z m 5.85303,0 q -0.25804,-0.005 -0.42926,-0.005 -0.19293,0 -0.46784,0.005 l 0.0145,-0.30627 q -0.0941,0.0916 -0.16399,0.14952 -0.0699,0.0555 -0.18087,0.10852 -0.10852,0.053 -0.23633,0.082 -0.1254,0.0289 -0.26045,0.0289 -0.23151,0 -0.43408,-0.0844 -0.20016,-0.0844 -0.34245,-0.23875 -0.14228,-0.15675 -0.21221,-0.36897 -0.0699,-0.21463 -0.0699,-0.44373 0,-0.32556 0.12781,-0.63665 0.12782,-0.31109 0.3328,-0.48955 0.20739,-0.17845 0.46543,-0.2508 0.26045,-0.0748 0.5619,-0.0748 0.20016,0 0.46784,0.0362 0.0193,-0.28697 0.0265,-0.80305 0.29662,0.005 0.48472,0.005 0.24357,0 0.49196,-0.005 -0.0699,0.71624 -0.12299,1.74839 -0.053,1.03215 -0.053,1.5434 z m -0.86093,-1.86173 q -0.12781,-0.0289 -0.24116,-0.0289 -0.23392,0 -0.39791,0.0916 -0.16398,0.0892 -0.25321,0.28216 -0.0868,0.19051 -0.0868,0.3762 0,0.13987 0.0482,0.25321 0.0507,0.11094 0.15193,0.17605 0.1037,0.0651 0.2291,0.0651 0.13264,0 0.24116,-0.0748 0.11093,-0.0748 0.17845,-0.21945 0.0699,-0.14469 0.0941,-0.34244 0.0265,-0.20016 0.0362,-0.57878 z m 1.29757,-0.90675 q 0.0145,-0.28697 0.0145,-0.45337 0,-0.0482 -0.002,-0.13023 0.2918,0.005 0.48955,0.005 0.27251,0 0.47749,-0.005 -0.007,0.0748 -0.01,0.1254 l -0.0145,0.29904 q -0.005,0.0675 -0.005,0.15916 -0.23874,-0.005 -0.4582,-0.005 -0.22668,0 -0.49196,0.005 z m -0.15193,2.76848 q 0.0338,-0.29421 0.0507,-0.48472 0.0169,-0.19052 0.0313,-0.48714 0.0169,-0.29662 0.0289,-0.65595 0.0121,-0.35932 0.0193,-0.8344 0.3135,0.005 0.50161,0.005 0.17122,0 0.49196,-0.005 -0.041,0.45579 -0.0603,0.80064 -0.0169,0.34486 -0.0217,0.73071 -0.01,0.68488 -0.01,0.93086 -0.28698,-0.005 -0.49438,-0.005 -0.20498,0 -0.53778,0.005 z m 4.02747,0 q -0.25803,-0.005 -0.42926,-0.005 -0.19292,0 -0.46784,0.005 l 0.0145,-0.30627 q -0.0941,0.0916 -0.16399,0.14952 -0.0699,0.0555 -0.18086,0.10852 -0.10852,0.053 -0.23634,0.082 -0.1254,0.0289 -0.26045,0.0289 -0.23151,0 -0.43408,-0.0844 -0.20016,-0.0844 -0.34244,-0.23875 -0.14228,-0.15675 -0.21222,-0.36897 -0.0699,-0.21463 -0.0699,-0.44373 0,-0.32556 0.12781,-0.63665 0.12781,-0.31109 0.33279,-0.48955 0.2074,-0.17845 0.46544,-0.2508 0.26045,-0.0748 0.56189,-0.0748 0.20016,0 0.46785,0.0362 0.0193,-0.28697 0.0265,-0.80305 0.29663,0.005 0.48473,0.005 0.24357,0 0.49196,-0.005 -0.0699,0.71624 -0.12299,1.74839 -0.0531,1.03215 -0.0531,1.5434 z m -0.86093,-1.86173 q -0.12781,-0.0289 -0.24115,-0.0289 -0.23392,0 -0.39791,0.0916 -0.16399,0.0892 -0.25322,0.28216 -0.0868,0.19051 -0.0868,0.3762 0,0.13987 0.0482,0.25321 0.0506,0.11094 0.15193,0.17605 0.1037,0.0651 0.2291,0.0651 0.13263,0 0.24115,-0.0748 0.11094,-0.0748 0.17846,-0.21945 0.0699,-0.14469 0.094,-0.34244 0.0265,-0.20016 0.0362,-0.57878 z m 1.3868,0.10129 q 0.0458,-0.23875 0.0579,-0.32798 0.0121,-0.0916 0.0386,-0.28456 0.69453,-0.15193 1.19372,-0.15193 0.28457,0 0.5209,0.0651 0.23634,0.0627 0.36897,0.20499 0.13264,0.14228 0.13264,0.40755 0,0.13505 -0.0362,0.60772 -0.0362,0.47266 -0.0555,1.23954 -0.23634,-0.005 -0.47026,-0.005 -0.22668,0 -0.48231,0.005 0.0338,-0.26527 0.0748,-1.09485 -0.0916,0.0434 -0.1447,0.0627 -0.0506,0.0193 -0.18086,0.0579 -0.13023,0.0386 -0.20499,0.0651 -0.0723,0.0265 -0.12781,0.0675 -0.0531,0.041 -0.0772,0.0844 -0.0217,0.0434 -0.0217,0.0965 0,0.082 0.0651,0.13987 0.0651,0.0579 0.20739,0.0579 0.0506,0 0.10852,-0.007 0.0579,-0.01 0.15917,-0.0434 -0.0699,0.18569 -0.1664,0.5426 -0.2074,0.0338 -0.39309,0.0338 -0.29903,0 -0.49919,-0.082 -0.19775,-0.0844 -0.30627,-0.2701 -0.10611,-0.18569 -0.10611,-0.37138 0,-0.11334 0.0386,-0.22186 0.041,-0.10852 0.1254,-0.21222 0.0844,-0.1037 0.19775,-0.17604 0.11334,-0.0748 0.30868,-0.13988 0.19774,-0.0651 0.49919,-0.12299 0.1254,-0.0241 0.2291,-0.0506 0.10611,-0.0289 0.14952,-0.0482 0.0458,-0.0217 0.0723,-0.0482 0.0289,-0.0289 0.041,-0.0579 0.0121,-0.0314 0.0121,-0.0651 0,-0.0916 -0.0772,-0.13987 -0.0772,-0.0506 -0.22669,-0.0506 -0.41479,0 -1.02492,0.23393 z m 4.31445,1.05144 q -0.0434,0.20257 -0.0748,0.3955 l -0.0531,0.29421 q -0.23875,0.053 -0.37379,0.0675 -0.13264,0.0145 -0.25804,0.0145 -0.20498,0 -0.36415,-0.0362 -0.15916,-0.0338 -0.26527,-0.1254 -0.10611,-0.094 -0.14469,-0.21463 -0.0386,-0.12058 -0.0386,-0.25563 0,-0.0241 0.002,-0.0844 0.002,-0.0627 0.0169,-0.27492 l 0.0531,-0.8344 h -0.37621 q 0.0121,-0.1664 0.0217,-0.43891 l 0.007,-0.22428 h 0.40032 q 0.0145,-0.11093 0.0362,-0.48472 l 0.41237,-0.0844 q 0.11335,-0.0217 0.48232,-0.11093 -0.0169,0.31592 -0.0241,0.68006 h 0.54984 q -0.0193,0.50161 -0.0193,0.66319 H 137.6 l -0.0289,0.60289 q -0.005,0.13504 -0.005,0.17363 0,0.11576 0.0241,0.19293 0.0265,0.0772 0.0892,0.11093 0.0651,0.0338 0.14228,0.0338 0.0579,0 0.12058,-0.007 0.0627,-0.01 0.22186,-0.053 z m 2.45272,-0.0193 q -0.0314,0.14469 -0.12058,0.69935 -0.27974,0.0555 -0.47026,0.0724 -0.19051,0.0193 -0.38585,0.0193 -0.28697,0 -0.52813,-0.041 -0.24116,-0.0386 -0.4172,-0.13988 -0.17363,-0.10128 -0.2918,-0.2508 -0.11817,-0.15193 -0.18087,-0.35932 -0.0603,-0.2074 -0.0603,-0.42685 0,-0.30868 0.12299,-0.60289 0.12299,-0.29662 0.31592,-0.46302 0.19534,-0.1664 0.44855,-0.23634 0.25321,-0.0699 0.51849,-0.0699 0.27492,0 0.52331,0.0651 0.2508,0.0627 0.42443,0.22187 0.17364,0.15916 0.24598,0.35932 0.0748,0.20016 0.0748,0.43167 0,0.13746 -0.0314,0.30627 l -1.69051,0.002 q -0.002,0.0386 -0.002,0.0699 0,0.26044 0.18569,0.38343 0.18569,0.12299 0.45338,0.12299 0.15916,0 0.36173,-0.0362 0.20498,-0.0386 0.50402,-0.12781 z m -1.48312,-0.78135 h 0.79582 q 0.002,-0.041 0.002,-0.0699 0,-0.1254 -0.0458,-0.21462 -0.0434,-0.0892 -0.12781,-0.13023 -0.082,-0.041 -0.18569,-0.041 -0.0724,0 -0.13987,0.0241 -0.0675,0.0217 -0.12299,0.0675 -0.0531,0.0434 -0.0892,0.10129 -0.0362,0.0579 -0.0531,0.11334 -0.0169,0.0531 -0.0338,0.14952 z m 3.76235,1.50964 q 0.0314,-0.37379 0.0796,-1.20819 0.0482,-0.83441 0.0555,-1.19373 -0.0892,0.0555 -0.17363,0.11093 -0.0844,0.0531 -0.36656,0.25563 0.0145,-0.20498 0.0265,-0.4799 0.012,-0.27733 0.012,-0.40756 0.12299,-0.0699 0.27733,-0.1664 0.15676,-0.0965 0.19052,-0.12058 0.0362,-0.0265 0.10611,-0.082 0.21463,0.005 0.49437,0.005 0.26527,0 0.5426,-0.005 l -0.0482,0.53778 -0.1037,1.78456 -0.0241,0.65595 v 0.3135 q -0.20499,-0.005 -0.4992,-0.005 -0.34244,0 -0.56913,0.005 z"
       id="text119139"
       style="font-size:4.93889px;line-height:1.25;font-family:'Eras Bold ITC';-inkscape-font-specification:'Eras Bold ITC';text-align:end;letter-spacing:-0.243417px;text-anchor:end;display:inline;fill:#ffffff;stroke-width:0.211231;filter:url(#filter4749-3-2-3)"
       transform="matrix(1,0,0.05240778,1,-5.5835665,-177.49225)"
       aria-label="Release Candidate 1" />
  </g>
</svg>
