<?xml version="1.0" encoding="UTF-8" standalone="no"?>
<!-- Created with Inkscape (http://www.inkscape.org/) -->

<svg
   xmlns:dc="http://purl.org/dc/elements/1.1/"
   xmlns:cc="http://creativecommons.org/ns#"
   xmlns:rdf="http://www.w3.org/1999/02/22-rdf-syntax-ns#"
   xmlns:svg="http://www.w3.org/2000/svg"
   xmlns="http://www.w3.org/2000/svg"
   xmlns:sodipodi="http://sodipodi.sourceforge.net/DTD/sodipodi-0.dtd"
   xmlns:inkscape="http://www.inkscape.org/namespaces/inkscape"
   width="24px"
   height="24px"
   viewBox="0 0 24 24"
   version="1.1"
   id="SVGRoot"
   inkscape:export-filename="/tmp/template.png"
   inkscape:export-xdpi="96"
   inkscape:export-ydpi="96"
   inkscape:version="0.92.2 2405546, 2018-03-11"
   sodipodi:docname="closedhand.svg">
  <sodipodi:namedview
     id="base"
     pagecolor="#E0E1E2"
     bordercolor="#666768"
     borderopacity="1.0"
     inkscape:pageopacity="0"
     inkscape:pageshadow="2"
     inkscape:zoom="34.25"
     inkscape:cx="12"
     inkscape:cy="12"
     inkscape:document-units="px"
     inkscape:current-layer="layer1"
     showgrid="true"
     inkscape:window-width="1920"
     inkscape:window-height="1019"
     inkscape:window-x="0"
     inkscape:window-y="0"
     inkscape:window-maximized="1"
     inkscape:grid-bbox="true"
     inkscape:pagecheckerboard="false"
     inkscape:snap-bbox="true"
     inkscape:bbox-nodes="true"
     inkscape:snap-others="false"
     inkscape:object-nodes="false"
     inkscape:snap-grids="true"
     inkscape:snap-bbox-midpoints="false"
     inkscape:snap-bbox-edge-midpoints="false"
     inkscape:bbox-paths="false"
     inkscape:object-paths="false"
     inkscape:snap-intersection-paths="false"
     inkscape:snap-smooth-nodes="false"
     inkscape:snap-global="false">
    <inkscape:grid
       type="xygrid"
       id="grid1374"
       originx="1"
       originy="1"
       empspacing="11"
       dotted="false" />
  </sodipodi:namedview>
  <defs
     id="defs815" />
  <metadata
     id="metadata818">
    <rdf:RDF>
      <cc:Work
         rdf:about="">
        <dc:format>image/svg+xml</dc:format>
        <dc:type
           rdf:resource="http://purl.org/dc/dcmitype/StillImage" />
        <dc:title />
        <dc:creator>
          <cc:Agent>
            <dc:title>Maciej Dworak</dc:title>
          </cc:Agent>
        </dc:creator>
        <dc:rights>
          <cc:Agent>
            <dc:title />
          </cc:Agent>
        </dc:rights>
        <dc:description>RawTherapee icon.</dc:description>
        <cc:license
           rdf:resource="http://creativecommons.org/licenses/by-sa/4.0/" />
      </cc:Work>
      <cc:License
         rdf:about="http://creativecommons.org/licenses/by-sa/4.0/">
        <cc:permits
           rdf:resource="http://creativecommons.org/ns#Reproduction" />
        <cc:permits
           rdf:resource="http://creativecommons.org/ns#Distribution" />
        <cc:requires
           rdf:resource="http://creativecommons.org/ns#Notice" />
        <cc:requires
           rdf:resource="http://creativecommons.org/ns#Attribution" />
        <cc:permits
           rdf:resource="http://creativecommons.org/ns#DerivativeWorks" />
        <cc:requires
           rdf:resource="http://creativecommons.org/ns#ShareAlike" />
      </cc:License>
    </rdf:RDF>
  </metadata>
  <g
     id="layer1"
     inkscape:groupmode="layer"
     inkscape:label="Layer 1">
    <path
       style="opacity:0.7;fill:#2a7fff;fill-opacity:1;stroke:none;stroke-width:1;stroke-linecap:square;stroke-linejoin:miter;stroke-miterlimit:4;stroke-dasharray:none;stroke-opacity:1;paint-order:markers fill stroke"
       d="m -21.536476,1.0000009 c -0.948269,0 -1.711674,0.8514544 -1.711674,1.9090908 0.01811,4.6864694 -0.02651,9.3831233 -0.256039,9.7173823 -0.229526,0.334261 -0.233012,-3.6963562 -0.233012,-7.7173825 0,-1.0576364 -0.763408,-1.9090908 -1.711676,-1.9090908 -0.948268,0 -1.711675,0.8514544 -1.711675,1.9090908 -0.03174,1.2281341 -0.01132,11.7217645 -0.01132,11.7217645 -0.439107,-0.840301 -0.784718,-1.854028 -1.095713,-2.903012 -0.310995,-1.048985 -0.357586,-2.521874 -0.658227,-3.503208 -0.306583,-1.0008337 -1.07076,-1.4553855 -1.9681,-1.1134432 -0.89734,0.3419431 -1.228292,1.3692982 -1.066613,2.4240062 l 0.585636,3.68557 1.020347,3.373111 C -30.053221,19.66255 -29.295309,23 -27.933607,23 h 13.232052 C -12.479914,22.131719 -12.009936,18.517544 -12,16.90909 V 8.9090913 c 0,-1.0576365 -0.763406,-1.9090909 -1.711674,-1.9090909 -0.948269,0 -1.711676,0.8514544 -1.711676,1.9090909 0.0066,2.6725927 -0.0095,5.3480947 -0.248805,4.6824467 -0.239272,-0.665649 -0.240245,-4.6755439 -0.240245,-8.6824465 0,-1.0576364 -0.763407,-1.9090908 -1.711674,-1.9090908 -0.948269,0 -1.711676,0.8514544 -1.711676,1.9090908 0.01256,4.0128995 -0.01836,8.0322495 -0.252704,7.6998675 -0.234347,-0.332384 -0.236347,-5.019198 -0.236347,-9.6998673 0,-1.0576364 -0.763407,-1.9090908 -1.711675,-1.9090908 z"
       id="rect2901"
       inkscape:connector-curvature="0"
       sodipodi:nodetypes="scccsccscscccsccsscccscccs" />
    <path
       style="opacity:0.7;fill:#2a7fff;fill-opacity:1;stroke:none;stroke-width:1;stroke-linecap:square;stroke-linejoin:miter;stroke-miterlimit:4;stroke-dasharray:none;stroke-opacity:1;paint-order:markers fill stroke"
       d="m 11.982439,1.0038715 c -0.305701,-0.0287868 -0.645465,0.1061424 -0.851638,0.3011856 -0.149651,0.2515657 -0.328864,0.547698 -0.327733,1.0551393 0.0011,0.4953587 0.518844,2.299205 0.723292,3.3335933 0.204448,1.0343882 0.07745,1.8272773 -0.05795,2.1862165 C 11.139139,6.6955599 10.39217,5.4912469 10.224559,5.200937 9.6231564,4.1592747 8.9623195,3.2790878 8.3880578,2.844859 8.0449444,2.738588 7.7100829,2.6987645 7.3197924,2.7901588 7.0733845,2.9295135 6.8813886,3.1658804 6.7562524,3.4496208 6.50598,4.0171016 6.5239212,4.7725187 6.9061297,5.3101031 c 0.543132,0.7639223 1.0481715,1.8152984 1.4821634,2.6500533 0.433993,0.8347549 0.683015,1.2942218 0.8487985,2.2275746 0.018212,0.589136 0.070987,1.002911 -0.058812,1.253369 -0.1298049,0.250459 -0.329933,0.495485 -0.58752,1.061135 C 8.426493,12.770682 8.1875767,12.903742 7.9193079,12.933883 7.6510391,12.964025 7.3541595,12.891074 7.0779939,12.748034 6.5412886,12.258837 6.328125,12 6.0468356,11.30721 5.9597028,10.77514 5.8047987,10.113055 5.519266,9.6565569 5.3764986,9.4283076 5.2011618,9.2507715 4.9857006,9.1669563 4.7702394,9.0831406 4.5138864,9.0925865 4.2103337,9.2368988 3.6672427,9.5394191 3.3775764,10.066701 3.2750961,10.639754 c -0.1024802,0.573054 -0.018427,1.192255 0.187847,1.682628 0.4270488,1.015204 0.5841992,1.298821 0.9426652,1.966161 0.358466,0.66734 1.4015164,1.480334 2.0110693,2.294435 0.348528,0.465484 0.710243,0.936453 0.9350928,1.472726 0.3300113,0.787087 0.6491994,1.659312 0.5795269,2.493966 -0.025886,0.342506 0.047035,0.654105 0.1878471,0.93124 0.14081,0.277135 0.3501977,0.519521 0.6015096,0.721412 0.5026228,0.40378 1.1690919,0.647873 1.77655,0.691436 1.059815,0.146065 2.1364,0.135222 3.197392,0.006 0.646932,-0.06502 1.380428,-0.131812 2.032342,-0.347716 0.651913,-0.215904 1.223175,-0.580616 1.548736,-1.240987 0.134173,-1.471744 0.292555,-2.6481 0.539559,-3.804896 0.247006,-1.156796 0.582355,-2.294253 1.071127,-3.690989 0.653169,-2.077226 1.504491,-4.7977826 1.86397,-6.9576177 C 20.82303,6.3494939 20.68024,5.9240884 20.288707,5.4746385 20.092936,5.2499495 19.854364,5.1027539 19.589277,5.1049761 19.32419,5.1071964 19.033218,5.2578426 18.729978,5.6285489 18.305437,6.4714085 18.261532,7.7364883 18.089007,7.6781709 17.916481,7.6198535 17.773699,5.9679366 17.703203,5.4511651 17.632707,4.9343937 17.349761,4.2990425 17.231314,3.7665395 16.796341,2.5670717 16.292718,2.4851834 15.976337,2.3796709 15.557231,2.2398997 15.094518,2.3131181 14.920689,2.4171893 14.153556,2.8764718 15.060593,5.9790574 15.009521,7.4303729 14.482764,6.7055933 14.46823,3.4450016 13.269058,1.7307099 12.748154,1.2599106 12.593844,1.0614499 11.982441,1.0038714 Z"
       id="path2954"
       inkscape:connector-curvature="0"
       sodipodi:nodetypes="ccsscsccscccccccccccscsaacccccccsccscccscsscccc" />
  </g>
</svg>
