<?xml version="1.0" encoding="UTF-8" standalone="no"?>
<!-- Created with Inkscape (http://www.inkscape.org/) -->

<svg
   xmlns:dc="http://purl.org/dc/elements/1.1/"
   xmlns:cc="http://creativecommons.org/ns#"
   xmlns:rdf="http://www.w3.org/1999/02/22-rdf-syntax-ns#"
   xmlns:svg="http://www.w3.org/2000/svg"
   xmlns="http://www.w3.org/2000/svg"
   xmlns:sodipodi="http://sodipodi.sourceforge.net/DTD/sodipodi-0.dtd"
   xmlns:inkscape="http://www.inkscape.org/namespaces/inkscape"
   width="24px"
   height="24px"
   viewBox="0 0 24 24"
   version="1.1"
   id="SVGRoot"
   inkscape:export-filename="/tmp/template.png"
   inkscape:export-xdpi="96"
   inkscape:export-ydpi="96"
   inkscape:version="0.92.2 2405546, 2018-03-11"
   sodipodi:docname="crosshair1-adjust.svg">
  <sodipodi:namedview
     id="base"
     pagecolor="#E0E1E2"
     bordercolor="#666768"
     borderopacity="1.0"
     inkscape:pageopacity="0"
     inkscape:pageshadow="2"
     inkscape:zoom="33.833333"
     inkscape:cx="12"
     inkscape:cy="12"
     inkscape:document-units="px"
     inkscape:current-layer="layer1"
     showgrid="true"
     inkscape:window-width="1920"
     inkscape:window-height="1019"
     inkscape:window-x="0"
     inkscape:window-y="0"
     inkscape:window-maximized="1"
     inkscape:grid-bbox="true"
     inkscape:pagecheckerboard="false"
     inkscape:snap-bbox="true"
     inkscape:bbox-nodes="true"
     inkscape:snap-others="false"
     inkscape:object-nodes="false"
     inkscape:snap-grids="true"
     inkscape:snap-bbox-midpoints="false">
    <inkscape:grid
       type="xygrid"
       id="grid1374"
       originx="1"
       originy="1"
       empspacing="11"
       dotted="false" />
  </sodipodi:namedview>
  <defs
     id="defs815" />
  <metadata
     id="metadata818">
    <rdf:RDF>
      <cc:Work
         rdf:about="">
        <dc:format>image/svg+xml</dc:format>
        <dc:type
           rdf:resource="http://purl.org/dc/dcmitype/StillImage" />
        <dc:title></dc:title>
        <dc:creator>
          <cc:Agent>
            <dc:title>Maciej Dworak</dc:title>
          </cc:Agent>
        </dc:creator>
        <dc:rights>
          <cc:Agent>
            <dc:title />
          </cc:Agent>
        </dc:rights>
        <dc:description>RawTherapee icon.</dc:description>
        <cc:license
           rdf:resource="http://creativecommons.org/licenses/by-sa/4.0/" />
      </cc:Work>
      <cc:License
         rdf:about="http://creativecommons.org/licenses/by-sa/4.0/">
        <cc:permits
           rdf:resource="http://creativecommons.org/ns#Reproduction" />
        <cc:permits
           rdf:resource="http://creativecommons.org/ns#Distribution" />
        <cc:requires
           rdf:resource="http://creativecommons.org/ns#Notice" />
        <cc:requires
           rdf:resource="http://creativecommons.org/ns#Attribution" />
        <cc:permits
           rdf:resource="http://creativecommons.org/ns#DerivativeWorks" />
        <cc:requires
           rdf:resource="http://creativecommons.org/ns#ShareAlike" />
      </cc:License>
    </rdf:RDF>
  </metadata>
  <g
     id="layer1"
     inkscape:groupmode="layer"
     inkscape:label="Layer 1">
    <g
       id="g3653"
       transform="translate(-23.5,-0.5)">
      <path
         id="rect1440"
         d="M 35.5,2 C 34.669,2 34,2.669 34,3.5 v 7.007812 C 34.418164,10.19301 34.933952,10 35.5,10 c 0.566048,0 1.081836,0.19301 1.5,0.507812 V 3.5 C 37,2.669 36.331,2 35.5,2 Z m -9,9 c -0.831,0 -1.5,0.669 -1.5,1.5 0,0.831 0.669,1.5 1.5,1.5 h 7.007812 C 33.19301,13.581836 33,13.066048 33,12.5 33,11.933952 33.19301,11.418164 33.507812,11 Z m 10.992188,0 C 37.80699,11.418164 38,11.933952 38,12.5 38,13.066048 37.80699,13.581836 37.492188,14 H 44.5 C 45.331,14 46,13.331 46,12.5 46,11.669 45.331,11 44.5,11 Z M 34,14.492188 V 21.5 c 0,0.831 0.669,1.5 1.5,1.5 0.831,0 1.5,-0.669 1.5,-1.5 V 14.492188 C 36.581836,14.80699 36.066048,15 35.5,15 34.933952,15 34.418164,14.80699 34,14.492188 Z"
         style="opacity:0.3;fill:#2a7fff;fill-opacity:1;stroke:none;stroke-width:1;stroke-linecap:butt;stroke-linejoin:miter;stroke-miterlimit:4;stroke-dasharray:none;stroke-opacity:1;paint-order:normal"
         inkscape:connector-curvature="0" />
      <path
         id="path1481"
         d="m 35.5,1.5 c -1.099351,0 -2,0.900649 -2,2 v 7 h -7 c -1.099351,0 -2,0.900649 -2,2 0,1.099351 0.900649,2 2,2 h 7 v 7 c 0,1.099351 0.900649,2 2,2 1.099351,0 2,-0.900649 2,-2 v -7 h 7 c 1.099351,0 2,-0.900649 2,-2 0,-1.099351 -0.900649,-2 -2,-2 h -7 v -7 c 0,-1.099351 -0.900649,-2 -2,-2 z m 0,1 c 0.562649,0 1,0.437351 1,1 v 6.708984 c 0.577268,0.251335 1.039681,0.713748 1.291016,1.291016 H 44.5 c 0.562649,0 1,0.437351 1,1 0,0.562649 -0.437351,1 -1,1 H 37.791016 C 37.539681,14.077268 37.077268,14.539681 36.5,14.791016 V 21.5 c 0,0.562649 -0.437351,1 -1,1 -0.562649,0 -1,-0.437351 -1,-1 V 14.791016 C 33.922732,14.539681 33.460319,14.077268 33.208984,13.5 H 26.5 c -0.562649,0 -1,-0.437351 -1,-1 0,-0.562649 0.437351,-1 1,-1 h 6.708984 C 33.460319,10.922732 33.922732,10.460319 34.5,10.208984 V 3.5 c 0,-0.562649 0.437351,-1 1,-1 z"
         style="color:#000000;font-style:normal;font-variant:normal;font-weight:normal;font-stretch:normal;font-size:medium;line-height:normal;font-family:sans-serif;font-variant-ligatures:normal;font-variant-position:normal;font-variant-caps:normal;font-variant-numeric:normal;font-variant-alternates:normal;font-feature-settings:normal;text-indent:0;text-align:start;text-decoration:none;text-decoration-line:none;text-decoration-style:solid;text-decoration-color:#000000;letter-spacing:normal;word-spacing:normal;text-transform:none;writing-mode:lr-tb;direction:ltr;text-orientation:mixed;dominant-baseline:auto;baseline-shift:baseline;text-anchor:start;white-space:normal;shape-padding:0;clip-rule:nonzero;display:inline;overflow:visible;visibility:visible;opacity:0.7;isolation:auto;mix-blend-mode:normal;color-interpolation:sRGB;color-interpolation-filters:linearRGB;solid-color:#000000;solid-opacity:1;vector-effect:none;fill:#2a7fff;fill-opacity:1;fill-rule:nonzero;stroke:none;stroke-width:1;stroke-linecap:butt;stroke-linejoin:miter;stroke-miterlimit:4;stroke-dasharray:none;stroke-dashoffset:0;stroke-opacity:1;paint-order:normal;color-rendering:auto;image-rendering:auto;shape-rendering:auto;text-rendering:auto;enable-background:accumulate"
         inkscape:connector-curvature="0" />
    </g>
    <path
       style="display:inline;opacity:0.7;fill:#2a7fff;fill-opacity:1;stroke:none;stroke-width:0.0348262"
       d="M 8.0170773,6 4.5085416,1.3219482 1,5.9999999 Z"
       id="path2866"
       inkscape:connector-curvature="0" />
    <path
       inkscape:connector-curvature="0"
       id="path5657"
       d="M 0.9829227,18 4.4914584,22.678052 8,18 Z"
       style="display:inline;opacity:0.7;fill:#2a7fff;fill-opacity:1;stroke:none;stroke-width:0.0348262" />
  </g>
</svg>
