<?xml version="1.0" encoding="UTF-8" standalone="no"?>
<!-- Created with Inkscape (http://www.inkscape.org/) -->

<svg
   xmlns:dc="http://purl.org/dc/elements/1.1/"
   xmlns:cc="http://creativecommons.org/ns#"
   xmlns:rdf="http://www.w3.org/1999/02/22-rdf-syntax-ns#"
   xmlns:svg="http://www.w3.org/2000/svg"
   xmlns="http://www.w3.org/2000/svg"
   xmlns:sodipodi="http://sodipodi.sourceforge.net/DTD/sodipodi-0.dtd"
   xmlns:inkscape="http://www.inkscape.org/namespaces/inkscape"
   width="24px"
   height="24px"
   viewBox="0 0 24 24"
   version="1.1"
   id="SVGRoot"
   inkscape:export-filename="/tmp/template.png"
   inkscape:export-xdpi="96"
   inkscape:export-ydpi="96"
   inkscape:version="0.92.2 2405546, 2018-03-11"
   sodipodi:docname="detail.svg">
  <sodipodi:namedview
     id="base"
     pagecolor="#E0E1E2"
     bordercolor="#666768"
     borderopacity="1.0"
     inkscape:pageopacity="0"
     inkscape:pageshadow="2"
     inkscape:zoom="33.75"
     inkscape:cx="12"
     inkscape:cy="12"
     inkscape:document-units="px"
     inkscape:current-layer="layer1"
     showgrid="true"
     inkscape:window-width="1920"
     inkscape:window-height="1019"
     inkscape:window-x="0"
     inkscape:window-y="0"
     inkscape:window-maximized="1"
     inkscape:grid-bbox="true"
     inkscape:pagecheckerboard="false"
     inkscape:snap-bbox="true"
     inkscape:bbox-nodes="true"
     inkscape:snap-others="false"
     inkscape:object-nodes="false"
     inkscape:snap-grids="true"
     inkscape:snap-bbox-midpoints="false">
    <inkscape:grid
       type="xygrid"
       id="grid1374"
       originx="1"
       originy="1"
       empspacing="11"
       dotted="false" />
  </sodipodi:namedview>
  <defs
     id="defs815">
    <filter
       inkscape:collect="always"
       id="filter7585"
       x="-0.17999998"
       width="1.36"
       y="-0.18000002"
       height="1.36">
      <feGaussianBlur
         inkscape:collect="always"
         stdDeviation="22.86076"
         id="feGaussianBlur7587" />
    </filter>
    <filter
       inkscape:collect="always"
       id="filter7573">
      <feGaussianBlur
         inkscape:collect="always"
         stdDeviation="16.464096"
         id="feGaussianBlur7575" />
    </filter>
    <filter
       inkscape:collect="always"
       id="filter6246"
       x="-0.17999998"
       width="1.36"
       y="-0.18000002"
       height="1.36">
      <feGaussianBlur
         inkscape:collect="always"
         stdDeviation="38.101266"
         id="feGaussianBlur6248" />
    </filter>
    <filter
       inkscape:collect="always"
       id="filter7557"
       x="-0.11999999"
       width="1.24"
       y="-0.12000001"
       height="1.24">
      <feGaussianBlur
         inkscape:collect="always"
         stdDeviation="35.561182"
         id="feGaussianBlur7559" />
    </filter>
  </defs>
  <metadata
     id="metadata818">
    <rdf:RDF>
      <cc:Work
         rdf:about="">
        <dc:format>image/svg+xml</dc:format>
        <dc:type
           rdf:resource="http://purl.org/dc/dcmitype/StillImage" />
        <dc:title></dc:title>
        <dc:creator>
          <cc:Agent>
            <dc:title>Maciej Dworak</dc:title>
          </cc:Agent>
        </dc:creator>
        <dc:rights>
          <cc:Agent>
            <dc:title />
          </cc:Agent>
        </dc:rights>
        <dc:description>RawTherapee icon.</dc:description>
        <cc:license
           rdf:resource="http://creativecommons.org/licenses/by-sa/4.0/" />
      </cc:Work>
      <cc:License
         rdf:about="http://creativecommons.org/licenses/by-sa/4.0/">
        <cc:permits
           rdf:resource="http://creativecommons.org/ns#Reproduction" />
        <cc:permits
           rdf:resource="http://creativecommons.org/ns#Distribution" />
        <cc:requires
           rdf:resource="http://creativecommons.org/ns#Notice" />
        <cc:requires
           rdf:resource="http://creativecommons.org/ns#Attribution" />
        <cc:permits
           rdf:resource="http://creativecommons.org/ns#DerivativeWorks" />
        <cc:requires
           rdf:resource="http://creativecommons.org/ns#ShareAlike" />
      </cc:License>
    </rdf:RDF>
  </metadata>
  <g
     id="layer1"
     inkscape:groupmode="layer"
     inkscape:label="Layer 1">
    <g
       transform="matrix(0.02394956,0,0,0.02394956,13.393024,47.647006)"
       id="g7589">
      <path
         inkscape:connector-curvature="0"
         id="path5163-1-9-5-6"
         d="m -141.74796,-1319.4901 c 69.72953,69.7295 182.783383,69.7296 252.51299,0 69.72953,-69.7296 69.72953,-182.7835 0,-252.513 l -84.170994,84.171 c 23.243148,23.2431 23.243148,60.9278 0,84.171 -23.2432309,23.2432 -60.927848,23.2431 -84.170996,0 z"
         style="opacity:0.2;fill:#2a7fff;fill-rule:evenodd;stroke:none" />
      <path
         sodipodi:end="3.1415927"
         sodipodi:start="0"
         d="m -1351.111,2388.6467 a 385.77777,385.77777 0 0 1 -192.8889,334.0934 385.77777,385.77777 0 0 1 -385.7778,0 385.77777,385.77777 0 0 1 -192.8889,-334.0934 l 385.7778,0 z"
         sodipodi:ry="385.77777"
         sodipodi:rx="385.77777"
         sodipodi:cy="2388.6467"
         sodipodi:cx="-1736.8888"
         id="path5163-1-9-6-3"
         style="opacity:0.7;fill:#2a7fff;fill-rule:evenodd;stroke:none"
         sodipodi:type="arc"
         transform="matrix(0.1090926,-0.1090926,0.1090926,0.1090926,-86.593434,-1895.812)" />
      <path
         inkscape:connector-curvature="0"
         id="path5163-1-9-5-9-9"
         d="m -141.74797,-1319.4902 c -69.72952,-69.7295 -69.72961,-182.7833 0,-252.5129 69.72953,-69.7296 182.783466,-69.7296 252.51299,0 l -84.170994,84.171 c -23.243147,-23.2432 -60.927849,-23.2432 -84.170996,0 -23.243231,23.2432 -23.243147,60.9278 0,84.1709 z"
         style="opacity:0.7;fill:#2a7fff;fill-rule:evenodd;stroke:none;filter:url(#filter7585)" />
      <path
         inkscape:connector-curvature="0"
         id="path5163-1-9-5-3-9-85"
         d="m -225.91896,-1235.3191 c 116.21582,116.2159 304.639079,116.2159 420.85498,0 116.21582,-116.2159 116.21591,-304.6391 0,-420.855 l -84.17099,84.171 c 69.72952,69.7295 69.72952,182.7834 0,252.513 -69.729613,69.7296 -182.783465,69.7295 -252.51299,0 z"
         style="opacity:0.7;fill:#2a7fff;fill-rule:evenodd;stroke:none" />
      <path
         inkscape:connector-curvature="0"
         id="path5163-1-9-5-3-8-6"
         d="m -310.08995,-1151.1481 c 162.70228,162.70223 426.49469,162.70223 589.19697,0 162.7022,-162.7022 162.70228,-426.4947 0,-589.197 l -84.171,84.171 c 116.21591,116.2159 116.21591,304.6392 0,420.855 -116.215901,116.2159 -304.63907,116.2159 -420.85498,0 z"
         style="opacity:0.2;fill:#2a7fff;fill-rule:evenodd;stroke:none" />
      <path
         sodipodi:end="3.1415927"
         sodipodi:start="0"
         d="m -1351.111,2388.6467 a 385.77777,385.77777 0 0 1 -192.8889,334.0934 385.77777,385.77777 0 0 1 -385.7778,0 385.77777,385.77777 0 0 1 -192.8889,-334.0934 l 385.7778,0 z"
         sodipodi:ry="385.77777"
         sodipodi:rx="385.77777"
         sodipodi:cy="2388.6467"
         sodipodi:cx="-1736.8888"
         id="path5163-1-9-6-0-8"
         style="opacity:0.05;fill:#2a7fff;fill-rule:evenodd;stroke:none;filter:url(#filter7573)"
         sodipodi:type="arc"
         transform="matrix(0.1090926,-0.1090926,-0.1090926,-0.1090926,434.57391,-1374.6447)" />
      <path
         inkscape:connector-curvature="0"
         id="path5163-1-9-5-3-9-8-4"
         d="m -225.91895,-1235.3192 c -116.21599,-116.2158 -116.21591,-304.639 0,-420.8549 116.21582,-116.2159 304.639072,-116.2159 420.85498,0 l -84.171,84.171 c -69.729526,-69.7296 -182.783462,-69.7296 -252.51299,0 -69.72961,69.7296 -69.72952,182.7834 0,252.513 z"
         style="opacity:0.1;fill:#2a7fff;fill-rule:evenodd;stroke:none;filter:url(#filter6246)" />
      <path
         inkscape:connector-curvature="0"
         id="path5163-1-9-5-3-8-8-8"
         d="m -310.08995,-1151.1482 c -162.70228,-162.7022 -162.70228,-426.4946 0,-589.1969 162.7022,-162.7022 426.49469,-162.7023 589.19697,0 l -84.17099,84.171 c -116.215908,-116.2159 -304.63925,-116.2159 -420.85498,0 -116.21591,116.2159 -116.21591,304.639 0,420.8549 z"
         style="opacity:0.7;fill:#2a7fff;fill-rule:evenodd;stroke:none;filter:url(#filter7557)" />
    </g>
  </g>
</svg>
