<?xml version="1.0" encoding="UTF-8" standalone="no"?>
<!-- Created with Inkscape (http://www.inkscape.org/) -->

<svg
   xmlns:dc="http://purl.org/dc/elements/1.1/"
   xmlns:cc="http://creativecommons.org/ns#"
   xmlns:rdf="http://www.w3.org/1999/02/22-rdf-syntax-ns#"
   xmlns:svg="http://www.w3.org/2000/svg"
   xmlns="http://www.w3.org/2000/svg"
   xmlns:sodipodi="http://sodipodi.sourceforge.net/DTD/sodipodi-0.dtd"
   xmlns:inkscape="http://www.inkscape.org/namespaces/inkscape"
   width="24px"
   height="24px"
   viewBox="0 0 24 24"
   version="1.1"
   id="SVGRoot"
   inkscape:export-filename="/tmp/template.png"
   inkscape:export-xdpi="96"
   inkscape:export-ydpi="96"
   inkscape:version="0.92.2 2405546, 2018-03-11"
   sodipodi:docname="distortion-auto.svg">
  <sodipodi:namedview
     id="base"
     pagecolor="#E0E1E2"
     bordercolor="#666768"
     borderopacity="1.0"
     inkscape:pageopacity="0"
     inkscape:pageshadow="2"
     inkscape:zoom="2.109375"
     inkscape:cx="-49.166564"
     inkscape:cy="55.585713"
     inkscape:document-units="px"
     inkscape:current-layer="layer1"
     showgrid="false"
     inkscape:window-width="1920"
     inkscape:window-height="1019"
     inkscape:window-x="0"
     inkscape:window-y="0"
     inkscape:window-maximized="1"
     inkscape:grid-bbox="true"
     inkscape:pagecheckerboard="false"
     inkscape:snap-bbox="true"
     inkscape:bbox-nodes="true"
     inkscape:snap-others="false"
     inkscape:object-nodes="false"
     inkscape:snap-grids="true"
     inkscape:snap-bbox-midpoints="false">
    <inkscape:grid
       type="xygrid"
       id="grid1374"
       originx="1"
       originy="1"
       empspacing="11"
       dotted="false" />
  </sodipodi:namedview>
  <defs
     id="defs815" />
  <metadata
     id="metadata818">
    <rdf:RDF>
      <cc:Work
         rdf:about="">
        <dc:format>image/svg+xml</dc:format>
        <dc:type
           rdf:resource="http://purl.org/dc/dcmitype/StillImage" />
        <dc:title></dc:title>
        <dc:creator>
          <cc:Agent>
            <dc:title>Maciej Dworak</dc:title>
          </cc:Agent>
        </dc:creator>
        <dc:rights>
          <cc:Agent>
            <dc:title />
          </cc:Agent>
        </dc:rights>
        <dc:description>RawTherapee icon.</dc:description>
        <cc:license
           rdf:resource="http://creativecommons.org/licenses/by-sa/4.0/" />
      </cc:Work>
      <cc:License
         rdf:about="http://creativecommons.org/licenses/by-sa/4.0/">
        <cc:permits
           rdf:resource="http://creativecommons.org/ns#Reproduction" />
        <cc:permits
           rdf:resource="http://creativecommons.org/ns#Distribution" />
        <cc:requires
           rdf:resource="http://creativecommons.org/ns#Notice" />
        <cc:requires
           rdf:resource="http://creativecommons.org/ns#Attribution" />
        <cc:permits
           rdf:resource="http://creativecommons.org/ns#DerivativeWorks" />
        <cc:requires
           rdf:resource="http://creativecommons.org/ns#ShareAlike" />
      </cc:License>
    </rdf:RDF>
  </metadata>
  <g
     id="layer1"
     inkscape:groupmode="layer"
     inkscape:label="Layer 1">
    <g
       id="g2962"
       transform="matrix(0.03657136,0,0,0.03657136,10.902008,7.6984958)">
      <path
         style="color:#000000;font-style:normal;font-variant:normal;font-weight:normal;font-stretch:normal;font-size:medium;line-height:normal;font-family:'Bitstream Vera Sans';-inkscape-font-specification:'Bitstream Vera Sans';text-indent:0;text-align:start;text-decoration:none;text-decoration-line:none;letter-spacing:normal;word-spacing:normal;text-transform:none;writing-mode:lr-tb;direction:ltr;text-anchor:start;display:inline;overflow:visible;visibility:visible;opacity:0.7;fill:#2a7fff;fill-opacity:1;stroke:none;stroke-width:0.72779661;marker:none;enable-background:accumulate"
         d="M 2.0253906 4.5 L 2.0039062 4.5078125 C 1.7275595 4.5520386 1.4823265 4.5174045 1.3300781 4.7480469 C 1.1778297 4.9786896 1.1491384 5.4819005 1.2207031 5.7734375 C 1.3007051 6.1439583 1.5647812 6.4387026 1.6582031 6.8066406 C 2.0242615 7.7226843 2.3447878 8.675259 2.5664062 9.6445312 L 4.7226562 11.105469 C 4.7127443 10.979347 4.7137004 10.85224 4.6992188 10.726562 L 7.3613281 10.726562 L 7.3613281 12.894531 L 10.332031 14.908203 L 14.513672 14.908203 L 14.513672 16.015625 C 13.536066 15.925488 12.553836 15.896574 11.572266 15.914062 A 2.0002 2.0002 0 0 1 11.771484 17.818359 C 12.867847 17.802111 13.964346 17.850032 15.058594 17.992188 C 17.493934 18.265205 19.88987 18.823006 22.244141 19.5 C 22.376737 19.290527 22.361158 19.365427 22.664062 19.216797 C 22.966968 19.068167 22.909251 18.108437 22.664062 17.791016 C 22.141935 16.680117 21.735535 15.509584 21.435547 14.318359 C 21.07312 12.798076 21.022228 11.179768 21.412109 9.6621094 C 21.711152 8.3126207 22.22599 7.0219534 22.808594 5.7734375 C 22.885152 5.4767454 22.817923 4.8440138 22.638672 4.71875 C 22.042147 4.392499 21.386851 4.7077438 20.826172 4.7871094 C 17.0036 5.7916416 13.01082 6.4173007 9.0566406 5.9355469 C 6.6753102 5.6758386 4.3334795 5.1345723 2.0253906 4.5 z M 20.257812 6.8925781 L 20.246094 6.9277344 L 20.244141 6.9316406 C 20.018271 7.5550006 19.810448 8.1847416 19.65625 8.8300781 L 16.408203 8.8300781 L 16.408203 7.640625 C 17.703306 7.456482 18.98653 7.1945307 20.257812 6.8925781 z M 3.7421875 6.9101562 L 3.9101562 6.9511719 C 5.0503877 7.2230718 6.2018615 7.4481996 7.3613281 7.6230469 L 7.3613281 8.8300781 L 4.3398438 8.8300781 C 4.1824206 8.1778523 3.9718529 7.54003 3.7421875 6.9101562 z M 9.2597656 7.8710938 C 9.2894799 7.8741413 9.3198951 7.8778116 9.3496094 7.8808594 C 11.065307 8.0478887 12.797699 8.0493486 14.513672 7.8847656 L 14.513672 8.8300781 L 9.2558594 8.8300781 C 9.2559564 8.5138199 9.2569934 8.1939504 9.2597656 7.8710938 z M 9.265625 10.726562 L 14.513672 10.726562 L 14.513672 13.021484 C 13.910384 13.05192 10.362163 13.00617 9.2832031 13.085938 C 9.2800908 12.280242 9.2722826 11.500472 9.265625 10.726562 z M 16.408203 10.726562 L 19.298828 10.726562 C 19.205194 11.483349 19.207047 12.251535 19.283203 13.009766 L 16.408203 13.009766 L 16.408203 10.726562 z M 16.408203 14.908203 L 19.626953 14.908203 C 19.796041 15.621138 20.019842 16.318407 20.271484 17.005859 C 18.995795 16.69987 17.708065 16.439366 16.408203 16.257812 L 16.408203 14.908203 z "
         transform="matrix(27.343801,0,0,27.343801,-298.10234,-210.50614)"
         id="path4473" />
    </g>
    <path
       sodipodi:nodetypes="cccccc"
       inkscape:connector-curvature="0"
       id="Symbol-4-6-8"
       d="M 1,14.357876 V 11 L 9.925089,17.051146 1,23 v -3.298368 z"
       style="display:inline;opacity:0.7;fill:#008000;fill-opacity:1;stroke:none;stroke-width:0.04999533" />
  </g>
</svg>
