<?xml version="1.0" encoding="UTF-8" standalone="no"?>
<!-- Created with Inkscape (http://www.inkscape.org/) -->

<svg
   xmlns:dc="http://purl.org/dc/elements/1.1/"
   xmlns:cc="http://creativecommons.org/ns#"
   xmlns:rdf="http://www.w3.org/1999/02/22-rdf-syntax-ns#"
   xmlns:svg="http://www.w3.org/2000/svg"
   xmlns="http://www.w3.org/2000/svg"
   xmlns:sodipodi="http://sodipodi.sourceforge.net/DTD/sodipodi-0.dtd"
   xmlns:inkscape="http://www.inkscape.org/namespaces/inkscape"
   width="24px"
   height="24px"
   viewBox="0 0 24 24"
   version="1.1"
   id="SVGRoot"
   inkscape:export-filename="/tmp/template.png"
   inkscape:export-xdpi="96"
   inkscape:export-ydpi="96"
   inkscape:version="0.92.2 2405546, 2018-03-11"
   sodipodi:docname="hand-open.svg">
  <sodipodi:namedview
     id="base"
     pagecolor="#E0E1E2"
     bordercolor="#666768"
     borderopacity="1.0"
     inkscape:pageopacity="0"
     inkscape:pageshadow="2"
     inkscape:zoom="34.25"
     inkscape:cx="12"
     inkscape:cy="12"
     inkscape:document-units="px"
     inkscape:current-layer="layer1"
     showgrid="true"
     inkscape:window-width="1920"
     inkscape:window-height="1019"
     inkscape:window-x="0"
     inkscape:window-y="0"
     inkscape:window-maximized="1"
     inkscape:grid-bbox="true"
     inkscape:pagecheckerboard="false"
     inkscape:snap-bbox="true"
     inkscape:bbox-nodes="true"
     inkscape:snap-others="false"
     inkscape:object-nodes="false"
     inkscape:snap-grids="true"
     inkscape:snap-bbox-midpoints="false"
     inkscape:snap-nodes="false">
    <inkscape:grid
       type="xygrid"
       id="grid1374"
       originx="1"
       originy="1"
       empspacing="11"
       dotted="false" />
  </sodipodi:namedview>
  <defs
     id="defs815" />
  <metadata
     id="metadata818">
    <rdf:RDF>
      <cc:Work
         rdf:about="">
        <dc:format>image/svg+xml</dc:format>
        <dc:type
           rdf:resource="http://purl.org/dc/dcmitype/StillImage" />
        <dc:title />
        <dc:creator>
          <cc:Agent>
            <dc:title>Maciej Dworak</dc:title>
          </cc:Agent>
        </dc:creator>
        <dc:rights>
          <cc:Agent>
            <dc:title />
          </cc:Agent>
        </dc:rights>
        <dc:description>RawTherapee icon.</dc:description>
        <cc:license
           rdf:resource="http://creativecommons.org/licenses/by-sa/4.0/" />
      </cc:Work>
      <cc:License
         rdf:about="http://creativecommons.org/licenses/by-sa/4.0/">
        <cc:permits
           rdf:resource="http://creativecommons.org/ns#Reproduction" />
        <cc:permits
           rdf:resource="http://creativecommons.org/ns#Distribution" />
        <cc:requires
           rdf:resource="http://creativecommons.org/ns#Notice" />
        <cc:requires
           rdf:resource="http://creativecommons.org/ns#Attribution" />
        <cc:permits
           rdf:resource="http://creativecommons.org/ns#DerivativeWorks" />
        <cc:requires
           rdf:resource="http://creativecommons.org/ns#ShareAlike" />
      </cc:License>
    </rdf:RDF>
  </metadata>
  <g
     id="layer1"
     inkscape:groupmode="layer"
     inkscape:label="Layer 1">
    <path
       style="opacity:0.7;fill:#2a7fff;fill-opacity:1;stroke:none;stroke-width:1;stroke-linecap:square;stroke-linejoin:miter;stroke-miterlimit:4;stroke-dasharray:none;stroke-opacity:1;paint-order:markers fill stroke"
       d="m 11.066359,2.3192467 c 0.02103,2.1794281 0.361946,4.3436016 0.343124,6.5243847 C 10.703789,6.7461227 9.6960899,4.7620769 9.0074444,2.6597168 8.6993964,1.4049372 6.6855849,1.3469162 6.7120828,2.7917117 6.860551,4.3054322 7.3065418,5.7862422 7.8574584,7.2035855 8.4371042,8.728674 9.0522407,10.317611 8.9314796,11.980084 8.7200153,13.308132 7.126686,13.731266 6.2345901,12.561086 5.8181155,12.167522 5.6906617,11.907896 5.2741487,11.321342 4.8576356,10.734789 4.1520632,9.821307 3.4051693,10.101994 c -1.4976695,0.876326 -0.2941262,2.449671 0.3195361,3.475862 0.5291409,1.049899 1.265396,1.943333 2.0966285,2.765328 1.1394053,1.210646 2.0071456,2.792292 1.9277399,4.496496 0.044036,1.388514 1.5584783,2.053001 2.7640802,2.126395 1.546216,0.08721 3.127517,0.02028 4.631582,-0.365992 0.822251,-0.241424 1.611938,-0.89834 1.595907,-1.823778 0.244116,-4.074098 2.047676,-7.810263 3.063052,-11.7140115 C 20.094797,8.0057799 20.448279,6.9330366 20.445238,5.8285168 20.177118,4.6460216 18.537149,4.6959279 18.236123,6.0272935 17.967363,6.9739347 17.870142,7.9685551 17.495572,8.884547 17.242047,6.9260482 17.684456,4.9341325 17.368125,2.97878 17.41337,1.4507624 15.214218,1.5288595 14.956983,2.8379753 14.705459,4.7639487 14.797305,6.7197263 14.556058,8.6480125 13.992175,6.3772042 14.267168,3.9545282 13.446484,1.7396332 12.871322,0.60333839 11.123424,1.0946692 11.066359,2.3192467 Z"
       id="path2954"
       inkscape:connector-curvature="0"
       sodipodi:nodetypes="cccccccccccccccccccccccc" />
    <path
       sodipodi:nodetypes="cccccccccccccccccccccccc"
       inkscape:connector-curvature="0"
       id="path814"
       d="m 11.066359,42.319247 c 0.02103,2.179428 0.361946,4.343601 0.343124,6.524384 -0.705694,-2.097508 -1.7133931,-4.081554 -2.4020386,-6.183914 -0.308048,-1.25478 -2.3218595,-1.312801 -2.2953616,0.131995 0.1484682,1.51372 0.594459,2.99453 1.1453756,4.411873 0.5796458,1.525089 1.1947823,3.114026 1.0740212,4.776499 C 8.7200153,53.308132 7.126686,53.731266 6.2345901,52.561086 5.8181155,52.167522 5.6906617,51.907896 5.2741487,51.321342 4.8576356,50.734789 4.1520632,49.821307 3.4051693,50.101994 c -1.4976695,0.876326 -0.2941262,2.449671 0.3195361,3.475862 0.5291409,1.049899 1.265396,1.943333 2.0966285,2.765328 1.1394053,1.210646 2.0071456,2.792292 1.9277399,4.496496 0.044036,1.388514 1.5584783,2.053001 2.7640802,2.126395 1.546216,0.08721 3.127517,0.02028 4.631582,-0.365992 0.822251,-0.241424 1.611938,-0.89834 1.595907,-1.823778 0.244116,-4.074098 2.047676,-7.810263 3.063052,-11.714012 0.291102,-1.056513 0.644584,-2.129256 0.641543,-3.233776 -0.26812,-1.182495 -1.908089,-1.132589 -2.209115,0.198776 -0.26876,0.946642 -0.365981,1.941262 -0.740551,2.857254 -0.253525,-1.958499 0.188884,-3.950415 -0.127447,-5.905767 0.04525,-1.528018 -2.153907,-1.449921 -2.411142,-0.140805 -0.251524,1.925974 -0.159678,3.881751 -0.400925,5.810037 -0.563883,-2.270808 -0.28889,-4.693484 -1.109574,-6.908379 -0.575162,-1.136295 -2.32306,-0.644964 -2.380125,0.579614 z"
       style="opacity:0.7;fill:#2a7fff;fill-opacity:1;stroke:none;stroke-width:1;stroke-linecap:square;stroke-linejoin:miter;stroke-miterlimit:4;stroke-dasharray:none;stroke-opacity:1;paint-order:markers fill stroke" />
    <path
       inkscape:connector-curvature="0"
       id="path820"
       d="m -12.0625,0.66015625 c -0.698739,0.18127568 -1.331656,0.79041755 -1.371094,1.63671875 v 0.013672 0.013672 c 0.01134,1.1756433 0.0924,2.2946186 0.181641,3.4375 -0.449578,-1.0772468 -0.910985,-2.1751358 -1.265625,-3.2578128 l 0.0098,0.037109 c -0.213752,-0.8706616 -1.017807,-1.3409622 -1.76563,-1.3281246 -0.373911,0.00642 -0.758073,0.1317809 -1.052734,0.4082032 -0.29466,0.2764222 -0.46969,0.7024553 -0.460937,1.1796874 v 0.019531 l 0.0019,0.019531 c 0.154749,1.5777324 0.615886,3.1000247 1.175784,4.5410162 0.576175,1.5159574 1.138616,3.0231956 1.039062,4.5292966 -0.07989,0.470271 -0.362916,0.730463 -0.705078,0.810547 -0.345672,0.08091 -0.750378,-0.01505 -1.091797,-0.462891 l -0.02539,-0.03125 -0.0293,-0.0293 c -0.373704,-0.353142 -0.467524,-0.561929 -0.896484,-1.166012 -0.214481,-0.302041 -0.50916,-0.706808 -0.898438,-1.029297 -0.389278,-0.3224884 -0.96551,-0.5886036 -1.554687,-0.3671874 l -0.03906,0.013672 -0.03711,0.021484 c -0.4559,0.2667591 -0.765427,0.6392684 -0.892579,1.0527344 -0.127152,0.413466 -0.07809,0.829655 0.03516,1.205078 0.222721,0.738347 0.690357,1.390996 0.982422,1.875 0.0011,0.0022 0.0028,0.0037 0.0039,0.0059 0.561462,1.111707 1.336036,2.046692 2.189453,2.890625 l -0.01367,-0.01367 c 1.077278,1.144595 1.86382,2.610155 1.792966,4.130817 l -0.002,0.01953 0.002,0.01953 c 0.02769,0.873239 0.542175,1.548231 1.171875,1.958984 0.6297,0.410754 1.379068,0.608904 2.060547,0.650391 h 0.002 c 1.579712,0.0891 3.21279,0.02295 4.785156,-0.38086 l 0.0078,-0.002 0.0078,-0.002 c 0.487232,-0.143058 0.961438,-0.403695 1.332032,-0.789062 0.370593,-0.385367 0.63356,-0.916516 0.623046,-1.523438 v 0.03906 c 0.236258,-3.942943 2.012498,-7.646163 3.044922,-11.6113285 v -0.00391 C -3.428351,8.1521527 -3.051332,7.0368022 -3.054666,5.8260682 V 5.7714844 L -3.066406,5.71875 C -3.249415,4.9116225 -3.982389,4.4412768 -4.679688,4.4863281 -5.275494,4.5248222 -5.800031,4.9741686 -6.078125,5.6210938 -6.045805,4.7352914 -5.996807,3.9097621 -6.136719,2.984375 -6.125163,2.4875655 -6.307139,2.0425781 -6.615234,1.7597656 -6.925794,1.4746908 -7.325968,1.3490659 -7.716797,1.34375 -8.498454,1.3331182 -9.352973,1.8249624 -9.533203,2.7421875 l -0.0039,0.015625 -0.002,0.015625 c -0.05278,0.4041277 -0.05266,0.7822623 -0.08203,1.1835937 -0.107375,-0.7981063 -0.169123,-1.5977948 -0.46289,-2.390625 l -0.0098,-0.027344 -0.01367,-0.025391 C -10.500285,0.73752895 -11.363761,0.47888057 -12.0625,0.66015625 Z m 0.25,0.96874995 c 0.327629,-0.084998 0.615816,-0.014161 0.798828,0.3300782 0.747739,2.0597572 0.494913,4.4363486 1.083984,6.8085937 l 0.982422,-0.056641 C -8.70016,6.735827 -8.78812,4.7904773 -8.548828,2.9316406 -8.469639,2.5430223 -8.099804,2.3387264 -7.730469,2.34375 c 0.185458,0.00252 0.342359,0.063217 0.439453,0.1523438 0.09709,0.089127 0.167925,0.206397 0.160157,0.46875 l -0.002,0.046875 0.0078,0.046875 C -6.828955,4.8885487 -7.268573,6.874471 -7,8.9492188 l 0.242188,1.8750002 0.716796,-1.7500002 c 0.411093,-1.0053066 0.505532,-2.0215571 0.757813,-2.9101563 l 0.0039,-0.013672 0.0039,-0.013672 c 0.107736,-0.4764884 0.395184,-0.6352244 0.660157,-0.6523438 0.251375,-0.016241 0.449106,0.1022573 0.542968,0.4316406 -0.01505,0.9710696 -0.318057,1.9705536 -0.605468,3.0136719 l -0.002,0.00391 v 0.00195 C -5.678376,12.774915 -7.506052,16.543442 -7.75787,20.746094 l -0.002,0.01953 v 0.01953 c 0.0055,0.318516 -0.117945,0.577694 -0.34375,0.8125 -0.223319,0.232223 -0.551559,0.418326 -0.882812,0.517578 -1.43352,0.367311 -2.960591,0.436603 -4.470703,0.351563 -0.524019,-0.03191 -1.134184,-0.203265 -1.574115,-0.490233 -0.439931,-0.286967 -0.704361,-0.637069 -0.720703,-1.152343 v 0.03906 c 0.08796,-1.887744 -0.86097,-3.586624 -2.0625,-4.863279 l -0.0059,-0.0059 -0.0059,-0.0059 c -0.807393,-0.79834 -1.505397,-1.649441 -2.001952,-2.634684 l -0.0078,-0.01758 -0.0098,-0.01563 c -0.322958,-0.54006 -0.748063,-1.170179 -0.902342,-1.681634 -0.07714,-0.255727 -0.08634,-0.461023 -0.03711,-0.621094 0.04425,-0.143897 0.168742,-0.284663 0.398438,-0.435547 0.148565,-0.04428 0.291098,-0.0095 0.531249,0.189453 0.254361,0.210719 0.520624,0.555332 0.722657,0.839844 0.388512,0.547122 0.564085,0.853027 0.984375,1.261719 0.550791,0.711482 1.379594,0.989291 2.101562,0.820312 0.726883,-0.170128 1.337555,-0.786297 1.472656,-1.634765 l 0.0019,-0.02149 0.002,-0.02148 c 0.131323,-1.8078 -0.526579,-3.4671485 -1.105463,-4.9902334 v -0.00195 -0.00195 c -0.537613,-1.3831218 -0.962413,-2.8116379 -1.107422,-4.2500062 -7.18e-4,-0.2313914 0.05782,-0.3441971 0.140625,-0.421875 0.0851,-0.079836 0.22003,-0.1338908 0.384765,-0.1367188 0.329471,-0.00566 0.684997,0.1822887 0.779297,0.5664063 l 0.0059,0.017578 0.0059,0.017578 c 0.704593,2.151049 1.712135,4.1379731 2.402343,6.1894533 l 0.974609,-0.15625 c 0.01924,-2.227041 -0.318816,-4.3853297 -0.341775,-6.5078124 0.01905,-0.3764263 0.286845,-0.6247291 0.619141,-0.7109376 z m 5.568359,4.2617188 c -0.0026,0.00904 -0.0033,0.01636 -0.0059,0.025391 -2.2e-4,9.659e-4 -0.0017,9.865e-4 -0.002,0.00195 z"
       style="color:#000000;font-style:normal;font-variant:normal;font-weight:normal;font-stretch:normal;font-size:medium;line-height:normal;font-family:sans-serif;font-variant-ligatures:normal;font-variant-position:normal;font-variant-caps:normal;font-variant-numeric:normal;font-variant-alternates:normal;font-feature-settings:normal;text-indent:0;text-align:start;text-decoration:none;text-decoration-line:none;text-decoration-style:solid;text-decoration-color:#000000;letter-spacing:normal;word-spacing:normal;text-transform:none;writing-mode:lr-tb;direction:ltr;text-orientation:mixed;dominant-baseline:auto;baseline-shift:baseline;text-anchor:start;white-space:normal;shape-padding:0;clip-rule:nonzero;display:inline;overflow:visible;visibility:visible;opacity:0.7;isolation:auto;mix-blend-mode:normal;color-interpolation:sRGB;color-interpolation-filters:linearRGB;solid-color:#000000;solid-opacity:1;vector-effect:none;fill:#000000;fill-opacity:1;fill-rule:nonzero;stroke:none;stroke-width:1;stroke-linecap:square;stroke-linejoin:miter;stroke-miterlimit:4;stroke-dasharray:none;stroke-dashoffset:0;stroke-opacity:1;paint-order:markers fill stroke;color-rendering:auto;image-rendering:auto;shape-rendering:auto;text-rendering:auto;enable-background:accumulate" />
    <path
       style="color:#000000;font-style:normal;font-variant:normal;font-weight:normal;font-stretch:normal;font-size:medium;line-height:normal;font-family:sans-serif;font-variant-ligatures:normal;font-variant-position:normal;font-variant-caps:normal;font-variant-numeric:normal;font-variant-alternates:normal;font-feature-settings:normal;text-indent:0;text-align:start;text-decoration:none;text-decoration-line:none;text-decoration-style:solid;text-decoration-color:#000000;letter-spacing:normal;word-spacing:normal;text-transform:none;writing-mode:lr-tb;direction:ltr;text-orientation:mixed;dominant-baseline:auto;baseline-shift:baseline;text-anchor:start;white-space:normal;shape-padding:0;clip-rule:nonzero;display:inline;overflow:visible;visibility:visible;opacity:0.7;isolation:auto;mix-blend-mode:normal;color-interpolation:sRGB;color-interpolation-filters:linearRGB;solid-color:#000000;solid-opacity:1;vector-effect:none;fill:#2a7fff;fill-opacity:1;fill-rule:nonzero;stroke:none;stroke-width:1;stroke-linecap:square;stroke-linejoin:miter;stroke-miterlimit:4;stroke-dasharray:none;stroke-dashoffset:0;stroke-opacity:1;paint-order:markers fill stroke;color-rendering:auto;image-rendering:auto;shape-rendering:auto;text-rendering:auto;enable-background:accumulate"
       d="M 12.455078 1.1015625 C 11.797563 1.0757202 11.102072 1.5529984 11.066406 2.3183594 C 11.087436 4.4977875 11.428978 6.6629669 11.410156 8.84375 C 10.704462 6.7462413 9.696458 4.7625164 9.0078125 2.6601562 C 8.6997645 1.4053767 6.6863927 1.3462201 6.7128906 2.7910156 C 6.8613588 4.3047361 7.3065053 5.7857817 7.8574219 7.203125 C 8.4370677 8.7282135 9.0524017 10.317996 8.9316406 11.980469 C 8.7201763 13.308517 7.1264709 13.730727 6.234375 12.560547 C 5.8179004 12.166983 5.6899505 11.90882 5.2734375 11.322266 C 4.8569244 10.735713 4.1511908 9.8208755 3.4042969 10.101562 C 1.9066274 10.977889 3.1109471 12.551934 3.7246094 13.578125 C 4.2537503 14.628024 4.9910331 15.521755 5.8222656 16.34375 C 6.9616709 17.554396 7.8294057 19.13564 7.75 20.839844 C 7.794036 22.228358 9.30807 22.893403 10.513672 22.966797 C 12.059888 23.054007 13.640466 22.985881 15.144531 22.599609 C 15.966782 22.358185 16.756265 21.700829 16.740234 20.775391 C 16.98435 16.701293 18.787358 12.966248 19.802734 9.0625 C 20.093836 8.0059864 20.448353 6.9326448 20.445312 5.828125 C 20.177193 4.6456298 18.537354 4.6959782 18.236328 6.0273438 C 17.967568 6.973985 17.870664 7.9687737 17.496094 8.8847656 C 17.242569 6.9262668 17.683518 4.9338681 17.367188 2.9785156 C 17.412433 1.450498 15.214266 1.5287748 14.957031 2.8378906 C 14.705507 4.763864 14.797888 6.7201513 14.556641 8.6484375 C 13.992758 6.3776292 14.26795 3.9551294 13.447266 1.7402344 C 13.23158 1.3141238 12.849587 1.1170679 12.455078 1.1015625 z M 12.423828 1.5957031 C 12.651678 1.5959037 12.849069 1.700805 12.986328 1.9589844 C 13.734067 4.0187416 13.481241 6.395333 14.070312 8.7675781 L 15.052734 8.7109375 C 15.29984 6.7358274 15.21188 4.7904773 15.451172 2.9316406 C 15.530361 2.5430223 15.900196 2.3387264 16.269531 2.34375 C 16.454989 2.34627 16.61189 2.4069669 16.708984 2.4960938 C 16.806074 2.5852207 16.876909 2.7024908 16.869141 2.9648438 L 16.867188 3.0117188 L 16.875 3.0585938 C 17.171104 4.8885486 16.731427 6.8744709 17 8.9492188 L 17.242188 10.824219 L 17.958984 9.0742188 C 18.370077 8.0689121 18.464516 7.0526617 18.716797 6.1640625 L 18.720703 6.1503906 L 18.724609 6.1367188 C 18.832345 5.6602303 19.119793 5.5014944 19.384766 5.484375 C 19.636141 5.468134 19.833872 5.5866323 19.927734 5.9160156 C 19.912684 6.8870852 19.609677 7.8865692 19.322266 8.9296875 L 19.320312 8.9335938 L 19.320312 8.9355469 C 18.321682 12.774915 16.494006 16.543442 16.242188 20.746094 L 16.240234 20.765625 L 16.240234 20.785156 C 16.245734 21.103672 16.122289 21.36285 15.896484 21.597656 C 15.673165 21.829879 15.344925 22.015982 15.013672 22.115234 C 13.580152 22.482545 12.053081 22.551837 10.542969 22.466797 C 10.01895 22.434887 9.408681 22.263531 8.96875 21.976562 C 8.528819 21.689595 8.2643889 21.339493 8.2480469 20.824219 C 8.3210557 18.952282 7.3786895 17.267743 6.1855469 16 L 6.1796875 15.994141 L 6.1738281 15.988281 C 5.3664351 15.189941 4.66843 14.338759 4.171875 13.353516 L 4.1640625 13.335938 L 4.1542969 13.320312 C 3.8313389 12.780252 3.4062321 12.150127 3.2519531 11.638672 C 3.1748131 11.382945 3.1656138 11.177649 3.2148438 11.017578 C 3.2590937 10.873681 3.3835852 10.732915 3.6132812 10.582031 C 3.7618463 10.537751 3.9043802 10.572531 4.1445312 10.771484 C 4.3988923 10.982203 4.6651545 11.326816 4.8671875 11.611328 C 5.2556995 12.15845 5.4312725 12.464355 5.8515625 12.873047 C 6.4023535 13.584529 7.231157 13.862338 7.953125 13.693359 C 8.680008 13.523231 9.2906803 12.907062 9.4257812 12.058594 L 9.4277344 12.037109 L 9.4296875 12.015625 C 9.5610105 10.207825 8.9031028 8.5484755 8.3242188 7.0253906 L 8.3242188 7.0234375 L 8.3242188 7.0214844 C 7.7866058 5.6383626 7.3618059 4.2098527 7.2167969 2.7714844 C 7.2160789 2.540093 7.2746169 2.4272873 7.3574219 2.3496094 C 7.4425219 2.2697734 7.5774525 2.2157186 7.7421875 2.2128906 C 8.0716585 2.2072306 8.4271844 2.3951793 8.5214844 2.7792969 L 8.5273438 2.796875 L 8.5332031 2.8144531 C 9.2377961 4.9655021 10.245339 6.952426 10.935547 9.0039062 L 11.910156 8.8476562 C 11.929396 6.6206153 11.591318 4.4623264 11.568359 2.3398438 C 11.587409 1.9634174 11.855204 1.7151147 12.1875 1.6289062 C 12.269407 1.6076568 12.347878 1.5956363 12.423828 1.5957031 z "
       id="path825" />
  </g>
</svg>
