<?xml version="1.0" encoding="UTF-8" standalone="no"?>
<!-- Created with Inkscape (http://www.inkscape.org/) -->

<svg
   xmlns:dc="http://purl.org/dc/elements/1.1/"
   xmlns:cc="http://creativecommons.org/ns#"
   xmlns:rdf="http://www.w3.org/1999/02/22-rdf-syntax-ns#"
   xmlns:svg="http://www.w3.org/2000/svg"
   xmlns="http://www.w3.org/2000/svg"
   xmlns:sodipodi="http://sodipodi.sourceforge.net/DTD/sodipodi-0.dtd"
   xmlns:inkscape="http://www.inkscape.org/namespaces/inkscape"
   width="24px"
   height="24px"
   viewBox="0 0 24 24"
   version="1.1"
   id="SVGRoot"
   inkscape:export-filename="/tmp/template.png"
   inkscape:export-xdpi="96"
   inkscape:export-ydpi="96"
   inkscape:version="0.92.2 2405546, 2018-03-11"
   sodipodi:docname="hand-open.svg">
  <sodipodi:namedview
     id="base"
     pagecolor="#E0E1E2"
     bordercolor="#666768"
     borderopacity="1.0"
     inkscape:pageopacity="0"
     inkscape:pageshadow="2"
     inkscape:zoom="34.25"
     inkscape:cx="12"
     inkscape:cy="12"
     inkscape:document-units="px"
     inkscape:current-layer="layer1"
     showgrid="true"
     inkscape:window-width="1920"
     inkscape:window-height="1019"
     inkscape:window-x="0"
     inkscape:window-y="0"
     inkscape:window-maximized="1"
     inkscape:grid-bbox="true"
     inkscape:pagecheckerboard="false"
     inkscape:snap-bbox="true"
     inkscape:bbox-nodes="true"
     inkscape:snap-others="false"
     inkscape:object-nodes="false"
     inkscape:snap-grids="true"
     inkscape:snap-bbox-midpoints="false"
     inkscape:snap-nodes="false">
    <inkscape:grid
       type="xygrid"
       id="grid1374"
       originx="1"
       originy="1"
       empspacing="11"
       dotted="false" />
  </sodipodi:namedview>
  <defs
     id="defs815" />
  <metadata
     id="metadata818">
    <rdf:RDF>
      <cc:Work
         rdf:about="">
        <dc:format>image/svg+xml</dc:format>
        <dc:type
           rdf:resource="http://purl.org/dc/dcmitype/StillImage" />
        <dc:title></dc:title>
        <dc:creator>
          <cc:Agent>
            <dc:title>Maciej Dworak</dc:title>
          </cc:Agent>
        </dc:creator>
        <dc:rights>
          <cc:Agent>
            <dc:title />
          </cc:Agent>
        </dc:rights>
        <dc:description>RawTherapee icon.</dc:description>
        <cc:license
           rdf:resource="http://creativecommons.org/licenses/by-sa/4.0/" />
      </cc:Work>
      <cc:License
         rdf:about="http://creativecommons.org/licenses/by-sa/4.0/">
        <cc:permits
           rdf:resource="http://creativecommons.org/ns#Reproduction" />
        <cc:permits
           rdf:resource="http://creativecommons.org/ns#Distribution" />
        <cc:requires
           rdf:resource="http://creativecommons.org/ns#Notice" />
        <cc:requires
           rdf:resource="http://creativecommons.org/ns#Attribution" />
        <cc:permits
           rdf:resource="http://creativecommons.org/ns#DerivativeWorks" />
        <cc:requires
           rdf:resource="http://creativecommons.org/ns#ShareAlike" />
      </cc:License>
    </rdf:RDF>
  </metadata>
  <g
     id="layer1"
     inkscape:groupmode="layer"
     inkscape:label="Layer 1">
    <path
       style="opacity:0.7;fill:#2a7fff;fill-opacity:1;stroke:none;stroke-width:1;stroke-linecap:square;stroke-linejoin:miter;stroke-miterlimit:4;stroke-dasharray:none;stroke-opacity:1;paint-order:markers fill stroke"
       d="m 11.066359,2.3192467 c 0.02103,2.1794281 0.361946,4.3436016 0.343124,6.5243847 C 10.703789,6.7461227 9.6960899,4.7620769 9.0074444,2.6597168 8.6993964,1.4049372 6.6855849,1.3469162 6.7120828,2.7917117 6.860551,4.3054322 7.3065418,5.7862422 7.8574584,7.2035855 8.4371042,8.728674 9.0522407,10.317611 8.9314796,11.980084 8.7200153,13.308132 7.126686,13.731266 6.2345901,12.561086 5.8181155,12.167522 5.6906617,11.907896 5.2741487,11.321342 4.8576356,10.734789 4.1520632,9.821307 3.4051693,10.101994 c -1.4976695,0.876326 -0.2941262,2.449671 0.3195361,3.475862 0.5291409,1.049899 1.265396,1.943333 2.0966285,2.765328 1.1394053,1.210646 2.0071456,2.792292 1.9277399,4.496496 0.044036,1.388514 1.5584783,2.053001 2.7640802,2.126395 1.546216,0.08721 3.127517,0.02028 4.631582,-0.365992 0.822251,-0.241424 1.611938,-0.89834 1.595907,-1.823778 0.244116,-4.074098 2.047676,-7.810263 3.063052,-11.7140115 C 20.094797,8.0057799 20.448279,6.9330366 20.445238,5.8285168 20.177118,4.6460216 18.537149,4.6959279 18.236123,6.0272935 17.967363,6.9739347 17.870142,7.9685551 17.495572,8.884547 17.242047,6.9260482 17.684456,4.9341325 17.368125,2.97878 17.41337,1.4507624 15.214218,1.5288595 14.956983,2.8379753 14.705459,4.7639487 14.797305,6.7197263 14.556058,8.6480125 13.992175,6.3772042 14.267168,3.9545282 13.446484,1.7396332 12.871322,0.60333839 11.123424,1.0946692 11.066359,2.3192467 Z"
       id="path2954"
       inkscape:connector-curvature="0"
       sodipodi:nodetypes="cccccccccccccccccccccccc" />
  </g>
</svg>
