<?xml version="1.0" encoding="UTF-8" standalone="no"?>
<!-- Created with Inkscape (http://www.inkscape.org/) -->

<svg
   xmlns:dc="http://purl.org/dc/elements/1.1/"
   xmlns:cc="http://creativecommons.org/ns#"
   xmlns:rdf="http://www.w3.org/1999/02/22-rdf-syntax-ns#"
   xmlns:svg="http://www.w3.org/2000/svg"
   xmlns="http://www.w3.org/2000/svg"
   xmlns:sodipodi="http://sodipodi.sourceforge.net/DTD/sodipodi-0.dtd"
   xmlns:inkscape="http://www.inkscape.org/namespaces/inkscape"
   width="24px"
   height="24px"
   viewBox="0 0 24 24"
   version="1.1"
   id="SVGRoot"
   inkscape:export-filename="/tmp/template.png"
   inkscape:export-xdpi="96"
   inkscape:export-ydpi="96"
   inkscape:version="0.92.2 2405546, 2018-03-11"
   sodipodi:docname="hand-closed.svg">
  <sodipodi:namedview
     id="base"
     pagecolor="#E0E1E2"
     bordercolor="#666768"
     borderopacity="1.0"
     inkscape:pageopacity="0"
     inkscape:pageshadow="2"
     inkscape:zoom="34.25"
     inkscape:cx="12"
     inkscape:cy="12"
     inkscape:document-units="px"
     inkscape:current-layer="layer1"
     showgrid="true"
     inkscape:window-width="1920"
     inkscape:window-height="1019"
     inkscape:window-x="0"
     inkscape:window-y="0"
     inkscape:window-maximized="1"
     inkscape:grid-bbox="true"
     inkscape:pagecheckerboard="false"
     inkscape:snap-bbox="true"
     inkscape:bbox-nodes="true"
     inkscape:snap-others="false"
     inkscape:object-nodes="false"
     inkscape:snap-grids="true"
     inkscape:snap-bbox-midpoints="false"
     inkscape:snap-bbox-edge-midpoints="false"
     inkscape:bbox-paths="false"
     inkscape:object-paths="false"
     inkscape:snap-intersection-paths="false"
     inkscape:snap-smooth-nodes="false"
     inkscape:snap-global="false">
    <inkscape:grid
       type="xygrid"
       id="grid1374"
       originx="1"
       originy="1"
       empspacing="11"
       dotted="false" />
  </sodipodi:namedview>
  <defs
     id="defs815" />
  <metadata
     id="metadata818">
    <rdf:RDF>
      <cc:Work
         rdf:about="">
        <dc:format>image/svg+xml</dc:format>
        <dc:type
           rdf:resource="http://purl.org/dc/dcmitype/StillImage" />
        <dc:title />
        <dc:creator>
          <cc:Agent>
            <dc:title>Maciej Dworak</dc:title>
          </cc:Agent>
        </dc:creator>
        <dc:rights>
          <cc:Agent>
            <dc:title />
          </cc:Agent>
        </dc:rights>
        <dc:description>RawTherapee icon.</dc:description>
        <cc:license
           rdf:resource="http://creativecommons.org/licenses/by-sa/4.0/" />
      </cc:Work>
      <cc:License
         rdf:about="http://creativecommons.org/licenses/by-sa/4.0/">
        <cc:permits
           rdf:resource="http://creativecommons.org/ns#Reproduction" />
        <cc:permits
           rdf:resource="http://creativecommons.org/ns#Distribution" />
        <cc:requires
           rdf:resource="http://creativecommons.org/ns#Notice" />
        <cc:requires
           rdf:resource="http://creativecommons.org/ns#Attribution" />
        <cc:permits
           rdf:resource="http://creativecommons.org/ns#DerivativeWorks" />
        <cc:requires
           rdf:resource="http://creativecommons.org/ns#ShareAlike" />
      </cc:License>
    </rdf:RDF>
  </metadata>
  <g
     id="layer1"
     inkscape:groupmode="layer"
     inkscape:label="Layer 1">
    <path
       style="opacity:0.7;fill:#2a7fff;fill-opacity:1;stroke:none;stroke-width:1;stroke-linecap:square;stroke-linejoin:miter;stroke-miterlimit:4;stroke-dasharray:none;stroke-opacity:1;paint-order:markers fill stroke"
       d="m -21.536476,1.0000009 c -0.948269,0 -1.711674,0.8514544 -1.711674,1.9090908 0.01811,4.6864694 -0.02651,9.3831233 -0.256039,9.7173823 -0.229526,0.334261 -0.233012,-3.6963562 -0.233012,-7.7173825 0,-1.0576364 -0.763408,-1.9090908 -1.711676,-1.9090908 -0.948268,0 -1.711675,0.8514544 -1.711675,1.9090908 -0.03174,1.2281341 -0.01132,11.7217645 -0.01132,11.7217645 -0.439107,-0.840301 -0.784718,-1.854028 -1.095713,-2.903012 -0.310995,-1.048985 -0.357586,-2.521874 -0.658227,-3.503208 -0.306583,-1.0008337 -1.07076,-1.4553855 -1.9681,-1.1134432 -0.89734,0.3419431 -1.228292,1.3692982 -1.066613,2.4240062 l 0.585636,3.68557 1.020347,3.373111 C -30.053221,19.66255 -29.295309,23 -27.933607,23 h 13.232052 C -12.479914,22.131719 -12.009936,18.517544 -12,16.90909 V 8.9090913 c 0,-1.0576365 -0.763406,-1.9090909 -1.711674,-1.9090909 -0.948269,0 -1.711676,0.8514544 -1.711676,1.9090909 0.0066,2.6725927 -0.0095,5.3480947 -0.248805,4.6824467 -0.239272,-0.665649 -0.240245,-4.6755439 -0.240245,-8.6824465 0,-1.0576364 -0.763407,-1.9090908 -1.711674,-1.9090908 -0.948269,0 -1.711676,0.8514544 -1.711676,1.9090908 0.01256,4.0128995 -0.01836,8.0322495 -0.252704,7.6998675 -0.234347,-0.332384 -0.236347,-5.019198 -0.236347,-9.6998673 0,-1.0576364 -0.763407,-1.9090908 -1.711675,-1.9090908 z"
       id="rect2901"
       inkscape:connector-curvature="0"
       sodipodi:nodetypes="scccsccscscccsccsscccscccs" />
    <path
       style="color:#000000;font-style:normal;font-variant:normal;font-weight:normal;font-stretch:normal;font-size:medium;line-height:normal;font-family:sans-serif;font-variant-ligatures:normal;font-variant-position:normal;font-variant-caps:normal;font-variant-numeric:normal;font-variant-alternates:normal;font-feature-settings:normal;text-indent:0;text-align:start;text-decoration:none;text-decoration-line:none;text-decoration-style:solid;text-decoration-color:#000000;letter-spacing:normal;word-spacing:normal;text-transform:none;writing-mode:lr-tb;direction:ltr;text-orientation:mixed;dominant-baseline:auto;baseline-shift:baseline;text-anchor:start;white-space:normal;shape-padding:0;clip-rule:nonzero;display:inline;overflow:visible;visibility:visible;opacity:0.7;isolation:auto;mix-blend-mode:normal;color-interpolation:sRGB;color-interpolation-filters:linearRGB;solid-color:#000000;solid-opacity:1;vector-effect:none;fill:#000000;fill-opacity:1;fill-rule:nonzero;stroke:none;stroke-width:1.00010002;stroke-linecap:round;stroke-linejoin:miter;stroke-miterlimit:4;stroke-dasharray:none;stroke-dashoffset:0;stroke-opacity:1;paint-order:markers fill stroke;color-rendering:auto;image-rendering:auto;shape-rendering:auto;text-rendering:auto;enable-background:accumulate"
       d="m 11.628906,1.5195312 c -0.680589,-0.05363 -1.235328,0.3845764 -1.466797,0.8925782 -0.234228,0.5140603 -0.258015,1.0988213 -0.07617,1.6171875 l -0.02148,-0.080078 C 10.19916,4.7208693 10.417435,5.448634 10.574219,6.1503906 10.122152,5.3406634 9.600653,4.5737108 9.007812,3.8730469 8.620822,3.2968214 7.938652,3.0851463 7.337891,3.1894531 6.752936,3.2910156 6.199059,3.7485697 6.068359,4.4316406 5.884465,4.9785341 5.951234,5.5225273 6.130859,5.96875 6.308848,6.4109055 6.567718,6.7822033 6.789062,7.1074219 7.443042,8.4263964 8.262774,9.5914438 8.490234,10.865234 8.557774,11.243729 8.492034,11.715203 8.3125,12.109375 8.150006,12.466104 7.888941,12.711381 7.609375,12.857422 7.319226,12.843636 7.066506,12.734874 6.84375,12.466797 6.596093,12.168753 6.413567,11.731498 6.353516,11.365234 6.295331,10.808329 6.067331,10.20483 5.638672,9.75 5.419888,9.5178583 5.129647,9.3211976 4.771484,9.2695312 4.413322,9.2178651 4.023049,9.3376648 3.693359,9.59375 h -0.002 V 9.5957 c -0.659619,0.518354 -0.930321,1.288752 -0.939453,2.023438 -0.009,0.723544 0.213387,1.431639 0.537109,2.021484 0.427607,1.018883 1.019899,1.996569 1.902344,2.753906 L 5.167969,16.375 c 1.26268,1.225532 2.184735,2.901177 2.078125,4.617188 v 0.01562 0.01563 c 0,0.794629 0.565532,1.392396 1.205078,1.785156 0.636492,0.390885 1.394295,0.618141 2.089844,0.638672 1.583921,0.125137 3.209634,0.02066 4.761718,-0.382813 l 0.01172,-0.0039 0.01367,-0.0039 c 0.435984,-0.138315 0.891906,-0.369194 1.261719,-0.726563 0.369812,-0.357369 0.652922,-0.879195 0.613281,-1.482422 v 0.07422 c 0.19266,-2.348546 0.778157,-4.65564 1.578125,-6.892578 l 0.0039,-0.0098 0.0039,-0.01172 C 19.437,11.893007 20.138321,9.7469155 20.482409,7.4960718 v -0.00195 C 20.605788,6.6697241 20.10458,5.9629266 19.464844,5.6425781 19.144976,5.4824039 18.761852,5.4099172 18.384766,5.5273438 18.023743,5.639768 17.724197,5.9534058 17.544922,6.3554688 17.519874,6.3948976 17.530262,6.4291146 17.509766,6.46875 17.439708,5.9462964 17.419267,5.474277 17.199219,4.9296875 17.104642,4.3832547 16.872741,3.8366828 16.474609,3.4121094 16.067373,2.9778264 15.455708,2.6783428 14.765625,2.7578125 l -0.0098,0.00195 -0.01172,0.00195 c -0.401204,0.063208 -0.748194,0.2916871 -0.929688,0.5917968 -0.06753,0.1116621 -0.04862,0.2281982 -0.08203,0.34375 C 13.572119,3.2711683 13.5166,2.8281379 13.246059,2.4257749 l -0.03125,-0.046875 -0.04102,-0.037109 C 12.836467,2.0229781 12.361452,1.5354152 11.628906,1.5195312 Z m -0.02734,0.4921876 c 0.515691,0.00248 0.880163,0.3641842 1.228516,0.6933593 1.055466,1.5697407 0.994821,3.54262 1.572266,5.2832031 0.238005,-0.063414 -0.11357,-1.6076762 -0.16211,-2.2226562 -0.01599,-0.7959087 -0.571382,-2.3280511 0.582032,-2.5097656 1.05084,-0.1210144 1.748564,0.8570145 1.898437,1.7890625 0.442874,1.0341573 0.370792,2.1781926 0.650391,3.25 0.388388,-0.097492 0.279818,-1.2650893 0.599609,-1.7148438 0.527032,-1.2962985 2.187352,-0.2948468 2.017578,0.8398438 -0.335878,2.1971372 -1.028082,4.3210651 -1.677734,6.4414061 -0.810532,2.266479 -1.410182,4.615155 -1.607422,7.019531 0.05751,0.875155 -0.779107,1.461842 -1.527344,1.699219 -1.495741,0.388826 -3.072241,0.494208 -4.611328,0.371094 C 9.384003,22.919712 7.746098,22.110017 7.746098,21.023438 7.864795,19.112875 6.853688,17.314319 5.515629,16.015625 4.703216,15.318391 4.142373,14.406715 3.734379,13.427734 3.149165,12.378967 2.945396,10.817029 4,9.9882812 4.997505,9.2134725 5.779533,10.557975 5.861328,11.447266 6.01012,12.354779 6.687355,13.458382 7.724609,13.398438 8.653521,13.01865 9.159259,11.768303 8.982422,10.777344 8.728108,9.353167 7.860693,8.1459602 7.230469,6.8710938 6.773205,6.1973061 6.222793,5.4143585 6.537109,4.5566406 6.686301,3.556509 8.066522,3.3600285 8.595703,4.1542969 c 1.100918,1.291917 1.994057,2.7998627 2.515625,4.4199219 0.47778,-1.581579 -0.284312,-3.1620798 -0.554687,-4.7109376 -0.26492,-0.7551926 0.07664,-1.9445014 1.044921,-1.8515624 z"
       id="path840"
       inkscape:connector-curvature="0" />
    <path
       sodipodi:nodetypes="cccccccccccccccccccccccccc"
       inkscape:connector-curvature="0"
       id="path849"
       d="m 11.602196,26.011121 c -0.968279,-0.09294 -1.309807,1.097311 -1.044887,1.852503 0.270375,1.548858 1.032003,3.129502 0.554223,4.711081 C 10.589964,30.954646 9.696549,29.446787 8.5956314,28.15487 8.0664503,27.360601 6.6853476,27.556354 6.5361563,28.556485 c -0.314316,0.857718 0.2376356,1.64067 0.6948996,2.314457 0.6302245,1.274867 1.4962662,2.482414 1.7505805,3.906591 0.1768374,0.990959 -0.3289732,2.241539 -1.2578849,2.621327 -1.0372547,0.05994 -1.7140144,-1.044398 -1.8628061,-1.951911 -0.081795,-0.889291 -0.86326,-2.233825 -1.8607647,-1.459016 -1.0546044,0.828747 -0.8509919,2.390946 -0.2657818,3.439713 0.4079941,0.978981 0.969746,1.890696 1.7821593,2.58793 1.3380594,1.298694 2.3477705,3.097517 2.2290734,5.00808 0,1.086579 1.638441,1.89624 2.8188954,1.927695 1.539087,0.123114 3.116222,0.01728 4.611963,-0.371546 0.748237,-0.237377 1.585081,-0.823539 1.52757,-1.698694 0.19724,-2.404376 0.796669,-4.753262 1.607201,-7.019741 0.649652,-2.120341 1.340729,-4.243896 1.676607,-6.441033 0.169774,-1.134691 -1.489651,-2.135902 -2.016683,-0.839604 -0.319791,0.449755 -0.21195,1.616727 -0.600338,1.714219 -0.279599,-1.071807 -0.20687,-2.216252 -0.649744,-3.25041 -0.149873,-0.932048 -0.84734,-1.91055 -1.89818,-1.789536 -1.153414,0.181715 -0.597997,1.714518 -0.582003,2.510427 0.04854,0.61498 0.399825,2.15953 0.16182,2.222943 -0.577445,-1.740583 -0.516942,-3.713714 -1.572408,-5.283454 -0.348353,-0.329176 -0.712446,-0.691324 -1.228136,-0.693801 z"
       style="opacity:0.7;fill:#2a7fff;fill-opacity:1;stroke:none;stroke-width:1;stroke-linecap:square;stroke-linejoin:miter;stroke-miterlimit:4;stroke-dasharray:none;stroke-opacity:1;paint-order:markers fill stroke" />
    <path
       style="opacity:0.7;fill:#2a7fff;fill-opacity:1;stroke:none;stroke-width:1;stroke-linecap:square;stroke-linejoin:miter;stroke-miterlimit:4;stroke-dasharray:none;stroke-opacity:1;paint-order:markers fill stroke"
       d="m 11.602196,2.011121 c -0.968279,-0.09294 -1.309807,1.097311 -1.044887,1.852503 0.270375,1.548858 1.032003,3.129502 0.554223,4.711081 C 10.589964,6.954646 9.696549,5.446787 8.5956314,4.15487 8.0664503,3.360601 6.6853476,3.556354 6.5361563,4.556485 6.2218403,5.414203 6.7737919,6.197155 7.2310559,6.870942 7.8612804,8.145809 8.7273221,9.353356 8.9816364,10.777533 9.1584738,11.768492 8.6526632,13.019072 7.7237515,13.39886 6.6864968,13.4588 6.0097371,12.354462 5.8609454,11.446949 5.7791504,10.557658 4.9976854,9.213124 4.0001807,9.987933 2.9455763,10.81668 3.1491888,12.378879 3.7343989,13.427646 c 0.4079941,0.978981 0.969746,1.890696 1.7821593,2.58793 1.3380594,1.298694 2.3477705,3.097517 2.2290734,5.00808 0,1.086579 1.638441,1.89624 2.8188954,1.927695 1.539087,0.123114 3.116222,0.01728 4.611963,-0.371546 0.748237,-0.237377 1.585081,-0.823539 1.52757,-1.698694 0.19724,-2.404376 0.796669,-4.753262 1.607201,-7.019741 C 18.960913,11.741029 19.65199,9.617474 19.987868,7.420337 20.157642,6.285646 18.498217,5.284435 17.971185,6.580733 17.651394,7.030488 17.759235,8.19746 17.370847,8.294952 17.091248,7.223145 17.163977,6.0787 16.721103,5.044542 16.57123,4.112494 15.873763,3.133992 14.822923,3.255006 13.669509,3.436721 14.224926,4.969524 14.24092,5.765433 c 0.04854,0.61498 0.399825,2.15953 0.16182,2.222943 C 13.825295,6.247793 13.885798,4.274662 12.830332,2.704922 12.481979,2.375746 12.117886,2.013598 11.602196,2.011121 Z"
       id="path852"
       inkscape:connector-curvature="0"
       sodipodi:nodetypes="cccccccccccccccccccccccccc" />
    <path
       style="color:#000000;font-style:normal;font-variant:normal;font-weight:normal;font-stretch:normal;font-size:medium;line-height:normal;font-family:sans-serif;font-variant-ligatures:normal;font-variant-position:normal;font-variant-caps:normal;font-variant-numeric:normal;font-variant-alternates:normal;font-feature-settings:normal;text-indent:0;text-align:start;text-decoration:none;text-decoration-line:none;text-decoration-style:solid;text-decoration-color:#000000;letter-spacing:normal;word-spacing:normal;text-transform:none;writing-mode:lr-tb;direction:ltr;text-orientation:mixed;dominant-baseline:auto;baseline-shift:baseline;text-anchor:start;white-space:normal;shape-padding:0;clip-rule:nonzero;display:inline;overflow:visible;visibility:visible;opacity:0.7;isolation:auto;mix-blend-mode:normal;color-interpolation:sRGB;color-interpolation-filters:linearRGB;solid-color:#000000;solid-opacity:1;vector-effect:none;fill:#ffffff;fill-opacity:1;fill-rule:nonzero;stroke:none;stroke-width:1.00010002;stroke-linecap:round;stroke-linejoin:miter;stroke-miterlimit:4;stroke-dasharray:none;stroke-dashoffset:0;stroke-opacity:1;paint-order:markers fill stroke;color-rendering:auto;image-rendering:auto;shape-rendering:auto;text-rendering:auto;enable-background:accumulate"
       d="m 11.601562,2.0117188 c -0.968278,-0.09294 -1.309841,1.0963704 -1.044921,1.8515624 0.270375,1.5488581 1.032467,3.1293586 0.554687,4.7109376 C 10.58976,6.9541598 9.696621,5.4462139 8.595703,4.1542969 8.066522,3.3600279 6.686301,3.5565096 6.537109,4.5566406 6.222793,5.4143586 6.773205,6.1973067 7.230469,6.8710938 7.860693,8.1459608 8.728108,9.3531667 8.982422,10.777344 9.15926,11.768303 8.653521,13.01865 7.724609,13.398438 6.687355,13.458377 6.01012,12.354779 5.861328,11.447266 5.779538,10.557975 4.997504,9.2134723 4,9.9882812 2.945395,10.817028 3.149165,12.378967 3.734375,13.427734 c 0.407994,0.978981 0.968837,1.890657 1.78125,2.587891 1.33806,1.298694 2.349166,3.09725 2.230469,5.007813 0,1.086579 1.637905,1.896279 2.818359,1.927734 1.539087,0.123114 3.115587,0.01773 4.611328,-0.371094 0.748237,-0.237377 1.584855,-0.824064 1.527344,-1.699219 0.19724,-2.404376 0.79689,-4.753052 1.607422,-7.019531 0.649652,-2.120341 1.341856,-4.2442691 1.677734,-6.4414061 0.169774,-1.134691 -1.490546,-2.1361418 -2.017578,-0.8398438 -0.319791,0.449755 -0.211221,1.6173518 -0.599609,1.7148438 -0.279599,-1.071807 -0.207517,-2.215842 -0.650391,-3.25 C 16.57083,4.1128739 15.873106,3.1348454 14.822266,3.2558594 13.668852,3.4375744 14.22424,4.969716 14.240234,5.765625 c 0.04854,0.61498 0.400115,2.1592432 0.16211,2.2226562 C 13.824899,6.2476983 13.885544,4.2748181 12.830078,2.7050781 12.481725,2.3759021 12.117253,2.0141957 11.601562,2.0117188 Z m -0.04687,0.4980468 0.02148,0.00195 h 0.02344 c 0.266338,0.00128 0.512596,0.2203056 0.835938,0.5234374 0.911727,1.3969818 0.882427,3.2733371 1.492187,5.1113282 L 14.076172,8.59375 14.53125,8.4707031 c 0.288525,-0.076874 0.385059,-0.3187823 0.417969,-0.4433593 0.03291,-0.1245773 0.0353,-0.2231743 0.03516,-0.328125 C 14.984086,7.4893172 14.957136,7.2601929 14.923828,7.015625 14.857211,6.5264891 14.759643,5.9724596 14.740234,5.7265625 v 0.029297 c -0.0102,-0.5077555 -0.149171,-1.0639976 -0.146484,-1.4726563 0.0013,-0.2043293 0.03985,-0.3488391 0.07813,-0.4121093 0.03633,-0.060078 0.065,-0.090553 0.216797,-0.1171876 0.355996,-0.03829 0.615867,0.088235 0.855469,0.34375 0.241675,0.2577268 0.422435,0.6523313 0.482421,1.0253907 l 0.0098,0.0625 0.02539,0.056641 c 0.382519,0.8932217 0.318109,2.0032601 0.625,3.1796875 l 0.125,0.4785156 0.480469,-0.1210937 c 0.330877,-0.083056 0.484119,-0.3569479 0.558593,-0.5527344 0.07447,-0.1957865 0.106671,-0.3850543 0.138672,-0.5722656 0.064,-0.3744227 0.163301,-0.7464229 0.189453,-0.7832031 l 0.0332,-0.048828 0.02148,-0.052734 c 0.08882,-0.2184574 0.171069,-0.2631381 0.248047,-0.2871093 0.07698,-0.023971 0.196292,-0.017193 0.335937,0.052734 0.279291,0.1398555 0.522983,0.5002917 0.476563,0.8105469 -0.327668,2.1434306 -1.008802,4.2432419 -1.660157,6.3691409 -0.817333,2.289621 -1.427699,4.672266 -1.628906,7.125 l -0.002,0.03711 0.002,0.03711 c 0.01787,0.27193 -0.08926,0.481468 -0.310547,0.695313 -0.218395,0.211047 -0.548661,0.388427 -0.857422,0.488281 -1.430398,0.370039 -2.948879,0.474234 -4.433593,0.355469 l -0.01172,-0.002 h -0.01367 C 10.095913,22.438362 9.449398,22.24861 8.974609,21.957031 8.499821,21.665452 8.246094,21.315386 8.246094,21.023438 l -0.00195,0.03125 C 8.374922,18.949572 7.278673,17.028106 5.865234,15.65625 l -0.011718,-0.0098 -0.011719,-0.0098 C 5.106419,15.005666 4.583017,14.164671 4.195312,13.234375 l -0.00977,-0.02539 -0.013672,-0.02539 C 3.91873,12.729917 3.745542,12.146651 3.751953,11.630859 c 0.0064,-0.515792 0.161652,-0.939603 0.556641,-1.25 0.166559,-0.128502 0.249369,-0.131327 0.320312,-0.121093 0.07147,0.01031 0.169755,0.05748 0.28125,0.175781 0.22299,0.236604 0.423426,0.73374 0.453125,1.056641 l 0.00195,0.01758 0.00195,0.01758 c 0.08874,0.54125 0.319796,1.112105 0.707031,1.578125 0.387234,0.46602 0.976274,0.833506 1.677734,0.792969 l 0.083985,-0.0059 0.076171,-0.03125 C 8.525107,13.610741 8.961282,13.099195 9.222656,12.525391 9.48403,11.951586 9.583904,11.301917 9.474609,10.689453 9.194359,9.1200327 8.284853,7.8726123 7.679688,6.6484375 L 7.664062,6.6191406 7.644531,6.5898438 C 7.41403,6.2500625 7.185203,5.9102242 7.058594,5.5957031 6.931984,5.2811821 6.898153,5.0224299 7.005859,4.7285156 L 7.023438,4.6816406 7.03125,4.6308594 C 7.07333,4.3487867 7.252096,4.220519 7.509766,4.1757812 7.767435,4.1310433 8.036905,4.2173332 8.179688,4.4316406 l 0.015624,0.025391 0.019532,0.021484 c 1.062957,1.2473704 1.921664,2.7023465 2.419922,4.25 L 11.126953,10.253906 11.589844,8.71875 C 12.136837,6.9080552 11.303711,5.2262641 11.050781,3.7773438 l -0.0078,-0.041016 -0.01367,-0.039063 c -0.08308,-0.2368265 -0.06941,-0.6244659 0.04297,-0.8710937 0.112374,-0.2466278 0.205943,-0.3429437 0.482422,-0.3164063 z"
       id="path844"
       inkscape:connector-curvature="0" />
    <path
       style="opacity:1;fill:#ffffff;fill-opacity:1;stroke:#000000;stroke-width:1;stroke-linecap:round;stroke-linejoin:miter;stroke-miterlimit:4;stroke-dasharray:none;stroke-opacity:1;paint-order:markers fill stroke"
       d="m 35.602196,2.011121 c -0.968279,-0.09294 -1.309807,1.097311 -1.044887,1.852503 0.270375,1.548858 1.032003,3.129502 0.554223,4.711081 C 34.589964,6.954646 33.696549,5.446787 32.595631,4.15487 32.06645,3.360601 30.685348,3.556354 30.536156,4.556485 c -0.314316,0.857718 0.237636,1.64067 0.6949,2.314457 0.630224,1.274867 1.496266,2.482414 1.75058,3.906591 0.176838,0.990959 -0.328973,2.241539 -1.257885,2.621327 -1.037254,0.05994 -1.714014,-1.044398 -1.862806,-1.951911 -0.08179,-0.889291 -0.86326,-2.233825 -1.860764,-1.459016 -1.054605,0.828747 -0.850992,2.390946 -0.265782,3.439713 0.407994,0.978981 0.969746,1.890696 1.782159,2.58793 1.33806,1.298694 2.347771,3.097517 2.229074,5.00808 0,1.086579 1.638441,1.89624 2.818895,1.927695 1.539087,0.123114 3.116222,0.01728 4.611963,-0.371546 0.748237,-0.237377 1.585081,-0.823539 1.52757,-1.698694 0.19724,-2.404376 0.796669,-4.753262 1.607201,-7.019741 C 42.960913,11.741029 43.65199,9.617474 43.987868,7.420337 44.157642,6.285646 42.498217,5.284435 41.971185,6.580733 41.651394,7.030488 41.759235,8.19746 41.370847,8.294952 41.091248,7.223145 41.163977,6.0787 40.721103,5.044542 40.57123,4.112494 39.873763,3.133992 38.822923,3.255006 37.669509,3.436721 38.224926,4.969524 38.24092,5.765433 c 0.04854,0.61498 0.399825,2.15953 0.16182,2.222943 C 37.825295,6.247793 37.885798,4.274662 36.830332,2.704922 36.481979,2.375746 36.117886,2.013598 35.602196,2.011121 Z"
       id="path861"
       inkscape:connector-curvature="0"
       sodipodi:nodetypes="cccccccccccccccccccccccccc" />
  </g>
</svg>
