<?xml version="1.0" encoding="UTF-8" standalone="no"?>
<!-- Created with Inkscape (http://www.inkscape.org/) -->

<svg
   xmlns:dc="http://purl.org/dc/elements/1.1/"
   xmlns:cc="http://creativecommons.org/ns#"
   xmlns:rdf="http://www.w3.org/1999/02/22-rdf-syntax-ns#"
   xmlns:svg="http://www.w3.org/2000/svg"
   xmlns="http://www.w3.org/2000/svg"
   xmlns:sodipodi="http://sodipodi.sourceforge.net/DTD/sodipodi-0.dtd"
   xmlns:inkscape="http://www.inkscape.org/namespaces/inkscape"
   width="16"
   height="16"
   viewBox="0 0 16 16"
   version="1.1"
   id="SVGRoot"
   inkscape:export-filename="/tmp/template.png"
   inkscape:export-xdpi="96"
   inkscape:export-ydpi="96"
   inkscape:version="0.92.2 2405546, 2018-03-11"
   sodipodi:docname="padlock-unlocked.svg">
  <sodipodi:namedview
     id="base"
     pagecolor="#E0E1E2"
     bordercolor="#666768"
     borderopacity="1.0"
     inkscape:pageopacity="0"
     inkscape:pageshadow="2"
     inkscape:zoom="35.797281"
     inkscape:cx="3.8158517"
     inkscape:cy="9.6631885"
     inkscape:document-units="px"
     inkscape:current-layer="layer1"
     showgrid="true"
     inkscape:window-width="1920"
     inkscape:window-height="1019"
     inkscape:window-x="0"
     inkscape:window-y="0"
     inkscape:window-maximized="1"
     inkscape:grid-bbox="true"
     inkscape:pagecheckerboard="false"
     inkscape:snap-bbox="true"
     inkscape:bbox-nodes="true"
     inkscape:snap-others="false"
     inkscape:object-nodes="false"
     inkscape:snap-grids="true"
     inkscape:snap-bbox-midpoints="false">
    <inkscape:grid
       type="xygrid"
       id="grid1374"
       originx="1"
       originy="1"
       empspacing="7"
       dotted="false" />
  </sodipodi:namedview>
  <defs
     id="defs815" />
  <metadata
     id="metadata818">
    <rdf:RDF>
      <cc:Work
         rdf:about="">
        <dc:format>image/svg+xml</dc:format>
        <dc:type
           rdf:resource="http://purl.org/dc/dcmitype/StillImage" />
        <dc:title></dc:title>
        <dc:creator>
          <cc:Agent>
            <dc:title>Maciej Dworak</dc:title>
          </cc:Agent>
        </dc:creator>
        <dc:rights>
          <cc:Agent>
            <dc:title />
          </cc:Agent>
        </dc:rights>
        <dc:description>RawTherapee icon.</dc:description>
        <cc:license
           rdf:resource="http://creativecommons.org/licenses/by-sa/4.0/" />
      </cc:Work>
      <cc:License
         rdf:about="http://creativecommons.org/licenses/by-sa/4.0/">
        <cc:permits
           rdf:resource="http://creativecommons.org/ns#Reproduction" />
        <cc:permits
           rdf:resource="http://creativecommons.org/ns#Distribution" />
        <cc:requires
           rdf:resource="http://creativecommons.org/ns#Notice" />
        <cc:requires
           rdf:resource="http://creativecommons.org/ns#Attribution" />
        <cc:permits
           rdf:resource="http://creativecommons.org/ns#DerivativeWorks" />
        <cc:requires
           rdf:resource="http://creativecommons.org/ns#ShareAlike" />
      </cc:License>
    </rdf:RDF>
  </metadata>
  <g
     id="layer1"
     inkscape:groupmode="layer"
     inkscape:label="Layer 1"
     transform="translate(0,-8)">
    <path
       inkscape:connector-curvature="0"
       style="opacity:0.7;fill:#2a7fff;fill-opacity:1;stroke:none;stroke-width:0.17045528;stroke-miterlimit:4;stroke-dasharray:none;stroke-opacity:1"
       d="M 2.4011244,13.827807 C 1.6248731,13.827807 1,14.54498 1,15.435751 V 21.39206 C 1,22.28283 1.6248731,23 2.4011244,23 H 9.000911 c 0.776247,0 1.401307,-0.71717 1.401307,-1.60794 v -5.956309 c 0,-0.890771 -0.62506,-1.607944 -1.401307,-1.607944 z m 3.2999866,1.93302 a 1.5963236,1.5963236 0 0 1 1.5962459,1.596433 1.5963236,1.5963236 0 0 1 -0.7934815,1.377546 v 2.844763 c 0,0.05704 -0.04851,0.103037 -0.1087951,0.103037 H 5.0069542 c -0.060286,0 -0.108795,-0.046 -0.108795,-0.103037 v -2.84458 A 1.5963236,1.5963236 0 0 1 4.104865,17.35726 1.5963236,1.5963236 0 0 1 5.701111,15.760827 Z"
       id="path185" />
    <path
       id="path1468"
       d="M -16.598876,13.827807 C -17.375127,13.827807 -18,14.54498 -18,15.435751 V 21.39206 C -18,22.28283 -17.375127,23 -16.598876,23 h 6.599787 c 0.776247,0 1.401307,-0.71717 1.401307,-1.60794 v -5.956309 c 0,-0.890771 -0.62506,-1.607944 -1.401307,-1.607944 z m 3.299987,1.93302 a 1.5963236,1.5963236 0 0 1 1.596246,1.596433 1.5963236,1.5963236 0 0 1 -0.793482,1.377546 v 2.844763 c 0,0.05704 -0.04851,0.103037 -0.108795,0.103037 h -1.388126 c -0.06029,0 -0.108795,-0.046 -0.108795,-0.103037 v -2.84458 a 1.5963236,1.5963236 0 0 1 -0.793294,-1.377729 1.5963236,1.5963236 0 0 1 1.596246,-1.596433 z"
       style="opacity:0.7;fill:#2a7fff;fill-opacity:1;stroke:none;stroke-width:0.17045528;stroke-miterlimit:4;stroke-dasharray:none;stroke-opacity:1"
       inkscape:connector-curvature="0" />
    <path
       d="m -84.964844,437.23047 c -5.749245,0 -10.486328,4.43747 -10.486328,9.98828 v 7.01563 a 1.3130874,1.3130874 0 0 0 1.369141,1.3125 c 0.146957,-0.006 0.216026,-0.0137 0.21875,-0.0137 h 2.539062 a 1.3130874,1.3130874 0 0 0 1.3125,-1.3125 v -6.1875 c 0,-2.58556 2.330684,-5.26562 5.046875,-5.26562 2.716198,0 5.046875,2.68005 5.046875,5.26562 v 2.83985 a 1.3130874,1.3130874 0 0 0 1.3125,1.3125 h 2.814453 a 1.3130874,1.3130874 0 0 0 1.3125,-1.3125 v -3.6543 c 0,-5.5508 -4.737076,-9.98828 -10.486328,-9.98828 z"
       id="path1470"
       style="opacity:0.7;fill:#2a7fff;fill-opacity:1;stroke:none;stroke-width:0.7735216;stroke-miterlimit:4;stroke-dasharray:none;stroke-opacity:1"
       inkscape:original="M -84.964844 438.54297 C -90.047618 438.54297 -94.138672 442.41308 -94.138672 447.21875 L -94.138672 454.23438 C -94.046312 454.23037 -93.956654 454.2207 -93.863281 454.2207 L -91.324219 454.2207 L -91.324219 448.0332 C -91.324219 444.70228 -88.487821 441.45508 -84.964844 441.45508 C -81.441862 441.45508 -78.605469 444.70228 -78.605469 448.0332 L -78.605469 450.87305 L -75.791016 450.87305 L -75.791016 447.21875 C -75.791016 442.4131 -79.882067 438.54297 -84.964844 438.54297 z "
       inkscape:radius="1.3129561"
       sodipodi:type="inkscape:offset"
       transform="matrix(-0.3592608,0,0,0.3592608,-43.823425,-148.07977)" />
    <path
       id="path1475"
       d="M 11.266606,9 C 9.201125,9 7.4990258,10.593706 7.4990258,12.587891 v 1.3125 a 0.47174083,0.47174083 0 0 0 0.011718,0.09961 H 9.442387 a 0.47174083,0.47174083 0 0 0 0.01172,-0.09961 v -1.019532 c 0,-0.928894 0.836676,-1.890625 1.8125,-1.890625 0.975821,0 1.8125,0.961735 1.8125,1.890625 v 1.119142 h 1.955077 v -1.412109 c 0,-1.994189 -1.7021,-3.587891 -3.767578,-3.587891 z"
       style="opacity:0.7;fill:#2a7fff;fill-opacity:1;stroke:none;stroke-width:2;stroke-miterlimit:4;stroke-dasharray:none;stroke-opacity:1"
       inkscape:connector-curvature="0" />
  </g>
</svg>
