<?xml version="1.0" encoding="UTF-8" standalone="no"?>
<!-- Created with Inkscape (http://www.inkscape.org/) -->

<svg
   xmlns:dc="http://purl.org/dc/elements/1.1/"
   xmlns:cc="http://creativecommons.org/ns#"
   xmlns:rdf="http://www.w3.org/1999/02/22-rdf-syntax-ns#"
   xmlns:svg="http://www.w3.org/2000/svg"
   xmlns="http://www.w3.org/2000/svg"
   xmlns:sodipodi="http://sodipodi.sourceforge.net/DTD/sodipodi-0.dtd"
   xmlns:inkscape="http://www.inkscape.org/namespaces/inkscape"
   width="16"
   height="16"
   viewBox="0 0 16 16"
   version="1.1"
   id="SVGRoot"
   inkscape:export-filename="/tmp/template.png"
   inkscape:export-xdpi="96"
   inkscape:export-ydpi="96"
   inkscape:version="0.92.2 2405546, 2018-03-11"
   sodipodi:docname="redo-small.svg">
  <sodipodi:namedview
     id="base"
     pagecolor="#E0E1E2"
     bordercolor="#666768"
     borderopacity="1.0"
     inkscape:pageopacity="0"
     inkscape:pageshadow="2"
     inkscape:zoom="22.627417"
     inkscape:cx="-2.333987"
     inkscape:cy="3.4079617"
     inkscape:document-units="px"
     inkscape:current-layer="layer1"
     showgrid="true"
     inkscape:window-width="1920"
     inkscape:window-height="1019"
     inkscape:window-x="0"
     inkscape:window-y="0"
     inkscape:window-maximized="1"
     inkscape:grid-bbox="true"
     inkscape:pagecheckerboard="false"
     inkscape:snap-bbox="true"
     inkscape:bbox-nodes="true"
     inkscape:snap-others="false"
     inkscape:object-nodes="false"
     inkscape:snap-grids="true"
     inkscape:snap-bbox-midpoints="false">
    <inkscape:grid
       type="xygrid"
       id="grid1374"
       originx="1"
       originy="1"
       empspacing="7"
       dotted="false" />
  </sodipodi:namedview>
  <defs
     id="defs815" />
  <metadata
     id="metadata818">
    <rdf:RDF>
      <cc:Work
         rdf:about="">
        <dc:format>image/svg+xml</dc:format>
        <dc:type
           rdf:resource="http://purl.org/dc/dcmitype/StillImage" />
        <dc:title></dc:title>
        <dc:creator>
          <cc:Agent>
            <dc:title>Maciej Dworak</dc:title>
          </cc:Agent>
        </dc:creator>
        <dc:rights>
          <cc:Agent>
            <dc:title />
          </cc:Agent>
        </dc:rights>
        <dc:description>RawTherapee icon.</dc:description>
        <cc:license
           rdf:resource="http://creativecommons.org/licenses/by-sa/4.0/" />
      </cc:Work>
      <cc:License
         rdf:about="http://creativecommons.org/licenses/by-sa/4.0/">
        <cc:permits
           rdf:resource="http://creativecommons.org/ns#Reproduction" />
        <cc:permits
           rdf:resource="http://creativecommons.org/ns#Distribution" />
        <cc:requires
           rdf:resource="http://creativecommons.org/ns#Notice" />
        <cc:requires
           rdf:resource="http://creativecommons.org/ns#Attribution" />
        <cc:permits
           rdf:resource="http://creativecommons.org/ns#DerivativeWorks" />
        <cc:requires
           rdf:resource="http://creativecommons.org/ns#ShareAlike" />
      </cc:License>
    </rdf:RDF>
  </metadata>
  <g
     id="layer1"
     inkscape:groupmode="layer"
     inkscape:label="Layer 1"
     transform="translate(0,-8)">
    <g
       id="g1443"
       transform="matrix(-0.63828036,0,0,0.63828036,16.274238,3.8726461)"
       style="stroke-width:1.56670964">
      <path
         inkscape:connector-curvature="0"
         id="path875"
         d="m 5.2929688,15.246094 c -0.4876302,2.611979 -0.9752605,5.223958 -1.4628907,7.835937 2.642578,0.201172 5.2851559,0.402344 7.9277339,0.603516 -0.374133,-0.532158 -0.847393,-1.003846 -1.125,-1.595703 -0.325821,-0.810039 0.116871,-1.721414 0.838745,-2.142941 1.988745,-1.419724 4.416673,-2.092986 6.834425,-2.249036 0.302478,-0.03291 0.927116,0.01471 0.33115,-0.2064 C 16.791383,16.53179 14.781713,15.765562 12.673857,15.757082 11.021162,15.709962 9.3520341,16.045858 7.875,16.794922 7.1085741,17.055522 6.2680677,16.658655 5.8609582,15.988849 5.6716284,15.741264 5.4822986,15.493679 5.2929688,15.246094 Z"
         style="opacity:0.5;fill:#2a7fff;fill-opacity:1;fill-rule:nonzero;stroke:none;stroke-width:1.56670964;stroke-linecap:butt;stroke-linejoin:miter;stroke-miterlimit:4;stroke-dasharray:none;stroke-opacity:1;paint-order:normal" />
      <path
         inkscape:connector-curvature="0"
         id="rect821"
         d="M 4.8691406,12.5 C 4.2256059,12.47184 3.8935369,13.109111 3.8664179,13.669519 3.2467608,17.007606 2.6150065,20.34374 2.0029077,23.683047 c -0.07867,0.651747 0.5659916,1.103542 1.1661457,1.043353 3.4103659,0.256648 6.8201177,0.525013 10.2308676,0.77433 0.792549,0.01926 1.215596,-1.054103 0.655016,-1.599385 -0.612986,-0.797787 -1.225381,-1.596028 -1.836187,-2.395486 2.563791,-1.920416 5.930852,-2.462158 9.06224,-2.172632 0.866955,-0.09143 1.857946,0.610861 2.624915,0.154323 0.227944,-0.946265 -1.203108,-1.315197 -1.7384,-1.929388 -3.331183,-2.42166 -7.528559,-4.001396 -11.686814,-3.348274 -1.0747,0.172155 -2.1410571,0.467329 -3.1095972,0.971753 C 6.7326561,14.368005 6.1315959,13.521813 5.4694486,12.728818 5.3047621,12.584571 5.0881269,12.501695 4.8691406,12.5 Z m 0.4238282,2.746094 c 0.5299226,0.644134 0.9725814,1.557929 1.9140624,1.617187 0.8187078,0.07811 1.4650515,-0.552497 2.2435698,-0.696401 2.732387,-0.80868 5.719891,-0.392478 8.249796,0.866033 0.329331,0.210287 1.820337,0.706992 0.765839,0.653413 -2.620621,0.150689 -5.294327,0.88681 -7.366627,2.553908 -0.766626,0.635787 -0.721442,1.86062 -0.03633,2.536528 0.231273,0.303095 0.464063,0.605141 0.694532,0.908785 C 9.115234,23.484375 6.4726561,23.283203 3.8300781,23.082031 4.3177083,20.470052 4.8053386,17.858073 5.2929688,15.246094 Z m 18.4003902,2.75 h 0.0039 z"
         style="opacity:0.7;fill:#2a7fff;fill-opacity:1;fill-rule:nonzero;stroke:none;stroke-width:1.56670964;stroke-linecap:butt;stroke-linejoin:miter;stroke-miterlimit:4;stroke-dasharray:none;stroke-opacity:1;paint-order:normal" />
    </g>
  </g>
</svg>
