<?xml version="1.0" encoding="UTF-8" standalone="no"?>
<!-- Created with Inkscape (http://www.inkscape.org/) -->

<svg
   xmlns:dc="http://purl.org/dc/elements/1.1/"
   xmlns:cc="http://creativecommons.org/ns#"
   xmlns:rdf="http://www.w3.org/1999/02/22-rdf-syntax-ns#"
   xmlns:svg="http://www.w3.org/2000/svg"
   xmlns="http://www.w3.org/2000/svg"
   xmlns:sodipodi="http://sodipodi.sourceforge.net/DTD/sodipodi-0.dtd"
   xmlns:inkscape="http://www.inkscape.org/namespaces/inkscape"
   width="16"
   height="16"
   viewBox="0 0 16 16"
   version="1.1"
   id="SVGRoot"
   inkscape:export-filename="/tmp/template.png"
   inkscape:export-xdpi="96"
   inkscape:export-ydpi="96"
   inkscape:version="0.92.2 2405546, 2018-03-11"
   sodipodi:docname="saved-no-small.svg">
  <sodipodi:namedview
     id="base"
     pagecolor="#E0E1E2"
     bordercolor="#666768"
     borderopacity="1.0"
     inkscape:pageopacity="0"
     inkscape:pageshadow="2"
     inkscape:zoom="51.375"
     inkscape:cx="8"
     inkscape:cy="8"
     inkscape:document-units="px"
     inkscape:current-layer="layer1"
     showgrid="true"
     inkscape:window-width="1920"
     inkscape:window-height="1019"
     inkscape:window-x="0"
     inkscape:window-y="0"
     inkscape:window-maximized="1"
     inkscape:grid-bbox="true"
     inkscape:pagecheckerboard="false"
     inkscape:snap-bbox="true"
     inkscape:bbox-nodes="false"
     inkscape:snap-others="false"
     inkscape:object-nodes="true"
     inkscape:snap-grids="true"
     inkscape:snap-bbox-midpoints="false"
     inkscape:snap-bbox-edge-midpoints="false"
     inkscape:bbox-paths="true">
    <inkscape:grid
       type="xygrid"
       id="grid1374"
       originx="1"
       originy="1"
       empspacing="7"
       dotted="false" />
  </sodipodi:namedview>
  <defs
     id="defs815" />
  <metadata
     id="metadata818">
    <rdf:RDF>
      <cc:Work
         rdf:about="">
        <dc:format>image/svg+xml</dc:format>
        <dc:type
           rdf:resource="http://purl.org/dc/dcmitype/StillImage" />
        <dc:title />
        <dc:creator>
          <cc:Agent>
            <dc:title>Maciej Dworak</dc:title>
          </cc:Agent>
        </dc:creator>
        <dc:rights>
          <cc:Agent>
            <dc:title />
          </cc:Agent>
        </dc:rights>
        <dc:description>RawTherapee icon.</dc:description>
        <cc:license
           rdf:resource="http://creativecommons.org/licenses/by-sa/4.0/" />
      </cc:Work>
      <cc:License
         rdf:about="http://creativecommons.org/licenses/by-sa/4.0/">
        <cc:permits
           rdf:resource="http://creativecommons.org/ns#Reproduction" />
        <cc:permits
           rdf:resource="http://creativecommons.org/ns#Distribution" />
        <cc:requires
           rdf:resource="http://creativecommons.org/ns#Notice" />
        <cc:requires
           rdf:resource="http://creativecommons.org/ns#Attribution" />
        <cc:permits
           rdf:resource="http://creativecommons.org/ns#DerivativeWorks" />
        <cc:requires
           rdf:resource="http://creativecommons.org/ns#ShareAlike" />
      </cc:License>
    </rdf:RDF>
  </metadata>
  <g
     id="layer1"
     inkscape:groupmode="layer"
     inkscape:label="Layer 1"
     transform="translate(0,-8)">
    <path
       style="opacity:0.2;fill:#2a7fff;fill-opacity:1;fill-rule:nonzero;stroke:none;stroke-width:3;stroke-linecap:butt;stroke-linejoin:round;stroke-miterlimit:4;stroke-dasharray:none;stroke-dashoffset:2.00314951;stroke-opacity:1;paint-order:normal"
       d="M 8.7109375 2 L 7.2890625 2 L 8 2.7109375 L 8.7109375 2 z "
       id="path846"
       transform="translate(0,8)" />
    <path
       style="opacity:0.2;fill:#2a7fff;fill-opacity:1;fill-rule:nonzero;stroke:none;stroke-width:3;stroke-linecap:butt;stroke-linejoin:round;stroke-miterlimit:4;stroke-dasharray:none;stroke-dashoffset:2.00314951;stroke-opacity:1;paint-order:normal"
       d="M 13 3.4160156 L 13 2 L 11.875 2 L 12.644531 2.7695312 A 1.3258772 1.3258772 0 0 1 12.708984 2.8378906 A 1.3258772 1.3258772 0 0 1 12.791016 2.9433594 A 1.3258772 1.3258772 0 0 1 12.861328 3.0546875 A 1.3258772 1.3258772 0 0 1 12.919922 3.1738281 A 1.3258772 1.3258772 0 0 1 12.966797 3.296875 A 1.3258772 1.3258772 0 0 1 13 3.4160156 z "
       id="path844"
       transform="translate(0,8)" />
    <path
       style="opacity:0.2;fill:#2a7fff;fill-opacity:1;fill-rule:nonzero;stroke:none;stroke-width:3;stroke-linecap:butt;stroke-linejoin:round;stroke-miterlimit:4;stroke-dasharray:none;stroke-dashoffset:2.00314951;stroke-opacity:1;paint-order:normal"
       d="M 12.289062 7 L 13 7 L 13 3.9921875 A 1.3258772 1.3258772 0 0 1 12.978516 4.0800781 A 1.3258772 1.3258772 0 0 1 12.935547 4.2050781 A 1.3258772 1.3258772 0 0 1 12.878906 4.3261719 A 1.3258772 1.3258772 0 0 1 12.8125 4.4394531 A 1.3258772 1.3258772 0 0 1 12.734375 4.546875 A 1.3258772 1.3258772 0 0 1 12.644531 4.6445312 L 11.289062 6 L 12.289062 7 z "
       id="path842"
       transform="translate(0,8)" />
    <path
       style="opacity:0.2;fill:#2a7fff;fill-opacity:1;fill-rule:nonzero;stroke:none;stroke-width:3;stroke-linecap:butt;stroke-linejoin:round;stroke-miterlimit:4;stroke-dasharray:none;stroke-dashoffset:2.00314951;stroke-opacity:1;paint-order:normal"
       d="M 3 3.9980469 L 3 7 L 3.7109375 7 L 4.7109375 6 L 3.3554688 4.6445312 A 1.3258772 1.3258772 0 0 1 3.2910156 4.5761719 A 1.3258772 1.3258772 0 0 1 3.2089844 4.4707031 A 1.3258772 1.3258772 0 0 1 3.1386719 4.359375 A 1.3258772 1.3258772 0 0 1 3.0800781 4.2402344 A 1.3258772 1.3258772 0 0 1 3.0332031 4.1171875 A 1.3258772 1.3258772 0 0 1 3 3.9980469 z "
       id="path840"
       transform="translate(0,8)" />
    <path
       style="opacity:0.2;fill:#2a7fff;fill-opacity:1;fill-rule:nonzero;stroke:none;stroke-width:3;stroke-linecap:butt;stroke-linejoin:round;stroke-miterlimit:4;stroke-dasharray:none;stroke-dashoffset:2.00314951;stroke-opacity:1;paint-order:normal"
       d="M 4.125 2 L 3 2 L 3 3.421875 A 1.3258772 1.3258772 0 0 1 3.0214844 3.3339844 A 1.3258772 1.3258772 0 0 1 3.0644531 3.2089844 A 1.3258772 1.3258772 0 0 1 3.1210938 3.0878906 A 1.3258772 1.3258772 0 0 1 3.1875 2.9746094 A 1.3258772 1.3258772 0 0 1 3.265625 2.8671875 A 1.3258772 1.3258772 0 0 1 3.3554688 2.7695312 L 4.125 2 z "
       id="path838"
       transform="translate(0,8)" />
    <path
       style="opacity:0.1;fill:#2a7fff;fill-opacity:1;fill-rule:nonzero;stroke:none;stroke-width:3;stroke-linecap:butt;stroke-linejoin:round;stroke-miterlimit:4;stroke-dasharray:none;stroke-dashoffset:2.00314951;stroke-opacity:1;paint-order:normal"
       d="M 4.125,10 C 3.8140243,10.32615 3.4677276,10.621561 3.1875,10.974609 2.9463422,11.270892 3.0059202,11.64798 3,11.998047 3.1163471,12.54366 3.6043741,12.856521 3.9563016,13.245364 4.2078469,13.496909 4.4593922,13.748455 4.7109375,14 c -0.3333333,0.333333 -0.6666667,0.666667 -1,1 2.8593748,0 5.7187497,0 8.5781245,0 -0.333333,-0.333333 -0.666667,-0.666667 -1,-1 0.480697,-0.485405 0.971169,-0.961435 1.445313,-1.453125 C 12.953042,12.300874 13.027802,11.976113 13,11.656777 13.051441,11.214175 12.747928,10.845363 12.438983,10.563983 12.250989,10.375989 12.062994,10.187994 11.875,10 10.820313,10 9.765625,10 8.7109375,10 8.4739583,10.236979 8.2369792,10.473958 8,10.710938 7.7630208,10.473958 7.5260417,10.236979 7.2890625,10 6.234375,10 5.1796875,10 4.125,10 Z"
       id="rect836"
       inkscape:connector-curvature="0" />
    <g
       id="g1400">
      <g
         id="g1389">
        <g
           id="g1379">
          <g
             id="g1370">
            <g
               id="g1362">
              <g
                 id="g1355">
                <g
                   id="g1349">
                  <g
                     id="g1344">
                    <g
                       id="g1340">
                      <path
                         style="opacity:0.7;fill:#2a7fff;fill-opacity:1;stroke:none;stroke-width:2;stroke-linecap:butt;stroke-linejoin:round;stroke-miterlimit:4;stroke-dasharray:none;stroke-opacity:1;paint-order:normal"
                         d="M 5.9980469 11 L 5.421875 11 A 1.3258772 1.3258772 0 0 0 5.4628906 11.009766 A 1.3258772 1.3258772 0 0 0 5.59375 11.027344 A 1.3258772 1.3258772 0 0 0 5.7265625 11.033203 A 1.3258772 1.3258772 0 0 0 5.859375 11.023438 A 1.3258772 1.3258772 0 0 0 5.9902344 11.001953 A 1.3258772 1.3258772 0 0 0 5.9980469 11 z "
                         id="path885"
                         transform="translate(0,8)" />
                      <path
                         style="opacity:0.7;fill:#2a7fff;fill-opacity:1;stroke:none;stroke-width:2;stroke-linecap:butt;stroke-linejoin:round;stroke-miterlimit:4;stroke-dasharray:none;stroke-opacity:1;paint-order:normal"
                         d="M 5.9980469 11 A 1.3258772 1.3258772 0 0 1 5.9902344 11.001953 A 1.3258772 1.3258772 0 0 1 5.859375 11.023438 A 1.3258772 1.3258772 0 0 1 5.7265625 11.033203 A 1.3258772 1.3258772 0 0 1 5.59375 11.027344 A 1.3258772 1.3258772 0 0 1 5.4628906 11.009766 A 1.3258772 1.3258772 0 0 1 5.421875 11 L 5 11 L 5 14 L 7 14 L 7 11 L 5.9980469 11 z "
                         id="path883"
                         transform="translate(0,8)" />
                      <path
                         style="opacity:0.7;fill:#2a7fff;fill-opacity:1;stroke:none;stroke-width:2;stroke-linecap:butt;stroke-linejoin:round;stroke-miterlimit:4;stroke-dasharray:none;stroke-opacity:1;paint-order:normal"
                         d="M 8.7109375 10 L 8 9.2890625 L 7.2890625 10 L 8.7109375 10 z "
                         id="path881"
                         transform="translate(0,8)" />
                      <path
                         style="opacity:0.7;fill:#2a7fff;fill-opacity:1;stroke:none;stroke-width:2;stroke-linecap:butt;stroke-linejoin:round;stroke-miterlimit:4;stroke-dasharray:none;stroke-opacity:1;paint-order:normal"
                         d="M 8.7109375 2 L 9.3554688 1.3554688 A 1.3258772 1.3258772 0 0 1 9.4238281 1.2910156 A 1.3258772 1.3258772 0 0 1 9.5292969 1.2089844 A 1.3258772 1.3258772 0 0 1 9.640625 1.1386719 A 1.3258772 1.3258772 0 0 1 9.7597656 1.0800781 A 1.3258772 1.3258772 0 0 1 9.8828125 1.0332031 A 1.3258772 1.3258772 0 0 1 10.001953 1 L 5.9941406 1 A 1.3258772 1.3258772 0 0 1 6.0800781 1.0195312 A 1.3258772 1.3258772 0 0 1 6.2050781 1.0644531 A 1.3258772 1.3258772 0 0 1 6.3261719 1.1210938 A 1.3258772 1.3258772 0 0 1 6.4394531 1.1875 A 1.3258772 1.3258772 0 0 1 6.546875 1.265625 A 1.3258772 1.3258772 0 0 1 6.6445312 1.3554688 L 7.2890625 2 L 8.7109375 2 z "
                         id="path879"
                         transform="translate(0,8)" />
                      <path
                         style="opacity:0.1;fill:#2a7fff;fill-opacity:1;stroke:none;stroke-width:2;stroke-linecap:butt;stroke-linejoin:round;stroke-miterlimit:4;stroke-dasharray:none;stroke-opacity:1;paint-order:normal"
                         d="M 5.4160156,9 C 4.852312,9.1244 4.5301368,9.6366943 4.125,10 5.1796875,10 6.234375,10 7.2890625,10 6.8826548,9.6373983 6.5609571,9.118875 5.9941406,9 5.8014323,9 5.6087239,9 5.4160156,9 Z M 10.001953,9 C 9.437214,9.1244065 9.1164855,9.6367786 8.7109375,10 9.765625,10 10.820313,10 11.875,10 11.467968,9.6368616 11.146647,9.1179741 10.578125,9 10.386068,9 10.19401,9 10.001953,9 Z m -6.2910155,6 c -0.4081568,0.363575 -0.8303002,0.836532 -0.7388102,1.428882 0.069514,0.666909 0.6665862,1.043605 1.0821187,1.500364 0.118697,0.141703 0.3381651,0.04012 0.5028688,0.07075 0.9106493,0 1.8212985,0 2.7319477,0 C 7.5260417,17.763021 7.7630208,17.526042 8,17.289062 8.2369792,17.526042 8.4739583,17.763021 8.7109375,18 9.765625,18 10.820313,18 11.875,18 12.28894,17.518987 12.95293,17.141999 13.023535,16.453774 13.09464,15.92458 12.799243,15.430853 12.401116,15.107723 12.222464,14.917364 11.938409,15.030543 11.70595,15 9.0409461,15 6.3759418,15 3.7109375,15 Z"
                         id="path877"
                         inkscape:connector-curvature="0" />
                      <path
                         style="opacity:0.7;fill:#2a7fff;fill-opacity:1;stroke:none;stroke-width:2;stroke-linecap:butt;stroke-linejoin:round;stroke-miterlimit:4;stroke-dasharray:none;stroke-opacity:1;paint-order:normal"
                         d="M 13 3.9921875 A 1.3258772 1.3258772 0 0 0 13.009766 3.9511719 A 1.3258772 1.3258772 0 0 0 13.027344 3.8203125 A 1.3258772 1.3258772 0 0 0 13.033203 3.6875 A 1.3258772 1.3258772 0 0 0 13.023438 3.5546875 A 1.3258772 1.3258772 0 0 0 13.001953 3.4238281 A 1.3258772 1.3258772 0 0 0 13 3.4160156 L 13 3.9921875 z "
                         id="path875"
                         transform="translate(0,8)" />
                      <path
                         style="opacity:0.7;fill:#2a7fff;fill-opacity:1;stroke:none;stroke-width:2;stroke-linecap:butt;stroke-linejoin:round;stroke-miterlimit:4;stroke-dasharray:none;stroke-opacity:1;paint-order:normal"
                         d="M 12.289062 7 L 12.644531 7.3554688 A 1.3258772 1.3258772 0 0 1 12.708984 7.4238281 A 1.3258772 1.3258772 0 0 1 12.791016 7.5292969 A 1.3258772 1.3258772 0 0 1 12.861328 7.640625 A 1.3258772 1.3258772 0 0 1 12.919922 7.7597656 A 1.3258772 1.3258772 0 0 1 12.966797 7.8828125 A 1.3258772 1.3258772 0 0 1 13.001953 8.0097656 A 1.3258772 1.3258772 0 0 1 13.023438 8.140625 A 1.3258772 1.3258772 0 0 1 13.033203 8.2734375 A 1.3258772 1.3258772 0 0 1 13.027344 8.40625 A 1.3258772 1.3258772 0 0 1 13.009766 8.5371094 A 1.3258772 1.3258772 0 0 1 12.978516 8.6660156 A 1.3258772 1.3258772 0 0 1 12.935547 8.7910156 A 1.3258772 1.3258772 0 0 1 12.878906 8.9121094 A 1.3258772 1.3258772 0 0 1 12.8125 9.0253906 A 1.3258772 1.3258772 0 0 1 12.734375 9.1328125 A 1.3258772 1.3258772 0 0 1 12.644531 9.2304688 L 11.875 10 L 12 10 L 12 15 L 13.091797 15 C 14.149434 15 15 14.149434 15 13.091797 L 15 2.9082031 C 15 1.8505667 14.149434 1 13.091797 1 L 10.578125 1 A 1.3258772 1.3258772 0 0 1 10.666016 1.0214844 A 1.3258772 1.3258772 0 0 1 10.791016 1.0644531 A 1.3258772 1.3258772 0 0 1 10.912109 1.1210938 A 1.3258772 1.3258772 0 0 1 11.025391 1.1875 A 1.3258772 1.3258772 0 0 1 11.132812 1.265625 A 1.3258772 1.3258772 0 0 1 11.230469 1.3554688 L 11.875 2 L 13 2 L 13 3.4160156 A 1.3258772 1.3258772 0 0 1 13.001953 3.4238281 A 1.3258772 1.3258772 0 0 1 13.023438 3.5546875 A 1.3258772 1.3258772 0 0 1 13.033203 3.6875 A 1.3258772 1.3258772 0 0 1 13.027344 3.8203125 A 1.3258772 1.3258772 0 0 1 13.009766 3.9511719 A 1.3258772 1.3258772 0 0 1 13 3.9921875 L 13 7 L 12.289062 7 z "
                         id="path873"
                         transform="translate(0,8)" />
                      <path
                         style="opacity:0.7;fill:#2a7fff;fill-opacity:1;stroke:none;stroke-width:2;stroke-linecap:butt;stroke-linejoin:round;stroke-miterlimit:4;stroke-dasharray:none;stroke-opacity:1;paint-order:normal"
                         d="M 3 3.421875 A 1.3258772 1.3258772 0 0 0 2.9902344 3.4628906 A 1.3258772 1.3258772 0 0 0 2.9726562 3.59375 A 1.3258772 1.3258772 0 0 0 2.9667969 3.7265625 A 1.3258772 1.3258772 0 0 0 2.9765625 3.859375 A 1.3258772 1.3258772 0 0 0 2.9980469 3.9902344 A 1.3258772 1.3258772 0 0 0 3 3.9980469 L 3 3.421875 z "
                         id="path869"
                         transform="translate(0,8)" />
                      <path
                         style="opacity:0.7;fill:#2a7fff;fill-opacity:1;stroke:none;stroke-width:2;stroke-linecap:butt;stroke-linejoin:round;stroke-miterlimit:4;stroke-dasharray:none;stroke-opacity:1;paint-order:normal"
                         d="M 5.4160156 1 L 2.9082031 1 C 1.8505668 1 1 1.8505667 1 2.9082031 L 1 13.091797 C 1 14.149434 1.8505668 15 2.9082031 15 L 4 15 L 4 10 L 4.125 10 L 3.3554688 9.2304688 A 1.3258772 1.3258772 0 0 1 3.2910156 9.1621094 A 1.3258772 1.3258772 0 0 1 3.2089844 9.0566406 A 1.3258772 1.3258772 0 0 1 3.1386719 8.9453125 A 1.3258772 1.3258772 0 0 1 3.0800781 8.8261719 A 1.3258772 1.3258772 0 0 1 3.0332031 8.703125 A 1.3258772 1.3258772 0 0 1 2.9980469 8.5761719 A 1.3258772 1.3258772 0 0 1 2.9765625 8.4453125 A 1.3258772 1.3258772 0 0 1 2.9667969 8.3125 A 1.3258772 1.3258772 0 0 1 2.9726562 8.1796875 A 1.3258772 1.3258772 0 0 1 2.9902344 8.0488281 A 1.3258772 1.3258772 0 0 1 3.0214844 7.9199219 A 1.3258772 1.3258772 0 0 1 3.0644531 7.7949219 A 1.3258772 1.3258772 0 0 1 3.1210938 7.6738281 A 1.3258772 1.3258772 0 0 1 3.1875 7.5605469 A 1.3258772 1.3258772 0 0 1 3.265625 7.453125 A 1.3258772 1.3258772 0 0 1 3.3554688 7.3554688 L 3.7109375 7 L 3 7 L 3 3.9980469 A 1.3258772 1.3258772 0 0 1 2.9980469 3.9902344 A 1.3258772 1.3258772 0 0 1 2.9765625 3.859375 A 1.3258772 1.3258772 0 0 1 2.9667969 3.7265625 A 1.3258772 1.3258772 0 0 1 2.9726562 3.59375 A 1.3258772 1.3258772 0 0 1 2.9902344 3.4628906 A 1.3258772 1.3258772 0 0 1 3 3.421875 L 3 2 L 4.125 2 L 4.7695312 1.3554688 A 1.3258772 1.3258772 0 0 1 4.8378906 1.2910156 A 1.3258772 1.3258772 0 0 1 4.9433594 1.2089844 A 1.3258772 1.3258772 0 0 1 5.0546875 1.1386719 A 1.3258772 1.3258772 0 0 1 5.171875 1.0800781 A 1.3258772 1.3258772 0 0 1 5.296875 1.03125 A 1.3258772 1.3258772 0 0 1 5.4160156 1 z "
                         id="path867"
                         transform="translate(0,8)" />
                    </g>
                  </g>
                </g>
              </g>
            </g>
          </g>
        </g>
      </g>
    </g>
    <rect
       style="opacity:0.2;fill:#2a7fff;fill-opacity:1;fill-rule:nonzero;stroke:none;stroke-width:3;stroke-linecap:butt;stroke-linejoin:round;stroke-miterlimit:4;stroke-dasharray:none;stroke-dashoffset:2.00314951;stroke-opacity:1;paint-order:normal"
       id="rect838"
       width="8"
       height="5"
       x="4"
       y="18" />
    <path
       id="path1994"
       style="fill:none;fill-rule:evenodd;stroke:#c00000;stroke-width:2;stroke-linecap:butt;stroke-linejoin:miter;stroke-miterlimit:4;stroke-dasharray:none;stroke-opacity:1"
       d="m 11,11 -6,6 m 0,-6 6,6"
       inkscape:connector-curvature="0" />
    <path
       id="path864"
       d="m 21.6875,8.9667969 a 1.3258772,1.3258772 0 0 0 -0.917969,0.3886719 l -1.414062,1.4140622 a 1.3258772,1.3258772 0 0 0 0,1.875 L 20.710937,14 19.355469,15.355469 a 1.3258772,1.3258772 0 0 0 0,1.875 l 1.414062,1.414062 a 1.3258772,1.3258772 0 0 0 1.875,0 L 24,17.289062 l 1.355469,1.355469 a 1.3258772,1.3258772 0 0 0 1.875,0 l 1.414062,-1.414062 a 1.3258772,1.3258772 0 0 0 0,-1.875 L 27.289062,14 28.644531,12.644531 a 1.3258772,1.3258772 0 0 0 0,-1.875 L 27.230469,9.3554688 a 1.3258772,1.3258772 0 0 0 -1.875,0 L 24,10.710938 22.644531,9.3554688 A 1.3258772,1.3258772 0 0 0 21.6875,8.9667969 Z"
       style="color:#000000;font-style:normal;font-variant:normal;font-weight:normal;font-stretch:normal;font-size:medium;line-height:normal;font-family:sans-serif;font-variant-ligatures:normal;font-variant-position:normal;font-variant-caps:normal;font-variant-numeric:normal;font-variant-alternates:normal;font-feature-settings:normal;text-indent:0;text-align:start;text-decoration:none;text-decoration-line:none;text-decoration-style:solid;text-decoration-color:#000000;letter-spacing:normal;word-spacing:normal;text-transform:none;writing-mode:lr-tb;direction:ltr;text-orientation:mixed;dominant-baseline:auto;baseline-shift:baseline;text-anchor:start;white-space:normal;shape-padding:0;clip-rule:nonzero;display:inline;overflow:visible;visibility:visible;opacity:0.7;isolation:auto;mix-blend-mode:normal;color-interpolation:sRGB;color-interpolation-filters:linearRGB;solid-color:#000000;solid-opacity:1;vector-effect:none;fill:#ffffff;fill-opacity:1;fill-rule:evenodd;stroke:none;stroke-width:2;stroke-linecap:butt;stroke-linejoin:miter;stroke-miterlimit:4;stroke-dasharray:none;stroke-dashoffset:0;stroke-opacity:1;color-rendering:auto;image-rendering:auto;shape-rendering:auto;text-rendering:auto;enable-background:accumulate"
       inkscape:connector-curvature="0" />
  </g>
</svg>
