<?xml version="1.0" encoding="UTF-8" standalone="no"?>
<!-- Created with Inkscape (http://www.inkscape.org/) -->

<svg
   xmlns:dc="http://purl.org/dc/elements/1.1/"
   xmlns:cc="http://creativecommons.org/ns#"
   xmlns:rdf="http://www.w3.org/1999/02/22-rdf-syntax-ns#"
   xmlns:svg="http://www.w3.org/2000/svg"
   xmlns="http://www.w3.org/2000/svg"
   xmlns:sodipodi="http://sodipodi.sourceforge.net/DTD/sodipodi-0.dtd"
   xmlns:inkscape="http://www.inkscape.org/namespaces/inkscape"
   width="24px"
   height="24px"
   viewBox="0 0 24 24"
   version="1.1"
   id="SVGRoot"
   inkscape:export-filename="/tmp/template.png"
   inkscape:export-xdpi="96"
   inkscape:export-ydpi="96"
   inkscape:version="0.92.2 2405546, 2018-03-11"
   sodipodi:docname="trash-hide-deleted.svg">
  <sodipodi:namedview
     id="base"
     pagecolor="#E0E1E2"
     bordercolor="#666768"
     borderopacity="1.0"
     inkscape:pageopacity="0"
     inkscape:pageshadow="2"
     inkscape:zoom="34.25"
     inkscape:cx="7.7372263"
     inkscape:cy="12"
     inkscape:document-units="px"
     inkscape:current-layer="layer1"
     showgrid="false"
     inkscape:window-width="1920"
     inkscape:window-height="1019"
     inkscape:window-x="0"
     inkscape:window-y="0"
     inkscape:window-maximized="1"
     inkscape:grid-bbox="true"
     inkscape:pagecheckerboard="false"
     inkscape:snap-bbox="true"
     inkscape:bbox-nodes="true"
     inkscape:snap-others="false"
     inkscape:object-nodes="false"
     inkscape:snap-grids="true"
     inkscape:snap-bbox-midpoints="false"
     inkscape:snap-smooth-nodes="false">
    <inkscape:grid
       type="xygrid"
       id="grid1374"
       originx="1"
       originy="1"
       empspacing="11"
       dotted="false" />
  </sodipodi:namedview>
  <defs
     id="defs815">
    <marker
       inkscape:stockid="TriangleOutM"
       orient="auto"
       refY="0.0"
       refX="0.0"
       id="marker8803"
       style="overflow:visible"
       inkscape:isstock="true">
      <path
         id="path8801"
         d="M 5.77,0.0 L -2.88,5.0 L -2.88,-5.0 L 5.77,0.0 z "
         style="fill-rule:evenodd;stroke:#000000;stroke-width:1pt;stroke-opacity:1;fill:#000000;fill-opacity:1"
         transform="scale(0.4)" />
    </marker>
    <marker
       inkscape:stockid="TriangleOutS"
       orient="auto"
       refY="0.0"
       refX="0.0"
       id="TriangleOutS"
       style="overflow:visible"
       inkscape:isstock="true">
      <path
         id="path8663"
         d="M 5.77,0.0 L -2.88,5.0 L -2.88,-5.0 L 5.77,0.0 z "
         style="fill-rule:evenodd;stroke:#000000;stroke-width:1pt;stroke-opacity:1;fill:#000000;fill-opacity:1"
         transform="scale(0.2)" />
    </marker>
    <marker
       inkscape:stockid="ExperimentalArrow"
       orient="auto-start-reverse"
       refY="3.0"
       refX="5.0"
       id="ExperimentalArrow"
       inkscape:isstock="true">
      <path
         id="path8768"
         d="m 10,3 -10,3 0,-6 z"
         style="fill:context-stroke;stroke:#000000;stroke-opacity:1" />
    </marker>
    <marker
       inkscape:stockid="TriangleOutM"
       orient="auto"
       refY="0.0"
       refX="0.0"
       id="TriangleOutM"
       style="overflow:visible"
       inkscape:isstock="true">
      <path
         id="path8660"
         d="M 5.77,0.0 L -2.88,5.0 L -2.88,-5.0 L 5.77,0.0 z "
         style="fill-rule:evenodd;stroke:#000000;stroke-width:1pt;stroke-opacity:1;fill:#000000;fill-opacity:1"
         transform="scale(0.4)" />
    </marker>
    <marker
       inkscape:stockid="Arrow2Mend"
       orient="auto"
       refY="0.0"
       refX="0.0"
       id="Arrow2Mend"
       style="overflow:visible;"
       inkscape:isstock="true">
      <path
         id="path8542"
         style="fill-rule:evenodd;stroke-width:0.625;stroke-linejoin:round;stroke:#000000;stroke-opacity:1;fill:#000000;fill-opacity:1"
         d="M 8.7185878,4.0337352 L -2.2072895,0.016013256 L 8.7185884,-4.0017078 C 6.9730900,-1.6296469 6.9831476,1.6157441 8.7185878,4.0337352 z "
         transform="scale(0.6) rotate(180) translate(0,0)" />
    </marker>
    <marker
       inkscape:stockid="Arrow1Sstart"
       orient="auto"
       refY="0.0"
       refX="0.0"
       id="marker8791"
       style="overflow:visible"
       inkscape:isstock="true">
      <path
         id="path8789"
         d="M 0.0,0.0 L 5.0,-5.0 L -12.5,0.0 L 5.0,5.0 L 0.0,0.0 z "
         style="fill-rule:evenodd;stroke:#000000;stroke-width:1pt;stroke-opacity:1;fill:#000000;fill-opacity:1"
         transform="scale(0.2) translate(6,0)" />
    </marker>
    <marker
       inkscape:stockid="Arrow1Send"
       orient="auto"
       refY="0.0"
       refX="0.0"
       id="marker8787"
       style="overflow:visible;"
       inkscape:isstock="true">
      <path
         id="path8785"
         d="M 0.0,0.0 L 5.0,-5.0 L -12.5,0.0 L 5.0,5.0 L 0.0,0.0 z "
         style="fill-rule:evenodd;stroke:#000000;stroke-width:1pt;stroke-opacity:1;fill:#000000;fill-opacity:1"
         transform="scale(0.2) rotate(180) translate(6,0)" />
    </marker>
    <marker
       inkscape:stockid="Arrow2Lstart"
       orient="auto"
       refY="0.0"
       refX="0.0"
       id="Arrow2Lstart"
       style="overflow:visible"
       inkscape:isstock="true">
      <path
         id="path8533"
         style="fill-rule:evenodd;stroke-width:0.625;stroke-linejoin:round;stroke:#000000;stroke-opacity:1;fill:#000000;fill-opacity:1"
         d="M 8.7185878,4.0337352 L -2.2072895,0.016013256 L 8.7185884,-4.0017078 C 6.9730900,-1.6296469 6.9831476,1.6157441 8.7185878,4.0337352 z "
         transform="scale(1.1) translate(1,0)" />
    </marker>
    <marker
       inkscape:stockid="Arrow1Send"
       orient="auto"
       refY="0.0"
       refX="0.0"
       id="Arrow1Send"
       style="overflow:visible;"
       inkscape:isstock="true">
      <path
         id="path8530"
         d="M 0.0,0.0 L 5.0,-5.0 L -12.5,0.0 L 5.0,5.0 L 0.0,0.0 z "
         style="fill-rule:evenodd;stroke:#000000;stroke-width:1pt;stroke-opacity:1;fill:#000000;fill-opacity:1"
         transform="scale(0.2) rotate(180) translate(6,0)" />
    </marker>
    <marker
       inkscape:stockid="Arrow1Sstart"
       orient="auto"
       refY="0.0"
       refX="0.0"
       id="Arrow1Sstart"
       style="overflow:visible"
       inkscape:isstock="true">
      <path
         id="path8527"
         d="M 0.0,0.0 L 5.0,-5.0 L -12.5,0.0 L 5.0,5.0 L 0.0,0.0 z "
         style="fill-rule:evenodd;stroke:#000000;stroke-width:1pt;stroke-opacity:1;fill:#000000;fill-opacity:1"
         transform="scale(0.2) translate(6,0)" />
    </marker>
    <marker
       inkscape:stockid="Arrow1Mend"
       orient="auto"
       refY="0.0"
       refX="0.0"
       id="Arrow1Mend"
       style="overflow:visible;"
       inkscape:isstock="true">
      <path
         id="path8524"
         d="M 0.0,0.0 L 5.0,-5.0 L -12.5,0.0 L 5.0,5.0 L 0.0,0.0 z "
         style="fill-rule:evenodd;stroke:#000000;stroke-width:1pt;stroke-opacity:1;fill:#000000;fill-opacity:1"
         transform="scale(0.4) rotate(180) translate(10,0)" />
    </marker>
  </defs>
  <metadata
     id="metadata818">
    <rdf:RDF>
      <cc:Work
         rdf:about="">
        <dc:format>image/svg+xml</dc:format>
        <dc:type
           rdf:resource="http://purl.org/dc/dcmitype/StillImage" />
        <dc:title />
        <dc:creator>
          <cc:Agent>
            <dc:title>Maciej Dworak</dc:title>
          </cc:Agent>
        </dc:creator>
        <dc:rights>
          <cc:Agent>
            <dc:title />
          </cc:Agent>
        </dc:rights>
        <dc:description>RawTherapee icon.</dc:description>
        <cc:license
           rdf:resource="http://creativecommons.org/licenses/by-sa/4.0/" />
      </cc:Work>
      <cc:License
         rdf:about="http://creativecommons.org/licenses/by-sa/4.0/">
        <cc:permits
           rdf:resource="http://creativecommons.org/ns#Reproduction" />
        <cc:permits
           rdf:resource="http://creativecommons.org/ns#Distribution" />
        <cc:requires
           rdf:resource="http://creativecommons.org/ns#Notice" />
        <cc:requires
           rdf:resource="http://creativecommons.org/ns#Attribution" />
        <cc:permits
           rdf:resource="http://creativecommons.org/ns#DerivativeWorks" />
        <cc:requires
           rdf:resource="http://creativecommons.org/ns#ShareAlike" />
      </cc:License>
    </rdf:RDF>
  </metadata>
  <g
     id="layer1"
     inkscape:groupmode="layer"
     inkscape:label="Layer 1">
    <path
       style="opacity:0.7;fill:#2a7fff;stroke:none;stroke-width:2.03374696"
       id="path8"
       d="M 9.7366771,1.132175 C 9.2661442,1.3724936 8.9623825,1.7930507 8.8968652,2.2796953 l -0.041693,0.282374 H 12 15.144828 l -0.04169,-0.246326 C 15.04953,1.9672812 14.805329,1.5106766 14.573041,1.3364455 14.144201,1.006008 14.096552,0.99999997 11.958307,0.99999997 10.070219,1.006008 9.9630094,1.0120155 9.7366771,1.132175 Z"
       inkscape:connector-curvature="0" />
    <path
       style="opacity:0.7;fill:#2a7fff;stroke:none;stroke-width:2.03374696"
       id="path10"
       d="M 5.0611283,3.38516 C 4.2451412,3.5233431 3.4768023,4.0280117 2.9943574,4.7309434 2.7501565,5.0854129 2.5000001,5.8304001 2.5000001,6.1908777 V 6.4672438 H 12 21.5 V 6.2569652 C 21.5,4.9952934 20.386207,3.6915661 19.069906,3.409192 18.84953,3.361128 16.76489,3.3431045 11.982132,3.3491125 8.2595611,3.35512 5.1445139,3.373144 5.0611283,3.38516 Z"
       inkscape:connector-curvature="0" />
    <path
       inkscape:connector-curvature="0"
       id="path992"
       d="m 15.330078,8.9550781 c -1.071711,-0.00497 -2.176967,0.2426418 -3.046161,0.8944621 0.166326,0.1317607 0.82167,0.5123878 0.692645,1.0120188 -0.0035,2.91868 0.0069,5.837703 -0.0052,8.756167 -0.0299,0.672987 -0.908157,1.203056 -1.45967,0.720165 1.090135,1.030324 2.660792,1.401259 4.127225,1.341366 0.959826,-0.0315 1.885572,-0.334942 2.751073,-0.725176 0.624233,-5.17e-4 0.664618,1.604054 1.288817,0.725566 0.508881,-0.44224 0.315227,-1.18549 0.375139,-1.780564 0.02641,-2.932414 0.01245,-5.865022 0.01634,-8.797521 -1.14888,-1.3666283 -2.963679,-2.1416091 -4.740234,-2.1464839 z m 1.316406,0.8242188 c 0.637154,-0.021514 1.096164,0.6184171 1.00586,1.2194431 -0.0034,2.872953 0.0069,5.746248 -0.0052,8.618986 -0.02631,0.75274 -1.066763,1.229108 -1.602256,0.658549 -0.262072,-0.304876 -0.453607,-0.695664 -0.40429,-1.105555 0,-2.792584 0,-5.585167 0,-8.377751 0.09568,-0.509403 0.422158,-1.0280592 1.005859,-1.0136721 z m -5.683593,1.0214841 c -1.0235686,0.876781 -1.7020826,2.118661 -1.9092443,3.447699 -0.3652262,1.980464 0.3135576,4.122926 1.7340103,5.544721 0.239702,0.16109 0.550524,0.459519 0.248292,0.03471 -0.140346,-0.452812 -0.0451,-0.942062 -0.07306,-1.411689 0,-2.538482 0,-5.076963 0,-7.615445 z"
       style="opacity:0.1;fill:#2a7fff;stroke:none;stroke-width:1.34910131" />
    <path
       inkscape:connector-curvature="0"
       id="path5310"
       d="m 3.8691406,7.3085938 v 3.5800782 0.929687 c 0,5.635467 0.02481,8.910964 0.060547,9.115235 0.1489028,0.799058 0.6854635,1.502655 1.4121094,1.86914 L 5.7460938,23 H 12 18.253906 l 0.328125,-0.15625 c 0.363866,-0.175397 0.498579,-0.542042 0.740235,-0.832031 -0.187017,-0.162647 -0.330281,-0.396018 -0.445313,-0.632813 -0.138557,-0.285221 -0.286227,-0.50923 -0.595703,-0.398437 -0.93607,0.476785 -1.987378,0.716023 -3.035156,0.707031 -1.047779,-0.009 -2.092032,-0.26731 -3.011719,-0.787109 -0.272668,-0.145617 -0.478674,-0.377109 -0.722656,-0.5625 -0.122866,-0.06944 -0.224723,-0.127187 -0.308594,-0.240235 -0.172712,-0.15006 -0.386227,-0.251728 -0.541016,-0.419922 C 10.211954,19.188594 9.8412478,18.62688 9.5605469,18.023438 9.2798459,17.419995 9.0905187,16.774843 9.0058594,16.115234 8.9212,15.455626 8.940156,14.78264 9.078125,14.125 9.2058771,13.395272 9.4766729,12.704696 9.8554688,12.080078 10.149001,11.596056 10.553421,11.193322 10.962891,10.800781 v -0.0078 c 0,-0.562205 0.450459,-1.0136721 1.007812,-1.0136721 0.09945,0 0.163281,0.078627 0.253906,0.1054687 0.318026,-0.1848885 0.606818,-0.4207628 0.951172,-0.5488281 0.684915,-0.2547196 1.414308,-0.3909287 2.154297,-0.3808594 1.086665,-9.991e-4 2.170044,0.2894087 3.115234,0.8242188 0.584373,0.3170871 1.105958,0.7310011 1.552735,1.2148441 0.02938,0.03182 0.04354,0.07501 0.07227,0.107421 v -0.21289 -3.5800782 h -8.099609 z m 3.4238282,2.4707031 c 0.557353,0 1.0078124,0.4514671 1.0078124,1.0136721 v 8.720703 c 0,0.562205 -0.4504594,1.015625 -1.0078124,1.015625 -0.5573531,0 -1.0039063,-0.45342 -1.0039063,-1.015625 v -8.720703 c 0,-0.562205 0.4465532,-1.0136721 1.0039063,-1.0136721 z"
       style="opacity:0.7;fill:#2a7fff;stroke:none;stroke-width:1.34910131" />
    <path
       id="path1994"
       style="opacity:1;fill:none;fill-rule:evenodd;stroke:#c00000;stroke-width:2;stroke-linecap:butt;stroke-linejoin:miter;stroke-miterlimit:4;stroke-dasharray:none;stroke-opacity:1"
       d="m 18.58579,12.41421 -6.34316,6.343152 m 0,-6.343152 6.34316,6.343152"
       inkscape:connector-curvature="0"
       sodipodi:nodetypes="cccc" />
  </g>
</svg>
