<?xml version="1.0" encoding="UTF-8" standalone="no"?>
<!-- Created with Inkscape (http://www.inkscape.org/) -->

<svg
   xmlns:dc="http://purl.org/dc/elements/1.1/"
   xmlns:cc="http://creativecommons.org/ns#"
   xmlns:rdf="http://www.w3.org/1999/02/22-rdf-syntax-ns#"
   xmlns:svg="http://www.w3.org/2000/svg"
   xmlns="http://www.w3.org/2000/svg"
   xmlns:xlink="http://www.w3.org/1999/xlink"
   xmlns:sodipodi="http://sodipodi.sourceforge.net/DTD/sodipodi-0.dtd"
   xmlns:inkscape="http://www.inkscape.org/namespaces/inkscape"
   width="64.46769"
   height="64.467697"
   viewBox="0 0 64.46769 64.467696"
   version="1.1"
   id="svg783"
   inkscape:version="0.92.2 2405546, 2018-03-11"
   sodipodi:docname="rt-logo.svg"
   inkscape:export-filename="/tmp/rawtherapee-logo-256.png"
   inkscape:export-xdpi="381.21423"
   inkscape:export-ydpi="381.21423"
   style="enable-background:new">
  <title
     id="title89">RawTherapee logo</title>
  <defs
     id="defs777">
    <linearGradient
       id="linearGradient3962-8">
      <stop
         id="stop3964-8"
         offset="0"
         style="stop-color:#38c102;stop-opacity:1" />
      <stop
         id="stop3966-8"
         offset="1"
         style="stop-color:#bced02;stop-opacity:1;" />
    </linearGradient>
    <linearGradient
       id="linearGradient3954-7">
      <stop
         id="stop3956-7"
         offset="0"
         style="stop-color:#009a01;stop-opacity:1" />
      <stop
         id="stop3958-6"
         offset="1"
         style="stop-color:#01d901;stop-opacity:1;" />
    </linearGradient>
    <linearGradient
       id="linearGradient4002-3"
       inkscape:collect="always">
      <stop
         id="stop4004-0"
         offset="0"
         style="stop-color:#5a1898;stop-opacity:1" />
      <stop
         id="stop4006-3"
         offset="1"
         style="stop-color:#971ec6;stop-opacity:1" />
    </linearGradient>
    <linearGradient
       id="linearGradient4024-9">
      <stop
         id="stop4026-2"
         offset="0"
         style="stop-color:#053980;stop-opacity:1" />
      <stop
         id="stop4028-5"
         offset="1"
         style="stop-color:#0293e4;stop-opacity:1;" />
    </linearGradient>
    <linearGradient
       id="linearGradient4018-0"
       inkscape:collect="always">
      <stop
         id="stop4020-5"
         offset="0"
         style="stop-color:#151b92;stop-opacity:1" />
      <stop
         id="stop4022-9"
         offset="1"
         style="stop-color:#1526c3;stop-opacity:1" />
    </linearGradient>
    <linearGradient
       id="linearGradient3978-6">
      <stop
         style="stop-color:#f18e01;stop-opacity:1;"
         offset="0"
         id="stop4040-9" />
      <stop
         id="stop3982-2"
         offset="1"
         style="stop-color:#ffd02b;stop-opacity:1;" />
    </linearGradient>
    <linearGradient
       id="linearGradient3994-4"
       inkscape:collect="always">
      <stop
         id="stop3996-7"
         offset="0"
         style="stop-color:#d91566;stop-opacity:1" />
      <stop
         id="stop3998-7"
         offset="1"
         style="stop-color:#fc12aa;stop-opacity:1" />
    </linearGradient>
    <linearGradient
       id="linearGradient3970-4">
      <stop
         id="stop3972-8"
         offset="0"
         style="stop-color:#f8bc00;stop-opacity:1;" />
      <stop
         id="stop3974-1"
         offset="1"
         style="stop-color:#ffe309;stop-opacity:1;" />
    </linearGradient>
    <linearGradient
       id="linearGradient3946-8">
      <stop
         id="stop3948-9"
         offset="0"
         style="stop-color:#0193be;stop-opacity:1;" />
      <stop
         id="stop3950-3"
         offset="1"
         style="stop-color:#01d4ed;stop-opacity:1;" />
    </linearGradient>
    <linearGradient
       id="linearGradient3986-8">
      <stop
         id="stop3988-0"
         offset="0"
         style="stop-color:#fd4c0b;stop-opacity:1" />
      <stop
         id="stop3990-2"
         offset="1"
         style="stop-color:#feab27;stop-opacity:1;" />
    </linearGradient>
    <linearGradient
       inkscape:collect="always"
       xlink:href="#linearGradient3978-6"
       id="linearGradient6584"
       x1="311.50415"
       y1="170.17421"
       x2="239.55922"
       y2="172.53203"
       gradientUnits="userSpaceOnUse"
       gradientTransform="translate(293.84585,294.63829)" />
    <linearGradient
       inkscape:collect="always"
       xlink:href="#linearGradient3970-4"
       id="linearGradient6592"
       x1="309.89517"
       y1="205.34961"
       x2="250.14594"
       y2="206.56822"
       gradientUnits="userSpaceOnUse"
       gradientTransform="translate(293.84585,294.63829)" />
    <linearGradient
       inkscape:collect="always"
       xlink:href="#linearGradient3962-8"
       id="linearGradient6600"
       x1="255.66684"
       y1="289.47989"
       x2="228.84343"
       y2="242.79517"
       gradientUnits="userSpaceOnUse"
       gradientTransform="translate(293.84585,294.63829)" />
    <linearGradient
       inkscape:collect="always"
       xlink:href="#linearGradient3954-7"
       id="linearGradient6536"
       x1="226.94818"
       y1="311.5441"
       x2="203.56046"
       y2="247.99712"
       gradientUnits="userSpaceOnUse"
       gradientTransform="translate(293.84585,294.63829)" />
    <linearGradient
       inkscape:collect="always"
       xlink:href="#linearGradient3946-8"
       id="linearGradient6544"
       x1="155.04362"
       y1="291.98077"
       x2="196.8688"
       y2="242.92572"
       gradientUnits="userSpaceOnUse"
       gradientTransform="translate(293.84585,294.63829)" />
    <linearGradient
       inkscape:collect="always"
       xlink:href="#linearGradient4024-9"
       id="linearGradient6552"
       x1="121.99204"
       y1="254.89784"
       x2="172.34001"
       y2="224.42828"
       gradientUnits="userSpaceOnUse"
       gradientTransform="translate(293.84585,294.63829)" />
    <linearGradient
       inkscape:collect="always"
       xlink:href="#linearGradient4018-0"
       id="linearGradient6560"
       x1="28.951002"
       y1="87.129852"
       x2="42.548061"
       y2="86.547829"
       gradientUnits="userSpaceOnUse"
       gradientTransform="translate(77.746712,77.956383)" />
    <linearGradient
       inkscape:collect="always"
       xlink:href="#linearGradient4002-3"
       id="linearGradient6568"
       x1="127.4337"
       y1="150.63391"
       x2="164.38599"
       y2="186.60429"
       gradientUnits="userSpaceOnUse"
       gradientTransform="translate(293.84585,294.63829)" />
    <linearGradient
       inkscape:collect="always"
       xlink:href="#linearGradient3994-4"
       id="linearGradient6576"
       x1="156.03696"
       y1="121.53358"
       x2="182.59938"
       y2="166.47519"
       gradientUnits="userSpaceOnUse"
       gradientTransform="translate(293.84585,294.63829)" />
    <linearGradient
       inkscape:collect="always"
       xlink:href="#linearGradient3986-8"
       id="linearGradient6506"
       x1="254.73129"
       y1="120.67714"
       x2="221.8271"
       y2="167.72273"
       gradientUnits="userSpaceOnUse"
       gradientTransform="translate(293.84585,294.63829)" />
    <linearGradient
       inkscape:collect="always"
       xlink:href="#linearGradient3978-6"
       id="linearGradient6720"
       x1="273.82266"
       y1="127.06858"
       x2="304.14511"
       y2="182.71349"
       gradientUnits="userSpaceOnUse"
       gradientTransform="translate(293.84585,294.63829)" />
    <filter
       id="filter4905-0"
       x="-0.5"
       y="-0.5"
       width="2"
       height="2"
       inkscape:label="ring inset lightness-contrast"
       inkscape:menu="Color"
       inkscape:menu-tooltip="Increase or decrease lightness and contrast"
       style="color-interpolation-filters:sRGB">
      <feFlood
         id="feFlood4907-7"
         result="result1"
         flood-opacity="0"
         flood-color="rgb(255,255,255)" />
      <feBlend
         id="feBlend4909-8"
         in2="SourceGraphic"
         mode="normal"
         result="result2" />
      <feComposite
         id="feComposite4911-6"
         in2="SourceGraphic"
         k2="1.2"
         operator="arithmetic"
         result="result3"
         k1="0"
         k4="0.2"
         k3="0" />
      <feComposite
         id="feComposite4913-88"
         in2="SourceGraphic"
         operator="in" />
    </filter>
    <linearGradient
       inkscape:collect="always"
       xlink:href="#linearGradient3970-4"
       id="linearGradient6718"
       x1="304.40735"
       y1="169.7298"
       x2="305.57675"
       y2="235.63695"
       gradientUnits="userSpaceOnUse"
       gradientTransform="translate(293.84585,294.63829)" />
    <linearGradient
       inkscape:collect="always"
       xlink:href="#linearGradient3962-8"
       id="linearGradient6714"
       x1="223.82266"
       y1="301.22165"
       x2="281.22165"
       y2="272.06857"
       gradientUnits="userSpaceOnUse"
       gradientTransform="translate(293.84585,294.63829)" />
    <linearGradient
       inkscape:collect="always"
       xlink:href="#linearGradient3954-7"
       id="linearGradient6712"
       x1="170.31453"
       y1="306.74612"
       x2="244.40735"
       y2="307.33081"
       gradientUnits="userSpaceOnUse"
       gradientTransform="translate(293.84585,294.63829)" />
    <linearGradient
       inkscape:collect="always"
       xlink:href="#linearGradient3946-8"
       id="linearGradient6710"
       x1="128.56046"
       y1="269.99203"
       x2="189.40738"
       y2="308.23798"
       gradientUnits="userSpaceOnUse"
       gradientTransform="translate(293.84585,294.63829)" />
    <linearGradient
       inkscape:collect="always"
       xlink:href="#linearGradient4024-9"
       id="linearGradient6708"
       x1="108.82266"
       y1="218.56042"
       x2="142.97575"
       y2="285.31448"
       gradientUnits="userSpaceOnUse"
       gradientTransform="translate(293.84585,294.63829)" />
    <linearGradient
       inkscape:collect="always"
       xlink:href="#linearGradient4018-0"
       id="linearGradient6706"
       x1="113.82269"
       y1="240.89919"
       x2="110.89922"
       y2="173.23796"
       gradientUnits="userSpaceOnUse"
       gradientTransform="translate(293.84585,294.63829)" />
    <linearGradient
       inkscape:collect="always"
       xlink:href="#linearGradient4002-3"
       id="linearGradient6704"
       x1="108.23797"
       y1="187.97572"
       x2="140.31453"
       y2="128.82266"
       gradientUnits="userSpaceOnUse"
       gradientTransform="translate(293.84585,294.63829)" />
    <linearGradient
       inkscape:collect="always"
       xlink:href="#linearGradient3994-4"
       id="linearGradient6702"
       x1="187.39107"
       y1="105.89919"
       x2="126.80637"
       y2="140.89919"
       gradientUnits="userSpaceOnUse"
       gradientTransform="translate(293.84585,294.63829)" />
    <linearGradient
       inkscape:collect="always"
       xlink:href="#linearGradient3986-8"
       id="linearGradient6698"
       x1="222.65326"
       y1="102.97572"
       x2="287.33084"
       y2="139.7298"
       gradientUnits="userSpaceOnUse"
       gradientTransform="translate(293.84585,294.63829)" />
  </defs>
  <sodipodi:namedview
     id="base"
     pagecolor="#ffffff"
     bordercolor="#666666"
     borderopacity="1.0"
     inkscape:pageopacity="0.0"
     inkscape:pageshadow="2"
     inkscape:zoom="12.781595"
     inkscape:cx="19.833202"
     inkscape:cy="32.233849"
     inkscape:document-units="px"
     inkscape:current-layer="layer1"
     showgrid="false"
     units="px"
     inkscape:snap-bbox="true"
     inkscape:bbox-nodes="true"
     inkscape:snap-page="false"
     inkscape:snap-text-baseline="false"
     inkscape:snap-center="false"
     inkscape:snap-object-midpoints="true"
     inkscape:snap-midpoints="false"
     inkscape:snap-smooth-nodes="false"
     inkscape:snap-intersection-paths="false"
     inkscape:object-paths="false"
     inkscape:snap-bbox-midpoints="true"
     inkscape:snap-bbox-edge-midpoints="false"
     inkscape:bbox-paths="false"
     showguides="true"
     inkscape:guide-bbox="true"
     inkscape:snap-others="true"
     inkscape:object-nodes="false"
     inkscape:snap-nodes="true"
     inkscape:snap-global="false"
     inkscape:window-width="1920"
     inkscape:window-height="1021"
     inkscape:window-x="0"
     inkscape:window-y="0"
     inkscape:window-maximized="1"
     inkscape:measure-start="416.334,192.525"
     inkscape:measure-end="422.317,192.368"
     fit-margin-top="0"
     fit-margin-left="0"
     fit-margin-right="0"
     fit-margin-bottom="0"
     scale-x="1"
     inkscape:pagecheckerboard="true" />
  <metadata
     id="metadata780">
    <rdf:RDF>
      <cc:Work
         rdf:about="">
        <dc:format>image/svg+xml</dc:format>
        <dc:type
           rdf:resource="http://purl.org/dc/dcmitype/StillImage" />
        <dc:title>RawTherapee logo</dc:title>
        <dc:creator>
          <cc:Agent>
            <dc:title>Maciej Dworak</dc:title>
          </cc:Agent>
        </dc:creator>
        <dc:source>www.rawtherapee.com</dc:source>
        <dc:date>2019-03-11</dc:date>
      </cc:Work>
    </rdf:RDF>
  </metadata>
  <g
     inkscape:label="Layer 1"
     inkscape:groupmode="layer"
     id="layer1"
     transform="translate(-40.854412,-228.47746)">
    <g
       id="g171">
      <path
         transform="matrix(0.27202007,0,0,0.27202007,-62.945282,124.70558)"
         id="path6498"
         d="m 543.25,487.63477 48.31055,-12.94532 a 94.999997,94.999997 0 0 0 -0.0234,-0.10156 94.999997,94.999997 0 0 0 -2.99414,-9.01172 94.999997,94.999997 0 0 0 -3.87891,-8.66797 94.999997,94.999997 0 0 0 -4.72461,-8.23632 94.999997,94.999997 0 0 0 -5.52343,-7.72461 94.999997,94.999997 0 0 0 -6.26758,-7.13477 94.999997,94.999997 0 0 0 -1.69727,-1.58203 l -35.33398,35.33398 a 44.999999,44.999999 0 0 1 1.16406,1.08399 44.999999,44.999999 0 0 1 2.96875,3.3789 44.999999,44.999999 0 0 1 2.61719,3.65821 44.999999,44.999999 0 0 1 2.23633,3.90234 44.999999,44.999999 0 0 1 1.83789,4.10547 44.999999,44.999999 0 0 1 1.30859,3.94141 z"
         style="fill:url(#linearGradient6584);fill-opacity:1;stroke:none;stroke-width:0.48633054;stroke-miterlimit:4;stroke-dasharray:none;stroke-opacity:1"
         inkscape:connector-curvature="0" />
      <path
         transform="matrix(0.27202007,0,0,0.27202007,-62.944889,124.70579)"
         id="path6496"
         d="m 543.53906,511.14844 48.24024,12.92578 a 94.999997,94.999997 0 0 0 1.32617,-5.20117 94.999997,94.999997 0 0 0 1.41992,-9.38867 A 94.999997,94.999997 0 0 0 595,500 a 94.999997,94.999997 0 0 0 -0.23828,-6.7207 94.999997,94.999997 0 0 0 -1.14453,-9.42578 94.999997,94.999997 0 0 0 -2.05664,-9.16407 L 543.25,487.63477 a 44.999999,44.999999 0 0 1 0.10938,0.32812 44.999999,44.999999 0 0 1 0.98632,4.38867 44.999999,44.999999 0 0 1 0.54102,4.46485 A 44.999999,44.999999 0 0 1 545,500 a 44.999999,44.999999 0 0 1 -0.22461,4.49219 44.999999,44.999999 0 0 1 -0.67187,4.44726 44.999999,44.999999 0 0 1 -0.56446,2.20899 z"
         style="fill:url(#linearGradient6592);fill-opacity:1;stroke:none;stroke-width:0.48633054;stroke-miterlimit:4;stroke-dasharray:none;stroke-opacity:1"
         inkscape:connector-curvature="0" />
      <path
         transform="matrix(0.27202007,0,0,0.27202007,-62.944889,124.70579)"
         id="path6494"
         d="m 531.9707,531.61719 35.33399,35.33398 a 94.999997,94.999997 0 0 0 5.35547,-5.75 94.999997,94.999997 0 0 0 5.74609,-7.56055 94.999997,94.999997 0 0 0 4.96484,-8.0957 94.999997,94.999997 0 0 0 4.12891,-8.55078 94.999997,94.999997 0 0 0 3.25781,-8.91992 94.999997,94.999997 0 0 0 1.02149,-4 l -48.24024,-12.92578 a 44.999999,44.999999 0 0 1 -0.54883,2.15039 44.999999,44.999999 0 0 1 -1.54296,4.22461 44.999999,44.999999 0 0 1 -1.95508,4.05078 44.999999,44.999999 0 0 1 -2.35157,3.83398 44.999999,44.999999 0 0 1 -2.72265,3.58203 44.999999,44.999999 0 0 1 -2.44727,2.62696 z"
         style="fill:#fffb00;fill-opacity:1;stroke:none;stroke-width:0.48633054;stroke-miterlimit:4;stroke-dasharray:none;stroke-opacity:1"
         inkscape:connector-curvature="0" />
      <path
         transform="matrix(0.27202007,0,0,0.27202007,-62.944889,124.70579)"
         id="path6492"
         d="m 511.70703,543.43359 12.93555,48.27539 a 94.999997,94.999997 0 0 0 0.76953,-0.17187 94.999997,94.999997 0 0 0 9.01172,-2.99414 94.999997,94.999997 0 0 0 8.66797,-3.87891 94.999997,94.999997 0 0 0 8.23632,-4.72461 94.999997,94.999997 0 0 0 7.72461,-5.52343 94.999997,94.999997 0 0 0 7.13477,-6.26758 94.999997,94.999997 0 0 0 1.11719,-1.19727 L 531.9707,531.61719 a 44.999999,44.999999 0 0 1 -0.61914,0.66406 44.999999,44.999999 0 0 1 -3.3789,2.96875 44.999999,44.999999 0 0 1 -3.65821,2.61523 44.999999,44.999999 0 0 1 -3.90234,2.23829 44.999999,44.999999 0 0 1 -4.10547,1.83789 44.999999,44.999999 0 0 1 -4.26953,1.41797 44.999999,44.999999 0 0 1 -0.33008,0.0742 z"
         style="fill:url(#linearGradient6600);fill-opacity:1;stroke:none;stroke-width:0.48633054;stroke-miterlimit:4;stroke-dasharray:none;stroke-opacity:1"
         inkscape:connector-curvature="0" />
      <path
         transform="matrix(0.27202007,0,0,0.27202007,-62.944889,124.70579)"
         id="path6490"
         d="m 488.36719,543.41602 -12.92578,48.23828 a 94.999997,94.999997 0 0 0 5.68554,1.45117 94.999997,94.999997 0 0 0 9.38867,1.41992 A 94.999997,94.999997 0 0 0 500,595 a 94.999997,94.999997 0 0 0 6.7207,-0.23828 94.999997,94.999997 0 0 0 9.42578,-1.14453 94.999997,94.999997 0 0 0 8.4961,-1.90821 l -12.93555,-48.27539 a 44.999999,44.999999 0 0 1 -4.05859,0.91211 44.999999,44.999999 0 0 1 -4.46485,0.54102 A 44.999999,44.999999 0 0 1 500,545 a 44.999999,44.999999 0 0 1 -4.49219,-0.22461 44.999999,44.999999 0 0 1 -4.44726,-0.67187 44.999999,44.999999 0 0 1 -2.69336,-0.6875 z"
         style="fill:url(#linearGradient6536);fill-opacity:1;stroke:none;stroke-width:0.48633054;stroke-miterlimit:4;stroke-dasharray:none;stroke-opacity:1"
         inkscape:connector-curvature="0" />
      <path
         transform="matrix(0.27202007,0,0,0.27202007,-62.944889,124.70579)"
         id="path6488"
         d="m 468.25,531.8457 -35.33398,35.33399 a 94.999997,94.999997 0 0 0 5.88281,5.48047 94.999997,94.999997 0 0 0 7.56055,5.74609 94.999997,94.999997 0 0 0 8.0957,4.96484 94.999997,94.999997 0 0 0 8.55078,4.12891 94.999997,94.999997 0 0 0 8.91992,3.25781 94.999997,94.999997 0 0 0 3.51563,0.89649 l 12.92578,-48.23828 a 44.999999,44.999999 0 0 1 -1.66602,-0.42579 44.999999,44.999999 0 0 1 -4.22461,-1.54296 44.999999,44.999999 0 0 1 -4.05078,-1.95704 44.999999,44.999999 0 0 1 -3.83398,-2.34961 44.999999,44.999999 0 0 1 -3.58203,-2.72265 44.999999,44.999999 0 0 1 -2.75977,-2.57227 z"
         style="fill:url(#linearGradient6544);fill-opacity:1;stroke:none;stroke-width:0.48633054;stroke-miterlimit:4;stroke-dasharray:none;stroke-opacity:1"
         inkscape:connector-curvature="0" />
      <path
         transform="matrix(0.27202007,0,0,0.27202007,-62.944889,124.70579)"
         id="path6486"
         d="m 456.60742,511.88672 -48.27734,12.93555 a 94.999997,94.999997 0 0 0 0.13281,0.58984 94.999997,94.999997 0 0 0 2.99414,9.01172 94.999997,94.999997 0 0 0 3.87891,8.66797 94.999997,94.999997 0 0 0 4.72461,8.23632 94.999997,94.999997 0 0 0 5.52343,7.72461 94.999997,94.999997 0 0 0 6.26758,7.13477 94.999997,94.999997 0 0 0 1.06446,0.99219 L 468.25,531.8457 a 44.999999,44.999999 0 0 1 -0.53125,-0.49414 44.999999,44.999999 0 0 1 -2.96875,-3.3789 44.999999,44.999999 0 0 1 -2.61523,-3.65821 44.999999,44.999999 0 0 1 -2.23829,-3.90234 44.999999,44.999999 0 0 1 -1.83789,-4.10547 44.999999,44.999999 0 0 1 -1.41797,-4.26953 44.999999,44.999999 0 0 1 -0.0332,-0.15039 z"
         style="fill:url(#linearGradient6552);fill-opacity:1;stroke:none;stroke-width:0.48633054;stroke-miterlimit:4;stroke-dasharray:none;stroke-opacity:1"
         inkscape:connector-curvature="0" />
      <path
         transform="matrix(1.0281074,0,0,1.0281074,-62.765085,91.449911)"
         sodipodi:nodetypes="cccccccccccccccc"
         inkscape:connector-curvature="0"
         id="path6484"
         d="m 120.55163,161.65957 -12.76356,-3.41994 c -0.1299,0.45532 -0.2469,0.91421 -0.35088,1.37614 -0.16656,0.82125 -0.29195,1.65032 -0.37569,2.48409 -0.0837,0.83385 -0.12557,1.67137 -0.12557,2.50941 1e-5,0.59328 0.021,1.18638 0.063,1.77818 0.0593,0.83583 0.16037,1.66817 0.30282,2.4939 0.13582,0.77278 0.32632,1.57591 0.53379,2.33261 l 12.79722,-3.42869 c -0.10207,-0.36951 -0.22863,-0.77472 -0.29459,-1.15235 -0.0674,-0.39114 -0.11515,-0.78541 -0.14315,-1.18133 -0.0199,-0.28033 -0.0299,-0.56128 -0.03,-0.84232 -2e-5,-0.39693 0.0198,-0.79361 0.0594,-1.18856 0.0396,-0.39494 0.0989,-0.78766 0.17777,-1.17667 0.0448,-0.19605 0.0946,-0.39094 0.14934,-0.58447 z"
         style="fill:url(#linearGradient6560);fill-opacity:1;stroke:none;stroke-width:0.12867495;stroke-miterlimit:4;stroke-dasharray:none;stroke-opacity:1" />
      <path
         transform="matrix(0.27202007,0,0,0.27202007,-62.944889,124.70579)"
         id="path6482"
         d="m 467.68945,468.75 -35.33398,-35.33398 a 94.999997,94.999997 0 0 0 -5.01563,5.38281 94.999997,94.999997 0 0 0 -5.74609,7.56055 94.999997,94.999997 0 0 0 -4.96484,8.0957 94.999997,94.999997 0 0 0 -4.12891,8.55078 94.999997,94.999997 0 0 0 -3.25781,8.91992 94.999997,94.999997 0 0 0 -1.02149,4 l 48.24024,12.92578 a 44.999999,44.999999 0 0 1 0.54883,-2.15039 44.999999,44.999999 0 0 1 1.54296,-4.22461 44.999999,44.999999 0 0 1 1.95704,-4.05078 44.999999,44.999999 0 0 1 2.34961,-3.83398 44.999999,44.999999 0 0 1 2.72265,-3.58203 44.999999,44.999999 0 0 1 2.10742,-2.25977 z"
         style="fill:url(#linearGradient6568);fill-opacity:1;stroke:none;stroke-width:0.48633054;stroke-miterlimit:4;stroke-dasharray:none;stroke-opacity:1"
         inkscape:connector-curvature="0" />
      <path
         transform="matrix(0.27202007,0,0,0.27202007,-62.944889,124.70579)"
         id="path6480"
         d="m 487.45898,456.80859 -12.94531,-48.32031 a 94.999997,94.999997 0 0 0 -8.9375,2.96875 94.999997,94.999997 0 0 0 -8.66797,3.87891 94.999997,94.999997 0 0 0 -8.23632,4.72461 94.999997,94.999997 0 0 0 -7.72461,5.52343 94.999997,94.999997 0 0 0 -7.13477,6.26758 94.999997,94.999997 0 0 0 -1.45703,1.56446 L 467.68945,468.75 a 44.999999,44.999999 0 0 1 0.95899,-1.03125 44.999999,44.999999 0 0 1 3.3789,-2.96875 44.999999,44.999999 0 0 1 3.65821,-2.61523 44.999999,44.999999 0 0 1 3.90234,-2.23829 44.999999,44.999999 0 0 1 4.10547,-1.83789 44.999999,44.999999 0 0 1 3.76562,-1.25 z"
         style="fill:url(#linearGradient6576);fill-opacity:1;stroke:none;stroke-width:0.48633054;stroke-miterlimit:4;stroke-dasharray:none;stroke-opacity:1"
         inkscape:connector-curvature="0" />
      <path
         transform="matrix(0.27202007,0,0,0.27202007,-62.944889,124.70579)"
         id="path6478"
         d="m 523.58984,408.09766 a 94.999997,94.999997 0 0 0 -4.71679,-1.20313 94.999997,94.999997 0 0 0 -9.38867,-1.41992 A 94.999997,94.999997 0 0 0 500,405 a 94.999997,94.999997 0 0 0 -6.7207,0.23828 94.999997,94.999997 0 0 0 -9.42578,1.14453 94.999997,94.999997 0 0 0 -9.26563,2.08008 94.999997,94.999997 0 0 0 -0.0742,0.0254 L 487.459,456.8086 a 44.999999,44.999999 0 0 1 0.50391,-0.16797 44.999999,44.999999 0 0 1 4.38867,-0.98632 44.999999,44.999999 0 0 1 4.46485,-0.54102 A 44.999999,44.999999 0 0 1 500,455 a 44.999999,44.999999 0 0 1 4.49219,0.22461 44.999999,44.999999 0 0 1 4.44726,0.67187 44.999999,44.999999 0 0 1 1.72461,0.44141 z"
         style="fill:#ff0b0d;fill-opacity:1;stroke:none;stroke-width:0.48633054;stroke-miterlimit:4;stroke-dasharray:none;stroke-opacity:1"
         inkscape:connector-curvature="0" />
      <path
         transform="matrix(0.27202007,0,0,0.27202007,-62.944889,124.70579)"
         id="path6427"
         d="m 523.58984,408.09766 -12.92578,48.24023 a 44.999999,44.999999 0 0 1 2.63477,0.67188 44.999999,44.999999 0 0 1 4.22461,1.54296 44.999999,44.999999 0 0 1 4.05078,1.95508 44.999999,44.999999 0 0 1 3.83398,2.35157 44.999999,44.999999 0 0 1 3.58203,2.72265 44.999999,44.999999 0 0 1 2.12696,1.98242 l 35.33398,-35.33398 a 94.999997,94.999997 0 0 0 -5.25,-4.89063 94.999997,94.999997 0 0 0 -7.56055,-5.74609 94.999997,94.999997 0 0 0 -8.0957,-4.96484 94.999997,94.999997 0 0 0 -8.55078,-4.12891 94.999997,94.999997 0 0 0 -8.91992,-3.25781 94.999997,94.999997 0 0 0 -4.48438,-1.14453 z"
         style="fill:url(#linearGradient6506);fill-opacity:1;stroke:none;stroke-width:0.48633054;stroke-miterlimit:4;stroke-dasharray:none;stroke-opacity:1"
         inkscape:connector-curvature="0" />
      <path
         transform="matrix(0.27202007,0,0,0.27202007,-62.944889,124.70579)"
         id="path6475"
         d="m 591.56055,474.68945 9.55664,-2.56054 a 105,105 0 0 0 -27.55274,-47.01172 l -7.11328,7.11328 a 94.999997,94.999997 0 0 1 1.69727,1.58203 94.999997,94.999997 0 0 1 6.26758,7.13477 94.999997,94.999997 0 0 1 5.52343,7.72461 94.999997,94.999997 0 0 1 4.72461,8.23632 94.999997,94.999997 0 0 1 3.87891,8.66797 94.999997,94.999997 0 0 1 2.99414,9.01172 94.999997,94.999997 0 0 1 0.0234,0.10156 z"
         style="fill:url(#linearGradient6720);fill-opacity:1;stroke:none;stroke-width:0.48633054;stroke-miterlimit:4;stroke-dasharray:none;stroke-opacity:1;filter:url(#filter4905-0)"
         inkscape:connector-curvature="0" />
      <path
         transform="matrix(0.27202007,0,0,0.27202007,-62.944889,124.70579)"
         id="path6473"
         d="m 591.7793,524.07422 9.71093,2.60156 A 105,105 0 0 0 605,500 105,105 0 0 0 601.11719,472.12891 l -9.55664,2.56054 a 94.999997,94.999997 0 0 1 2.05664,9.16407 94.999997,94.999997 0 0 1 1.14453,9.42578 A 94.999997,94.999997 0 0 1 595,500 a 94.999997,94.999997 0 0 1 -0.47461,9.48438 94.999997,94.999997 0 0 1 -1.41992,9.38867 94.999997,94.999997 0 0 1 -1.32617,5.20117 z"
         style="fill:url(#linearGradient6718);fill-opacity:1;stroke:none;stroke-width:0.48633054;stroke-miterlimit:4;stroke-dasharray:none;stroke-opacity:1;filter:url(#filter4905-0)"
         inkscape:connector-curvature="0" />
      <path
         transform="matrix(0.27202007,0,0,0.27202007,-62.944889,124.70579)"
         id="path6471"
         d="m 567.30469,566.95117 7.07812,7.07813 a 105,105 0 0 0 27.10742,-47.35352 l -9.71093,-2.60156 a 94.999997,94.999997 0 0 1 -1.02149,4 94.999997,94.999997 0 0 1 -3.25781,8.91992 94.999997,94.999997 0 0 1 -4.12891,8.55078 94.999997,94.999997 0 0 1 -4.96484,8.0957 94.999997,94.999997 0 0 1 -5.74609,7.56055 94.999997,94.999997 0 0 1 -5.35547,5.75 z"
         style="fill:#fffb00;fill-opacity:1;stroke:none;stroke-width:0.48633054;stroke-miterlimit:4;stroke-dasharray:none;stroke-opacity:1;filter:url(#filter4905-0)"
         inkscape:connector-curvature="0" />
      <path
         transform="matrix(0.27202007,0,0,0.27202007,-62.944889,124.70579)"
         id="path6469"
         d="m 524.64258,591.70898 2.5664,9.57618 a 105,105 0 0 0 47.17383,-27.25586 l -7.07812,-7.07813 a 94.999997,94.999997 0 0 1 -1.11719,1.19727 94.999997,94.999997 0 0 1 -7.13477,6.26758 94.999997,94.999997 0 0 1 -7.72461,5.52343 94.999997,94.999997 0 0 1 -8.23632,4.72461 94.999997,94.999997 0 0 1 -8.66797,3.87891 94.999997,94.999997 0 0 1 -9.01172,2.99414 94.999997,94.999997 0 0 1 -0.76953,0.17187 z"
         style="fill:url(#linearGradient6714);fill-opacity:1;stroke:none;stroke-width:0.48633054;stroke-miterlimit:4;stroke-dasharray:none;stroke-opacity:1;filter:url(#filter4905-0)"
         inkscape:connector-curvature="0" />
      <path
         transform="matrix(0.27202007,0,0,0.27202007,-62.944889,124.70579)"
         id="path6467"
         d="m 475.44141,591.6543 -2.60547,9.72656 A 105,105 0 0 0 500,605 a 105,105 0 0 0 27.20898,-3.71484 l -2.5664,-9.57618 a 94.999997,94.999997 0 0 1 -8.4961,1.90821 94.999997,94.999997 0 0 1 -9.42578,1.14453 A 94.999997,94.999997 0 0 1 500,595 a 94.999997,94.999997 0 0 1 -9.48438,-0.47461 94.999997,94.999997 0 0 1 -9.38867,-1.41992 94.999997,94.999997 0 0 1 -5.68554,-1.45117 z"
         style="fill:url(#linearGradient6712);fill-opacity:1;stroke:none;stroke-width:0.48633054;stroke-miterlimit:4;stroke-dasharray:none;stroke-opacity:1;filter:url(#filter4905-0)"
         inkscape:connector-curvature="0" />
      <path
         transform="matrix(0.27202007,0,0,0.27202007,-62.944889,124.70579)"
         id="path6465"
         d="M 432.91602,567.17969 425.8457,574.25 a 105,105 0 0 0 46.99024,27.13086 l 2.60547,-9.72656 a 94.999997,94.999997 0 0 1 -3.51563,-0.89649 94.999997,94.999997 0 0 1 -8.91992,-3.25781 94.999997,94.999997 0 0 1 -8.55078,-4.12891 94.999997,94.999997 0 0 1 -8.0957,-4.96484 94.999997,94.999997 0 0 1 -7.56055,-5.74609 94.999997,94.999997 0 0 1 -5.88281,-5.48047 z"
         style="fill:url(#linearGradient6710);fill-opacity:1;stroke:none;stroke-width:0.48633054;stroke-miterlimit:4;stroke-dasharray:none;stroke-opacity:1;filter:url(#filter4905-0)"
         inkscape:connector-curvature="0" />
      <path
         transform="matrix(0.27202007,0,0,0.27202007,-62.944889,124.70579)"
         id="path6463"
         d="m 408.33008,524.82227 -9.57031,2.56445 A 105,105 0 0 0 425.8457,574.25 l 7.07032,-7.07031 a 94.999997,94.999997 0 0 1 -1.06446,-0.99219 94.999997,94.999997 0 0 1 -6.26758,-7.13477 94.999997,94.999997 0 0 1 -5.52343,-7.72461 94.999997,94.999997 0 0 1 -4.72461,-8.23632 94.999997,94.999997 0 0 1 -3.87891,-8.66797 94.999997,94.999997 0 0 1 -2.99414,-9.01172 94.999997,94.999997 0 0 1 -0.13281,-0.58984 z"
         style="fill:url(#linearGradient6708);fill-opacity:1;stroke:none;stroke-width:0.48633054;stroke-miterlimit:4;stroke-dasharray:none;stroke-opacity:1;filter:url(#filter4905-0)"
         inkscape:connector-curvature="0" />
      <path
         transform="matrix(0.27202007,0,0,0.27202007,-62.944889,124.70579)"
         id="path6461"
         d="m 408.2207,475.92578 -9.71093,-2.60156 A 105,105 0 0 0 395,500 a 105,105 0 0 0 3.75977,27.38672 l 9.57031,-2.56445 a 94.999997,94.999997 0 0 1 -1.94727,-8.67579 94.999997,94.999997 0 0 1 -1.14453,-9.42578 A 94.999997,94.999997 0 0 1 405,500 a 94.999997,94.999997 0 0 1 0.47461,-9.48438 94.999997,94.999997 0 0 1 1.41992,-9.38867 94.999997,94.999997 0 0 1 1.32617,-5.20117 z"
         style="fill:url(#linearGradient6706);fill-opacity:1;stroke:none;stroke-width:0.48633054;stroke-miterlimit:4;stroke-dasharray:none;stroke-opacity:1;filter:url(#filter4905-0)"
         inkscape:connector-curvature="0" />
      <path
         transform="matrix(0.27202007,0,0,0.27202007,-62.944889,124.70579)"
         id="path6459"
         d="m 432.35547,433.41602 -7.10352,-7.10352 a 105,105 0 0 0 -26.74218,47.01172 l 9.71093,2.60156 a 94.999997,94.999997 0 0 1 1.02149,-4 94.999997,94.999997 0 0 1 3.25781,-8.91992 94.999997,94.999997 0 0 1 4.12891,-8.55078 94.999997,94.999997 0 0 1 4.96484,-8.0957 94.999997,94.999997 0 0 1 5.74609,-7.56055 94.999997,94.999997 0 0 1 5.01563,-5.38281 z"
         style="fill:url(#linearGradient6704);fill-opacity:1;stroke:none;stroke-width:0.48633054;stroke-miterlimit:4;stroke-dasharray:none;stroke-opacity:1;filter:url(#filter4905-0)"
         inkscape:connector-curvature="0" />
      <path
         transform="matrix(0.27202007,0,0,0.27202007,-62.944889,124.70579)"
         id="path6457"
         d="m 474.51367,408.48828 -2.5625,-9.56055 a 105,105 0 0 0 -46.69922,27.38477 l 7.10352,7.10352 a 94.999997,94.999997 0 0 1 1.45703,-1.56446 94.999997,94.999997 0 0 1 7.13477,-6.26758 94.999997,94.999997 0 0 1 7.72461,-5.52343 94.999997,94.999997 0 0 1 8.23632,-4.72461 94.999997,94.999997 0 0 1 8.66797,-3.87891 94.999997,94.999997 0 0 1 8.9375,-2.96875 z"
         style="fill:url(#linearGradient6702);fill-opacity:1;stroke:none;stroke-width:0.48633054;stroke-miterlimit:4;stroke-dasharray:none;stroke-opacity:1;filter:url(#filter4905-0)"
         inkscape:connector-curvature="0" />
      <path
         transform="matrix(0.27202007,0,0,0.27202007,-62.944889,124.70579)"
         id="path6455"
         d="M 526.1875,398.40039 A 105,105 0 0 0 500,395 a 105,105 0 0 0 -28.04883,3.92773 l 2.5625,9.56055 a 94.999997,94.999997 0 0 1 0.0742,-0.0254 94.999997,94.999997 0 0 1 9.26563,-2.08008 94.999997,94.999997 0 0 1 9.42578,-1.14453 A 94.999997,94.999997 0 0 1 500,405 a 94.999997,94.999997 0 0 1 9.48438,0.47461 94.999997,94.999997 0 0 1 9.38867,1.41992 94.999997,94.999997 0 0 1 4.71679,1.20313 z"
         style="fill:#ff0b0d;fill-opacity:1;stroke:none;stroke-width:0.48633054;stroke-miterlimit:4;stroke-dasharray:none;stroke-opacity:1;filter:url(#filter4905-0)"
         inkscape:connector-curvature="0" />
      <path
         transform="matrix(0.27202007,0,0,0.27202007,-62.944889,124.70579)"
         id="path6388"
         d="m 526.1875,398.40039 -2.59766,9.69727 a 94.999997,94.999997 0 0 1 4.48438,1.14453 94.999997,94.999997 0 0 1 8.91992,3.25781 94.999997,94.999997 0 0 1 8.55078,4.12891 94.999997,94.999997 0 0 1 8.0957,4.96484 94.999997,94.999997 0 0 1 7.56055,5.74609 94.999997,94.999997 0 0 1 5.25,4.89063 l 7.11328,-7.11328 a 105,105 0 0 0 -47.37695,-26.7168 z"
         style="fill:url(#linearGradient6698);fill-opacity:1;stroke:none;stroke-width:0.48633054;stroke-miterlimit:4;stroke-dasharray:none;stroke-opacity:1;filter:url(#filter4905-0)"
         inkscape:connector-curvature="0" />
      <path
         transform="matrix(0.27181121,0,0,0.27181121,36.997416,216.05244)"
         sodipodi:nodetypes="sssss"
         inkscape:connector-curvature="0"
         id="path8371"
         d="m 132.29165,59.401511 c -58.159346,0 -105.306798,47.147459 -105.306782,105.306819 4e-6,58.15933 47.147452,105.30679 105.306782,105.30679 58.15933,0 105.30677,-47.14746 105.30678,-105.30679 1e-5,-58.15936 -47.14744,-105.306819 -105.30678,-105.306819 z"
         style="opacity:0.7;fill:none;fill-opacity:1;stroke:#000000;stroke-width:0.97340846;stroke-miterlimit:4;stroke-dasharray:none;stroke-opacity:1" />
      <path
         transform="matrix(0.27181121,0,0,0.27181121,36.997416,216.05244)"
         style="opacity:0.7;fill:none;fill-opacity:1;stroke:#000000;stroke-width:0.97340846;stroke-miterlimit:4;stroke-dasharray:none;stroke-opacity:0.93150689"
         d="m 132.51082,119.61863 c -24.71711,0 -44.754267,20.03716 -44.75426,44.75428 2e-6,24.71711 20.03715,44.75427 44.75426,44.75427 24.71711,0 44.75428,-20.03716 44.75429,-44.75427 0,-24.71712 -20.03717,-44.75428 -44.75429,-44.75428 z"
         id="path8773"
         inkscape:connector-curvature="0"
         sodipodi:nodetypes="sssss" />
    </g>
  </g>
</svg>
