<?xml version="1.0" encoding="UTF-8" standalone="no"?>
<!-- Created with Inkscape (http://www.inkscape.org/) -->

<svg
   xmlns:dc="http://purl.org/dc/elements/1.1/"
   xmlns:cc="http://creativecommons.org/ns#"
   xmlns:rdf="http://www.w3.org/1999/02/22-rdf-syntax-ns#"
   xmlns:svg="http://www.w3.org/2000/svg"
   xmlns="http://www.w3.org/2000/svg"
   xmlns:xlink="http://www.w3.org/1999/xlink"
   xmlns:sodipodi="http://sodipodi.sourceforge.net/DTD/sodipodi-0.dtd"
   xmlns:inkscape="http://www.inkscape.org/namespaces/inkscape"
   width="552"
   height="346"
   viewBox="0 0 146.05 91.545836"
   version="1.1"
   id="svg783"
   inkscape:version="0.92.4 5da689c313, 2019-01-14"
   sodipodi:docname="splash.svg"
   inkscape:export-filename="/tmp/splash.png"
   inkscape:export-xdpi="96"
   inkscape:export-ydpi="96"
   enable-background="new">
  <title
     id="title188">RawTherapee splash screen</title>
  <defs
     id="defs777">
    <linearGradient
       id="linearGradient3962-8">
      <stop
         id="stop3964-8"
         offset="0"
         style="stop-color:#38c102;stop-opacity:1" />
      <stop
         id="stop3966-8"
         offset="1"
         style="stop-color:#bced02;stop-opacity:1;" />
    </linearGradient>
    <linearGradient
       id="linearGradient3954-7">
      <stop
         id="stop3956-7"
         offset="0"
         style="stop-color:#009a01;stop-opacity:1" />
      <stop
         id="stop3958-6"
         offset="1"
         style="stop-color:#01d901;stop-opacity:1;" />
    </linearGradient>
    <linearGradient
       id="linearGradient4002-3"
       inkscape:collect="always">
      <stop
         id="stop4004-0"
         offset="0"
         style="stop-color:#5a1898;stop-opacity:1" />
      <stop
         id="stop4006-3"
         offset="1"
         style="stop-color:#971ec6;stop-opacity:1" />
    </linearGradient>
    <linearGradient
       id="linearGradient4024-9">
      <stop
         id="stop4026-2"
         offset="0"
         style="stop-color:#053980;stop-opacity:1" />
      <stop
         id="stop4028-5"
         offset="1"
         style="stop-color:#0293e4;stop-opacity:1;" />
    </linearGradient>
    <linearGradient
       id="linearGradient4018-0"
       inkscape:collect="always">
      <stop
         id="stop4020-5"
         offset="0"
         style="stop-color:#151b92;stop-opacity:1" />
      <stop
         id="stop4022-9"
         offset="1"
         style="stop-color:#1526c3;stop-opacity:1" />
    </linearGradient>
    <linearGradient
       id="linearGradient3978-6">
      <stop
         style="stop-color:#f18e01;stop-opacity:1;"
         offset="0"
         id="stop4040-9" />
      <stop
         id="stop3982-2"
         offset="1"
         style="stop-color:#ffd02b;stop-opacity:1;" />
    </linearGradient>
    <linearGradient
       id="linearGradient3994-4"
       inkscape:collect="always">
      <stop
         id="stop3996-7"
         offset="0"
         style="stop-color:#d91566;stop-opacity:1" />
      <stop
         id="stop3998-7"
         offset="1"
         style="stop-color:#fc12aa;stop-opacity:1" />
    </linearGradient>
    <linearGradient
       id="linearGradient3970-4">
      <stop
         id="stop3972-8"
         offset="0"
         style="stop-color:#f8bc00;stop-opacity:1;" />
      <stop
         id="stop3974-1"
         offset="1"
         style="stop-color:#ffe309;stop-opacity:1;" />
    </linearGradient>
    <linearGradient
       id="linearGradient3946-8">
      <stop
         id="stop3948-9"
         offset="0"
         style="stop-color:#0193be;stop-opacity:1;" />
      <stop
         id="stop3950-3"
         offset="1"
         style="stop-color:#01d4ed;stop-opacity:1;" />
    </linearGradient>
    <linearGradient
       id="linearGradient3986-8">
      <stop
         id="stop3988-0"
         offset="0"
         style="stop-color:#fd4c0b;stop-opacity:1" />
      <stop
         id="stop3990-2"
         offset="1"
         style="stop-color:#feab27;stop-opacity:1;" />
    </linearGradient>
    <filter
       width="2"
       height="2"
       y="-0.5"
       x="-0.5"
       inkscape:label="RawTherapee white"
       id="filter4749"
       style="color-interpolation-filters:sRGB">
      <feFlood
         result="flood"
         flood-color="rgb(255,255,255)"
         flood-opacity="0.40000000000000002"
         id="feFlood4751" />
      <feComposite
         result="composite1"
         operator="in"
         in="flood"
         in2="SourceGraphic"
         id="feComposite4753" />
      <feGaussianBlur
         result="blur"
         stdDeviation="3.5"
         id="feGaussianBlur4755" />
      <feComposite
         result="composite2"
         operator="over"
         in="SourceGraphic"
         in2="blur"
         id="feComposite4757" />
    </filter>
    <linearGradient
       inkscape:collect="always"
       xlink:href="#linearGradient3978-6"
       id="linearGradient6584"
       x1="311.50415"
       y1="170.17421"
       x2="239.55922"
       y2="172.53203"
       gradientUnits="userSpaceOnUse"
       gradientTransform="translate(293.84585,294.63829)" />
    <filter
       inkscape:menu-tooltip="Glow of object's own color at the edges"
       inkscape:menu="Shadows and Glows"
       inkscape:label="ring glow"
       id="filter3580-78"
       x="-1.5"
       y="-1.5"
       width="4"
       height="4"
       style="color-interpolation-filters:sRGB">
      <feGaussianBlur
         result="result91"
         stdDeviation="13"
         id="feGaussianBlur3582-4" />
      <feComposite
         operator="over"
         in="SourceGraphic"
         in2="result91"
         id="feComposite3584-5" />
    </filter>
    <linearGradient
       inkscape:collect="always"
       xlink:href="#linearGradient3970-4"
       id="linearGradient6592"
       x1="309.89517"
       y1="205.34961"
       x2="250.14594"
       y2="206.56822"
       gradientUnits="userSpaceOnUse"
       gradientTransform="translate(293.84585,294.63829)" />
    <linearGradient
       inkscape:collect="always"
       xlink:href="#linearGradient3962-8"
       id="linearGradient6600"
       x1="255.66684"
       y1="289.47989"
       x2="228.84343"
       y2="242.79517"
       gradientUnits="userSpaceOnUse"
       gradientTransform="translate(293.84585,294.63829)" />
    <linearGradient
       inkscape:collect="always"
       xlink:href="#linearGradient3954-7"
       id="linearGradient6536"
       x1="226.94818"
       y1="311.5441"
       x2="203.56046"
       y2="247.99712"
       gradientUnits="userSpaceOnUse"
       gradientTransform="translate(293.84585,294.63829)" />
    <linearGradient
       inkscape:collect="always"
       xlink:href="#linearGradient3946-8"
       id="linearGradient6544"
       x1="155.04362"
       y1="291.98077"
       x2="196.8688"
       y2="242.92572"
       gradientUnits="userSpaceOnUse"
       gradientTransform="translate(293.84585,294.63829)" />
    <linearGradient
       inkscape:collect="always"
       xlink:href="#linearGradient4024-9"
       id="linearGradient6552"
       x1="121.99204"
       y1="254.89784"
       x2="172.34001"
       y2="224.42828"
       gradientUnits="userSpaceOnUse"
       gradientTransform="translate(293.84585,294.63829)" />
    <linearGradient
       inkscape:collect="always"
       xlink:href="#linearGradient4018-0"
       id="linearGradient6560"
       x1="28.951002"
       y1="87.129852"
       x2="42.548061"
       y2="86.547829"
       gradientUnits="userSpaceOnUse"
       gradientTransform="translate(77.746712,77.956383)" />
    <linearGradient
       inkscape:collect="always"
       xlink:href="#linearGradient4002-3"
       id="linearGradient6568"
       x1="127.4337"
       y1="150.63391"
       x2="164.38599"
       y2="186.60429"
       gradientUnits="userSpaceOnUse"
       gradientTransform="translate(293.84585,294.63829)" />
    <linearGradient
       inkscape:collect="always"
       xlink:href="#linearGradient3994-4"
       id="linearGradient6576"
       x1="156.03696"
       y1="121.53358"
       x2="182.59938"
       y2="166.47519"
       gradientUnits="userSpaceOnUse"
       gradientTransform="translate(293.84585,294.63829)" />
    <linearGradient
       inkscape:collect="always"
       xlink:href="#linearGradient3986-8"
       id="linearGradient6506"
       x1="254.73129"
       y1="120.67714"
       x2="221.8271"
       y2="167.72273"
       gradientUnits="userSpaceOnUse"
       gradientTransform="translate(293.84585,294.63829)" />
    <linearGradient
       inkscape:collect="always"
       xlink:href="#linearGradient3978-6"
       id="linearGradient6720"
       x1="273.82266"
       y1="127.06858"
       x2="304.14511"
       y2="182.71349"
       gradientUnits="userSpaceOnUse"
       gradientTransform="translate(293.84585,294.63829)" />
    <filter
       id="filter4905-0"
       x="-0.5"
       y="-0.5"
       width="2"
       height="2"
       inkscape:label="ring inset lightness-contrast"
       inkscape:menu="Color"
       inkscape:menu-tooltip="Increase or decrease lightness and contrast"
       style="color-interpolation-filters:sRGB">
      <feFlood
         id="feFlood4907-7"
         result="result1"
         flood-opacity="0"
         flood-color="rgb(255,255,255)" />
      <feBlend
         id="feBlend4909-8"
         in2="SourceGraphic"
         mode="normal"
         result="result2" />
      <feComposite
         id="feComposite4911-6"
         in2="SourceGraphic"
         k2="1.2"
         operator="arithmetic"
         result="result3"
         k1="0"
         k4="0.2"
         k3="0" />
      <feComposite
         id="feComposite4913-88"
         in2="SourceGraphic"
         operator="in" />
    </filter>
    <linearGradient
       inkscape:collect="always"
       xlink:href="#linearGradient3970-4"
       id="linearGradient6718"
       x1="304.40735"
       y1="169.7298"
       x2="305.57675"
       y2="235.63695"
       gradientUnits="userSpaceOnUse"
       gradientTransform="translate(293.84585,294.63829)" />
    <linearGradient
       inkscape:collect="always"
       xlink:href="#linearGradient3962-8"
       id="linearGradient6714"
       x1="223.82266"
       y1="301.22165"
       x2="281.22165"
       y2="272.06857"
       gradientUnits="userSpaceOnUse"
       gradientTransform="translate(293.84585,294.63829)" />
    <linearGradient
       inkscape:collect="always"
       xlink:href="#linearGradient3954-7"
       id="linearGradient6712"
       x1="170.31453"
       y1="306.74612"
       x2="244.40735"
       y2="307.33081"
       gradientUnits="userSpaceOnUse"
       gradientTransform="translate(293.84585,294.63829)" />
    <linearGradient
       inkscape:collect="always"
       xlink:href="#linearGradient3946-8"
       id="linearGradient6710"
       x1="128.56046"
       y1="269.99203"
       x2="189.40738"
       y2="308.23798"
       gradientUnits="userSpaceOnUse"
       gradientTransform="translate(293.84585,294.63829)" />
    <linearGradient
       inkscape:collect="always"
       xlink:href="#linearGradient4024-9"
       id="linearGradient6708"
       x1="108.82266"
       y1="218.56042"
       x2="142.97575"
       y2="285.31448"
       gradientUnits="userSpaceOnUse"
       gradientTransform="translate(293.84585,294.63829)" />
    <linearGradient
       inkscape:collect="always"
       xlink:href="#linearGradient4018-0"
       id="linearGradient6706"
       x1="113.82269"
       y1="240.89919"
       x2="110.89922"
       y2="173.23796"
       gradientUnits="userSpaceOnUse"
       gradientTransform="translate(293.84585,294.63829)" />
    <linearGradient
       inkscape:collect="always"
       xlink:href="#linearGradient4002-3"
       id="linearGradient6704"
       x1="108.23797"
       y1="187.97572"
       x2="140.31453"
       y2="128.82266"
       gradientUnits="userSpaceOnUse"
       gradientTransform="translate(293.84585,294.63829)" />
    <linearGradient
       inkscape:collect="always"
       xlink:href="#linearGradient3994-4"
       id="linearGradient6702"
       x1="187.39107"
       y1="105.89919"
       x2="126.80637"
       y2="140.89919"
       gradientUnits="userSpaceOnUse"
       gradientTransform="translate(293.84585,294.63829)" />
    <linearGradient
       inkscape:collect="always"
       xlink:href="#linearGradient3986-8"
       id="linearGradient6698"
       x1="222.65326"
       y1="102.97572"
       x2="287.33084"
       y2="139.7298"
       gradientUnits="userSpaceOnUse"
       gradientTransform="translate(293.84585,294.63829)" />
    <filter
       style="color-interpolation-filters:sRGB"
       id="filter173"
       inkscape:label="logo glow"
       x="-1.5"
       y="-1.5"
       width="4"
       height="4">
      <feGaussianBlur
         stdDeviation="5"
         id="feGaussianBlur535"
         result="result1"
         in="SourceGraphic" />
      <feComposite
         in2="result1"
         id="feComposite543"
         in="SourceGraphic"
         operator="over" />
    </filter>
    <filter
       style="color-interpolation-filters:sRGB"
       id="filter155"
       inkscape:label="RawTherapee black"
       x="-0.5"
       y="-0.5"
       height="2"
       width="2">
      <feFlood
         id="feFlood147"
         flood-opacity="0.40000000000000002"
         flood-color="rgb(0,0,0)"
         result="flood" />
      <feComposite
         id="feComposite149"
         in2="SourceGraphic"
         in="flood"
         operator="in"
         result="composite1" />
      <feGaussianBlur
         id="feGaussianBlur151"
         stdDeviation="3.5"
         result="blur" />
      <feComposite
         id="feComposite153"
         in2="blur"
         in="SourceGraphic"
         operator="over"
         result="composite2" />
    </filter>
  </defs>
  <sodipodi:namedview
     id="base"
     pagecolor="#ffffff"
     bordercolor="#666666"
     borderopacity="1.0"
     inkscape:pageopacity="0.0"
     inkscape:pageshadow="2"
     inkscape:zoom="1.2738601"
     inkscape:cx="187.47456"
     inkscape:cy="151.61098"
     inkscape:document-units="px"
     inkscape:current-layer="layer1"
     showgrid="false"
     units="px"
     inkscape:snap-bbox="true"
     inkscape:bbox-nodes="true"
     inkscape:snap-page="false"
     inkscape:snap-text-baseline="false"
     inkscape:snap-center="false"
     inkscape:snap-object-midpoints="true"
     inkscape:snap-midpoints="false"
     inkscape:snap-smooth-nodes="false"
     inkscape:snap-intersection-paths="false"
     inkscape:object-paths="false"
     inkscape:snap-bbox-midpoints="true"
     inkscape:snap-bbox-edge-midpoints="false"
     inkscape:bbox-paths="false"
     showguides="true"
     inkscape:guide-bbox="true"
     inkscape:snap-others="true"
     inkscape:object-nodes="false"
     inkscape:snap-nodes="true"
     inkscape:snap-global="false"
     inkscape:window-width="1920"
     inkscape:window-height="1021"
     inkscape:window-x="0"
     inkscape:window-y="0"
     inkscape:window-maximized="1"
     inkscape:measure-start="416.334,192.525"
     inkscape:measure-end="422.317,192.368">
    <sodipodi:guide
       position="56.175393,84.951941"
       orientation="0,1"
       id="guide1322"
       inkscape:locked="false"
       inkscape:label=""
       inkscape:color="rgb(0,0,255)" />
    <sodipodi:guide
       position="27.648959,71.437501"
       orientation="0,1"
       id="guide1324"
       inkscape:locked="false" />
    <sodipodi:guide
       position="7.9169464,71.640606"
       orientation="1,0"
       id="guide1326"
       inkscape:locked="false" />
    <sodipodi:guide
       position="138.12828,76.425406"
       orientation="1,0"
       id="guide1328"
       inkscape:locked="false" />
    <sodipodi:guide
       position="10.558817,9.3661267"
       orientation="0,1"
       id="guide1330"
       inkscape:locked="false" />
    <sodipodi:guide
       position="10.348342,6.6182618"
       orientation="0,1"
       id="guide1332"
       inkscape:locked="false" />
    <sodipodi:guide
       position="123.92422,11.509375"
       orientation="0,1"
       id="guide1334"
       inkscape:locked="false" />
    <sodipodi:guide
       position="100.44245,12.303125"
       orientation="1,0"
       id="guide1336"
       inkscape:locked="false" />
    <sodipodi:guide
       position="73.162242,36.263025"
       orientation="0,1"
       id="guide2355"
       inkscape:locked="false" />
    <sodipodi:guide
       position="73.162242,39.921138"
       orientation="1,0"
       id="guide2357"
       inkscape:locked="false" />
  </sodipodi:namedview>
  <metadata
     id="metadata780">
    <rdf:RDF>
      <cc:Work
         rdf:about="">
        <dc:format>image/svg+xml</dc:format>
        <dc:type
           rdf:resource="http://purl.org/dc/dcmitype/StillImage" />
        <dc:title>RawTherapee splash screen</dc:title>
        <dc:date />
        <dc:creator>
          <cc:Agent>
            <dc:title>Maciej Dworak</dc:title>
          </cc:Agent>
        </dc:creator>
        <dc:source>www.rawtherapee.com</dc:source>
        <cc:license
           rdf:resource="http://creativecommons.org/licenses/by-sa/4.0/" />
      </cc:Work>
      <cc:License
         rdf:about="http://creativecommons.org/licenses/by-sa/4.0/">
        <cc:permits
           rdf:resource="http://creativecommons.org/ns#Reproduction" />
        <cc:permits
           rdf:resource="http://creativecommons.org/ns#Distribution" />
        <cc:requires
           rdf:resource="http://creativecommons.org/ns#Notice" />
        <cc:requires
           rdf:resource="http://creativecommons.org/ns#Attribution" />
        <cc:permits
           rdf:resource="http://creativecommons.org/ns#DerivativeWorks" />
        <cc:requires
           rdf:resource="http://creativecommons.org/ns#ShareAlike" />
      </cc:License>
    </rdf:RDF>
  </metadata>
  <g
     inkscape:label="Layer 1"
     inkscape:groupmode="layer"
     id="layer1"
     transform="translate(0,-205.45415)">
    <rect
       style="fill:#2a2a2a;fill-opacity:1;fill-rule:nonzero;stroke:none;stroke-width:0.16841719;enable-background:new"
       id="rect218"
       width="146.05"
       height="37.092529"
       x="-2.4167275e-07"
       y="305.99576"
       rx="3.96875"
       ry="3.96875" />
    <rect
       y="205.45415"
       x="-2.4167275e-07"
       height="91.545853"
       width="146.05"
       id="rect4747"
       style="fill:#2a2a2a;fill-opacity:1;fill-rule:nonzero;stroke:none;stroke-width:0.26458338;enable-background:new" />
    <flowRoot
       transform="matrix(0.25131908,0,0,0.25131908,-9.0192086,272.09598)"
       xml:space="preserve"
       id="flowRoot3757"
       style="font-style:normal;font-variant:normal;font-weight:normal;font-stretch:normal;font-size:12.80000019px;line-height:0.01%;font-family:OxygenSans;-inkscape-font-specification:OxygenSans;text-align:justify;letter-spacing:0px;word-spacing:0px;text-anchor:start;fill:#f9f9f9;fill-opacity:1;stroke:none;stroke-width:1.06666672;enable-background:new"><flowRegion
         id="flowRegion3759"
         style="fill:#f9f9f9;stroke-width:1.06666672"><rect
           id="rect3761"
           width="552.64526"
           height="133.19028"
           x="50.107433"
           y="149.19244"
           style="font-style:normal;font-variant:normal;font-weight:normal;font-stretch:normal;font-size:10.66666698px;font-family:OxygenSans;-inkscape-font-specification:OxygenSans;text-align:justify;text-anchor:start;fill:#f9f9f9;fill-opacity:1;stroke-width:1.13777781" /></flowRegion><flowPara
         style="font-style:normal;font-variant:normal;font-weight:normal;font-stretch:normal;font-size:11.2296381px;line-height:1.25;font-family:OxygenSans;-inkscape-font-specification:OxygenSans;text-align:justify;text-anchor:start;fill:#f9f9f9;fill-opacity:1;stroke-width:1.06666672"
         id="flowPara183">Each logo element has a filter effect (ring*). Additionally, the logo as a whole (all elements grouped) also has a filter effect (logo glow).</flowPara><flowPara
         style="font-style:normal;font-variant:normal;font-weight:normal;font-stretch:normal;font-size:11.2296381px;line-height:1.25;font-family:OxygenSans;-inkscape-font-specification:OxygenSans;text-align:justify;text-anchor:start;fill:#f9f9f9;fill-opacity:1;stroke-width:1.06666672"
         id="flowPara199" /><flowPara
         style="font-style:normal;font-variant:normal;font-weight:normal;font-stretch:normal;font-size:11.2296381px;line-height:1.25;font-family:OxygenSans;-inkscape-font-specification:OxygenSans;text-align:justify;text-anchor:start;fill:#f9f9f9;fill-opacity:1;stroke-width:1.06666672"
         id="flowPara201">&quot;Raw&quot;: font Eras Ultra ITC, 60pt, -3px spacing between characters.</flowPara><flowPara
         style="font-style:normal;font-variant:normal;font-weight:normal;font-stretch:normal;font-size:11.2296381px;line-height:1.25;font-family:OxygenSans;-inkscape-font-specification:OxygenSans;text-align:justify;text-anchor:start;fill:#f9f9f9;fill-opacity:1;stroke-width:1.06666672"
         id="flowPara177">&quot;Therapee&quot;: font Eras Medium ITC, 60pt, +1px spacing between characters.</flowPara><flowPara
         style="font-style:normal;font-variant:normal;font-weight:normal;font-stretch:normal;font-size:11.2296381px;line-height:1.25;font-family:OxygenSans;-inkscape-font-specification:OxygenSans;text-align:justify;text-anchor:start;fill:#f9f9f9;fill-opacity:1;stroke-width:1.06666672"
         id="flowPara179">Version: font Eras Bold ITC, 64pt, skewed -3°.</flowPara></flowRoot>    <text
       xml:space="preserve"
       style="font-style:normal;font-variant:normal;font-weight:500;font-stretch:normal;font-size:3.21688437px;line-height:0%;font-family:Salter;-inkscape-font-specification:'Salter Medium';letter-spacing:0px;word-spacing:0px;fill:#000000;fill-opacity:1;stroke:none;stroke-width:0.26807371;enable-background:new"
       x="6.052238"
       y="336.89627"
       id="text11593"><tspan
         sodipodi:role="line"
         id="tspan11595"
         x="6.052238"
         y="336.89627"
         style="font-style:normal;font-variant:normal;font-weight:normal;font-stretch:normal;font-size:2.82222223px;line-height:1.25;font-family:OxygenSans;-inkscape-font-specification:OxygenSans;letter-spacing:0.26807371px;fill:#ffcc00;fill-opacity:1;stroke-width:0.26807371">RawTherapee splash screen design version 1.2 from 2019-02-27 | www.rawtherapee.com</tspan></text>
    <g
       aria-label="GNU GPLv3"
       style="font-style:normal;font-variant:normal;font-weight:normal;font-stretch:normal;font-size:3.17500019px;line-height:0%;font-family:'Eras Bold ITC';-inkscape-font-specification:'Eras Bold ITC';letter-spacing:0px;word-spacing:0px;fill:#ffffff;fill-opacity:1;stroke:none;stroke-width:0.26458338px;stroke-linecap:butt;stroke-linejoin:miter;stroke-opacity:1;enable-background:new"
       id="text3683">
      <path
         d="m 9.4489751,288.85927 q 0.3352508,0.002 0.5154724,0.002 0.1918485,0 0.4321445,-0.002 -0.04263,0.57942 -0.06201,1.39914 -0.5871735,0.12596 -1.0038148,0.12596 -0.3081207,0 -0.5910491,-0.0795 -0.2809906,-0.0795 -0.4747773,-0.24224 -0.1937866,-0.16278 -0.2926178,-0.41858 -0.096893,-0.25579 -0.096893,-0.54066 0,-0.32362 0.1220856,-0.60849 0.1240234,-0.2868 0.346878,-0.48059 0.2228547,-0.19379 0.5019074,-0.27712 0.2790527,-0.0833 0.6181793,-0.0833 0.3720703,0 0.829407,0.0988 0.0039,0.14534 0.01938,0.31393 -0.271301,-0.0891 -0.4689632,-0.12208 -0.1976624,-0.0349 -0.3643189,-0.0349 -0.2616119,0 -0.4980316,0.0795 -0.2364196,0.0775 -0.405014,0.24029 -0.1685944,0.16084 -0.2557983,0.3992 -0.087204,0.23836 -0.087204,0.49222 0,0.22673 0.069763,0.42633 0.071701,0.19766 0.2151031,0.32362 0.1434021,0.12597 0.3488159,0.19379 0.2073517,0.0659 0.449585,0.0659 0.1317749,0 0.3139343,-0.0233 0.1821594,-0.0252 0.3681946,-0.0833 l 0.038757,-0.91661 H 9.855927 q -0.1821594,0 -0.4185791,0.01 0.011627,-0.13952 0.011627,-0.25773 z"
         style="font-style:normal;font-variant:normal;font-weight:normal;font-stretch:normal;font-size:3.96875px;line-height:1.25;font-family:'Eras Medium ITC';-inkscape-font-specification:'Eras Medium ITC';stroke-width:0.26458338px"
         id="path638" />
      <path
         d="m 10.908188,290.34174 0.03876,-0.53873 0.06589,-1.57355 0.0078,-0.30618 q 0.0019,-0.14534 0.0019,-0.22673 0.14534,0.002 0.242234,0.002 0.07945,0 0.222854,-0.002 l 0.211228,0.34106 1.280929,1.93206 0.08139,-2.27312 0.17247,0.002 0.170532,-0.002 -0.04263,0.67825 -0.05232,1.19567 -0.02326,0.77127 q -0.114334,-0.004 -0.224792,-0.004 -0.100769,0 -0.234482,0.004 l -0.178284,-0.28487 -1.311935,-1.96693 q -0.0078,0.10852 -0.0155,0.34106 l -0.05426,1.37007 -0.01163,0.54067 q -0.125961,-0.004 -0.168594,-0.004 -0.03101,0 -0.178284,0.004 z"
         style="font-style:normal;font-variant:normal;font-weight:normal;font-stretch:normal;font-size:3.96875px;line-height:1.25;font-family:'Eras Medium ITC';-inkscape-font-specification:'Eras Medium ITC';stroke-width:0.26458338px"
         id="path640" />
      <path
         d="m 14.004899,287.69655 0.191848,0.002 0.187973,-0.002 -0.0872,1.47859 -0.0058,0.18022 v 0.0368 q 0,0.26936 0.07945,0.41858 0.07945,0.14728 0.251923,0.22867 0.174408,0.0814 0.439895,0.0814 0.178284,0 0.329438,-0.0465 0.125961,-0.0407 0.213165,-0.10852 0.08914,-0.0678 0.147278,-0.16666 0.05426,-0.0949 0.07752,-0.2151 0.02713,-0.15115 0.04845,-0.5271 l 0.03488,-0.62399 q 0.0155,-0.34494 0.02132,-0.73639 l 0.199601,0.002 0.180221,-0.002 -0.0562,0.91273 -0.03488,0.75577 q -0.01744,0.26355 -0.0562,0.40889 -0.02907,0.10271 -0.08527,0.19379 -0.05038,0.0814 -0.124023,0.14534 -0.0872,0.0775 -0.211228,0.13759 -0.131775,0.062 -0.279052,0.093 -0.211228,0.0407 -0.437958,0.0407 -0.220917,0 -0.412766,-0.0446 -0.166656,-0.0388 -0.306183,-0.11821 -0.139526,-0.0795 -0.222854,-0.18022 -0.06976,-0.0814 -0.110459,-0.20542 -0.04651,-0.13952 -0.04651,-0.30812 0,-0.18022 0.01356,-0.41276 0.0155,-0.23255 0.03682,-0.70151 0.02326,-0.46896 0.02326,-0.71701 z"
         style="font-style:normal;font-variant:normal;font-weight:normal;font-stretch:normal;font-size:3.96875px;line-height:1.25;font-family:'Eras Medium ITC';-inkscape-font-specification:'Eras Medium ITC';stroke-width:0.26458338px"
         id="path642" />
      <path
         d="m 19.285584,288.85927 q 0.335251,0.002 0.515472,0.002 0.191849,0 0.432145,-0.002 -0.04263,0.57942 -0.06201,1.39914 -0.587174,0.12596 -1.003815,0.12596 -0.308121,0 -0.591049,-0.0795 -0.280991,-0.0795 -0.474777,-0.24224 -0.193787,-0.16278 -0.292618,-0.41858 -0.09689,-0.25579 -0.09689,-0.54066 0,-0.32362 0.122085,-0.60849 0.124024,-0.2868 0.346878,-0.48059 0.222855,-0.19379 0.501908,-0.27712 0.279052,-0.0833 0.618179,-0.0833 0.37207,0 0.829407,0.0988 0.0039,0.14534 0.01938,0.31393 -0.271301,-0.0891 -0.468963,-0.12208 -0.197663,-0.0349 -0.364319,-0.0349 -0.261612,0 -0.498032,0.0795 -0.236419,0.0775 -0.405014,0.24029 -0.168594,0.16084 -0.255798,0.3992 -0.0872,0.23836 -0.0872,0.49222 0,0.22673 0.06976,0.42633 0.0717,0.19766 0.215103,0.32362 0.143402,0.12597 0.348816,0.19379 0.207352,0.0659 0.449585,0.0659 0.131775,0 0.313934,-0.0233 0.18216,-0.0252 0.368195,-0.0833 l 0.03876,-0.91661 h -0.182159 q -0.18216,0 -0.418579,0.01 0.01163,-0.13952 0.01163,-0.25773 z"
         style="font-style:normal;font-variant:normal;font-weight:normal;font-stretch:normal;font-size:3.96875px;line-height:1.25;font-family:'Eras Medium ITC';-inkscape-font-specification:'Eras Medium ITC';stroke-width:0.26458338px"
         id="path644" />
      <path
         d="m 20.746735,290.34174 0.03294,-0.4399 0.06201,-1.51541 0.0078,-0.32556 q 0.0019,-0.0775 0.0019,-0.15309 v -0.21123 q 0.242233,0.004 0.393387,0.004 0.09108,0 0.279052,-0.004 0.187973,-0.004 0.280991,-0.004 0.246109,0 0.364319,0.0368 0.11821,0.0349 0.209289,0.12015 0.09108,0.0833 0.143403,0.20735 0.05232,0.12403 0.05232,0.27324 0,0.24417 -0.124024,0.4399 -0.124023,0.19378 -0.339126,0.29068 -0.213165,0.0949 -0.476715,0.0949 -0.139527,0 -0.310059,-0.031 -0.02907,-0.13372 -0.06589,-0.24224 0.151153,0.0291 0.294555,0.0291 0.139527,0 0.265488,-0.031 0.127899,-0.0329 0.218979,-0.10658 0.09108,-0.0756 0.141464,-0.18797 0.05038,-0.1124 0.05038,-0.23836 0,-0.0988 -0.03682,-0.18216 -0.03682,-0.0853 -0.102707,-0.13371 -0.06395,-0.0504 -0.147277,-0.0678 -0.08139,-0.0174 -0.238358,-0.0174 H 21.54126 l -0.203476,0.004 -0.151153,-0.002 q -0.02325,0.42439 -0.03294,0.77127 l -0.02713,0.79646 q -0.01356,0.45347 -0.01356,0.60656 v 0.21898 l -0.180222,-0.004 q -0.03294,0 -0.186035,0.004 z"
         style="font-style:normal;font-variant:normal;font-weight:normal;font-stretch:normal;font-size:3.96875px;line-height:1.25;font-family:'Eras Medium ITC';-inkscape-font-specification:'Eras Medium ITC';stroke-width:0.26458338px"
         id="path646" />
      <path
         d="m 22.891953,290.34174 q 0.04457,-0.49997 0.07558,-1.22086 0.03294,-0.72282 0.04069,-1.42433 0.133713,0.002 0.203476,0.002 l 0.180221,-0.002 -0.06201,1.22861 -0.04651,1.15884 0.368195,0.002 q 0.410827,0 0.577484,-0.002 0.168594,-0.004 0.325561,-0.0136 -0.01163,0.12209 -0.01938,0.27131 -0.439896,-0.004 -0.777085,-0.004 z"
         style="font-style:normal;font-variant:normal;font-weight:normal;font-stretch:normal;font-size:3.96875px;line-height:1.25;font-family:'Eras Medium ITC';-inkscape-font-specification:'Eras Medium ITC';stroke-width:0.26458338px"
         id="path648" />
      <path
         d="m 25.335602,290.34174 -0.06589,-0.19573 q -0.03294,-0.0949 -0.155029,-0.43214 l -0.486405,-1.33519 q 0.11821,0.002 0.186035,0.002 0.07364,0 0.174408,-0.002 l 0.04069,0.13565 q 0.01744,0.0581 0.06007,0.18603 l 0.455399,1.3507 0.616241,-1.48053 0.07364,-0.19185 q 0.114334,0.002 0.18216,0.002 0.06782,0 0.182159,-0.002 l -0.251923,0.54066 -0.505783,1.12784 -0.124023,0.29456 q -0.120148,-0.004 -0.187973,-0.004 -0.06976,0 -0.193787,0.004 z"
         style="font-style:normal;font-variant:normal;font-weight:normal;font-stretch:normal;font-size:3.96875px;line-height:1.25;font-family:'Eras Medium ITC';-inkscape-font-specification:'Eras Medium ITC';stroke-width:0.26458338px"
         id="path650" />
      <path
         d="m 26.769623,290.2836 q -0.0097,-0.16666 -0.02713,-0.29843 0.218979,0.0833 0.391449,0.11433 0.17247,0.031 0.323624,0.031 0.197662,0 0.358505,-0.064 0.162781,-0.0659 0.265488,-0.19573 0.102707,-0.13177 0.102707,-0.30812 0,-0.14146 -0.07558,-0.25192 -0.07558,-0.11046 -0.228668,-0.16859 -0.151154,-0.0581 -0.410828,-0.0581 -0.120148,0 -0.269363,0.0136 0.01356,-0.16472 0.0155,-0.26743 0.100769,0.0174 0.182159,0.0174 0.205414,0 0.379822,-0.0504 0.174408,-0.0523 0.269363,-0.1841 0.09496,-0.13178 0.09496,-0.28293 0,-0.10077 -0.04263,-0.18991 -0.04263,-0.0891 -0.124024,-0.14534 -0.08139,-0.0562 -0.193787,-0.0775 -0.110458,-0.0213 -0.224792,-0.0213 -0.149216,0 -0.284866,0.0174 -0.135651,0.0174 -0.3275,0.0659 0.02326,-0.0891 0.04845,-0.26937 0.224792,-0.0329 0.358505,-0.0446 0.133713,-0.0136 0.255798,-0.0136 0.203476,0 0.38176,0.0368 0.180222,0.0349 0.302307,0.11821 0.122086,0.0814 0.178284,0.20735 0.05814,0.12596 0.05814,0.2713 0,0.10658 -0.03294,0.21317 -0.03294,0.10658 -0.0872,0.18409 -0.05232,0.0775 -0.116272,0.1279 -0.06395,0.0504 -0.137588,0.0833 -0.0717,0.0329 -0.218979,0.0775 0.155029,0.0174 0.232544,0.0426 0.07751,0.0252 0.151153,0.0775 0.07364,0.0523 0.125962,0.1279 0.05426,0.0736 0.07945,0.17053 0.02713,0.095 0.02713,0.19767 0,0.18216 -0.08333,0.343 -0.08333,0.16084 -0.23642,0.26355 -0.153091,0.1027 -0.346878,0.14728 -0.193786,0.0426 -0.405014,0.0426 -0.153091,0 -0.313934,-0.0213 -0.160843,-0.0213 -0.395325,-0.0795 z"
         style="font-style:normal;font-variant:normal;font-weight:normal;font-stretch:normal;font-size:3.96875px;line-height:1.25;font-family:'Eras Medium ITC';-inkscape-font-specification:'Eras Medium ITC';stroke-width:0.26458338px"
         id="path652" />
    </g>
    <g
       id="g171"
       style="filter:url(#filter173)">
      <path
         transform="matrix(0.27202007,0,0,0.27202007,-62.945282,124.70558)"
         id="path6498"
         d="m 543.25,487.63477 48.31055,-12.94532 a 94.999997,94.999997 0 0 0 -0.0234,-0.10156 94.999997,94.999997 0 0 0 -2.99414,-9.01172 94.999997,94.999997 0 0 0 -3.87891,-8.66797 94.999997,94.999997 0 0 0 -4.72461,-8.23632 94.999997,94.999997 0 0 0 -5.52343,-7.72461 94.999997,94.999997 0 0 0 -6.26758,-7.13477 94.999997,94.999997 0 0 0 -1.69727,-1.58203 l -35.33398,35.33398 a 44.999999,44.999999 0 0 1 1.16406,1.08399 44.999999,44.999999 0 0 1 2.96875,3.3789 44.999999,44.999999 0 0 1 2.61719,3.65821 44.999999,44.999999 0 0 1 2.23633,3.90234 44.999999,44.999999 0 0 1 1.83789,4.10547 44.999999,44.999999 0 0 1 1.30859,3.94141 z"
         style="fill:url(#linearGradient6584);fill-opacity:1;stroke:none;stroke-width:0.48633054;stroke-miterlimit:4;stroke-dasharray:none;stroke-opacity:1;filter:url(#filter3580-78)"
         inkscape:connector-curvature="0" />
      <path
         transform="matrix(0.27202007,0,0,0.27202007,-62.944889,124.70579)"
         id="path6496"
         d="m 543.53906,511.14844 48.24024,12.92578 a 94.999997,94.999997 0 0 0 1.32617,-5.20117 94.999997,94.999997 0 0 0 1.41992,-9.38867 A 94.999997,94.999997 0 0 0 595,500 a 94.999997,94.999997 0 0 0 -0.23828,-6.7207 94.999997,94.999997 0 0 0 -1.14453,-9.42578 94.999997,94.999997 0 0 0 -2.05664,-9.16407 L 543.25,487.63477 a 44.999999,44.999999 0 0 1 0.10938,0.32812 44.999999,44.999999 0 0 1 0.98632,4.38867 44.999999,44.999999 0 0 1 0.54102,4.46485 A 44.999999,44.999999 0 0 1 545,500 a 44.999999,44.999999 0 0 1 -0.22461,4.49219 44.999999,44.999999 0 0 1 -0.67187,4.44726 44.999999,44.999999 0 0 1 -0.56446,2.20899 z"
         style="fill:url(#linearGradient6592);fill-opacity:1;stroke:none;stroke-width:0.48633054;stroke-miterlimit:4;stroke-dasharray:none;stroke-opacity:1;filter:url(#filter3580-78)"
         inkscape:connector-curvature="0" />
      <path
         transform="matrix(0.27202007,0,0,0.27202007,-62.944889,124.70579)"
         id="path6494"
         d="m 531.9707,531.61719 35.33399,35.33398 a 94.999997,94.999997 0 0 0 5.35547,-5.75 94.999997,94.999997 0 0 0 5.74609,-7.56055 94.999997,94.999997 0 0 0 4.96484,-8.0957 94.999997,94.999997 0 0 0 4.12891,-8.55078 94.999997,94.999997 0 0 0 3.25781,-8.91992 94.999997,94.999997 0 0 0 1.02149,-4 l -48.24024,-12.92578 a 44.999999,44.999999 0 0 1 -0.54883,2.15039 44.999999,44.999999 0 0 1 -1.54296,4.22461 44.999999,44.999999 0 0 1 -1.95508,4.05078 44.999999,44.999999 0 0 1 -2.35157,3.83398 44.999999,44.999999 0 0 1 -2.72265,3.58203 44.999999,44.999999 0 0 1 -2.44727,2.62696 z"
         style="fill:#fffb00;fill-opacity:1;stroke:none;stroke-width:0.48633054;stroke-miterlimit:4;stroke-dasharray:none;stroke-opacity:1;filter:url(#filter3580-78)"
         inkscape:connector-curvature="0" />
      <path
         transform="matrix(0.27202007,0,0,0.27202007,-62.944889,124.70579)"
         id="path6492"
         d="m 511.70703,543.43359 12.93555,48.27539 a 94.999997,94.999997 0 0 0 0.76953,-0.17187 94.999997,94.999997 0 0 0 9.01172,-2.99414 94.999997,94.999997 0 0 0 8.66797,-3.87891 94.999997,94.999997 0 0 0 8.23632,-4.72461 94.999997,94.999997 0 0 0 7.72461,-5.52343 94.999997,94.999997 0 0 0 7.13477,-6.26758 94.999997,94.999997 0 0 0 1.11719,-1.19727 L 531.9707,531.61719 a 44.999999,44.999999 0 0 1 -0.61914,0.66406 44.999999,44.999999 0 0 1 -3.3789,2.96875 44.999999,44.999999 0 0 1 -3.65821,2.61523 44.999999,44.999999 0 0 1 -3.90234,2.23829 44.999999,44.999999 0 0 1 -4.10547,1.83789 44.999999,44.999999 0 0 1 -4.26953,1.41797 44.999999,44.999999 0 0 1 -0.33008,0.0742 z"
         style="fill:url(#linearGradient6600);fill-opacity:1;stroke:none;stroke-width:0.48633054;stroke-miterlimit:4;stroke-dasharray:none;stroke-opacity:1;filter:url(#filter3580-78)"
         inkscape:connector-curvature="0" />
      <path
         transform="matrix(0.27202007,0,0,0.27202007,-62.944889,124.70579)"
         id="path6490"
         d="m 488.36719,543.41602 -12.92578,48.23828 a 94.999997,94.999997 0 0 0 5.68554,1.45117 94.999997,94.999997 0 0 0 9.38867,1.41992 A 94.999997,94.999997 0 0 0 500,595 a 94.999997,94.999997 0 0 0 6.7207,-0.23828 94.999997,94.999997 0 0 0 9.42578,-1.14453 94.999997,94.999997 0 0 0 8.4961,-1.90821 l -12.93555,-48.27539 a 44.999999,44.999999 0 0 1 -4.05859,0.91211 44.999999,44.999999 0 0 1 -4.46485,0.54102 A 44.999999,44.999999 0 0 1 500,545 a 44.999999,44.999999 0 0 1 -4.49219,-0.22461 44.999999,44.999999 0 0 1 -4.44726,-0.67187 44.999999,44.999999 0 0 1 -2.69336,-0.6875 z"
         style="fill:url(#linearGradient6536);fill-opacity:1;stroke:none;stroke-width:0.48633054;stroke-miterlimit:4;stroke-dasharray:none;stroke-opacity:1;filter:url(#filter3580-78)"
         inkscape:connector-curvature="0" />
      <path
         transform="matrix(0.27202007,0,0,0.27202007,-62.944889,124.70579)"
         id="path6488"
         d="m 468.25,531.8457 -35.33398,35.33399 a 94.999997,94.999997 0 0 0 5.88281,5.48047 94.999997,94.999997 0 0 0 7.56055,5.74609 94.999997,94.999997 0 0 0 8.0957,4.96484 94.999997,94.999997 0 0 0 8.55078,4.12891 94.999997,94.999997 0 0 0 8.91992,3.25781 94.999997,94.999997 0 0 0 3.51563,0.89649 l 12.92578,-48.23828 a 44.999999,44.999999 0 0 1 -1.66602,-0.42579 44.999999,44.999999 0 0 1 -4.22461,-1.54296 44.999999,44.999999 0 0 1 -4.05078,-1.95704 44.999999,44.999999 0 0 1 -3.83398,-2.34961 44.999999,44.999999 0 0 1 -3.58203,-2.72265 44.999999,44.999999 0 0 1 -2.75977,-2.57227 z"
         style="fill:url(#linearGradient6544);fill-opacity:1;stroke:none;stroke-width:0.48633054;stroke-miterlimit:4;stroke-dasharray:none;stroke-opacity:1;filter:url(#filter3580-78)"
         inkscape:connector-curvature="0" />
      <path
         transform="matrix(0.27202007,0,0,0.27202007,-62.944889,124.70579)"
         id="path6486"
         d="m 456.60742,511.88672 -48.27734,12.93555 a 94.999997,94.999997 0 0 0 0.13281,0.58984 94.999997,94.999997 0 0 0 2.99414,9.01172 94.999997,94.999997 0 0 0 3.87891,8.66797 94.999997,94.999997 0 0 0 4.72461,8.23632 94.999997,94.999997 0 0 0 5.52343,7.72461 94.999997,94.999997 0 0 0 6.26758,7.13477 94.999997,94.999997 0 0 0 1.06446,0.99219 L 468.25,531.8457 a 44.999999,44.999999 0 0 1 -0.53125,-0.49414 44.999999,44.999999 0 0 1 -2.96875,-3.3789 44.999999,44.999999 0 0 1 -2.61523,-3.65821 44.999999,44.999999 0 0 1 -2.23829,-3.90234 44.999999,44.999999 0 0 1 -1.83789,-4.10547 44.999999,44.999999 0 0 1 -1.41797,-4.26953 44.999999,44.999999 0 0 1 -0.0332,-0.15039 z"
         style="fill:url(#linearGradient6552);fill-opacity:1;stroke:none;stroke-width:0.48633054;stroke-miterlimit:4;stroke-dasharray:none;stroke-opacity:1;filter:url(#filter3580-78)"
         inkscape:connector-curvature="0" />
      <path
         transform="matrix(1.0281074,0,0,1.0281074,-62.765085,91.449911)"
         sodipodi:nodetypes="cccccccccccccccc"
         inkscape:connector-curvature="0"
         id="path6484"
         d="m 120.55163,161.65957 -12.76356,-3.41994 c -0.1299,0.45532 -0.2469,0.91421 -0.35088,1.37614 -0.16656,0.82125 -0.29195,1.65032 -0.37569,2.48409 -0.0837,0.83385 -0.12557,1.67137 -0.12557,2.50941 1e-5,0.59328 0.021,1.18638 0.063,1.77818 0.0593,0.83583 0.16037,1.66817 0.30282,2.4939 0.13582,0.77278 0.32632,1.57591 0.53379,2.33261 l 12.79722,-3.42869 c -0.10207,-0.36951 -0.22863,-0.77472 -0.29459,-1.15235 -0.0674,-0.39114 -0.11515,-0.78541 -0.14315,-1.18133 -0.0199,-0.28033 -0.0299,-0.56128 -0.03,-0.84232 -2e-5,-0.39693 0.0198,-0.79361 0.0594,-1.18856 0.0396,-0.39494 0.0989,-0.78766 0.17777,-1.17667 0.0448,-0.19605 0.0946,-0.39094 0.14934,-0.58447 z"
         style="fill:url(#linearGradient6560);fill-opacity:1;stroke:none;stroke-width:0.12867495;stroke-miterlimit:4;stroke-dasharray:none;stroke-opacity:1;filter:url(#filter3580-78)" />
      <path
         transform="matrix(0.27202007,0,0,0.27202007,-62.944889,124.70579)"
         id="path6482"
         d="m 467.68945,468.75 -35.33398,-35.33398 a 94.999997,94.999997 0 0 0 -5.01563,5.38281 94.999997,94.999997 0 0 0 -5.74609,7.56055 94.999997,94.999997 0 0 0 -4.96484,8.0957 94.999997,94.999997 0 0 0 -4.12891,8.55078 94.999997,94.999997 0 0 0 -3.25781,8.91992 94.999997,94.999997 0 0 0 -1.02149,4 l 48.24024,12.92578 a 44.999999,44.999999 0 0 1 0.54883,-2.15039 44.999999,44.999999 0 0 1 1.54296,-4.22461 44.999999,44.999999 0 0 1 1.95704,-4.05078 44.999999,44.999999 0 0 1 2.34961,-3.83398 44.999999,44.999999 0 0 1 2.72265,-3.58203 44.999999,44.999999 0 0 1 2.10742,-2.25977 z"
         style="fill:url(#linearGradient6568);fill-opacity:1;stroke:none;stroke-width:0.48633054;stroke-miterlimit:4;stroke-dasharray:none;stroke-opacity:1;filter:url(#filter3580-78)"
         inkscape:connector-curvature="0" />
      <path
         transform="matrix(0.27202007,0,0,0.27202007,-62.944889,124.70579)"
         id="path6480"
         d="m 487.45898,456.80859 -12.94531,-48.32031 a 94.999997,94.999997 0 0 0 -8.9375,2.96875 94.999997,94.999997 0 0 0 -8.66797,3.87891 94.999997,94.999997 0 0 0 -8.23632,4.72461 94.999997,94.999997 0 0 0 -7.72461,5.52343 94.999997,94.999997 0 0 0 -7.13477,6.26758 94.999997,94.999997 0 0 0 -1.45703,1.56446 L 467.68945,468.75 a 44.999999,44.999999 0 0 1 0.95899,-1.03125 44.999999,44.999999 0 0 1 3.3789,-2.96875 44.999999,44.999999 0 0 1 3.65821,-2.61523 44.999999,44.999999 0 0 1 3.90234,-2.23829 44.999999,44.999999 0 0 1 4.10547,-1.83789 44.999999,44.999999 0 0 1 3.76562,-1.25 z"
         style="fill:url(#linearGradient6576);fill-opacity:1;stroke:none;stroke-width:0.48633054;stroke-miterlimit:4;stroke-dasharray:none;stroke-opacity:1;filter:url(#filter3580-78)"
         inkscape:connector-curvature="0" />
      <path
         transform="matrix(0.27202007,0,0,0.27202007,-62.944889,124.70579)"
         id="path6478"
         d="m 523.58984,408.09766 a 94.999997,94.999997 0 0 0 -4.71679,-1.20313 94.999997,94.999997 0 0 0 -9.38867,-1.41992 A 94.999997,94.999997 0 0 0 500,405 a 94.999997,94.999997 0 0 0 -6.7207,0.23828 94.999997,94.999997 0 0 0 -9.42578,1.14453 94.999997,94.999997 0 0 0 -9.26563,2.08008 94.999997,94.999997 0 0 0 -0.0742,0.0254 L 487.459,456.8086 a 44.999999,44.999999 0 0 1 0.50391,-0.16797 44.999999,44.999999 0 0 1 4.38867,-0.98632 44.999999,44.999999 0 0 1 4.46485,-0.54102 A 44.999999,44.999999 0 0 1 500,455 a 44.999999,44.999999 0 0 1 4.49219,0.22461 44.999999,44.999999 0 0 1 4.44726,0.67187 44.999999,44.999999 0 0 1 1.72461,0.44141 z"
         style="fill:#ff0b0d;fill-opacity:1;stroke:none;stroke-width:0.48633054;stroke-miterlimit:4;stroke-dasharray:none;stroke-opacity:1;filter:url(#filter3580-78)"
         inkscape:connector-curvature="0" />
      <path
         transform="matrix(0.27202007,0,0,0.27202007,-62.944889,124.70579)"
         id="path6427"
         d="m 523.58984,408.09766 -12.92578,48.24023 a 44.999999,44.999999 0 0 1 2.63477,0.67188 44.999999,44.999999 0 0 1 4.22461,1.54296 44.999999,44.999999 0 0 1 4.05078,1.95508 44.999999,44.999999 0 0 1 3.83398,2.35157 44.999999,44.999999 0 0 1 3.58203,2.72265 44.999999,44.999999 0 0 1 2.12696,1.98242 l 35.33398,-35.33398 a 94.999997,94.999997 0 0 0 -5.25,-4.89063 94.999997,94.999997 0 0 0 -7.56055,-5.74609 94.999997,94.999997 0 0 0 -8.0957,-4.96484 94.999997,94.999997 0 0 0 -8.55078,-4.12891 94.999997,94.999997 0 0 0 -8.91992,-3.25781 94.999997,94.999997 0 0 0 -4.48438,-1.14453 z"
         style="fill:url(#linearGradient6506);fill-opacity:1;stroke:none;stroke-width:0.48633054;stroke-miterlimit:4;stroke-dasharray:none;stroke-opacity:1;filter:url(#filter3580-78)"
         inkscape:connector-curvature="0" />
      <path
         transform="matrix(0.27202007,0,0,0.27202007,-62.944889,124.70579)"
         id="path6475"
         d="m 591.56055,474.68945 9.55664,-2.56054 a 105,105 0 0 0 -27.55274,-47.01172 l -7.11328,7.11328 a 94.999997,94.999997 0 0 1 1.69727,1.58203 94.999997,94.999997 0 0 1 6.26758,7.13477 94.999997,94.999997 0 0 1 5.52343,7.72461 94.999997,94.999997 0 0 1 4.72461,8.23632 94.999997,94.999997 0 0 1 3.87891,8.66797 94.999997,94.999997 0 0 1 2.99414,9.01172 94.999997,94.999997 0 0 1 0.0234,0.10156 z"
         style="fill:url(#linearGradient6720);fill-opacity:1;stroke:none;stroke-width:0.48633054;stroke-miterlimit:4;stroke-dasharray:none;stroke-opacity:1;filter:url(#filter4905-0)"
         inkscape:connector-curvature="0" />
      <path
         transform="matrix(0.27202007,0,0,0.27202007,-62.944889,124.70579)"
         id="path6473"
         d="m 591.7793,524.07422 9.71093,2.60156 A 105,105 0 0 0 605,500 105,105 0 0 0 601.11719,472.12891 l -9.55664,2.56054 a 94.999997,94.999997 0 0 1 2.05664,9.16407 94.999997,94.999997 0 0 1 1.14453,9.42578 A 94.999997,94.999997 0 0 1 595,500 a 94.999997,94.999997 0 0 1 -0.47461,9.48438 94.999997,94.999997 0 0 1 -1.41992,9.38867 94.999997,94.999997 0 0 1 -1.32617,5.20117 z"
         style="fill:url(#linearGradient6718);fill-opacity:1;stroke:none;stroke-width:0.48633054;stroke-miterlimit:4;stroke-dasharray:none;stroke-opacity:1;filter:url(#filter4905-0)"
         inkscape:connector-curvature="0" />
      <path
         transform="matrix(0.27202007,0,0,0.27202007,-62.944889,124.70579)"
         id="path6471"
         d="m 567.30469,566.95117 7.07812,7.07813 a 105,105 0 0 0 27.10742,-47.35352 l -9.71093,-2.60156 a 94.999997,94.999997 0 0 1 -1.02149,4 94.999997,94.999997 0 0 1 -3.25781,8.91992 94.999997,94.999997 0 0 1 -4.12891,8.55078 94.999997,94.999997 0 0 1 -4.96484,8.0957 94.999997,94.999997 0 0 1 -5.74609,7.56055 94.999997,94.999997 0 0 1 -5.35547,5.75 z"
         style="fill:#fffb00;fill-opacity:1;stroke:none;stroke-width:0.48633054;stroke-miterlimit:4;stroke-dasharray:none;stroke-opacity:1;filter:url(#filter4905-0)"
         inkscape:connector-curvature="0" />
      <path
         transform="matrix(0.27202007,0,0,0.27202007,-62.944889,124.70579)"
         id="path6469"
         d="m 524.64258,591.70898 2.5664,9.57618 a 105,105 0 0 0 47.17383,-27.25586 l -7.07812,-7.07813 a 94.999997,94.999997 0 0 1 -1.11719,1.19727 94.999997,94.999997 0 0 1 -7.13477,6.26758 94.999997,94.999997 0 0 1 -7.72461,5.52343 94.999997,94.999997 0 0 1 -8.23632,4.72461 94.999997,94.999997 0 0 1 -8.66797,3.87891 94.999997,94.999997 0 0 1 -9.01172,2.99414 94.999997,94.999997 0 0 1 -0.76953,0.17187 z"
         style="fill:url(#linearGradient6714);fill-opacity:1;stroke:none;stroke-width:0.48633054;stroke-miterlimit:4;stroke-dasharray:none;stroke-opacity:1;filter:url(#filter4905-0)"
         inkscape:connector-curvature="0" />
      <path
         transform="matrix(0.27202007,0,0,0.27202007,-62.944889,124.70579)"
         id="path6467"
         d="m 475.44141,591.6543 -2.60547,9.72656 A 105,105 0 0 0 500,605 a 105,105 0 0 0 27.20898,-3.71484 l -2.5664,-9.57618 a 94.999997,94.999997 0 0 1 -8.4961,1.90821 94.999997,94.999997 0 0 1 -9.42578,1.14453 A 94.999997,94.999997 0 0 1 500,595 a 94.999997,94.999997 0 0 1 -9.48438,-0.47461 94.999997,94.999997 0 0 1 -9.38867,-1.41992 94.999997,94.999997 0 0 1 -5.68554,-1.45117 z"
         style="fill:url(#linearGradient6712);fill-opacity:1;stroke:none;stroke-width:0.48633054;stroke-miterlimit:4;stroke-dasharray:none;stroke-opacity:1;filter:url(#filter4905-0)"
         inkscape:connector-curvature="0" />
      <path
         transform="matrix(0.27202007,0,0,0.27202007,-62.944889,124.70579)"
         id="path6465"
         d="M 432.91602,567.17969 425.8457,574.25 a 105,105 0 0 0 46.99024,27.13086 l 2.60547,-9.72656 a 94.999997,94.999997 0 0 1 -3.51563,-0.89649 94.999997,94.999997 0 0 1 -8.91992,-3.25781 94.999997,94.999997 0 0 1 -8.55078,-4.12891 94.999997,94.999997 0 0 1 -8.0957,-4.96484 94.999997,94.999997 0 0 1 -7.56055,-5.74609 94.999997,94.999997 0 0 1 -5.88281,-5.48047 z"
         style="fill:url(#linearGradient6710);fill-opacity:1;stroke:none;stroke-width:0.48633054;stroke-miterlimit:4;stroke-dasharray:none;stroke-opacity:1;filter:url(#filter4905-0)"
         inkscape:connector-curvature="0" />
      <path
         transform="matrix(0.27202007,0,0,0.27202007,-62.944889,124.70579)"
         id="path6463"
         d="m 408.33008,524.82227 -9.57031,2.56445 A 105,105 0 0 0 425.8457,574.25 l 7.07032,-7.07031 a 94.999997,94.999997 0 0 1 -1.06446,-0.99219 94.999997,94.999997 0 0 1 -6.26758,-7.13477 94.999997,94.999997 0 0 1 -5.52343,-7.72461 94.999997,94.999997 0 0 1 -4.72461,-8.23632 94.999997,94.999997 0 0 1 -3.87891,-8.66797 94.999997,94.999997 0 0 1 -2.99414,-9.01172 94.999997,94.999997 0 0 1 -0.13281,-0.58984 z"
         style="fill:url(#linearGradient6708);fill-opacity:1;stroke:none;stroke-width:0.48633054;stroke-miterlimit:4;stroke-dasharray:none;stroke-opacity:1;filter:url(#filter4905-0)"
         inkscape:connector-curvature="0" />
      <path
         transform="matrix(0.27202007,0,0,0.27202007,-62.944889,124.70579)"
         id="path6461"
         d="m 408.2207,475.92578 -9.71093,-2.60156 A 105,105 0 0 0 395,500 a 105,105 0 0 0 3.75977,27.38672 l 9.57031,-2.56445 a 94.999997,94.999997 0 0 1 -1.94727,-8.67579 94.999997,94.999997 0 0 1 -1.14453,-9.42578 A 94.999997,94.999997 0 0 1 405,500 a 94.999997,94.999997 0 0 1 0.47461,-9.48438 94.999997,94.999997 0 0 1 1.41992,-9.38867 94.999997,94.999997 0 0 1 1.32617,-5.20117 z"
         style="fill:url(#linearGradient6706);fill-opacity:1;stroke:none;stroke-width:0.48633054;stroke-miterlimit:4;stroke-dasharray:none;stroke-opacity:1;filter:url(#filter4905-0)"
         inkscape:connector-curvature="0" />
      <path
         transform="matrix(0.27202007,0,0,0.27202007,-62.944889,124.70579)"
         id="path6459"
         d="m 432.35547,433.41602 -7.10352,-7.10352 a 105,105 0 0 0 -26.74218,47.01172 l 9.71093,2.60156 a 94.999997,94.999997 0 0 1 1.02149,-4 94.999997,94.999997 0 0 1 3.25781,-8.91992 94.999997,94.999997 0 0 1 4.12891,-8.55078 94.999997,94.999997 0 0 1 4.96484,-8.0957 94.999997,94.999997 0 0 1 5.74609,-7.56055 94.999997,94.999997 0 0 1 5.01563,-5.38281 z"
         style="fill:url(#linearGradient6704);fill-opacity:1;stroke:none;stroke-width:0.48633054;stroke-miterlimit:4;stroke-dasharray:none;stroke-opacity:1;filter:url(#filter4905-0)"
         inkscape:connector-curvature="0" />
      <path
         transform="matrix(0.27202007,0,0,0.27202007,-62.944889,124.70579)"
         id="path6457"
         d="m 474.51367,408.48828 -2.5625,-9.56055 a 105,105 0 0 0 -46.69922,27.38477 l 7.10352,7.10352 a 94.999997,94.999997 0 0 1 1.45703,-1.56446 94.999997,94.999997 0 0 1 7.13477,-6.26758 94.999997,94.999997 0 0 1 7.72461,-5.52343 94.999997,94.999997 0 0 1 8.23632,-4.72461 94.999997,94.999997 0 0 1 8.66797,-3.87891 94.999997,94.999997 0 0 1 8.9375,-2.96875 z"
         style="fill:url(#linearGradient6702);fill-opacity:1;stroke:none;stroke-width:0.48633054;stroke-miterlimit:4;stroke-dasharray:none;stroke-opacity:1;filter:url(#filter4905-0)"
         inkscape:connector-curvature="0" />
      <path
         transform="matrix(0.27202007,0,0,0.27202007,-62.944889,124.70579)"
         id="path6455"
         d="M 526.1875,398.40039 A 105,105 0 0 0 500,395 a 105,105 0 0 0 -28.04883,3.92773 l 2.5625,9.56055 a 94.999997,94.999997 0 0 1 0.0742,-0.0254 94.999997,94.999997 0 0 1 9.26563,-2.08008 94.999997,94.999997 0 0 1 9.42578,-1.14453 A 94.999997,94.999997 0 0 1 500,405 a 94.999997,94.999997 0 0 1 9.48438,0.47461 94.999997,94.999997 0 0 1 9.38867,1.41992 94.999997,94.999997 0 0 1 4.71679,1.20313 z"
         style="fill:#ff0b0d;fill-opacity:1;stroke:none;stroke-width:0.48633054;stroke-miterlimit:4;stroke-dasharray:none;stroke-opacity:1;filter:url(#filter4905-0)"
         inkscape:connector-curvature="0" />
      <path
         transform="matrix(0.27202007,0,0,0.27202007,-62.944889,124.70579)"
         id="path6388"
         d="m 526.1875,398.40039 -2.59766,9.69727 a 94.999997,94.999997 0 0 1 4.48438,1.14453 94.999997,94.999997 0 0 1 8.91992,3.25781 94.999997,94.999997 0 0 1 8.55078,4.12891 94.999997,94.999997 0 0 1 8.0957,4.96484 94.999997,94.999997 0 0 1 7.56055,5.74609 94.999997,94.999997 0 0 1 5.25,4.89063 l 7.11328,-7.11328 a 105,105 0 0 0 -47.37695,-26.7168 z"
         style="fill:url(#linearGradient6698);fill-opacity:1;stroke:none;stroke-width:0.48633054;stroke-miterlimit:4;stroke-dasharray:none;stroke-opacity:1;filter:url(#filter4905-0)"
         inkscape:connector-curvature="0" />
      <path
         transform="matrix(0.27181121,0,0,0.27181121,36.997416,216.05244)"
         sodipodi:nodetypes="sssss"
         inkscape:connector-curvature="0"
         id="path8371"
         d="m 132.29165,59.401511 c -58.159346,0 -105.306798,47.147459 -105.306782,105.306819 4e-6,58.15933 47.147452,105.30679 105.306782,105.30679 58.15933,0 105.30677,-47.14746 105.30678,-105.30679 1e-5,-58.15936 -47.14744,-105.306819 -105.30678,-105.306819 z"
         style="fill:none;fill-opacity:1;stroke:#000000;stroke-width:0.97340848;stroke-miterlimit:4;stroke-dasharray:none;stroke-opacity:1;opacity:0.7" />
      <path
         transform="matrix(0.27181121,0,0,0.27181121,36.997416,216.05244)"
         style="fill:none;fill-opacity:1;stroke:#000000;stroke-width:0.97340848;stroke-miterlimit:4;stroke-dasharray:none;stroke-opacity:0.93150689;opacity:0.7"
         d="m 132.51082,119.61863 c -24.71711,0 -44.754267,20.03716 -44.75426,44.75428 2e-6,24.71711 20.03715,44.75427 44.75426,44.75427 24.71711,0 44.75428,-20.03716 44.75429,-44.75427 0,-24.71712 -20.03717,-44.75428 -44.75429,-44.75428 z"
         id="path8773"
         inkscape:connector-curvature="0"
         sodipodi:nodetypes="sssss" />
    </g>
    <g
       aria-label="5"
       transform="matrix(0.24127119,0,0.01264448,0.24127122,-4.8837849,265.42414)"
       style="font-style:normal;font-variant:normal;font-weight:bold;font-stretch:normal;line-height:0%;font-family:'Eras Bold ITC';-inkscape-font-specification:'Eras Bold ITC Bold';letter-spacing:0px;word-spacing:0px;fill:#ffffff;fill-opacity:1;stroke:none;stroke-width:1px;stroke-linecap:butt;stroke-linejoin:miter;stroke-opacity:1;filter:url(#filter4749);enable-background:new"
       id="text3689" />
    <g
       aria-label="Therapee"
       transform="matrix(0.24732122,0,0,0.24687704,-5.5339446,264.55152)"
       style="font-style:normal;font-variant:normal;font-weight:normal;font-stretch:normal;line-height:0%;font-family:'Eras Medium ITC';-inkscape-font-specification:'Eras Medium ITC';letter-spacing:1px;word-spacing:0px;fill:#ffffff;fill-opacity:1;stroke:none;stroke-width:1.07075834px;stroke-linecap:butt;stroke-linejoin:miter;stroke-opacity:1;filter:url(#filter4749);enable-background:new"
       id="text3659">
      <path
         d="m 256.12553,-157.9659 0.78125,-11.95312 1.05469,-24.76562 0.35156,-11.44531 q -9.57031,0.0391 -16.75781,0.35156 0.23438,-3.125 0.27344,-5.50781 9.92187,0.0391 21.40625,0.0391 l 12.5,-0.0391 h 6.64062 q -0.27344,3.4375 -0.27344,5.46875 -6.05468,-0.35157 -13.39843,-0.35157 h -3.20313 l -0.82031,17.30469 -0.82031,24.375 v 6.52343 l -3.75,-0.0781 q -0.50782,0 -3.98438,0.0781 z"
         style="font-style:normal;font-variant:normal;font-weight:normal;font-stretch:normal;font-size:79.99999237px;line-height:1.25;font-family:'Eras Medium ITC';-inkscape-font-specification:'Eras Medium ITC';letter-spacing:0.99999994px;stroke-width:1.07075834px"
         id="path670" />
      <path
         d="m 287.32084,-157.9659 0.97656,-16.99218 0.89844,-23.16406 0.23438,-13.16406 3.55468,0.0391 q 1.32813,0 3.47657,-0.0391 l -0.85938,13.55468 -0.3125,8.08594 q 0.9375,-1.67969 1.60156,-2.65625 0.70313,-1.01563 1.75782,-1.99219 1.09375,-1.01562 2.26562,-1.71875 1.17188,-0.70312 2.61719,-1.21094 1.44531,-0.54687 3.47656,-0.89843 2.03125,-0.35157 4.25781,-0.35157 3.32031,0 6.32813,0.74219 3.04687,0.74219 5.19531,2.46094 2.1875,1.71875 2.96875,4.10156 0.82031,2.38281 0.82031,4.84375 0,0.97656 -0.0391,2.57813 -0.11719,2.42187 -0.3125,5.66406 l -0.66406,14.375 q -0.11719,2.34375 -0.15625,5.74218 -2.26563,-0.0781 -3.47657,-0.0781 -1.32812,0 -3.71093,0.0781 0.42968,-4.21875 0.97656,-13.28125 0.58594,-9.06249 0.58594,-12.57812 0,-3.125 -1.13282,-5.15625 -1.13281,-2.07031 -3.75,-3.16406 -2.61718,-1.09375 -5.82031,-1.09375 -2.92968,0 -5.46875,0.89844 -2.30468,0.82031 -3.94531,2.30468 -1.60156,1.48438 -2.57812,3.63282 -1.05469,2.30468 -1.48438,4.64843 -0.66406,3.71094 -0.9375,10.3125 -0.15625,3.94531 -0.42969,13.47656 -2.1875,-0.0781 -3.28125,-0.0781 -1.01562,0 -3.63281,0.0781 z"
         style="font-style:normal;font-variant:normal;font-weight:normal;font-stretch:normal;font-size:79.99999237px;line-height:1.25;font-family:'Eras Medium ITC';-inkscape-font-specification:'Eras Medium ITC';letter-spacing:0.99999994px;stroke-width:1.07075834px"
         id="path672" />
      <path
         d="m 369.10209,-164.17683 q -0.46875,2.14843 -0.9375,5.46875 -3.75,0.9375 -6.52344,1.25 -2.73438,0.35156 -5.46875,0.35156 -4.88281,0 -8.78906,-1.17188 -3.86719,-1.17187 -6.64063,-4.0625 -2.77343,-2.92968 -3.98437,-6.67968 -1.21094,-3.75 -1.21094,-7.92969 0,-5.82031 2.22656,-10.78125 2.22657,-5 6.67969,-7.85156 4.49219,-2.85156 11.36719,-2.85156 3.55468,0 6.79687,1.05468 3.24219,1.01563 5.39063,3.125 2.14843,2.10938 3.32031,5.23438 1.17187,3.08594 1.17187,6.75781 0,1.40625 -0.23437,2.73438 h -29.80469 q -0.15625,2.14843 -0.15625,3.28125 0,4.10156 1.71875,7.57812 1.71875,3.4375 5.07813,5.23437 3.35937,1.75782 7.73437,1.75782 5.03906,0 12.26563,-2.5 z m -26.32813,-18.59375 h 23.28125 q -0.0391,-2.46094 -0.3125,-3.82813 -0.27344,-1.36718 -1.01562,-2.8125 -0.74219,-1.48437 -2.03125,-2.53906 -1.25,-1.09375 -3.04688,-1.64062 -1.75781,-0.58594 -3.82812,-0.58594 -2.22657,0 -4.25782,0.625 -1.99218,0.625 -3.55468,1.71875 -1.52344,1.09375 -2.61719,2.57812 -1.05469,1.44532 -1.60156,2.8125 -0.50781,1.36719 -1.01563,3.67188 z"
         style="font-style:normal;font-variant:normal;font-weight:normal;font-stretch:normal;font-size:79.99999237px;line-height:1.25;font-family:'Eras Medium ITC';-inkscape-font-specification:'Eras Medium ITC';letter-spacing:0.99999994px;stroke-width:1.07075834px"
         id="path674" />
      <path
         d="m 380.10208,-157.9659 q 1.40625,-22.53906 1.40625,-35.97656 l -0.0391,-3.59375 q 1.99219,0.0391 3.28125,0.0391 1.48437,0 3.32031,-0.0391 l -0.3125,6.48438 q 1.44531,-2.42188 2.53906,-3.63281 1.13281,-1.25 2.53906,-2.03125 1.40625,-0.82032 3.16407,-1.25 1.79687,-0.46875 3.71093,-0.46875 1.64063,0 3.24219,0.39062 0.0391,2.57813 0.27344,5.78125 -2.42188,-0.66406 -4.33594,-0.66406 -2.30469,0 -4.14062,0.78125 -1.83594,0.74219 -3.32032,2.30469 -1.44531,1.52343 -2.38281,3.67187 -0.78125,1.71875 -1.21093,4.45313 -0.39063,2.73437 -0.625,9.96093 -0.15625,5.27344 -0.15625,11.17188 v 2.61718 q -2.10938,-0.0781 -3.39844,-0.0781 -1.17188,0 -3.55469,0.0781 z"
         style="font-style:normal;font-variant:normal;font-weight:normal;font-stretch:normal;font-size:79.99999237px;line-height:1.25;font-family:'Eras Medium ITC';-inkscape-font-specification:'Eras Medium ITC';letter-spacing:0.99999994px;stroke-width:1.07075834px"
         id="path676" />
      <path
         d="m 411.68802,-191.24714 q 0.35156,-1.71875 0.74219,-5.07813 4.6875,-1.21094 8.12499,-1.64062 3.47657,-0.46875 6.75782,-0.46875 3.51562,0 6.5625,0.66406 3.08593,0.625 5.11718,2.07031 2.03125,1.44531 2.69532,3.32031 0.66406,1.875 0.66406,4.02344 0,2.69531 -0.42969,9.0625 -0.39062,6.32812 -0.625,11.71875 -0.19531,5.39062 -0.19531,9.60937 -2.10938,-0.0781 -3.4375,-0.0781 -1.25,0 -3.55469,0.0781 l 0.82031,-10.66406 0.58594,-12.61718 q -1.36719,1.05468 -2.07031,1.48437 -0.66406,0.42969 -1.52344,0.82031 -0.85937,0.35157 -1.91406,0.70313 -1.01563,0.3125 -4.02344,1.13281 -2.96875,0.82031 -4.21875,1.25 -2.69531,0.85938 -4.25781,1.71875 -1.5625,0.85937 -2.61719,1.875 -1.05468,1.01562 -1.48437,2.03125 -0.50781,1.25 -0.50781,2.61719 0,2.10937 1.25,3.67187 1.25,1.5625 3.125,2.1875 1.91406,0.58594 4.57031,0.58594 1.64062,0 3.4375,-0.23438 1.79687,-0.23437 4.80468,-1.21093 -0.54687,1.52343 -1.25,4.6875 -2.85156,0.54687 -4.64843,0.66406 -1.79688,0.15625 -3.39844,0.15625 -5.35156,0 -8.35937,-1.25 -3.00782,-1.25 -4.49219,-3.78906 -1.48438,-2.57813 -1.48438,-5.58594 0,-1.75781 0.50782,-3.24219 0.54687,-1.48437 1.44531,-2.69531 0.89844,-1.21094 2.53906,-2.42187 1.67969,-1.21094 3.47656,-1.99219 1.83594,-0.78125 4.25781,-1.52344 2.42188,-0.78125 7.77344,-2.07031 1.71875,-0.39063 2.92969,-0.78125 1.21094,-0.42969 2.14844,-0.82031 0.9375,-0.39063 1.64062,-0.89844 0.70313,-0.54688 1.28906,-1.28906 0.58594,-0.78125 0.85938,-1.5625 0.27344,-0.78125 0.27344,-1.5625 0,-1.91407 -1.25,-3.28125 -1.25,-1.36719 -3.28125,-1.91407 -1.99219,-0.54687 -4.72657,-0.54687 -2.53906,0 -5.23437,0.42969 -2.65625,0.39062 -4.60937,0.97656 -1.91407,0.54687 -4.80469,1.67969 z"
         style="font-style:normal;font-variant:normal;font-weight:normal;font-stretch:normal;font-size:79.99999237px;line-height:1.25;font-family:'Eras Medium ITC';-inkscape-font-specification:'Eras Medium ITC';letter-spacing:0.99999994px;stroke-width:1.07075834px"
         id="path678" />
      <path
         d="m 451.86771,-140.30965 q 0.78125,-10.07812 1.44531,-27.42187 0.70312,-17.34375 0.78125,-28.35937 6.40625,-1.36719 10.23437,-1.83594 3.86719,-0.50781 7.73438,-0.50781 6.09375,0 10.58593,1.95312 4.49219,1.91406 6.99219,6.79688 2.5,4.84375 2.5,10.97656 0,4.25781 -1.17188,8.24218 -1.17187,3.94532 -3.59374,7.07032 -2.38282,3.125 -5.78125,4.72656 -3.39844,1.5625 -7.57813,1.5625 -2.5,0 -4.80469,-0.625 -2.30468,-0.58594 -4.02343,-1.5625 -1.67969,-0.97656 -2.85157,-2.1875 -1.13281,-1.21094 -2.77343,-3.63281 l -0.46875,15.46875 q -0.15625,3.78906 -0.15625,5.46874 v 3.86719 q -1.99219,-0.0781 -3.47656,-0.0781 -1.36719,0 -3.59375,0.0781 z m 8.94531,-51.13281 -0.27344,2.96875 -0.19531,4.0625 q -0.15625,3.20313 -0.23438,5.23438 -0.0781,1.99219 -0.0781,2.8125 0,2.89062 0.58594,5.46875 0.625,2.57812 2.42187,4.72656 1.83594,2.10937 4.29687,3.20312 2.46094,1.09375 5.07813,1.09375 3.67187,0 6.64062,-2.03125 3.00782,-2.03125 4.6875,-6.05468 1.67969,-4.02344 1.67969,-8.78906 0,-4.80469 -1.75781,-8.28125 -1.75781,-3.47657 -4.72656,-5 -2.96875,-1.5625 -6.71875,-1.5625 -5.35157,0 -11.40625,2.14843 z"
         style="font-style:normal;font-variant:normal;font-weight:normal;font-stretch:normal;font-size:79.99999237px;line-height:1.25;font-family:'Eras Medium ITC';-inkscape-font-specification:'Eras Medium ITC';letter-spacing:0.99999994px;stroke-width:1.07075834px"
         id="path680" />
      <path
         d="m 533.25831,-164.17683 q -0.46875,2.14843 -0.9375,5.46875 -3.75,0.9375 -6.52343,1.25 -2.73438,0.35156 -5.46875,0.35156 -4.88282,0 -8.78907,-1.17188 -3.86718,-1.17187 -6.64062,-4.0625 -2.77344,-2.92968 -3.98437,-6.67968 -1.21094,-3.75 -1.21094,-7.92969 0,-5.82031 2.22656,-10.78125 2.22656,-5 6.67969,-7.85156 4.49218,-2.85156 11.36718,-2.85156 3.55469,0 6.79688,1.05468 3.24219,1.01563 5.39062,3.125 2.14844,2.10938 3.32031,5.23438 1.17188,3.08594 1.17188,6.75781 0,1.40625 -0.23438,2.73438 h -29.80468 q -0.15625,2.14843 -0.15625,3.28125 0,4.10156 1.71875,7.57812 1.71875,3.4375 5.07812,5.23437 3.35938,1.75782 7.73438,1.75782 5.03906,0 12.26562,-2.5 z m -26.32812,-18.59375 h 23.28125 q -0.0391,-2.46094 -0.3125,-3.82813 -0.27344,-1.36718 -1.01563,-2.8125 -0.74218,-1.48437 -2.03125,-2.53906 -1.25,-1.09375 -3.04687,-1.64062 -1.75781,-0.58594 -3.82813,-0.58594 -2.22656,0 -4.25781,0.625 -1.99219,0.625 -3.55469,1.71875 -1.52343,1.09375 -2.61718,2.57812 -1.05469,1.44532 -1.60157,2.8125 -0.50781,1.36719 -1.01562,3.67188 z"
         style="font-style:normal;font-variant:normal;font-weight:normal;font-stretch:normal;font-size:79.99999237px;line-height:1.25;font-family:'Eras Medium ITC';-inkscape-font-specification:'Eras Medium ITC';letter-spacing:0.99999994px;stroke-width:1.07075834px"
         id="path682" />
      <path
         d="m 576.75831,-164.17683 q -0.46875,2.14843 -0.9375,5.46875 -3.75,0.9375 -6.52343,1.25 -2.73438,0.35156 -5.46875,0.35156 -4.88282,0 -8.78907,-1.17188 -3.86718,-1.17187 -6.64062,-4.0625 -2.77344,-2.92968 -3.98437,-6.67968 -1.21094,-3.75 -1.21094,-7.92969 0,-5.82031 2.22656,-10.78125 2.22656,-5 6.67969,-7.85156 4.49218,-2.85156 11.36718,-2.85156 3.55469,0 6.79688,1.05468 3.24219,1.01563 5.39062,3.125 2.14844,2.10938 3.32031,5.23438 1.17188,3.08594 1.17188,6.75781 0,1.40625 -0.23438,2.73438 h -29.80468 q -0.15625,2.14843 -0.15625,3.28125 0,4.10156 1.71875,7.57812 1.71875,3.4375 5.07812,5.23437 3.35938,1.75782 7.73438,1.75782 5.03906,0 12.26562,-2.5 z m -26.32812,-18.59375 h 23.28125 q -0.0391,-2.46094 -0.3125,-3.82813 -0.27344,-1.36718 -1.01563,-2.8125 -0.74218,-1.48437 -2.03125,-2.53906 -1.25,-1.09375 -3.04687,-1.64062 -1.75781,-0.58594 -3.82813,-0.58594 -2.22656,0 -4.25781,0.625 -1.99219,0.625 -3.55469,1.71875 -1.52343,1.09375 -2.61718,2.57812 -1.05469,1.44532 -1.60157,2.8125 -0.50781,1.36719 -1.01562,3.67188 z"
         style="font-style:normal;font-variant:normal;font-weight:normal;font-stretch:normal;font-size:79.99999237px;line-height:1.25;font-family:'Eras Medium ITC';-inkscape-font-specification:'Eras Medium ITC';letter-spacing:0.99999994px;stroke-width:1.07075834px"
         id="path684" />
    </g>
    <g
       aria-label="Raw"
       transform="matrix(0.24020317,0,0,0.23782112,-7.1514703,262.84505)"
       style="font-style:normal;font-variant:normal;font-weight:normal;font-stretch:normal;line-height:0%;font-family:'Eras Ultra ITC';-inkscape-font-specification:'Eras Ultra ITC';letter-spacing:0px;word-spacing:0px;fill:#ffffff;fill-opacity:1;stroke:none;stroke-width:1.08272994px;stroke-linecap:butt;stroke-linejoin:miter;stroke-opacity:1;filter:url(#filter4749);enable-background:new"
       id="text3655">
      <path
         d="m 65.040005,-157.9659 q 1.158206,-10.38391 1.637464,-16.81395 0.479257,-6.43004 0.798762,-17.13346 0.319505,-10.74336 0.319505,-20.56814 5.032206,0.15975 8.107442,0.15975 3.354804,0 8.5867,-0.19969 5.231896,-0.23963 10.383915,-0.23963 6.230347,0 10.024477,0.3195 3.79412,0.27957 6.54985,1.19815 2.79567,0.91858 4.55295,2.1966 1.75728,1.23808 2.95542,2.95542 1.23808,1.6774 1.91703,3.91394 0.71889,2.23653 0.71889,4.83251 0,5.63128 -2.83561,9.66503 -2.79567,3.99381 -7.98763,6.35016 l 3.95388,11.622 4.15356,11.74181 q -8.22725,-0.11981 -10.78329,-0.11981 -3.31487,0 -11.542125,0.11981 -0.718886,-2.95542 -1.517649,-6.58979 -0.798763,-3.67431 -1.71734,-7.38855 l -2.036845,-8.22726 q -1.118268,-4.47307 -2.276474,-8.70651 1.797216,0.3195 3.514556,0.3195 2.675855,0 4.632824,-0.63901 1.996907,-0.67895 2.995363,-2.07678 1.03839,-1.43778 1.03839,-3.0353 0,-1.15821 -0.55914,-2.07678 -0.55913,-0.91858 -1.437768,-1.3579 -0.838701,-0.47926 -2.196597,-0.71889 -1.357897,-0.27956 -4.912391,-0.27956 -1.198144,0 -1.956969,0.0399 l -2.79567,0.15976 q -0.479257,6.58979 -0.8387,16.135 -0.479258,13.53903 -0.599073,24.44214 -8.387008,-0.11981 -10.623544,-0.11981 -2.635917,0 -10.224163,0.11981 z"
         style="font-style:normal;font-variant:normal;font-weight:normal;font-stretch:normal;font-size:81.79330444px;line-height:1.25;font-family:'Eras Ultra ITC';-inkscape-font-specification:'Eras Ultra ITC';letter-spacing:-3.06724882px;word-spacing:0px;stroke-width:1.08272994px"
         id="path663" />
      <path
         d="m 127.9905,-185.16377 0.87864,-4.95233 q 0.19969,-0.99845 0.47925,-3.19505 l 0.59908,-3.95387 q 6.7096,-1.39784 12.10125,-2.03685 5.43159,-0.63901 9.38546,-0.63901 4.87246,0 8.94615,1.07833 4.11363,1.07833 6.43004,3.51456 2.31641,2.39629 2.31641,6.98917 v 1.07833 q -0.0799,1.6774 -0.31951,4.95233 l -0.47925,6.66967 q -0.19969,2.55604 -0.35945,6.46998 l -0.43932,11.22261 q -4.79257,-0.11981 -9.54521,-0.11981 -4.59289,0 -9.82478,0.11981 l 0.19969,-1.83715 q 0.11981,-0.79876 0.15975,-1.71734 l 0.79876,-12.30095 q -1.95697,0.55914 -4.07369,1.23809 -2.11672,0.63901 -2.8356,1.19814 -0.67895,0.5192 -0.95852,1.03839 -0.23963,0.47926 -0.23963,0.99845 0,0.83871 0.59907,1.39784 0.63901,0.55913 1.95697,0.55913 0.63901,0 1.15821,-0.0799 0.55913,-0.11982 1.63746,-0.47926 -1.43777,3.75418 -3.3548,10.62354 -3.15511,0.43932 -5.67122,0.43932 -5.0322,0 -8.42694,-1.47771 -3.39475,-1.51765 -5.27184,-4.43313 -1.87709,-2.91549 -1.87709,-6.27029 0,-1.75728 0.51919,-3.47462 0.55914,-1.71734 1.59753,-3.23499 1.03839,-1.55758 2.47616,-2.79567 1.43778,-1.27802 3.75419,-2.31641 2.31641,-1.03839 5.03221,-1.71734 2.71579,-0.67895 5.0322,-1.11826 2.35635,-0.43932 3.874,-0.71889 1.51765,-0.31951 2.31641,-0.5192 0.8387,-0.23963 1.39784,-0.59907 0.59907,-0.35944 0.79876,-0.79876 0.19969,-0.43932 0.19969,-0.91858 0,-1.03839 -0.87864,-1.51765 -0.8387,-0.51919 -2.43623,-0.51919 -6.50991,0 -17.65265,4.15356 z"
         style="font-style:normal;font-variant:normal;font-weight:normal;font-stretch:normal;font-size:81.79330444px;line-height:1.25;font-family:'Eras Ultra ITC';-inkscape-font-specification:'Eras Ultra ITC';letter-spacing:-3.06724882px;word-spacing:0px;stroke-width:1.08272994px"
         id="path665" />
      <path
         d="m 183.39268,-157.9659 -7.2288,-23.32387 q -1.51765,-4.83251 -2.83561,-8.70651 -1.31795,-3.91394 -3.11517,-8.86627 4.83251,0.11982 9.66503,0.11982 4.55295,0 8.66657,-0.11982 1.19815,4.31332 2.15666,9.06596 0.99846,4.7127 2.35635,12.26101 2.23654,-8.06751 6.66967,-21.32697 4.7127,0.11982 9.62509,0.11982 5.19196,0 9.18578,-0.11982 3.23498,13.13965 4.67276,21.32697 0.99845,-3.67431 2.67585,-9.46534 l 2.15666,-7.34862 q 0.43932,-1.55759 1.43777,-4.51301 4.83252,0.11982 8.90621,0.11982 3.47462,0 9.30559,-0.11982 l -14.89693,35.58488 -2.11672,5.31177 q -4.3932,-0.11981 -8.42695,-0.11981 -4.59288,0 -9.90466,0.11981 -1.63746,-6.90929 -2.55604,-11.18267 -0.87864,-4.31332 -1.71734,-9.22571 -0.87864,2.75573 -2.75573,8.34707 l -2.5161,7.26874 q -0.55913,1.71734 -1.79722,4.79257 -4.47307,-0.11981 -8.14738,-0.11981 -4.35325,0 -9.46534,0.11981 z"
         style="font-style:normal;font-variant:normal;font-weight:normal;font-stretch:normal;font-size:81.79330444px;line-height:1.25;font-family:'Eras Ultra ITC';-inkscape-font-specification:'Eras Ultra ITC';letter-spacing:-3.06724882px;word-spacing:0px;stroke-width:1.08272994px"
         id="path667" />
    </g>
    <rect
       style="fill:#2a2a2a;fill-opacity:1;fill-rule:nonzero;stroke:none;stroke-width:0.26458338;enable-background:new"
       id="rect573"
       width="146.05"
       height="91.545853"
       x="-206.37505"
       y="205.45415" />
    <text
       id="text577"
       y="290.34174"
       x="-198.68759"
       style="font-style:normal;font-variant:normal;font-weight:normal;font-stretch:normal;font-size:3.17500019px;line-height:0%;font-family:'Eras Bold ITC';-inkscape-font-specification:'Eras Bold ITC';letter-spacing:0px;word-spacing:0px;fill:#ffffff;fill-opacity:1;stroke:none;stroke-width:0.26458338px;stroke-linecap:butt;stroke-linejoin:miter;stroke-opacity:1;enable-background:new"
       xml:space="preserve"><tspan
         style="font-style:normal;font-variant:normal;font-weight:normal;font-stretch:normal;font-size:3.96875px;line-height:1.25;font-family:'Eras Medium ITC';-inkscape-font-specification:'Eras Medium ITC';stroke-width:0.26458338px"
         y="290.34174"
         x="-198.68759"
         id="tspan575"
         sodipodi:role="line">GNU GPLv3</tspan></text>
    <g
       id="g583"
       transform="matrix(0.24804687,0,0,0.2480469,-223.00781,273.1232)"
       style="fill:#ffffff;enable-background:new">
      <text
         xml:space="preserve"
         style="font-style:normal;font-weight:normal;font-size:12.80000019px;line-height:0%;font-family:sans-serif;text-align:end;letter-spacing:-1.06666672px;word-spacing:0px;text-anchor:end;fill:#ffffff;fill-opacity:1;stroke:none;stroke-width:1.06666672px;stroke-linecap:butt;stroke-linejoin:miter;stroke-opacity:1"
         x="596.36224"
         y="49.720543"
         id="text581"
         transform="skewX(3)"><tspan
           id="tspan579"
           sodipodi:role="line"
           x="595.29559"
           y="49.720543"
           style="font-style:normal;font-variant:normal;font-weight:bold;font-stretch:normal;font-size:17.06666565px;line-height:110.00000238%;font-family:'Eras Bold ITC';-inkscape-font-specification:'Eras Bold ITC Bold';text-align:end;letter-spacing:-1.06666672px;text-anchor:end;fill:#ffffff;stroke-width:1.06666672px">Development</tspan></text>
    </g>
    <g
       style="fill:#ffffff;enable-background:new"
       transform="matrix(0.24804687,0,0,0.2480469,-253.03664,273.10678)"
       id="g589">
      <text
         transform="skewX(3)"
         id="text587"
         y="49.720543"
         x="596.36224"
         style="font-style:normal;font-weight:normal;font-size:12.80000019px;line-height:0%;font-family:sans-serif;text-align:end;letter-spacing:-1.06666672px;word-spacing:0px;text-anchor:end;fill:#ffffff;fill-opacity:1;stroke:none;stroke-width:1.06666672px;stroke-linecap:butt;stroke-linejoin:miter;stroke-opacity:1"
         xml:space="preserve"><tspan
           style="font-style:normal;font-variant:normal;font-weight:bold;font-stretch:normal;font-size:17.06666565px;line-height:110.00000238%;font-family:'Eras Bold ITC';-inkscape-font-specification:'Eras Bold ITC Bold';text-align:end;letter-spacing:-1.06666672px;text-anchor:end;fill:#ffffff;stroke-width:1.06666672px"
           y="49.720543"
           x="595.29559"
           sodipodi:role="line"
           id="tspan585">Release Candidate 1</tspan></text>
    </g>
    <text
       transform="matrix(0.24127119,0,0.01264448,0.24127122,-211.25886,265.42414)"
       id="text593"
       y="2.2370076"
       x="283.85016"
       style="font-style:normal;font-variant:normal;font-weight:bold;font-stretch:normal;line-height:0%;font-family:'Eras Bold ITC';-inkscape-font-specification:'Eras Bold ITC Bold';letter-spacing:0px;word-spacing:0px;fill:#ffffff;fill-opacity:1;stroke:none;stroke-width:1px;stroke-linecap:butt;stroke-linejoin:miter;stroke-opacity:1;filter:url(#filter4749);enable-background:new"
       xml:space="preserve"><tspan
         style="font-style:normal;font-variant:normal;font-weight:bold;font-stretch:normal;font-size:80px;line-height:1.25;font-family:'Eras Bold ITC';-inkscape-font-specification:'Eras Bold ITC Bold'"
         y="2.2370076"
         x="283.85016"
         id="tspan591"
         sodipodi:role="line">5</tspan></text>
    <text
       xml:space="preserve"
       style="font-style:normal;font-variant:normal;font-weight:bold;font-stretch:normal;line-height:0%;font-family:'Eras Bold ITC';-inkscape-font-specification:'Eras Bold ITC Bold';letter-spacing:-7.09514618px;word-spacing:0px;fill:#ffffff;fill-opacity:1;stroke:none;stroke-width:1px;stroke-linecap:butt;stroke-linejoin:miter;stroke-opacity:1;filter:url(#filter4749);enable-background:new"
       x="283.85016"
       y="2.2370076"
       id="text597"
       transform="matrix(0.24127119,0,0.01264448,0.24127122,-202.18244,267.35338)"><tspan
         sodipodi:role="line"
         id="tspan595"
         x="283.85016"
         y="2.2370076"
         style="font-style:normal;font-variant:normal;font-weight:bold;font-stretch:normal;font-size:49.34799576px;line-height:1.25;font-family:'Eras Bold ITC';-inkscape-font-specification:'Eras Bold ITC Bold';letter-spacing:-7.09514618px">. 9</tspan></text>
    <text
       xml:space="preserve"
       style="font-style:normal;font-variant:normal;font-weight:normal;font-stretch:normal;line-height:0%;font-family:'Eras Medium ITC';-inkscape-font-specification:'Eras Medium ITC';letter-spacing:1px;word-spacing:0px;fill:#000000;fill-opacity:1;stroke:none;stroke-width:1.07075834px;stroke-linecap:butt;stroke-linejoin:miter;stroke-opacity:1;filter:url(#filter155);enable-background:new"
       x="239.99272"
       y="-157.9659"
       id="text601"
       transform="matrix(0.24732122,0,0,0.24687704,-211.90902,227.50983)"><tspan
         sodipodi:role="line"
         id="tspan599"
         x="239.99272"
         y="-157.9659"
         style="font-style:normal;font-variant:normal;font-weight:normal;font-stretch:normal;font-size:79.99999237px;line-height:1.25;font-family:'Eras Medium ITC';-inkscape-font-specification:'Eras Medium ITC';letter-spacing:0.99999994px;fill:#000000;stroke-width:1.07075834px">Therapee</tspan></text>
    <text
       xml:space="preserve"
       style="font-style:normal;font-variant:normal;font-weight:normal;font-stretch:normal;line-height:0%;font-family:'Eras Ultra ITC';-inkscape-font-specification:'Eras Ultra ITC';letter-spacing:0px;word-spacing:0px;fill:#000000;fill-opacity:1;stroke:none;stroke-width:1.08272994px;stroke-linecap:butt;stroke-linejoin:miter;stroke-opacity:1;filter:url(#filter155);enable-background:new"
       x="61.72514"
       y="-157.9659"
       id="text605"
       transform="matrix(0.24020317,0,0,0.23782112,-213.52654,225.80336)"><tspan
         sodipodi:role="line"
         id="tspan603"
         x="61.72514"
         y="-157.9659"
         style="font-style:normal;font-variant:normal;font-weight:normal;font-stretch:normal;font-size:81.79330444px;line-height:1.25;font-family:'Eras Ultra ITC';-inkscape-font-specification:'Eras Ultra ITC';letter-spacing:-3.06724882px;word-spacing:0px;fill:#000000;stroke-width:1.08272994px"
         dx="0">Raw</tspan></text>
    <text
       transform="matrix(0.24732122,0,0,0.24687704,-211.90902,264.55152)"
       id="text609"
       y="-157.9659"
       x="239.99272"
       style="font-style:normal;font-variant:normal;font-weight:normal;font-stretch:normal;line-height:0%;font-family:'Eras Medium ITC';-inkscape-font-specification:'Eras Medium ITC';letter-spacing:1px;word-spacing:0px;fill:#ffffff;fill-opacity:1;stroke:none;stroke-width:1.07075834px;stroke-linecap:butt;stroke-linejoin:miter;stroke-opacity:1;filter:url(#filter4749);enable-background:new"
       xml:space="preserve"><tspan
         style="font-style:normal;font-variant:normal;font-weight:normal;font-stretch:normal;font-size:79.99999237px;line-height:1.25;font-family:'Eras Medium ITC';-inkscape-font-specification:'Eras Medium ITC';letter-spacing:0.99999994px;stroke-width:1.07075834px"
         y="-157.9659"
         x="239.99272"
         id="tspan607"
         sodipodi:role="line">Therapee</tspan></text>
    <text
       transform="matrix(0.24020317,0,0,0.23782112,-213.52655,262.84505)"
       id="text613"
       y="-157.9659"
       x="61.72514"
       style="font-style:normal;font-variant:normal;font-weight:normal;font-stretch:normal;line-height:0%;font-family:'Eras Ultra ITC';-inkscape-font-specification:'Eras Ultra ITC';letter-spacing:0px;word-spacing:0px;fill:#ffffff;fill-opacity:1;stroke:none;stroke-width:1.08272994px;stroke-linecap:butt;stroke-linejoin:miter;stroke-opacity:1;filter:url(#filter4749);enable-background:new"
       xml:space="preserve"><tspan
         dx="0"
         style="font-style:normal;font-variant:normal;font-weight:normal;font-stretch:normal;font-size:81.79330444px;line-height:1.25;font-family:'Eras Ultra ITC';-inkscape-font-specification:'Eras Ultra ITC';letter-spacing:-3.06724882px;word-spacing:0px;stroke-width:1.08272994px"
         y="-157.9659"
         x="61.72514"
         id="tspan611"
         sodipodi:role="line">Raw</tspan></text>
    <g
       style="fill:#ffffff;enable-background:new"
       transform="matrix(0.24804687,0,0,0.2480469,-127.75775,273.1232)"
       id="g220" />
    <g
       id="g1792"
       transform="translate(52.916669)">
      <g
         aria-label="5"
         transform="matrix(0.24127119,0,0.01264448,0.24127122,-57.800454,265.42414)"
         style="font-style:normal;font-variant:normal;font-weight:bold;font-stretch:normal;line-height:0%;font-family:'Eras Bold ITC';-inkscape-font-specification:'Eras Bold ITC Bold';letter-spacing:0px;word-spacing:0px;fill:#ffffff;fill-opacity:1;stroke:none;stroke-width:1px;stroke-linecap:butt;stroke-linejoin:miter;stroke-opacity:1;filter:url(#filter4749);enable-background:new"
         id="text1782">
        <path
           d="m 290.0611,1.4557576 -0.27344,-3.9453125 q -0.11719,-1.9140625 -0.27344,-3.4765625 -0.11719,-1.5625 -0.50781,-5.0781246 8.08594,2.3046871 13.39844,2.3046871 2.85156,0 5.23437,-0.8984375 2.42188,-0.8984376 3.71094,-2.5390626 1.28906,-1.640625 1.28906,-3.59375 0,-2.851562 -2.65625,-4.296875 -2.61719,-1.484375 -8.24219,-1.484375 -2.5,0 -4.92187,0.195313 -2.38281,0.15625 -6.48438,0.703125 l 1.99219,-25.234375 q 0.11719,-1.875 0.23438,-5.195313 9.80468,0.07813 18.86718,0.07813 11.48438,0 19.14063,-0.07813 -0.35156,4.0625 -0.42969,6.445313 l -0.19531,5.3125 -5.19531,-0.195313 -2.42188,-0.03906 h -3.78906 q -2.42188,-0.03906 -6.01563,-0.03906 -1.21093,0 -3.98437,0.07813 l -0.78125,8.945313 q 2.61719,-0.195313 4.0625,-0.195313 6.09375,0 10.74219,1.953125 4.64843,1.914063 6.79687,5.390625 2.14844,3.476563 2.14844,7.851563 0,4.257812 -2.1875,8.2031246 -2.1875,3.90625 -6.01563,6.25 -3.78906,2.3046875 -8.82812,3.359375 -5,1.015625 -10.27344,1.015625 -1.99219,0 -4.72656,-0.2734375 -2.73438,-0.234375 -4.60938,-0.546875 -1.875,-0.3125 -4.80468,-0.9765625 z"
           style="font-style:normal;font-variant:normal;font-weight:bold;font-stretch:normal;font-size:80px;line-height:1.25;font-family:'Eras Bold ITC';-inkscape-font-specification:'Eras Bold ITC Bold'"
           id="path1794" />
      </g>
      <g
         aria-label=". 8"
         transform="matrix(0.24127119,0,0.01264448,0.24127122,-48.72404,267.35338)"
         style="font-style:normal;font-variant:normal;font-weight:bold;font-stretch:normal;line-height:0%;font-family:'Eras Bold ITC';-inkscape-font-specification:'Eras Bold ITC Bold';letter-spacing:-7.09514618px;word-spacing:0px;fill:#ffffff;fill-opacity:1;stroke:none;stroke-width:1px;stroke-linecap:butt;stroke-linejoin:miter;stroke-opacity:1;filter:url(#filter4749);enable-background:new"
         id="text1786">
        <path
           d="m 286.21154,2.2370076 q 0.19276,-3.22882392 0.33734,-8.7226438 l 4.96371,0.072287 q 0.79516,0 4.19265,-0.072287 -0.19276,2.6264315 -0.43372,8.7226438 l -4.19265,-0.048191 q -0.45782,0 -4.86733,0.048191 z"
           style="font-style:normal;font-variant:normal;font-weight:bold;font-stretch:normal;font-size:49.34799576px;line-height:1.25;font-family:'Eras Bold ITC';-inkscape-font-specification:'Eras Bold ITC Bold';letter-spacing:-7.09514618px"
           id="path1797" />
        <path
           d="m 305.49017,-14.629983 q -1.39755,-0.67468 -2.07223,-1.132498 -0.65058,-0.481914 -1.27707,-1.156594 -0.60239,-0.674679 -1.01202,-1.493933 -0.40963,-0.819254 -0.57829,-1.686699 -0.16867,-0.867445 -0.16867,-1.734891 0,-2.337283 1.06021,-4.216747 1.06021,-1.879465 3.13244,-3.08425 2.07223,-1.228881 4.43361,-1.686699 2.36137,-0.457819 4.96371,-0.457819 2.48186,0 4.79505,0.578297 2.31318,0.554201 3.95169,1.758986 1.6626,1.204786 2.43367,2.771006 0.77106,1.542125 0.77106,3.710738 0,1.036115 -0.21686,1.999943 -0.19277,0.963828 -0.62649,1.783082 -0.43372,0.795158 -1.06021,1.469838 -0.62649,0.674679 -1.32527,1.180689 -0.69877,0.50601 -2.33728,1.325264 1.54213,0.433722 2.36138,0.795158 0.81925,0.33734 1.56622,0.963828 0.77106,0.602392 1.30117,1.445742 0.5542,0.819254 0.79516,1.7589862 0.24095,0.9397323 0.24095,1.9758475 0,2.4095701 -1.18069,4.6022789 -1.18069,2.19270878 -3.22882,3.51797234 -2.02404,1.32526356 -4.72276,1.90356036 -2.69872,0.6023925 -5.51791,0.6023925 -2.69872,0 -5.20467,-0.5301054 -2.48186,-0.5301054 -4.43361,-1.75898615 -1.95175,-1.25297646 -2.8433,-2.93967555 -0.89154,-1.6866991 -0.89154,-3.8312165 0,-1.2529764 0.31325,-2.4336658 0.33734,-1.1806893 0.98792,-2.2168044 0.67468,-1.060211 1.54213,-1.758986 0.86744,-0.722871 1.6867,-1.108402 0.84334,-0.409627 2.36137,-0.915637 z m 7.90339,-9.999716 q -1.90356,0 -3.01196,1.060211 -1.1084,1.060211 -1.1084,2.602336 0,0.915636 0.48191,1.686699 0.48192,0.771062 1.34936,1.156593 0.86745,0.361436 1.87947,0.361436 1.75898,0 2.93967,-1.01202 1.18069,-1.036115 1.18069,-2.674623 0,-1.445742 -1.01202,-2.313187 -0.98792,-0.867445 -2.69872,-0.867445 z m -0.57829,13.22854 q -2.16862,0 -3.3975,1.108402 -1.20478,1.0843066 -1.20478,2.8191971 0,1.0120194 0.5301,1.8794647 0.5542,0.8674452 1.56622,1.3252635 1.03612,0.4337227 2.2409,0.4337227 1.25298,0 2.265,-0.4819141 1.03612,-0.481914 1.63851,-1.4216463 0.60239,-0.9638281 0.60239,-2.1927088 0,-1.6385077 -1.1325,-2.5541448 -1.1084,-0.915636 -3.10834,-0.915636 z"
           style="font-style:normal;font-variant:normal;font-weight:bold;font-stretch:normal;font-size:49.34799576px;line-height:1.25;font-family:'Eras Bold ITC';-inkscape-font-specification:'Eras Bold ITC Bold';letter-spacing:-7.09514618px"
           id="path1799" />
      </g>
    </g>
  </g>
</svg>
