<?xml version="1.0" encoding="UTF-8" standalone="no"?>
<!-- Created with Inkscape (http://www.inkscape.org/) -->

<svg
   xmlns:dc="http://purl.org/dc/elements/1.1/"
   xmlns:cc="http://creativecommons.org/ns#"
   xmlns:rdf="http://www.w3.org/1999/02/22-rdf-syntax-ns#"
   xmlns:svg="http://www.w3.org/2000/svg"
   xmlns="http://www.w3.org/2000/svg"
   xmlns:sodipodi="http://sodipodi.sourceforge.net/DTD/sodipodi-0.dtd"
   xmlns:inkscape="http://www.inkscape.org/namespaces/inkscape"
   width="16px"
   height="16px"
   id="svg2985"
   version="1.1"
   inkscape:version="0.48.4 r9939"
   sodipodi:docname="New document 2">
  <defs
     id="defs2987" />
  <sodipodi:namedview
     id="base"
     pagecolor="#e43a3a"
     bordercolor="#666666"
     borderopacity="1.0"
     inkscape:pageopacity="0"
     inkscape:pageshadow="2"
     inkscape:zoom="16"
     inkscape:cx="6.2977477"
     inkscape:cy="8.0892157"
     inkscape:current-layer="layer1"
     showgrid="true"
     inkscape:grid-bbox="true"
     inkscape:document-units="px"
     inkscape:window-width="1920"
     inkscape:window-height="1025"
     inkscape:window-x="-2"
     inkscape:window-y="-3"
     inkscape:window-maximized="1" />
  <metadata
     id="metadata2990">
    <rdf:RDF>
      <cc:Work
         rdf:about="">
        <dc:format>image/svg+xml</dc:format>
        <dc:type
           rdf:resource="http://purl.org/dc/dcmitype/StillImage" />
        <dc:title></dc:title>
      </cc:Work>
    </rdf:RDF>
  </metadata>
  <g
     id="layer1"
     inkscape:label="Layer 1"
     inkscape:groupmode="layer">
    <path
       style="fill:#000000;fill-opacity:1;stroke:none"
       d="M 8 0 C 3.581722 1.1842379e-15 0 3.581722 0 8 C -1.1842379e-15 12.418278 3.581722 16 8 16 C 12.418278 16 16 12.418278 16 8 C 16 3.581722 12.418278 -1.7763568e-15 8 0 z M 8 1.5 C 11.597233 1.5 14.5 4.4027671 14.5 8 C 14.5 11.597233 11.597233 14.5 8 14.5 C 4.4027671 14.5 1.5 11.597233 1.5 8 C 1.5 4.4027671 4.4027671 1.5 8 1.5 z "
       id="path2993" />
    <path
       sodipodi:type="arc"
       style="fill:#ffffff;fill-opacity:1;stroke:none"
       id="path3766"
       sodipodi:cx="7.9962873"
       sodipodi:cy="7.9586635"
       sodipodi:rx="7.9962873"
       sodipodi:ry="7.9962873"
       d="m 15.992575,7.9586635 a 7.9962873,7.9962873 0 1 1 -15.992575,0 7.9962873,7.9962873 0 1 1 15.992575,0 z"
       transform="matrix(0.53285867,0,0,0.53285867,3.7391089,3.7591563)" />
  </g>
</svg>
