<?xml version="1.0" encoding="UTF-8" standalone="no"?>
<!-- Created with Inkscape (http://www.inkscape.org/) -->

<svg
   width="24px"
   height="24px"
   viewBox="0 0 24 24"
   version="1.1"
   id="SVGRoot"
   xmlns="http://www.w3.org/2000/svg"
   xmlns:svg="http://www.w3.org/2000/svg"
   xmlns:rdf="http://www.w3.org/1999/02/22-rdf-syntax-ns#"
   xmlns:cc="http://creativecommons.org/ns#"
   xmlns:dc="http://purl.org/dc/elements/1.1/">
  <defs
     id="defs815" />
  <metadata
     id="metadata818">
    <rdf:RDF>
      <cc:Work
         rdf:about="">
        <dc:format>image/svg+xml</dc:format>
        <dc:type
           rdf:resource="http://purl.org/dc/dcmitype/StillImage" />
        <dc:title />
        <dc:creator>
          <cc:Agent>
            <dc:title>Maciej Dworak</dc:title>
          </cc:Agent>
        </dc:creator>
        <dc:rights>
          <cc:Agent>
            <dc:title />
          </cc:Agent>
        </dc:rights>
        <dc:description>RawTherapee icon.</dc:description>
        <cc:license
           rdf:resource="http://creativecommons.org/licenses/by-sa/4.0/" />
      </cc:Work>
      <cc:License
         rdf:about="http://creativecommons.org/licenses/by-sa/4.0/">
        <cc:permits
           rdf:resource="http://creativecommons.org/ns#Reproduction" />
        <cc:permits
           rdf:resource="http://creativecommons.org/ns#Distribution" />
        <cc:requires
           rdf:resource="http://creativecommons.org/ns#Notice" />
        <cc:requires
           rdf:resource="http://creativecommons.org/ns#Attribution" />
        <cc:permits
           rdf:resource="http://creativecommons.org/ns#DerivativeWorks" />
        <cc:requires
           rdf:resource="http://creativecommons.org/ns#ShareAlike" />
      </cc:License>
    </rdf:RDF>
  </metadata>
  <g
     id="layer1">
    <path
       id="path4987"
       style="color:#000000;font-style:normal;font-variant:normal;font-weight:normal;font-stretch:normal;font-size:medium;line-height:normal;font-family:sans-serif;font-variant-ligatures:normal;font-variant-position:normal;font-variant-caps:normal;font-variant-numeric:normal;font-variant-alternates:normal;font-feature-settings:normal;text-indent:0;text-align:start;text-decoration:none;text-decoration-line:none;text-decoration-style:solid;text-decoration-color:#000000;letter-spacing:normal;word-spacing:normal;text-transform:none;writing-mode:lr-tb;direction:ltr;text-orientation:mixed;dominant-baseline:auto;baseline-shift:baseline;text-anchor:start;white-space:normal;shape-padding:0;clip-rule:nonzero;display:inline;overflow:visible;visibility:visible;opacity:0.7;isolation:auto;mix-blend-mode:normal;color-interpolation:sRGB;color-interpolation-filters:linearRGB;solid-color:#000000;solid-opacity:1;vector-effect:none;fill:#cccccc;fill-opacity:1.0;fill-rule:nonzero;stroke:none;stroke-width:1.99999988;stroke-linecap:round;stroke-linejoin:miter;stroke-miterlimit:4;stroke-dasharray:none;stroke-dashoffset:0;stroke-opacity:1;color-rendering:auto;image-rendering:auto;shape-rendering:auto;text-rendering:auto;enable-background:accumulate"
       d="M 6.4236453,1.0007171 C 5.1242162,1.0661783 4.2818956,1.3551405 3.4072861,2.1680463 2.0313377,3.6604057 2.0510559,6.0656441 2.8621368,8.5546635 3.6732254,11.043598 5.310644,13.766734 7.6001256,16.249906 c 2.2894736,2.483171 4.8041564,4.263447 7.0989664,5.143206 2.294838,0.879717 4.512477,0.901128 5.888414,-0.591274 1.459941,-1.892872 1.173357,-4.178274 0.629276,-6.11277 l -1.304751,1.308627 c 0.13995,1.28267 0.485305,2.529387 -0.444943,3.586763 -0.742315,0.805094 -2.239588,0.951586 -4.238937,0.184773 C 13.228945,19.002904 10.867343,17.361104 8.7224918,15.034753 6.5776052,12.708445 5.0659363,10.14926 4.3592931,7.9807808 3.8278563,5.7699345 3.7373603,4.2400511 5.122903,3.0223486 5.9515725,2.6063205 7.1829376,2.5856846 8.7705933,3.1940787 9.8156548,3.5945426 10.958198,4.2581661 12.117649,5.1091942 14.341642,6.72193 15.771084,8.4243253 17.384754,10.761068 L 18.45501,9.4589633 C 17.216394,7.4326758 15.418359,5.7024185 13.799195,4.3896672 12.282374,3.1596706 10.75444,2.1300889 9.2997088,1.5724257 8.2993769,1.1887878 7.3233517,0.98582573 6.4236453,1.0007171 Z" />
    <path
       style="color:#000000;font-style:normal;font-variant:normal;font-weight:normal;font-stretch:normal;font-size:medium;line-height:normal;font-family:sans-serif;font-variant-ligatures:normal;font-variant-position:normal;font-variant-caps:normal;font-variant-numeric:normal;font-variant-alternates:normal;font-feature-settings:normal;text-indent:0;text-align:start;text-decoration:none;text-decoration-line:none;text-decoration-style:solid;text-decoration-color:#000000;letter-spacing:normal;word-spacing:normal;text-transform:none;writing-mode:lr-tb;direction:ltr;text-orientation:mixed;dominant-baseline:auto;baseline-shift:baseline;text-anchor:start;white-space:normal;shape-padding:0;clip-rule:nonzero;display:inline;overflow:visible;visibility:visible;opacity:0.7;isolation:auto;mix-blend-mode:normal;color-interpolation:sRGB;color-interpolation-filters:linearRGB;solid-color:#000000;solid-opacity:1;vector-effect:none;fill:#cccccc;fill-opacity:1.0;fill-rule:nonzero;stroke:none;stroke-width:1.99999988;stroke-linecap:round;stroke-linejoin:miter;stroke-miterlimit:4;stroke-dasharray:none;stroke-dashoffset:0;stroke-opacity:1;color-rendering:auto;image-rendering:auto;shape-rendering:auto;text-rendering:auto;enable-background:accumulate"
       d="m 17.865768,2.6288914 c -0.292896,-5.185e-4 -0.590564,0.011264 -0.893884,0.036955 -0.715525,0.060656 -1.47107,0.2004195 -2.248741,0.3999787 0.594128,0.4643122 1.06971,0.9537435 1.535236,1.4238374 0.286816,-0.047062 0.565943,-0.083661 0.835763,-0.106516 2.114103,-0.1791993 3.527635,0.3876552 4.052543,1.3738399 0.524897,0.9860585 0.268078,2.590445 -0.931965,4.4867176 -1.200051,1.896188 -3.275525,3.94825 -5.902444,5.59318 -2.626918,1.645018 -5.2975449,2.56426 -7.411625,2.743333 C 4.7865474,18.758995 3.3770123,18.198998 2.8521156,17.212899 2.4090741,16.380593 2.5295728,15.100997 3.2970537,13.582657 2.9557874,13.034239 2.6478051,12.483866 2.3650889,11.930571 c -1.2949177,2.122748 -1.83145132,4.364593 -0.8858677,6.140977 0.9729581,1.827791 3.1191278,2.431502 5.5456917,2.225969 2.4265484,-0.2057 5.2750061,-1.217896 8.0790321,-2.973754 2.804023,-1.7559 5.04212,-3.929727 6.419535,-6.106197 1.377398,-2.1764727 1.969057,-4.4936558 0.9961,-6.3214038 C 21.668208,3.2968089 19.91604,2.6325203 17.865768,2.6288914 Z M 9.4139496,5.3287477 C 8.2641945,6.0060435 7.0645339,6.8703196 6.1350368,7.6525374 6.3145403,8.1516283 6.5549938,8.6833234 6.8425284,9.2437566 8.2368696,8.0311985 9.5435568,7.1849817 10.997287,6.3743444 10.452636,5.9735937 9.9180796,5.6107805 9.4139496,5.3287477 Z"
       id="ellipse4751" />
    <circle
       r="3.0846999"
       cy="12"
       cx="12"
       id="circle4739"
       style="opacity:1;fill:#cccccc;fill-opacity:1.0;stroke:none;stroke-width:3.77952719;stroke-linecap:round;stroke-linejoin:miter;stroke-miterlimit:4;stroke-dasharray:none;stroke-opacity:1" />
  </g>
</svg>
