<?xml version="1.0" encoding="UTF-8" standalone="no"?>
<!-- Created with Inkscape (http://www.inkscape.org/) -->

<svg
   width="24px"
   height="24px"
   viewBox="0 0 24 24"
   version="1.1"
   id="SVGRoot"
   xmlns="http://www.w3.org/2000/svg"
   xmlns:svg="http://www.w3.org/2000/svg"
   xmlns:rdf="http://www.w3.org/1999/02/22-rdf-syntax-ns#"
   xmlns:cc="http://creativecommons.org/ns#"
   xmlns:dc="http://purl.org/dc/elements/1.1/">
  <defs
     id="defs815" />
  <metadata
     id="metadata818">
    <rdf:RDF>
      <cc:Work
         rdf:about="">
        <dc:format>image/svg+xml</dc:format>
        <dc:type
           rdf:resource="http://purl.org/dc/dcmitype/StillImage" />
        <dc:title />
        <dc:creator>
          <cc:Agent>
            <dc:title>Maciej Dworak</dc:title>
          </cc:Agent>
        </dc:creator>
        <dc:rights>
          <cc:Agent>
            <dc:title />
          </cc:Agent>
        </dc:rights>
        <dc:description>RawTherapee icon.</dc:description>
        <cc:license
           rdf:resource="http://creativecommons.org/licenses/by-sa/4.0/" />
      </cc:Work>
      <cc:License
         rdf:about="http://creativecommons.org/licenses/by-sa/4.0/">
        <cc:permits
           rdf:resource="http://creativecommons.org/ns#Reproduction" />
        <cc:permits
           rdf:resource="http://creativecommons.org/ns#Distribution" />
        <cc:requires
           rdf:resource="http://creativecommons.org/ns#Notice" />
        <cc:requires
           rdf:resource="http://creativecommons.org/ns#Attribution" />
        <cc:permits
           rdf:resource="http://creativecommons.org/ns#DerivativeWorks" />
        <cc:requires
           rdf:resource="http://creativecommons.org/ns#ShareAlike" />
      </cc:License>
    </rdf:RDF>
  </metadata>
  <g
     id="layer1">
    <path
       style="opacity:1;fill:#ffffff;fill-opacity:1.0;stroke:#000000;stroke-width:1;stroke-linecap:butt;stroke-linejoin:miter;stroke-miterlimit:4;stroke-dasharray:none;stroke-opacity:1.0;paint-order:normal"
       d="m 17.5,14.5 v 3 h -3 v 1.999999 h 3 V 22.5 h 1.999999 V 19.499999 H 22.5 V 17.5 h -3.000001 v -3 z"
       id="rect2927" />
    <path
       style="opacity:1;fill:#000000;fill-opacity:1.0;stroke:none;stroke-width:0.3266921"
       d="M 19.925781 1.0039062 C 18.339371 1.1365417 17.166512 2.369779 16.287109 3.5878906 C 15.983899 4.0023507 15.598363 4.3816065 15.080078 4.4824219 C 14.449647 4.8426999 13.927214 5.398613 13.507812 5.984375 C 12.960809 6.8828098 13.556016 7.9202525 14.148438 8.625 C 14.965672 9.5294466 15.968795 10.505312 17.255859 10.568359 C 18.145422 10.540249 18.758746 9.7583979 19.337891 9.171875 C 19.575097 8.6352599 19.779974 8.0379511 20.316406 7.7265625 C 21.40338 6.7821111 22.639686 5.7804332 22.919922 4.2832031 C 23.243079 3.0583515 22.571361 1.6511303 21.359375 1.21875 C 20.905795 1.0309215 20.412996 0.98294529 19.925781 1.0039062 z M 15.806641 5.7402344 C 16.530358 5.7208158 18.139316 6.9834451 18.199219 8.2050781 C 18.159376 8.4621105 17.647033 8.8740782 17.314453 9.1074219 C 17.04034 9.327167 16.877887 9.2353204 16.628906 9.1621094 C 15.922112 8.8485353 15.342642 8.3120018 14.8125 7.4042969 C 14.667763 7.0628521 14.490162 6.9461703 14.888672 6.484375 C 15.544761 5.8178642 14.635832 6.7326036 15.556641 5.8300781 C 15.616796 5.7711182 15.703252 5.7430085 15.806641 5.7402344 z "
       id="path9921-9-3-9-8-3" />
    <path
       style="opacity:1;fill:#000000;fill-opacity:1.0;fill-rule:evenodd;stroke:none;stroke-width:0.3266921"
       d="M 13.361265,7.2405538 C 12.142709,8.5071436 10.869037,9.7298325 9.6482164,10.991742 8.5134581,12.131321 7.3720486,13.265681 6.2838175,14.448451 5.913391,15.123782 5.86431,15.997565 5.2416812,16.518207 c -0.5111809,0.68707 -0.218587,1.72157 0.4470727,2.19334 0.5159934,0.429344 1.3132151,0.356101 1.8118939,-0.06562 0.4568579,-0.323543 0.9441272,-0.630713 1.5013907,-0.727044 1.1485835,-0.46639 1.8411185,-1.556446 2.7365315,-2.347446 1.689349,-1.688256 3.378919,-3.376339 5.068721,-5.064147 -0.007,-0.0016 -0.01445,-0.0022 -0.02148,-0.0039 -0.07608,-0.01718 -0.151099,-0.03709 -0.225066,-0.06028 -0.07397,-0.02303 -0.147039,-0.04919 -0.218939,-0.07784 -0.07191,-0.02849 -0.14294,-0.06023 -0.212849,-0.09383 -0.06991,-0.03358 -0.138802,-0.06948 -0.206759,-0.107576 -0.03864,-0.02186 -0.07631,-0.0456 -0.114447,-0.06867 -2.261535,2.250358 -4.491866,4.534447 -6.7905862,6.741815 -0.6167308,0.35629 -1.4660616,0.286537 -1.9446344,0.87508 C 6.9051159,17.966274 6.5202631,18.130386 6.2646175,17.915803 5.9640606,17.744369 5.8147586,17.2551 6.125776,17.023207 6.4525247,16.700558 6.7519175,16.325111 6.8131497,15.855969 6.9287275,15.36596 7.0790059,14.838631 7.5058674,14.52852 9.6059945,12.41051 11.725962,10.311752 13.828038,8.1956716 13.792911,8.1439522 13.755244,8.0943793 13.72199,8.040787 13.656694,7.9356309 13.596146,7.8274696 13.541928,7.7165369 13.514994,7.6610701 13.48911,7.6052527 13.465655,7.5486933 13.44223,7.4921338 13.420876,7.4344817 13.401563,7.3770247 13.38634,7.3317451 13.373455,7.2861941 13.36112,7.2404858 Z"
       id="path17041-7" />
    <path
       style="opacity:1;vector-effect:none;fill:#ffffff;fill-opacity:1.0;fill-rule:nonzero;stroke:#000000;stroke-width:1;stroke-linecap:square;stroke-linejoin:round;stroke-miterlimit:4;stroke-dasharray:none;stroke-dashoffset:0;stroke-opacity:1.0;paint-order:normal"
       d="m 5.5,21 c 0,0.828427 -0.6715729,1.5 -1.5,1.5 -0.8284271,0 -1.5,-0.671573 -1.5,-1.5 0,-0.828427 0.6715729,-1.5 1.5,-1.5 0.8284271,0 1.5,0.671573 1.5,1.5 z"
       id="path822" />
    <path
       style="opacity:1;vector-effect:none;fill:#ffffff;fill-opacity:1.0;fill-rule:nonzero;stroke:none;stroke-width:1;stroke-linecap:square;stroke-linejoin:round;stroke-miterlimit:4;stroke-dasharray:none;stroke-dashoffset:0;stroke-opacity:1;paint-order:normal"
       d="m 6.408409,17.970709 c -0.2419556,-0.08377 -0.4330129,-0.342137 -0.4344249,-0.587472 -8.522e-4,-0.14806 0.030543,-0.202296 0.2604321,-0.449904 0.379501,-0.408751 0.4877811,-0.620718 0.6432726,-1.259259 0.043352,-0.178029 0.1315081,-0.425181 0.2060864,-0.577778 L 7.2141028,14.82963 10.520922,11.525926 c 2.873023,-2.870317 3.310876,-3.2966438 3.337743,-3.2498855 0.07866,0.1368893 0.498618,0.6040131 0.858755,0.9551984 0.364964,0.3558923 0.733564,0.6623936 0.968195,0.8050811 l 0.09436,0.05738 -2.688938,2.693889 c -3.3473064,3.353471 -4.0311553,4.015967 -4.2470255,4.114415 -0.087761,0.04002 -0.3728984,0.134291 -0.6336391,0.209484 -0.6433785,0.185537 -0.8456359,0.286514 -1.1001997,0.549271 -0.2917981,0.30119 -0.4830626,0.385666 -0.7017617,0.309947 z"
       id="path3821" />
    <path
       style="opacity:1;vector-effect:none;fill:#ffffff;fill-opacity:1.0;fill-rule:nonzero;stroke:none;stroke-width:1;stroke-linecap:square;stroke-linejoin:round;stroke-miterlimit:4;stroke-dasharray:none;stroke-dashoffset:0;stroke-opacity:1;paint-order:normal"
       d="m 16.795987,9.1976036 c -0.55423,-0.145102 -1.270338,-0.740807 -1.74445,-1.4511456 -0.287392,-0.4305858 -0.41219,-0.7065701 -0.385013,-0.8514368 0.03052,-0.1626656 0.167436,-0.3386626 0.574113,-0.7379666 0.426397,-0.4186671 0.469486,-0.4400701 0.763202,-0.3790949 0.671118,0.1393235 1.645127,0.9939391 1.998794,1.7537832 0.157684,0.3387793 0.214482,0.6554251 0.140021,0.7806121 -0.124833,0.209875 -0.522707,0.5781327 -0.861306,0.7971949 -0.18876,0.1221209 -0.287097,0.1399609 -0.485361,0.088054 z"
       id="path3823" />
  </g>
</svg>
