<?xml version="1.0" encoding="UTF-8" standalone="no"?>
<!-- Created with Inkscape (http://www.inkscape.org/) -->

<svg
   width="16"
   height="16"
   viewBox="0 0 16 16"
   version="1.1"
   id="SVGRoot"
   xmlns="http://www.w3.org/2000/svg"
   xmlns:svg="http://www.w3.org/2000/svg"
   xmlns:rdf="http://www.w3.org/1999/02/22-rdf-syntax-ns#"
   xmlns:cc="http://creativecommons.org/ns#"
   xmlns:dc="http://purl.org/dc/elements/1.1/">
  <defs
     id="defs815" />
  <metadata
     id="metadata818">
    <rdf:RDF>
      <cc:Work
         rdf:about="">
        <dc:format>image/svg+xml</dc:format>
        <dc:type
           rdf:resource="http://purl.org/dc/dcmitype/StillImage" />
        <dc:title />
        <dc:creator>
          <cc:Agent>
            <dc:title>Maciej Dworak</dc:title>
          </cc:Agent>
        </dc:creator>
        <dc:rights>
          <cc:Agent>
            <dc:title />
          </cc:Agent>
        </dc:rights>
        <dc:description>RawTherapee icon.</dc:description>
        <cc:license
           rdf:resource="http://creativecommons.org/licenses/by-sa/4.0/" />
      </cc:Work>
      <cc:License
         rdf:about="http://creativecommons.org/licenses/by-sa/4.0/">
        <cc:permits
           rdf:resource="http://creativecommons.org/ns#Reproduction" />
        <cc:permits
           rdf:resource="http://creativecommons.org/ns#Distribution" />
        <cc:requires
           rdf:resource="http://creativecommons.org/ns#Notice" />
        <cc:requires
           rdf:resource="http://creativecommons.org/ns#Attribution" />
        <cc:permits
           rdf:resource="http://creativecommons.org/ns#DerivativeWorks" />
        <cc:requires
           rdf:resource="http://creativecommons.org/ns#ShareAlike" />
      </cc:License>
    </rdf:RDF>
  </metadata>
  <g
     id="layer1"
     transform="translate(0,-8)">
    <path
       style="opacity:0.7;fill:#cccccc;fill-opacity:1.0;stroke:none;stroke-width:2;stroke-linecap:butt;stroke-linejoin:miter;stroke-miterlimit:4;stroke-dasharray:none;stroke-opacity:0.97660822;paint-order:normal"
       d="m 1,11 v 2 h 10 v 10 h 2 V 11 Z"
       id="rect1324" />
    <path
       style="opacity:0.7;fill:#cccccc;fill-opacity:1.0;stroke:none;stroke-width:2;stroke-linecap:butt;stroke-linejoin:miter;stroke-miterlimit:4;stroke-dasharray:none;stroke-opacity:0.97660822;paint-order:normal"
       d="M 7.9472656,19 C 7.9775765,19.42477 7.6864119,19.784296 7.3316451,19.980141 6.8220082,20.320094 6.3123713,20.660047 5.8027344,21 8.8684896,21 11.934245,21 15,21 c 0,-0.666667 0,-1.333333 0,-2 -2.350911,0 -4.701823,0 -7.0527344,0 z"
       id="path879" />
    <path
       style="opacity:0.3;fill:#cccccc;fill-opacity:1.0;stroke:none;stroke-width:2;stroke-linecap:butt;stroke-linejoin:miter;stroke-miterlimit:4;stroke-dasharray:none;stroke-opacity:0.97660822;paint-order:normal"
       d="M 5,16.503906 C 4.3333333,16.052083 3.6666667,15.60026 3,15.148438 3,17.098958 3,19.049479 3,21 c 0.9342448,0 1.8684896,0 2.8027344,0 0.5930099,-0.398845 1.1923238,-0.788671 1.78125,-1.193359 C 7.7956078,19.642038 8.0419175,19.203839 7.9012819,19 6.9341879,19 5.967094,19 5,19 5,18.167969 5,17.335937 5,16.503906 Z"
       id="path877" />
    <path
       style="opacity:0.7;fill:#cccccc;fill-opacity:1.0;stroke:none;stroke-width:2;stroke-linecap:butt;stroke-linejoin:miter;stroke-miterlimit:4;stroke-dasharray:none;stroke-opacity:0.97660822;paint-order:normal"
       d="M 3 1 L 3 7.1484375 L 5 8.5039062 L 5 1 L 3 1 z "
       id="rect1322"
       transform="translate(0,8)" />
    <path
       id="Symbol-4-6-8"
       d="M 1,17.238584 V 15 L 6.950059,19.034097 1,23 v -2.198912 z"
       style="display:inline;opacity:1;fill:#008000;fill-opacity:1.0;stroke:none;stroke-width:0.04999533" />
  </g>
</svg>
