<?xml version="1.0" encoding="UTF-8" standalone="no"?>
<!-- Created with Inkscape (http://www.inkscape.org/) -->

<svg
   width="16"
   height="16"
   viewBox="0 0 16 16"
   version="1.1"
   id="SVGRoot"
   xmlns="http://www.w3.org/2000/svg"
   xmlns:svg="http://www.w3.org/2000/svg"
   xmlns:rdf="http://www.w3.org/1999/02/22-rdf-syntax-ns#"
   xmlns:cc="http://creativecommons.org/ns#"
   xmlns:dc="http://purl.org/dc/elements/1.1/">
  <defs
     id="defs815" />
  <metadata
     id="metadata818">
    <rdf:RDF>
      <cc:Work
         rdf:about="">
        <dc:format>image/svg+xml</dc:format>
        <dc:type
           rdf:resource="http://purl.org/dc/dcmitype/StillImage" />
        <dc:title />
        <dc:creator>
          <cc:Agent>
            <dc:title>Maciej Dworak</dc:title>
          </cc:Agent>
        </dc:creator>
        <dc:rights>
          <cc:Agent>
            <dc:title />
          </cc:Agent>
        </dc:rights>
        <dc:description>RawTherapee icon.</dc:description>
        <cc:license
           rdf:resource="http://creativecommons.org/licenses/by-sa/4.0/" />
      </cc:Work>
      <cc:License
         rdf:about="http://creativecommons.org/licenses/by-sa/4.0/">
        <cc:permits
           rdf:resource="http://creativecommons.org/ns#Reproduction" />
        <cc:permits
           rdf:resource="http://creativecommons.org/ns#Distribution" />
        <cc:requires
           rdf:resource="http://creativecommons.org/ns#Notice" />
        <cc:requires
           rdf:resource="http://creativecommons.org/ns#Attribution" />
        <cc:permits
           rdf:resource="http://creativecommons.org/ns#DerivativeWorks" />
        <cc:requires
           rdf:resource="http://creativecommons.org/ns#ShareAlike" />
      </cc:License>
    </rdf:RDF>
  </metadata>
  <g
     id="layer1"
     transform="translate(0,-8)">
    <circle
       r="2.1000001"
       cy="-7.5"
       cx="10.5"
       id="circle3732"
       style="opacity:0.7;fill:#cccccc;fill-opacity:1.0;fill-rule:nonzero;stroke:#cccccc;stroke-width:0.80000007;stroke-linecap:round;stroke-linejoin:round;stroke-miterlimit:4;stroke-dasharray:none;stroke-dashoffset:2.00314951;stroke-opacity:1.0;paint-order:normal" />
    <circle
       style="opacity:0.7;fill:#cccccc;fill-opacity:1.0;fill-rule:nonzero;stroke:#cccccc;stroke-width:0.80000007;stroke-linecap:round;stroke-linejoin:round;stroke-miterlimit:4;stroke-dasharray:none;stroke-dashoffset:2.00314951;stroke-opacity:1.0;paint-order:normal"
       id="circle3734"
       cx="6.5"
       cy="0.5"
       r="2.1000001" />
    <path
       id="path3736"
       d="M 2,2 C 2,2 5.336352,1.536652 6.539604,0.490099 8.782506,-1.46071 8.57285,-5.236736 10.5,-7.5 11.429492,-8.591604 14,-10 14,-10"
       style="opacity:0.9;vector-effect:none;fill:none;fill-opacity:1;fill-rule:nonzero;stroke:#cccccc;stroke-width:2;stroke-linecap:round;stroke-linejoin:round;stroke-miterlimit:4;stroke-dasharray:none;stroke-dashoffset:0;stroke-opacity:1.0;paint-order:normal" />
    <circle
       r="2.6000001"
       cy="-8"
       cx="30"
       id="circle4393"
       style="opacity:0.7;fill:#cccccc;fill-opacity:1.0;fill-rule:nonzero;stroke:#cccccc;stroke-width:0.80000007;stroke-linecap:round;stroke-linejoin:round;stroke-miterlimit:4;stroke-dasharray:none;stroke-dashoffset:2.00314951;stroke-opacity:1.0;paint-order:normal" />
    <circle
       style="opacity:0.7;fill:#cccccc;fill-opacity:1.0;fill-rule:nonzero;stroke:#cccccc;stroke-width:0.80000007;stroke-linecap:round;stroke-linejoin:round;stroke-miterlimit:4;stroke-dasharray:none;stroke-dashoffset:2.00314951;stroke-opacity:1.0;paint-order:normal"
       id="circle4395"
       cx="26"
       cy="0"
       r="2.6000001" />
    <path
       id="path4397"
       d="m 22,2 c 0,0 2.945907,-0.945907 4,-2 2.108185,-2.108185 1.891815,-5.891815 4,-8 1.054093,-1.054093 4,-2 4,-2"
       style="opacity:0.9;vector-effect:none;fill:none;fill-opacity:1;fill-rule:nonzero;stroke:#cccccc;stroke-width:2;stroke-linecap:round;stroke-linejoin:round;stroke-miterlimit:4;stroke-dasharray:none;stroke-dashoffset:0;stroke-opacity:1.0;paint-order:normal" />
    <path
       style="color:#000000;font-style:normal;font-variant:normal;font-weight:normal;font-stretch:normal;font-size:medium;line-height:normal;font-family:sans-serif;font-variant-ligatures:normal;font-variant-position:normal;font-variant-caps:normal;font-variant-numeric:normal;font-variant-alternates:normal;font-feature-settings:normal;text-indent:0;text-align:start;text-decoration:none;text-decoration-line:none;text-decoration-style:solid;text-decoration-color:#000000;letter-spacing:normal;word-spacing:normal;text-transform:none;writing-mode:lr-tb;direction:ltr;text-orientation:mixed;dominant-baseline:auto;baseline-shift:baseline;text-anchor:start;white-space:normal;shape-padding:0;clip-rule:nonzero;display:inline;overflow:visible;visibility:visible;opacity:0.7;isolation:auto;mix-blend-mode:normal;color-interpolation:sRGB;color-interpolation-filters:linearRGB;solid-color:#000000;solid-opacity:1;vector-effect:none;fill:#cccccc;fill-opacity:1.0;fill-rule:nonzero;stroke:none;stroke-width:0.80000007;stroke-linecap:round;stroke-linejoin:round;stroke-miterlimit:4;stroke-dasharray:none;stroke-dashoffset:2.00314951;stroke-opacity:1;paint-order:normal;color-rendering:auto;image-rendering:auto;shape-rendering:auto;text-rendering:auto;enable-background:accumulate"
       d="m 13.957617,9.0010308 a 0.99703958,0.99930081 0 0 0 -0.445902,0.128803 c 0,0 -0.669824,0.3673832 -1.458413,0.8762522 -0.134886,0.08704 -0.27712,0.195722 -0.416691,0.288832 -0.342359,-0.177992 -0.724456,-0.288832 -1.135186,-0.288832 -1.3717587,0 -2.4923491,1.123128 -2.4923491,2.498002 0,0.549878 0.1839155,1.055935 0.4867858,1.469528 -0.3263981,0.787192 -0.5622541,1.587644 -0.8002735,2.336023 -0.202987,0.638199 -0.4127132,1.221238 -0.6522978,1.750553 -0.1713441,-0.03761 -0.3473737,-0.0605 -0.5296243,-0.0605 -1.3717594,0 -2.4923497,1.123128 -2.4923497,2.498002 0,0.01 0.00179,0.0193 0.00189,0.02928 -0.1454635,0.04365 -0.2824131,0.102887 -0.424477,0.138561 -0.9240894,0.232048 -1.7076443,0.341524 -1.7076443,0.341524 a 0.99703958,0.99930081 0 1 0 0.2726033,1.978885 c 0,0 0.8810157,-0.121637 1.9198869,-0.382506 0.2647274,-0.06648 0.5384671,-0.139215 0.8158557,-0.220527 0.4365799,0.376198 0.996262,0.612788 1.6142351,0.612788 1.3717594,0 2.4923497,-1.123127 2.4923497,-2.498002 0,-0.438945 -0.1230822,-0.846798 -0.3232278,-1.206066 0.3946885,-0.776236 0.6653676,-1.595807 0.9132168,-2.375054 0.2181704,-0.685981 0.4272682,-1.338908 0.6620272,-1.939855 0.08137,0.0081 0.159969,0.02537 0.243393,0.02537 1.37176,0 2.49235,-1.123128 2.49235,-2.498002 0,-0.226332 -0.0405,-0.44107 -0.09736,-0.649871 0.08068,-0.05425 0.158822,-0.11703 0.237551,-0.167834 0.724416,-0.467449 1.33575,-0.804045 1.33575,-0.804045 A 0.99703958,0.99930081 0 0 0 13.957617,9.0010308 Z"
       id="circle4399" />
    <path
       style="color:#000000;font-style:normal;font-variant:normal;font-weight:normal;font-stretch:normal;font-size:medium;line-height:normal;font-family:sans-serif;font-variant-ligatures:normal;font-variant-position:normal;font-variant-caps:normal;font-variant-numeric:normal;font-variant-alternates:normal;font-feature-settings:normal;text-indent:0;text-align:start;text-decoration:none;text-decoration-line:none;text-decoration-style:solid;text-decoration-color:#000000;letter-spacing:normal;word-spacing:normal;text-transform:none;writing-mode:lr-tb;direction:ltr;text-orientation:mixed;dominant-baseline:auto;baseline-shift:baseline;text-anchor:start;white-space:normal;shape-padding:0;clip-rule:nonzero;display:inline;overflow:visible;visibility:visible;opacity:0.7;isolation:auto;mix-blend-mode:normal;color-interpolation:sRGB;color-interpolation-filters:linearRGB;solid-color:#000000;solid-opacity:1;vector-effect:none;fill:#cccccc;fill-opacity:1.0;fill-rule:nonzero;stroke:none;stroke-width:0.80000007;stroke-linecap:round;stroke-linejoin:round;stroke-miterlimit:4;stroke-dasharray:none;stroke-dashoffset:2.00314951;stroke-opacity:1;paint-order:normal;color-rendering:auto;image-rendering:auto;shape-rendering:auto;text-rendering:auto;enable-background:accumulate"
       d="m 33.95898,8.996094 a 1.0001,1.0001 0 0 0 -0.26562,0.05273 c 0,0 -0.77575,0.247246 -1.68945,0.634765 -0.026,0.01104 -0.0539,0.02398 -0.0801,0.03516 C 31.40115,9.277093 30.735,9 30,9 c -1.65212,0 -3,1.347884 -3,3 0,0.717059 0.26501,1.367657 0.6875,1.884766 -0.24334,0.608424 -0.45019,1.221586 -0.63867,1.808593 -0.15423,0.480329 -0.31093,0.93057 -0.47461,1.363282 C 26.38812,17.020277 26.19646,17 26,17 c -1.65212,0 -3,1.347884 -3,3 0,0.183819 0.0228,0.362261 0.0547,0.537109 -0.74094,0.305136 -1.36133,0.511719 -1.36133,0.511719 a 1.0001,1.0001 0 1 0 0.61328,1.902344 c 0,0 0.77575,-0.247247 1.68945,-0.634766 0.026,-0.01103 0.0539,-0.02398 0.0801,-0.03516 C 24.59885,22.722907 25.265,23 26,23 c 1.65212,0 3,-1.347884 3,-3 0,-0.717059 -0.26501,-1.367657 -0.6875,-1.884766 0.24334,-0.608424 0.45019,-1.221586 0.63867,-1.808593 0.15423,-0.480329 0.31093,-0.93057 0.47461,-1.363282 C 29.61188,14.979723 29.80354,15 30,15 c 1.65212,0 3,-1.347884 3,-3 0,-0.183819 -0.0228,-0.362261 -0.0547,-0.537109 0.74094,-0.305136 1.36133,-0.511719 1.36133,-0.511719 a 1.0001,1.0001 0 0 0 -0.24805,-1.955078 1.0001,1.0001 0 0 0 -0.0996,0 z"
       id="circle4405" />
  </g>
</svg>
