<?xml version="1.0" encoding="UTF-8" standalone="no"?>
<!-- Created with Inkscape (http://www.inkscape.org/) -->

<svg
   width="24px"
   height="24px"
   viewBox="0 0 24 24"
   version="1.1"
   id="SVGRoot"
   xmlns="http://www.w3.org/2000/svg"
   xmlns:svg="http://www.w3.org/2000/svg"
   xmlns:rdf="http://www.w3.org/1999/02/22-rdf-syntax-ns#"
   xmlns:cc="http://creativecommons.org/ns#"
   xmlns:dc="http://purl.org/dc/elements/1.1/">
  <defs
     id="defs815" />
  <metadata
     id="metadata818">
    <rdf:RDF>
      <cc:Work
         rdf:about="">
        <dc:format>image/svg+xml</dc:format>
        <dc:type
           rdf:resource="http://purl.org/dc/dcmitype/StillImage" />
        <dc:title />
        <dc:creator>
          <cc:Agent>
            <dc:title>Maciej Dworak</dc:title>
          </cc:Agent>
        </dc:creator>
        <dc:rights>
          <cc:Agent>
            <dc:title />
          </cc:Agent>
        </dc:rights>
        <dc:description>RawTherapee icon.</dc:description>
        <cc:license
           rdf:resource="http://creativecommons.org/licenses/by-sa/4.0/" />
      </cc:Work>
      <cc:License
         rdf:about="http://creativecommons.org/licenses/by-sa/4.0/">
        <cc:permits
           rdf:resource="http://creativecommons.org/ns#Reproduction" />
        <cc:permits
           rdf:resource="http://creativecommons.org/ns#Distribution" />
        <cc:requires
           rdf:resource="http://creativecommons.org/ns#Notice" />
        <cc:requires
           rdf:resource="http://creativecommons.org/ns#Attribution" />
        <cc:permits
           rdf:resource="http://creativecommons.org/ns#DerivativeWorks" />
        <cc:requires
           rdf:resource="http://creativecommons.org/ns#ShareAlike" />
      </cc:License>
    </rdf:RDF>
  </metadata>
  <g
     id="layer1">
    <path
       style="opacity:0.7;fill:#cccccc;fill-opacity:1.0;stroke:none;stroke-width:2;stroke-linecap:butt;stroke-linejoin:round;stroke-miterlimit:4;stroke-dasharray:none;stroke-opacity:1;paint-order:normal"
       d="M 12 1 A 11 11 0 0 0 1 12 A 11 11 0 0 0 12 23 A 11 11 0 0 0 23 12 A 11 11 0 0 0 12 1 z M 10.5 3 L 13.5 3 C 14.054 3 14.5 3.446 14.5 4 L 14.5 6 C 14.5 6.554 14.054 7 13.5 7 L 10.5 7 C 9.946 7 9.5 6.554 9.5 6 L 9.5 4 C 9.5 3.446 9.946 3 10.5 3 z M 11 8 L 13 8 L 13 9.0488281 C 14.394164 9.1550621 15.663522 9.4714093 16.689453 9.984375 C 17.625268 10.452282 18.435165 11.128334 18.796875 12 L 16.173828 12 C 16.055628 11.924138 15.944949 11.848447 15.794922 11.773438 C 15.095145 11.423549 14.112595 11.155637 13 11.050781 L 13 16 L 11 16 L 11 11.050781 C 9.8874049 11.155637 8.9048545 11.423547 8.2050781 11.773438 C 8.0550507 11.84845 7.9443723 11.924138 7.8261719 12 L 5.203125 12 C 5.5648349 11.128334 6.3747329 10.452282 7.3105469 9.984375 C 8.3364783 9.4714093 9.6058362 9.1550621 11 9.0488281 L 11 8 z M 4.5 13 L 7.5 13 C 8.054 13 8.5 13.446 8.5 14 L 8.5 16 C 8.5 16.554 8.054 17 7.5 17 L 4.5 17 C 3.946 17 3.5 16.554 3.5 16 L 3.5 14 C 3.5 13.446 3.946 13 4.5 13 z M 16.5 13 L 19.5 13 C 20.054 13 20.5 13.446 20.5 14 L 20.5 16 C 20.5 16.554 20.054 17 19.5 17 L 16.5 17 C 15.946 17 15.5 16.554 15.5 16 L 15.5 14 C 15.5 13.446 15.946 13 16.5 13 z M 10.5 17 L 13.5 17 C 14.054 17 14.5 17.446 14.5 18 L 14.5 20 C 14.5 20.554 14.054 21 13.5 21 L 10.5 21 C 9.946 21 9.5 20.554 9.5 20 L 9.5 18 C 9.5 17.446 9.946 17 10.5 17 z "
       id="path1371" />
  </g>
</svg>
