<?xml version="1.0" encoding="UTF-8" standalone="no"?>
<!-- Created with Inkscape (http://www.inkscape.org/) -->

<svg
   width="16"
   height="16"
   viewBox="0 0 16 16"
   version="1.1"
   id="SVGRoot"
   xmlns="http://www.w3.org/2000/svg"
   xmlns:svg="http://www.w3.org/2000/svg"
   xmlns:rdf="http://www.w3.org/1999/02/22-rdf-syntax-ns#"
   xmlns:cc="http://creativecommons.org/ns#"
   xmlns:dc="http://purl.org/dc/elements/1.1/">
  <defs
     id="defs815" />
  <metadata
     id="metadata818">
    <rdf:RDF>
      <cc:Work
         rdf:about="">
        <dc:format>image/svg+xml</dc:format>
        <dc:type
           rdf:resource="http://purl.org/dc/dcmitype/StillImage" />
        <dc:title />
        <dc:creator>
          <cc:Agent>
            <dc:title>Maciej Dworak</dc:title>
          </cc:Agent>
        </dc:creator>
        <dc:rights>
          <cc:Agent>
            <dc:title />
          </cc:Agent>
        </dc:rights>
        <dc:description>RawTherapee icon.</dc:description>
        <cc:license
           rdf:resource="http://creativecommons.org/licenses/by-sa/4.0/" />
      </cc:Work>
      <cc:License
         rdf:about="http://creativecommons.org/licenses/by-sa/4.0/">
        <cc:permits
           rdf:resource="http://creativecommons.org/ns#Reproduction" />
        <cc:permits
           rdf:resource="http://creativecommons.org/ns#Distribution" />
        <cc:requires
           rdf:resource="http://creativecommons.org/ns#Notice" />
        <cc:requires
           rdf:resource="http://creativecommons.org/ns#Attribution" />
        <cc:permits
           rdf:resource="http://creativecommons.org/ns#DerivativeWorks" />
        <cc:requires
           rdf:resource="http://creativecommons.org/ns#ShareAlike" />
      </cc:License>
    </rdf:RDF>
  </metadata>
  <g
     id="layer1"
     transform="translate(0,-8)">
    <path
       d="m 21.5,18.5 h 13 m -13,-5 h 13 m -4,-3 v 11 m -5,-11 v 11 m -4,-11 h 13 v 11 h -13 z"
       style="opacity:0.7;fill:none;fill-opacity:1;fill-rule:nonzero;stroke:#cccccc;stroke-width:1;stroke-linecap:butt;stroke-linejoin:miter;stroke-miterlimit:4;stroke-dasharray:none;stroke-dashoffset:2;stroke-opacity:1.0;paint-order:normal"
       id="path1207" />
    <path
       id="path108"
       style="opacity:0.7;fill:none;fill-opacity:1;fill-rule:nonzero;stroke:#cccccc;stroke-width:1;stroke-linecap:butt;stroke-linejoin:round;stroke-miterlimit:4;stroke-dasharray:none;stroke-dashoffset:2;stroke-opacity:1.0;paint-order:normal"
       d="M 2.8112464,17.975283 C 7.1188978,17.315578 8.8287055,17.32088 13.188262,17.99448 M 2.7853074,13.943943 c 4.3076514,0.659705 6.0609769,0.7413 10.4205336,0.0677 m -2.922632,-2.196722 c -0.6422099,3.591664 -0.6435523,4.629432 0.04721,8.376771 M 5.7102407,11.813858 c 0.6666667,3.666667 0.5279002,4.730262 -0.1387665,8.396929 M 1.5,10.5 c 4.3333333,2 8.666667,2 13,0 -1.90259,3.567911 -2.095481,7.224565 0,11 -4.413626,-2.041021 -8.7421418,-1.958561 -13,0 2.0486318,-3.719835 1.9508767,-7.383964 0,-11 z" />
  </g>
</svg>
