<?xml version="1.0" encoding="UTF-8" standalone="no"?>
<!-- Created with Inkscape (http://www.inkscape.org/) -->

<svg
   width="16"
   height="16"
   viewBox="0 0 16 16"
   version="1.1"
   id="SVGRoot"
   xmlns="http://www.w3.org/2000/svg"
   xmlns:svg="http://www.w3.org/2000/svg"
   xmlns:rdf="http://www.w3.org/1999/02/22-rdf-syntax-ns#"
   xmlns:cc="http://creativecommons.org/ns#"
   xmlns:dc="http://purl.org/dc/elements/1.1/">
  <defs
     id="defs815" />
  <metadata
     id="metadata818">
    <rdf:RDF>
      <cc:Work
         rdf:about="">
        <dc:format>image/svg+xml</dc:format>
        <dc:type
           rdf:resource="http://purl.org/dc/dcmitype/StillImage" />
        <dc:title />
        <dc:creator>
          <cc:Agent>
            <dc:title>Maciej Dworak</dc:title>
          </cc:Agent>
        </dc:creator>
        <dc:rights>
          <cc:Agent>
            <dc:title />
          </cc:Agent>
        </dc:rights>
        <dc:description>RawTherapee icon.</dc:description>
        <cc:license
           rdf:resource="http://creativecommons.org/licenses/by-sa/4.0/" />
      </cc:Work>
      <cc:License
         rdf:about="http://creativecommons.org/licenses/by-sa/4.0/">
        <cc:permits
           rdf:resource="http://creativecommons.org/ns#Reproduction" />
        <cc:permits
           rdf:resource="http://creativecommons.org/ns#Distribution" />
        <cc:requires
           rdf:resource="http://creativecommons.org/ns#Notice" />
        <cc:requires
           rdf:resource="http://creativecommons.org/ns#Attribution" />
        <cc:permits
           rdf:resource="http://creativecommons.org/ns#DerivativeWorks" />
        <cc:requires
           rdf:resource="http://creativecommons.org/ns#ShareAlike" />
      </cc:License>
    </rdf:RDF>
  </metadata>
  <g
     id="layer1"
     transform="translate(0,-8)">
    <path
       d="m 21.5,18.5 h 13 m -13,-5 h 13 m -4,-3 v 11 m -5,-11 v 11 m -4,-11 h 13 v 11 h -13 z"
       style="opacity:0.7;fill:none;fill-opacity:1;fill-rule:nonzero;stroke:#cccccc;stroke-width:1;stroke-linecap:butt;stroke-linejoin:miter;stroke-miterlimit:4;stroke-dasharray:none;stroke-dashoffset:2;stroke-opacity:1.0;paint-order:normal"
       id="path1207" />
    <path
       id="path936"
       style="opacity:0.7;fill:none;fill-opacity:1;fill-rule:nonzero;stroke:#cccccc;stroke-width:1;stroke-linecap:butt;stroke-linejoin:miter;stroke-miterlimit:4;stroke-dasharray:none;stroke-dashoffset:2;stroke-opacity:1.0;paint-order:normal"
       d="m 1.5,17.5 c 4.3333333,0.666667 8.666667,0.666667 13,0 m -13,-3 c 4.3333333,-0.666667 8.666667,-0.666667 13,0 m -4,-4 c 0.650292,3.616036 0.682877,7.280165 0,11 m -5,-11 c -0.6584443,3.641034 -0.6748477,7.307062 0,11 M 2,11.5 c 4.2825076,-1.305586 7.61369,-1.360845 12,0 0.666667,3 0.666667,6 0,9 -4.413583,1.374278 -7.7421039,1.291863 -12,0 -0.676645,-3.026341 -0.6566267,-6.025562 0,-9 z" />
  </g>
</svg>
