<?xml version="1.0" encoding="UTF-8" standalone="no"?>
<!-- Created with Inkscape (http://www.inkscape.org/) -->

<svg
   width="24px"
   height="24px"
   viewBox="0 0 24 24"
   version="1.1"
   id="SVGRoot"
   xmlns="http://www.w3.org/2000/svg"
   xmlns:svg="http://www.w3.org/2000/svg"
   xmlns:rdf="http://www.w3.org/1999/02/22-rdf-syntax-ns#"
   xmlns:cc="http://creativecommons.org/ns#"
   xmlns:dc="http://purl.org/dc/elements/1.1/">
  <defs
     id="defs815" />
  <metadata
     id="metadata818">
    <rdf:RDF>
      <cc:Work
         rdf:about="">
        <dc:format>image/svg+xml</dc:format>
        <dc:type
           rdf:resource="http://purl.org/dc/dcmitype/StillImage" />
        <dc:title />
        <dc:creator>
          <cc:Agent>
            <dc:title>Maciej Dworak</dc:title>
          </cc:Agent>
        </dc:creator>
        <dc:rights>
          <cc:Agent>
            <dc:title />
          </cc:Agent>
        </dc:rights>
        <dc:description>RawTherapee icon.</dc:description>
        <cc:license
           rdf:resource="http://creativecommons.org/licenses/by-sa/4.0/" />
      </cc:Work>
      <cc:License
         rdf:about="http://creativecommons.org/licenses/by-sa/4.0/">
        <cc:permits
           rdf:resource="http://creativecommons.org/ns#Reproduction" />
        <cc:permits
           rdf:resource="http://creativecommons.org/ns#Distribution" />
        <cc:requires
           rdf:resource="http://creativecommons.org/ns#Notice" />
        <cc:requires
           rdf:resource="http://creativecommons.org/ns#Attribution" />
        <cc:permits
           rdf:resource="http://creativecommons.org/ns#DerivativeWorks" />
        <cc:requires
           rdf:resource="http://creativecommons.org/ns#ShareAlike" />
      </cc:License>
    </rdf:RDF>
  </metadata>
  <g
     id="layer1">
    <path
       id="path1994"
       style="fill:none;fill-rule:evenodd;stroke:#c00000;stroke-width:4;stroke-linecap:butt;stroke-linejoin:miter;stroke-miterlimit:4;stroke-dasharray:none;stroke-opacity:1.0"
       d="M 22,10 12,20 m 0,-10 10,10" />
    <path
       style="color:#000000;font-style:normal;font-variant:normal;font-weight:normal;font-stretch:normal;font-size:medium;line-height:normal;font-family:sans-serif;font-variant-ligatures:normal;font-variant-position:normal;font-variant-caps:normal;font-variant-numeric:normal;font-variant-alternates:normal;font-feature-settings:normal;text-indent:0;text-align:start;text-decoration:none;text-decoration-line:none;text-decoration-style:solid;text-decoration-color:#000000;letter-spacing:normal;word-spacing:normal;text-transform:none;writing-mode:lr-tb;direction:ltr;text-orientation:mixed;dominant-baseline:auto;baseline-shift:baseline;text-anchor:start;white-space:normal;shape-padding:0;clip-rule:nonzero;display:inline;overflow:visible;visibility:visible;opacity:0.5;isolation:auto;mix-blend-mode:normal;color-interpolation:sRGB;color-interpolation-filters:linearRGB;solid-color:#000000;solid-opacity:1;vector-effect:none;fill:#cccccc;fill-opacity:1.0;fill-rule:nonzero;stroke:none;stroke-width:2.20000005;stroke-linecap:round;stroke-linejoin:round;stroke-miterlimit:4;stroke-dasharray:none;stroke-dashoffset:0;stroke-opacity:1;paint-order:normal;color-rendering:auto;image-rendering:auto;shape-rendering:auto;text-rendering:auto;enable-background:accumulate"
       d="M 12 1 C 9.2001368 1 6.6689302 1.2460971 4.7617188 1.6699219 C 3.808113 1.8818343 3.014222 2.1307561 2.3671875 2.4707031 C 2.0436702 2.6406766 1.7503654 2.8309539 1.4921875 3.1113281 C 1.2340096 3.3917023 1 3.8145056 1 4.3007812 C 1 4.787057 1.2642234 5.1828342 1.4921875 5.4882812 C 4.6412607 9.7076951 7.4906518 13.23657 10 17 L 10 17.050781 L 12.050781 15 L 8.5253906 11.474609 L 13.019531 6.9804688 A 8.5 2 0 0 1 11.958984 7 A 8.5 2 0 0 1 3.4589844 5 A 8.5 2 0 0 1 11.958984 3 A 8.5 2 0 0 1 20.458984 5 A 8.5 2 0 0 1 13.894531 6.9453125 L 17 10.050781 L 20.525391 6.5253906 L 21.210938 7.2109375 C 21.645711 6.638829 22.08505 6.0704012 22.507812 5.4882812 C 22.731779 5.1798914 23 4.7870571 23 4.3007812 C 23 3.8145056 22.76599 3.3917023 22.507812 3.1113281 C 22.249636 2.8309539 21.956332 2.6406766 21.632812 2.4707031 C 20.985778 2.1307561 20.191887 1.8818343 19.238281 1.6699219 C 17.33107 1.2460971 14.799863 1 12 1 z M 10 20 L 10 22 C 10.000055 22.552262 10.447738 22.999945 11 23 L 12 23 L 12.5 22.5 L 10 20 z "
       id="path1142" />
  </g>
</svg>
