<?xml version="1.0" encoding="UTF-8" standalone="no"?>
<!-- Created with Inkscape (http://www.inkscape.org/) -->

<svg
   width="24px"
   height="24px"
   viewBox="0 0 24 24"
   version="1.1"
   id="SVGRoot"
   xmlns="http://www.w3.org/2000/svg"
   xmlns:svg="http://www.w3.org/2000/svg"
   xmlns:rdf="http://www.w3.org/1999/02/22-rdf-syntax-ns#"
   xmlns:cc="http://creativecommons.org/ns#"
   xmlns:dc="http://purl.org/dc/elements/1.1/">
  <defs
     id="defs815">
    <linearGradient
       id="linearGradient5654">
      <stop
         style="stop-color:#2a7fff;stop-opacity:1;"
         offset="0"
         id="stop5656" />
      <stop
         style="stop-color:#2a7fff;stop-opacity:0.78431374;"
         offset="1"
         id="stop5658" />
    </linearGradient>
  </defs>
  <metadata
     id="metadata818">
    <rdf:RDF>
      <cc:Work
         rdf:about="">
        <dc:format>image/svg+xml</dc:format>
        <dc:type
           rdf:resource="http://purl.org/dc/dcmitype/StillImage" />
        <dc:title />
        <dc:creator>
          <cc:Agent>
            <dc:title>Maciej Dworak</dc:title>
          </cc:Agent>
        </dc:creator>
        <dc:rights>
          <cc:Agent>
            <dc:title />
          </cc:Agent>
        </dc:rights>
        <dc:description>RawTherapee icon.</dc:description>
        <cc:license
           rdf:resource="http://creativecommons.org/licenses/by-sa/4.0/" />
      </cc:Work>
      <cc:License
         rdf:about="http://creativecommons.org/licenses/by-sa/4.0/">
        <cc:permits
           rdf:resource="http://creativecommons.org/ns#Reproduction" />
        <cc:permits
           rdf:resource="http://creativecommons.org/ns#Distribution" />
        <cc:requires
           rdf:resource="http://creativecommons.org/ns#Notice" />
        <cc:requires
           rdf:resource="http://creativecommons.org/ns#Attribution" />
        <cc:permits
           rdf:resource="http://creativecommons.org/ns#DerivativeWorks" />
        <cc:requires
           rdf:resource="http://creativecommons.org/ns#ShareAlike" />
      </cc:License>
    </rdf:RDF>
  </metadata>
  <g
     id="layer1">
    <path
       style="color:#000000;font-style:normal;font-variant:normal;font-weight:normal;font-stretch:normal;font-size:medium;line-height:normal;font-family:sans-serif;font-variant-ligatures:normal;font-variant-position:normal;font-variant-caps:normal;font-variant-numeric:normal;font-variant-alternates:normal;font-feature-settings:normal;text-indent:0;text-align:start;text-decoration:none;text-decoration-line:none;text-decoration-style:solid;text-decoration-color:#000000;letter-spacing:normal;word-spacing:normal;text-transform:none;writing-mode:lr-tb;direction:ltr;text-orientation:mixed;dominant-baseline:auto;baseline-shift:baseline;text-anchor:start;white-space:normal;shape-padding:0;clip-rule:nonzero;display:inline;overflow:visible;visibility:visible;opacity:0.5;isolation:auto;mix-blend-mode:normal;color-interpolation:sRGB;color-interpolation-filters:linearRGB;solid-color:#000000;solid-opacity:1;vector-effect:none;fill:#cccccc;fill-opacity:1.0;fill-rule:nonzero;stroke:none;stroke-width:1.99999988;stroke-linecap:butt;stroke-linejoin:round;stroke-miterlimit:4;stroke-dasharray:none;stroke-dashoffset:0;stroke-opacity:1;color-rendering:auto;image-rendering:auto;shape-rendering:auto;text-rendering:auto;enable-background:accumulate"
       d="M 3.78125,3 C 3.3910069,3 2.938626,3.028711 2.5175781,3.3886719 2.0965302,3.7486328 1.9903901,4.3049403 2,4.6992188 V 8 C 2.0011322,7.448501 2.4484999,7.000054 3,7 h 17 c 0.553025,5.43e-5 1.001,0.4469755 1,1 V 6 C 21.002654,5.6179254 20.908245,5.2579307 20.486328,4.8925781 20.064411,4.5272255 19.609647,4.5 19.21875,4.5 H 9.5917969 L 9.1445312,3.6875 C 9.0851567,3.5795928 9.0063608,3.4835811 8.9121094,3.4042969 8.7041886,3.2292307 8.3941119,3 7.8789062,3 Z M 21,20 c -5.67e-4,0.275749 -0.112048,0.525975 -0.292969,0.707031 C 20.887992,20.526071 20.999973,20.276131 21,20 Z"
       id="path1047" />
    <path
       style="color:#000000;font-style:normal;font-variant:normal;font-weight:normal;font-stretch:normal;font-size:medium;line-height:normal;font-family:sans-serif;font-variant-ligatures:normal;font-variant-position:normal;font-variant-caps:normal;font-variant-numeric:normal;font-variant-alternates:normal;font-feature-settings:normal;text-indent:0;text-align:start;text-decoration:none;text-decoration-line:none;text-decoration-style:solid;text-decoration-color:#000000;letter-spacing:normal;word-spacing:normal;text-transform:none;writing-mode:lr-tb;direction:ltr;text-orientation:mixed;dominant-baseline:auto;baseline-shift:baseline;text-anchor:start;white-space:normal;shape-padding:0;clip-rule:nonzero;display:inline;overflow:visible;visibility:visible;opacity:0.7;isolation:auto;mix-blend-mode:normal;color-interpolation:sRGB;color-interpolation-filters:linearRGB;solid-color:#000000;solid-opacity:1;vector-effect:none;fill:#cccccc;fill-opacity:1.0;fill-rule:nonzero;stroke:none;stroke-width:1.93218362;stroke-linecap:round;stroke-linejoin:round;stroke-miterlimit:4;stroke-dasharray:none;stroke-dashoffset:0;stroke-opacity:1;paint-order:normal;color-rendering:auto;image-rendering:auto;shape-rendering:auto;text-rendering:auto;enable-background:accumulate"
       d="M 3,7 C 2.4484999,7.0000504 2.0011322,7.4186009 2,7.9333333 V 20.066667 C 2.0000552,20.582111 2.4477381,20.999949 3,21 h 17 c 0.5515,-5e-5 0.998867,-0.418601 1,-0.933333 V 7.9333333 C 21.001,7.4171771 20.553025,7.0000507 20,7 Z"
       id="rect1030" />
    <path
       id="path892-4"
       style="display:inline;opacity:0.5;fill:#ffffff;fill-opacity:1.0;fill-rule:evenodd;stroke:none;stroke-width:4.52244794pt"
       d="m 6,19 h 4 v -5 h 3 v 5 h 4 v -5 h 2 L 11.5,8 4,14 h 2 c -0.0029,2.001757 -0.099937,3.001237 0,5 z" />
    <path
       d="m -20,6.174499 c 0.0035,-0.5038176 -0.192068,-0.6745038 -0.780475,-0.6745038 h -10.219474 l -0.73154,-1.3313425 c -0.103908,-0.087489 -0.243318,-0.1686528 -0.390241,-0.1686528 h -4.097503 c -0.580419,0 -0.792676,0.1741842 -0.780481,0.6745242 L -37,20 h 17 c 0,-3.755335 0,-9.217001 0,-13.825501 z"
       id="path824"
       style="opacity:0.5;fill:#cccccc;fill-opacity:1.0;stroke:#cccccc;stroke-width:1.99999988;stroke-linejoin:round;stroke-miterlimit:4;stroke-dasharray:none;stroke-opacity:1.0" />
    <path
       id="path826"
       d="m -37,7 h 16.978245 l -0.01968,12.977327 h -16.978246 z"
       style="opacity:0.7;fill:#cccccc;fill-opacity:1.0;stroke:#cccccc;stroke-width:2;stroke-linecap:round;stroke-linejoin:round;stroke-miterlimit:4;stroke-dasharray:none;stroke-opacity:1.0;paint-order:normal" />
    <path
       d="m -34,19 h 4 v -5 h 3 v 5 h 4 v -5 h 2 l -7.5,-6 -7.5,6 h 2 c -0.0029,2.001757 -0.09994,3.001237 0,5 z"
       style="display:inline;opacity:0.7;fill:#ffffff;fill-opacity:1.0;fill-rule:evenodd;stroke:none;stroke-width:4.52244794pt"
       id="path828" />
  </g>
</svg>
