<?xml version="1.0" encoding="UTF-8" standalone="no"?>
<!-- Created with Inkscape (http://www.inkscape.org/) -->

<svg
   width="24px"
   height="24px"
   viewBox="0 0 24 24"
   version="1.1"
   id="SVGRoot"
   xmlns="http://www.w3.org/2000/svg"
   xmlns:svg="http://www.w3.org/2000/svg"
   xmlns:rdf="http://www.w3.org/1999/02/22-rdf-syntax-ns#"
   xmlns:cc="http://creativecommons.org/ns#"
   xmlns:dc="http://purl.org/dc/elements/1.1/">
  <defs
     id="defs815" />
  <metadata
     id="metadata818">
    <rdf:RDF>
      <cc:Work
         rdf:about="">
        <dc:format>image/svg+xml</dc:format>
        <dc:type
           rdf:resource="http://purl.org/dc/dcmitype/StillImage" />
        <dc:title />
        <dc:creator>
          <cc:Agent>
            <dc:title>Maciej Dworak</dc:title>
          </cc:Agent>
        </dc:creator>
        <dc:rights>
          <cc:Agent>
            <dc:title />
          </cc:Agent>
        </dc:rights>
        <dc:description>RawTherapee icon.</dc:description>
        <cc:license
           rdf:resource="http://creativecommons.org/licenses/by-sa/4.0/" />
      </cc:Work>
      <cc:License
         rdf:about="http://creativecommons.org/licenses/by-sa/4.0/">
        <cc:permits
           rdf:resource="http://creativecommons.org/ns#Reproduction" />
        <cc:permits
           rdf:resource="http://creativecommons.org/ns#Distribution" />
        <cc:requires
           rdf:resource="http://creativecommons.org/ns#Notice" />
        <cc:requires
           rdf:resource="http://creativecommons.org/ns#Attribution" />
        <cc:permits
           rdf:resource="http://creativecommons.org/ns#DerivativeWorks" />
        <cc:requires
           rdf:resource="http://creativecommons.org/ns#ShareAlike" />
      </cc:License>
    </rdf:RDF>
  </metadata>
  <g
     id="layer1">
    <path
       style="opacity:0.7;fill:#cccccc;fill-opacity:1.0;stroke:#cccccc;stroke-width:2;stroke-linejoin:round;stroke-miterlimit:4;stroke-dasharray:none;stroke-opacity:1.0"
       id="path818"
       d="m 58.897478,6.1910093 c 0.0037,-0.5023898 -0.203811,-0.6725922 -0.828193,-0.6725922 h -9.78321 L 47.509809,4.1908478 C 47.399548,4.1036067 47.251614,4.022673 47.095708,4.022673 h -4.348025 c -0.615906,0 -0.841141,0.1736905 -0.8282,0.6726125 l 1.9e-5,14.2848655 1.060817,0.997176 L 58.897519,20 Z" />
    <path
       id="path820"
       d="M 45.1026,8.0113383 H 62.080845 L 59.958564,19.977327 H 42.980319 Z"
       style="opacity:1;fill:#cccccc;fill-opacity:1.0;stroke:#cccccc;stroke-width:2;stroke-linecap:round;stroke-linejoin:round;stroke-miterlimit:4;stroke-dasharray:none;stroke-opacity:1.0;paint-order:normal" />
    <path
       id="path822"
       d="m 55,7.9999999 c -3.578527,0 -7.371802,2.6695951 -8.489642,5.9689301 h -1.760574 l 1.421822,4.062427 4.163764,-4.062427 h -1.658659 c 0.749949,-2.194497 3.274733,-3.968355 5.656431,-3.968355 2.393147,0 3.735922,1.790366 2.999569,3.999425 -0.736353,2.209058 -3.272993,4.000288 -5.66614,4.000288 -0.790726,0 -1.455407,-0.221208 -1.979717,-0.562716 l -1.665853,1.749424 C 48.806878,19.697516 49.816091,20 51,20 54.58973,20 58.394539,17.313579 59.499065,14 60.603597,10.686405 58.58973,7.9999999 55,7.9999999 Z M 53.221159,11 l -1,3 -0.333429,1.000288 h 3.52021 L 55.741369,14 h -2.436564 l 1,-3 z"
       style="display:inline;opacity:0.7;fill:#ffffff;fill-opacity:1.0;stroke:none;stroke-width:1;enable-background:new" />
    <path
       id="path1049"
       d="m -28,6.0000007 h 16 l -2,11.9999983 h -16 z"
       style="opacity:1;fill:#cccccc;fill-opacity:1.0;stroke:#cccccc;stroke-width:2;stroke-linecap:round;stroke-linejoin:round;stroke-miterlimit:4;stroke-dasharray:none;stroke-opacity:1.0;paint-order:normal" />
    <path
       style="color:#000000;font-style:normal;font-variant:normal;font-weight:normal;font-stretch:normal;font-size:medium;line-height:normal;font-family:sans-serif;font-variant-ligatures:normal;font-variant-position:normal;font-variant-caps:normal;font-variant-numeric:normal;font-variant-alternates:normal;font-feature-settings:normal;text-indent:0;text-align:start;text-decoration:none;text-decoration-line:none;text-decoration-style:solid;text-decoration-color:#000000;letter-spacing:normal;word-spacing:normal;text-transform:none;writing-mode:lr-tb;direction:ltr;text-orientation:mixed;dominant-baseline:auto;baseline-shift:baseline;text-anchor:start;white-space:normal;shape-padding:0;clip-rule:nonzero;display:inline;overflow:visible;visibility:visible;opacity:0.5;isolation:auto;mix-blend-mode:normal;color-interpolation:sRGB;color-interpolation-filters:linearRGB;solid-color:#000000;solid-opacity:1;vector-effect:none;fill:#cccccc;fill-opacity:1.0;fill-rule:nonzero;stroke:none;stroke-width:2;stroke-linecap:butt;stroke-linejoin:round;stroke-miterlimit:4;stroke-dasharray:none;stroke-dashoffset:0;stroke-opacity:1;color-rendering:auto;image-rendering:auto;shape-rendering:auto;text-rendering:auto;enable-background:accumulate"
       d="m 2.7480469,3.0234375 c -0.4019557,0 -0.8445887,0.021476 -1.2773438,0.3691406 -0.432755,0.3476647 -0.56122861,0.9253282 -0.55078122,1.328125 V 18.980469 c -1.2225e-4,0.27581 0.11366392,0.539426 0.31445312,0.728515 0.3592033,0.399022 0.725239,0.72763 1.1072755,1.069587 C 2.18484,20.637959 1.9222112,20.388715 1.9960938,19.969861 L 4.1171875,9.8242187 C 4.202512,9.3466019 4.618338,8.9991196 5.1035156,9 H 19.898438 V 6.1914062 l -0.002,0.00781 C 19.899411,5.809511 19.783498,5.2436933 19.349609,4.890625 18.915721,4.5375567 18.471415,4.5175781 18.068359,4.5175781 H 8.859375 L 8.3730469,3.6855469 C 8.3103752,3.5782068 8.2282432,3.48349 8.1308594,3.40625 7.9152862,3.2356833 7.5976883,3.0234375 7.0957031,3.0234375 Z"
       id="path1026" />
    <path
       style="opacity:0.7;fill:#cccccc;fill-opacity:1.0;stroke:#cccccc;stroke-width:1.99999988;stroke-linejoin:round;stroke-miterlimit:4;stroke-dasharray:none;stroke-opacity:1.0"
       id="path1047"
       d="m -15.999949,4.174499 c 0.0035,-0.5038176 -0.192068,-0.6745038 -0.780475,-0.6745038 h -9.219525 l -0.73154,-1.3313425 c -0.103908,-0.087489 -0.243318,-0.1686528 -0.390241,-0.1686528 h -4.097503 c -0.580419,0 -0.792676,0.1741842 -0.780481,0.6745242 l 1.8e-5,14.3254659 h 15.999786 z" />
    <path
       style="color:#000000;font-style:normal;font-variant:normal;font-weight:normal;font-stretch:normal;font-size:medium;line-height:normal;font-family:sans-serif;font-variant-ligatures:normal;font-variant-position:normal;font-variant-caps:normal;font-variant-numeric:normal;font-variant-alternates:normal;font-feature-settings:normal;text-indent:0;text-align:start;text-decoration:none;text-decoration-line:none;text-decoration-style:solid;text-decoration-color:#000000;letter-spacing:normal;word-spacing:normal;text-transform:none;writing-mode:lr-tb;direction:ltr;text-orientation:mixed;dominant-baseline:auto;baseline-shift:baseline;text-anchor:start;white-space:normal;shape-padding:0;clip-rule:nonzero;display:inline;overflow:visible;visibility:visible;opacity:0.9;isolation:auto;mix-blend-mode:normal;color-interpolation:sRGB;color-interpolation-filters:linearRGB;solid-color:#000000;solid-opacity:1;vector-effect:none;fill:#cccccc;fill-opacity:1.0;fill-rule:nonzero;stroke:none;stroke-width:1.85215795;stroke-linecap:round;stroke-linejoin:round;stroke-miterlimit:4;stroke-dasharray:none;stroke-dashoffset:0;stroke-opacity:1;paint-order:normal;color-rendering:auto;image-rendering:auto;shape-rendering:auto;text-rendering:auto;enable-background:accumulate"
       d="M 5.1035156,9.0000014 C 4.618338,8.9992463 4.202512,9.2972549 4.1171875,9.7068697 L 1.9960938,19.969861 c -0.1079822,0.525011 0.3627547,1.006424 0.984375,1.006701 H 19.958984 c 0.484441,-5.8e-5 0.899179,-0.297876 0.984375,-0.706868 L 23.066406,10.006703 C 23.174527,9.4810223 22.702491,8.9992366 22.080078,9.0000014 Z"
       id="rect1030" />
    <path
       style="display:inline;opacity:0.5;fill:#ffffff;fill-opacity:1.0;stroke:none;stroke-width:0.92607898;enable-background:new"
       d="m 15,9.8475733 c -3.578527,0 -7.371802,2.2895037 -8.4896424,5.1190877 H 4.7497836 L 6.1716063,18.450689 10.33537,14.966661 H 8.6767106 c 0.749949,-1.88205 3.2747334,-3.40335 5.6564314,-3.40335 2.393147,0 3.735922,1.535458 2.999569,3.429996 -0.736353,1.894537 -3.272993,3.430736 -5.66614,3.430736 -0.790726,0 -1.455407,-0.189713 -1.9797173,-0.482598 L 8.0210013,19.44179 C 8.806878,19.879624 9.816091,20.139041 11,20.139041 c 3.58973,0 7.394539,-2.303935 8.499065,-5.145734 C 20.603597,12.151494 18.58973,9.8475733 15,9.8475733 Z m -1.778841,2.5728667 -1,2.572867 -0.333429,0.857869 h 3.52021 l 0.333429,-0.857869 h -2.436564 l 1,-2.572867 z"
       id="path1068" />
  </g>
</svg>
