<?xml version="1.0" encoding="UTF-8" standalone="no"?>
<!-- Created with Inkscape (http://www.inkscape.org/) -->

<svg
   width="24px"
   height="24px"
   viewBox="0 0 24 24"
   version="1.1"
   id="SVGRoot"
   xmlns="http://www.w3.org/2000/svg"
   xmlns:svg="http://www.w3.org/2000/svg"
   xmlns:rdf="http://www.w3.org/1999/02/22-rdf-syntax-ns#"
   xmlns:cc="http://creativecommons.org/ns#"
   xmlns:dc="http://purl.org/dc/elements/1.1/">
  <defs
     id="defs815" />
  <metadata
     id="metadata818">
    <rdf:RDF>
      <cc:Work
         rdf:about="">
        <dc:format>image/svg+xml</dc:format>
        <dc:type
           rdf:resource="http://purl.org/dc/dcmitype/StillImage" />
        <dc:title />
        <dc:creator>
          <cc:Agent>
            <dc:title>Maciej Dworak</dc:title>
          </cc:Agent>
        </dc:creator>
        <dc:rights>
          <cc:Agent>
            <dc:title />
          </cc:Agent>
        </dc:rights>
        <dc:description>RawTherapee icon.</dc:description>
        <cc:license
           rdf:resource="http://creativecommons.org/licenses/by-sa/4.0/" />
      </cc:Work>
      <cc:License
         rdf:about="http://creativecommons.org/licenses/by-sa/4.0/">
        <cc:permits
           rdf:resource="http://creativecommons.org/ns#Reproduction" />
        <cc:permits
           rdf:resource="http://creativecommons.org/ns#Distribution" />
        <cc:requires
           rdf:resource="http://creativecommons.org/ns#Notice" />
        <cc:requires
           rdf:resource="http://creativecommons.org/ns#Attribution" />
        <cc:permits
           rdf:resource="http://creativecommons.org/ns#DerivativeWorks" />
        <cc:requires
           rdf:resource="http://creativecommons.org/ns#ShareAlike" />
      </cc:License>
    </rdf:RDF>
  </metadata>
  <g
     id="layer1">
    <path
       style="display:inline;opacity:0.9;fill:#cccccc;fill-opacity:1.0;stroke:none;stroke-width:0.0348262"
       d="M 15.508539,5.678052 12.000003,1 8.4914612,5.678052 Z"
       id="path2866" />
    <path
       id="path3605"
       d="M 8.4914611,18.321948 11.999997,23 15.508539,18.321948 Z"
       style="display:inline;opacity:0.9;fill:#cccccc;fill-opacity:1.0;stroke:none;stroke-width:0.0348262" />
    <path
       style="display:inline;opacity:0.9;fill:#cccccc;fill-opacity:1.0;stroke:none;stroke-width:0.0348262"
       d="M 18.321948,15.508539 23,12.000003 18.321948,8.491461 Z"
       id="path3607" />
    <path
       id="path3609"
       d="M 5.678052,8.491461 1,11.999997 5.678052,15.508539 Z"
       style="display:inline;opacity:0.9;fill:#cccccc;fill-opacity:1.0;stroke:none;stroke-width:0.0348262" />
    <path
       style="color:#000000;font-style:normal;font-variant:normal;font-weight:normal;font-stretch:normal;font-size:medium;line-height:normal;font-family:sans-serif;font-variant-ligatures:normal;font-variant-position:normal;font-variant-caps:normal;font-variant-numeric:normal;font-variant-alternates:normal;font-feature-settings:normal;text-indent:0;text-align:start;text-decoration:none;text-decoration-line:none;text-decoration-style:solid;text-decoration-color:#000000;letter-spacing:normal;word-spacing:normal;text-transform:none;writing-mode:lr-tb;direction:ltr;text-orientation:mixed;dominant-baseline:auto;baseline-shift:baseline;text-anchor:start;white-space:normal;shape-padding:0;clip-rule:nonzero;display:inline;overflow:visible;visibility:visible;opacity:0.7;isolation:auto;mix-blend-mode:normal;color-interpolation:sRGB;color-interpolation-filters:linearRGB;solid-color:#000000;solid-opacity:1;vector-effect:none;fill:#cccccc;fill-opacity:1.0;fill-rule:nonzero;stroke:none;stroke-width:2;stroke-linecap:round;stroke-linejoin:miter;stroke-miterlimit:4;stroke-dasharray:none;stroke-dashoffset:0;stroke-opacity:1;paint-order:normal;color-rendering:auto;image-rendering:auto;shape-rendering:auto;text-rendering:auto;enable-background:accumulate"
       d="M 8.1523438 7 C 7.5310292 7 7 7.5310292 7 8.1523438 L 7 15.847656 C 7 16.468973 7.5310276 17 8.1523438 17 L 15.847656 17 C 16.468974 17 17 16.468974 17 15.847656 L 17 8.1523438 C 17 7.5310276 16.468973 7 15.847656 7 L 8.1523438 7 z M 12.5 8 A 0.5 0.5 0 0 1 13 8.5 A 0.5 0.5 0 0 1 12.5 9 A 0.5 0.5 0 0 1 12 8.5 A 0.5 0.5 0 0 1 12.5 8 z M 14 8 A 0.5 0.5 0 0 1 14.5 8.5 A 0.5 0.5 0 0 1 14 9 A 0.5 0.5 0 0 1 13.5 8.5 A 0.5 0.5 0 0 1 14 8 z M 15.5 8 A 0.5 0.5 0 0 1 16 8.5 A 0.5 0.5 0 0 1 15.5 9 A 0.5 0.5 0 0 1 15 8.5 A 0.5 0.5 0 0 1 15.5 8 z M 9 10 L 15 10 L 15 15 L 9 15 L 9 10 z "
       id="rect3613" />
    <rect
       rx="0.15272817"
       ry="0.15272817"
       y="8"
       x="-18"
       height="8"
       width="8"
       id="rect3655"
       style="opacity:0.7;fill:#cccccc;fill-opacity:1.0;fill-rule:nonzero;stroke:#cccccc;stroke-width:2;stroke-linecap:round;stroke-linejoin:miter;stroke-miterlimit:4;stroke-dasharray:none;stroke-opacity:1.0;paint-order:normal" />
  </g>
</svg>
