<?xml version="1.0" encoding="UTF-8" standalone="no"?>
<!-- Created with Inkscape (http://www.inkscape.org/) -->

<svg
   width="16"
   height="16"
   viewBox="0 0 16 16"
   version="1.1"
   id="SVGRoot"
   xmlns="http://www.w3.org/2000/svg"
   xmlns:svg="http://www.w3.org/2000/svg"
   xmlns:rdf="http://www.w3.org/1999/02/22-rdf-syntax-ns#"
   xmlns:cc="http://creativecommons.org/ns#"
   xmlns:dc="http://purl.org/dc/elements/1.1/">
  <defs
     id="defs815" />
  <metadata
     id="metadata818">
    <rdf:RDF>
      <cc:Work
         rdf:about="">
        <dc:format>image/svg+xml</dc:format>
        <dc:type
           rdf:resource="http://purl.org/dc/dcmitype/StillImage" />
        <dc:title />
        <dc:creator>
          <cc:Agent>
            <dc:title>Maciej Dworak</dc:title>
          </cc:Agent>
        </dc:creator>
        <dc:rights>
          <cc:Agent>
            <dc:title />
          </cc:Agent>
        </dc:rights>
        <dc:description>RawTherapee icon.</dc:description>
        <cc:license
           rdf:resource="http://creativecommons.org/licenses/by-sa/4.0/" />
      </cc:Work>
      <cc:License
         rdf:about="http://creativecommons.org/licenses/by-sa/4.0/">
        <cc:permits
           rdf:resource="http://creativecommons.org/ns#Reproduction" />
        <cc:permits
           rdf:resource="http://creativecommons.org/ns#Distribution" />
        <cc:requires
           rdf:resource="http://creativecommons.org/ns#Notice" />
        <cc:requires
           rdf:resource="http://creativecommons.org/ns#Attribution" />
        <cc:permits
           rdf:resource="http://creativecommons.org/ns#DerivativeWorks" />
        <cc:requires
           rdf:resource="http://creativecommons.org/ns#ShareAlike" />
      </cc:License>
    </rdf:RDF>
  </metadata>
  <g
     id="layer1"
     transform="translate(0,-8)">
    <g
       id="g1410"
       transform="matrix(0.64773487,0,0,0.64773487,-2.4887335,3.5677019)"
       style="stroke-width:1.5438416">
      <g
         id="g1553"
         transform="translate(4.0000001,6.9999999)"
         style="stroke-width:1.5438416">
        <path
           style="display:block;overflow:visible;visibility:visible;opacity:0.7;fill:#cccccc;fill-opacity:1.0;fill-rule:nonzero;stroke:none;stroke-width:2.38783646;marker:none;enable-background:accumulate"
           d="m 10.537109,8.0898438 c -0.211221,0.0041 -0.41173,0.1350069 -0.498047,0.3457031 L 9.6328125,9.4238281 C 9.0850261,9.3530839 8.532702,9.3593515 7.9980469,9.4335938 L 7.5820312,8.4414062 C 7.5233856,8.3013867 7.4249475,8.2002225 7.296875,8.1464844 7.1688024,8.092654 7.0204761,8.0849622 6.8828125,8.1425781 l -1.9414063,0.8125 C 4.6660746,9.0703706 4.5447605,9.3840079 4.6621094,9.6640625 L 5.078125,10.65625 C 4.6501102,10.985138 4.2577251,11.374483 3.9238281,11.814453 L 2.9355469,11.410156 c -0.2809253,-0.11508 -0.6016909,0.01481 -0.7148438,0.291016 l -0.7949219,1.9375 c -0.1131575,0.276202 0.023753,0.593896 0.3046876,0.708984 l 0.9902343,0.40625 c -0.070759,0.547778 -0.064487,1.100118 0.00977,1.634766 l -0.9921876,0.416016 c -0.2800485,0.11726 -0.4140479,0.423933 -0.2988281,0.699218 l 0.8125,1.941406 c 0.1152774,0.275308 0.4270131,0.394607 0.7070313,0.277344 L 3.953125,19.308594 c 0.3289062,0.428001 0.7182608,0.820391 1.1582031,1.154297 l -0.4042969,0.988281 c -0.1150956,0.280927 0.012828,0.601682 0.2890626,0.714844 l 1.9394531,0.794922 c 0.2762251,0.113158 0.5938977,-0.02571 0.7089843,-0.306641 l 0.4042969,-0.988281 c 0.5477577,0.07073 1.1020638,0.06442 1.6367188,-0.0098 l 0.4160151,0.992188 c 0.117262,0.28002 0.423918,0.414134 0.699219,0.298828 l 1.941407,-0.8125 c 0.275331,-0.115292 0.394692,-0.428929 0.277343,-0.708985 L 12.603516,20.43356 c 0.428013,-0.328887 0.820398,-0.718232 1.154296,-1.158203 l 0.990235,0.404297 c 0.280927,0.115096 0.601691,-0.01482 0.714844,-0.291016 l 0.792968,-1.9375 c 0.113157,-0.276206 -0.02378,-0.593909 -0.304687,-0.708984 l -0.990234,-0.404297 c 0.07076,-0.547774 0.06641,-1.102067 -0.0078,-1.636719 l 0.992187,-0.416016 c 0.280018,-0.117261 0.414019,-0.423943 0.298829,-0.699218 l -0.8125,-1.941407 c -0.115308,-0.275319 -0.42895,-0.394565 -0.708985,-0.277343 l -0.992187,0.414062 C 13.401576,11.353212 13.01027,10.962778 12.570325,10.628872 l 0.40625,-0.9902341 C 13.091658,9.3577467 12.961753,9.036978 12.685547,8.9238281 l -1.9375,-0.7949219 C 10.67899,8.100617 10.607516,8.0884757 10.537109,8.0898438 Z M 8.7949219,11.279297 c 0.556123,-0.0064 1.1220645,0.09633 1.6640621,0.318359 2.169445,0.888721 3.220743,3.397176 2.332032,5.566406 -0.888787,2.169405 -3.3971286,3.218726 -5.5664066,2.330079 C 5.0555234,18.605569 4.001548,16.097848 4.890625,13.927734 5.557451,12.300096 7.1297769,11.298487 8.7949219,11.279297 Z"
           id="rect3267" />
        <path
           style="color:#000000;font-style:normal;font-variant:normal;font-weight:normal;font-stretch:normal;font-size:medium;line-height:normal;font-family:sans-serif;font-variant-ligatures:normal;font-variant-position:normal;font-variant-caps:normal;font-variant-numeric:normal;font-variant-alternates:normal;font-feature-settings:normal;text-indent:0;text-align:start;text-decoration:none;text-decoration-line:none;text-decoration-style:solid;text-decoration-color:#000000;letter-spacing:normal;word-spacing:normal;text-transform:none;writing-mode:lr-tb;direction:ltr;text-orientation:mixed;dominant-baseline:auto;baseline-shift:baseline;text-anchor:start;white-space:normal;shape-padding:0;clip-rule:nonzero;display:inline;overflow:visible;visibility:visible;opacity:0.5;isolation:auto;mix-blend-mode:normal;color-interpolation:sRGB;color-interpolation-filters:linearRGB;solid-color:#000000;solid-opacity:1;vector-effect:none;fill:#cccccc;fill-opacity:1.0;fill-rule:nonzero;stroke:none;stroke-width:3.08768296;stroke-linecap:round;stroke-linejoin:bevel;stroke-miterlimit:4;stroke-dasharray:none;stroke-dashoffset:0;stroke-opacity:1;paint-order:normal;color-rendering:auto;image-rendering:auto;shape-rendering:auto;text-rendering:auto;enable-background:accumulate"
           d="m 8.794922,11.279297 c -1.665145,0.01919 -3.237471,1.020799 -3.904297,2.648437 -0.889077,2.170114 0.164898,4.677835 2.333984,5.566407 2.169278,0.888647 4.67762,-0.160675 5.566407,-2.330079 0.888711,-2.169231 -0.162587,-4.677685 -2.332032,-5.566406 C 9.916986,11.375625 9.351045,11.272887 8.794922,11.279297 Z m 0.02344,2 c 0.292701,-0.0034 0.590291,0.05009 0.882813,0.169922 1.168629,0.478733 1.717086,1.786376 1.238281,2.955078 -0.478742,1.168542 -1.78822,1.717086 -2.957031,1.238281 -1.168994,-0.478881 -1.718682,-1.789207 -1.240234,-2.957031 0.358812,-0.875816 1.194842,-1.396096 2.076171,-1.40625 z"
           id="rect1457" />
      </g>
      <g
         transform="matrix(-0.27213072,0.64421424,-0.64421424,-0.27213072,34.113695,12.227533)"
         id="g1559"
         style="stroke-width:1.5438416">
        <path
           id="path1555"
           d="m 10.537109,8.0898438 c -0.211221,0.0041 -0.41173,0.1350069 -0.498047,0.3457031 L 9.6328125,9.4238281 C 9.0850261,9.3530839 8.532702,9.3593515 7.9980469,9.4335938 L 7.5820312,8.4414062 C 7.5233856,8.3013867 7.4249475,8.2002225 7.296875,8.1464844 7.1688024,8.092654 7.0204761,8.0849622 6.8828125,8.1425781 l -1.9414063,0.8125 C 4.6660746,9.0703706 4.5447605,9.3840079 4.6621094,9.6640625 L 5.078125,10.65625 C 4.6501102,10.985138 4.2577251,11.374483 3.9238281,11.814453 L 2.9355469,11.410156 c -0.2809253,-0.11508 -0.6016909,0.01481 -0.7148438,0.291016 l -0.7949219,1.9375 c -0.1131575,0.276202 0.023753,0.593896 0.3046876,0.708984 l 0.9902343,0.40625 c -0.070759,0.547778 -0.064487,1.100118 0.00977,1.634766 l -0.9921876,0.416016 c -0.2800485,0.11726 -0.4140479,0.423933 -0.2988281,0.699218 l 0.8125,1.941406 c 0.1152774,0.275308 0.4270131,0.394607 0.7070313,0.277344 L 3.953125,19.308594 c 0.3289062,0.428001 0.7182608,0.820391 1.1582031,1.154297 l -0.4042969,0.988281 c -0.1150956,0.280927 0.012828,0.601682 0.2890626,0.714844 l 1.9394531,0.794922 c 0.2762251,0.113158 0.5938977,-0.02571 0.7089843,-0.306641 l 0.4042969,-0.988281 c 0.5477577,0.07073 1.1020638,0.06442 1.6367188,-0.0098 l 0.4160151,0.992188 c 0.117262,0.28002 0.423918,0.414134 0.699219,0.298828 l 1.941407,-0.8125 c 0.275331,-0.115292 0.394692,-0.428929 0.277343,-0.708985 L 12.603516,20.43356 c 0.428013,-0.328887 0.820398,-0.718232 1.154296,-1.158203 l 0.990235,0.404297 c 0.280927,0.115096 0.601691,-0.01482 0.714844,-0.291016 l 0.792968,-1.9375 c 0.113157,-0.276206 -0.02378,-0.593909 -0.304687,-0.708984 l -0.990234,-0.404297 c 0.07076,-0.547774 0.06641,-1.102067 -0.0078,-1.636719 l 0.992187,-0.416016 c 0.280018,-0.117261 0.414019,-0.423943 0.298829,-0.699218 l -0.8125,-1.941407 c -0.115308,-0.275319 -0.42895,-0.394565 -0.708985,-0.277343 l -0.992187,0.414062 C 13.401576,11.353212 13.01027,10.962778 12.570325,10.628872 l 0.40625,-0.9902341 C 13.091658,9.3577467 12.961753,9.036978 12.685547,8.9238281 l -1.9375,-0.7949219 C 10.67899,8.100617 10.607516,8.0884757 10.537109,8.0898438 Z M 8.7949219,11.279297 c 0.556123,-0.0064 1.1220645,0.09633 1.6640621,0.318359 2.169445,0.888721 3.220743,3.397176 2.332032,5.566406 -0.888787,2.169405 -3.3971286,3.218726 -5.5664066,2.330079 C 5.0555234,18.605569 4.001548,16.097848 4.890625,13.927734 5.557451,12.300096 7.1297769,11.298487 8.7949219,11.279297 Z"
           style="display:block;overflow:visible;visibility:visible;opacity:0.7;fill:#cccccc;fill-opacity:1.0;fill-rule:nonzero;stroke:none;stroke-width:2.38783646;marker:none;enable-background:accumulate" />
        <path
           id="path1557"
           d="m 8.794922,11.279297 c -1.665145,0.01919 -3.237471,1.020799 -3.904297,2.648437 -0.889077,2.170114 0.164898,4.677835 2.333984,5.566407 2.169278,0.888647 4.67762,-0.160675 5.566407,-2.330079 0.888711,-2.169231 -0.162587,-4.677685 -2.332032,-5.566406 C 9.916986,11.375625 9.351045,11.272887 8.794922,11.279297 Z m 0.02344,2 c 0.292701,-0.0034 0.590291,0.05009 0.882813,0.169922 1.168629,0.478733 1.717086,1.786376 1.238281,2.955078 -0.478742,1.168542 -1.78822,1.717086 -2.957031,1.238281 -1.168994,-0.478881 -1.718682,-1.789207 -1.240234,-2.957031 0.358812,-0.875816 1.194842,-1.396096 2.076171,-1.40625 z"
           style="color:#000000;font-style:normal;font-variant:normal;font-weight:normal;font-stretch:normal;font-size:medium;line-height:normal;font-family:sans-serif;font-variant-ligatures:normal;font-variant-position:normal;font-variant-caps:normal;font-variant-numeric:normal;font-variant-alternates:normal;font-feature-settings:normal;text-indent:0;text-align:start;text-decoration:none;text-decoration-line:none;text-decoration-style:solid;text-decoration-color:#000000;letter-spacing:normal;word-spacing:normal;text-transform:none;writing-mode:lr-tb;direction:ltr;text-orientation:mixed;dominant-baseline:auto;baseline-shift:baseline;text-anchor:start;white-space:normal;shape-padding:0;clip-rule:nonzero;display:inline;overflow:visible;visibility:visible;opacity:0.5;isolation:auto;mix-blend-mode:normal;color-interpolation:sRGB;color-interpolation-filters:linearRGB;solid-color:#000000;solid-opacity:1;vector-effect:none;fill:#cccccc;fill-opacity:1.0;fill-rule:nonzero;stroke:none;stroke-width:3.08768296;stroke-linecap:round;stroke-linejoin:bevel;stroke-miterlimit:4;stroke-dasharray:none;stroke-dashoffset:0;stroke-opacity:1;paint-order:normal;color-rendering:auto;image-rendering:auto;shape-rendering:auto;text-rendering:auto;enable-background:accumulate" />
      </g>
    </g>
  </g>
</svg>
