<?xml version="1.0" encoding="UTF-8" standalone="no"?>
<!-- Created with Inkscape (http://www.inkscape.org/) -->

<svg
   width="24px"
   height="24px"
   viewBox="0 0 24 24"
   version="1.1"
   id="SVGRoot"
   xmlns="http://www.w3.org/2000/svg"
   xmlns:svg="http://www.w3.org/2000/svg"
   xmlns:rdf="http://www.w3.org/1999/02/22-rdf-syntax-ns#"
   xmlns:cc="http://creativecommons.org/ns#"
   xmlns:dc="http://purl.org/dc/elements/1.1/">
  <defs
     id="defs815" />
  <metadata
     id="metadata818">
    <rdf:RDF>
      <cc:Work
         rdf:about="">
        <dc:format>image/svg+xml</dc:format>
        <dc:type
           rdf:resource="http://purl.org/dc/dcmitype/StillImage" />
        <dc:title />
        <dc:creator>
          <cc:Agent>
            <dc:title>Maciej Dworak</dc:title>
          </cc:Agent>
        </dc:creator>
        <dc:rights>
          <cc:Agent>
            <dc:title />
          </cc:Agent>
        </dc:rights>
        <dc:description>RawTherapee icon.</dc:description>
        <cc:license
           rdf:resource="http://creativecommons.org/licenses/by-sa/4.0/" />
      </cc:Work>
      <cc:License
         rdf:about="http://creativecommons.org/licenses/by-sa/4.0/">
        <cc:permits
           rdf:resource="http://creativecommons.org/ns#Reproduction" />
        <cc:permits
           rdf:resource="http://creativecommons.org/ns#Distribution" />
        <cc:requires
           rdf:resource="http://creativecommons.org/ns#Notice" />
        <cc:requires
           rdf:resource="http://creativecommons.org/ns#Attribution" />
        <cc:permits
           rdf:resource="http://creativecommons.org/ns#DerivativeWorks" />
        <cc:requires
           rdf:resource="http://creativecommons.org/ns#ShareAlike" />
      </cc:License>
    </rdf:RDF>
  </metadata>
  <g
     id="layer1">
    <path
       style="opacity:0.7;fill:#cccccc;fill-opacity:1.0;stroke:none;stroke-width:1;stroke-linecap:square;stroke-linejoin:miter;stroke-miterlimit:4;stroke-dasharray:none;stroke-opacity:1;paint-order:markers fill stroke"
       d="m -21.536476,1.0000009 c -0.948269,0 -1.711674,0.8514544 -1.711674,1.9090908 0.01811,4.6864694 -0.02651,9.3831233 -0.256039,9.7173823 -0.229526,0.334261 -0.233012,-3.6963562 -0.233012,-7.7173825 0,-1.0576364 -0.763408,-1.9090908 -1.711676,-1.9090908 -0.948268,0 -1.711675,0.8514544 -1.711675,1.9090908 -0.03174,1.2281341 -0.01132,11.7217645 -0.01132,11.7217645 -0.439107,-0.840301 -0.784718,-1.854028 -1.095713,-2.903012 -0.310995,-1.048985 -0.357586,-2.521874 -0.658227,-3.503208 -0.306583,-1.0008337 -1.07076,-1.4553855 -1.9681,-1.1134432 -0.89734,0.3419431 -1.228292,1.3692982 -1.066613,2.4240062 l 0.585636,3.68557 1.020347,3.373111 C -30.053221,19.66255 -29.295309,23 -27.933607,23 h 13.232052 C -12.479914,22.131719 -12.009936,18.517544 -12,16.90909 V 8.9090913 c 0,-1.0576365 -0.763406,-1.9090909 -1.711674,-1.9090909 -0.948269,0 -1.711676,0.8514544 -1.711676,1.9090909 0.0066,2.6725927 -0.0095,5.3480947 -0.248805,4.6824467 -0.239272,-0.665649 -0.240245,-4.6755439 -0.240245,-8.6824465 0,-1.0576364 -0.763407,-1.9090908 -1.711674,-1.9090908 -0.948269,0 -1.711676,0.8514544 -1.711676,1.9090908 0.01256,4.0128995 -0.01836,8.0322495 -0.252704,7.6998675 -0.234347,-0.332384 -0.236347,-5.019198 -0.236347,-9.6998673 0,-1.0576364 -0.763407,-1.9090908 -1.711675,-1.9090908 z"
       id="rect2901" />
    <path
       style="color:#000000;font-style:normal;font-variant:normal;font-weight:normal;font-stretch:normal;font-size:medium;line-height:normal;font-family:sans-serif;font-variant-ligatures:normal;font-variant-position:normal;font-variant-caps:normal;font-variant-numeric:normal;font-variant-alternates:normal;font-feature-settings:normal;text-indent:0;text-align:start;text-decoration:none;text-decoration-line:none;text-decoration-style:solid;text-decoration-color:#000000;letter-spacing:normal;word-spacing:normal;text-transform:none;writing-mode:lr-tb;direction:ltr;text-orientation:mixed;dominant-baseline:auto;baseline-shift:baseline;text-anchor:start;white-space:normal;shape-padding:0;clip-rule:nonzero;display:inline;overflow:visible;visibility:visible;opacity:0.7;isolation:auto;mix-blend-mode:normal;color-interpolation:sRGB;color-interpolation-filters:linearRGB;solid-color:#000000;solid-opacity:1;vector-effect:none;fill:#000000;fill-opacity:1.0;fill-rule:nonzero;stroke:none;stroke-width:1.00010002;stroke-linecap:round;stroke-linejoin:miter;stroke-miterlimit:4;stroke-dasharray:none;stroke-dashoffset:0;stroke-opacity:1;paint-order:markers fill stroke;color-rendering:auto;image-rendering:auto;shape-rendering:auto;text-rendering:auto;enable-background:accumulate"
       d="m 11.628906,-24.480469 c -0.680589,-0.05363 -1.235328,0.384577 -1.466797,0.892578 -0.234228,0.514061 -0.258015,1.098822 -0.07617,1.617188 l -0.02148,-0.08008 c 0.134701,0.77165 0.352976,1.499415 0.50976,2.201172 -0.452067,-0.809728 -0.973566,-1.57668 -1.566407,-2.277344 -0.38699,-0.576226 -1.06916,-0.787901 -1.669921,-0.683594 -0.584955,0.101563 -1.138832,0.559117 -1.269532,1.242188 -0.183894,0.546893 -0.117125,1.090886 0.0625,1.537109 0.177989,0.442155 0.436859,0.813453 0.658203,1.138672 0.65398,1.318974 1.473712,2.484022 1.701172,3.757812 0.06754,0.378495 0.0018,0.849969 -0.177734,1.244141 -0.162494,0.356731 -0.423559,0.602008 -0.703125,0.748049 C 7.319226,-13.156364 7.066506,-13.265126 6.84375,-13.533203 6.596093,-13.831247 6.413567,-14.268502 6.353516,-14.634766 6.295331,-15.191671 6.067331,-15.79517 5.638672,-16.25 c -0.218784,-0.232142 -0.509025,-0.428802 -0.867188,-0.480469 -0.358162,-0.05167 -0.748435,0.06813 -1.078125,0.324219 h -0.002 v 0.002 c -0.659619,0.518354 -0.930321,1.288752 -0.939453,2.023438 -0.009,0.723544 0.213387,1.431639 0.537109,2.021484 0.427607,1.018883 1.019899,1.996569 1.902344,2.753906 L 5.167969,-9.625 c 1.26268,1.225532 2.184735,2.901177 2.078125,4.617188 v 0.01562 0.01563 c 0,0.794629 0.565532,1.392396 1.205078,1.785156 0.636492,0.390885 1.394295,0.618141 2.089844,0.638672 1.583921,0.125137 3.209634,0.02066 4.761718,-0.382813 l 0.01172,-0.0039 0.01367,-0.0039 c 0.435984,-0.138315 0.891906,-0.369194 1.261719,-0.726563 0.369812,-0.357369 0.652922,-0.879195 0.613281,-1.482422 v 0.07422 c 0.19266,-2.348546 0.778157,-4.65564 1.578125,-6.892578 l 0.0039,-0.0098 0.0039,-0.01172 c 0.647951,-2.114783 1.349272,-4.260875 1.69336,-6.511718 v -0.0019 c 0.123379,-0.824398 -0.377829,-1.531195 -1.017565,-1.851544 -0.319868,-0.160174 -0.702992,-0.232661 -1.080078,-0.115234 -0.361023,0.112424 -0.660569,0.426062 -0.839844,0.828125 -0.02505,0.03943 -0.01466,0.07365 -0.03516,0.113281 -0.07006,-0.522454 -0.0905,-0.994473 -0.310547,-1.539063 -0.09458,-0.546432 -0.326478,-1.093004 -0.72461,-1.517578 -0.407236,-0.434283 -1.018901,-0.733766 -1.708984,-0.654296 l -0.0098,0.002 -0.01172,0.002 c -0.401204,0.06321 -0.748194,0.291687 -0.929688,0.591796 -0.06753,0.111662 -0.04862,0.228199 -0.08203,0.34375 -0.160268,-0.426091 -0.215787,-0.869121 -0.486328,-1.271484 l -0.03125,-0.04687 -0.04102,-0.03711 c -0.337322,-0.318813 -0.812337,-0.806376 -1.544883,-0.82226 z m -0.02734,0.492188 c 0.515691,0.0025 0.880163,0.364184 1.228516,0.693359 1.055466,1.569741 0.994821,3.54262 1.572266,5.283203 0.238005,-0.06341 -0.11357,-1.607676 -0.16211,-2.222656 -0.01599,-0.795909 -0.571382,-2.328051 0.582032,-2.509766 1.05084,-0.121014 1.748564,0.857015 1.898437,1.789063 0.442874,1.034157 0.370792,2.178193 0.650391,3.25 0.388388,-0.09749 0.279818,-1.265089 0.599609,-1.714844 0.527032,-1.296298 2.187352,-0.294847 2.017578,0.839844 -0.335878,2.197137 -1.028082,4.321065 -1.677734,6.441406 -0.810532,2.266479 -1.410182,4.615155 -1.607422,7.019531 0.05751,0.875155 -0.779107,1.461842 -1.527344,1.699219 -1.495741,0.388826 -3.072241,0.494208 -4.611328,0.371094 C 9.384003,-3.080288 7.746098,-3.889983 7.746098,-4.976562 7.864795,-6.887125 6.853688,-8.685681 5.515629,-9.984375 4.703216,-10.681609 4.142373,-11.593285 3.734379,-12.572266 3.149165,-13.621033 2.945396,-15.182971 4,-16.011719 c 0.997505,-0.774809 1.779533,0.569694 1.861328,1.458985 0.148792,0.907513 0.826027,2.011116 1.863281,1.951172 0.928912,-0.379788 1.43465,-1.630135 1.257813,-2.621094 -0.254314,-1.424177 -1.121729,-2.631384 -1.751953,-3.90625 -0.457264,-0.673788 -1.007676,-1.456736 -0.69336,-2.314453 0.149192,-1.000132 1.529413,-1.196613 2.058594,-0.402344 1.100918,1.291917 1.994057,2.799863 2.515625,4.419922 0.47778,-1.581579 -0.284312,-3.16208 -0.554687,-4.710938 -0.26492,-0.755192 0.07664,-1.944501 1.044921,-1.851562 z"
       id="path840" />
    <path
       id="path849"
       d="m 11.602196,26.011121 c -0.968279,-0.09294 -1.309807,1.097311 -1.044887,1.852503 0.270375,1.548858 1.032003,3.129502 0.554223,4.711081 C 10.589964,30.954646 9.696549,29.446787 8.5956314,28.15487 8.0664503,27.360601 6.6853476,27.556354 6.5361563,28.556485 c -0.314316,0.857718 0.2376356,1.64067 0.6948996,2.314457 0.6302245,1.274867 1.4962662,2.482414 1.7505805,3.906591 0.1768374,0.990959 -0.3289732,2.241539 -1.2578849,2.621327 -1.0372547,0.05994 -1.7140144,-1.044398 -1.8628061,-1.951911 -0.081795,-0.889291 -0.86326,-2.233825 -1.8607647,-1.459016 -1.0546044,0.828747 -0.8509919,2.390946 -0.2657818,3.439713 0.4079941,0.978981 0.969746,1.890696 1.7821593,2.58793 1.3380594,1.298694 2.3477705,3.097517 2.2290734,5.00808 0,1.086579 1.638441,1.89624 2.8188954,1.927695 1.539087,0.123114 3.116222,0.01728 4.611963,-0.371546 0.748237,-0.237377 1.585081,-0.823539 1.52757,-1.698694 0.19724,-2.404376 0.796669,-4.753262 1.607201,-7.019741 0.649652,-2.120341 1.340729,-4.243896 1.676607,-6.441033 0.169774,-1.134691 -1.489651,-2.135902 -2.016683,-0.839604 -0.319791,0.449755 -0.21195,1.616727 -0.600338,1.714219 -0.279599,-1.071807 -0.20687,-2.216252 -0.649744,-3.25041 -0.149873,-0.932048 -0.84734,-1.91055 -1.89818,-1.789536 -1.153414,0.181715 -0.597997,1.714518 -0.582003,2.510427 0.04854,0.61498 0.399825,2.15953 0.16182,2.222943 -0.577445,-1.740583 -0.516942,-3.713714 -1.572408,-5.283454 -0.348353,-0.329176 -0.712446,-0.691324 -1.228136,-0.693801 z"
       style="opacity:0.7;fill:#cccccc;fill-opacity:1.0;stroke:none;stroke-width:1;stroke-linecap:square;stroke-linejoin:miter;stroke-miterlimit:4;stroke-dasharray:none;stroke-opacity:1;paint-order:markers fill stroke" />
    <path
       style="opacity:0.7;fill:#cccccc;fill-opacity:1.0;stroke:none;stroke-width:1;stroke-linecap:square;stroke-linejoin:miter;stroke-miterlimit:4;stroke-dasharray:none;stroke-opacity:1;paint-order:markers fill stroke"
       d="m 11.602196,-23.988879 c -0.968279,-0.09294 -1.309807,1.097311 -1.044887,1.852503 0.270375,1.548858 1.032003,3.129502 0.554223,4.711081 -0.521568,-1.620059 -1.414983,-3.127918 -2.5159006,-4.419835 -0.5291811,-0.794269 -1.9102838,-0.598516 -2.0594751,0.401615 -0.314316,0.857718 0.2376356,1.64067 0.6948996,2.314457 0.6302245,1.274867 1.4962662,2.482414 1.7505805,3.906591 0.1768374,0.990959 -0.3289732,2.241539 -1.2578849,2.621327 -1.0372547,0.05994 -1.7140144,-1.044398 -1.8628061,-1.951911 -0.081795,-0.889291 -0.86326,-2.233825 -1.8607647,-1.459016 -1.0546044,0.828747 -0.8509919,2.390946 -0.2657818,3.439713 0.4079941,0.978981 0.969746,1.890696 1.7821593,2.58793 1.3380594,1.298694 2.3477705,3.097517 2.2290734,5.00808 0,1.086579 1.638441,1.89624 2.8188954,1.927695 1.539087,0.123114 3.116222,0.01728 4.611963,-0.371546 0.748237,-0.237377 1.585081,-0.823539 1.52757,-1.698694 0.19724,-2.404376 0.796669,-4.753262 1.607201,-7.019741 0.649652,-2.120341 1.340729,-4.243896 1.676607,-6.441033 0.169774,-1.134691 -1.489651,-2.135902 -2.016683,-0.839604 -0.319791,0.449755 -0.21195,1.616727 -0.600338,1.714219 -0.279599,-1.071807 -0.20687,-2.216252 -0.649744,-3.25041 -0.149873,-0.932048 -0.84734,-1.91055 -1.89818,-1.789536 -1.153414,0.181715 -0.597997,1.714518 -0.582003,2.510427 0.04854,0.61498 0.399825,2.15953 0.16182,2.222943 -0.577445,-1.740583 -0.516942,-3.713714 -1.572408,-5.283454 -0.348353,-0.329176 -0.712446,-0.691324 -1.228136,-0.693801 z"
       id="path852" />
    <path
       style="color:#000000;font-style:normal;font-variant:normal;font-weight:normal;font-stretch:normal;font-size:medium;line-height:normal;font-family:sans-serif;font-variant-ligatures:normal;font-variant-position:normal;font-variant-caps:normal;font-variant-numeric:normal;font-variant-alternates:normal;font-feature-settings:normal;text-indent:0;text-align:start;text-decoration:none;text-decoration-line:none;text-decoration-style:solid;text-decoration-color:#000000;letter-spacing:normal;word-spacing:normal;text-transform:none;writing-mode:lr-tb;direction:ltr;text-orientation:mixed;dominant-baseline:auto;baseline-shift:baseline;text-anchor:start;white-space:normal;shape-padding:0;clip-rule:nonzero;display:inline;overflow:visible;visibility:visible;opacity:0.7;isolation:auto;mix-blend-mode:normal;color-interpolation:sRGB;color-interpolation-filters:linearRGB;solid-color:#000000;solid-opacity:1;vector-effect:none;fill:#ffffff;fill-opacity:1.0;fill-rule:nonzero;stroke:none;stroke-width:1.00010002;stroke-linecap:round;stroke-linejoin:miter;stroke-miterlimit:4;stroke-dasharray:none;stroke-dashoffset:0;stroke-opacity:1;paint-order:markers fill stroke;color-rendering:auto;image-rendering:auto;shape-rendering:auto;text-rendering:auto;enable-background:accumulate"
       d="m 11.601562,-23.988281 c -0.968278,-0.09294 -1.309841,1.09637 -1.044921,1.851562 0.270375,1.548858 1.032467,3.129359 0.554687,4.710938 -0.521568,-1.620059 -1.414707,-3.128005 -2.515625,-4.419922 -0.529181,-0.794269 -1.909402,-0.597787 -2.058594,0.402344 -0.314316,0.857718 0.236096,1.640666 0.69336,2.314453 0.630224,1.274867 1.497639,2.482073 1.751953,3.90625 0.176838,0.990959 -0.328901,2.241306 -1.257813,2.621094 -1.037254,0.05994 -1.714489,-1.043659 -1.863281,-1.951172 C 5.779538,-15.442025 4.997504,-16.786528 4,-16.011719 c -1.054605,0.828747 -0.850835,2.390686 -0.265625,3.439453 0.407994,0.978981 0.968837,1.890657 1.78125,2.587891 1.33806,1.298694 2.349166,3.09725 2.230469,5.007813 0,1.086579 1.637905,1.896279 2.818359,1.927734 1.539087,0.123114 3.115587,0.01773 4.611328,-0.371094 0.748237,-0.237377 1.584855,-0.824064 1.527344,-1.699219 0.19724,-2.404376 0.79689,-4.753052 1.607422,-7.019531 0.649652,-2.120341 1.341856,-4.244269 1.677734,-6.441406 0.169774,-1.134691 -1.490546,-2.136142 -2.017578,-0.839844 -0.319791,0.449755 -0.211221,1.617352 -0.599609,1.714844 -0.279599,-1.071807 -0.207517,-2.215842 -0.650391,-3.25 -0.149873,-0.932048 -0.847597,-1.910077 -1.898437,-1.789063 -1.153414,0.181715 -0.598026,1.713857 -0.582032,2.509766 0.04854,0.61498 0.400115,2.159243 0.16211,2.222656 -0.577445,-1.740583 -0.5168,-3.713463 -1.572266,-5.283203 -0.348353,-0.329176 -0.712825,-0.690882 -1.228516,-0.693359 z m -0.04687,0.498047 0.02148,0.002 h 0.02344 c 0.266338,0.0013 0.512596,0.220305 0.835938,0.523437 0.911727,1.396982 0.882427,3.273337 1.492187,5.111328 l 0.148435,0.447269 0.455078,-0.123047 c 0.288525,-0.07687 0.385059,-0.318782 0.417969,-0.443359 0.03291,-0.124578 0.0353,-0.223175 0.03516,-0.328125 -2.93e-4,-0.209902 -0.02724,-0.439026 -0.06055,-0.683594 -0.06662,-0.489136 -0.164185,-1.043165 -0.183594,-1.289063 v 0.0293 c -0.0102,-0.507755 -0.149171,-1.063997 -0.146484,-1.472656 0.0013,-0.204329 0.03985,-0.348839 0.07813,-0.412109 0.03633,-0.06008 0.065,-0.09055 0.216797,-0.117188 0.355996,-0.03829 0.615867,0.08824 0.855469,0.34375 0.241675,0.257727 0.422435,0.652332 0.482421,1.025391 l 0.0098,0.0625 0.02539,0.05664 c 0.382519,0.893222 0.318109,2.00326 0.625,3.179687 l 0.125,0.478516 0.480469,-0.121094 c 0.330877,-0.08306 0.484119,-0.356947 0.558593,-0.552734 0.07447,-0.195787 0.106671,-0.385054 0.138672,-0.572266 0.064,-0.374422 0.163301,-0.746422 0.189453,-0.783203 l 0.0332,-0.04883 0.02148,-0.05273 c 0.08882,-0.218457 0.171069,-0.263138 0.248047,-0.287109 0.07698,-0.02397 0.196292,-0.01719 0.335937,0.05273 0.279291,0.139856 0.522983,0.500292 0.476563,0.810547 -0.327668,2.14343 -1.008802,4.243242 -1.660157,6.369141 -0.817333,2.289621 -1.427699,4.672266 -1.628906,7.125 l -0.002,0.03711 0.002,0.03711 c 0.01787,0.27193 -0.08926,0.481468 -0.310547,0.695313 -0.218395,0.211047 -0.548661,0.388427 -0.857422,0.488281 -1.430398,0.370039 -2.948879,0.474234 -4.433593,0.355469 l -0.01172,-0.002 h -0.01367 C 10.095913,-3.561642 9.449398,-3.75139 8.974609,-4.042969 8.499821,-4.334548 8.246094,-4.684614 8.246094,-4.976562 l -0.00195,0.03125 C 8.374922,-7.050428 7.278673,-8.971894 5.865234,-10.34375 l -0.011718,-0.0098 -0.011719,-0.0098 c -0.735378,-0.630984 -1.25878,-1.471979 -1.646485,-2.402275 l -0.00977,-0.02539 -0.013672,-0.02539 c -0.25314,-0.453678 -0.426328,-1.036944 -0.419917,-1.552736 0.0064,-0.515792 0.161652,-0.939603 0.556641,-1.25 0.166559,-0.128502 0.249369,-0.131327 0.320312,-0.121093 0.07147,0.01031 0.169755,0.05748 0.28125,0.175781 0.22299,0.236604 0.423426,0.73374 0.453125,1.056641 l 0.00195,0.01758 0.00195,0.01758 c 0.08874,0.54125 0.319796,1.112105 0.707031,1.578125 0.387234,0.46602 0.976274,0.833506 1.677734,0.792969 l 0.083985,-0.0059 0.076171,-0.03125 c 0.613005,-0.250551 1.04918,-0.762097 1.310554,-1.335901 0.261374,-0.573805 0.361248,-1.223474 0.251953,-1.835938 -0.28025,-1.56942 -1.189756,-2.816841 -1.794921,-4.041016 l -0.015626,-0.0293 -0.019531,-0.0293 c -0.230501,-0.339782 -0.459328,-0.67962 -0.585937,-0.994141 -0.12661,-0.314521 -0.160441,-0.573273 -0.052735,-0.867187 l 0.017579,-0.04687 0.00781,-0.05078 c 0.04208,-0.282072 0.220846,-0.41034 0.478516,-0.455078 0.257669,-0.04474 0.527139,0.04155 0.669922,0.25586 l 0.015624,0.02539 0.019532,0.02148 c 1.062957,1.24737 1.921664,2.702346 2.419922,4.25 l 0.492187,1.52539 0.462891,-1.535156 c 0.546993,-1.810695 -0.286133,-3.492486 -0.539063,-4.941406 l -0.0078,-0.04102 -0.01367,-0.03906 c -0.08308,-0.236827 -0.06941,-0.624466 0.04297,-0.871094 0.112374,-0.246628 0.205943,-0.342944 0.482422,-0.316406 z"
       id="path844" />
    <path
       style="opacity:1;fill:#ffffff;fill-opacity:1.0;stroke:#000000;stroke-width:1;stroke-linecap:round;stroke-linejoin:miter;stroke-miterlimit:4;stroke-dasharray:none;stroke-opacity:1.0;paint-order:markers fill stroke"
       d="m 11.975568,1.5076372 c -0.968279,-0.09294 -1.309807,1.097311 -1.044887,1.852503 0.270375,1.548858 1.032003,3.129502 0.554223,4.711081 -0.521568,-1.620059 -1.414983,-3.127918 -2.5159012,-4.419835 -0.529181,-0.794269 -1.910283,-0.598516 -2.059475,0.401615 -0.314316,0.857718 0.237636,1.64067 0.6949,2.314457 0.630224,1.274867 1.496266,2.482414 1.75058,3.9065908 0.176838,0.990959 -0.328973,2.241539 -1.257885,2.621327 -1.037254,0.05994 -1.714014,-1.044398 -1.862806,-1.951911 -0.08179,-0.889291 -0.86326,-2.2338248 -1.860764,-1.4590158 -1.054605,0.8287468 -0.850992,2.3909458 -0.265782,3.4397128 0.407994,0.978981 0.969746,1.890696 1.782159,2.58793 1.33806,1.298694 2.347771,3.097517 2.229074,5.00808 0,1.086579 1.638441,1.89624 2.8188952,1.927695 1.539087,0.123114 3.116222,0.01728 4.611963,-0.371546 0.748237,-0.237377 1.585081,-0.823539 1.52757,-1.698694 0.19724,-2.404376 0.796669,-4.753262 1.607201,-7.019741 0.649652,-2.120341 1.340729,-4.2438958 1.676607,-6.4410328 0.169774,-1.134691 -1.489651,-2.135902 -2.016683,-0.839604 -0.319791,0.449755 -0.21195,1.616727 -0.600338,1.714219 -0.279599,-1.071807 -0.20687,-2.216252 -0.649744,-3.25041 -0.149873,-0.932048 -0.84734,-1.91055 -1.89818,-1.789536 -1.153414,0.181715 -0.597997,1.714518 -0.582003,2.510427 0.04854,0.61498 0.399825,2.15953 0.16182,2.222943 -0.577445,-1.740583 -0.516942,-3.713714 -1.572408,-5.283454 -0.348353,-0.329176 -0.712446,-0.691324 -1.228136,-0.693801 z"
       id="path861" />
  </g>
</svg>
