<?xml version="1.0" encoding="UTF-8" standalone="no"?>
<svg
   width="16"
   height="16"
   viewBox="0 0 16 16"
   version="1.1"
   id="SVGRoot"
   xmlns="http://www.w3.org/2000/svg"
   xmlns:svg="http://www.w3.org/2000/svg"
   xmlns:rdf="http://www.w3.org/1999/02/22-rdf-syntax-ns#"
   xmlns:cc="http://creativecommons.org/ns#"
   xmlns:dc="http://purl.org/dc/elements/1.1/">
  <defs
     id="defs815" />
  <metadata
     id="metadata818">
    <rdf:RDF>
      <cc:Work
         rdf:about="">
        <dc:format>image/svg+xml</dc:format>
        <dc:type
           rdf:resource="http://purl.org/dc/dcmitype/StillImage" />
        <dc:title />
        <dc:creator>
          <cc:Agent>
            <dc:title>Lawrence Lee</dc:title>
          </cc:Agent>
        </dc:creator>
        <dc:rights>
          <cc:Agent>
            <dc:title />
          </cc:Agent>
        </dc:rights>
        <dc:description>RawTherapee icon.</dc:description>
        <cc:license
           rdf:resource="http://creativecommons.org/licenses/by-sa/4.0/" />
      </cc:Work>
      <cc:License
         rdf:about="http://creativecommons.org/licenses/by-sa/4.0/">
        <cc:permits
           rdf:resource="http://creativecommons.org/ns#Reproduction" />
        <cc:permits
           rdf:resource="http://creativecommons.org/ns#Distribution" />
        <cc:requires
           rdf:resource="http://creativecommons.org/ns#Notice" />
        <cc:requires
           rdf:resource="http://creativecommons.org/ns#Attribution" />
        <cc:permits
           rdf:resource="http://creativecommons.org/ns#DerivativeWorks" />
        <cc:requires
           rdf:resource="http://creativecommons.org/ns#ShareAlike" />
      </cc:License>
    </rdf:RDF>
  </metadata>
  <g
     id="layer1"
     transform="translate(0,-8)">
    <rect
       style="opacity:0.3;fill:#cccccc;fill-opacity:1.0;stroke:none;stroke-width:1;stroke-linecap:square;stroke-linejoin:miter;stroke-miterlimit:4;stroke-dasharray:none;stroke-opacity:1"
       id="rect896"
       width="12"
       height="12"
       x="2"
       y="10" />
    <path
       transform="translate(0,8)"
       d="M 11 4.0234375 C 10.691576 4.0252479 10.345351 4.1582074 10 4.3535156 L 10 11.367188 C 12.008913 10.233429 14 8.0234375 14 8.0234375 L 14 6 C 14 6 12.197351 4.0164165 11 4.0234375 z "
       style="fill:#0000ff;fill-opacity:1.0;stroke:none;stroke-width:1px;stroke-linecap:butt;stroke-linejoin:miter;stroke-opacity:1"
       id="path894" />
    <rect
       style="opacity:1;fill:none;fill-opacity:0.3;stroke:#000000;stroke-width:0.999999;stroke-linecap:square;stroke-linejoin:miter;stroke-miterlimit:4;stroke-dasharray:none;stroke-opacity:1.0"
       id="rect849"
       width="13"
       height="13.000001"
       x="1.5"
       y="9.5" />
    <path
       transform="translate(0,8)"
       d="M 2 6 L 2 8.0234375 C 2 8.0234375 3.9910868 10.233429 6 11.367188 L 6 7.6972656 C 5.6537675 7.8922018 5.3071207 8.0252714 5 8.0234375 C 3.7936541 8.0162345 2 6 2 6 z "
       style="fill:#fd0000;fill-opacity:1.0;stroke:none;stroke-width:1px;stroke-linecap:butt;stroke-linejoin:miter;stroke-opacity:1"
       id="path834" />
    <path
       transform="translate(0,8)"
       d="M 10 4.3535156 C 8.9719096 4.9349372 7.9511719 6.0839844 7.9511719 6.0839844 C 7.9511719 6.0839844 6.9807951 7.1450573 6 7.6972656 L 6 11.367188 C 6.6915471 11.757472 7.3844485 12.023438 8 12.023438 C 8.6155516 12.023438 9.3084528 11.757472 10 11.367188 L 10 4.3535156 z "
       style="fill:#00ff00;fill-opacity:1.0;stroke:none;stroke-width:1px;stroke-linecap:butt;stroke-linejoin:miter;stroke-opacity:1"
       id="path844" />
  </g>
</svg>
