<?xml version="1.0" encoding="UTF-8" standalone="no"?>
<!-- Created with Inkscape (http://www.inkscape.org/) -->

<svg
   width="24px"
   height="24px"
   viewBox="0 0 24 24"
   version="1.1"
   id="SVGRoot"
   xmlns="http://www.w3.org/2000/svg"
   xmlns:svg="http://www.w3.org/2000/svg"
   xmlns:rdf="http://www.w3.org/1999/02/22-rdf-syntax-ns#"
   xmlns:cc="http://creativecommons.org/ns#"
   xmlns:dc="http://purl.org/dc/elements/1.1/">
  <defs
     id="defs815" />
  <metadata
     id="metadata818">
    <rdf:RDF>
      <cc:Work
         rdf:about="">
        <dc:format>image/svg+xml</dc:format>
        <dc:type
           rdf:resource="http://purl.org/dc/dcmitype/StillImage" />
        <dc:title />
        <dc:creator>
          <cc:Agent>
            <dc:title>Maciej Dworak</dc:title>
          </cc:Agent>
        </dc:creator>
        <dc:rights>
          <cc:Agent>
            <dc:title />
          </cc:Agent>
        </dc:rights>
        <dc:description>RawTherapee icon.</dc:description>
        <cc:license
           rdf:resource="http://creativecommons.org/licenses/by-sa/4.0/" />
      </cc:Work>
      <cc:License
         rdf:about="http://creativecommons.org/licenses/by-sa/4.0/">
        <cc:permits
           rdf:resource="http://creativecommons.org/ns#Reproduction" />
        <cc:permits
           rdf:resource="http://creativecommons.org/ns#Distribution" />
        <cc:requires
           rdf:resource="http://creativecommons.org/ns#Notice" />
        <cc:requires
           rdf:resource="http://creativecommons.org/ns#Attribution" />
        <cc:permits
           rdf:resource="http://creativecommons.org/ns#DerivativeWorks" />
        <cc:requires
           rdf:resource="http://creativecommons.org/ns#ShareAlike" />
      </cc:License>
    </rdf:RDF>
  </metadata>
  <g
     id="layer1">
    <path
       id="path1107"
       d="m -59,12 h 22"
       style="opacity:0.7;fill:none;fill-rule:evenodd;stroke:#cccccc;stroke-width:2;stroke-linecap:butt;stroke-linejoin:miter;stroke-miterlimit:4;stroke-dasharray:none;stroke-opacity:1.0" />
    <path
       id="path1109"
       d="m -59,15 h 22"
       style="opacity:0.7;fill:none;fill-rule:evenodd;stroke:#cccccc;stroke-width:2;stroke-linecap:butt;stroke-linejoin:miter;stroke-miterlimit:4;stroke-dasharray:none;stroke-opacity:1.0" />
    <path
       id="path1111"
       d="m -59,2 c 11.363813,0 11.510234,7 22,7"
       style="opacity:0.7;fill:none;fill-rule:evenodd;stroke:#cccccc;stroke-width:2;stroke-linecap:butt;stroke-linejoin:miter;stroke-miterlimit:4;stroke-dasharray:none;stroke-opacity:1.0" />
    <path
       id="path1113"
       d="m -59,5 c 11.363813,0 11.510234,4 22,4"
       style="opacity:0.7;fill:none;fill-rule:evenodd;stroke:#cccccc;stroke-width:2;stroke-linecap:butt;stroke-linejoin:miter;stroke-miterlimit:4;stroke-dasharray:none;stroke-opacity:1.0" />
    <path
       id="path1115"
       d="m -59,9 h 22"
       style="opacity:0.7;fill:none;fill-rule:evenodd;stroke:#cccccc;stroke-width:2;stroke-linecap:butt;stroke-linejoin:miter;stroke-miterlimit:4;stroke-dasharray:none;stroke-opacity:1.0" />
    <path
       id="path1117"
       d="m -59,22 c 11.253256,0 11.129729,-4 22,-4"
       style="opacity:0.7;fill:none;fill-rule:evenodd;stroke:#cccccc;stroke-width:2;stroke-linecap:butt;stroke-linejoin:miter;stroke-miterlimit:4;stroke-dasharray:none;stroke-opacity:1.0" />
    <path
       id="path1119"
       d="m -59,18 h 22"
       style="opacity:0.7;fill:none;fill-rule:evenodd;stroke:#cccccc;stroke-width:2;stroke-linecap:butt;stroke-linejoin:miter;stroke-miterlimit:4;stroke-dasharray:none;stroke-opacity:1.0" />
    <g
       id="g1221"
       transform="translate(0,-62)">
      <path
         id="path1125"
         style="opacity:0.7;fill:none;fill-rule:evenodd;stroke:#cccccc;stroke-width:2;stroke-linecap:butt;stroke-linejoin:miter;stroke-miterlimit:4;stroke-dasharray:none;stroke-opacity:1.0"
         d="M 1,18 H 23 M 1,22 c 11.253256,0 11.129729,-4 22,-4 M 1,9 H 23 M 1,5 C 12.363813,5 12.510234,9 23,9 M 1,2 C 12.363813,2 12.510234,9 23,9 M 1,15 H 23 M 1,12 h 22" />
      <path
         id="path5189"
         d="M 1,1 V 3 C 5.0019761,3 7.3333707,3.952805 9.4355469,5.09375 7.2857511,4.497496 4.8056458,4 1,4 v 2 c 5.564575,0 8.2278861,0.944263 10.988281,1.941406 0.05775,0.02086 0.131579,0.03769 0.189453,0.05859 H 23 c -1.516305,0 -2.457648,-0.209633 -3.582031,-0.351563 C 16.68202,7.091891 14.873049,5.926015 12.861328,4.654293 10.082981,2.897947 6.8872366,1 1,1 Z"
         style="color:#000000;font-style:normal;font-variant:normal;font-weight:normal;font-stretch:normal;font-size:medium;line-height:normal;font-family:sans-serif;font-variant-ligatures:normal;font-variant-position:normal;font-variant-caps:normal;font-variant-numeric:normal;font-variant-alternates:normal;font-feature-settings:normal;text-indent:0;text-align:start;text-decoration:none;text-decoration-line:none;text-decoration-style:solid;text-decoration-color:#000000;letter-spacing:normal;word-spacing:normal;text-transform:none;writing-mode:lr-tb;direction:ltr;text-orientation:mixed;dominant-baseline:auto;baseline-shift:baseline;text-anchor:start;white-space:normal;shape-padding:0;clip-rule:nonzero;display:inline;overflow:visible;visibility:visible;opacity:0.7;isolation:auto;mix-blend-mode:normal;color-interpolation:sRGB;color-interpolation-filters:linearRGB;solid-color:#000000;solid-opacity:1;vector-effect:none;fill:#cccccc;fill-opacity:1.0;fill-rule:evenodd;stroke:none;stroke-width:2;stroke-linecap:butt;stroke-linejoin:miter;stroke-miterlimit:4;stroke-dasharray:none;stroke-dashoffset:0;stroke-opacity:1;color-rendering:auto;image-rendering:auto;shape-rendering:auto;text-rendering:auto;enable-background:accumulate" />
      <path
         id="path1165"
         d="m 11.996094,19 c -0.05896,0.02154 -0.136546,0.03906 -0.195313,0.06055 C 9.069758,20.059251 6.5081438,21 1,21 v 2 C 6.7451122,23 9.7482335,21.940746 12.486328,20.939453 15.224423,19.93816 17.687523,19 23,19 Z"
         style="color:#000000;font-style:normal;font-variant:normal;font-weight:normal;font-stretch:normal;font-size:medium;line-height:normal;font-family:sans-serif;font-variant-ligatures:normal;font-variant-position:normal;font-variant-caps:normal;font-variant-numeric:normal;font-variant-alternates:normal;font-feature-settings:normal;text-indent:0;text-align:start;text-decoration:none;text-decoration-line:none;text-decoration-style:solid;text-decoration-color:#000000;letter-spacing:normal;word-spacing:normal;text-transform:none;writing-mode:lr-tb;direction:ltr;text-orientation:mixed;dominant-baseline:auto;baseline-shift:baseline;text-anchor:start;white-space:normal;shape-padding:0;clip-rule:nonzero;display:inline;overflow:visible;visibility:visible;opacity:0.7;isolation:auto;mix-blend-mode:normal;color-interpolation:sRGB;color-interpolation-filters:linearRGB;solid-color:#000000;solid-opacity:1;vector-effect:none;fill:#cccccc;fill-opacity:1.0;fill-rule:evenodd;stroke:none;stroke-width:2;stroke-linecap:butt;stroke-linejoin:miter;stroke-miterlimit:4;stroke-dasharray:none;stroke-dashoffset:0;stroke-opacity:1;color-rendering:auto;image-rendering:auto;shape-rendering:auto;text-rendering:auto;enable-background:accumulate" />
    </g>
    <path
       style="opacity:0.7;fill:none;fill-rule:evenodd;stroke:#cccccc;stroke-width:2;stroke-linecap:butt;stroke-linejoin:miter;stroke-miterlimit:4;stroke-dasharray:none;stroke-opacity:1.0"
       d="M 61,14 H 83"
       id="path1194" />
    <path
       style="opacity:0.7;fill:none;fill-rule:evenodd;stroke:#cccccc;stroke-width:2;stroke-linecap:butt;stroke-linejoin:miter;stroke-miterlimit:4;stroke-dasharray:none;stroke-opacity:1.0"
       d="M 61,2 C 72.363813,2 72.510234,9 83,9"
       id="path1196" />
    <path
       style="opacity:0.7;fill:none;fill-rule:evenodd;stroke:#cccccc;stroke-width:2;stroke-linecap:butt;stroke-linejoin:miter;stroke-miterlimit:4;stroke-dasharray:none;stroke-opacity:1.0"
       d="M 61,6 C 72.363813,6 72.510234,9 83,9"
       id="path1198" />
    <path
       style="opacity:0.7;fill:none;fill-rule:evenodd;stroke:#cccccc;stroke-width:2;stroke-linecap:butt;stroke-linejoin:miter;stroke-miterlimit:4;stroke-dasharray:none;stroke-opacity:1.0"
       d="M 61,10 H 83"
       id="path1200" />
    <path
       style="opacity:0.7;fill:none;fill-rule:evenodd;stroke:#cccccc;stroke-width:2;stroke-linecap:butt;stroke-linejoin:miter;stroke-miterlimit:4;stroke-dasharray:none;stroke-opacity:1.0"
       d="m 61,22 c 11.253256,0 11.129729,-4 22,-4"
       id="path1202" />
    <path
       style="opacity:0.7;fill:none;fill-rule:evenodd;stroke:#cccccc;stroke-width:2;stroke-linecap:butt;stroke-linejoin:miter;stroke-miterlimit:4;stroke-dasharray:none;stroke-opacity:1.0"
       d="M 61,18 H 83"
       id="path1204" />
    <g
       id="g1232"
       transform="translate(-40,34)">
      <path
         style="opacity:0.7;fill:none;fill-rule:evenodd;stroke:#cccccc;stroke-width:2;stroke-linecap:butt;stroke-linejoin:miter;stroke-miterlimit:4;stroke-dasharray:none;stroke-opacity:1.0"
         d="M 1,14 H 23"
         id="path1206" />
      <path
         style="opacity:0.7;fill:none;fill-rule:evenodd;stroke:#cccccc;stroke-width:2;stroke-linecap:butt;stroke-linejoin:miter;stroke-miterlimit:4;stroke-dasharray:none;stroke-opacity:1.0"
         d="M 1,2 C 12.363813,2 12.510234,9 23,9"
         id="path1208" />
      <path
         style="opacity:0.7;fill:none;fill-rule:evenodd;stroke:#cccccc;stroke-width:2;stroke-linecap:butt;stroke-linejoin:miter;stroke-miterlimit:4;stroke-dasharray:none;stroke-opacity:1.0"
         d="M 1,6 C 12.363813,6 12.510234,9 23,9"
         id="path1210" />
      <path
         style="opacity:0.7;fill:none;fill-rule:evenodd;stroke:#cccccc;stroke-width:2;stroke-linecap:butt;stroke-linejoin:miter;stroke-miterlimit:4;stroke-dasharray:none;stroke-opacity:1.0"
         d="M 1,10 H 23"
         id="path1212" />
      <path
         style="opacity:0.7;fill:none;fill-rule:evenodd;stroke:#cccccc;stroke-width:2;stroke-linecap:butt;stroke-linejoin:miter;stroke-miterlimit:4;stroke-dasharray:none;stroke-opacity:1.0"
         d="m 1,22 c 11.253256,0 11.129729,-4 22,-4"
         id="path1214" />
      <path
         style="opacity:0.7;fill:none;fill-rule:evenodd;stroke:#cccccc;stroke-width:2;stroke-linecap:butt;stroke-linejoin:miter;stroke-miterlimit:4;stroke-dasharray:none;stroke-opacity:1.0"
         d="M 1,18 H 23"
         id="path1216" />
    </g>
    <path
       style="opacity:0.5;fill:#cccccc;fill-opacity:1.0;fill-rule:nonzero;stroke:none;stroke-width:2;stroke-linecap:butt;stroke-linejoin:round;stroke-miterlimit:4;stroke-dasharray:none;stroke-opacity:1;paint-order:normal"
       d="M 2.9882812 1.046875 C 3.5811625 1.0762572 4.1371152 1.1223535 4.6679688 1.1757812 C 4.1365877 1.1222493 3.5818169 1.0762897 2.9882812 1.046875 z M 5.1289062 1.2304688 C 5.4889909 1.2724819 5.8435264 1.3154816 6.1777344 1.3671875 C 5.8434796 1.3154241 5.4890447 1.2725302 5.1289062 1.2304688 z M 6.6738281 1.453125 C 6.9767471 1.5059399 7.2749026 1.5613943 7.5585938 1.6210938 C 7.2746677 1.5612877 6.9770136 1.5060328 6.6738281 1.453125 z M 8.0019531 1.71875 C 8.210813 1.7666382 8.4117039 1.816189 8.6113281 1.8671875 C 8.4118795 1.8162007 8.2106197 1.7666327 8.0019531 1.71875 z M 10.378906 2.3789062 C 11.061075 2.6008202 11.711963 2.8315165 12.341797 3.0605469 C 11.710843 2.831109 11.062452 2.601244 10.378906 2.3789062 z M 1 3 L 1 5 C 6.6212121 5 9.5917968 6.0605469 12.341797 7.0605469 C 15.091797 8.0605469 17.621212 9 23 9 L 23 8 C 17.378788 8 14.408203 5.9394531 11.658203 4.9394531 C 8.9082034 3.9394531 6.3787879 3 1 3 z M 1 7 L 1 21 C 6.4393939 21 9.0703135 20.515625 11.820312 20.015625 C 14.570314 19.515625 17.439394 18 23 18 L 23 11 C 17.378788 11 14.408203 9.9394531 11.658203 8.9394531 C 8.9082032 7.9394531 6.3787879 7 1 7 z "
       id="path1273" />
    <path
       style="color:#000000;font-style:normal;font-variant:normal;font-weight:normal;font-stretch:normal;font-size:medium;line-height:normal;font-family:sans-serif;font-variant-ligatures:normal;font-variant-position:normal;font-variant-caps:normal;font-variant-numeric:normal;font-variant-alternates:normal;font-feature-settings:normal;text-indent:0;text-align:start;text-decoration:none;text-decoration-line:none;text-decoration-style:solid;text-decoration-color:#000000;letter-spacing:normal;word-spacing:normal;text-transform:none;writing-mode:lr-tb;direction:ltr;text-orientation:mixed;dominant-baseline:auto;baseline-shift:baseline;text-anchor:start;white-space:normal;shape-padding:0;clip-rule:nonzero;display:inline;overflow:visible;visibility:visible;opacity:0.5;isolation:auto;mix-blend-mode:normal;color-interpolation:sRGB;color-interpolation-filters:linearRGB;solid-color:#000000;solid-opacity:1;vector-effect:none;fill:#ffffff;fill-opacity:1.0;fill-rule:evenodd;stroke:none;stroke-width:2;stroke-linecap:butt;stroke-linejoin:miter;stroke-miterlimit:4;stroke-dasharray:none;stroke-dashoffset:0;stroke-opacity:1;color-rendering:auto;image-rendering:auto;shape-rendering:auto;text-rendering:auto;enable-background:accumulate"
       d="m 1,11 v 2 c 5.4090909,0 7.9863281,0.714844 10.736328,1.464844 C 14.486328,15.214844 17.409091,16 23,16 V 14 C 17.590909,14 15.013672,13.285156 12.263672,12.535156 9.5136719,11.785156 6.5909091,11 1,11 Z"
       id="path1234" />
    <path
       id="path1255"
       d="m 1,41 c 11,0 11,8 22,8 V 60 C 12,60 12,63 1,63 Z"
       style="opacity:0.7;fill:#cccccc;fill-opacity:1.0;fill-rule:nonzero;stroke:none;stroke-width:2;stroke-linecap:butt;stroke-linejoin:round;stroke-miterlimit:4;stroke-dasharray:none;stroke-opacity:1;paint-order:normal" />
    <path
       id="path1257"
       d="M 1,52 H 23"
       style="opacity:0.7;fill:none;fill-rule:evenodd;stroke:#ffffff;stroke-width:2;stroke-linecap:butt;stroke-linejoin:miter;stroke-miterlimit:4;stroke-dasharray:none;stroke-opacity:1.0" />
    <path
       id="path1263"
       d="m 1,-25 c 21,0 1,8 22,8 V -6 C 2,-6 22,-3 1,-3 Z"
       style="opacity:0.7;fill:#cccccc;fill-opacity:1.0;fill-rule:nonzero;stroke:none;stroke-width:2;stroke-linecap:butt;stroke-linejoin:round;stroke-miterlimit:4;stroke-dasharray:none;stroke-opacity:1;paint-order:normal" />
    <path
       id="path1265"
       d="m 1,-14 c 11,0 11,3 22,3"
       style="opacity:0.7;fill:none;fill-rule:evenodd;stroke:#ffffff;stroke-width:2;stroke-linecap:butt;stroke-linejoin:miter;stroke-miterlimit:4;stroke-dasharray:none;stroke-opacity:1.0" />
    <path
       id="path1318"
       d="M 41,41 V 63 H 51.666016 L 53,61 H 63 V 48 H 53 l -2,-7 z"
       style="opacity:0.7;fill:#cccccc;fill-opacity:1.0;fill-rule:nonzero;stroke:none;stroke-width:2;stroke-linecap:butt;stroke-linejoin:round;stroke-miterlimit:4;stroke-dasharray:none;stroke-opacity:1;paint-order:normal" />
    <path
       id="path1320"
       d="m 41,52 c 11,0 11,3 22,3"
       style="opacity:0.7;fill:none;fill-rule:evenodd;stroke:#ffffff;stroke-width:2;stroke-linecap:butt;stroke-linejoin:miter;stroke-miterlimit:4;stroke-dasharray:none;stroke-opacity:1.0" />
    <path
       style="color:#000000;font-style:normal;font-variant:normal;font-weight:normal;font-stretch:normal;font-size:medium;line-height:normal;font-family:sans-serif;font-variant-ligatures:normal;font-variant-position:normal;font-variant-caps:normal;font-variant-numeric:normal;font-variant-alternates:normal;font-feature-settings:normal;text-indent:0;text-align:start;text-decoration:none;text-decoration-line:none;text-decoration-style:solid;text-decoration-color:#000000;letter-spacing:normal;word-spacing:normal;text-transform:none;writing-mode:lr-tb;direction:ltr;text-orientation:mixed;dominant-baseline:auto;baseline-shift:baseline;text-anchor:start;white-space:normal;shape-padding:0;clip-rule:nonzero;display:inline;overflow:visible;visibility:visible;opacity:0.7;isolation:auto;mix-blend-mode:normal;color-interpolation:sRGB;color-interpolation-filters:linearRGB;solid-color:#000000;solid-opacity:1;vector-effect:none;fill:#cccccc;fill-opacity:1.0;fill-rule:evenodd;stroke:none;stroke-width:2;stroke-linecap:butt;stroke-linejoin:miter;stroke-miterlimit:4;stroke-dasharray:none;stroke-dashoffset:0;stroke-opacity:1;color-rendering:auto;image-rendering:auto;shape-rendering:auto;text-rendering:auto;enable-background:accumulate"
       d="M 1,1 V 3 C 6.3787879,3 8.9082031,3.9394531 11.658203,4.9394531 14.408203,5.9394531 17.378788,8 23,8 V 3 C 17.621212,3 15.091797,4.0605469 12.341797,3.0605469 9.5917969,2.0605469 6.6212121,1 1,1 Z"
       id="path1322" />
    <path
       style="color:#000000;font-style:normal;font-variant:normal;font-weight:normal;font-stretch:normal;font-size:medium;line-height:normal;font-family:sans-serif;font-variant-ligatures:normal;font-variant-position:normal;font-variant-caps:normal;font-variant-numeric:normal;font-variant-alternates:normal;font-feature-settings:normal;text-indent:0;text-align:start;text-decoration:none;text-decoration-line:none;text-decoration-style:solid;text-decoration-color:#000000;letter-spacing:normal;word-spacing:normal;text-transform:none;writing-mode:lr-tb;direction:ltr;text-orientation:mixed;dominant-baseline:auto;baseline-shift:baseline;text-anchor:start;white-space:normal;shape-padding:0;clip-rule:nonzero;display:inline;overflow:visible;visibility:visible;opacity:0.7;isolation:auto;mix-blend-mode:normal;color-interpolation:sRGB;color-interpolation-filters:linearRGB;solid-color:#000000;solid-opacity:1;vector-effect:none;fill:#cccccc;fill-opacity:1.0;fill-rule:evenodd;stroke:none;stroke-width:2;stroke-linecap:butt;stroke-linejoin:miter;stroke-miterlimit:4;stroke-dasharray:none;stroke-dashoffset:0;stroke-opacity:1;color-rendering:auto;image-rendering:auto;shape-rendering:auto;text-rendering:auto;enable-background:accumulate"
       d="M 1,5 V 7 C 6.3787879,7 8.9082031,7.9394531 11.658203,8.9394531 14.408203,9.9394531 17.378788,11 23,11 V 9 C 17.621212,9 15.091797,8.0605469 12.341797,7.0605469 9.5917969,6.0605469 6.6212121,5 1,5 Z"
       id="path1324" />
    <path
       style="color:#000000;font-style:normal;font-variant:normal;font-weight:normal;font-stretch:normal;font-size:medium;line-height:normal;font-family:sans-serif;font-variant-ligatures:normal;font-variant-position:normal;font-variant-caps:normal;font-variant-numeric:normal;font-variant-alternates:normal;font-feature-settings:normal;text-indent:0;text-align:start;text-decoration:none;text-decoration-line:none;text-decoration-style:solid;text-decoration-color:#000000;letter-spacing:normal;word-spacing:normal;text-transform:none;writing-mode:lr-tb;direction:ltr;text-orientation:mixed;dominant-baseline:auto;baseline-shift:baseline;text-anchor:start;white-space:normal;shape-padding:0;clip-rule:nonzero;display:inline;overflow:visible;visibility:visible;opacity:0.7;isolation:auto;mix-blend-mode:normal;color-interpolation:sRGB;color-interpolation-filters:linearRGB;solid-color:#000000;solid-opacity:1;vector-effect:none;fill:#cccccc;fill-opacity:1.0;fill-rule:evenodd;stroke:none;stroke-width:2;stroke-linecap:butt;stroke-linejoin:miter;stroke-miterlimit:4;stroke-dasharray:none;stroke-dashoffset:0;stroke-opacity:1;color-rendering:auto;image-rendering:auto;shape-rendering:auto;text-rendering:auto;enable-background:accumulate"
       d="M 23,18 C 17.439394,18 14.570312,19.515625 11.820312,20.015625 9.0703125,20.515625 6.4393939,21 1,21 v 2 C 6.5606061,23 9.4296875,22.484375 12.179688,21.984375 14.929688,21.484375 17.560606,23 23,23 Z"
       id="path1326" />
  </g>
</svg>
