<?xml version="1.0" encoding="UTF-8" standalone="no"?>
<!-- Created with Inkscape (http://www.inkscape.org/) -->

<svg
   width="24px"
   height="24px"
   viewBox="0 0 24 24"
   version="1.1"
   id="SVGRoot"
   xmlns="http://www.w3.org/2000/svg"
   xmlns:svg="http://www.w3.org/2000/svg"
   xmlns:rdf="http://www.w3.org/1999/02/22-rdf-syntax-ns#"
   xmlns:cc="http://creativecommons.org/ns#"
   xmlns:dc="http://purl.org/dc/elements/1.1/">
  <defs
     id="defs815" />
  <metadata
     id="metadata818">
    <rdf:RDF>
      <cc:Work
         rdf:about="">
        <dc:format>image/svg+xml</dc:format>
        <dc:type
           rdf:resource="http://purl.org/dc/dcmitype/StillImage" />
        <dc:title />
        <dc:creator>
          <cc:Agent>
            <dc:title>Maciej Dworak</dc:title>
          </cc:Agent>
        </dc:creator>
        <dc:rights>
          <cc:Agent>
            <dc:title />
          </cc:Agent>
        </dc:rights>
        <dc:description>RawTherapee icon.</dc:description>
        <cc:license
           rdf:resource="http://creativecommons.org/licenses/by-sa/4.0/" />
      </cc:Work>
      <cc:License
         rdf:about="http://creativecommons.org/licenses/by-sa/4.0/">
        <cc:permits
           rdf:resource="http://creativecommons.org/ns#Reproduction" />
        <cc:permits
           rdf:resource="http://creativecommons.org/ns#Distribution" />
        <cc:requires
           rdf:resource="http://creativecommons.org/ns#Notice" />
        <cc:requires
           rdf:resource="http://creativecommons.org/ns#Attribution" />
        <cc:permits
           rdf:resource="http://creativecommons.org/ns#DerivativeWorks" />
        <cc:requires
           rdf:resource="http://creativecommons.org/ns#ShareAlike" />
      </cc:License>
    </rdf:RDF>
  </metadata>
  <g
     id="layer1">
    <g
       id="g3842"
       transform="matrix(0.03878069,0,0,0.04189316,10.949046,11.097799)">
      <rect
         y="-241.03694"
         x="-24.472128"
         height="310.3132"
         width="51.57206"
         id="rect3325-3"
         style="color:#000000;display:inline;overflow:visible;visibility:visible;opacity:0.7;fill:#cccccc;fill-opacity:1.0;fill-rule:evenodd;stroke:none;stroke-width:2;marker:none" />
      <rect
         y="-241.03694"
         x="-76.044189"
         height="310.3132"
         width="25.786032"
         id="rect3320-9"
         style="color:#000000;display:inline;overflow:visible;visibility:visible;opacity:0.7;fill:#cccccc;fill-opacity:1.0;fill-rule:evenodd;stroke:none;stroke-width:2;marker:none" />
      <rect
         style="color:#000000;display:inline;overflow:visible;visibility:visible;opacity:0.7;fill:#cccccc;fill-opacity:1.0;fill-rule:evenodd;stroke:none;stroke-width:2;marker:none"
         id="rect3323-9"
         width="25.786024"
         height="310.3132"
         x="-153.40227"
         y="-241.03694" />
      <rect
         y="-241.03694"
         x="-256.54636"
         height="310.3132"
         width="77.358055"
         id="rect3321-4"
         style="color:#000000;display:inline;overflow:visible;visibility:visible;opacity:0.7;fill:#cccccc;fill-opacity:1.0;fill-rule:evenodd;stroke:none;stroke-width:2;marker:none" />
      <rect
         style="color:#000000;display:inline;overflow:visible;visibility:visible;opacity:0.1;fill:#cccccc;fill-opacity:1.0;fill-rule:evenodd;stroke:none;stroke-width:2;marker:none"
         id="rect4063-2-9"
         width="25.786036"
         height="310.3132"
         x="-179.18831"
         y="-241.03694" />
      <rect
         style="color:#000000;display:inline;overflow:visible;visibility:visible;opacity:0.1;fill:#cccccc;fill-opacity:1.0;fill-rule:evenodd;stroke:none;stroke-width:2;marker:none"
         id="rect4063-2-4"
         width="51.572056"
         height="310.3132"
         x="-127.61624"
         y="-241.03694" />
      <rect
         style="color:#000000;display:inline;overflow:visible;visibility:visible;opacity:0.1;fill:#cccccc;fill-opacity:1.0;fill-rule:evenodd;stroke:none;stroke-width:2;marker:none"
         id="rect4063-2-94"
         width="25.786028"
         height="310.3132"
         x="-50.258156"
         y="-241.03694" />
      <rect
         style="color:#000000;display:inline;overflow:visible;visibility:visible;opacity:0.7;fill:#cccccc;fill-opacity:1.0;fill-rule:evenodd;stroke:none;stroke-width:2;marker:none"
         id="rect3327-8-0"
         width="25.786015"
         height="310.3132"
         x="284.96024"
         y="-241.03694" />
      <rect
         style="color:#000000;display:inline;overflow:visible;visibility:visible;opacity:0.7;fill:#cccccc;fill-opacity:1.0;fill-rule:evenodd;stroke:none;stroke-width:2;marker:none"
         id="rect4069-2"
         width="77.358086"
         height="310.3132"
         x="156.03008"
         y="-241.03694" />
      <rect
         style="color:#000000;display:inline;overflow:visible;visibility:visible;opacity:0.7;fill:#cccccc;fill-opacity:1.0;fill-rule:evenodd;stroke:none;stroke-width:2;marker:none"
         id="rect4065-3"
         width="25.786028"
         height="310.3132"
         x="78.671989"
         y="-241.03694" />
      <rect
         style="color:#000000;display:inline;overflow:visible;visibility:visible;opacity:0.1;fill:#cccccc;fill-opacity:1.0;fill-rule:evenodd;stroke:none;stroke-width:2;marker:none"
         id="rect4063-2-3"
         width="51.57206"
         height="310.3132"
         x="27.09993"
         y="-241.03694" />
      <rect
         style="color:#000000;display:inline;overflow:visible;visibility:visible;opacity:0.1;fill:#cccccc;fill-opacity:1.0;fill-rule:evenodd;stroke:none;stroke-width:2;marker:none"
         id="rect4063-2-7"
         width="51.572052"
         height="310.3132"
         x="104.45802"
         y="-241.03694" />
      <rect
         style="color:#000000;display:inline;overflow:visible;visibility:visible;opacity:0.1;fill:#cccccc;fill-opacity:1.0;fill-rule:evenodd;stroke:none;stroke-width:2;marker:none"
         id="rect4063-2-4-29"
         width="51.572052"
         height="310.3132"
         x="233.38817"
         y="-241.03694" />
    </g>
    <path
       style="font-style:normal;font-variant:normal;font-weight:bold;font-stretch:normal;font-size:213.7250824px;line-height:125%;font-family:Sans;-inkscape-font-specification:'Sans Bold';text-align:start;writing-mode:lr-tb;text-anchor:start;opacity:0.7;fill:#cccccc;fill-opacity:1.0;stroke:#ffffff;stroke-width:0;stroke-miterlimit:4;stroke-dasharray:none;stroke-opacity:1.0"
       d="m 0.99999826,22.38002 c 0.48427994,0 0.96855984,0 1.45284214,0 0.00873,-1.316059 -0.017519,-2.634428 0.013216,-3.949034 0.018426,-0.291743 0.1835819,0.265625 0.2312746,0.371177 0.293295,0.794269 0.5865924,1.588537 0.8798898,2.382806 0.3232284,0 0.6464545,0 0.969683,0 0.3584781,-0.929269 0.6691825,-1.884022 1.0551192,-2.801485 0.1017413,-0.149121 0.058601,0.381093 0.069262,0.508572 0,1.162655 0,2.325309 0,3.487964 0.4827855,0 0.965571,0 1.4483565,0 0,-2.126535 0,-4.253068 0,-6.379603 -0.6251544,0 -1.2503089,0 -1.8754633,0 -0.3973351,1.066826 -0.7882785,2.136396 -1.1849188,3.204799 -0.3941797,-1.06781 -0.7860322,-2.136606 -1.1793124,-3.204799 -0.6266489,0 -1.2533001,0 -1.87994894,0 0,2.126535 0,4.253068 2e-7,6.379603 z m 7.34716014,0 c 1.3194397,0 2.6388796,0 3.9583196,0 0,-0.457543 0,-0.915086 0,-1.372629 -0.811618,0 -1.623237,0 -2.4348545,0 0,-0.421548 0,-0.843094 0,-1.264641 0.7380035,0 1.4760075,0 2.2140145,0 0,-0.457144 0,-0.914286 0,-1.371429 -0.738007,0 -1.476011,0 -2.2140145,0 0,-0.332758 0,-0.665517 0,-0.998275 0.7847135,0 1.5694275,0 2.3541415,0 0,-0.457543 0,-0.915086 0,-1.372629 -1.292536,0 -2.585071,0 -3.8776066,0 0,2.126535 0,4.253068 0,6.379603 z M 12.74716,17.373046 c 0.595261,0 1.190522,0 1.785784,0 0,1.66899 0,3.337982 0,5.006974 0.508195,0 1.01639,0 1.524586,0 0,-1.668992 0,-3.337984 0,-5.006974 0.59414,0 1.188279,0 1.782419,0 0,-0.457543 0,-0.915086 0,-1.372629 -1.697597,0 -3.395192,0 -5.092789,0 0,0.457543 0,0.915086 0,1.372629 z m 6.461554,-1.370229 c -0.680005,2.1259 -1.360303,4.251694 -2.041376,6.377203 0.513801,0 1.027601,0 1.541402,0 0.113359,-0.377763 0.228129,-0.755042 0.341911,-1.132658 0.690174,0 1.380347,0 2.070523,0 0.112982,0.377444 0.225123,0.754996 0.337425,1.132658 0.513802,0 1.027601,0 1.541403,0 -0.680353,-2.126573 -1.360217,-4.253325 -2.041377,-6.379603 -0.582549,0.0016 -1.1711,-0.0032 -1.749911,0.0024 z m 0.943897,2.010948 c 0.190762,0.639856 0.379993,1.280239 0.571722,1.919761 -0.427109,0 -0.854218,0 -1.281325,0 0.21472,-0.716373 0.427807,-1.433312 0.641222,-2.150132 0.02279,0.07679 0.04559,0.153581 0.06838,0.230371 z"
       id="text3155-6-3-3-4-8" />
  </g>
</svg>
