<?xml version="1.0" encoding="UTF-8" standalone="no"?>
<!-- Created with Inkscape (http://www.inkscape.org/) -->

<svg
   width="24px"
   height="24px"
   viewBox="0 0 24 24"
   version="1.1"
   id="SVGRoot"
   xmlns="http://www.w3.org/2000/svg"
   xmlns:svg="http://www.w3.org/2000/svg"
   xmlns:rdf="http://www.w3.org/1999/02/22-rdf-syntax-ns#"
   xmlns:cc="http://creativecommons.org/ns#"
   xmlns:dc="http://purl.org/dc/elements/1.1/">
  <defs
     id="defs815" />
  <metadata
     id="metadata818">
    <rdf:RDF>
      <cc:Work
         rdf:about="">
        <dc:format>image/svg+xml</dc:format>
        <dc:type
           rdf:resource="http://purl.org/dc/dcmitype/StillImage" />
        <dc:title />
        <dc:creator>
          <cc:Agent>
            <dc:title>Maciej Dworak</dc:title>
          </cc:Agent>
        </dc:creator>
        <dc:rights>
          <cc:Agent>
            <dc:title />
          </cc:Agent>
        </dc:rights>
        <dc:description>RawTherapee icon.</dc:description>
        <cc:license
           rdf:resource="http://creativecommons.org/licenses/by-sa/4.0/" />
      </cc:Work>
      <cc:License
         rdf:about="http://creativecommons.org/licenses/by-sa/4.0/">
        <cc:permits
           rdf:resource="http://creativecommons.org/ns#Reproduction" />
        <cc:permits
           rdf:resource="http://creativecommons.org/ns#Distribution" />
        <cc:requires
           rdf:resource="http://creativecommons.org/ns#Notice" />
        <cc:requires
           rdf:resource="http://creativecommons.org/ns#Attribution" />
        <cc:permits
           rdf:resource="http://creativecommons.org/ns#DerivativeWorks" />
        <cc:requires
           rdf:resource="http://creativecommons.org/ns#ShareAlike" />
      </cc:License>
    </rdf:RDF>
  </metadata>
  <g
     id="layer1">
    <path
       id="path829"
       d="m 1,6.2727273 c 0,0 0.6918239,-0.102916 0.6918239,-0.102916 C 1.6918239,6.1698113 23,3 23,3 c 0,0 0,18 0,18 0,0 -22,-2.454545 -22,-2.454545 0,0 0,-12.2727277 0,-12.2727277 M 2.4042553,7.212766 c 0,0 0,2.2978723 0,2.2978723 0,0 3.0753827,-0.239145 3.0753827,-0.239145 0,0 0,-2.443439 0,-2.443439 0,0 -3.0753827,0.3847117 -3.0753827,0.3847117 m 0,3.446808 c 0,0 0,3.446809 0,3.446809 0,0 3.0753827,0.05199 3.0753827,0.05199 0,0 0,-3.665158 0,-3.665158 0,0 -3.0753827,0.166362 -3.0753827,0.166362 m 0,4.595744 c 0,0 0,2.297873 0,2.297873 0,0 3.0753827,0.270338 3.0753827,0.270338 0,0 0,-2.443439 0,-2.443439 0,0 -3.0753827,-0.124772 -3.0753827,-0.124772 m 4.763969,-8.6384956 c 0,0 0,2.5233646 0,2.5233646 0,0 5.8006877,-0.4510678 5.8006877,-0.4510678 0,0 0,-2.7979274 0,-2.7979274 0,0 -5.8006877,0.7256306 -5.8006877,0.7256306 m 0,3.7850466 c 0,0 0,3.785047 0,3.785047 0,0 5.8006877,0.09806 5.8006877,0.09806 0,0 0,-4.196891 0,-4.196891 0,0 -5.8006877,0.313786 -5.8006877,0.313786 m 0,5.046729 c 0,0 0,2.523364 0,2.523364 0,0 5.8006877,0.509904 5.8006877,0.509904 0,0 0,-2.797928 0,-2.797928 0,0 -5.8006877,-0.23534 -5.8006877,-0.23534 M 15.193548,5.6129033 c 0,0 0,2.9032258 0,2.9032258 0,0 4.992499,-0.3882221 4.992499,-0.3882221 0,0 0,-3.1395348 0,-3.1395348 0,0 -4.992499,0.6245311 -4.992499,0.6245311 m 0,4.3548386 c 0,0 0,4.3548391 0,4.3548391 0,0 4.992499,0.0844 4.992499,0.0844 0,0 0,-4.7093016 0,-4.7093016 0,0 -4.992499,0.2700675 -4.992499,0.2700675 m 0,5.8064511 c 0,0 0,2.903226 0,2.903226 0,0 4.992499,0.43886 4.992499,0.43886 0,0 0,-3.139535 0,-3.139535 0,0 -4.992499,-0.202551 -4.992499,-0.202551"
       style="color:#000000;font-style:normal;font-variant:normal;font-weight:normal;font-stretch:normal;font-size:medium;line-height:normal;font-family:sans-serif;font-variant-ligatures:normal;font-variant-position:normal;font-variant-caps:normal;font-variant-numeric:normal;font-variant-alternates:normal;font-feature-settings:normal;text-indent:0;text-align:start;text-decoration:none;text-decoration-line:none;text-decoration-style:solid;text-decoration-color:#000000;letter-spacing:normal;word-spacing:normal;text-transform:none;writing-mode:lr-tb;direction:ltr;text-orientation:mixed;dominant-baseline:auto;baseline-shift:baseline;text-anchor:start;white-space:normal;shape-padding:0;clip-rule:nonzero;display:inline;overflow:visible;visibility:visible;opacity:0.7;isolation:auto;mix-blend-mode:normal;color-interpolation:sRGB;color-interpolation-filters:linearRGB;solid-color:#000000;solid-opacity:1;vector-effect:none;fill:#cccccc;fill-opacity:1.0;fill-rule:evenodd;stroke:none;stroke-width:2;stroke-linecap:butt;stroke-linejoin:miter;stroke-miterlimit:4;stroke-dasharray:none;stroke-dashoffset:0;stroke-opacity:1;color-rendering:auto;image-rendering:auto;shape-rendering:auto;text-rendering:auto;enable-background:accumulate" />
    <path
       id="path1484"
       style="opacity:0.7;fill:none;fill-rule:evenodd;stroke:#cccccc;stroke-width:2;stroke-linecap:butt;stroke-linejoin:miter;stroke-miterlimit:4;stroke-dasharray:none;stroke-opacity:1.0"
       d="M 56,2 V 22 M 48,2 V 22 M 42,16 H 62 M 42,8 H 62 M 42,2 H 62 V 22 H 42 Z" />
  </g>
</svg>
