<?xml version="1.0" encoding="UTF-8" standalone="no"?>
<svg
   width="16"
   height="16"
   viewBox="0 0 16 16"
   version="1.1"
   id="SVGRoot"
   xmlns="http://www.w3.org/2000/svg"
   xmlns:svg="http://www.w3.org/2000/svg"
   xmlns:rdf="http://www.w3.org/1999/02/22-rdf-syntax-ns#"
   xmlns:cc="http://creativecommons.org/ns#"
   xmlns:dc="http://purl.org/dc/elements/1.1/">
  <defs
     id="defs815" />
  <metadata
     id="metadata818">
    <rdf:RDF>
      <cc:Work
         rdf:about="">
        <dc:format>image/svg+xml</dc:format>
        <dc:type
           rdf:resource="http://purl.org/dc/dcmitype/StillImage" />
        <dc:title />
        <dc:creator>
          <cc:Agent>
            <dc:title>Maciej Dworak</dc:title>
          </cc:Agent>
        </dc:creator>
        <dc:rights>
          <cc:Agent>
            <dc:title />
          </cc:Agent>
        </dc:rights>
        <dc:description>RawTherapee icon.</dc:description>
        <cc:license
           rdf:resource="http://creativecommons.org/licenses/by-sa/4.0/" />
      </cc:Work>
      <cc:License
         rdf:about="http://creativecommons.org/licenses/by-sa/4.0/">
        <cc:permits
           rdf:resource="http://creativecommons.org/ns#Reproduction" />
        <cc:permits
           rdf:resource="http://creativecommons.org/ns#Distribution" />
        <cc:requires
           rdf:resource="http://creativecommons.org/ns#Notice" />
        <cc:requires
           rdf:resource="http://creativecommons.org/ns#Attribution" />
        <cc:permits
           rdf:resource="http://creativecommons.org/ns#DerivativeWorks" />
        <cc:requires
           rdf:resource="http://creativecommons.org/ns#ShareAlike" />
      </cc:License>
    </rdf:RDF>
  </metadata>
  <g
     id="layer1"
     transform="translate(0,-8)">
    <path
       style="display:none;opacity:0.75;fill:none;fill-opacity:0.752941;fill-rule:nonzero;stroke:#cccccc;stroke-width:2.9;stroke-linecap:round;stroke-linejoin:miter;stroke-miterlimit:4;stroke-dasharray:none;stroke-opacity:1.0;paint-order:normal"
       d="M 11.503774,13.128228 A 5,5 0 0 1 13,16.695239 v 0 a 5,5 0 0 1 -5,5 5,5 0 0 1 -5,-5 5,5 0 0 1 1.499601,-3.570323"
       id="path5608-3" />
    <path
       style="display:none;opacity:0.75;fill:none;fill-rule:evenodd;stroke:#cccccc;stroke-width:3.9;stroke-linecap:round;stroke-linejoin:miter;stroke-miterlimit:4;stroke-dasharray:none;stroke-opacity:1.0;paint-order:normal"
       d="m 7.9999994,10.551133 v 3.912126"
       id="path2553-6" />
    <path
       id="path839"
       style="color:#000000;font-style:normal;font-variant:normal;font-weight:normal;font-stretch:normal;font-size:medium;line-height:normal;font-family:sans-serif;font-variant-ligatures:normal;font-variant-position:normal;font-variant-caps:normal;font-variant-numeric:normal;font-variant-alternates:normal;font-variant-east-asian:normal;font-feature-settings:normal;font-variation-settings:normal;text-indent:0;text-align:start;text-decoration:none;text-decoration-line:none;text-decoration-style:solid;text-decoration-color:#000000;letter-spacing:normal;word-spacing:normal;text-transform:none;writing-mode:lr-tb;direction:ltr;text-orientation:mixed;dominant-baseline:auto;baseline-shift:baseline;text-anchor:start;white-space:normal;shape-padding:0;shape-margin:0;inline-size:0;clip-rule:nonzero;display:inline;overflow:visible;visibility:visible;opacity:1;isolation:auto;mix-blend-mode:normal;color-interpolation:sRGB;color-interpolation-filters:linearRGB;solid-color:#000000;solid-opacity:1;vector-effect:none;fill:#f1f1f1;fill-opacity:1.0;fill-rule:evenodd;stroke:none;stroke-width:0.266667;stroke-linecap:round;stroke-linejoin:miter;stroke-miterlimit:4;stroke-dasharray:none;stroke-dashoffset:0;stroke-opacity:1;paint-order:normal;color-rendering:auto;image-rendering:auto;shape-rendering:auto;text-rendering:auto;enable-background:accumulate;stop-color:#000000;stop-opacity:1.0"
       d="M 8.0000002,9.2447604 A 1.2218936,1.2217828 0 0 0 6.77751,10.46714 v 3.846109 a 1.2218936,1.2217828 0 0 0 1.2224902,1.22238 1.2218936,1.2217828 0 0 0 1.22249,-1.22238 V 10.46714 A 1.2218936,1.2217828 0 0 0 8.0000002,9.2447604 Z M 4.5455258,11.780796 A 1.2218936,1.2217828 0 0 0 3.6971212,12.128 c -1.1790295,1.153783 -1.8435795,2.735852 -1.8435795,4.384817 -4e-7,3.376499 2.7671706,6.136953 6.1464585,6.136953 3.3792878,0 6.1464588,-2.760454 6.1464578,-6.136953 0,-1.646953 -0.663499,-3.22596 -1.839998,-4.379448 a 1.2218936,1.2217828 0 0 0 -1.727238,0.01611 1.2218936,1.2217828 0 0 0 0.01611,1.72887 c 0.709034,0.695164 1.107938,1.643337 1.107938,2.63447 0,2.05355 -1.642357,3.693983 -3.7032678,3.693983 -2.0609116,0 -3.7032683,-1.640433 -3.7032681,-3.693983 0,-0.992346 0.399166,-1.942703 1.1097276,-2.638049 a 1.2218936,1.2217828 0 0 0 0.019688,-1.72708 1.2218936,1.2217828 0 0 0 -0.8806222,-0.366892 z" />
    <path
       style="display:none;opacity:0.1;fill:none;fill-opacity:0.752941;fill-rule:nonzero;stroke:#1f90e0;stroke-width:2;stroke-linecap:round;stroke-linejoin:miter;stroke-miterlimit:4;stroke-dasharray:none;stroke-opacity:1.0;paint-order:normal"
       d="M 11.503774,13.13695 A 5,5 0 0 1 13,16.703961 v 0 a 5,5 0 0 1 -5,5 5,5 0 0 1 -5,-5 5,5 0 0 1 1.499601,-3.570323"
       id="path5608-36" />
    <path
       style="display:none;opacity:0.05;fill:none;fill-rule:evenodd;stroke:#1f90e0;stroke-width:3;stroke-linecap:round;stroke-linejoin:miter;stroke-miterlimit:4;stroke-dasharray:none;stroke-opacity:1.0;paint-order:normal"
       d="m 7.9999994,10.551133 v 3.912126"
       id="path2553-7" />
  </g>
</svg>
