<?xml version="1.0" encoding="UTF-8" standalone="no"?>
<!-- Created with Inkscape (http://www.inkscape.org/) -->

<svg
   width="24px"
   height="24px"
   viewBox="0 0 24 24"
   version="1.1"
   id="SVGRoot"
   xmlns="http://www.w3.org/2000/svg"
   xmlns:svg="http://www.w3.org/2000/svg"
   xmlns:rdf="http://www.w3.org/1999/02/22-rdf-syntax-ns#"
   xmlns:cc="http://creativecommons.org/ns#"
   xmlns:dc="http://purl.org/dc/elements/1.1/">
  <defs
     id="defs815" />
  <metadata
     id="metadata818">
    <rdf:RDF>
      <cc:Work
         rdf:about="">
        <dc:format>image/svg+xml</dc:format>
        <dc:type
           rdf:resource="http://purl.org/dc/dcmitype/StillImage" />
        <dc:title />
        <dc:creator>
          <cc:Agent>
            <dc:title>Maciej Dworak</dc:title>
          </cc:Agent>
        </dc:creator>
        <dc:rights>
          <cc:Agent>
            <dc:title />
          </cc:Agent>
        </dc:rights>
        <dc:description>RawTherapee icon.</dc:description>
        <cc:license
           rdf:resource="http://creativecommons.org/licenses/by-sa/4.0/" />
      </cc:Work>
      <cc:License
         rdf:about="http://creativecommons.org/licenses/by-sa/4.0/">
        <cc:permits
           rdf:resource="http://creativecommons.org/ns#Reproduction" />
        <cc:permits
           rdf:resource="http://creativecommons.org/ns#Distribution" />
        <cc:requires
           rdf:resource="http://creativecommons.org/ns#Notice" />
        <cc:requires
           rdf:resource="http://creativecommons.org/ns#Attribution" />
        <cc:permits
           rdf:resource="http://creativecommons.org/ns#DerivativeWorks" />
        <cc:requires
           rdf:resource="http://creativecommons.org/ns#ShareAlike" />
      </cc:License>
    </rdf:RDF>
  </metadata>
  <g
     id="layer1">
    <path
       style="display:inline;opacity:0.9;fill:#cccccc;fill-opacity:1.0;stroke:none;stroke-width:0.0348262"
       d="m 1,12 3.999996,5 4.000005,-5 z"
       id="path2866" />
    <path
       style="opacity:0.9;fill:none;fill-opacity:1;fill-rule:nonzero;stroke:#cccccc;stroke-width:3;stroke-linecap:butt;stroke-linejoin:miter;stroke-miterlimit:4;stroke-dasharray:none;stroke-opacity:1.0;paint-order:normal"
       d="M 5,12 A 7,7 0 0 1 12,5"
       id="path1684" />
    <g
       aria-label="90°"
       style="font-style:normal;font-variant:normal;font-weight:normal;font-stretch:normal;font-size:9.45023155px;line-height:125%;font-family:'Arial Black';-inkscape-font-specification:'Arial Black, ';letter-spacing:0px;word-spacing:0px;opacity:0.7;fill:#cccccc;fill-opacity:1.0;stroke:none;stroke-width:0.99999994px;stroke-linecap:butt;stroke-linejoin:miter;stroke-opacity:1"
       id="text1716">
      <path
         d="m 7.6526021,20.366514 1.8688202,-0.235333 q 0.07383,0.392221 0.249176,0.553724 0.1753461,0.161503 0.4291367,0.161503 0.452208,0 0.705999,-0.456823 0.184574,-0.336849 0.276862,-1.42584 -0.336849,0.346078 -0.692156,0.507581 -0.355306,0.161503 -0.8213578,0.161503 -0.9090311,0 -1.5365855,-0.646012 -0.6229401,-0.646012 -0.6229401,-1.633488 0,-0.673698 0.3183916,-1.227422 0.3183916,-0.553725 0.8767305,-0.835201 0.5583388,-0.286091 1.4027683,-0.286091 1.015162,0 1.628873,0.350692 0.613712,0.346078 0.978247,1.107449 0.36915,0.756757 0.36915,2.002637 0,1.831905 -0.7706,2.685564 -0.7706,0.849044 -2.136454,0.849044 -0.8075149,0 -1.2735664,-0.184575 Q 8.4370451,21.626237 8.1278823,21.266316 7.8187194,20.906395 7.6526021,20.366514 Z M 11.11338,17.348715 q 0,-0.54911 -0.276862,-0.858273 -0.276862,-0.313777 -0.673698,-0.313777 -0.3737642,0 -0.6229402,0.281476 -0.2445617,0.281477 -0.2445617,0.84443 0,0.567568 0.2537904,0.867502 0.2584048,0.299934 0.6413975,0.299934 0.396836,0 0.659855,-0.290705 0.263019,-0.290706 0.263019,-0.830587 z"
         style="stroke-width:0.99999994px;fill-opacity:1.0;fill:#cccccc"
         id="path20" />
      <path
         d="m 13.882003,18.474622 q 0,-1.928807 0.692156,-2.699407 0.69677,-0.7706 2.117996,-0.7706 0.682927,0 1.121292,0.170731 0.438365,0.166118 0.715227,0.438366 0.276863,0.267633 0.433751,0.567567 0.161503,0.29532 0.258405,0.692156 0.189189,0.756757 0.189189,1.578115 0,1.841134 -0.62294,2.694792 -0.62294,0.853659 -2.145682,0.853659 -0.853659,0 -1.379697,-0.272248 -0.526039,-0.272248 -0.862888,-0.798286 -0.244561,-0.373764 -0.382992,-1.019776 -0.133817,-0.650626 -0.133817,-1.435069 z m 1.864206,0.0046 q 0,1.292024 0.226104,1.767304 0.230718,0.470666 0.664469,0.470666 0.286091,0 0.493738,-0.198418 0.212261,-0.203032 0.309163,-0.636783 0.101516,-0.433751 0.101516,-1.352011 0,-1.347396 -0.230719,-1.808833 -0.226104,-0.466052 -0.682926,-0.466052 -0.466052,0 -0.673699,0.47528 -0.207646,0.470666 -0.207646,1.748847 z"
         style="stroke-width:0.99999994px;fill-opacity:1.0;fill:#cccccc"
         id="path22" />
      <path
         d="m 23,16.31971 q 0,0.544496 -0.387607,0.932103 -0.387607,0.387607 -0.936718,0.387607 -0.544495,0 -0.932103,-0.387607 -0.387607,-0.387607 -0.387607,-0.932103 0,-0.54911 0.387607,-0.932103 Q 21.13118,15 21.675675,15 22.224786,15 22.612393,15.387607 23,15.7706 23,16.31971 Z m -0.858273,-0.0046 q 0,-0.193804 -0.138431,-0.332235 -0.133817,-0.138431 -0.327621,-0.138431 -0.193803,0 -0.332234,0.138431 -0.138431,0.138431 -0.138431,0.332235 0,0.193804 0.138431,0.332235 0.138431,0.133816 0.332234,0.133816 0.193804,0 0.327621,-0.133816 0.138431,-0.138431 0.138431,-0.332235 z"
         style="stroke-width:0.99999994px;fill-opacity:1.0;fill:#cccccc"
         id="path24" />
    </g>
    <path
       id="path1724"
       d="m -39,12 3.999996,5 4.000005,-5 z"
       style="display:inline;opacity:0.7;fill:#cccccc;fill-opacity:1.0;stroke:none;stroke-width:0.0348262" />
    <path
       id="path1726"
       d="m -35,12 a 7,7 0 0 1 7,-7"
       style="opacity:0.7;fill:none;fill-opacity:1;fill-rule:nonzero;stroke:#cccccc;stroke-width:3;stroke-linecap:butt;stroke-linejoin:miter;stroke-miterlimit:4;stroke-dasharray:none;stroke-opacity:1.0;paint-order:normal" />
    <path
       id="path1728"
       d="m -28,5 a 7,7 0 0 1 7,7 v 0 0 a 7,7 0 0 1 -7,7 7,7 0 0 1 -4.949657,-2.050162"
       style="opacity:0.7;fill:none;fill-opacity:1;fill-rule:nonzero;stroke:#cccccc;stroke-width:1;stroke-linecap:butt;stroke-linejoin:miter;stroke-miterlimit:4;stroke-dasharray:2, 2;stroke-dashoffset:10;stroke-opacity:1.0;paint-order:normal" />
    <path
       style="opacity:0.7;fill:none;fill-opacity:1;fill-rule:nonzero;stroke:#cccccc;stroke-width:1;stroke-linecap:butt;stroke-linejoin:miter;stroke-miterlimit:4;stroke-dasharray:2, 2;stroke-dashoffset:10;stroke-opacity:1.0;paint-order:normal"
       d="M 12 5 A 7 7 0 0 1 19 12 L 19 12 L 19 12 A 7 7 0 0 1 18.707883 14.001075 "
       id="path1734" />
    <text
       id="text18"
       y="21.884642"
       x="27.181936"
       style="font-style:normal;font-variant:normal;font-weight:normal;font-stretch:normal;font-size:9.45023px;line-height:125%;font-family:'Arial Black';-inkscape-font-specification:'Arial Black, ';letter-spacing:0px;word-spacing:0px;opacity:0.7;fill:#cccccc;fill-opacity:1;stroke:none;stroke-width:1px;stroke-linecap:butt;stroke-linejoin:miter;stroke-opacity:1"
       xml:space="preserve"><tspan
         style="fill:#cccccc;fill-opacity:1;stroke-width:1px"
         y="21.884642"
         x="27.181936"
         id="tspan16">90°</tspan></text>
  </g>
</svg>
