<?xml version="1.0" encoding="UTF-8" standalone="no"?>
<!-- Created with Inkscape (http://www.inkscape.org/) -->

<svg
   width="24px"
   height="24px"
   viewBox="0 0 24 24"
   version="1.1"
   id="SVGRoot"
   xmlns="http://www.w3.org/2000/svg"
   xmlns:svg="http://www.w3.org/2000/svg"
   xmlns:rdf="http://www.w3.org/1999/02/22-rdf-syntax-ns#"
   xmlns:cc="http://creativecommons.org/ns#"
   xmlns:dc="http://purl.org/dc/elements/1.1/">
  <defs
     id="defs815" />
  <metadata
     id="metadata818">
    <rdf:RDF>
      <cc:Work
         rdf:about="">
        <dc:format>image/svg+xml</dc:format>
        <dc:type
           rdf:resource="http://purl.org/dc/dcmitype/StillImage" />
        <dc:title />
        <dc:creator>
          <cc:Agent>
            <dc:title>Maciej Dworak</dc:title>
          </cc:Agent>
        </dc:creator>
        <dc:rights>
          <cc:Agent>
            <dc:title />
          </cc:Agent>
        </dc:rights>
        <dc:description>RawTherapee icon.</dc:description>
        <cc:license
           rdf:resource="http://creativecommons.org/licenses/by-sa/4.0/" />
      </cc:Work>
      <cc:License
         rdf:about="http://creativecommons.org/licenses/by-sa/4.0/">
        <cc:permits
           rdf:resource="http://creativecommons.org/ns#Reproduction" />
        <cc:permits
           rdf:resource="http://creativecommons.org/ns#Distribution" />
        <cc:requires
           rdf:resource="http://creativecommons.org/ns#Notice" />
        <cc:requires
           rdf:resource="http://creativecommons.org/ns#Attribution" />
        <cc:permits
           rdf:resource="http://creativecommons.org/ns#DerivativeWorks" />
        <cc:requires
           rdf:resource="http://creativecommons.org/ns#ShareAlike" />
      </cc:License>
    </rdf:RDF>
  </metadata>
  <g
     id="layer1">
    <g
       id="g34984"
       transform="translate(-80)">
      <path
         style="opacity:0.3;fill:#cccccc;fill-opacity:1.0;fill-rule:nonzero;stroke:none;stroke-width:2;stroke-linecap:butt;stroke-linejoin:round;stroke-miterlimit:4;stroke-dasharray:none;stroke-dashoffset:2;stroke-opacity:1;paint-order:normal"
         d="m 12.603516,20 c -0.453776,0 -0.907552,0 -1.361328,0 0.395652,0.284746 0.964388,0.278373 1.361328,0 z"
         id="path35160" />
      <path
         style="opacity:0.3;fill:#cccccc;fill-opacity:1.0;fill-rule:nonzero;stroke:none;stroke-width:2;stroke-linecap:butt;stroke-linejoin:round;stroke-miterlimit:4;stroke-dasharray:none;stroke-dashoffset:2;stroke-opacity:1;paint-order:normal"
         d="m 7.9765625,9 c 0.058261,0.3878133 0.1578463,0.7487678 0.1933594,1.150391 H 6.4023438 a 1.2115585,1.2115585 0 0 0 -0.1210938,0.0059 1.2115585,1.2115585 0 0 0 -0.1191406,0.01758 1.2115585,1.2115585 0 0 0 -0.1171875,0.03125 1.2115585,1.2115585 0 0 0 -0.1152344,0.04102 1.2115585,1.2115585 0 0 0 -0.1074219,0.05273 1.2115585,1.2115585 0 0 0 -0.1035156,0.0625 1.2115585,1.2115585 0 0 0 -0.097656,0.07422 1.2115585,1.2115585 0 0 0 -0.087891,0.08203 1.2115585,1.2115585 0 0 0 -0.080078,0.0918 1.2115585,1.2115585 0 0 0 -0.070312,0.09766 A 1.2115585,1.2115585 0 0 0 5.3222656,10.8125 1.2115585,1.2115585 0 0 0 5.2734375,10.923828 1.2115585,1.2115585 0 0 0 5.2480469,11 H 18.59375 a 1.2115585,1.2115585 0 0 0 -0.02734,-0.08203 1.2115585,1.2115585 0 0 0 -0.05078,-0.111328 1.2115585,1.2115585 0 0 0 -0.06055,-0.103516 1.2115585,1.2115585 0 0 0 -0.07031,-0.09961 1.2115585,1.2115585 0 0 0 -0.08008,-0.08984 1.2115585,1.2115585 0 0 0 -0.08984,-0.08203 1.2115585,1.2115585 0 0 0 -0.0957,-0.07227 1.2115585,1.2115585 0 0 0 -0.103516,-0.0625 1.2115585,1.2115585 0 0 0 -0.109375,-0.05273 1.2115585,1.2115585 0 0 0 -0.115234,-0.04102 1.2115585,1.2115585 0 0 0 -0.117188,-0.0293 1.2115585,1.2115585 0 0 0 -0.11914,-0.01758 1.2115585,1.2115585 0 0 0 -0.115235,-0.0059 H 15.238281 C 15.170332,9.7604272 15.03518,9.3853944 14.941406,9 Z"
         id="path35158" />
      <path
         style="opacity:0.7;fill:#cccccc;fill-opacity:1.0;fill-rule:nonzero;stroke:none;stroke-width:2;stroke-linecap:butt;stroke-linejoin:round;stroke-miterlimit:4;stroke-dasharray:none;stroke-dashoffset:2;stroke-opacity:1;paint-order:normal"
         d="M 2.8554688,2.0605469 C 2.3812131,2.1393366 2,2.5027155 2,3 v 18 c 0,0.554 0.446,1 1,1 h 18 c 0.554,0 1,-0.446 1,-1 V 6 L 18,2 h -7.617188 c 0.376118,0.2871423 0.636213,0.6726392 0.97461,1 H 17 c 0.554,0 1,0.446 1,1 v 4 c 0,0.554 -0.446,1 -1,1 h -2.058594 c 0.09377,0.3853944 0.228926,0.7604272 0.296875,1.150391 h 2.201172 a 1.2115585,1.2115585 0 0 1 0.115235,0.0059 1.2115585,1.2115585 0 0 1 0.11914,0.01758 1.2115585,1.2115585 0 0 1 0.117188,0.0293 1.2115585,1.2115585 0 0 1 0.115234,0.04102 1.2115585,1.2115585 0 0 1 0.109375,0.05273 1.2115585,1.2115585 0 0 1 0.103516,0.0625 1.2115585,1.2115585 0 0 1 0.0957,0.07227 1.2115585,1.2115585 0 0 1 0.08984,0.08203 1.2115585,1.2115585 0 0 1 0.08008,0.08984 1.2115585,1.2115585 0 0 1 0.07031,0.09961 1.2115585,1.2115585 0 0 1 0.06055,0.103516 1.2115585,1.2115585 0 0 1 0.05078,0.111328 A 1.2115585,1.2115585 0 0 1 18.59375,11 h 0.517578 C 19.603773,11 20,11.401791 20,11.900391 v 7.199218 C 20,19.598209 19.603773,20 19.111328,20 h -6.507812 a 1.2115585,1.2115585 0 0 1 -0.04297,0.0293 1.2115585,1.2115585 0 0 1 -0.107422,0.05859 1.2115585,1.2115585 0 0 1 -0.111328,0.04883 1.2115585,1.2115585 0 0 1 -0.115235,0.03516 1.2115585,1.2115585 0 0 1 -0.11914,0.02539 1.2115585,1.2115585 0 0 1 -0.119141,0.01172 1.2115585,1.2115585 0 0 1 -0.121093,0.002 A 1.2115585,1.2115585 0 0 1 11.746093,20.19927 1.2115585,1.2115585 0 0 1 11.626952,20.17583 1.2115585,1.2115585 0 0 1 11.511718,20.14067 1.2115585,1.2115585 0 0 1 11.40039,20.0938 1.2115585,1.2115585 0 0 1 11.292968,20.03521 1.2115585,1.2115585 0 0 1 11.242188,20 H 4.8886719 C 4.3962275,20 4,19.598209 4,19.099609 V 11.900391 C 4,11.401791 4.3962275,11 4.8886719,11 h 0.359375 a 1.2115585,1.2115585 0 0 1 0.025391,-0.07617 1.2115585,1.2115585 0 0 1 0.048828,-0.111328 1.2115585,1.2115585 0 0 1 0.060547,-0.105469 1.2115585,1.2115585 0 0 1 0.070312,-0.09766 1.2115585,1.2115585 0 0 1 0.080078,-0.0918 1.2115585,1.2115585 0 0 1 0.087891,-0.08203 1.2115585,1.2115585 0 0 1 0.097656,-0.07422 1.2115585,1.2115585 0 0 1 0.1035156,-0.0625 1.2115585,1.2115585 0 0 1 0.1074219,-0.05273 1.2115585,1.2115585 0 0 1 0.1152344,-0.04102 1.2115585,1.2115585 0 0 1 0.1171875,-0.03125 1.2115585,1.2115585 0 0 1 0.1191406,-0.01758 1.2115585,1.2115585 0 0 1 0.1210938,-0.0059 H 8.1699219 C 8.1344088,9.7487678 8.0348231,9.3878133 7.9765625,9 H 7 C 6.446,9 6,8.554 6,8 V 5.0019531 C 5.3956127,4.440978 4.7593255,3.8884314 3.9589844,3.609375 A 1.2115585,1.2115585 0 0 1 3.9179688,3.59375 1.2115585,1.2115585 0 0 1 3.8085938,3.5449219 1.2115585,1.2115585 0 0 1 3.703125,3.484375 C 3.396755,3.2879905 3.1688672,3.0378127 3.0175781,2.75 2.9085777,2.5426374 2.8850498,2.29953 2.8554688,2.0605469 Z"
         id="path35156" />
      <path
         style="opacity:0.3;fill:#cccccc;fill-opacity:1.0;fill-rule:nonzero;stroke:none;stroke-width:2;stroke-linecap:butt;stroke-linejoin:round;stroke-miterlimit:4;stroke-dasharray:none;stroke-dashoffset:2;stroke-opacity:1;paint-order:normal"
         d="M 2.8554688,2.0605469 C 2.8850498,2.29953 2.9085777,2.5426374 3.0175781,2.75 3.1688672,3.0378127 3.396755,3.2879905 3.703125,3.484375 a 1.2115585,1.2115585 0 0 0 0.1054688,0.060547 1.2115585,1.2115585 0 0 0 0.109375,0.048828 1.2115585,1.2115585 0 0 0 0.041016,0.015625 C 4.7593255,3.8884314 5.3956127,4.440978 6,5.0019531 V 4 C 6,3.446 6.446,3 7,3 h 4.357422 C 11.019025,2.6726392 10.75893,2.2871423 10.382812,2 H 3 C 2.943284,2 2.909558,2.051561 2.8554688,2.0605469 Z"
         id="rect34888" />
      <rect
         ry="1"
         rx="1"
         y="3.5"
         x="14"
         height="5"
         width="3"
         id="rect34916"
         style="opacity:0.7;fill:#cccccc;fill-opacity:1.0;fill-rule:nonzero;stroke:none;stroke-width:2;stroke-linecap:butt;stroke-linejoin:round;stroke-miterlimit:4;stroke-dasharray:none;stroke-dashoffset:2;stroke-opacity:1;paint-order:normal" />
    </g>
    <path
       style="opacity:1;fill:#008000;fill-opacity:1.0;stroke:none;stroke-width:1;stroke-linecap:butt;stroke-linejoin:miter;stroke-miterlimit:4;stroke-dasharray:none;stroke-opacity:1;paint-order:normal"
       d="m -33,4.9999998 v 3.5 h -2 L -32,12 -29,8.4999998 h -2 v -3.5 z"
       id="rect1539" />
    <path
       style="opacity:1;fill:#008000;fill-opacity:1.0;fill-rule:nonzero;stroke:none;stroke-width:3.83998775;stroke-linecap:round;stroke-linejoin:miter;stroke-miterlimit:4;stroke-dasharray:none;stroke-opacity:1;paint-order:normal"
       d="m -75.99996,1.7904779 c -0.0042,-0.508414 0.541236,-0.9177892 1.027542,-0.7537564 3.036185,0.1570363 5.655209,2.2074491 7.292254,4.656142 1.115625,1.6861578 1.747033,3.6633289 1.946108,5.6681995 h 3.173129 L -68.077806,19 -73.597798,11.361136 h 3.127166 c -0.09036,-2.3412669 -0.365859,-4.878771 -1.987224,-6.7117469 -0.827859,-1.015285 -1.955596,-1.755963 -3.184266,-2.1843655 -0.223239,-0.1430971 -0.360557,-0.4140485 -0.357838,-0.6745457 z"
       id="path8807-3" />
    <g
       id="g34988"
       transform="matrix(1,0,0,-1,-60,25)">
      <rect
         style="opacity:0.7;fill:#cccccc;fill-opacity:1.0;fill-rule:nonzero;stroke:none;stroke-width:2;stroke-linecap:butt;stroke-linejoin:round;stroke-miterlimit:4;stroke-dasharray:none;stroke-dashoffset:2;stroke-opacity:1;paint-order:normal"
         id="rect34976"
         width="3"
         height="5"
         x="74"
         y="3.5"
         rx="1"
         ry="1" />
      <path
         style="opacity:0.3;fill:#cccccc;fill-opacity:1.0;fill-rule:nonzero;stroke:none;stroke-width:2;stroke-linecap:butt;stroke-linejoin:round;stroke-miterlimit:4;stroke-dasharray:none;stroke-dashoffset:2;stroke-opacity:1;paint-order:normal"
         mask="none"
         d="m 70.710938,11 c 0.22253,-0.273714 0.523106,-0.485307 0.867187,-0.574219 0.596781,-0.164167 1.275209,0.04638 1.66866,0.525678 0.01538,0.0216 0.06821,0.06024 0.01043,0.04854 -0.84876,0 -1.697521,0 -2.546281,0 z"
         id="path35172" />
      <path
         style="opacity:0.7;fill:#cccccc;fill-opacity:1.0;fill-rule:nonzero;stroke:none;stroke-width:2;stroke-linecap:butt;stroke-linejoin:round;stroke-miterlimit:4;stroke-dasharray:none;stroke-dashoffset:2;stroke-opacity:1;paint-order:normal"
         mask="none"
         d="M 88.65625,2 H 83 c -0.554,0 -1,0.446 -1,1 v 18 c 0,0.554 0.446,1 1,1 h 15 l 4,-4 V 3 c 0,-0.554 -0.446,-1 -1,-1 h -5.65625 v 2 h 3.767578 C 99.603773,4 100,4.4017906 100,4.9003906 V 12.099609 C 100,12.598209 99.603773,13 99.111328,13 h -5.822266 l -0.05273,0.06055 a 1.6285444,1.6285444 0 0 1 -0.02539,0.0293 1.6285444,1.6285444 0 0 1 -0.115235,0.115234 1.6285444,1.6285444 0 0 1 -0.125,0.103516 1.6285444,1.6285444 0 0 1 -0.136719,0.08984 1.6285444,1.6285444 0 0 1 -0.142578,0.07617 1.6285444,1.6285444 0 0 1 -0.152344,0.0625 1.6285444,1.6285444 0 0 1 -0.154296,0.04687 1.6285444,1.6285444 0 0 1 -0.160157,0.0293 1.6285444,1.6285444 0 0 1 -0.162109,0.01367 1.6285444,1.6285444 0 0 1 -0.164062,-0.002 1.6285444,1.6285444 0 0 1 -0.16211,-0.01758 1.6285444,1.6285444 0 0 1 -0.158203,-0.0332 1.6285444,1.6285444 0 0 1 -0.154297,-0.05078 1.6285444,1.6285444 0 0 1 -0.15039,-0.06445 A 1.6285444,1.6285444 0 0 1 91.132816,13.37886 1.6285444,1.6285444 0 0 1 90.998051,13.28511 1.6285444,1.6285444 0 0 1 90.875,13.177734 1.6285444,1.6285444 0 0 1 90.763672,13.060547 L 90.710938,13 H 84.888672 C 84.396228,13 84,12.598209 84,12.099609 V 4.9003906 C 84,4.4017906 84.396228,4 84.888672,4 H 88.65625 Z M 87,15 h 10 c 0.554,0 1,0.446 1,1 v 4 c 0,0.554 -0.446,1 -1,1 H 87 c -0.554,0 -1,-0.446 -1,-1 v -4 c 0,-0.554 0.446,-1 1,-1 z"
         id="path35170"
         transform="matrix(1,0,0,-1,-20,24)" />
      <path
         style="opacity:0.3;fill:#cccccc;fill-opacity:1.0;fill-rule:nonzero;stroke:none;stroke-width:2;stroke-linecap:butt;stroke-linejoin:round;stroke-miterlimit:4;stroke-dasharray:none;stroke-dashoffset:2;stroke-opacity:1;paint-order:normal"
         mask="none"
         d="m 88.65625,2 v 2 h 6.6875 V 2 Z"
         id="path34974"
         transform="matrix(1,0,0,-1,-20,24)" />
    </g>
    <path
       id="path34980"
       d="M 10.28571,1 V 7.0000001 H 6.85714 L 12,13 17.14286,7.0000001 H 13.71429 V 1 Z"
       style="opacity:1;fill:#cccccc;fill-opacity:1.0;stroke:none;stroke-width:1.71428573;stroke-linecap:butt;stroke-linejoin:miter;stroke-miterlimit:4;stroke-dasharray:none;stroke-opacity:1;paint-order:normal" />
    <g
       transform="matrix(1,0,0,-1,20,24)"
       id="g34994">
      <path
         style="opacity:0.3;fill:#cccccc;fill-opacity:1.0;fill-rule:nonzero;stroke:none;stroke-width:2;stroke-linecap:butt;stroke-linejoin:round;stroke-miterlimit:4;stroke-dasharray:none;stroke-dashoffset:2;stroke-opacity:1;paint-order:normal"
         d="m 70.63281,11 c 0.40056,-0.486481 1.1182,-0.670076 1.70508,-0.443359 0.23845,0.08811 0.48079,0.251886 0.62997,0.443359 -0.77835,0 -1.5567,0 -2.33505,0 z"
         id="path35202" />
      <path
         style="opacity:0.7;fill:#cccccc;fill-opacity:1.0;fill-rule:nonzero;stroke:none;stroke-width:2;stroke-linecap:butt;stroke-linejoin:round;stroke-miterlimit:4;stroke-dasharray:none;stroke-dashoffset:2;stroke-opacity:1;paint-order:normal"
         d="M 165.67188,2 H 163 c -0.554,0 -1,0.446 -1,1 v 18 c 0,0.554 0.446,1 1,1 h 15 l 4,-4 V 3 c 0,-0.554 -0.446,-1 -1,-1 h -7.91992 c 0.0734,0.101194 0.19683,0.1705282 0.26562,0.2734375 a 1.5394022,1.5394022 0 0 1 0.004,0.00586 C 173.70099,2.810366 173.83316,3.4186571 174.04688,4 h 5.06445 C 179.60377,4 180,4.4017906 180,4.9003906 V 12.099609 C 180,12.598209 179.60377,13 179.11133,13 h -6.13867 a 1.5394022,1.5394022 0 0 1 -0.008,0.0098 1.5394022,1.5394022 0 0 1 -0.10742,0.111328 1.5394022,1.5394022 0 0 1 -0.11719,0.09961 1.5394022,1.5394022 0 0 1 -0.12695,0.08789 1.5394022,1.5394022 0 0 1 -0.13476,0.07422 1.5394022,1.5394022 0 0 1 -0.14063,0.06055 1.5394022,1.5394022 0 0 1 -0.14648,0.04687 1.5394022,1.5394022 0 0 1 -0.15039,0.03125 1.5394022,1.5394022 0 0 1 -0.1543,0.01563 1.5394022,1.5394022 0 0 1 -0.1543,0 1.5394022,1.5394022 0 0 1 -0.15234,-0.01367 1.5394022,1.5394022 0 0 1 -0.15039,-0.0293 1.5394022,1.5394022 0 0 1 -0.14844,-0.04492 1.5394022,1.5394022 0 0 1 -0.14063,-0.05859 1.5394022,1.5394022 0 0 1 -0.13671,-0.07422 1.5394022,1.5394022 0 0 1 -0.12696,-0.08594 1.5394022,1.5394022 0 0 1 -0.11914,-0.09766 A 1.5394022,1.5394022 0 0 1 170.65021,13.02152 1.5394022,1.5394022 0 0 1 170.63281,13 h -5.74414 C 164.39623,13 164,12.598209 164,12.099609 V 4.9003906 C 164,4.4017906 164.39623,4 164.88867,4 h 3.05469 c -0.0867,-0.1648858 -0.0987,-0.4155498 -0.21484,-0.546875 a 1.5394022,1.5394022 0 0 1 -0.041,-0.046875 C 167.3352,2.9741583 166.82725,2.6295882 166.25393,2.4296875 a 1.5394022,1.5394022 0 0 1 -0.0508,-0.019531 1.5394022,1.5394022 0 0 1 -0.14062,-0.0625 1.5394022,1.5394022 0 0 1 -0.13281,-0.076172 C 165.81443,2.1976065 165.76576,2.0862504 165.67188,2 Z M 167,15 h 10 c 0.554,0 1,0.446 1,1 v 4 c 0,0.554 -0.446,1 -1,1 h -10 c -0.554,0 -1,-0.446 -1,-1 v -4 c 0,-0.554 0.446,-1 1,-1 z"
         id="path35200"
         transform="matrix(1,0,0,-1,-100,24)" />
      <path
         style="opacity:0.3;fill:#cccccc;fill-opacity:1.0;fill-rule:nonzero;stroke:none;stroke-width:2;stroke-linecap:butt;stroke-linejoin:round;stroke-miterlimit:4;stroke-dasharray:none;stroke-dashoffset:2;stroke-opacity:1;paint-order:normal"
         d="m 165.67188,2 c 0.0939,0.08625 0.14255,0.1976065 0.25781,0.2714844 a 1.5394022,1.5394022 0 0 0 0.13281,0.076172 1.5394022,1.5394022 0 0 0 0.14062,0.0625 1.5394022,1.5394022 0 0 0 0.0508,0.019531 c 0.57332,0.1999007 1.08127,0.5444708 1.43359,0.9765625 a 1.5394022,1.5394022 0 0 0 0.041,0.046875 C 167.84468,3.5844502 167.85667,3.8351142 167.94336,4 h 6.10352 c -0.21372,-0.5813429 -0.34589,-1.189634 -0.69727,-1.7207031 a 1.5394022,1.5394022 0 0 0 -0.004,-0.00586 C 173.27691,2.1705282 173.15353,2.101194 173.08008,2 Z"
         id="path34990"
         transform="matrix(1,0,0,-1,-100,24)" />
      <rect
         ry="1"
         rx="1"
         y="3.5"
         x="74"
         height="5"
         width="3"
         id="rect34992"
         style="opacity:0.7;fill:#cccccc;fill-opacity:1.0;fill-rule:nonzero;stroke:none;stroke-width:2;stroke-linecap:butt;stroke-linejoin:round;stroke-miterlimit:4;stroke-dasharray:none;stroke-dashoffset:2;stroke-opacity:1;paint-order:normal" />
    </g>
    <path
       id="path34978"
       d="m 86.52033,0.52698491 c -0.003,-0.33894273 0.36082,-0.61185903 0.68503,-0.50250393 2.02412,0.10469018 3.77014,1.47163272 4.86149,3.10409392 0.74376,1.1241054 1.1647,2.4422197 1.29741,3.7788 h 2.11543 L 91.80176,12 88.12177,6.9074235 h 2.08478 C 90.14625,5.3465791 89.96264,3.6549096 88.88173,2.4329257 88.32983,1.7560691 87.578,1.2622837 86.75889,0.9766824 86.61006,0.8812835 86.51852,0.70065 86.52033,0.52698491 Z"
       style="opacity:1;fill:#008000;fill-opacity:1.0;fill-rule:nonzero;stroke:none;stroke-width:2.55999184;stroke-linecap:round;stroke-linejoin:miter;stroke-miterlimit:4;stroke-dasharray:none;stroke-opacity:1;paint-order:normal" />
    <g
       transform="matrix(1,0,0,-1,-20,24)"
       id="g35004">
      <path
         style="opacity:0.3;fill:#cccccc;fill-opacity:1.0;fill-rule:nonzero;stroke:none;stroke-width:2;stroke-linecap:butt;stroke-linejoin:round;stroke-miterlimit:4;stroke-dasharray:none;stroke-dashoffset:2;stroke-opacity:1;paint-order:normal"
         d="M 70.99805,11 C 71.51593,10.448744 72.4833,10.446116 73,11 c -0.66732,0 -1.33463,0 -2.00195,0 z"
         id="path35191" />
      <path
         style="opacity:0.7;fill:#cccccc;fill-opacity:1.0;fill-rule:nonzero;stroke:none;stroke-width:2;stroke-linecap:butt;stroke-linejoin:round;stroke-miterlimit:4;stroke-dasharray:none;stroke-dashoffset:2;stroke-opacity:1;paint-order:normal"
         d="M 128.86914,2 H 123 c -0.554,0 -1,0.446 -1,1 v 18 c 0,0.554 0.446,1 1,1 h 15 l 4,-4 V 3 c 0,-0.554 -0.446,-1 -1,-1 h -5.86914 v 2 h 3.98047 C 139.60377,4 140,4.4017906 140,4.9003906 V 12.099609 C 140,12.598209 139.60377,13 139.11133,13 H 133 a 1.4164738,1.4164738 0 0 1 -0.0488,0.04883 1.4164738,1.4164738 0 0 1 -0.10937,0.08984 1.4164738,1.4164738 0 0 1 -0.11719,0.08008 1.4164738,1.4164738 0 0 1 -0.125,0.06641 1.4164738,1.4164738 0 0 1 -0.13086,0.05274 1.4164738,1.4164738 0 0 1 -0.13672,0.03906 1.4164738,1.4164738 0 0 1 -0.13867,0.02734 1.4164738,1.4164738 0 0 1 -0.14063,0.01172 1.4164738,1.4164738 0 0 1 -0.14257,-0.002 1.4164738,1.4164738 0 0 1 -0.14063,-0.01562 1.4164738,1.4164738 0 0 1 -0.13672,-0.0293 1.4164738,1.4164738 0 0 1 -0.13476,-0.04492 1.4164738,1.4164738 0 0 1 -0.13086,-0.05664 1.4164738,1.4164738 0 0 1 -0.12305,-0.06836 1.4164738,1.4164738 0 0 1 -0.11523,-0.08203 1.4164738,1.4164738 0 0 1 -0.10743,-0.0918 A 1.4164738,1.4164738 0 0 1 130.99805,13 h -6.10938 C 124.39623,13 124,12.598209 124,12.099609 V 4.9003906 C 124,4.4017906 124.39623,4 124.88867,4 h 3.98047 z M 127,15 h 10 c 0.554,0 1,0.446 1,1 v 4 c 0,0.554 -0.446,1 -1,1 h -10 c -0.554,0 -1,-0.446 -1,-1 v -4 c 0,-0.554 0.446,-1 1,-1 z"
         id="path35189"
         transform="matrix(1,0,0,-1,-60,24)" />
      <path
         style="opacity:0.3;fill:#cccccc;fill-opacity:1.0;fill-rule:nonzero;stroke:none;stroke-width:2;stroke-linecap:butt;stroke-linejoin:round;stroke-miterlimit:4;stroke-dasharray:none;stroke-dashoffset:2;stroke-opacity:1;paint-order:normal"
         d="m 68.86914,22 c 0,-0.666667 0,-1.333333 0,-2 2.08724,0 4.17448,0 6.26172,0 0,0.666667 0,1.333333 0,2 -2.08724,0 -4.17448,0 -6.26172,0 z"
         id="path35000" />
      <rect
         ry="1"
         rx="1"
         y="3.5"
         x="74"
         height="5"
         width="3"
         id="rect35002"
         style="opacity:0.7;fill:#cccccc;fill-opacity:1.0;fill-rule:nonzero;stroke:none;stroke-width:2;stroke-linecap:butt;stroke-linejoin:round;stroke-miterlimit:4;stroke-dasharray:none;stroke-dashoffset:2;stroke-opacity:1;paint-order:normal" />
    </g>
    <path
       style="opacity:1;fill:#008000;fill-opacity:1.0;stroke:none;stroke-width:1.71428573;stroke-linecap:butt;stroke-linejoin:miter;stroke-miterlimit:4;stroke-dasharray:none;stroke-opacity:1;paint-order:normal"
       d="m 51.28516,0 c -0.554,0 -1,0.446 -1,1 V 6 H 46.85742 L 52,12 57.14258,6 H 53.71484 V 1 c 0,-0.554 -0.446,-1 -1,-1 z"
       id="path35006" />
    <g
       transform="matrix(1,0,0,-1,-100,24)"
       id="g35014">
      <path
         id="path35010"
         d="m 63,2 c -0.554,0 -1,0.446 -1,1 v 18 c 0,0.554 0.446,1 1,1 h 18 c 0.554,0 1,-0.446 1,-1 V 6 L 78,2 Z m 4,1 h 10 c 0.554,0 1,0.446 1,1 v 4 c 0,0.554 -0.446,1 -1,1 H 67 C 66.446,9 66,8.554 66,8 V 4 c 0,-0.554 0.446,-1 1,-1 z m -2.111328,8 H 79.111328 C 79.603773,11 80,11.401791 80,11.900391 v 7.199218 C 80,19.598209 79.603773,20 79.111328,20 H 64.888672 C 64.396228,20 64,19.598209 64,19.099609 V 11.900391 C 64,11.401791 64.396228,11 64.888672,11 Z"
         style="opacity:0.7;fill:#cccccc;fill-opacity:1.0;fill-rule:nonzero;stroke:none;stroke-width:2;stroke-linecap:butt;stroke-linejoin:round;stroke-miterlimit:4;stroke-dasharray:none;stroke-dashoffset:2;stroke-opacity:1;paint-order:normal" />
      <rect
         ry="1"
         rx="1"
         y="3.5"
         x="74"
         height="5"
         width="3"
         id="rect35012"
         style="opacity:0.7;fill:#cccccc;fill-opacity:1.0;fill-rule:nonzero;stroke:none;stroke-width:2;stroke-linecap:butt;stroke-linejoin:round;stroke-miterlimit:4;stroke-dasharray:none;stroke-dashoffset:2;stroke-opacity:1;paint-order:normal" />
    </g>
    <path
       id="path35018"
       d="m -25,5 v 3.5 h -2 l 3,3.5 3,-3.5 h -2 V 5 Z"
       style="opacity:1;fill:#008000;fill-opacity:1.0;stroke:none;stroke-width:1;stroke-linecap:butt;stroke-linejoin:miter;stroke-miterlimit:4;stroke-dasharray:none;stroke-opacity:1;paint-order:normal" />
    <g
       id="g35026"
       transform="matrix(0,1,1,0,120,-60)">
      <path
         style="opacity:0.7;fill:#cccccc;fill-opacity:1.0;fill-rule:nonzero;stroke:none;stroke-width:2;stroke-linecap:butt;stroke-linejoin:round;stroke-miterlimit:4;stroke-dasharray:none;stroke-dashoffset:2;stroke-opacity:1;paint-order:normal"
         d="m 63,2 c -0.554,0 -1,0.446 -1,1 v 18 c 0,0.554 0.446,1 1,1 h 18 c 0.554,0 1,-0.446 1,-1 V 6 L 78,2 Z m 4,1 h 10 c 0.554,0 1,0.446 1,1 v 4 c 0,0.554 -0.446,1 -1,1 H 67 C 66.446,9 66,8.554 66,8 V 4 c 0,-0.554 0.446,-1 1,-1 z m -2.111328,8 H 79.111328 C 79.603773,11 80,11.401791 80,11.900391 v 7.199218 C 80,19.598209 79.603773,20 79.111328,20 H 64.888672 C 64.396228,20 64,19.598209 64,19.099609 V 11.900391 C 64,11.401791 64.396228,11 64.888672,11 Z"
         id="path35022" />
      <rect
         style="opacity:0.7;fill:#cccccc;fill-opacity:1.0;fill-rule:nonzero;stroke:none;stroke-width:2;stroke-linecap:butt;stroke-linejoin:round;stroke-miterlimit:4;stroke-dasharray:none;stroke-dashoffset:2;stroke-opacity:1;paint-order:normal"
         id="rect35024"
         width="3"
         height="5"
         x="74"
         y="3.5"
         rx="1"
         ry="1" />
    </g>
    <path
       style="opacity:1;fill:#008000;fill-opacity:1.0;stroke:none;stroke-width:1.28571427;stroke-linecap:butt;stroke-linejoin:miter;stroke-miterlimit:4;stroke-dasharray:none;stroke-opacity:1;paint-order:normal"
       d="m 135,6 v 7 h -2 l 3,5 3,-5 h -2 V 6 Z"
       id="path35030" />
    <g
       id="g35064"
       transform="translate(-80,40)">
      <path
         style="opacity:0.7;fill:#cccccc;fill-opacity:1.0;fill-rule:nonzero;stroke:none;stroke-width:2;stroke-linecap:butt;stroke-linejoin:round;stroke-miterlimit:4;stroke-dasharray:none;stroke-dashoffset:2;stroke-opacity:1;paint-order:normal"
         d="M 3,2 C 2.446,2 2,2.446 2,3 v 18 c 0,0.554 0.446,1 1,1 h 18 c 0.554,0 1,-0.446 1,-1 V 6 L 18,2 Z m 4,1 h 10 c 0.554,0 1,0.446 1,1 v 4 c 0,0.554 -0.446,1 -1,1 H 7 C 6.446,9 6,8.554 6,8 V 4 C 6,3.446 6.446,3 7,3 Z M 4.8886719,11 H 19.111328 C 19.603773,11 20,11.401791 20,11.900391 v 7.199218 C 20,19.598209 19.603773,20 19.111328,20 H 4.8886719 C 4.3962275,20 4,19.598209 4,19.099609 V 11.900391 C 4,11.401791 4.3962275,11 4.8886719,11 Z"
         id="path35060" />
      <rect
         style="opacity:0.7;fill:#cccccc;fill-opacity:1.0;fill-rule:nonzero;stroke:none;stroke-width:2;stroke-linecap:butt;stroke-linejoin:round;stroke-miterlimit:4;stroke-dasharray:none;stroke-dashoffset:2;stroke-opacity:1;paint-order:normal"
         id="rect35062"
         width="3"
         height="5"
         x="14"
         y="3.5"
         rx="1"
         ry="1" />
    </g>
    <path
       id="path35066"
       d="m -33,45 v 3.5 h -2 l 3,3.5 3,-3.5 h -2 V 45 Z"
       style="opacity:1;fill:#008000;fill-opacity:1.0;stroke:none;stroke-width:1;stroke-linecap:butt;stroke-linejoin:miter;stroke-miterlimit:4;stroke-dasharray:none;stroke-opacity:1;paint-order:normal" />
    <path
       id="path35068"
       d="m -75.99996,41.790478 c -0.0042,-0.508414 0.541236,-0.917789 1.027542,-0.753757 3.036185,0.157037 5.655209,2.20745 7.292254,4.656143 1.115625,1.686157 1.747033,3.663328 1.946108,5.668199 h 3.173129 L -68.077806,59 -73.597798,51.361136 h 3.127166 c -0.09036,-2.341267 -0.365859,-4.878771 -1.987224,-6.711747 -0.827859,-1.015285 -1.955596,-1.755963 -3.184266,-2.184365 -0.223239,-0.143098 -0.360557,-0.414049 -0.357838,-0.674546 z"
       style="opacity:1;fill:#008000;fill-opacity:1.0;fill-rule:nonzero;stroke:none;stroke-width:3.83998775;stroke-linecap:round;stroke-linejoin:miter;stroke-miterlimit:4;stroke-dasharray:none;stroke-opacity:1;paint-order:normal" />
    <g
       transform="matrix(1,0,0,-1,-60,64)"
       id="g35074">
      <rect
         ry="1"
         rx="1"
         y="3.5"
         x="74"
         height="5"
         width="3"
         id="rect35070"
         style="opacity:0.7;fill:#cccccc;fill-opacity:1.0;fill-rule:nonzero;stroke:none;stroke-width:2;stroke-linecap:butt;stroke-linejoin:round;stroke-miterlimit:4;stroke-dasharray:none;stroke-dashoffset:2;stroke-opacity:1;paint-order:normal" />
      <path
         mask="none"
         id="path35072"
         d="m 63,2 c -0.554,0 -1,0.446 -1,1 v 18 c 0,0.554 0.446,1 1,1 h 18 c 0.554,0 1,-0.446 1,-1 V 6 L 78,2 Z m 4,1 h 10 c 0.554,0 1,0.446 1,1 v 4 c 0,0.554 -0.446,1 -1,1 H 67 C 66.446,9 66,8.554 66,8 V 4 c 0,-0.554 0.446,-1 1,-1 z m -2.111328,8 H 79.111328 C 79.603773,11 80,11.401791 80,11.900391 v 7.199218 C 80,19.598209 79.603773,20 79.111328,20 H 64.888672 C 64.396228,20 64,19.598209 64,19.099609 V 11.900391 C 64,11.401791 64.396228,11 64.888672,11 Z"
         style="opacity:0.7;fill:#cccccc;fill-opacity:1.0;fill-rule:nonzero;stroke:none;stroke-width:2;stroke-linecap:butt;stroke-linejoin:round;stroke-miterlimit:4;stroke-dasharray:none;stroke-dashoffset:2;stroke-opacity:1;paint-order:normal" />
    </g>
    <path
       style="opacity:1;fill:#008000;fill-opacity:1.0;stroke:none;stroke-width:1.71428573;stroke-linecap:butt;stroke-linejoin:miter;stroke-miterlimit:4;stroke-dasharray:none;stroke-opacity:1;paint-order:normal"
       d="m 10.28571,40 v 6 H 6.85714 L 12,52 17.14286,46 h -3.42857 v -6 z"
       id="path35076" />
    <g
       id="g35082"
       transform="matrix(1,0,0,-1,20,64)">
      <path
         style="opacity:0.7;fill:#cccccc;fill-opacity:1.0;fill-rule:nonzero;stroke:none;stroke-width:2;stroke-linecap:butt;stroke-linejoin:round;stroke-miterlimit:4;stroke-dasharray:none;stroke-dashoffset:2;stroke-opacity:1;paint-order:normal"
         d="m 63,2 c -0.554,0 -1,0.446 -1,1 v 18 c 0,0.554 0.446,1 1,1 h 18 c 0.554,0 1,-0.446 1,-1 V 6 L 78,2 Z m 4,1 h 10 c 0.554,0 1,0.446 1,1 v 4 c 0,0.554 -0.446,1 -1,1 H 67 C 66.446,9 66,8.554 66,8 V 4 c 0,-0.554 0.446,-1 1,-1 z m -2.111328,8 H 79.111328 C 79.603773,11 80,11.401791 80,11.900391 v 7.199218 C 80,19.598209 79.603773,20 79.111328,20 H 64.888672 C 64.396228,20 64,19.598209 64,19.099609 V 11.900391 C 64,11.401791 64.396228,11 64.888672,11 Z"
         id="path35078" />
      <rect
         style="opacity:0.7;fill:#cccccc;fill-opacity:1.0;fill-rule:nonzero;stroke:none;stroke-width:2;stroke-linecap:butt;stroke-linejoin:round;stroke-miterlimit:4;stroke-dasharray:none;stroke-dashoffset:2;stroke-opacity:1;paint-order:normal"
         id="rect35080"
         width="3"
         height="5"
         x="74"
         y="3.5"
         rx="1"
         ry="1" />
    </g>
    <path
       style="opacity:1;fill:#008000;fill-opacity:1.0;fill-rule:nonzero;stroke:none;stroke-width:2.55999184;stroke-linecap:round;stroke-linejoin:miter;stroke-miterlimit:4;stroke-dasharray:none;stroke-opacity:1;paint-order:normal"
       d="m 86.52033,40.526985 c -0.003,-0.338943 0.36082,-0.611859 0.68503,-0.502504 2.02412,0.10469 3.77014,1.471633 4.86149,3.104094 0.74376,1.124105 1.1647,2.44222 1.29741,3.7788 h 2.11543 L 91.80176,52 88.12177,46.907423 h 2.08478 c -0.0603,-1.560844 -0.24391,-3.252513 -1.32482,-4.474497 -0.5519,-0.676857 -1.30373,-1.170642 -2.12284,-1.456244 -0.14883,-0.0954 -0.24037,-0.276032 -0.23856,-0.449697 z"
       id="path35084" />
    <g
       id="g35090"
       transform="matrix(1,0,0,-1,-20,64)">
      <path
         style="opacity:0.7;fill:#cccccc;fill-opacity:1.0;fill-rule:nonzero;stroke:none;stroke-width:2;stroke-linecap:butt;stroke-linejoin:round;stroke-miterlimit:4;stroke-dasharray:none;stroke-dashoffset:2;stroke-opacity:1;paint-order:normal"
         d="m 63,2 c -0.554,0 -1,0.446 -1,1 v 18 c 0,0.554 0.446,1 1,1 h 18 c 0.554,0 1,-0.446 1,-1 V 6 L 78,2 Z m 4,1 h 10 c 0.554,0 1,0.446 1,1 v 4 c 0,0.554 -0.446,1 -1,1 H 67 C 66.446,9 66,8.554 66,8 V 4 c 0,-0.554 0.446,-1 1,-1 z m -2.111328,8 H 79.111328 C 79.603773,11 80,11.401791 80,11.900391 v 7.199218 C 80,19.598209 79.603773,20 79.111328,20 H 64.888672 C 64.396228,20 64,19.598209 64,19.099609 V 11.900391 C 64,11.401791 64.396228,11 64.888672,11 Z"
         id="path35086" />
      <rect
         style="opacity:0.7;fill:#cccccc;fill-opacity:1.0;fill-rule:nonzero;stroke:none;stroke-width:2;stroke-linecap:butt;stroke-linejoin:round;stroke-miterlimit:4;stroke-dasharray:none;stroke-dashoffset:2;stroke-opacity:1;paint-order:normal"
         id="rect35088"
         width="3"
         height="5"
         x="74"
         y="3.5"
         rx="1"
         ry="1" />
    </g>
    <path
       style="opacity:1;fill:#008000;fill-opacity:1.0;stroke:none;stroke-width:1.71428573;stroke-linecap:butt;stroke-linejoin:miter;stroke-miterlimit:4;stroke-dasharray:none;stroke-opacity:1;paint-order:normal"
       d="m 51.28516,40 c -0.554,0 -1,0.446 -1,1 v 5 H 46.85742 L 52,52 57.14258,46 h -3.42774 v -5 c 0,-0.554 -0.446,-1 -1,-1 z"
       id="path35092" />
    <g
       id="g35100"
       transform="matrix(1,0,0,-1,-100,64)">
      <path
         style="opacity:0.7;fill:#cccccc;fill-opacity:1.0;fill-rule:nonzero;stroke:none;stroke-width:2;stroke-linecap:butt;stroke-linejoin:round;stroke-miterlimit:4;stroke-dasharray:none;stroke-dashoffset:2;stroke-opacity:1;paint-order:normal"
         d="m 63,2 c -0.554,0 -1,0.446 -1,1 v 18 c 0,0.554 0.446,1 1,1 h 18 c 0.554,0 1,-0.446 1,-1 V 6 L 78,2 Z m 4,1 h 10 c 0.554,0 1,0.446 1,1 v 4 c 0,0.554 -0.446,1 -1,1 H 67 C 66.446,9 66,8.554 66,8 V 4 c 0,-0.554 0.446,-1 1,-1 z m -2.111328,8 H 79.111328 C 79.603773,11 80,11.401791 80,11.900391 v 7.199218 C 80,19.598209 79.603773,20 79.111328,20 H 64.888672 C 64.396228,20 64,19.598209 64,19.099609 V 11.900391 C 64,11.401791 64.396228,11 64.888672,11 Z"
         id="path35096" />
      <rect
         style="opacity:0.7;fill:#cccccc;fill-opacity:1.0;fill-rule:nonzero;stroke:none;stroke-width:2;stroke-linecap:butt;stroke-linejoin:round;stroke-miterlimit:4;stroke-dasharray:none;stroke-dashoffset:2;stroke-opacity:1;paint-order:normal"
         id="rect35098"
         width="3"
         height="5"
         x="74"
         y="3.5"
         rx="1"
         ry="1" />
    </g>
    <path
       style="opacity:1;fill:#008000;fill-opacity:1.0;stroke:none;stroke-width:1;stroke-linecap:butt;stroke-linejoin:miter;stroke-miterlimit:4;stroke-dasharray:none;stroke-opacity:1;paint-order:normal"
       d="m -25,45 v 3.5 h -2 l 3,3.5 3,-3.5 h -2 V 45 Z"
       id="path35102" />
    <g
       transform="matrix(0,1,1,0,120,-20)"
       id="g35108">
      <path
         id="path35104"
         d="m 63,2 c -0.554,0 -1,0.446 -1,1 v 18 c 0,0.554 0.446,1 1,1 h 18 c 0.554,0 1,-0.446 1,-1 V 6 L 78,2 Z m 4,1 h 10 c 0.554,0 1,0.446 1,1 v 4 c 0,0.554 -0.446,1 -1,1 H 67 C 66.446,9 66,8.554 66,8 V 4 c 0,-0.554 0.446,-1 1,-1 z m -2.111328,8 H 79.111328 C 79.603773,11 80,11.401791 80,11.900391 v 7.199218 C 80,19.598209 79.603773,20 79.111328,20 H 64.888672 C 64.396228,20 64,19.598209 64,19.099609 V 11.900391 C 64,11.401791 64.396228,11 64.888672,11 Z"
         style="opacity:0.7;fill:#cccccc;fill-opacity:1.0;fill-rule:nonzero;stroke:none;stroke-width:2;stroke-linecap:butt;stroke-linejoin:round;stroke-miterlimit:4;stroke-dasharray:none;stroke-dashoffset:2;stroke-opacity:1;paint-order:normal" />
      <rect
         ry="1"
         rx="1"
         y="3.5"
         x="74"
         height="5"
         width="3"
         id="rect35106"
         style="opacity:0.7;fill:#cccccc;fill-opacity:1.0;fill-rule:nonzero;stroke:none;stroke-width:2;stroke-linecap:butt;stroke-linejoin:round;stroke-miterlimit:4;stroke-dasharray:none;stroke-dashoffset:2;stroke-opacity:1;paint-order:normal" />
    </g>
    <path
       id="path35110"
       d="m 135,46 v 7 h -2 l 3,5 3,-5 h -2 v -7 z"
       style="opacity:1;fill:#008000;fill-opacity:1.0;stroke:none;stroke-width:1.28571427;stroke-linecap:butt;stroke-linejoin:miter;stroke-miterlimit:4;stroke-dasharray:none;stroke-opacity:1;paint-order:normal" />
  </g>
</svg>
