<?xml version="1.0" encoding="UTF-8" standalone="no"?>
<!-- Created with Inkscape (http://www.inkscape.org/) -->

<svg
   width="16"
   height="16"
   viewBox="0 0 16 16"
   version="1.1"
   id="SVGRoot"
   xmlns="http://www.w3.org/2000/svg"
   xmlns:svg="http://www.w3.org/2000/svg"
   xmlns:rdf="http://www.w3.org/1999/02/22-rdf-syntax-ns#"
   xmlns:cc="http://creativecommons.org/ns#"
   xmlns:dc="http://purl.org/dc/elements/1.1/">
  <defs
     id="defs815" />
  <metadata
     id="metadata818">
    <rdf:RDF>
      <cc:Work
         rdf:about="">
        <dc:format>image/svg+xml</dc:format>
        <dc:type
           rdf:resource="http://purl.org/dc/dcmitype/StillImage" />
        <dc:title />
        <dc:creator>
          <cc:Agent>
            <dc:title>Maciej Dworak</dc:title>
          </cc:Agent>
        </dc:creator>
        <dc:rights>
          <cc:Agent>
            <dc:title />
          </cc:Agent>
        </dc:rights>
        <dc:description>RawTherapee icon.</dc:description>
        <cc:license
           rdf:resource="http://creativecommons.org/licenses/by-sa/4.0/" />
      </cc:Work>
      <cc:License
         rdf:about="http://creativecommons.org/licenses/by-sa/4.0/">
        <cc:permits
           rdf:resource="http://creativecommons.org/ns#Reproduction" />
        <cc:permits
           rdf:resource="http://creativecommons.org/ns#Distribution" />
        <cc:requires
           rdf:resource="http://creativecommons.org/ns#Notice" />
        <cc:requires
           rdf:resource="http://creativecommons.org/ns#Attribution" />
        <cc:permits
           rdf:resource="http://creativecommons.org/ns#DerivativeWorks" />
        <cc:requires
           rdf:resource="http://creativecommons.org/ns#ShareAlike" />
      </cc:License>
    </rdf:RDF>
  </metadata>
  <g
     id="layer1"
     transform="translate(0,-8)">
    <g
       transform="matrix(0.7,0,0,-0.7,-62.4,24.4)"
       id="g35014">
      <path
         id="path35010"
         d="m 63,2 c -0.554,0 -1,0.446 -1,1 v 18 c 0,0.554 0.446,1 1,1 h 18 c 0.554,0 1,-0.446 1,-1 V 6 L 78,2 Z m 4,1 h 10 c 0.554,0 1,0.446 1,1 v 4 c 0,0.554 -0.446,1 -1,1 H 67 C 66.446,9 66,8.554 66,8 V 4 c 0,-0.554 0.446,-1 1,-1 z m -2.111328,8 H 79.111328 C 79.603773,11 80,11.401791 80,11.900391 v 7.199218 C 80,19.598209 79.603773,20 79.111328,20 H 64.888672 C 64.396228,20 64,19.598209 64,19.099609 V 11.900391 C 64,11.401791 64.396228,11 64.888672,11 Z"
         style="opacity:0.7;fill:#cccccc;fill-opacity:1.0;fill-rule:nonzero;stroke:none;stroke-width:2;stroke-linecap:butt;stroke-linejoin:round;stroke-miterlimit:4;stroke-dasharray:none;stroke-dashoffset:2;stroke-opacity:1;paint-order:normal" />
      <rect
         ry="1"
         rx="1"
         y="3.5"
         x="74"
         height="5"
         width="3"
         id="rect35012"
         style="opacity:0.7;fill:#cccccc;fill-opacity:1.0;fill-rule:nonzero;stroke:none;stroke-width:2;stroke-linecap:butt;stroke-linejoin:round;stroke-miterlimit:4;stroke-dasharray:none;stroke-dashoffset:2;stroke-opacity:1;paint-order:normal" />
    </g>
    <rect
       style="opacity:0.3;fill:#cccccc;fill-opacity:1.0;fill-rule:nonzero;stroke:none;stroke-width:1.39999998;stroke-linecap:butt;stroke-linejoin:round;stroke-miterlimit:4;stroke-dasharray:none;stroke-dashoffset:2;stroke-opacity:1;paint-order:normal"
       id="rect35224"
       width="8.3999996"
       height="1.4"
       x="-16.200001"
       y="11.8"
       rx="0.69999999"
       ry="0.69999999" />
    <rect
       style="opacity:0.3;fill:#cccccc;fill-opacity:1.0;fill-rule:nonzero;stroke:none;stroke-width:1.53362322;stroke-linecap:butt;stroke-linejoin:round;stroke-miterlimit:4;stroke-dasharray:none;stroke-dashoffset:2;stroke-opacity:1;paint-order:normal"
       id="rect35226"
       width="8.3999996"
       height="1.4"
       x="-16.200001"
       y="13.9"
       rx="0.84000003"
       ry="0.69999999" />
    <g
       id="g1521"
       transform="matrix(0.65000001,0,0,-0.65000001,-38.800001,24.3)">
      <path
         style="opacity:0.3;fill:#cccccc;fill-opacity:1.0;fill-rule:nonzero;stroke:none;stroke-width:1.99999988;stroke-linecap:butt;stroke-linejoin:round;stroke-miterlimit:4;stroke-dasharray:none;stroke-dashoffset:2;stroke-opacity:1;paint-order:normal"
         d="m 70.378907,11.001116 c 0.186488,-0.217887 0.365457,-0.448939 0.619419,-0.594308 0.689239,-0.450738 1.668267,-0.360989 2.268415,0.200893 0.12989,0.120409 0.238764,0.259983 0.354353,0.393415 -1.080729,0 -2.161458,0 -3.242187,0 z"
         id="path1601" />
      <path
         style="opacity:0.7;fill:#cccccc;fill-opacity:1.0;fill-rule:nonzero;stroke:none;stroke-width:1.39999998;stroke-linecap:butt;stroke-linejoin:round;stroke-miterlimit:4;stroke-dasharray:none;stroke-dashoffset:2;stroke-opacity:1;paint-order:normal"
         d="M 5.5410156,1 H 1.6992188 C 1.3114188,1 1,1.3114188 1,1.6992188 V 14.300781 C 1,14.688581 1.3114188,15 1.6992188,15 H 12.199219 L 15,12.199219 V 1.6992188 C 15,1.3114188 14.688581,1 14.300781,1 h -3.841797 v 1.4003906 h 2.519532 c 0.344711,0 0.621093,0.2818394 0.621093,0.6308594 v 5.0390625 c 0,0.34902 -0.276382,0.6289063 -0.621093,0.6289063 H 9.1347656 L 9,8.8574219 a 1.3173912,1.3173912 0 0 1 -0.021484,0.023437 1.3173912,1.3173912 0 0 1 -0.091797,0.09375 1.3173912,1.3173912 0 0 1 -0.1015626,0.083984 1.3173912,1.3173912 0 0 1 -0.109375,0.072266 1.3173912,1.3173912 0 0 1 -0.1171874,0.0625 A 1.3173912,1.3173912 0 0 1 8.4375,9.2421875 1.3173912,1.3173912 0 0 1 8.3105469,9.2792969 1.3173912,1.3173912 0 0 1 8.1816406,9.3046875 1.3173912,1.3173912 0 0 1 8.0507812,9.3164062 1.3173912,1.3173912 0 0 1 7.9179688,9.3144531 1.3173912,1.3173912 0 0 1 7.7871094,9.3007812 1.3173912,1.3173912 0 0 1 7.6582031,9.2714844 1.3173912,1.3173912 0 0 1 7.5332031,9.2324219 1.3173912,1.3173912 0 0 1 7.4121094,9.1796875 1.3173912,1.3173912 0 0 1 7.2988281,9.1152344 1.3173912,1.3173912 0 0 1 7.1894531,9.0390625 1.3173912,1.3173912 0 0 1 7.0898438,8.953125 1.3173912,1.3173912 0 0 1 7,8.8574219 L 6.8652344,8.6992188 h -3.84375 c -0.3447108,0 -0.6210938,-0.2798863 -0.6210938,-0.6289063 V 3.03125 c 0,-0.34902 0.276383,-0.6308594 0.6210938,-0.6308594 H 5.5410156 Z M 4.5,10.099609 h 7 c 0.3878,0 0.699219,0.313372 0.699219,0.701172 v 2.798828 c 0,0.3878 -0.311419,0.701172 -0.699219,0.701172 h -7 c -0.3878,0 -0.6992188,-0.313372 -0.6992188,-0.701172 v -2.798828 c 0,-0.3878 0.3114188,-0.701172 0.6992188,-0.701172 z"
         id="path1599"
         transform="matrix(1.4285714,0,0,-1.4285714,60.571429,23.428571)" />
      <path
         style="opacity:0.3;fill:#cccccc;fill-opacity:1.0;fill-rule:nonzero;stroke:none;stroke-width:1.39999998;stroke-linecap:butt;stroke-linejoin:round;stroke-miterlimit:4;stroke-dasharray:none;stroke-dashoffset:2;stroke-opacity:1;paint-order:normal"
         d="M 5.5410156,1 V 2.4003906 H 10.458984 V 1 Z"
         id="path1517"
         transform="matrix(1.4285714,0,0,-1.4285714,60.571429,23.428571)" />
      <rect
         style="opacity:0.7;fill:#cccccc;fill-opacity:1.0;fill-rule:nonzero;stroke:none;stroke-width:2;stroke-linecap:butt;stroke-linejoin:round;stroke-miterlimit:4;stroke-dasharray:none;stroke-dashoffset:2;stroke-opacity:1;paint-order:normal"
         id="rect1519"
         width="3"
         height="5"
         x="74"
         y="3.5"
         rx="1"
         ry="1" />
    </g>
    <path
       id="path34980"
       d="m 6.85714,9 v 4 H 4.571427 L 8,17 11.428573,13 H 9.14286 V 9 Z"
       style="opacity:1;fill:#cccccc;fill-opacity:1.0;stroke:none;stroke-width:1.14285719;stroke-linecap:butt;stroke-linejoin:miter;stroke-miterlimit:4;stroke-dasharray:none;stroke-opacity:1;paint-order:normal" />
  </g>
</svg>
