<?xml version="1.0" encoding="UTF-8" standalone="no"?>
<!-- Created with Inkscape (http://www.inkscape.org/) -->

<svg
   xmlns:dc="http://purl.org/dc/elements/1.1/"
   xmlns:cc="http://creativecommons.org/ns#"
   xmlns:rdf="http://www.w3.org/1999/02/22-rdf-syntax-ns#"
   xmlns:svg="http://www.w3.org/2000/svg"
   xmlns="http://www.w3.org/2000/svg"
   xmlns:sodipodi="http://sodipodi.sourceforge.net/DTD/sodipodi-0.dtd"
   xmlns:inkscape="http://www.inkscape.org/namespaces/inkscape"
   width="11"
   height="11"
   id="svg2"
   version="1.1"
   inkscape:version="0.48.4 r9939"
   sodipodi:docname="spot-active.svg">
  <defs
     id="defs4" />
  <sodipodi:namedview
     id="base"
     pagecolor="#a94a4a"
     bordercolor="#666666"
     borderopacity="1.0"
     inkscape:pageopacity="0"
     inkscape:pageshadow="2"
     inkscape:zoom="22.627417"
     inkscape:cx="1.6872889"
     inkscape:cy="2.4074225"
     inkscape:document-units="px"
     inkscape:current-layer="layer1"
     showgrid="false"
     inkscape:window-width="1920"
     inkscape:window-height="1025"
     inkscape:window-x="-2"
     inkscape:window-y="-3"
     inkscape:window-maximized="1" />
  <metadata
     id="metadata7">
    <rdf:RDF>
      <cc:Work
         rdf:about="">
        <dc:format>image/svg+xml</dc:format>
        <dc:type
           rdf:resource="http://purl.org/dc/dcmitype/StillImage" />
        <dc:title></dc:title>
      </cc:Work>
    </rdf:RDF>
  </metadata>
  <g
     inkscape:label="Layer 1"
     inkscape:groupmode="layer"
     id="layer1"
     transform="translate(0,-1041.3622)">
    <path
       style="fill:#000000;fill-opacity:0.39215687;stroke:none"
       d="M 6 2 L 6 5 L 7 5 L 7 2 L 6 2 z M 2 6 L 2 7 L 5 7 L 5 6 L 2 6 z M 6 6 L 6 7 L 6 10 L 6 11 L 7 11 L 7 7 L 11 7 L 11 6 L 10 6 L 7 6 L 6 6 z "
       transform="translate(0,1041.3622)"
       id="rect2987" />
    <path
       id="path3784"
       d="m 5,1042.3622 0,4 -4,0 0,1 4,0 0,4 1,0 0,-4 4,0 0,-1 -4,0 0,-4 -1,0 z"
       style="fill:#ffffff;fill-opacity:0.58823532;stroke:none"
       inkscape:connector-curvature="0" />
    <rect
       style="fill:#ffffff;fill-opacity:1;stroke:none"
       id="rect3788"
       width="1"
       height="3"
       x="5"
       y="1045.3622" />
    <rect
       y="4"
       x="-1047.3622"
       height="3"
       width="1"
       id="rect3790"
       style="fill:#ffffff;fill-opacity:1;stroke:none"
       transform="matrix(0,-1,1,0,0,0)" />
  </g>
</svg>
