<?xml version="1.0" encoding="UTF-8" standalone="no"?>
<!-- Created with Inkscape (http://www.inkscape.org/) -->

<svg
   width="11"
   height="11"
   id="svg2"
   version="1.1"
   xmlns="http://www.w3.org/2000/svg"
   xmlns:svg="http://www.w3.org/2000/svg"
   xmlns:rdf="http://www.w3.org/1999/02/22-rdf-syntax-ns#"
   xmlns:cc="http://creativecommons.org/ns#"
   xmlns:dc="http://purl.org/dc/elements/1.1/">
  <defs
     id="defs4" />
  <metadata
     id="metadata7">
    <rdf:RDF>
      <cc:Work
         rdf:about="">
        <dc:format>image/svg+xml</dc:format>
        <dc:type
           rdf:resource="http://purl.org/dc/dcmitype/StillImage" />
        <dc:title />
      </cc:Work>
    </rdf:RDF>
  </metadata>
  <g
     id="layer1"
     transform="translate(0,-1041.3622)">
    <path
       style="fill:#000000;fill-opacity:0.39215687;stroke:none"
       d="M 6 2 L 6 5 L 7 5 L 7 2 L 6 2 z M 2 6 L 2 7 L 5 7 L 5 6 L 2 6 z M 6 6 L 6 7 L 6 10 L 6 11 L 7 11 L 7 7 L 11 7 L 11 6 L 10 6 L 7 6 L 6 6 z "
       transform="translate(0,1041.3622)"
       id="rect2987" />
    <path
       id="path3784"
       d="m 5,1042.3622 0,4 -4,0 0,1 4,0 0,4 1,0 0,-4 4,0 0,-1 -4,0 0,-4 -1,0 z"
       style="fill:#ffffff;fill-opacity:0.58823532;stroke:none" />
    <rect
       style="fill:#ffffff;fill-opacity:1.0;stroke:none"
       id="rect3788"
       width="1"
       height="3"
       x="5"
       y="1045.3622" />
    <rect
       y="4"
       x="-1047.3622"
       height="3"
       width="1"
       id="rect3790"
       style="fill:#ffffff;fill-opacity:1.0;stroke:none"
       transform="matrix(0,-1,1,0,0,0)" />
  </g>
</svg>
