<?xml version="1.0" encoding="UTF-8" standalone="no"?>
<!-- Created with Inkscape (http://www.inkscape.org/) -->

<svg
   width="24px"
   height="24px"
   viewBox="0 0 24 24"
   version="1.1"
   id="SVGRoot"
   xmlns="http://www.w3.org/2000/svg"
   xmlns:svg="http://www.w3.org/2000/svg"
   xmlns:rdf="http://www.w3.org/1999/02/22-rdf-syntax-ns#"
   xmlns:cc="http://creativecommons.org/ns#"
   xmlns:dc="http://purl.org/dc/elements/1.1/">
  <defs
     id="defs815">
    <marker
       orient="auto"
       refY="0.0"
       refX="0.0"
       id="marker8803"
       style="overflow:visible">
      <path
         id="path8801"
         d="M 5.77,0.0 L -2.88,5.0 L -2.88,-5.0 L 5.77,0.0 z "
         style="fill-rule:evenodd;stroke:#000000;stroke-width:1pt;stroke-opacity:1.0;fill:#000000;fill-opacity:1.0"
         transform="scale(0.4)" />
    </marker>
    <marker
       orient="auto"
       refY="0.0"
       refX="0.0"
       id="TriangleOutS"
       style="overflow:visible">
      <path
         id="path8663"
         d="M 5.77,0.0 L -2.88,5.0 L -2.88,-5.0 L 5.77,0.0 z "
         style="fill-rule:evenodd;stroke:#000000;stroke-width:1pt;stroke-opacity:1.0;fill:#000000;fill-opacity:1.0"
         transform="scale(0.2)" />
    </marker>
    <marker
       orient="auto-start-reverse"
       refY="3.0"
       refX="5.0"
       id="ExperimentalArrow">
      <path
         id="path8768"
         d="m 10,3 -10,3 0,-6 z"
         style="fill:context-stroke;stroke:#000000;stroke-opacity:1.0" />
    </marker>
    <marker
       orient="auto"
       refY="0.0"
       refX="0.0"
       id="TriangleOutM"
       style="overflow:visible">
      <path
         id="path8660"
         d="M 5.77,0.0 L -2.88,5.0 L -2.88,-5.0 L 5.77,0.0 z "
         style="fill-rule:evenodd;stroke:#000000;stroke-width:1pt;stroke-opacity:1.0;fill:#000000;fill-opacity:1.0"
         transform="scale(0.4)" />
    </marker>
    <marker
       orient="auto"
       refY="0.0"
       refX="0.0"
       id="Arrow2Mend"
       style="overflow:visible">
      <path
         id="path8542"
         style="fill-rule:evenodd;stroke-width:0.625;stroke-linejoin:round;stroke:#000000;stroke-opacity:1.0;fill:#000000;fill-opacity:1.0"
         d="M 8.7185878,4.0337352 L -2.2072895,0.016013256 L 8.7185884,-4.0017078 C 6.9730900,-1.6296469 6.9831476,1.6157441 8.7185878,4.0337352 z "
         transform="scale(0.6) rotate(180) translate(0,0)" />
    </marker>
    <marker
       orient="auto"
       refY="0.0"
       refX="0.0"
       id="marker8791"
       style="overflow:visible">
      <path
         id="path8789"
         d="M 0.0,0.0 L 5.0,-5.0 L -12.5,0.0 L 5.0,5.0 L 0.0,0.0 z "
         style="fill-rule:evenodd;stroke:#000000;stroke-width:1pt;stroke-opacity:1.0;fill:#000000;fill-opacity:1.0"
         transform="scale(0.2) translate(6,0)" />
    </marker>
    <marker
       orient="auto"
       refY="0.0"
       refX="0.0"
       id="marker8787"
       style="overflow:visible">
      <path
         id="path8785"
         d="M 0.0,0.0 L 5.0,-5.0 L -12.5,0.0 L 5.0,5.0 L 0.0,0.0 z "
         style="fill-rule:evenodd;stroke:#000000;stroke-width:1pt;stroke-opacity:1.0;fill:#000000;fill-opacity:1.0"
         transform="scale(0.2) rotate(180) translate(6,0)" />
    </marker>
    <marker
       orient="auto"
       refY="0.0"
       refX="0.0"
       id="Arrow2Lstart"
       style="overflow:visible">
      <path
         id="path8533"
         style="fill-rule:evenodd;stroke-width:0.625;stroke-linejoin:round;stroke:#000000;stroke-opacity:1.0;fill:#000000;fill-opacity:1.0"
         d="M 8.7185878,4.0337352 L -2.2072895,0.016013256 L 8.7185884,-4.0017078 C 6.9730900,-1.6296469 6.9831476,1.6157441 8.7185878,4.0337352 z "
         transform="scale(1.1) translate(1,0)" />
    </marker>
    <marker
       orient="auto"
       refY="0.0"
       refX="0.0"
       id="Arrow1Send"
       style="overflow:visible">
      <path
         id="path8530"
         d="M 0.0,0.0 L 5.0,-5.0 L -12.5,0.0 L 5.0,5.0 L 0.0,0.0 z "
         style="fill-rule:evenodd;stroke:#000000;stroke-width:1pt;stroke-opacity:1.0;fill:#000000;fill-opacity:1.0"
         transform="scale(0.2) rotate(180) translate(6,0)" />
    </marker>
    <marker
       orient="auto"
       refY="0.0"
       refX="0.0"
       id="Arrow1Sstart"
       style="overflow:visible">
      <path
         id="path8527"
         d="M 0.0,0.0 L 5.0,-5.0 L -12.5,0.0 L 5.0,5.0 L 0.0,0.0 z "
         style="fill-rule:evenodd;stroke:#000000;stroke-width:1pt;stroke-opacity:1.0;fill:#000000;fill-opacity:1.0"
         transform="scale(0.2) translate(6,0)" />
    </marker>
    <marker
       orient="auto"
       refY="0.0"
       refX="0.0"
       id="Arrow1Mend"
       style="overflow:visible">
      <path
         id="path8524"
         d="M 0.0,0.0 L 5.0,-5.0 L -12.5,0.0 L 5.0,5.0 L 0.0,0.0 z "
         style="fill-rule:evenodd;stroke:#000000;stroke-width:1pt;stroke-opacity:1.0;fill:#000000;fill-opacity:1.0"
         transform="scale(0.4) rotate(180) translate(10,0)" />
    </marker>
  </defs>
  <metadata
     id="metadata818">
    <rdf:RDF>
      <cc:Work
         rdf:about="">
        <dc:format>image/svg+xml</dc:format>
        <dc:type
           rdf:resource="http://purl.org/dc/dcmitype/StillImage" />
        <dc:title />
        <dc:creator>
          <cc:Agent>
            <dc:title>Maciej Dworak</dc:title>
          </cc:Agent>
        </dc:creator>
        <dc:rights>
          <cc:Agent>
            <dc:title />
          </cc:Agent>
        </dc:rights>
        <dc:description>RawTherapee icon.</dc:description>
        <cc:license
           rdf:resource="http://creativecommons.org/licenses/by-sa/4.0/" />
      </cc:Work>
      <cc:License
         rdf:about="http://creativecommons.org/licenses/by-sa/4.0/">
        <cc:permits
           rdf:resource="http://creativecommons.org/ns#Reproduction" />
        <cc:permits
           rdf:resource="http://creativecommons.org/ns#Distribution" />
        <cc:requires
           rdf:resource="http://creativecommons.org/ns#Notice" />
        <cc:requires
           rdf:resource="http://creativecommons.org/ns#Attribution" />
        <cc:permits
           rdf:resource="http://creativecommons.org/ns#DerivativeWorks" />
        <cc:requires
           rdf:resource="http://creativecommons.org/ns#ShareAlike" />
      </cc:License>
    </rdf:RDF>
  </metadata>
  <g
     id="layer1">
    <path
       style="opacity:0.7;fill:#cccccc;stroke:none;stroke-width:1.34910131;fill-opacity:1.0"
       d="m 3.8700935,7.3079801 v 3.5809079 0.929731 c 0,5.635467 0.023659,8.910088 0.059397,9.114359 0.1489028,0.799058 0.6850835,1.502605 1.4117293,1.86909 l 0.4051695,0.197929 H 12 18.253611 l 0.327741,-0.156203 c 0.673041,-0.32443 1.167856,-0.877621 1.370364,-1.538496 0.119123,-0.38451 0.118793,-0.540172 0.118793,-9.335825 V 10.888888 7.3079801 h -8.100208 z m 3.4237883,2.4714365 c 0.557353,0 1.0065598,0.4520474 1.0065598,1.0142524 v 8.72064 c 0,0.562204 -0.4492068,1.014252 -1.0065598,1.014252 -0.557353,0 -1.0054992,-0.452048 -1.0054992,-1.014252 v -8.72064 c 0,-0.562205 0.4481462,-1.0142524 1.0054992,-1.0142524 z m 4.6764192,0 c 0.557353,0 1.00656,0.4520474 1.00656,1.0142524 v 8.72064 c 0,0.562204 -0.449207,1.014252 -1.00656,1.014252 -0.557353,0 -1.006559,-0.452048 -1.006559,-1.014252 v -8.72064 c 0,-0.562205 0.449206,-1.0142524 1.006559,-1.0142524 z m 4.67642,0 c 0.557353,0 1.005499,0.4520474 1.005499,1.0142524 v 8.72064 c 0,0.562204 -0.448146,1.014252 -1.005499,1.014252 -0.557353,0 -1.00656,-0.452048 -1.00656,-1.014252 v -8.72064 c 0,-0.562205 0.449207,-1.0142524 1.00656,-1.0142524 z"
       id="path5310" />
    <path
       style="color:#000000;font-style:normal;font-variant:normal;font-weight:normal;font-stretch:normal;font-size:medium;line-height:normal;font-family:sans-serif;font-variant-ligatures:normal;font-variant-position:normal;font-variant-caps:normal;font-variant-numeric:normal;font-variant-alternates:normal;font-feature-settings:normal;text-indent:0;text-align:start;text-decoration:none;text-decoration-line:none;text-decoration-style:solid;text-decoration-color:#000000;letter-spacing:normal;word-spacing:normal;text-transform:none;writing-mode:lr-tb;direction:ltr;text-orientation:mixed;dominant-baseline:auto;baseline-shift:baseline;text-anchor:start;white-space:normal;shape-padding:0;clip-rule:nonzero;display:inline;overflow:visible;visibility:visible;opacity:0.9;isolation:auto;mix-blend-mode:normal;color-interpolation:sRGB;color-interpolation-filters:linearRGB;solid-color:#000000;solid-opacity:1;vector-effect:none;fill:#cccccc;fill-opacity:1.0;fill-rule:nonzero;stroke:none;stroke-width:2;stroke-linecap:butt;stroke-linejoin:round;stroke-miterlimit:4;stroke-dasharray:none;stroke-dashoffset:2;stroke-opacity:1;paint-order:normal;color-rendering:auto;image-rendering:auto;shape-rendering:auto;text-rendering:auto;enable-background:accumulate"
       d="M 12 1 A 3 3 0 0 0 9 4 A 3 3 0 0 0 9 4.015625 C 8.9134335 4.0195703 8.8333282 4.0280782 8.7480469 4.0332031 A 2 2 0 0 0 7 3 A 2 2 0 0 0 5 5 L 5 7 L 7 7 L 12 7 L 16.5 7 L 19 7 L 19 4.5 A 2.5 2.5 0 0 0 16.5 2 A 2.5 2.5 0 0 0 14.722656 2.7460938 A 3 3 0 0 0 12 1 z "
       id="path911" />
    <path
       style="opacity:0.7;fill:#cccccc;stroke:none;stroke-width:1.34910131;fill-opacity:1.0"
       id="path5310-3"
       d="m 7.2929688,10.193359 c -0.3336729,0 -0.5898438,0.256741 -0.5898438,0.59961 v 8.720703 c 0,0.342867 0.257139,0.601562 0.5898438,0.601562 0.3327046,0 0.59375,-0.260613 0.59375,-0.601562 v -8.720703 c 0,-0.34095 -0.2600773,-0.59961 -0.59375,-0.59961 z" />
    <path
       d="m 7.2929688,10.193359 c -0.3336729,0 -0.5898438,0.256741 -0.5898438,0.59961 v 8.720703 c 0,0.342867 0.257139,0.601562 0.5898438,0.601562 0.3327046,0 0.59375,-0.260613 0.59375,-0.601562 v -8.720703 c 0,-0.34095 -0.2600773,-0.59961 -0.59375,-0.59961 z"
       id="path961"
       style="opacity:0.7;fill:#cccccc;stroke:none;stroke-width:1.34910131;fill-opacity:1.0"
       transform="translate(4.6753794)" />
    <path
       transform="translate(9.3576642)"
       style="opacity:0.7;fill:#cccccc;stroke:none;stroke-width:1.34910131;fill-opacity:1.0"
       id="path963"
       d="m 7.2929688,10.193359 c -0.3336729,0 -0.5898438,0.256741 -0.5898438,0.59961 v 8.720703 c 0,0.342867 0.257139,0.601562 0.5898438,0.601562 0.3327046,0 0.59375,-0.260613 0.59375,-0.601562 v -8.720703 c 0,-0.34095 -0.2600773,-0.59961 -0.59375,-0.59961 z" />
  </g>
</svg>
