<?xml version="1.0" encoding="UTF-8" standalone="no"?>
<!-- Created with Inkscape (http://www.inkscape.org/) -->

<svg
   width="24px"
   height="24px"
   viewBox="0 0 24 24"
   version="1.1"
   id="SVGRoot"
   xmlns="http://www.w3.org/2000/svg"
   xmlns:svg="http://www.w3.org/2000/svg"
   xmlns:rdf="http://www.w3.org/1999/02/22-rdf-syntax-ns#"
   xmlns:cc="http://creativecommons.org/ns#"
   xmlns:dc="http://purl.org/dc/elements/1.1/">
  <defs
     id="defs815" />
  <metadata
     id="metadata818">
    <rdf:RDF>
      <cc:Work
         rdf:about="">
        <dc:format>image/svg+xml</dc:format>
        <dc:type
           rdf:resource="http://purl.org/dc/dcmitype/StillImage" />
        <dc:title />
        <dc:creator>
          <cc:Agent>
            <dc:title>Maciej Dworak</dc:title>
          </cc:Agent>
        </dc:creator>
        <dc:rights>
          <cc:Agent>
            <dc:title />
          </cc:Agent>
        </dc:rights>
        <dc:description>RawTherapee icon.</dc:description>
        <cc:license
           rdf:resource="http://creativecommons.org/licenses/by-sa/4.0/" />
      </cc:Work>
      <cc:License
         rdf:about="http://creativecommons.org/licenses/by-sa/4.0/">
        <cc:permits
           rdf:resource="http://creativecommons.org/ns#Reproduction" />
        <cc:permits
           rdf:resource="http://creativecommons.org/ns#Distribution" />
        <cc:requires
           rdf:resource="http://creativecommons.org/ns#Notice" />
        <cc:requires
           rdf:resource="http://creativecommons.org/ns#Attribution" />
        <cc:permits
           rdf:resource="http://creativecommons.org/ns#DerivativeWorks" />
        <cc:requires
           rdf:resource="http://creativecommons.org/ns#ShareAlike" />
      </cc:License>
    </rdf:RDF>
  </metadata>
  <g
     id="layer1">
    <path
       style="opacity:0.7;fill:#cccccc;fill-opacity:1.0;fill-rule:nonzero;stroke:#cccccc;stroke-width:1.58443224;stroke-linecap:butt;stroke-linejoin:round;stroke-miterlimit:4;stroke-dasharray:none;stroke-dashoffset:2.00314951;stroke-opacity:1.0;paint-order:normal"
       d="M 9.949033,8.4948032 7.969092,6.0502179 6.5454982,13.646832 l 7.8944748,0.719941 -2.021592,-2.59938 c 4.275719,-5.1547511 9.942843,-1.673533 9.942843,-1.673533 0,0 -6.425864,-8.1931439 -12.412191,-1.5990568 z"
       id="path815" />
    <path
       style="color:#000000;font-style:normal;font-variant:normal;font-weight:normal;font-stretch:normal;font-size:medium;line-height:normal;font-family:sans-serif;font-variant-ligatures:normal;font-variant-position:normal;font-variant-caps:normal;font-variant-numeric:normal;font-variant-alternates:normal;font-feature-settings:normal;text-indent:0;text-align:start;text-decoration:none;text-decoration-line:none;text-decoration-style:solid;text-decoration-color:#000000;letter-spacing:normal;word-spacing:normal;text-transform:none;writing-mode:lr-tb;direction:ltr;text-orientation:mixed;dominant-baseline:auto;baseline-shift:baseline;text-anchor:start;white-space:normal;shape-padding:0;clip-rule:nonzero;display:inline;overflow:visible;visibility:visible;opacity:0.35;isolation:auto;mix-blend-mode:normal;color-interpolation:sRGB;color-interpolation-filters:linearRGB;solid-color:#000000;solid-opacity:1;vector-effect:none;fill:#cccccc;fill-opacity:1.0;fill-rule:nonzero;stroke:none;stroke-width:1.58443224;stroke-linecap:butt;stroke-linejoin:round;stroke-miterlimit:4;stroke-dasharray:none;stroke-dashoffset:2.00314951;stroke-opacity:1;paint-order:normal;color-rendering:auto;image-rendering:auto;shape-rendering:auto;text-rendering:auto;enable-background:accumulate"
       d="M 3.2089844 8.4277344 A 0.79229534 0.79229534 0 0 0 2.4375 9.0722656 L 1.0136719 16.669922 A 0.79229534 0.79229534 0 0 0 1.7207031 17.605469 L 9.6152344 18.324219 A 0.79229534 0.79229534 0 0 0 10.3125 17.048828 L 9.1230469 15.519531 L 6.9746094 15.324219 A 0.79229534 0.79229534 0 0 0 7.0390625 15.421875 L 7.9394531 16.580078 L 2.7304688 16.105469 L 3.6777344 11.048828 L 4.5800781 12.162109 A 0.79229534 0.79229534 0 0 0 4.6503906 12.238281 L 5.03125 10.205078 L 3.8320312 8.7207031 A 0.79229534 0.79229534 0 0 0 3.2089844 8.4277344 z "
       id="path829" />
    <path
       style="opacity:0.35;fill:#cccccc;fill-opacity:1.0;fill-rule:nonzero;stroke:none;stroke-width:1.58443224;stroke-linecap:butt;stroke-linejoin:round;stroke-miterlimit:4;stroke-dasharray:none;stroke-dashoffset:2.00314951;stroke-opacity:1;paint-order:normal"
       d="M 3.6777344 11.048828 L 2.7304688 16.105469 L 7.9394531 16.580078 L 7.0390625 15.421875 A 0.79229534 0.79229534 0 0 1 6.9746094 15.324219 L 5.1347656 15.15625 C 4.5913076 15.107137 4.2081598 14.600804 4.3085938 14.064453 L 4.6503906 12.238281 A 0.79229534 0.79229534 0 0 1 4.5800781 12.162109 L 3.6777344 11.048828 z "
       id="path880" />
  </g>
</svg>
