<?xml version="1.0" encoding="UTF-8" standalone="no"?>
<!-- Created with Inkscape (http://www.inkscape.org/) -->

<svg
   width="16"
   height="16"
   viewBox="0 0 16 16"
   version="1.1"
   id="SVGRoot"
   xmlns="http://www.w3.org/2000/svg"
   xmlns:svg="http://www.w3.org/2000/svg"
   xmlns:rdf="http://www.w3.org/1999/02/22-rdf-syntax-ns#"
   xmlns:cc="http://creativecommons.org/ns#"
   xmlns:dc="http://purl.org/dc/elements/1.1/">
  <defs
     id="defs815" />
  <metadata
     id="metadata818">
    <rdf:RDF>
      <cc:Work
         rdf:about="">
        <dc:format>image/svg+xml</dc:format>
        <dc:type
           rdf:resource="http://purl.org/dc/dcmitype/StillImage" />
        <dc:title />
        <dc:creator>
          <cc:Agent>
            <dc:title>Maciej Dworak</dc:title>
          </cc:Agent>
        </dc:creator>
        <dc:rights>
          <cc:Agent>
            <dc:title />
          </cc:Agent>
        </dc:rights>
        <dc:description>RawTherapee icon.</dc:description>
        <cc:license
           rdf:resource="http://creativecommons.org/licenses/by-sa/4.0/" />
      </cc:Work>
      <cc:License
         rdf:about="http://creativecommons.org/licenses/by-sa/4.0/">
        <cc:permits
           rdf:resource="http://creativecommons.org/ns#Reproduction" />
        <cc:permits
           rdf:resource="http://creativecommons.org/ns#Distribution" />
        <cc:requires
           rdf:resource="http://creativecommons.org/ns#Notice" />
        <cc:requires
           rdf:resource="http://creativecommons.org/ns#Attribution" />
        <cc:permits
           rdf:resource="http://creativecommons.org/ns#DerivativeWorks" />
        <cc:requires
           rdf:resource="http://creativecommons.org/ns#ShareAlike" />
      </cc:License>
    </rdf:RDF>
  </metadata>
  <g
     id="layer1"
     transform="translate(0,-8)">
    <g
       aria-label="AWB"
       style="font-style:normal;font-variant:normal;font-weight:normal;font-stretch:normal;font-size:8px;line-height:125%;font-family:'Arial Black';-inkscape-font-specification:'Arial Black, ';letter-spacing:0px;word-spacing:0px;fill:#000000;fill-opacity:1.0;stroke:none;stroke-width:1px;stroke-linecap:butt;stroke-linejoin:miter;stroke-opacity:1"
       id="text831"
       transform="matrix(0.64285714,0,0,0.64285714,0.35714286,6.7857143)" />
    <path
       style="opacity:0.7;fill:#cccccc;fill-opacity:1.0;fill-rule:nonzero;stroke:none;stroke-width:2;stroke-linecap:butt;stroke-linejoin:round;stroke-miterlimit:4;stroke-dasharray:none;stroke-dashoffset:2;stroke-opacity:1;paint-order:normal"
       d="M 2 4 C 1.446 4 1 4.446 1 5 L 1 11 C 1 11.554 1.446 12 2 12 L 14 12 C 14.554 12 15 11.554 15 11 L 15 5 C 15 4.446 14.554 4 14 4 L 2 4 z M 2.7167969 6.0917969 L 4.0019531 6.0917969 L 5.4375 9.9082031 L 4.203125 9.9082031 L 4.015625 9.2792969 L 2.671875 9.2792969 L 2.4863281 9.9082031 L 1.28125 9.9082031 L 2.7167969 6.0917969 z M 5.4609375 6.0917969 L 6.5800781 6.0917969 L 6.984375 8.2246094 L 7.5722656 6.0917969 L 8.6894531 6.0917969 L 9.28125 8.2246094 L 9.6855469 6.0917969 L 10.798828 6.0917969 L 9.9589844 9.9082031 L 8.8027344 9.9082031 L 8.1328125 7.5058594 L 7.4667969 9.9082031 L 6.3105469 9.9082031 L 5.4609375 6.0917969 z M 11.189453 6.0917969 L 13.398438 6.0917969 C 13.766493 6.0917969 14.04796 6.1829427 14.244141 6.3652344 C 14.442057 6.547526 14.541016 6.7719184 14.541016 7.0410156 C 14.541016 7.2667101 14.470703 7.4615885 14.330078 7.6230469 C 14.236328 7.7306858 14.100477 7.8144531 13.919922 7.8769531 C 14.194227 7.9429253 14.394965 8.0572917 14.523438 8.21875 C 14.653646 8.3784722 14.71875 8.5792101 14.71875 8.8222656 C 14.71875 9.0201823 14.672092 9.1994358 14.580078 9.3574219 C 14.488064 9.515408 14.362847 9.640408 14.203125 9.7324219 C 14.104167 9.7897135 13.955512 9.8313802 13.755859 9.8574219 C 13.490234 9.8921441 13.313368 9.9082031 13.226562 9.9082031 L 11.189453 9.9082031 L 11.189453 6.0917969 z M 12.380859 6.8652344 L 12.380859 7.5878906 L 12.892578 7.5878906 C 13.076606 7.5878906 13.20421 7.5566406 13.275391 7.4941406 C 13.348307 7.4299045 13.384766 7.3385417 13.384766 7.21875 C 13.384766 7.1076389 13.348307 7.0214844 13.275391 6.9589844 C 13.20421 6.8964844 13.07921 6.8652344 12.900391 6.8652344 L 12.380859 6.8652344 z M 3.3457031 7.0800781 L 2.9277344 8.453125 L 3.7675781 8.453125 L 3.3457031 7.0800781 z M 12.380859 8.3144531 L 12.380859 9.0878906 L 12.982422 9.0878906 C 13.185547 9.0878906 13.328776 9.0536024 13.412109 8.9824219 C 13.495443 8.9095052 13.537109 8.8109809 13.537109 8.6894531 C 13.537109 8.5766059 13.495443 8.4876302 13.412109 8.4199219 C 13.330512 8.3504774 13.185113 8.3144531 12.978516 8.3144531 L 12.380859 8.3144531 z "
       transform="translate(0,8)"
       id="rect890" />
  </g>
</svg>
