<?xml version="1.0" encoding="UTF-8" standalone="no"?>
<!-- Created with Inkscape (http://www.inkscape.org/) -->

<svg
   width="24px"
   height="24px"
   viewBox="0 0 24 24"
   version="1.1"
   id="SVGRoot"
   xmlns="http://www.w3.org/2000/svg"
   xmlns:svg="http://www.w3.org/2000/svg"
   xmlns:rdf="http://www.w3.org/1999/02/22-rdf-syntax-ns#"
   xmlns:cc="http://creativecommons.org/ns#"
   xmlns:dc="http://purl.org/dc/elements/1.1/">
  <defs
     id="defs815" />
  <metadata
     id="metadata818">
    <rdf:RDF>
      <cc:Work
         rdf:about="">
        <dc:format>image/svg+xml</dc:format>
        <dc:type
           rdf:resource="http://purl.org/dc/dcmitype/StillImage" />
        <dc:title />
        <dc:creator>
          <cc:Agent>
            <dc:title>Maciej Dworak</dc:title>
          </cc:Agent>
        </dc:creator>
        <dc:rights>
          <cc:Agent>
            <dc:title />
          </cc:Agent>
        </dc:rights>
        <dc:description>RawTherapee icon.</dc:description>
        <cc:license
           rdf:resource="http://creativecommons.org/licenses/by-sa/4.0/" />
      </cc:Work>
      <cc:License
         rdf:about="http://creativecommons.org/licenses/by-sa/4.0/">
        <cc:permits
           rdf:resource="http://creativecommons.org/ns#Reproduction" />
        <cc:permits
           rdf:resource="http://creativecommons.org/ns#Distribution" />
        <cc:requires
           rdf:resource="http://creativecommons.org/ns#Notice" />
        <cc:requires
           rdf:resource="http://creativecommons.org/ns#Attribution" />
        <cc:permits
           rdf:resource="http://creativecommons.org/ns#DerivativeWorks" />
        <cc:requires
           rdf:resource="http://creativecommons.org/ns#ShareAlike" />
      </cc:License>
    </rdf:RDF>
  </metadata>
  <g
     id="layer1">
    <path
       style="display:inline;opacity:0.7;fill:#cccccc;fill-opacity:1.0;stroke:none;stroke-width:0.99999988"
       d="m 6.0835699,19.587551 c 4.6501551,0 6.6899871,0 10.0115281,0 2.621795,0 5.962681,0.31553 6.006857,-1.347094 C 22.135164,16.990636 23,17.186187 23,15.317002 c 0,-2.949865 -2.426415,-3.987305 -4.079967,-3.04006 -0.08809,0.978792 -0.629349,2.268408 -2.140889,2.718116 C 19.184648,12.34966 19.04694,4.9768107 11.807271,4.4061668 8.5326329,4.1480538 6.1421142,6.7772313 5.9244288,9.0950773 c 1.6253,0.18383 3.1590068,0.9907007 3.2408659,3.1643507 C 7.0727099,9.6327503 3.9691009,10.265409 2.8964036,10.949385 1.2656321,11.989201 1,13.335352 1,15.177688 c 0,2.462719 1.6889231,4.409863 5.0835699,4.409863 z"
       id="path10598" />
  </g>
</svg>
